<svg width="375" height="522" viewBox="0 0 375 522" fill="none" xmlns="http://www.w3.org/2000/svg">
<path d="M187.25 0.566987C187.095 0.477671 186.905 0.477671 186.75 0.566987L-38.4166 130.567C-38.5713 130.656 -38.6666 130.821 -38.6666 131V391C-38.6666 391.179 -38.5713 391.344 -38.4166 391.433L186.75 521.433C186.905 521.522 187.095 521.522 187.25 521.433L412.417 391.433C412.571 391.344 412.667 391.179 412.667 391V131C412.667 130.821 412.571 130.656 412.417 130.567L187.25 0.566987Z" stroke="url(#paint0_linear)" stroke-linecap="square" stroke-linejoin="round"/>
<g clip-path="url(#clip0)">
<path d="M-33.3936 258.237L6.07593 229.276C6.73743 228.778 7.50916 228.392 8.33604 228.115C12.5255 226.733 16.9907 229.055 18.3688 233.255L19.0854 235.521L23.9364 250.444C24.5979 252.544 26.8581 253.705 28.9528 252.986C29.2836 252.876 29.6143 252.71 29.945 252.489L33.1423 250.333L33.8589 249.891C39.8124 245.801 41.3559 242.098 45.9313 232.702C50.8374 222.201 58.0037 212.308 62.1381 202.249C69.2492 185.061 70.2965 163.34 83.2509 150.352C96.1502 137.419 117.869 136.314 135.013 129.184C142.621 126.034 150.173 121.115 157.89 116.804C163.182 113.764 165.828 109.011 163.458 104.369L158.166 94.0336L157.339 92.4308C156.788 91.3254 156.457 90.1095 156.292 88.8936C155.74 83.4773 159.985 78.5584 165.442 78.0057L183.744 76.2371C186.114 76.016 187.823 73.9158 187.603 71.5393C187.547 71.2077 187.492 70.9313 187.437 70.5997L180.05 47.8843C179.885 47.3869 180.05 46.8895 180.491 46.6131C180.988 46.3368 181.649 46.4473 181.98 46.9447L205.132 78.6689C205.518 79.2216 205.849 79.8296 206.069 80.4928C207.172 83.8642 205.353 87.4566 201.99 88.562L200.171 89.1699L188.209 93.0387C186.5 93.5914 185.618 95.4153 186.169 97.0734C186.28 97.3497 186.39 97.626 186.555 97.8471L188.264 100.389L188.65 100.942C191.847 105.585 194.714 106.911 201.77 110.338C214.448 115.036 226.08 124.155 238.042 129.074C255.186 136.204 276.85 137.254 289.804 150.242C302.759 163.23 303.806 184.95 310.972 202.139C313.343 207.942 316.705 213.635 320.068 219.438C323.872 226.015 329.329 229.221 335.117 226.291L347.961 219.714L349.946 218.72C351.324 218.001 352.812 217.559 354.356 217.448C361.136 216.785 367.2 222.091 367.861 228.834L370.121 251.66C370.452 254.644 373.098 256.8 376.02 256.468C376.406 256.413 376.736 256.357 377.122 256.247L405.236 247.128C405.842 246.907 406.504 247.183 406.835 247.736C407.221 248.399 407 249.173 406.394 249.615L366.924 278.575C366.263 279.073 365.491 279.46 364.664 279.736C360.475 281.118 356.009 278.796 354.631 274.596L353.915 272.33L349.064 257.408C348.402 255.307 346.142 254.147 344.047 254.865C343.717 254.976 343.386 255.142 343.055 255.363L339.858 257.518L339.141 257.96C333.188 262.05 331.644 265.753 327.069 275.149C322.163 285.65 314.996 295.543 310.862 305.602C303.751 322.79 302.648 344.511 289.749 357.499C276.85 370.432 255.131 371.537 237.987 378.667C232.199 381.043 226.521 384.415 220.733 387.786C214.173 391.6 210.976 397.071 213.897 402.874L220.457 415.752L221.449 417.742C222.166 419.123 222.607 420.616 222.717 422.163C223.379 428.961 218.087 435.041 211.361 435.704L188.595 437.97C185.618 438.246 183.468 440.899 183.799 443.884C183.854 444.271 183.909 444.602 184.019 444.989L193.225 473.231C193.446 473.839 193.17 474.503 192.619 474.834C191.957 475.221 191.186 475 190.745 474.392L161.859 434.82C161.363 434.156 160.977 433.383 160.702 432.554C159.323 428.353 161.639 423.877 165.828 422.495L168.088 421.776L182.972 416.913C185.067 416.249 186.224 413.983 185.563 411.883C185.453 411.552 185.287 411.22 185.067 410.888L182.917 407.683L182.476 406.964C178.397 400.995 174.703 399.448 165.332 394.861C154.858 389.942 144.991 382.757 134.958 378.612C117.814 371.482 96.1502 370.432 83.1958 357.444C70.2965 344.511 69.194 322.735 62.0829 305.546C59.7125 299.743 56.3499 294.051 52.9873 288.247C49.1837 281.67 43.7263 278.465 37.9382 281.394L25.0941 287.971L23.1095 288.966C21.7314 289.684 20.243 290.127 18.6995 290.237C11.9192 290.9 5.85541 285.595 5.19391 278.852L2.9338 256.026C2.65817 253.097 0.0121839 250.941 -2.90944 251.217C-3.29532 251.273 -3.68121 251.328 -4.06709 251.439L-32.2359 260.613C-32.8423 260.834 -33.5038 260.558 -33.8346 260.005C-34.1653 259.508 -34 258.679 -33.3936 258.237Z" fill="#FFAF51"/>
<path d="M108.829 93.0939C109.545 92.3201 110.262 91.5464 110.979 90.7726C111.695 89.9989 112.412 89.2251 113.184 88.5066C113.625 88.0645 114.011 87.6776 114.452 87.2354C115.223 86.4617 115.444 85.301 114.948 84.3062C114.507 83.4772 114.066 82.4823 113.735 81.8744L112.853 79.94L111.971 78.0056C111.42 76.6791 110.868 75.408 110.372 74.0262C110.152 73.4736 110.317 72.8103 110.758 72.3682C111.309 71.8708 112.191 71.8708 112.743 72.3682C113.845 73.2525 114.893 74.2473 115.94 75.1869L117.483 76.6791L118.972 78.1714C119.964 79.1662 120.956 80.1611 121.893 81.2112C122.831 82.2613 123.823 83.2561 124.76 84.3062C125.807 85.4668 125.973 87.1802 125.201 88.5619L124.595 89.612C124.043 90.6068 122.996 92.2649 122.169 93.5913C121.397 94.8072 121.508 96.41 122.39 97.5154C122.5 97.6812 122.665 97.847 122.775 98.0681C123.602 99.1734 124.319 100.389 124.87 101.661C125.532 103.042 125.973 104.535 126.248 106.082C126.248 106.248 126.248 106.414 126.248 106.579C126.193 107.851 125.091 108.845 123.823 108.735C122.279 108.624 120.791 108.293 119.358 107.795C118.035 107.353 116.767 106.745 115.609 106.027C114.452 105.364 113.349 104.59 112.357 103.761C111.309 102.932 110.372 101.992 109.545 100.942L108.663 99.8367C107.01 97.7365 107.12 94.973 108.829 93.0939Z" fill="#0485CA"/>
<path d="M244.987 85.1354C246.035 85.0802 247.082 85.0249 248.13 85.0249C249.177 85.0249 250.224 84.9696 251.272 84.9696C251.878 84.9696 252.484 84.9696 253.091 84.9696C254.193 84.9696 255.13 84.3064 255.516 83.2563C255.792 82.372 256.123 81.3219 256.343 80.714L257.06 78.7243L257.832 76.7346C258.328 75.4082 258.879 74.0817 259.485 72.7553C259.761 72.2026 260.312 71.8157 260.919 71.871C261.69 71.9262 262.297 72.5342 262.352 73.2527C262.462 74.6897 262.572 76.0714 262.627 77.5084L262.683 79.6638V81.7641C262.683 83.201 262.683 84.5828 262.627 85.9645C262.572 87.3462 262.517 88.7832 262.462 90.1649C262.352 91.7677 261.304 93.0941 259.761 93.481L258.603 93.8126C257.501 94.089 255.627 94.5311 254.083 94.918C252.705 95.2496 251.602 96.4102 251.437 97.8472C251.382 98.0683 251.382 98.2894 251.327 98.5104C251.106 99.8922 250.776 101.219 250.279 102.545C249.783 103.982 249.067 105.364 248.13 106.635C248.019 106.745 247.909 106.856 247.799 106.967C246.862 107.796 245.428 107.74 244.546 106.801C243.554 105.64 242.672 104.314 242.011 102.932C241.404 101.661 240.908 100.39 240.577 99.0079C240.247 97.7367 240.026 96.4102 239.861 95.0838C239.695 93.7573 239.695 92.4309 239.861 91.1045L240.026 89.7227C240.412 87.1251 242.507 85.246 244.987 85.1354Z" fill="#0485CA"/>
<path d="M346.914 176.052C347.685 176.771 348.457 177.489 349.229 178.208C350.001 178.926 350.772 179.645 351.489 180.419L352.757 181.69C353.529 182.463 354.686 182.685 355.679 182.187L358.049 180.971L359.978 180.087L361.908 179.203C363.231 178.65 364.499 178.097 365.877 177.545C366.428 177.323 367.089 177.489 367.53 177.931C368.027 178.484 368.027 179.368 367.53 179.921C366.648 181.026 365.656 182.077 364.719 183.127L363.231 184.674L361.742 186.166C360.75 187.161 359.758 188.156 358.71 189.096C357.718 190.091 356.671 191.03 355.623 191.97C354.466 193.02 352.757 193.186 351.379 192.412L350.331 191.804C349.339 191.251 347.685 190.201 346.362 189.372C345.15 188.598 343.551 188.709 342.449 189.538C342.283 189.648 342.118 189.814 341.897 189.925C340.795 190.754 339.582 191.417 338.314 192.025C336.936 192.688 335.448 193.13 333.904 193.407C333.739 193.407 333.573 193.462 333.408 193.407C332.14 193.351 331.148 192.246 331.258 190.975C331.368 189.427 331.699 187.935 332.195 186.498C332.636 185.172 333.243 183.9 333.959 182.74C334.621 181.579 335.393 180.474 336.219 179.479C337.046 178.429 337.983 177.489 339.031 176.66L340.133 175.776C342.228 174.228 345.039 174.339 346.914 176.052Z" fill="#0485CA"/>
<path d="M354.852 312.566C354.907 313.616 354.962 314.666 354.962 315.716C355.017 316.766 355.017 317.816 355.017 318.866C355.017 319.474 355.017 320.082 355.017 320.69C355.017 321.795 355.679 322.735 356.726 323.122C357.608 323.398 358.6 323.73 359.262 323.951L361.246 324.669L363.231 325.443C364.554 325.941 365.877 326.493 367.2 327.101C367.751 327.378 368.082 327.93 368.082 328.538C368.027 329.312 367.42 329.92 366.704 329.975C365.27 330.141 363.892 330.196 362.459 330.252L360.364 330.307H358.27C356.836 330.307 355.458 330.307 354.08 330.252C352.702 330.196 351.269 330.141 349.891 330.086C348.292 329.975 346.969 328.925 346.583 327.378L346.252 326.217C345.977 325.112 345.536 323.232 345.15 321.685C344.819 320.303 343.661 319.198 342.228 319.032C342.008 319.032 341.787 318.977 341.567 318.922C340.189 318.7 338.866 318.369 337.543 317.871C336.109 317.374 334.731 316.656 333.463 315.716C333.353 315.605 333.243 315.495 333.133 315.384C332.306 314.445 332.361 312.952 333.298 312.123C334.456 311.129 335.779 310.244 337.157 309.581C338.425 308.973 339.692 308.476 341.071 308.144C342.338 307.812 343.661 307.591 344.984 307.426C346.307 307.26 347.63 307.26 348.953 307.426L350.332 307.591C352.867 307.978 354.742 310.079 354.852 312.566Z" fill="#0485CA"/>
<path d="M264.171 414.757C263.455 415.531 262.738 416.305 262.021 417.079C261.305 417.852 260.588 418.626 259.816 419.345C259.375 419.787 258.99 420.174 258.549 420.616C257.777 421.389 257.556 422.55 258.052 423.545C258.493 424.374 258.934 425.369 259.265 425.977L260.147 427.911L261.029 429.846C261.58 431.172 262.132 432.443 262.628 433.825C262.848 434.378 262.683 435.041 262.242 435.483C261.691 435.98 260.809 435.98 260.257 435.483C259.155 434.599 258.107 433.604 257.06 432.664L255.517 431.172L254.028 429.68C253.036 428.685 252.044 427.69 251.107 426.64C250.17 425.645 249.177 424.595 248.24 423.545C247.193 422.384 247.027 420.671 247.799 419.289L248.405 418.239C248.957 417.244 250.004 415.586 250.831 414.26C251.603 413.044 251.492 411.441 250.666 410.336C250.555 410.17 250.39 410.004 250.28 409.783C249.453 408.678 248.791 407.462 248.185 406.191C247.523 404.809 247.082 403.317 246.807 401.824C246.807 401.659 246.752 401.493 246.807 401.327C246.862 400.056 247.964 399.061 249.232 399.171C250.776 399.282 252.264 399.614 253.697 400.111C255.02 400.553 256.288 401.161 257.446 401.88C258.604 402.543 259.706 403.317 260.698 404.146C261.746 404.975 262.683 405.914 263.51 406.964L264.392 408.07C265.99 410.059 265.88 412.878 264.171 414.757Z" fill="#0485CA"/>
<path d="M128.013 422.716C126.965 422.771 125.918 422.826 124.87 422.826C123.823 422.826 122.776 422.882 121.728 422.882H119.909C118.807 422.882 117.87 423.545 117.484 424.595C117.208 425.479 116.877 426.529 116.657 427.137L115.94 429.127L115.168 431.117C114.672 432.443 114.121 433.769 113.515 435.096C113.239 435.649 112.688 436.035 112.081 435.98C111.31 435.925 110.703 435.317 110.648 434.599C110.483 433.162 110.428 431.78 110.373 430.343L110.317 428.187V426.142C110.317 424.761 110.317 423.324 110.373 421.942C110.428 420.56 110.483 419.123 110.538 417.742C110.648 416.139 111.696 414.812 113.239 414.425L114.397 414.094C115.499 413.818 117.373 413.375 118.917 412.989C120.295 412.657 121.398 411.496 121.563 410.059C121.563 409.838 121.618 409.617 121.673 409.396C121.894 408.014 122.224 406.688 122.721 405.361C123.217 403.924 123.933 402.543 124.87 401.272C124.981 401.161 125.091 400.995 125.201 400.885C126.138 400.056 127.572 400.111 128.454 401.05C129.446 402.211 130.328 403.538 130.989 404.919C131.596 406.19 132.092 407.462 132.423 408.843C132.753 410.115 132.974 411.441 133.139 412.767C133.305 414.094 133.305 415.42 133.139 416.747L132.974 418.128C132.588 420.726 130.548 422.605 128.013 422.716Z" fill="#0485CA"/>
<path d="M26.0863 331.799C25.3146 331.081 24.5428 330.362 23.7711 329.644C22.9993 328.925 22.2276 328.207 21.511 327.433C21.07 326.991 20.6841 326.604 20.2431 326.162C19.4713 325.388 18.3137 325.167 17.3214 325.664L14.896 326.88L12.9666 327.765L11.0372 328.649C9.71421 329.202 8.44633 329.81 7.0682 330.307C6.51695 330.528 5.85545 330.362 5.41445 329.92C4.91833 329.367 4.91833 328.483 5.41445 327.93C6.29645 326.825 7.28869 325.775 8.22581 324.725L9.71419 323.177L11.2026 321.685C12.1948 320.69 13.1871 319.695 14.2345 318.756C15.2267 317.816 16.2741 316.821 17.3214 315.882C18.4791 314.832 20.1879 314.666 21.5661 315.44L22.6135 316.048C23.6057 316.6 25.2595 317.65 26.5825 318.479C27.7952 319.253 29.3938 319.143 30.4963 318.314L31.0476 317.927C32.1501 317.098 33.3628 316.435 34.6307 315.827C36.0088 315.163 37.4972 314.721 39.0407 314.445C39.2061 314.445 39.3715 314.445 39.5368 314.445C40.8047 314.5 41.7969 315.605 41.6867 316.877C41.5764 318.424 41.2457 319.916 40.7496 321.353C40.3086 322.68 39.7022 323.951 38.9856 325.112C38.3241 326.272 37.5523 327.378 36.7254 328.373C35.8986 329.423 34.9615 330.362 33.9141 331.191L32.8116 332.076C30.7168 333.623 27.9606 333.513 26.0863 331.799Z" fill="#0485CA"/>
<path d="M18.1481 195.286C18.093 194.236 18.0379 193.185 18.0379 192.135C18.0379 191.085 17.9828 190.035 17.9828 188.985C17.9828 188.377 17.9828 187.769 17.9828 187.161C17.9828 186.056 17.3213 185.061 16.2739 184.729C15.3919 184.453 14.3996 184.121 13.7381 183.9L11.7537 183.182L9.76917 182.408C8.44617 181.911 7.12316 181.358 5.80016 180.75C5.24891 180.474 4.86301 179.921 4.91814 179.313C4.97326 178.539 5.57964 177.931 6.29627 177.876C7.72952 177.71 9.10765 177.655 10.5409 177.6L12.6356 177.544H14.7304C16.1637 177.544 17.5418 177.544 18.975 177.6C20.3531 177.655 21.7864 177.71 23.1645 177.766C24.7632 177.876 26.0862 178.926 26.472 180.474L26.8028 181.634C27.0784 182.74 27.5194 184.619 27.9053 186.166C28.236 187.548 29.3936 188.653 30.8269 188.819L31.4884 188.93C32.8665 189.151 34.1895 189.482 35.5125 189.98C36.9458 190.477 38.3239 191.196 39.5918 192.135C39.702 192.246 39.8123 192.356 39.9225 192.467C40.7494 193.407 40.6943 194.899 39.7571 195.728C38.5995 196.723 37.2765 197.607 35.8984 198.27C34.6305 198.878 33.3627 199.376 31.9845 199.707C30.7167 200.039 29.3936 200.26 28.0155 200.37C26.6925 200.536 25.3695 200.536 24.0465 200.37L22.6684 200.205C20.1326 199.873 18.2584 197.773 18.1481 195.286Z" fill="#0485CA"/>
<path d="M315.107 393.202C316.65 394.805 318.304 396.242 320.013 397.569C321.777 398.895 323.596 400.222 325.525 401.437C327.399 402.653 329.329 403.814 331.368 404.975C333.408 406.135 335.448 407.185 337.598 408.125C338.645 408.567 339.858 408.07 340.299 407.075C340.519 406.577 340.519 405.97 340.299 405.472C339.362 403.261 338.314 401.272 337.212 399.227C336.109 397.237 334.896 395.303 333.684 393.368C332.471 391.489 331.203 389.61 329.825 387.841C328.502 386.073 327.014 384.415 325.47 382.922C322.493 380.159 319.02 381.43 316.264 384.415C313.618 387.178 312.516 390.439 315.107 393.202Z" fill="#FFAF51"/>
<path d="M47.5849 382.867C45.9863 384.415 44.5531 386.073 43.2301 387.786C41.9071 389.555 40.5841 391.379 39.3713 393.313C38.1586 395.247 37.0009 397.126 35.8433 399.171C34.6857 401.216 33.6383 403.261 32.7563 405.417C32.3153 406.467 32.8114 407.683 33.8588 408.125C34.3549 408.346 34.9613 408.346 35.4574 408.125C37.6073 407.185 39.6469 406.135 41.6866 404.975C43.6711 403.869 45.6005 402.709 47.5298 401.437C49.4041 400.222 51.2783 398.95 53.0423 397.624C54.8063 396.297 56.4601 394.805 57.9484 393.258C60.7047 390.273 59.4368 386.791 56.4601 384.028C53.5936 381.375 50.3412 380.27 47.5849 382.867Z" fill="#FFAF51"/>
<path d="M200.392 336.221C200.392 336.221 181.098 350.922 181.098 367.945C181.098 369.824 179.885 371.648 177.404 373.085C172.498 375.904 164.615 375.904 159.764 373.085C157.339 371.648 156.126 369.824 156.126 367.945C156.126 367.834 155.465 358.549 158.221 349.43C150.007 349.264 141.959 347.551 134.407 344.29C104.97 331.578 90.4172 299.578 101.938 272.717L208.55 318.701L200.392 336.221Z" fill="#022B42"/>
<path d="M145.211 342.134C145.763 342.687 146.369 343.129 147.031 343.571C147.637 344.014 148.298 344.4 148.96 344.732C149.622 345.064 150.338 345.395 151.055 345.672C151.771 345.948 152.488 346.169 153.26 346.335C153.701 346.445 154.142 346.114 154.252 345.672C154.307 345.395 154.197 345.119 154.032 344.898C153.48 344.345 152.874 343.903 152.212 343.461C151.606 343.019 150.945 342.632 150.283 342.3C149.621 341.969 148.905 341.637 148.243 341.361C147.527 341.084 146.81 340.863 146.038 340.697C145.597 340.587 145.156 340.918 145.101 341.361C144.991 341.692 145.101 341.969 145.211 342.134Z" fill="#0485CA"/>
<path d="M112.743 322.238C114.727 323.951 116.877 325.554 119.027 327.046C121.177 328.594 123.382 330.03 125.587 331.412C127.792 332.794 130.052 334.176 132.367 335.392C134.683 336.663 136.998 337.879 139.368 338.984C139.754 339.205 140.25 338.984 140.471 338.597C140.636 338.21 140.526 337.768 140.195 337.547C138.045 336.055 135.84 334.673 133.635 333.291L127.02 329.146L120.405 325.001C118.145 323.675 115.995 322.238 113.68 320.966C113.294 320.745 112.853 320.856 112.633 321.243C112.467 321.574 112.522 321.961 112.743 322.238Z" fill="#0485CA"/>
<path d="M179.664 351.032C178.672 352.304 177.9 353.685 177.239 355.178C176.577 356.615 176.026 358.162 175.64 359.71C175.254 361.257 174.979 362.86 174.868 364.463C174.758 366.066 174.813 367.668 174.979 369.216C175.034 369.658 175.475 369.99 175.916 369.879C176.247 369.824 176.522 369.547 176.577 369.216C176.798 367.724 177.018 366.231 177.294 364.739C177.515 363.247 177.845 361.81 178.231 360.373C178.617 358.936 179.003 357.499 179.444 356.062C179.885 354.625 180.436 353.243 180.987 351.806C181.153 351.419 180.877 350.922 180.491 350.811C180.216 350.701 179.885 350.811 179.664 351.032Z" fill="#0485CA"/>
<path d="M168.86 358.439C168.474 359.268 168.199 360.207 168.033 361.091C167.868 361.976 167.758 362.915 167.702 363.855C167.647 364.794 167.702 365.734 167.813 366.618C167.923 367.558 168.143 368.442 168.419 369.326C168.584 369.769 169.081 369.99 169.466 369.824C169.742 369.713 169.963 369.437 170.018 369.161C170.128 368.276 170.183 367.392 170.238 366.508C170.293 365.623 170.293 364.794 170.348 363.91C170.348 363.026 170.404 362.197 170.404 361.312C170.404 360.428 170.404 359.544 170.348 358.66C170.293 358.217 169.907 357.886 169.466 357.941C169.246 357.996 169.025 358.217 168.86 358.439Z" fill="#0485CA"/>
<path d="M160.867 356.283C160.481 357.223 160.205 358.162 160.04 359.157C159.819 360.152 159.709 361.147 159.654 362.142C159.599 363.137 159.599 364.131 159.654 365.181C159.709 366.176 159.875 367.226 160.205 368.166C160.371 368.608 160.812 368.829 161.253 368.719C161.528 368.608 161.749 368.387 161.804 368.055C161.969 367.116 162.024 366.121 162.135 365.181C162.19 364.242 162.3 363.302 162.355 362.363C162.41 361.423 162.465 360.484 162.465 359.489C162.521 358.494 162.465 357.554 162.41 356.56C162.355 356.117 161.969 355.786 161.528 355.841C161.253 355.786 160.977 356.007 160.867 356.283Z" fill="#0485CA"/>
<path d="M103.096 305.657C105.521 307.536 107.947 309.36 110.428 311.184C112.908 313.008 115.389 314.721 117.925 316.434C122.941 319.861 128.123 323.177 133.36 326.383C135.95 327.986 138.596 329.533 141.242 331.025C143.944 332.518 146.59 334.01 149.291 335.392C150.614 336.11 151.992 336.773 153.37 337.492C154.748 338.21 156.071 338.873 157.449 339.537C160.205 340.863 162.962 342.134 165.773 343.35C166.214 343.516 166.655 343.295 166.82 342.908C166.986 342.521 166.82 342.134 166.49 341.913C165.167 341.195 163.789 340.476 162.466 339.813C161.143 339.15 159.764 338.376 158.441 337.658L156.457 336.607L154.472 335.502C153.149 334.784 151.771 334.065 150.503 333.291C145.211 330.307 139.975 327.267 134.793 324.117C129.611 320.966 124.429 317.761 119.303 314.5C116.712 312.897 114.176 311.184 111.695 309.581C109.215 307.978 106.624 306.21 104.088 304.552C103.757 304.331 103.261 304.386 102.986 304.773C102.765 304.939 102.82 305.381 103.096 305.657Z" fill="#0485CA"/>
<path d="M120.405 307.813C124.815 310.908 129.28 313.892 133.856 316.711C138.431 319.585 143.062 322.293 147.692 324.946C152.378 327.599 157.119 330.141 161.914 332.573C166.71 335.005 171.506 337.326 176.467 339.482C176.853 339.647 177.349 339.482 177.515 339.095C177.68 338.708 177.515 338.266 177.129 338.045L163.017 330.418C158.331 327.875 153.646 325.278 148.96 322.625C144.33 319.972 139.644 317.319 135.013 314.666L121.177 306.486C120.791 306.265 120.35 306.376 120.13 306.763C119.964 307.094 120.075 307.536 120.405 307.813Z" fill="#0485CA"/>
<path d="M101.497 294.769C102.379 295.709 103.261 296.538 104.254 297.367C105.191 298.141 106.183 298.914 107.23 299.633C108.278 300.351 109.325 301.014 110.373 301.678C111.42 302.341 112.578 302.894 113.68 303.446C114.121 303.612 114.562 303.391 114.783 303.004C114.893 302.673 114.838 302.341 114.617 302.12C113.735 301.236 112.798 300.462 111.806 299.688C110.814 298.914 109.821 298.196 108.829 297.477C107.837 296.759 106.789 296.096 105.742 295.432C104.695 294.769 103.592 294.161 102.49 293.609C102.104 293.387 101.608 293.553 101.442 293.94C101.222 294.161 101.277 294.493 101.497 294.769Z" fill="#0485CA"/>
<path d="M220.126 233.31C220.457 233.089 251.823 211.479 279.496 162.345C282.197 156.1 278.393 153.834 275.086 146.594C274.81 146.096 274.535 145.599 274.314 145.046L274.038 144.328L273.818 143.775C273.708 143.444 273.597 143.057 273.432 142.725C273.212 142.007 273.046 141.343 272.881 140.625C272.771 140.072 272.66 139.575 272.55 139.022V138.967C272.44 138.414 272.33 137.861 272.33 137.309C272.274 136.922 272.274 136.535 272.219 136.148C272.109 134.38 272.219 132.666 272.55 130.953C272.936 128.853 273.653 126.808 274.7 124.984C274.976 124.486 275.306 123.934 275.692 123.492C276.023 122.994 276.464 122.497 276.85 122.055C277.677 121.17 278.614 120.397 279.661 119.678C280.102 119.402 280.598 119.125 281.039 118.849C281.094 117.799 281.094 116.694 281.26 115.643C281.315 115.036 281.425 114.428 281.535 113.82C281.646 113.212 281.756 112.604 281.921 111.996C282.473 109.398 283.41 106.856 284.733 104.479L285.008 104.037C285.119 103.871 285.174 103.705 285.284 103.54L285.89 102.6C286.056 102.324 286.331 101.992 286.552 101.661C286.772 101.329 286.993 101.053 287.268 100.721L288.095 99.7814C288.426 99.4498 288.702 99.1734 289.032 98.8418C289.198 98.676 289.418 98.5102 289.584 98.3444L290.19 97.847L290.852 97.2943L291.293 96.9627L291.513 96.7969C291.678 96.6864 291.899 96.5758 292.064 96.4653C296.474 93.4808 302.428 94.6414 305.404 99.0629C306.727 101.053 307.279 103.484 306.948 105.861C306.948 106.027 306.893 106.137 306.893 106.248L306.838 106.524C306.838 106.635 306.783 106.745 306.783 106.856L307.389 106.414L308.106 105.971L308.547 105.695L308.767 105.529C308.933 105.419 309.098 105.308 309.318 105.198C313.728 102.545 319.461 104.037 322.107 108.459C323.596 111.001 323.816 114.096 322.714 116.804L323.155 116.528L323.375 116.417C323.541 116.307 323.706 116.196 323.871 116.141C328.061 113.654 333.463 115.036 335.944 119.236C336.495 120.176 336.881 121.281 337.046 122.386C340.354 135.706 326.793 152.508 315.603 158.642C305.515 164.169 304.798 161.793 300.223 169.475C299.12 171.52 298.018 173.51 296.915 175.444C296.75 175.72 296.64 175.942 296.474 176.163C266.817 227.397 233.797 250.167 232.198 251.273C227.237 254.644 220.512 253.318 217.149 248.343C213.842 243.48 215.165 236.737 220.126 233.31Z" fill="#022B42"/>
<path d="M283.961 116.915C284.788 116.638 285.67 116.417 286.552 116.252C287.434 116.086 288.316 116.03 289.198 116.03C291.017 115.975 292.781 116.196 294.545 116.638C295.758 116.97 296.86 117.523 297.908 118.241C298.514 116.473 299.341 114.704 300.278 113.101C301.325 111.388 302.538 109.84 303.971 108.459C304.302 108.182 304.798 108.182 305.074 108.514C305.349 108.79 305.349 109.232 305.074 109.564C302.759 112.438 301.05 115.699 300.057 119.236C299.947 119.568 299.892 119.899 299.782 120.231C300.774 121.668 301.325 123.381 301.27 125.15C301.27 127.139 300.554 129.074 299.286 130.621C299.12 130.787 299.01 130.953 298.845 131.119C298.9 131.671 298.955 132.224 299.065 132.722C299.175 133.164 299.231 133.606 299.396 133.937C299.506 134.324 299.672 134.656 299.837 134.988C300.609 136.369 301.877 137.419 303.365 137.862C304.908 138.304 306.562 138.138 307.995 137.419C308.712 137.032 309.374 136.48 309.925 135.872C310.531 135.209 311.082 134.435 311.579 133.716C311.634 133.661 311.634 133.606 311.689 133.606C311.799 132.722 312.02 131.782 312.24 130.898C312.791 128.521 313.728 126.2 314.886 124.044C315.162 123.492 315.548 122.994 315.878 122.497C316.209 121.999 316.595 121.502 316.981 121.005C317.753 120.065 318.579 119.181 319.517 118.352C319.847 118.075 320.288 118.075 320.619 118.352C320.95 118.683 320.95 119.181 320.674 119.512C317.532 122.828 315.603 126.974 314.721 131.395C314.5 132.5 314.335 133.606 314.225 134.711C314.114 135.817 314.059 136.977 314.114 138.083C314.114 138.359 314.114 138.635 314.114 138.912C314.114 139.188 314.114 139.464 314.169 139.741C314.225 140.293 314.28 140.846 314.335 141.399C314.39 141.675 314.39 141.951 314.445 142.228C314.5 142.504 314.555 142.725 314.61 142.946C314.776 143.388 314.941 143.831 315.162 144.273C315.658 145.102 316.319 145.765 317.146 146.262C318.8 147.202 320.895 147.202 322.548 146.262C323.375 145.71 324.147 145.046 324.698 144.217C326.021 142.338 327.234 140.404 328.337 138.359C328.943 137.364 329.549 136.314 330.211 135.319C330.872 134.324 331.589 133.385 332.361 132.445C332.636 132.114 333.132 132.058 333.463 132.335C333.739 132.611 333.849 132.998 333.629 133.329C332.967 134.324 332.361 135.264 331.809 136.259C331.258 137.254 330.707 138.304 330.211 139.354C329.163 141.509 328.006 143.609 326.683 145.654C325.966 146.815 324.974 147.755 323.871 148.473C321.391 149.965 318.359 149.965 315.823 148.584C314.61 147.865 313.563 146.87 312.846 145.654C312.516 145.046 312.24 144.438 312.02 143.775C311.909 143.444 311.854 143.112 311.799 142.78C311.744 142.449 311.689 142.172 311.634 141.841C311.579 141.233 311.468 140.625 311.468 140.017C311.413 139.685 311.413 139.409 311.413 139.077C311.413 138.746 311.413 138.469 311.413 138.138C311.413 137.806 311.413 137.475 311.413 137.143C310.807 137.972 310.035 138.746 309.153 139.299C308.216 139.906 307.169 140.293 306.066 140.459C302.648 141.012 299.231 139.354 297.522 136.314C297.246 135.817 297.026 135.319 296.86 134.766C296.695 134.269 296.585 133.772 296.474 133.219L296.419 132.832C296.199 132.943 295.978 132.998 295.758 133.108C295.317 133.274 294.931 133.385 294.49 133.495C294.049 133.606 293.663 133.716 293.332 133.827C293.222 133.882 293.057 133.937 292.946 133.993L292.891 134.048C292.836 134.048 292.781 134.269 292.781 134.656C292.781 134.822 292.781 135.043 292.836 135.209L292.891 135.485L292.946 135.761C293.112 136.535 293.332 137.419 293.442 138.304C293.553 139.188 293.663 140.072 293.663 140.957C293.718 141.399 293.332 141.786 292.891 141.841C292.45 141.896 292.064 141.509 292.009 141.067C291.954 140.238 291.789 139.464 291.623 138.691C291.458 137.917 291.237 137.143 290.962 136.314L290.852 135.982L290.796 135.651C290.741 135.43 290.686 135.209 290.686 134.988C290.631 134.711 290.631 134.435 290.631 134.159C290.631 133.772 290.741 133.44 290.907 133.108C291.072 132.777 291.348 132.5 291.678 132.279C291.899 132.114 292.175 132.003 292.45 131.893C292.946 131.727 293.332 131.561 293.718 131.45C294.104 131.34 294.49 131.174 294.821 131.008C295.151 130.898 295.482 130.732 295.758 130.511C296.364 130.124 296.86 129.682 297.301 129.129C298.183 128.024 298.624 126.642 298.624 125.26C298.624 123.879 298.183 122.552 297.301 121.447C296.364 120.341 295.096 119.568 293.718 119.125C292.23 118.628 290.686 118.352 289.088 118.296C288.316 118.241 287.489 118.241 286.717 118.296C285.945 118.352 285.119 118.462 284.347 118.573C283.906 118.683 283.52 118.407 283.41 117.965C283.355 117.578 283.575 117.191 283.906 117.081L283.961 116.915Z" fill="#0485CA"/>
<path d="M289.088 119.789C294.6 119.678 295.482 125.758 289.473 125.758C285.339 125.758 285.89 119.844 289.088 119.789Z" fill="#0485CA"/>
<path d="M308.492 130.124C307.113 134.379 301.105 132.998 302.759 128.41C303.861 125.26 309.318 127.692 308.492 130.124Z" fill="#0485CA"/>
<path d="M323.265 138.47C322.769 142.891 316.595 142.725 317.312 137.972C317.753 134.601 323.541 135.927 323.265 138.47Z" fill="#0485CA"/>
<path d="M309.649 110.338C310.09 110.669 310.476 110.946 310.972 111.222C311.413 111.498 311.854 111.775 312.295 111.996L313.618 112.714C314.059 112.991 314.555 113.212 315.051 113.377H315.106C315.547 113.543 316.044 113.322 316.209 112.88C316.319 112.659 316.264 112.438 316.154 112.217C315.878 111.664 315.492 111.111 315.051 110.669C314.61 110.227 314.114 109.84 313.563 109.564C313.012 109.288 312.46 109.011 311.854 108.901C311.248 108.735 310.586 108.68 309.98 108.735C309.539 108.79 309.208 109.177 309.263 109.619C309.263 109.84 309.373 110.006 309.539 110.172L309.649 110.338Z" fill="#0485CA"/>
<path d="M327.344 120.894C327.62 121.17 327.951 121.391 328.281 121.557C328.612 121.723 328.888 121.889 329.219 122.055C329.549 122.22 329.825 122.331 330.211 122.442C330.542 122.552 330.927 122.663 331.313 122.718H331.424C331.92 122.773 332.361 122.442 332.416 121.944C332.416 121.778 332.416 121.612 332.361 121.502C332.14 121.06 331.865 120.673 331.479 120.341C331.148 120.01 330.707 119.789 330.321 119.623C329.88 119.457 329.439 119.346 328.998 119.291C328.502 119.236 328.006 119.291 327.565 119.402C327.124 119.512 326.848 120.01 327.014 120.452C327.069 120.562 327.124 120.728 327.234 120.783L327.344 120.894Z" fill="#0485CA"/>
<path d="M321.942 124.929C322.659 125.26 323.43 125.592 324.202 125.924C324.919 126.255 325.691 126.531 326.407 126.863C327.124 127.195 327.84 127.526 328.557 127.858C329.274 128.19 329.99 128.576 330.762 128.908H330.817C331.258 129.074 331.699 128.908 331.92 128.466C332.03 128.19 331.975 127.858 331.809 127.637C331.258 126.918 330.597 126.255 329.825 125.702C329.108 125.15 328.281 124.708 327.455 124.376C326.628 123.989 325.746 123.713 324.864 123.547C323.982 123.381 323.045 123.271 322.107 123.381C321.666 123.436 321.336 123.823 321.391 124.21C321.391 124.487 321.611 124.708 321.832 124.873L321.942 124.929Z" fill="#0485CA"/>
<path d="M291.899 104.645C292.119 104.921 292.395 105.198 292.726 105.364C293.001 105.585 293.277 105.75 293.608 105.916C293.938 106.082 294.214 106.248 294.49 106.358C294.82 106.524 295.151 106.635 295.537 106.69H295.647C296.143 106.801 296.584 106.469 296.695 105.972C296.75 105.806 296.695 105.64 296.695 105.529C296.529 105.087 296.309 104.7 295.978 104.369C295.647 104.037 295.317 103.761 294.931 103.54C294.545 103.319 294.104 103.153 293.663 103.098C293.222 102.987 292.726 102.987 292.285 103.098C291.844 103.208 291.513 103.65 291.623 104.092C291.623 104.203 291.678 104.313 291.789 104.424L291.899 104.645Z" fill="#0485CA"/>
<path d="M293.277 99.4497C293.828 99.8366 294.49 100.168 295.096 100.5L296.915 101.495C297.522 101.826 298.073 102.158 298.735 102.489C299.341 102.821 299.892 103.208 300.554 103.484H300.609C301.05 103.705 301.546 103.54 301.711 103.097C301.822 102.821 301.822 102.545 301.711 102.324C301.325 101.605 300.774 100.997 300.223 100.445C299.617 99.8919 298.955 99.4497 298.294 99.0628C297.577 98.676 296.86 98.3996 296.089 98.1785C295.317 97.9575 294.49 97.8469 293.718 97.8469C293.277 97.8469 292.946 98.2338 292.946 98.676C292.946 98.9523 293.112 99.1734 293.277 99.3392V99.4497Z" fill="#0485CA"/>
<path d="M83.251 242.153C84.8497 238.616 76.0848 219.714 90.6929 198.491C91.2993 197.441 92.0159 196.502 92.8428 195.562L92.8979 195.451H92.953C95.2131 192.909 98.0797 190.975 101.277 189.759L101.442 189.704C104.75 188.377 106.018 187.493 107.286 185.282C107.451 184.895 107.671 184.564 107.837 184.232C107.892 184.121 107.947 184.011 108.002 183.9C112.357 176.329 120.35 171.631 129.06 171.631H129.336C129.611 171.575 129.942 171.575 130.218 171.631C130.383 171.631 130.603 171.686 130.769 171.686C131.1 171.686 131.485 171.741 131.816 171.797C135.675 171.907 139.479 170.912 142.786 168.867H142.841C143.503 168.48 144.219 168.094 144.936 167.762L144.991 167.707C149.015 165.993 152.653 163.396 155.52 160.08C155.74 159.803 156.016 159.472 156.237 159.195C156.292 159.085 156.402 159.03 156.457 158.919C164.671 149.965 177.625 147.313 188.65 152.342C188.871 152.397 189.091 152.508 189.256 152.618C189.367 152.674 189.422 152.729 189.532 152.784C190.083 153.06 190.579 153.337 191.076 153.613C194.218 155.216 197.801 155.658 201.274 154.884C201.825 154.663 202.431 154.497 203.038 154.387H203.093C203.424 154.276 203.754 154.221 204.085 154.166C205.077 154 206.125 153.89 207.172 153.89C211.913 153.89 216.433 155.713 219.906 158.974C220.237 159.251 220.567 159.527 220.788 159.859C222.993 162.788 226.631 164.335 231.537 163.285C231.758 163.23 231.978 163.23 232.144 163.23C233.356 163.064 234.569 162.954 235.837 162.954C245.374 162.954 254.083 168.259 258.549 176.66C258.604 176.771 258.714 176.937 258.769 177.047C261.029 181.69 263.51 184.453 267.369 186.83C267.699 186.995 267.975 187.161 268.251 187.327C268.526 187.493 268.802 187.659 269.133 187.824C269.408 187.99 269.629 188.101 269.849 188.322C281.315 195.507 289.529 206.837 292.836 219.991C292.947 220.267 293.002 220.543 293.057 220.875C293.057 220.986 293.112 221.096 293.112 221.207V221.262C294.104 226.347 297.026 230.713 299.727 234.361C299.947 234.637 300.168 234.913 300.388 235.245L300.444 235.3C300.774 235.798 301.105 236.295 301.326 236.848C304.357 242.098 305.405 248.288 304.247 254.257C304.192 254.644 304.137 255.031 304.027 255.418V255.473C303.972 255.805 303.861 256.136 303.696 256.468V256.523C303.586 256.855 303.475 257.131 303.42 257.463C303.255 258.181 303.145 258.955 303.2 259.729C301.105 270.009 299.672 276.641 301.546 285.152C303.586 294.272 296.916 303.833 286.717 305.27C286.001 305.325 285.339 305.381 284.678 305.436H284.623C284.237 305.436 283.851 305.491 283.465 305.602C279.055 306.431 275.417 308.586 274.039 312.068L273.928 312.345C273.818 312.621 273.763 312.842 273.653 313.118C273.487 313.616 273.322 314.168 273.046 314.611C269.518 322.625 261.691 327.875 252.981 328.207C252.705 328.262 252.485 328.262 252.209 328.262C251.658 328.262 251.162 328.207 250.611 328.207C247.193 328.151 243.885 329.312 241.239 331.467L241.129 331.578C236.443 336.331 229.553 338.1 223.158 336.221C222.938 336.165 222.717 336.11 222.552 336.055L222.387 336C222.331 336 222.331 335.999 222.276 335.944C218.803 334.341 215.716 335.778 212.354 337.768C212.244 337.823 212.078 337.879 211.968 337.934C211.637 338.1 211.251 338.321 210.921 338.431C198.848 344.069 176.798 338.321 167.096 325.001L166.986 324.891C166.49 324.393 166.049 323.84 165.663 323.288C163.182 320.745 160.812 320.082 158.883 319.364C156.237 318.7 153.866 317.263 151.992 315.274C151.165 314.555 150.504 313.671 150.063 312.676C150.063 312.676 150.063 312.621 150.007 312.621C148.574 309.415 145.653 309.36 142.731 309.471C142.069 309.526 141.353 309.581 140.691 309.581C131.926 309.581 124.319 303.667 122.059 295.211C122.059 295.156 122.004 295.101 122.004 295.045C121.949 294.769 121.894 294.548 121.839 294.272C121.839 294.216 121.839 294.161 121.783 294.161C120.901 290.9 118.255 290.348 116.547 290.182H116.491C105.797 289.242 96.5362 282.5 92.3467 272.606C92.1813 272.385 92.071 272.109 92.0159 271.888C91.6851 271.004 91.3544 270.064 91.0788 269.125C90.1417 266.416 88.8738 263.819 87.3854 261.387C86.6688 260.613 86.0624 259.839 85.456 258.955V258.9V258.845C82.4242 254.257 81.487 248.565 82.9203 243.259C83.0305 242.817 83.0857 242.485 83.251 242.153Z" fill="#FF7751"/>
<path d="M209.873 289.242C210.259 288.634 210.535 287.971 210.865 287.363C211.141 286.7 211.417 286.092 211.637 285.429C212.133 284.158 212.519 282.831 212.85 281.45C213.511 278.741 213.897 276.033 214.007 273.27C214.173 270.451 214.007 267.632 213.677 264.814C213.291 261.884 212.519 259.01 211.306 256.247C209.377 252.102 204.526 250.333 200.447 252.268C198.297 253.263 196.643 255.197 195.982 257.463L195.761 258.292C195.155 260.558 194.769 262.824 194.438 265.09C194.162 267.356 193.942 269.677 193.721 272.054C193.556 274.375 193.446 276.807 193.556 279.239C193.611 280.455 193.666 281.671 193.777 282.942C193.887 284.213 194.107 285.484 194.383 286.755L194.493 287.142C195.596 291.674 200.171 294.382 204.691 293.277C206.841 292.614 208.715 291.232 209.873 289.242Z" fill="white"/>
<path d="M286.221 273.878C286.607 273.27 286.883 272.606 287.213 271.999C287.489 271.335 287.765 270.727 287.985 270.064C288.481 268.738 288.867 267.467 289.198 266.085C289.859 263.377 290.245 260.668 290.356 257.905C290.521 255.086 290.411 252.268 290.025 249.449C289.639 246.52 288.867 243.59 287.654 240.882C285.725 236.737 280.874 234.969 276.795 236.903C274.645 237.898 272.991 239.832 272.385 242.098L272.164 242.927C271.558 245.193 271.172 247.459 270.841 249.725C270.511 251.991 270.29 254.313 270.125 256.689C269.959 259.066 269.849 261.442 269.959 263.819C269.959 265.035 270.07 266.251 270.18 267.522C270.29 268.793 270.511 270.064 270.786 271.335L270.896 271.722C271.999 276.254 276.574 278.962 281.039 277.857C283.189 277.249 285.119 275.812 286.221 273.878Z" fill="white"/>
<path d="M198.793 282.168V281.836C198.793 281.726 198.848 281.56 198.848 281.449C198.903 281.173 198.958 280.952 199.013 280.676C199.069 280.455 199.179 280.234 199.234 280.012C199.289 279.847 199.399 279.626 199.454 279.46C199.51 279.294 199.62 279.073 199.73 278.962C199.895 278.686 200.061 278.41 200.226 278.189C200.392 277.968 200.557 277.746 200.722 277.525C201.274 276.807 201.163 276.309 200.667 275.48C200.336 274.928 200.006 274.375 199.785 273.767C199.73 273.601 199.675 273.435 199.62 273.27C199.565 273.104 199.51 272.938 199.454 272.717C199.344 272.275 199.234 271.777 199.234 271.335C199.179 270.783 199.234 270.285 199.344 269.732C199.399 269.456 199.454 269.29 199.51 269.069C199.565 268.848 199.62 268.682 199.73 268.461C200.171 267.466 200.777 266.582 201.549 265.753C201.715 265.587 201.825 265.422 201.935 265.311C202.597 264.593 202.266 264.206 201.99 263.708C201.935 263.598 201.88 263.487 201.825 263.377C201.77 263.266 201.604 262.99 201.494 262.769C201.384 262.548 201.274 262.327 201.163 262.05C200.888 261.387 200.777 260.724 200.777 260.005C200.557 258.734 201.384 257.518 202.707 257.242C202.872 257.242 203.038 257.187 203.148 257.187H203.258H203.423C205.684 257.408 208.605 259.618 209.983 263.321C210.038 263.432 210.094 263.542 210.149 263.708V263.763C210.149 263.819 210.149 263.819 210.204 263.874C210.259 263.985 210.259 264.095 210.314 264.206C210.7 265.532 210.535 267.024 209.818 268.185L209.763 268.296L209.653 268.517L209.542 268.682C209.322 269.125 209.101 269.511 208.881 269.843C208.495 270.451 208.495 271.225 208.936 271.777L209.267 272.33C209.377 272.551 209.487 272.717 209.653 272.993L209.873 273.38L210.094 273.822L210.204 274.043L210.314 274.32C210.369 274.486 210.424 274.707 210.479 274.928C210.535 275.149 210.59 275.425 210.59 275.646C210.59 275.757 210.645 275.867 210.645 276.033C210.645 276.199 210.645 276.309 210.645 276.475C210.645 276.752 210.645 277.028 210.59 277.304C210.535 277.581 210.479 277.802 210.424 278.078C210.369 278.299 210.314 278.52 210.204 278.741C210.149 278.962 210.038 279.128 209.928 279.349C209.763 279.681 209.597 280.012 209.377 280.289L209.101 280.676L208.826 281.007C208.495 281.394 208.164 281.726 207.833 282.057L207.227 282.61C206.731 283.052 206.345 283.384 206.676 284.434C206.731 284.6 206.786 284.71 206.786 284.876L206.896 285.208L207.007 285.539C207.062 285.76 207.117 286.037 207.172 286.313C207.337 287.087 207.282 287.861 207.117 288.634C206.896 289.795 205.904 290.679 204.746 290.679H204.691C204.636 290.679 204.526 290.679 204.471 290.679C204.416 290.679 204.361 290.679 204.361 290.679H204.305C204.195 290.679 204.085 290.624 204.03 290.624L203.864 290.569C201.77 289.795 199.179 286.534 198.848 282.776C198.848 282.721 198.848 282.721 198.848 282.665C198.848 282.61 198.793 282.389 198.793 282.168Z" fill="#0485CA"/>
<path d="M173.436 235.853C172.995 235.742 172.719 235.3 172.829 234.858C173.436 232.316 174.538 229.939 176.026 227.784C176.798 226.734 177.68 225.739 178.617 224.799L178.287 224.689C177.68 224.468 177.129 224.302 176.523 224.191C175.365 223.915 174.207 223.804 172.995 223.86C171.837 223.86 170.734 224.081 169.632 224.523C169.081 224.744 168.529 224.965 167.978 225.241C167.703 225.352 167.427 225.518 167.151 225.683C166.876 225.849 166.6 226.015 166.324 226.126L166.214 226.181C165.828 226.402 165.332 226.236 165.112 225.849C164.946 225.573 165.001 225.186 165.222 224.965C165.442 224.689 165.718 224.468 165.939 224.191C166.159 223.915 166.435 223.694 166.71 223.473L167.592 222.809C167.923 222.588 168.199 222.423 168.529 222.257C169.191 221.925 169.908 221.649 170.624 221.483C171.01 221.372 171.341 221.372 171.727 221.262C172.113 221.207 172.443 221.151 172.829 221.151C174.318 221.096 175.751 221.372 177.184 221.87C177.515 222.036 177.846 222.146 178.176 222.312C178.507 222.478 178.838 222.644 179.113 222.809C179.444 223.031 179.775 223.252 180.106 223.528C180.602 223.141 181.098 222.809 181.649 222.478C183.909 221.151 186.39 220.212 188.981 219.77C190.249 219.549 191.572 219.438 192.84 219.383C194.163 219.383 195.43 219.493 196.698 219.714C197.139 219.825 197.36 220.212 197.305 220.654C197.25 220.986 196.919 221.262 196.533 221.262H196.478C195.32 221.262 194.107 221.317 192.95 221.483C191.792 221.649 190.635 221.815 189.477 222.146C187.217 222.699 185.012 223.583 183.027 224.799C181.043 226.015 179.279 227.563 177.846 229.331C176.357 231.21 175.144 233.255 174.207 235.411C174.262 235.798 173.821 235.963 173.436 235.853Z" fill="#FFAF51"/>
<path d="M242.066 177.434H242.011C241.184 177.102 240.302 176.826 239.42 176.605C238.538 176.384 237.656 176.163 236.719 176.052C234.955 175.776 233.136 175.776 231.372 176.052C229.608 176.329 227.954 176.881 226.356 177.71C224.757 178.595 223.269 179.645 221.89 180.861C221.56 181.192 221.064 181.192 220.733 180.916C220.402 180.584 220.402 180.087 220.678 179.755C222.442 177.213 224.977 175.223 227.899 174.173C230.876 173.068 234.073 172.902 237.105 173.676C238.097 173.897 239.089 174.228 240.027 174.615C240.964 175.002 241.901 175.5 242.728 176.107C243.058 176.384 243.114 176.881 242.838 177.213C242.728 177.379 242.342 177.489 242.066 177.434Z" fill="#FFAF51"/>
<path d="M134.683 189.869C136.336 188.653 138.155 187.714 140.14 187.161C141.132 186.885 142.18 186.719 143.227 186.664C144.274 186.609 145.322 186.664 146.369 186.83C148.409 187.161 150.393 187.88 152.212 188.985C153.094 189.482 153.921 190.09 154.693 190.754C155.465 191.417 156.181 192.135 156.843 192.964C157.118 193.296 157.063 193.793 156.733 194.07C156.457 194.291 156.071 194.291 155.74 194.07L155.685 194.015C154.969 193.462 154.197 192.909 153.425 192.467C152.653 191.97 151.882 191.527 151.055 191.141C149.456 190.367 147.747 189.814 145.983 189.538C144.219 189.261 142.455 189.317 140.691 189.593C138.927 189.98 137.163 190.533 135.509 191.306C135.068 191.472 134.627 191.306 134.462 190.864C134.352 190.477 134.407 190.09 134.683 189.869Z" fill="#FFAF51"/>
<path d="M196.478 317.208C197.25 317.816 197.966 318.369 198.793 318.866C199.565 319.364 200.337 319.806 201.163 320.193C202.762 320.967 204.471 321.575 206.235 321.851C207.999 322.127 209.763 322.127 211.527 321.851C213.291 321.519 215.055 320.967 216.709 320.193C217.15 320.027 217.591 320.193 217.756 320.635C217.921 320.967 217.811 321.353 217.48 321.575C215 323.454 211.968 324.559 208.881 324.67C205.739 324.78 202.597 323.951 199.951 322.293C199.069 321.74 198.242 321.188 197.47 320.469C196.698 319.806 195.982 319.032 195.375 318.203C195.155 317.927 195.155 317.54 195.375 317.264C195.651 316.987 196.147 316.932 196.478 317.208Z" fill="#FFAF51"/>
<path d="M154.307 278.189C154.362 277.857 154.473 277.47 154.583 277.139L154.969 276.144C155.134 275.812 155.299 275.48 155.52 275.149C155.906 274.486 156.347 273.878 156.843 273.325C157.119 273.049 157.394 272.828 157.67 272.551C157.945 272.275 158.276 272.054 158.552 271.888C159.765 271.059 161.143 270.451 162.576 270.175C162.962 270.119 163.293 270.009 163.623 270.009C164.009 269.954 164.34 269.954 164.726 269.954C165.442 269.954 166.159 270.009 166.876 270.119C167.317 270.175 167.592 270.617 167.482 271.059C167.427 271.391 167.151 271.612 166.876 271.667H166.765C166.214 271.777 165.553 271.888 164.946 272.054C164.34 272.22 163.789 272.385 163.182 272.551C162.08 272.938 161.032 273.491 160.04 274.154C159.048 274.817 158.221 275.591 157.504 276.531C157.119 277.028 156.788 277.525 156.512 278.023C156.347 278.299 156.181 278.575 156.071 278.852C155.906 279.128 155.796 279.405 155.63 279.681L155.575 279.791C155.355 280.178 154.858 280.344 154.473 280.123C154.197 279.957 154.032 279.626 154.087 279.294C154.197 278.907 154.252 278.52 154.307 278.189Z" fill="#FFAF51"/>
<path d="M254.083 205.068H253.973C253.642 205.068 253.312 204.847 253.201 204.571C253.036 204.129 253.257 203.687 253.642 203.521C253.973 203.41 254.304 203.244 254.635 203.134C254.965 203.023 255.296 202.913 255.682 202.858L256.785 202.692C257.17 202.636 257.501 202.636 257.887 202.636C258.659 202.636 259.375 202.692 260.092 202.858C260.478 202.913 260.809 203.079 261.139 203.189C261.47 203.3 261.856 203.41 262.187 203.576C263.51 204.184 264.723 205.068 265.715 206.174C265.935 206.45 266.211 206.726 266.431 207.003C266.652 207.279 266.872 207.555 267.038 207.887C267.424 208.495 267.754 209.158 267.975 209.821C268.14 210.208 267.975 210.706 267.589 210.871C267.258 211.037 266.872 210.927 266.652 210.595L266.597 210.54C266.211 210.098 265.825 209.6 265.384 209.213C264.943 208.827 264.502 208.329 264.061 207.942C263.179 207.168 262.132 206.505 261.084 206.063C260.037 205.566 258.879 205.234 257.722 205.124C257.115 205.068 256.509 205.013 255.903 205.013C255.572 205.013 255.296 205.013 254.965 205.068C254.69 205.013 254.414 205.068 254.083 205.068Z" fill="#FFAF51"/>
<path d="M208.771 163.783H208.66C208.275 163.838 207.778 163.893 207.337 163.948C206.896 164.004 206.455 164.114 206.014 164.225C205.188 164.446 204.416 164.722 203.644 165.109C203.479 165.22 203.258 165.275 203.093 165.441C202.927 165.551 202.762 165.662 202.597 165.772L202.101 166.159C201.99 166.214 201.935 166.27 201.88 166.38L201.66 166.601C201.494 166.767 201.329 166.933 201.163 167.099C201.715 167.32 202.266 167.541 202.817 167.873C203.148 168.038 203.424 168.204 203.754 168.425C204.085 168.646 204.361 168.812 204.636 169.088C205.188 169.531 205.739 170.083 206.18 170.636C206.4 170.912 206.4 171.244 206.235 171.52C206.014 171.907 205.518 172.018 205.188 171.797L205.077 171.741C204.581 171.465 204.03 171.078 203.479 170.857C202.927 170.581 202.376 170.304 201.825 170.083C200.722 169.641 199.565 169.365 198.407 169.199C197.25 169.033 196.092 169.088 194.934 169.365C194.328 169.475 193.777 169.641 193.225 169.807C192.95 169.917 192.619 170.028 192.343 170.139C192.068 170.249 191.737 170.36 191.461 170.47L191.351 170.525C190.91 170.691 190.469 170.47 190.304 170.028C190.193 169.696 190.304 169.365 190.524 169.144C190.8 168.923 191.075 168.702 191.351 168.48C191.627 168.259 191.958 168.038 192.233 167.873L193.225 167.375C193.556 167.209 193.887 167.099 194.273 166.988C194.989 166.767 195.706 166.601 196.423 166.491C196.809 166.436 197.194 166.491 197.525 166.436C197.911 166.436 198.297 166.436 198.628 166.491L198.848 166.546C198.848 166.546 198.848 166.491 198.903 166.491C199.124 165.993 199.399 165.496 199.73 165.054C200.061 164.612 200.447 164.17 200.888 163.783C201.329 163.396 201.825 163.064 202.321 162.843C203.313 162.29 204.416 162.014 205.573 161.904C206.125 161.848 206.676 161.904 207.227 161.959C207.778 162.014 208.33 162.125 208.881 162.346C209.267 162.511 209.487 162.954 209.322 163.34C209.267 163.562 209.046 163.783 208.771 163.783Z" fill="#FFAF51"/>
<path d="M123.051 222.036C123.106 221.759 123.217 221.483 123.327 221.262C123.547 220.765 123.823 220.267 124.209 219.825C124.54 219.383 124.926 218.941 125.367 218.554C125.808 218.167 126.304 217.835 126.8 217.614C127.792 217.062 128.895 216.785 130.052 216.675C130.603 216.619 131.155 216.619 131.706 216.73C132.257 216.785 132.808 216.951 133.36 217.117C133.635 217.227 133.801 217.448 133.856 217.725C133.911 218.167 133.635 218.554 133.194 218.609H133.084C132.698 218.664 132.202 218.72 131.761 218.775C131.32 218.885 130.879 218.941 130.438 219.051C129.611 219.272 128.839 219.549 128.068 219.936C127.902 220.046 127.682 220.101 127.516 220.267C127.351 220.378 127.186 220.488 127.02 220.599L126.524 220.986C126.414 221.041 126.359 221.096 126.304 221.207L126.083 221.428C125.752 221.704 125.477 222.036 125.201 222.367C124.926 222.699 124.705 223.086 124.374 223.473L124.264 223.583C124.044 223.804 123.768 223.915 123.492 223.804C123.051 223.694 122.776 223.252 122.886 222.81C122.886 222.533 122.996 222.257 123.051 222.036Z" fill="#FFAF51"/>
<path d="M102.435 272.054C102.545 271.501 102.765 270.948 102.986 270.451C103.206 270.064 103.647 269.898 104.033 270.119C104.309 270.23 104.419 270.506 104.474 270.782V270.893C104.474 271.28 104.474 271.777 104.474 272.219C104.474 272.662 104.529 273.104 104.584 273.546C104.695 274.375 104.915 275.204 105.191 275.978C105.246 276.199 105.356 276.365 105.411 276.53C105.522 276.696 105.577 276.917 105.687 277.083L106.018 277.636C106.073 277.746 106.128 277.802 106.183 277.912L106.348 278.188C106.624 278.52 106.9 278.852 107.175 279.183C107.451 279.515 107.837 279.791 108.168 280.123L108.278 280.233C108.609 280.565 108.553 281.062 108.223 281.394C108.002 281.615 107.671 281.67 107.396 281.56C107.12 281.449 106.9 281.394 106.624 281.284C106.348 281.173 106.128 281.062 105.907 280.897C105.411 280.62 104.97 280.289 104.584 279.902C104.143 279.515 103.758 279.073 103.482 278.575C103.151 278.078 102.876 277.581 102.71 277.028C102.324 275.978 102.104 274.817 102.159 273.656C102.214 273.159 102.324 272.551 102.435 272.054Z" fill="#FFAF51"/>
<path d="M226.686 241.877C226.852 241.656 227.017 241.435 227.182 241.214C227.568 240.772 227.954 240.385 228.395 240.053C228.836 239.722 229.332 239.39 229.884 239.169C230.435 238.948 230.986 238.782 231.537 238.671C232.64 238.45 233.797 238.45 234.9 238.727C235.451 238.837 235.947 239.003 236.499 239.224C236.995 239.445 237.491 239.722 237.932 240.053C238.263 240.329 238.373 240.827 238.097 241.159C237.932 241.38 237.656 241.49 237.381 241.49H237.27C236.884 241.435 236.388 241.324 235.947 241.269C235.506 241.214 235.065 241.159 234.624 241.159C233.797 241.103 232.915 241.159 232.089 241.324C231.868 241.38 231.703 241.38 231.482 241.49C231.317 241.545 231.096 241.601 230.876 241.656L230.325 241.877C230.214 241.932 230.104 241.932 230.049 241.988L229.773 242.153C229.387 242.374 229.002 242.596 228.671 242.817C228.285 243.038 227.954 243.369 227.568 243.59L227.458 243.646C227.072 243.867 226.576 243.756 226.356 243.369C226.19 243.093 226.19 242.817 226.356 242.54C226.356 242.374 226.521 242.098 226.686 241.877Z" fill="#FFAF51"/>
<path d="M184.46 322.403C184.846 322.182 185.287 322.293 185.508 322.68L185.563 322.79C185.783 323.122 186.004 323.564 186.224 323.951C186.445 324.338 186.721 324.725 186.996 325.056C187.492 325.72 188.099 326.328 188.76 326.88C188.926 327.046 189.091 327.157 189.256 327.267C189.422 327.378 189.587 327.488 189.753 327.599L190.304 327.875C190.414 327.93 190.469 327.986 190.579 327.986L190.855 328.096C191.241 328.262 191.627 328.428 192.068 328.538C192.509 328.704 192.95 328.759 193.391 328.925L193.556 328.98C193.997 329.146 194.218 329.588 194.052 330.031C193.942 330.307 193.722 330.528 193.446 330.583C193.17 330.638 192.895 330.638 192.619 330.694C192.343 330.749 192.068 330.749 191.792 330.749C191.241 330.749 190.69 330.638 190.138 330.528C189.587 330.417 189.036 330.196 188.54 329.92C186.996 329.146 185.783 327.875 185.012 326.328C184.736 325.83 184.571 325.333 184.405 324.78C184.24 324.227 184.185 323.675 184.13 323.122C184.13 322.846 184.24 322.569 184.46 322.403Z" fill="#FFAF51"/>
<path d="M158.056 300.849C158.111 300.572 158.221 300.296 158.331 300.075C158.552 299.578 158.827 299.08 159.213 298.638C159.544 298.196 159.93 297.754 160.371 297.367C160.812 296.98 161.308 296.648 161.804 296.427C162.796 295.875 163.899 295.598 165.057 295.488C165.608 295.432 166.159 295.432 166.71 295.543H166.876C166.876 294.824 166.876 294.106 166.931 293.387C167.206 291.342 167.813 289.353 168.805 287.474C169.301 286.589 169.852 285.705 170.459 284.876C171.065 284.047 171.782 283.273 172.554 282.61C172.884 282.334 173.38 282.389 173.656 282.721C173.877 282.997 173.877 283.384 173.711 283.66L173.656 283.715C173.105 284.434 172.664 285.208 172.168 286.037C171.727 286.81 171.286 287.639 170.955 288.469C170.238 290.127 169.797 291.84 169.577 293.609C169.411 295.377 169.467 297.146 169.852 298.859C170.293 300.628 170.955 302.341 171.782 303.999C172.002 304.386 171.782 304.883 171.396 305.104C171.065 305.27 170.679 305.16 170.404 304.883C169.081 303.281 168.088 301.457 167.482 299.522C167.262 298.859 167.096 298.196 166.986 297.477C166.876 297.477 166.765 297.533 166.655 297.533C166.214 297.588 165.773 297.698 165.332 297.809C164.505 298.03 163.734 298.306 162.962 298.693C162.796 298.804 162.576 298.859 162.411 299.025C162.245 299.135 162.08 299.246 161.914 299.356L161.418 299.743C161.308 299.799 161.253 299.854 161.198 299.964L160.977 300.185C160.647 300.462 160.371 300.793 160.095 301.125C159.82 301.457 159.599 301.844 159.268 302.23L159.158 302.341C158.938 302.562 158.662 302.673 158.386 302.562C157.945 302.451 157.67 302.009 157.78 301.567C157.945 301.346 158.001 301.07 158.056 300.849Z" fill="#FFAF51"/>
<path d="M205.849 267.798C205.518 268.019 205.243 268.296 204.967 268.627C204.691 268.959 204.471 269.346 204.305 269.732C203.92 270.562 203.809 271.501 203.975 272.385C204.14 273.214 204.471 274.043 205.022 274.707C205.298 275.038 205.573 275.315 205.904 275.536C206.235 275.812 206.566 275.978 206.951 276.144C207.392 276.309 207.833 276.144 207.999 275.701C208.109 275.48 208.109 275.259 207.999 275.038L207.889 274.817C207.778 274.596 207.558 274.32 207.448 274.043C207.282 273.767 207.172 273.546 207.062 273.27C206.841 272.828 206.676 272.33 206.566 271.833C206.455 271.391 206.455 270.893 206.566 270.396C206.621 270.119 206.676 269.843 206.731 269.622C206.786 269.346 206.896 269.069 207.007 268.738L207.062 268.572C207.172 268.13 206.896 267.743 206.455 267.632C206.29 267.577 206.069 267.632 205.849 267.798Z" fill="white"/>
<path d="M204.802 262.713C204.802 262.99 204.857 263.266 204.967 263.543C205.077 263.764 205.188 263.985 205.298 264.261C205.408 264.482 205.573 264.703 205.739 264.869C205.904 265.09 206.125 265.311 206.4 265.477L206.511 265.587C206.952 265.864 207.503 265.809 207.834 265.366C207.889 265.311 207.944 265.201 207.944 265.145C208.054 264.758 208.109 264.372 207.999 263.985C207.944 263.598 207.778 263.266 207.613 262.935C207.448 262.603 207.172 262.327 206.896 262.106C206.566 261.829 206.235 261.663 205.794 261.608C205.353 261.498 204.912 261.774 204.802 262.216C204.802 262.271 204.802 262.327 204.802 262.382V262.713Z" fill="white"/>
<path d="M276.464 266.803V266.472C276.464 266.361 276.464 266.195 276.519 266.085C276.574 265.808 276.63 265.532 276.685 265.311C276.74 265.09 276.85 264.869 276.905 264.648C276.96 264.482 277.071 264.261 277.126 264.095C277.181 263.929 277.291 263.763 277.401 263.598C277.567 263.321 277.732 263.045 277.897 262.824C278.063 262.603 278.228 262.382 278.394 262.161C278.945 261.442 278.835 260.945 278.338 260.116C278.008 259.563 277.677 259.01 277.456 258.402C277.401 258.237 277.346 258.071 277.291 257.905C277.236 257.739 277.181 257.573 277.126 257.352C277.015 256.91 276.905 256.413 276.905 255.971C276.85 255.418 276.905 254.921 277.015 254.368C277.071 254.147 277.126 253.926 277.181 253.705C277.236 253.484 277.291 253.318 277.401 253.097C277.842 252.102 278.449 251.218 279.22 250.388L279.606 249.946V249.891C280.268 249.173 279.937 248.786 279.661 248.288C279.606 248.178 279.551 248.067 279.496 247.957C279.441 247.846 279.276 247.57 279.165 247.349C279.055 247.128 278.945 246.907 278.835 246.575C278.559 245.912 278.449 245.249 278.394 244.53C278.228 243.204 279.165 241.932 280.488 241.767C280.599 241.767 280.654 241.767 280.764 241.767H280.874H281.04C283.3 241.988 286.221 244.198 287.599 247.901C287.655 248.012 287.71 248.122 287.765 248.288V248.344C287.765 248.399 287.765 248.399 287.82 248.454C287.875 248.565 287.875 248.675 287.93 248.786C288.316 250.112 288.151 251.604 287.434 252.765L287.379 252.876L287.269 253.097L287.158 253.262C286.938 253.705 286.717 254.091 286.497 254.423C286.111 255.031 286.111 255.805 286.552 256.357L286.883 256.91C286.993 257.131 287.103 257.297 287.269 257.573L287.489 257.96L287.71 258.402L287.82 258.624L287.93 258.9C287.985 259.121 288.04 259.287 288.096 259.508C288.151 259.729 288.206 260.005 288.206 260.226C288.206 260.337 288.261 260.447 288.261 260.613C288.261 260.779 288.261 260.89 288.261 261.055C288.261 261.332 288.261 261.608 288.206 261.884C288.151 262.161 288.096 262.382 288.04 262.658C287.985 262.879 287.93 263.1 287.82 263.321C287.765 263.542 287.655 263.708 287.544 263.929C287.379 264.261 287.214 264.593 286.993 264.869L286.717 265.256L286.442 265.587C286.166 265.974 285.835 266.306 285.45 266.637C285.229 266.859 285.009 267.024 284.843 267.19C284.347 267.632 283.961 267.964 284.292 269.069C284.347 269.235 284.402 269.346 284.402 269.511L284.512 269.843L284.623 270.175C284.678 270.396 284.733 270.672 284.788 270.948C284.953 271.722 284.898 272.496 284.733 273.27C284.512 274.43 283.52 275.315 282.363 275.315H282.307C282.252 275.315 282.142 275.315 282.087 275.315C282.032 275.315 281.977 275.315 281.977 275.315H281.922C281.811 275.315 281.701 275.259 281.646 275.259L281.481 275.204C279.386 274.43 276.795 271.169 276.519 267.411C276.519 267.356 276.519 267.356 276.519 267.301C276.464 267.245 276.464 267.024 276.464 266.803Z" fill="#0485CA"/>
<path d="M283.52 252.433C283.189 252.655 282.914 252.931 282.638 253.263C281.811 254.313 281.425 255.639 281.701 256.966C281.866 257.795 282.197 258.624 282.748 259.287C283.024 259.618 283.3 259.895 283.63 260.116C283.961 260.392 284.292 260.558 284.678 260.724C285.119 260.89 285.56 260.724 285.725 260.282C285.835 260.061 285.835 259.839 285.725 259.618L285.615 259.397C285.505 259.176 285.339 258.9 285.174 258.624C285.009 258.347 284.898 258.126 284.788 257.85C284.568 257.408 284.402 256.91 284.292 256.413C284.182 255.971 284.182 255.473 284.292 254.976C284.347 254.699 284.402 254.423 284.457 254.202C284.512 253.926 284.623 253.649 284.733 253.318L284.788 253.152C284.843 252.71 284.568 252.323 284.182 252.212C283.906 252.212 283.686 252.323 283.52 252.433Z" fill="white"/>
<path d="M282.418 247.349C282.418 247.625 282.473 247.901 282.583 248.178C282.693 248.399 282.804 248.675 282.914 248.896C283.024 249.117 283.189 249.338 283.355 249.504C283.52 249.725 283.741 249.946 284.016 250.112L284.182 250.223C284.623 250.499 285.174 250.444 285.505 250.002C285.56 249.946 285.615 249.836 285.615 249.781C285.725 249.394 285.78 249.007 285.67 248.62C285.615 248.233 285.45 247.901 285.284 247.57C285.119 247.238 284.843 246.962 284.568 246.741C284.237 246.464 283.906 246.299 283.465 246.243C283.024 246.133 282.583 246.409 282.473 246.851C282.473 246.907 282.473 246.962 282.473 247.017L282.418 247.349Z" fill="white"/>
<path d="M240.688 311.295H240.853C241.46 311.295 242.011 311.405 242.562 311.46C243.114 311.516 243.665 311.571 244.216 311.571C245.263 311.626 246.366 311.626 247.413 311.571C248.461 311.516 249.508 311.35 250.555 311.073C250.776 311.018 251.051 310.963 251.272 310.908C250.831 310.631 250.445 310.3 250.059 309.913C249.563 309.471 249.122 308.973 248.736 308.421C248.516 308.144 248.35 307.868 248.185 307.592C248.02 307.315 247.799 306.984 247.689 306.652C247.468 306.099 247.744 305.491 248.295 305.325C248.736 305.16 249.177 305.325 249.508 305.657L249.563 305.712C249.728 305.933 249.839 306.155 250.004 306.32C250.17 306.541 250.335 306.762 250.555 306.928C250.941 307.315 251.327 307.702 251.768 308.034C252.595 308.697 253.532 309.194 254.579 309.581C255.572 309.913 256.674 310.079 257.722 310.079C258.769 310.079 259.816 309.968 260.809 309.636C261.58 309.415 262.242 308.863 262.628 308.144C263.014 307.26 263.234 306.32 263.289 305.325L263.124 304.552C263.124 304.22 263.179 303.889 263.179 303.502C263.234 302.783 263.399 302.12 263.565 301.401C263.951 300.02 264.667 298.749 265.549 297.588C266.376 296.538 267.313 295.598 268.306 294.714C268.526 294.493 268.802 294.272 269.022 294.106L269.353 293.774C269.463 293.719 269.518 293.664 269.574 293.553C269.849 293.277 270.015 293.001 270.18 292.669C270.456 291.895 270.456 291.066 270.18 290.348C269.849 289.574 269.298 288.911 268.581 288.469C267.754 288.026 266.817 287.75 265.825 287.75C264.778 287.75 263.675 287.861 262.628 288.137C260.423 288.745 258.273 289.684 256.288 290.845C255.737 291.121 255.076 290.9 254.8 290.403C254.524 289.906 254.69 289.353 255.131 289.021C256.399 288.082 257.777 287.253 259.21 286.534C259.155 286.479 259.155 286.479 259.1 286.424C258.879 286.092 258.549 285.76 258.273 285.429C257.722 284.766 257.06 284.102 256.454 283.494C255.792 282.831 255.131 282.223 254.414 281.56C254.028 281.228 253.697 280.897 253.367 280.565C252.981 280.234 252.65 279.902 252.319 279.515L252.264 279.46C251.878 278.962 251.989 278.244 252.43 277.857C252.705 277.636 253.036 277.581 253.367 277.636C253.863 277.802 254.414 277.968 254.91 278.189C255.406 278.41 255.903 278.631 256.344 278.907C257.281 279.46 258.163 280.178 258.934 280.952C259.761 281.726 260.423 282.665 260.974 283.66C261.084 283.937 261.25 284.158 261.36 284.434C261.47 284.71 261.58 284.987 261.635 285.263L261.691 285.484L261.801 285.429C263.069 284.987 264.447 284.766 265.77 284.71C267.258 284.655 268.747 284.987 270.07 285.65C271.503 286.368 272.605 287.584 273.267 289.077C273.928 290.624 273.984 292.337 273.432 293.885C273.157 294.714 272.716 295.432 272.109 296.04C271.944 296.206 271.779 296.372 271.668 296.483L271.338 296.759C271.117 296.925 270.897 297.146 270.676 297.367C269.849 298.085 269.077 298.914 268.361 299.799C267.754 300.572 267.258 301.457 266.983 302.396C266.817 302.894 266.762 303.391 266.707 303.889C266.652 304.165 266.652 304.441 266.652 304.662L266.597 305.602C266.487 307.094 266.101 308.531 265.439 309.802C264.998 310.521 264.447 311.129 263.785 311.626C263.124 312.068 262.407 312.455 261.635 312.676C260.312 313.063 258.879 313.174 257.501 313.063C256.399 313.008 255.351 312.787 254.304 312.455L254.194 312.566C253.918 312.787 253.642 312.953 253.367 313.174C252.815 313.561 252.209 313.892 251.603 314.113C249.122 315.163 246.311 315.44 243.665 314.776C243.003 314.611 242.397 314.445 241.79 314.168C241.184 313.892 240.633 313.561 240.082 313.229C239.585 312.897 239.42 312.234 239.751 311.737C239.916 311.516 240.302 311.35 240.688 311.295Z" fill="#022B42"/>
<path d="M255.406 299.135C256.344 296.759 258.273 294.935 260.643 294.051C261.581 293.719 262.573 294.272 262.904 295.211C263.069 295.764 262.959 296.427 262.628 296.869C261.47 298.362 261.47 298.638 261.525 299.08C261.581 299.799 261.525 300.517 261.415 301.236C261.195 302.562 260.202 303.667 258.879 304.054C258.604 304.11 258.328 304.165 258.052 304.165C257.226 304.165 256.399 303.833 255.847 303.225C255.406 302.783 254.524 301.457 255.406 299.135Z" fill="#022B42"/>
<path d="M141.022 171.797C139.093 171.962 137.163 171.962 135.289 171.907C134.628 171.852 133.305 171.797 132.588 171.686C135.73 171.575 138.817 170.691 141.573 169.144C144.826 168.812 148.685 168.37 151.937 167.872C155.685 167.265 159.489 166.878 163.293 166.712C165.222 166.657 167.207 166.712 169.136 166.933C171.12 167.154 173.105 167.596 174.979 168.259C175.916 168.646 176.853 169.088 177.735 169.586L178.397 169.973L179.003 170.36C179.389 170.636 179.83 170.912 180.216 171.189C181.815 172.294 183.303 173.455 184.791 174.726C186.28 175.997 187.658 177.268 189.036 178.65C190.359 180.032 191.682 181.413 192.95 182.795C194.163 184.121 195.431 185.393 196.864 186.498C198.187 187.548 199.675 188.432 201.274 188.985C204.471 190.201 208.054 190.422 211.692 190.312L213.071 190.256C213.567 190.256 214.063 190.201 214.559 190.201C215.606 190.201 216.599 190.256 217.591 190.422C221.835 190.919 225.694 193.241 228.175 196.723C229.332 198.381 230.325 200.094 231.152 201.973C232.75 205.566 233.853 209.158 235.231 212.53C236.609 215.901 238.263 219.106 240.633 221.649C241.239 222.257 241.846 222.865 242.507 223.417L243.61 224.246C243.996 224.523 244.382 224.854 244.767 225.131C246.311 226.402 247.689 227.784 249.012 229.276C250.28 230.768 251.438 232.426 252.32 234.195C253.202 235.963 253.918 237.843 254.414 239.777C254.855 241.711 255.131 243.646 255.241 245.635C255.296 247.57 255.296 249.504 255.131 251.439C254.8 255.252 254.249 259.01 253.477 262.713C253.367 263.266 252.871 263.653 252.264 263.542C251.713 263.432 251.327 262.934 251.438 262.327C251.713 260.447 251.989 258.624 252.209 256.744C252.43 254.865 252.595 253.041 252.705 251.218C252.871 247.57 252.705 243.867 251.768 240.44C251.327 238.727 250.666 237.069 249.839 235.521C249.012 233.974 247.965 232.537 246.807 231.21C245.594 229.884 244.326 228.668 242.893 227.563C242.562 227.286 242.177 227.01 241.846 226.734L240.688 225.905C239.861 225.297 239.09 224.633 238.428 223.86C237.05 222.423 235.837 220.765 234.845 219.051C233.853 217.338 233.026 215.569 232.254 213.801C230.766 210.263 229.608 206.671 228.12 203.355C227.403 201.752 226.576 200.205 225.529 198.823C224.592 197.496 223.324 196.391 221.946 195.507C220.512 194.678 218.914 194.18 217.315 193.959C216.488 193.849 215.606 193.793 214.779 193.793C214.338 193.793 213.897 193.793 213.456 193.793L212.023 193.849C210.094 193.904 208.109 193.849 206.18 193.628C204.14 193.407 202.156 192.964 200.282 192.301C198.352 191.583 196.533 190.533 194.934 189.206C193.446 187.935 192.013 186.553 190.745 185.116C188.319 182.353 185.729 179.7 182.972 177.213C181.594 175.997 180.161 174.892 178.673 173.786C178.287 173.51 177.901 173.234 177.57 173.012L177.019 172.626L176.468 172.294C175.751 171.852 174.979 171.465 174.207 171.189C171.01 169.917 167.372 169.641 163.734 169.696C160.095 169.752 156.402 170.194 152.654 170.636C148.574 171.023 144.826 171.575 141.022 171.797Z" fill="#FFAF51"/>
<path d="M23.6606 143.499C24.5426 138.691 29.118 135.54 33.8588 136.369C34.9613 136.59 36.0087 136.977 36.9458 137.585C37.1112 137.696 37.2765 137.806 37.4419 137.917L37.6624 138.027L38.1034 138.304C36.2291 133.495 38.6547 128.079 43.4505 126.2C46.2068 125.15 49.2938 125.426 51.7744 126.974C51.9398 127.084 52.1603 127.195 52.3256 127.305L52.5462 127.471L52.9871 127.748L53.7038 128.245L54.3102 128.687C54.3102 128.577 54.255 128.466 54.255 128.355C54.255 128.245 54.1999 128.19 54.1999 128.079C54.1999 127.969 54.1448 127.803 54.1448 127.692C53.5384 122.386 57.342 117.633 62.634 117.025C65.0044 116.749 67.3196 117.357 69.249 118.739C69.4144 118.849 69.6349 119.015 69.8003 119.126L70.0208 119.291L70.4618 119.623L71.1784 120.176L71.7296 120.673C71.895 120.839 72.1155 121.005 72.2809 121.171C72.6116 121.502 72.8873 121.834 73.218 122.11L74.0449 123.105C74.3205 123.437 74.541 123.713 74.7615 124.045C74.982 124.376 75.2025 124.708 75.423 124.984L75.9743 125.924C76.0845 126.089 76.1397 126.255 76.2499 126.421L76.4704 126.863C77.6832 129.24 78.5652 131.782 79.1164 134.435C79.2818 135.043 79.392 135.651 79.4471 136.314C79.5023 136.922 79.6125 137.53 79.6677 138.138C79.7779 139.243 79.7779 140.293 79.7779 141.344C80.2189 141.62 80.6599 141.896 81.1009 142.173C82.0931 142.891 83.0303 143.665 83.8571 144.604C84.243 145.047 84.6289 145.544 85.0148 146.041C85.3455 146.539 85.6763 147.036 85.9519 147.589C86.9441 149.468 87.6608 151.513 87.9915 153.613C88.2671 155.327 88.3223 157.095 88.1569 158.808C88.1569 159.195 88.1018 159.582 88.0467 159.969C87.9915 160.522 87.9364 161.074 87.771 161.627V161.682C87.6608 162.235 87.5505 162.788 87.4403 163.285C87.2749 164.004 87.0544 164.667 86.8339 165.385C86.7237 165.717 86.6134 166.104 86.448 166.436L86.2275 166.988L85.8968 167.707C85.6763 168.259 85.4007 168.757 85.0699 169.254C81.597 176.384 77.7383 178.539 80.274 184.84C106.734 234.637 137.549 256.966 137.88 257.242C140.471 259.342 141.683 265.698 139.368 271.225C135.785 279.902 127.185 276.254 125.366 274.928C123.823 273.822 91.299 250.278 62.9096 198.326C62.7994 198.104 62.634 197.828 62.5238 197.607C61.4764 195.617 60.3739 193.628 59.3265 191.583C54.9165 183.79 54.1448 186.111 44.2223 180.363C33.1973 173.842 20.0775 156.708 23.6606 143.499Z" fill="#022B42"/>
<path d="M27.0234 153.558C27.3541 153.282 27.8502 153.337 28.1259 153.668C28.8976 154.608 29.5591 155.603 30.2206 156.598C30.827 157.593 31.4333 158.643 32.0397 159.693C33.0871 161.738 34.2447 163.727 35.5126 165.662C36.0638 166.491 36.7805 167.209 37.6074 167.762C39.2611 168.757 41.3007 168.757 43.0096 167.872C43.8365 167.43 44.5531 166.767 45.0492 165.938C45.3249 165.551 45.4902 165.109 45.6556 164.612C45.7107 164.391 45.821 164.169 45.821 163.893C45.8761 163.617 45.9312 163.34 45.9863 163.064C46.0966 162.511 46.1517 161.959 46.2069 161.406C46.262 161.13 46.262 160.853 46.262 160.577C46.262 160.301 46.3171 160.024 46.3171 159.748C46.3722 158.643 46.3171 157.482 46.262 156.377C46.1517 155.271 46.0415 154.111 45.821 153.005C44.9941 148.584 43.175 144.328 40.1431 140.957C39.8124 140.625 39.8124 140.128 40.1431 139.796C40.4739 139.464 40.97 139.464 41.3007 139.796C42.1827 140.625 43.0096 141.509 43.7813 142.504C44.1672 143.002 44.498 143.499 44.8287 143.996C45.1595 144.494 45.4902 145.047 45.7659 145.599C46.9235 147.755 47.7504 150.076 48.2465 152.508C48.467 153.392 48.5772 154.332 48.6875 155.216C48.7426 155.271 48.7426 155.327 48.7977 155.327C49.2939 156.1 49.79 156.874 50.3963 157.593C50.9476 158.256 51.554 158.808 52.2706 159.195C53.7039 159.969 55.3576 160.19 56.9011 159.748C58.8305 159.195 60.374 157.758 60.9803 155.879C61.0906 155.492 61.2009 155.05 61.3111 154.663C61.4214 154.111 61.5316 153.613 61.5867 153.061C61.4214 152.895 61.3111 152.729 61.1457 152.563C59.933 151.016 59.2715 149.026 59.2715 147.036C59.2715 145.268 59.8778 143.554 60.8701 142.173C60.815 141.841 60.7047 141.509 60.6496 141.178C59.7676 137.585 58.1139 134.269 55.8537 131.395C55.5781 131.064 55.6332 130.566 56.0191 130.29C56.3498 130.069 56.7357 130.069 57.0113 130.345C58.3895 131.782 59.6022 133.33 60.5945 135.043C61.5316 136.701 62.3033 138.414 62.9097 140.238C63.9571 139.52 65.1147 139.022 66.3275 138.691C68.0915 138.249 69.8555 138.083 71.6746 138.193C72.5566 138.249 73.4386 138.359 74.3206 138.525C75.2026 138.691 76.0295 138.912 76.8563 139.243C77.2422 139.409 77.4627 139.851 77.3525 140.238C77.2422 140.625 76.8012 140.846 76.4153 140.736C75.6436 140.57 74.8719 140.459 74.045 140.404C73.2732 140.349 72.4464 140.349 71.6746 140.349C70.076 140.404 68.5325 140.625 67.0441 141.067C65.666 141.454 64.3981 142.228 63.4059 143.333C62.5239 144.383 62.0277 145.71 61.9726 147.092C61.9726 148.473 62.4136 149.855 63.2405 151.016C63.6264 151.568 64.1776 152.066 64.7288 152.453C65.0045 152.674 65.3352 152.839 65.6109 152.95C65.9416 153.116 66.3275 153.226 66.7134 153.392C67.0992 153.558 67.4851 153.668 67.9812 153.89C68.2569 154 68.4773 154.166 68.6978 154.276C69.0286 154.497 69.3042 154.774 69.4696 155.161C69.635 155.492 69.7452 155.824 69.7452 156.211C69.7452 156.487 69.7452 156.764 69.6901 157.04C69.635 157.261 69.5798 157.537 69.5247 157.703L69.4696 158.035L69.3594 158.366C69.0837 159.195 68.8632 159.969 68.6427 160.743C68.4222 161.517 68.312 162.346 68.2017 163.119C68.1466 163.562 67.7056 163.893 67.2646 163.783C66.8787 163.727 66.548 163.34 66.548 162.954C66.6031 162.069 66.7134 161.185 66.8787 160.356C67.0441 159.472 67.2646 158.643 67.43 157.869L67.4851 157.593L67.5402 157.316C67.5402 157.095 67.5953 156.929 67.5953 156.764C67.6505 156.432 67.5402 156.211 67.5402 156.156C67.5402 156.1 67.5402 156.156 67.4851 156.1C67.3748 156.045 67.2095 155.99 67.0992 155.934C66.7685 155.824 66.3826 155.713 65.9416 155.603C65.5006 155.492 65.1147 155.327 64.6737 155.161C64.4532 155.05 64.2327 154.995 64.0122 154.884C64.0122 154.995 63.9571 155.161 63.9571 155.271C63.8469 155.769 63.6815 156.321 63.5161 156.819C63.3507 157.371 63.0751 157.869 62.7995 158.366C61.0355 161.351 57.6177 162.898 54.2 162.29C53.0975 162.069 52.0501 161.682 51.1681 161.074C50.2861 160.466 49.5695 159.748 48.9631 158.864C48.9631 159.195 48.9631 159.527 48.9631 159.859C48.9631 160.19 48.9631 160.466 48.908 160.798C48.8529 161.13 48.908 161.406 48.8528 161.738C48.7977 162.346 48.6875 162.954 48.6324 163.562C48.5772 163.893 48.5221 164.169 48.467 164.446C48.4118 164.777 48.3016 165.109 48.1913 165.441C47.9708 166.104 47.6401 166.712 47.3094 167.32C46.5376 168.536 45.4902 169.475 44.2775 170.139C41.7417 171.465 38.7099 171.354 36.2844 169.862C35.1819 169.088 34.1896 168.094 33.5281 166.933C32.2602 164.888 31.1577 162.788 30.1655 160.577C29.6694 159.527 29.1732 158.477 28.622 157.482C28.0707 156.487 27.4644 155.492 26.858 154.553C26.6375 154.166 26.7477 153.779 27.0234 153.558Z" fill="#0485CA"/>
<path d="M71.3989 142.283C65.8864 142.173 65.0044 148.252 71.013 148.252C75.0922 148.252 74.541 142.338 71.3989 142.283Z" fill="#0485CA"/>
<path d="M51.9399 152.563C53.318 156.819 59.3267 155.437 57.6729 150.85C56.5704 147.755 51.1682 150.131 51.9399 152.563Z" fill="#0485CA"/>
<path d="M37.1661 160.909C37.6622 165.33 43.8363 165.164 43.1197 160.411C42.6787 157.095 36.8905 158.366 37.1661 160.909Z" fill="#0485CA"/>
<path d="M36.5599 141.952C35.9535 141.896 35.292 141.952 34.6856 142.117C34.0792 142.283 33.4728 142.504 32.9767 142.781C32.4255 143.057 31.9293 143.444 31.4883 143.886C31.0473 144.328 30.6614 144.826 30.3858 145.434C30.1653 145.876 30.3858 146.373 30.7717 146.594C30.9922 146.705 31.2127 146.705 31.4332 146.594L31.4883 146.539C31.9845 146.318 32.4806 146.097 32.9216 145.876L34.2446 145.157C34.6856 144.881 35.1266 144.66 35.5676 144.383C36.0086 144.107 36.4496 143.831 36.8906 143.499L37.0009 143.389C37.3316 143.112 37.3867 142.615 37.1111 142.228C37.0009 142.117 36.7804 142.007 36.5599 141.952Z" fill="#0485CA"/>
<path d="M65.6107 120.12C65.1697 119.955 64.6735 119.955 64.1774 120.01C63.7364 120.065 63.2403 120.176 62.8544 120.341C62.4134 120.507 62.0275 120.784 61.6968 121.06C61.3109 121.392 61.0353 121.778 60.8148 122.221C60.5943 122.663 60.8148 123.215 61.2558 123.381C61.4211 123.437 61.5314 123.492 61.6968 123.437H61.807C62.1929 123.381 62.5788 123.271 62.9095 123.16C63.2403 123.05 63.571 122.939 63.9018 122.773C64.2325 122.607 64.5081 122.442 64.8389 122.276C65.1696 122.11 65.5004 121.889 65.776 121.613L65.9414 121.447C66.2721 121.115 66.2721 120.618 65.9414 120.286C65.8311 120.231 65.6658 120.176 65.6107 120.12Z" fill="#0485CA"/>
<path d="M71.0129 124.155C70.0758 124.1 69.1938 124.155 68.2566 124.321C67.3746 124.487 66.4926 124.763 65.6658 125.15C64.8389 125.481 64.012 125.979 63.2954 126.476C62.5236 127.029 61.8622 127.692 61.3109 128.411C61.0353 128.798 61.0904 129.295 61.4763 129.571C61.6968 129.737 62.0275 129.792 62.3032 129.682H62.3583C63.13 129.35 63.8466 128.963 64.5633 128.632C65.2799 128.3 65.9965 127.969 66.7131 127.637C67.4298 127.305 68.2015 126.974 68.9181 126.697C69.6899 126.366 70.4616 126.089 71.1783 125.703L71.2334 125.647C71.6193 125.481 71.7846 124.984 71.6192 124.597C71.509 124.321 71.2885 124.155 71.0129 124.155Z" fill="#0485CA"/>
<path d="M53.2078 134.767C52.7668 134.656 52.2706 134.656 51.8296 134.767C51.3886 134.877 50.9476 134.988 50.5618 135.209C50.1759 135.43 49.79 135.706 49.5144 136.038C49.1836 136.37 48.9631 136.756 48.7977 137.199C48.6324 137.696 48.908 138.193 49.349 138.359C49.5144 138.414 49.6246 138.414 49.79 138.359H49.9003C50.231 138.304 50.6169 138.193 50.9476 138.028C51.2784 137.917 51.554 137.751 51.8296 137.585C52.1053 137.42 52.436 137.254 52.7116 137.033C52.9873 136.812 53.2629 136.591 53.5385 136.314L53.7039 136.148C53.9795 135.762 53.9244 135.264 53.5937 134.988C53.4283 134.877 53.318 134.822 53.2078 134.767Z" fill="#0485CA"/>
<path d="M51.8295 129.571C51.0026 129.571 50.2308 129.682 49.4591 129.903C48.6873 130.124 47.9707 130.4 47.2541 130.787C46.5375 131.174 45.876 131.616 45.3247 132.169C44.7183 132.722 44.2222 133.33 43.8363 134.048C43.6158 134.435 43.7261 134.988 44.1671 135.209C44.3876 135.319 44.7183 135.374 44.9388 135.264L44.9939 135.209C45.6554 134.877 46.2067 134.49 46.8131 134.159C47.4194 133.827 47.9707 133.495 48.6322 133.164L50.4513 132.169C51.0577 131.837 51.6641 131.506 52.2705 131.119L52.3256 131.064C52.7114 130.787 52.7666 130.29 52.5461 129.958C52.2705 129.737 52.05 129.571 51.8295 129.571Z" fill="#0485CA"/>
</g>
<defs>
<linearGradient id="paint0_linear" x1="-73.9883" y1="1.5346" x2="30.9827" y2="594.303" gradientUnits="userSpaceOnUse">
<stop stop-color="#4192B0"/>
<stop offset="1" stop-color="#0485CA"/>
</linearGradient>
<clipPath id="clip0">
<rect width="441" height="428" fill="white" transform="matrix(-1 0 0 1 407 47)"/>
</clipPath>
</defs>
</svg>
