<svg width="664" height="668" viewBox="0 0 664 668" fill="none" xmlns="http://www.w3.org/2000/svg">
<path d="M332.5 1.13397C332.191 0.955342 331.809 0.955342 331.5 1.13397L43.9796 167.134C43.6702 167.313 43.4796 167.643 43.4796 168V500C43.4796 500.357 43.6702 500.687 43.9796 500.866L331.5 666.866C331.809 667.045 332.191 667.045 332.5 666.866L620.02 500.866C620.33 500.687 620.52 500.357 620.52 500V168C620.52 167.643 620.33 167.313 620.02 167.134L332.5 1.13397Z" stroke="url(#paint0_linear)" stroke-width="2" stroke-linecap="square" stroke-linejoin="round"/>
<g clip-path="url(#clip0)">
<path d="M50.7741 330.475L101.163 293.529C102.007 292.895 102.992 292.401 104.048 292.049C109.396 290.286 115.097 293.247 116.856 298.606L117.771 301.497L123.964 320.533C124.809 323.213 127.694 324.693 130.368 323.777C130.79 323.636 131.213 323.424 131.635 323.142L135.717 320.392L136.632 319.828C144.232 314.611 146.203 309.887 152.044 297.901C158.307 284.505 167.456 271.884 172.734 259.052C181.812 237.125 183.149 209.416 199.688 192.847C216.155 176.348 243.883 174.938 265.77 165.843C275.481 161.824 285.123 155.549 294.975 150.049C301.731 146.172 305.109 140.108 302.083 134.185L295.327 121.001L294.272 118.956C293.568 117.546 293.146 115.995 292.934 114.444C292.231 107.534 297.65 101.259 304.617 100.554L327.981 98.2978C331.007 98.0158 333.189 95.3365 332.907 92.3048C332.837 91.8817 332.767 91.5292 332.696 91.1062L323.266 62.1281C323.055 61.4936 323.266 60.859 323.829 60.5065C324.462 60.154 325.307 60.295 325.729 60.9295L355.287 101.4C355.779 102.105 356.202 102.881 356.483 103.727C357.891 108.028 355.568 112.611 351.275 114.021L348.953 114.796L333.682 119.732C331.5 120.437 330.374 122.763 331.078 124.879C331.218 125.231 331.359 125.584 331.57 125.866L333.752 129.109L334.245 129.814C338.326 135.737 341.986 137.429 350.994 141.8C367.18 147.793 382.029 159.427 397.301 165.702C419.187 174.797 446.845 176.137 463.383 192.706C479.921 209.275 481.258 236.984 490.407 258.911C493.433 266.314 497.726 273.576 502.019 280.979C506.874 289.37 513.842 293.459 521.231 289.722L537.628 281.332L540.162 280.063C541.921 279.146 543.821 278.582 545.792 278.441C554.448 277.595 562.189 284.364 563.034 292.965L565.919 322.084C566.341 325.892 569.719 328.642 573.449 328.219C573.942 328.148 574.364 328.078 574.857 327.937L610.748 316.303C611.522 316.021 612.367 316.374 612.789 317.079C613.281 317.925 613 318.912 612.226 319.476L561.837 356.421C560.993 357.056 560.008 357.549 558.952 357.902C553.603 359.664 547.903 356.703 546.144 351.345L545.229 348.454L539.036 329.417C538.191 326.738 535.306 325.257 532.632 326.174C532.209 326.315 531.787 326.526 531.365 326.808L527.283 329.558L526.368 330.122C518.768 335.34 516.797 340.064 510.956 352.05C504.693 365.446 495.544 378.066 490.266 390.899C481.188 412.826 479.78 440.535 463.312 457.104C446.845 473.602 419.117 475.012 397.23 484.108C389.841 487.139 382.592 491.44 375.203 495.741C366.828 500.606 362.746 507.586 366.476 514.989L374.851 531.417L376.118 533.956C377.033 535.718 377.596 537.622 377.736 539.596C378.581 548.268 371.825 556.024 363.239 556.87L334.174 559.761C330.374 560.113 327.629 563.498 328.052 567.305C328.122 567.799 328.192 568.222 328.333 568.715L340.086 604.744C340.367 605.519 340.015 606.365 339.312 606.789C338.467 607.282 337.482 607 336.919 606.224L300.042 555.742C299.409 554.896 298.916 553.909 298.564 552.851C296.805 547.493 299.761 541.782 305.109 540.019L307.995 539.103L326.996 532.898C329.67 532.052 331.148 529.161 330.304 526.482C330.163 526.059 329.952 525.636 329.67 525.213L326.926 521.123L326.363 520.207C321.155 512.592 316.44 510.618 304.476 504.766C291.105 498.491 278.508 489.325 265.699 484.037C243.813 474.942 216.155 473.602 199.617 457.033C183.149 440.535 181.742 412.755 172.664 390.828C169.637 383.425 165.345 376.163 161.052 368.76C156.196 360.369 149.229 356.28 141.839 360.017L125.442 368.407L122.908 369.676C121.149 370.593 119.249 371.157 117.278 371.298C108.622 372.144 100.881 365.375 100.037 356.774L97.1512 327.655C96.7993 323.918 93.4213 321.168 89.6915 321.52C89.1988 321.591 88.7062 321.661 88.2136 321.802L52.252 333.507C51.4778 333.789 50.6333 333.436 50.2111 332.731C49.7888 332.096 49.9999 331.039 50.7741 330.475Z" fill="#FFAF51"/>
<path d="M232.342 119.802C233.256 118.815 234.171 117.828 235.086 116.841C236.001 115.854 236.916 114.867 237.901 113.95C238.464 113.386 238.957 112.893 239.52 112.329C240.505 111.341 240.787 109.861 240.153 108.592C239.59 107.534 239.027 106.265 238.605 105.489L237.479 103.022L236.353 100.554C235.649 98.8619 234.945 97.2402 234.312 95.4776C234.031 94.7725 234.242 93.9264 234.805 93.3624C235.508 92.7278 236.634 92.7278 237.338 93.3624C238.746 94.4905 240.083 95.7596 241.42 96.9582L243.39 98.8619L245.291 100.766C246.557 102.035 247.824 103.304 249.02 104.643C250.217 105.983 251.484 107.252 252.68 108.592C254.017 110.072 254.228 112.258 253.243 114.021L252.469 115.36C251.765 116.629 250.428 118.745 249.372 120.437C248.387 121.988 248.528 124.033 249.654 125.443C249.795 125.654 250.006 125.866 250.146 126.148C251.202 127.558 252.117 129.109 252.821 130.731C253.665 132.493 254.228 134.397 254.58 136.371C254.58 136.583 254.58 136.794 254.58 137.006C254.51 138.627 253.102 139.896 251.484 139.755C249.513 139.614 247.613 139.191 245.783 138.557C244.094 137.993 242.476 137.217 240.998 136.301C239.52 135.455 238.112 134.468 236.846 133.41C235.508 132.352 234.312 131.154 233.256 129.814L232.13 128.404C230.019 125.725 230.16 122.199 232.342 119.802Z" fill="#0485CA"/>
<path d="M406.168 109.649C407.505 109.579 408.842 109.508 410.179 109.508C411.516 109.508 412.854 109.438 414.191 109.438C414.965 109.438 415.739 109.438 416.513 109.438C417.921 109.438 419.117 108.592 419.61 107.252C419.961 106.124 420.384 104.784 420.665 104.009L421.58 101.471L422.565 98.9323C423.199 97.2402 423.902 95.548 424.677 93.8559C425.028 93.1508 425.732 92.6573 426.506 92.7278C427.492 92.7983 428.266 93.5738 428.336 94.4904C428.477 96.3236 428.618 98.0862 428.688 99.9194L428.758 102.669V105.348C428.758 107.182 428.758 108.944 428.688 110.707C428.618 112.47 428.547 114.303 428.477 116.065C428.336 118.11 426.999 119.802 425.028 120.296L423.551 120.719C422.143 121.071 419.75 121.635 417.78 122.129C416.02 122.552 414.613 124.033 414.402 125.866C414.331 126.148 414.331 126.43 414.261 126.712C413.98 128.474 413.557 130.167 412.924 131.859C412.291 133.692 411.376 135.455 410.179 137.076C410.039 137.217 409.898 137.358 409.757 137.499C408.561 138.557 406.731 138.486 405.605 137.288C404.338 135.807 403.212 134.115 402.368 132.352C401.594 130.731 400.96 129.109 400.538 127.346C400.116 125.725 399.834 124.033 399.623 122.34C399.412 120.648 399.412 118.956 399.623 117.264L399.834 115.501C400.327 112.187 403.001 109.79 406.168 109.649Z" fill="#0485CA"/>
<path d="M536.291 225.632C537.276 226.549 538.262 227.465 539.247 228.382C540.232 229.298 541.217 230.215 542.132 231.202L543.751 232.824C544.736 233.811 546.214 234.093 547.481 233.458L550.507 231.907L552.97 230.779L555.433 229.651C557.122 228.946 558.741 228.241 560.5 227.536C561.204 227.254 562.048 227.465 562.611 228.029C563.245 228.734 563.245 229.862 562.611 230.567C561.485 231.978 560.219 233.317 559.022 234.657L557.122 236.631L555.222 238.535C553.955 239.804 552.689 241.073 551.351 242.271C550.085 243.541 548.748 244.739 547.41 245.938C545.933 247.277 543.751 247.489 541.992 246.502L540.654 245.726C539.388 245.021 537.276 243.682 535.587 242.624C534.039 241.637 531.998 241.778 530.591 242.835C530.38 242.976 530.169 243.188 529.887 243.329C528.48 244.387 526.931 245.233 525.313 246.008C523.553 246.854 521.653 247.418 519.683 247.771C519.472 247.771 519.26 247.841 519.049 247.771C517.431 247.7 516.164 246.29 516.305 244.669C516.445 242.694 516.868 240.791 517.501 238.958C518.064 237.265 518.838 235.644 519.753 234.163C520.598 232.683 521.583 231.272 522.638 230.003C523.694 228.664 524.89 227.465 526.228 226.408L527.635 225.279C530.309 223.305 533.898 223.446 536.291 225.632Z" fill="#0485CA"/>
<path d="M546.425 399.782C546.496 401.122 546.566 402.462 546.566 403.801C546.636 405.141 546.636 406.48 546.636 407.82C546.636 408.596 546.636 409.371 546.636 410.147C546.636 411.557 547.481 412.756 548.818 413.249C549.944 413.602 551.211 414.025 552.055 414.307L554.589 415.223L557.122 416.21C558.811 416.845 560.5 417.55 562.189 418.326C562.893 418.678 563.315 419.383 563.315 420.159C563.245 421.146 562.471 421.921 561.556 421.992C559.726 422.203 557.967 422.274 556.137 422.344L553.463 422.415H550.788C548.959 422.415 547.199 422.415 545.44 422.344C543.681 422.274 541.851 422.203 540.091 422.133C538.051 421.992 536.362 420.652 535.869 418.678L535.447 417.197C535.095 415.787 534.532 413.39 534.039 411.416C533.617 409.653 532.139 408.243 530.309 408.032C530.028 408.032 529.746 407.961 529.465 407.891C527.705 407.609 526.016 407.186 524.327 406.551C522.498 405.916 520.738 405 519.12 403.801C518.979 403.66 518.838 403.519 518.697 403.378C517.642 402.18 517.712 400.276 518.909 399.218C520.386 397.949 522.075 396.821 523.835 395.975C525.453 395.199 527.072 394.565 528.831 394.142C530.45 393.719 532.139 393.437 533.828 393.225C535.517 393.014 537.206 393.014 538.895 393.225L540.654 393.437C543.892 393.93 546.284 396.61 546.425 399.782Z" fill="#0485CA"/>
<path d="M430.658 530.148C429.743 531.135 428.829 532.123 427.914 533.11C426.999 534.097 426.084 535.084 425.099 536C424.536 536.564 424.043 537.058 423.48 537.622C422.495 538.609 422.213 540.09 422.847 541.359C423.41 542.416 423.973 543.686 424.395 544.461L425.521 546.929L426.647 549.397C427.351 551.089 428.054 552.71 428.688 554.473C428.969 555.178 428.758 556.024 428.195 556.588C427.491 557.223 426.365 557.223 425.662 556.588C424.254 555.46 422.917 554.191 421.58 552.992L419.609 551.089L417.709 549.185C416.443 547.916 415.176 546.647 413.979 545.307C412.783 544.038 411.516 542.698 410.32 541.359C408.983 539.878 408.772 537.692 409.757 535.93L410.531 534.59C411.235 533.321 412.572 531.206 413.628 529.514C414.613 527.963 414.472 525.918 413.416 524.508C413.276 524.296 413.065 524.085 412.924 523.803C411.868 522.393 411.024 520.842 410.25 519.22C409.405 517.457 408.842 515.554 408.49 513.65C408.49 513.438 408.42 513.227 408.49 513.015C408.561 511.394 409.968 510.125 411.587 510.266C413.557 510.407 415.457 510.83 417.287 511.464C418.976 512.028 420.595 512.804 422.073 513.72C423.55 514.566 424.958 515.554 426.225 516.611C427.562 517.669 428.758 518.867 429.814 520.207L430.94 521.617C432.981 524.155 432.84 527.751 430.658 530.148Z" fill="#0485CA"/>
<path d="M256.832 540.301C255.495 540.372 254.158 540.442 252.821 540.442C251.484 540.442 250.147 540.513 248.809 540.513H246.487C245.08 540.513 243.883 541.359 243.391 542.698C243.039 543.826 242.616 545.166 242.335 545.942L241.42 548.48L240.435 551.018C239.801 552.71 239.098 554.402 238.324 556.094C237.972 556.8 237.268 557.293 236.494 557.223C235.509 557.152 234.734 556.377 234.664 555.46C234.453 553.627 234.383 551.864 234.312 550.031L234.242 547.281V544.672C234.242 542.91 234.242 541.077 234.312 539.314C234.383 537.551 234.453 535.718 234.523 533.956C234.664 531.911 236.001 530.219 237.972 529.725L239.45 529.302C240.857 528.95 243.25 528.386 245.22 527.892C246.98 527.469 248.387 525.988 248.598 524.155C248.598 523.873 248.669 523.591 248.739 523.309C249.021 521.546 249.443 519.854 250.076 518.162C250.71 516.329 251.624 514.566 252.821 512.945C252.962 512.804 253.102 512.592 253.243 512.451C254.439 511.394 256.269 511.464 257.395 512.663C258.662 514.143 259.788 515.835 260.632 517.598C261.407 519.22 262.04 520.841 262.462 522.604C262.884 524.226 263.166 525.918 263.377 527.61C263.588 529.302 263.588 530.994 263.377 532.686L263.166 534.449C262.673 537.763 260.069 540.16 256.832 540.301Z" fill="#0485CA"/>
<path d="M126.709 424.318C125.723 423.402 124.738 422.485 123.753 421.569C122.768 420.652 121.782 419.736 120.868 418.748C120.305 418.184 119.812 417.691 119.249 417.127C118.264 416.14 116.786 415.858 115.519 416.492L112.423 418.043L109.959 419.171L107.496 420.3C105.807 421.005 104.189 421.78 102.429 422.415C101.726 422.697 100.881 422.485 100.318 421.921C99.6847 421.216 99.6847 420.088 100.318 419.383C101.444 417.973 102.711 416.633 103.907 415.294L105.807 413.319L107.707 411.416C108.974 410.147 110.241 408.878 111.578 407.679C112.845 406.48 114.182 405.211 115.519 404.013C116.997 402.673 119.179 402.461 120.938 403.449L122.275 404.224C123.542 404.929 125.653 406.269 127.342 407.326C128.89 408.314 130.931 408.172 132.339 407.115L133.042 406.621C134.45 405.564 135.998 404.718 137.617 403.942C139.376 403.096 141.276 402.532 143.247 402.179C143.458 402.179 143.669 402.179 143.88 402.179C145.499 402.25 146.766 403.66 146.625 405.282C146.484 407.256 146.062 409.16 145.428 410.993C144.865 412.685 144.091 414.307 143.176 415.787C142.332 417.268 141.347 418.678 140.291 419.947C139.235 421.287 138.039 422.485 136.702 423.543L135.294 424.671C132.62 426.645 129.101 426.504 126.709 424.318Z" fill="#0485CA"/>
<path d="M116.575 250.168C116.504 248.829 116.434 247.489 116.434 246.149C116.434 244.81 116.364 243.47 116.364 242.13C116.364 241.355 116.364 240.579 116.364 239.804C116.364 238.394 115.519 237.124 114.182 236.701C113.056 236.349 111.789 235.926 110.945 235.644L108.411 234.727L105.878 233.74C104.189 233.106 102.5 232.401 100.811 231.625C100.107 231.272 99.6143 230.567 99.6846 229.792C99.755 228.805 100.529 228.029 101.444 227.959C103.274 227.747 105.033 227.677 106.863 227.606L109.537 227.536H112.211C114.041 227.536 115.801 227.536 117.63 227.606C119.39 227.677 121.219 227.747 122.979 227.818C125.02 227.959 126.709 229.298 127.201 231.272L127.624 232.753C127.975 234.163 128.538 236.56 129.031 238.535C129.453 240.297 130.931 241.707 132.761 241.919L133.605 242.06C135.365 242.342 137.054 242.765 138.743 243.4C140.573 244.034 142.332 244.951 143.951 246.149C144.091 246.29 144.232 246.431 144.373 246.572C145.428 247.771 145.358 249.675 144.162 250.732C142.684 252.001 140.995 253.129 139.235 253.976C137.617 254.751 135.998 255.386 134.239 255.809C132.62 256.232 130.931 256.514 129.172 256.655C127.483 256.866 125.794 256.866 124.105 256.655L122.345 256.443C119.108 256.02 116.715 253.341 116.575 250.168Z" fill="#0485CA"/>
<path d="M495.685 502.651C497.655 504.696 499.767 506.529 501.948 508.221C504.2 509.913 506.523 511.605 508.986 513.156C511.378 514.707 513.842 516.188 516.446 517.669C519.049 519.149 521.653 520.489 524.398 521.688C525.735 522.252 527.283 521.617 527.846 520.348C528.128 519.713 528.128 518.938 527.846 518.303C526.65 515.483 525.313 512.945 523.905 510.336C522.498 507.798 520.949 505.33 519.401 502.862C517.853 500.465 516.234 498.068 514.475 495.812C512.786 493.556 510.886 491.44 508.915 489.537C505.115 486.011 500.681 487.633 497.163 491.44C493.785 494.966 492.377 499.126 495.685 502.651Z" fill="#FFAF51"/>
<path d="M154.155 489.466C152.114 491.44 150.284 493.556 148.595 495.741C146.906 497.997 145.217 500.324 143.669 502.792C142.121 505.26 140.643 507.657 139.165 510.266C137.687 512.874 136.35 515.483 135.224 518.233C134.661 519.572 135.295 521.124 136.632 521.688C137.265 521.97 138.039 521.97 138.673 521.688C141.417 520.489 144.021 519.149 146.625 517.669C149.158 516.259 151.622 514.778 154.085 513.156C156.478 511.605 158.87 509.984 161.122 508.291C163.374 506.599 165.485 504.696 167.386 502.721C170.904 498.914 169.286 494.472 165.485 490.947C161.826 487.563 157.674 486.152 154.155 489.466Z" fill="#FFAF51"/>
<path d="M349.234 429.959C349.234 429.959 324.603 448.714 324.603 470.429C324.603 472.827 323.055 475.153 319.888 476.987C313.625 480.582 303.561 480.582 297.368 476.987C294.272 475.153 292.723 472.827 292.723 470.429C292.723 470.288 291.879 458.443 295.398 446.81C284.912 446.598 274.637 444.413 264.996 440.253C227.415 424.036 208.836 383.213 223.545 348.947L359.65 407.608L349.234 429.959Z" fill="#022B42"/>
<path d="M278.789 437.503C279.493 438.208 280.267 438.772 281.111 439.336C281.886 439.9 282.73 440.394 283.575 440.817C284.419 441.24 285.334 441.663 286.249 442.015C287.164 442.368 288.079 442.65 289.064 442.861C289.627 443.003 290.19 442.58 290.331 442.015C290.401 441.663 290.26 441.31 290.049 441.028C289.345 440.323 288.571 439.759 287.727 439.195C286.953 438.631 286.108 438.138 285.264 437.715C284.419 437.292 283.504 436.868 282.66 436.516C281.745 436.163 280.83 435.881 279.845 435.67C279.282 435.529 278.719 435.952 278.648 436.516C278.508 436.939 278.648 437.292 278.789 437.503Z" fill="#0485CA"/>
<path d="M237.338 412.121C239.872 414.307 242.616 416.351 245.361 418.255C248.105 420.229 250.92 422.062 253.735 423.825C256.55 425.588 259.436 427.35 262.392 428.901C265.347 430.523 268.303 432.074 271.329 433.484C271.822 433.766 272.455 433.484 272.737 432.991C272.948 432.497 272.807 431.933 272.385 431.651C269.64 429.747 266.825 427.985 264.01 426.222L255.565 420.934L247.12 415.646C244.235 413.954 241.49 412.121 238.534 410.499C238.042 410.217 237.479 410.358 237.197 410.852C236.986 411.275 237.057 411.768 237.338 412.121Z" fill="#0485CA"/>
<path d="M322.773 448.854C321.507 450.476 320.521 452.239 319.677 454.142C318.832 455.976 318.129 457.95 317.636 459.924C317.143 461.898 316.791 463.943 316.651 465.987C316.51 468.032 316.58 470.077 316.791 472.051C316.862 472.615 317.425 473.038 317.988 472.897C318.41 472.827 318.762 472.474 318.832 472.051C319.114 470.147 319.395 468.244 319.747 466.34C320.029 464.436 320.451 462.603 320.944 460.77C321.436 458.937 321.929 457.104 322.492 455.271C323.055 453.437 323.759 451.675 324.462 449.842C324.674 449.348 324.322 448.713 323.829 448.572C323.477 448.431 323.055 448.572 322.773 448.854Z" fill="#0485CA"/>
<path d="M308.98 458.302C308.487 459.36 308.135 460.559 307.924 461.687C307.713 462.815 307.572 464.013 307.502 465.212C307.432 466.411 307.502 467.609 307.643 468.737C307.784 469.936 308.065 471.064 308.417 472.192C308.628 472.756 309.261 473.038 309.754 472.827C310.106 472.686 310.387 472.333 310.458 471.981C310.599 470.853 310.669 469.724 310.739 468.596C310.81 467.468 310.81 466.411 310.88 465.283C310.88 464.154 310.95 463.097 310.95 461.969C310.95 460.841 310.95 459.713 310.88 458.584C310.81 458.02 310.317 457.597 309.754 457.668C309.473 457.738 309.191 458.02 308.98 458.302Z" fill="#0485CA"/>
<path d="M298.775 455.553C298.283 456.751 297.931 457.95 297.72 459.219C297.438 460.488 297.298 461.757 297.227 463.026C297.157 464.296 297.157 465.565 297.227 466.904C297.298 468.173 297.509 469.513 297.931 470.712C298.142 471.276 298.705 471.558 299.268 471.417C299.62 471.276 299.901 470.994 299.972 470.571C300.183 469.372 300.253 468.103 300.394 466.904C300.464 465.706 300.605 464.507 300.676 463.308C300.746 462.11 300.816 460.911 300.816 459.642C300.887 458.373 300.816 457.174 300.746 455.905C300.676 455.341 300.183 454.918 299.62 454.989C299.268 454.918 298.916 455.2 298.775 455.553Z" fill="#0485CA"/>
<path d="M225.022 390.969C228.119 393.366 231.215 395.693 234.382 398.02C237.549 400.346 240.716 402.532 243.953 404.718C250.357 409.089 256.973 413.319 263.658 417.409C266.966 419.454 270.344 421.428 273.722 423.331C277.17 425.235 280.548 427.139 283.997 428.901C285.686 429.818 287.445 430.664 289.204 431.581C290.964 432.497 292.653 433.343 294.412 434.189C297.931 435.881 301.45 437.503 305.039 439.054C305.602 439.266 306.165 438.984 306.376 438.49C306.587 437.997 306.376 437.503 305.954 437.221C304.265 436.305 302.505 435.388 300.816 434.542C299.127 433.696 297.368 432.709 295.679 431.792L293.145 430.453L290.612 429.042C288.923 428.126 287.164 427.209 285.545 426.222C278.789 422.415 272.103 418.537 265.488 414.518C258.873 410.499 252.258 406.41 245.713 402.25C242.405 400.205 239.168 398.02 236.001 395.975C232.834 393.93 229.526 391.674 226.289 389.559C225.867 389.277 225.234 389.347 224.882 389.841C224.6 390.052 224.671 390.616 225.022 390.969Z" fill="#0485CA"/>
<path d="M247.12 393.719C252.75 397.667 258.451 401.474 264.292 405.07C270.133 408.737 276.044 412.191 281.956 415.576C287.938 418.96 293.99 422.203 300.113 425.305C306.235 428.408 312.358 431.369 318.692 434.119C319.184 434.33 319.818 434.119 320.029 433.625C320.24 433.132 320.029 432.568 319.536 432.286L301.52 422.556C295.538 419.312 289.556 415.999 283.575 412.614C277.663 409.23 271.681 405.846 265.77 402.461L248.106 392.027C247.613 391.745 247.05 391.886 246.768 392.379C246.557 392.802 246.698 393.366 247.12 393.719Z" fill="#0485CA"/>
<path d="M222.982 377.079C224.108 378.278 225.234 379.335 226.5 380.393C227.697 381.38 228.964 382.367 230.301 383.284C231.638 384.2 232.975 385.046 234.312 385.892C235.649 386.739 237.127 387.444 238.535 388.149C239.098 388.36 239.661 388.078 239.942 387.585C240.083 387.162 240.012 386.739 239.731 386.457C238.605 385.328 237.409 384.341 236.142 383.354C234.875 382.367 233.608 381.451 232.342 380.534C231.075 379.617 229.738 378.771 228.401 377.925C227.063 377.079 225.656 376.304 224.248 375.599C223.756 375.317 223.122 375.528 222.911 376.022C222.63 376.304 222.7 376.727 222.982 377.079Z" fill="#0485CA"/>
<path d="M374.429 298.676C374.851 298.394 414.894 270.827 450.223 208.146C453.671 200.179 448.815 197.289 444.593 188.052C444.241 187.418 443.889 186.783 443.607 186.078L443.255 185.161L442.974 184.456C442.833 184.033 442.692 183.54 442.481 183.117C442.2 182.2 441.989 181.354 441.778 180.438C441.637 179.732 441.496 179.098 441.355 178.393V178.322C441.215 177.617 441.074 176.912 441.074 176.207C441.003 175.714 441.003 175.22 440.933 174.727C440.792 172.47 440.933 170.285 441.355 168.099C441.848 165.42 442.763 162.811 444.1 160.484C444.452 159.85 444.874 159.145 445.367 158.581C445.789 157.946 446.352 157.312 446.845 156.747C447.9 155.619 449.097 154.632 450.434 153.716C450.997 153.363 451.63 153.011 452.193 152.658C452.263 151.318 452.263 149.908 452.475 148.569C452.545 147.793 452.686 147.018 452.826 146.242C452.967 145.466 453.108 144.691 453.319 143.915C454.023 140.602 455.219 137.358 456.908 134.326L457.26 133.762C457.401 133.551 457.471 133.339 457.612 133.128L458.386 131.929C458.597 131.577 458.949 131.154 459.231 130.731C459.512 130.308 459.794 129.955 460.145 129.532L461.201 128.333C461.623 127.91 461.975 127.558 462.397 127.135C462.609 126.923 462.89 126.712 463.101 126.5L463.875 125.866L464.72 125.161L465.283 124.738L465.564 124.526C465.775 124.385 466.057 124.244 466.268 124.103C471.898 120.296 479.499 121.776 483.299 127.417C484.988 129.955 485.692 133.057 485.269 136.089C485.269 136.301 485.199 136.442 485.199 136.583L485.129 136.935C485.129 137.076 485.058 137.217 485.058 137.358L485.832 136.794L486.747 136.23L487.31 135.878L487.592 135.666C487.803 135.525 488.014 135.384 488.295 135.243C493.925 131.859 501.244 133.762 504.622 139.403C506.523 142.646 506.804 146.595 505.397 150.049L505.96 149.697L506.241 149.556C506.452 149.415 506.663 149.274 506.874 149.203C512.223 146.031 519.12 147.793 522.287 153.152C522.99 154.35 523.483 155.76 523.694 157.17C527.917 174.162 510.604 195.596 496.318 203.423C483.44 210.473 482.525 207.441 476.684 217.242C475.276 219.851 473.869 222.389 472.461 224.856C472.25 225.209 472.109 225.491 471.898 225.773C434.036 291.132 391.882 320.181 389.841 321.591C383.507 325.892 374.921 324.2 370.628 317.854C366.406 311.65 368.095 303.048 374.429 298.676Z" fill="#022B42"/>
<path d="M455.923 150.19C456.978 149.838 458.104 149.556 459.23 149.344C460.356 149.133 461.482 149.062 462.608 149.062C464.931 148.992 467.183 149.274 469.435 149.838C470.983 150.261 472.391 150.966 473.728 151.883C474.502 149.626 475.557 147.37 476.754 145.325C478.091 143.14 479.639 141.166 481.469 139.403C481.891 139.05 482.525 139.05 482.876 139.473C483.228 139.826 483.228 140.39 482.876 140.813C479.921 144.479 477.739 148.639 476.472 153.152C476.332 153.575 476.261 153.998 476.12 154.421C477.387 156.254 478.091 158.44 478.021 160.696C478.021 163.234 477.106 165.702 475.487 167.676C475.276 167.887 475.135 168.099 474.924 168.31C474.994 169.016 475.065 169.721 475.206 170.355C475.346 170.919 475.417 171.483 475.628 171.906C475.769 172.4 475.98 172.823 476.191 173.246C477.176 175.009 478.795 176.348 480.695 176.912C482.665 177.476 484.777 177.265 486.606 176.348C487.521 175.855 488.366 175.15 489.069 174.374C489.844 173.528 490.547 172.541 491.181 171.624C491.251 171.554 491.251 171.483 491.321 171.483C491.462 170.355 491.744 169.157 492.025 168.028C492.729 164.997 493.925 162.035 495.403 159.286C495.755 158.581 496.248 157.946 496.67 157.311C497.092 156.677 497.585 156.042 498.077 155.408C499.063 154.209 500.118 153.081 501.315 152.024C501.737 151.671 502.3 151.671 502.722 152.024C503.144 152.447 503.144 153.081 502.793 153.504C498.781 157.735 496.318 163.022 495.192 168.663C494.911 170.073 494.699 171.483 494.559 172.893C494.418 174.303 494.348 175.784 494.418 177.194C494.418 177.547 494.418 177.899 494.418 178.252C494.418 178.604 494.418 178.957 494.488 179.309C494.559 180.014 494.629 180.72 494.699 181.425C494.77 181.777 494.77 182.13 494.84 182.482C494.911 182.835 494.981 183.117 495.051 183.399C495.262 183.963 495.474 184.527 495.755 185.091C496.388 186.149 497.233 186.995 498.289 187.629C500.4 188.828 503.074 188.828 505.185 187.629C506.241 186.924 507.226 186.078 507.93 185.02C509.619 182.623 511.167 180.155 512.575 177.547C513.349 176.278 514.123 174.938 514.967 173.669C515.812 172.4 516.727 171.201 517.712 170.003C518.064 169.58 518.697 169.509 519.12 169.862C519.471 170.214 519.612 170.708 519.331 171.131C518.486 172.4 517.712 173.598 517.008 174.868C516.305 176.137 515.601 177.476 514.967 178.816C513.63 181.566 512.152 184.245 510.463 186.854C509.549 188.334 508.282 189.533 506.874 190.449C503.707 192.353 499.837 192.353 496.6 190.59C495.051 189.674 493.714 188.405 492.799 186.854C492.377 186.078 492.025 185.302 491.744 184.456C491.603 184.033 491.533 183.61 491.462 183.187C491.392 182.764 491.321 182.412 491.251 181.989C491.181 181.213 491.04 180.438 491.04 179.662C490.97 179.239 490.97 178.886 490.97 178.463C490.97 178.04 490.97 177.688 490.97 177.265C490.97 176.842 490.97 176.419 490.97 175.996C490.195 177.053 489.21 178.04 488.084 178.745C486.888 179.521 485.551 180.014 484.143 180.226C479.78 180.931 475.417 178.816 473.235 174.938C472.883 174.303 472.602 173.669 472.391 172.964C472.179 172.329 472.039 171.695 471.898 170.99L471.828 170.496C471.546 170.637 471.265 170.708 470.983 170.849C470.42 171.06 469.927 171.201 469.364 171.342C468.801 171.483 468.309 171.624 467.887 171.765C467.746 171.836 467.535 171.906 467.394 171.977L467.324 172.047C467.253 172.047 467.183 172.329 467.183 172.823C467.183 173.034 467.183 173.316 467.253 173.528L467.324 173.88L467.394 174.233C467.605 175.22 467.887 176.348 468.027 177.476C468.168 178.604 468.309 179.732 468.309 180.861C468.379 181.425 467.887 181.918 467.324 181.989C466.761 182.059 466.268 181.566 466.198 181.002C466.127 179.944 465.916 178.957 465.705 177.97C465.494 176.983 465.212 175.996 464.86 174.938L464.72 174.515L464.649 174.092C464.579 173.81 464.509 173.528 464.509 173.246C464.438 172.893 464.438 172.541 464.438 172.188C464.438 171.695 464.579 171.272 464.79 170.849C465.001 170.426 465.353 170.073 465.775 169.791C466.057 169.58 466.409 169.439 466.761 169.298C467.394 169.086 467.887 168.874 468.379 168.733C468.872 168.592 469.364 168.381 469.787 168.169C470.209 168.028 470.631 167.817 470.983 167.535C471.757 167.041 472.391 166.477 472.954 165.772C474.08 164.362 474.643 162.599 474.643 160.837C474.643 159.074 474.08 157.382 472.954 155.972C471.757 154.562 470.139 153.575 468.379 153.011C466.479 152.376 464.509 152.024 462.468 151.953C461.482 151.883 460.427 151.883 459.442 151.953C458.456 152.024 457.401 152.165 456.415 152.306C455.852 152.447 455.36 152.094 455.219 151.53C455.149 151.036 455.43 150.543 455.852 150.402L455.923 150.19Z" fill="#0485CA"/>
<path d="M462.468 153.857C469.505 153.716 470.631 161.471 462.96 161.471C457.682 161.471 458.386 153.927 462.468 153.857Z" fill="#0485CA"/>
<path d="M487.24 167.041C485.48 172.47 477.809 170.708 479.921 164.856C481.328 160.837 488.295 163.939 487.24 167.041Z" fill="#0485CA"/>
<path d="M506.1 177.688C505.467 183.328 497.585 183.117 498.5 177.053C499.063 172.752 506.452 174.444 506.1 177.688Z" fill="#0485CA"/>
<path d="M488.718 141.8C489.281 142.223 489.773 142.576 490.407 142.928C490.97 143.281 491.533 143.633 492.096 143.915L493.785 144.832C494.348 145.184 494.981 145.466 495.614 145.678H495.685C496.248 145.889 496.881 145.607 497.092 145.043C497.233 144.761 497.163 144.479 497.022 144.197C496.67 143.492 496.177 142.787 495.614 142.223C495.051 141.659 494.418 141.166 493.714 140.813C493.01 140.461 492.307 140.108 491.533 139.967C490.758 139.755 489.914 139.685 489.14 139.755C488.577 139.826 488.155 140.319 488.225 140.884C488.225 141.166 488.366 141.377 488.577 141.589L488.718 141.8Z" fill="#0485CA"/>
<path d="M511.308 155.267C511.66 155.619 512.082 155.901 512.504 156.113C512.927 156.324 513.278 156.536 513.701 156.747C514.123 156.959 514.475 157.1 514.967 157.241C515.39 157.382 515.882 157.523 516.375 157.593H516.516C517.149 157.664 517.712 157.241 517.782 156.606C517.782 156.395 517.782 156.183 517.712 156.042C517.431 155.478 517.079 154.985 516.586 154.562C516.164 154.139 515.601 153.857 515.108 153.645C514.545 153.434 513.982 153.293 513.419 153.222C512.786 153.152 512.152 153.222 511.589 153.363C511.026 153.504 510.675 154.139 510.886 154.703C510.956 154.844 511.026 155.055 511.167 155.126L511.308 155.267Z" fill="#0485CA"/>
<path d="M504.411 160.414C505.326 160.837 506.311 161.26 507.297 161.683C508.212 162.106 509.197 162.458 510.112 162.881C511.027 163.305 511.941 163.728 512.856 164.151C513.771 164.574 514.686 165.067 515.671 165.49H515.742C516.305 165.702 516.868 165.49 517.149 164.926C517.29 164.574 517.22 164.151 517.008 163.869C516.305 162.952 515.46 162.106 514.475 161.401C513.56 160.696 512.504 160.132 511.449 159.709C510.393 159.215 509.267 158.863 508.141 158.651C507.015 158.44 505.819 158.299 504.622 158.44C504.059 158.51 503.637 159.004 503.708 159.497C503.708 159.85 503.989 160.132 504.271 160.343L504.411 160.414Z" fill="#0485CA"/>
<path d="M466.057 134.538C466.339 134.89 466.69 135.243 467.113 135.455C467.465 135.737 467.816 135.948 468.239 136.16C468.661 136.371 469.013 136.583 469.365 136.724C469.787 136.935 470.209 137.076 470.702 137.147H470.843C471.476 137.288 472.039 136.865 472.18 136.23C472.25 136.019 472.18 135.807 472.18 135.666C471.969 135.102 471.687 134.608 471.265 134.185C470.843 133.762 470.42 133.41 469.928 133.128C469.435 132.846 468.872 132.634 468.309 132.564C467.746 132.423 467.113 132.423 466.55 132.564C465.987 132.705 465.564 133.269 465.705 133.833C465.705 133.974 465.776 134.115 465.916 134.256L466.057 134.538Z" fill="#0485CA"/>
<path d="M467.816 127.91C468.52 128.404 469.365 128.827 470.139 129.25L472.461 130.519C473.235 130.942 473.939 131.365 474.783 131.788C475.558 132.211 476.261 132.705 477.106 133.057H477.176C477.739 133.339 478.373 133.128 478.584 132.564C478.724 132.211 478.724 131.859 478.584 131.577C478.091 130.66 477.387 129.885 476.684 129.18C475.909 128.474 475.065 127.91 474.22 127.417C473.306 126.923 472.391 126.571 471.405 126.289C470.42 126.007 469.365 125.866 468.379 125.866C467.816 125.866 467.394 126.359 467.394 126.923C467.394 127.276 467.605 127.558 467.816 127.769V127.91Z" fill="#0485CA"/>
<path d="M199.688 309.957C201.729 305.445 190.539 281.332 209.188 254.258C209.962 252.918 210.877 251.719 211.933 250.521L212.003 250.38H212.074C214.959 247.136 218.619 244.669 222.7 243.118L222.911 243.047C227.134 241.355 228.753 240.227 230.371 237.407C230.582 236.913 230.864 236.49 231.075 236.067C231.145 235.926 231.216 235.785 231.286 235.644C236.846 225.985 247.05 219.992 258.169 219.992H258.521C258.873 219.921 259.295 219.921 259.647 219.992C259.858 219.992 260.14 220.062 260.351 220.062C260.773 220.062 261.266 220.133 261.688 220.203C266.614 220.344 271.47 219.075 275.693 216.466H275.763C276.608 215.973 277.522 215.479 278.437 215.056L278.508 214.986C283.645 212.8 288.29 209.486 291.949 205.256C292.231 204.903 292.583 204.48 292.864 204.128C292.935 203.987 293.075 203.916 293.146 203.775C303.632 192.353 320.17 188.969 334.245 195.385C334.526 195.455 334.808 195.596 335.019 195.737C335.16 195.808 335.23 195.878 335.371 195.949C336.074 196.301 336.708 196.654 337.341 197.006C341.353 199.051 345.927 199.615 350.361 198.628C351.064 198.346 351.838 198.135 352.613 197.994H352.683C353.105 197.853 353.527 197.782 353.95 197.712C355.216 197.5 356.554 197.359 357.891 197.359C363.943 197.359 369.714 199.686 374.147 203.846C374.57 204.198 374.992 204.551 375.273 204.974C378.088 208.711 382.733 210.685 388.996 209.345C389.278 209.275 389.559 209.275 389.771 209.275C391.319 209.063 392.867 208.922 394.486 208.922C406.661 208.922 417.78 215.691 423.48 226.408C423.551 226.549 423.691 226.76 423.762 226.901C426.647 232.824 429.814 236.349 434.74 239.381C435.162 239.592 435.514 239.804 435.866 240.015C436.218 240.227 436.57 240.438 436.992 240.65C437.344 240.861 437.626 241.002 437.907 241.284C452.545 250.45 463.031 264.904 467.253 281.684C467.394 282.037 467.465 282.389 467.535 282.813C467.535 282.954 467.605 283.095 467.605 283.236V283.306C468.872 289.793 472.602 295.363 476.05 300.016C476.332 300.369 476.613 300.721 476.895 301.144L476.965 301.215C477.387 301.849 477.81 302.484 478.091 303.189C481.962 309.887 483.299 317.784 481.821 325.398C481.751 325.892 481.68 326.385 481.54 326.879V326.949C481.469 327.372 481.328 327.795 481.117 328.219V328.289C480.977 328.712 480.836 329.065 480.765 329.488C480.554 330.404 480.414 331.391 480.484 332.378C477.81 345.493 475.98 353.953 478.373 364.811C480.977 376.445 472.461 388.642 459.442 390.475C458.527 390.546 457.682 390.616 456.838 390.687H456.768C456.275 390.687 455.782 390.757 455.29 390.899C449.66 391.956 445.015 394.706 443.256 399.148L443.115 399.5C442.974 399.853 442.904 400.135 442.763 400.487C442.552 401.122 442.341 401.827 441.989 402.391C437.485 412.614 427.492 419.312 416.372 419.736C416.02 419.806 415.739 419.806 415.387 419.806C414.683 419.806 414.05 419.736 413.346 419.736C408.983 419.665 404.76 421.146 401.382 423.895L401.242 424.036C395.26 430.1 386.463 432.356 378.299 429.959C378.018 429.888 377.736 429.818 377.525 429.747L377.314 429.677C377.244 429.677 377.244 429.677 377.173 429.606C372.74 427.562 368.799 429.395 364.506 431.933C364.365 432.004 364.154 432.074 364.013 432.145C363.591 432.356 363.098 432.638 362.676 432.779C347.264 439.971 319.114 432.638 306.728 415.646L306.587 415.505C305.954 414.871 305.391 414.166 304.898 413.46C301.731 410.217 298.705 409.371 296.242 408.455C292.864 407.608 289.838 405.775 287.445 403.237C286.39 402.321 285.545 401.192 284.982 399.923C284.982 399.923 284.982 399.853 284.912 399.853C283.082 395.763 279.352 395.693 275.622 395.834C274.778 395.904 273.863 395.975 273.018 395.975C261.829 395.975 252.117 388.431 249.232 377.643C249.232 377.573 249.161 377.502 249.161 377.432C249.091 377.079 249.021 376.797 248.95 376.445C248.95 376.374 248.95 376.304 248.88 376.304C247.754 372.144 244.376 371.439 242.194 371.227H242.124C228.471 370.029 216.648 361.427 211.3 348.806C211.088 348.524 210.948 348.172 210.877 347.89C210.455 346.762 210.033 345.563 209.681 344.364C208.485 340.91 206.866 337.596 204.966 334.494C204.051 333.506 203.277 332.519 202.503 331.391V331.321V331.25C198.632 325.398 197.436 318.136 199.265 311.368C199.406 310.803 199.477 310.38 199.688 309.957Z" fill="#FF7751"/>
<path d="M361.339 370.029C361.832 369.253 362.184 368.407 362.606 367.631C362.958 366.785 363.31 366.01 363.591 365.164C364.224 363.542 364.717 361.85 365.139 360.087C365.984 356.633 366.476 353.178 366.617 349.652C366.828 346.057 366.617 342.461 366.195 338.865C365.702 335.128 364.717 331.462 363.169 327.936C360.706 322.649 354.513 320.392 349.305 322.86C346.56 324.129 344.449 326.597 343.604 329.488L343.323 330.545C342.549 333.436 342.056 336.327 341.634 339.217C341.282 342.108 341.001 345.07 340.719 348.101C340.508 351.063 340.367 354.165 340.508 357.267C340.578 358.818 340.649 360.369 340.789 361.991C340.93 363.613 341.212 365.234 341.564 366.856L341.704 367.349C343.112 373.131 348.953 376.586 354.724 375.176C357.468 374.33 359.861 372.567 361.339 370.029Z" fill="white"/>
<path d="M458.809 350.428C459.301 349.652 459.653 348.806 460.075 348.031C460.427 347.185 460.779 346.409 461.061 345.563C461.694 343.871 462.187 342.249 462.609 340.487C463.453 337.032 463.946 333.577 464.087 330.052C464.298 326.456 464.157 322.86 463.664 319.264C463.172 315.527 462.187 311.791 460.638 308.336C458.175 303.048 451.982 300.792 446.774 303.259C444.03 304.528 441.919 306.996 441.144 309.887L440.863 310.945C440.089 313.835 439.596 316.726 439.174 319.617C438.752 322.508 438.47 325.469 438.259 328.501C438.048 331.532 437.907 334.564 438.048 337.596C438.048 339.147 438.189 340.698 438.329 342.32C438.47 343.941 438.752 345.563 439.104 347.185L439.244 347.678C440.652 353.46 446.493 356.915 452.193 355.504C454.938 354.729 457.401 352.896 458.809 350.428Z" fill="white"/>
<path d="M347.194 361.004V360.581C347.194 360.44 347.264 360.228 347.264 360.087C347.334 359.735 347.405 359.453 347.475 359.1C347.545 358.818 347.686 358.536 347.757 358.254C347.827 358.043 347.968 357.761 348.038 357.549C348.108 357.338 348.249 357.056 348.39 356.915C348.601 356.562 348.812 356.21 349.023 355.927C349.234 355.645 349.446 355.363 349.657 355.081C350.36 354.165 350.22 353.53 349.586 352.473C349.164 351.768 348.742 351.063 348.46 350.287C348.39 350.075 348.32 349.864 348.249 349.652C348.179 349.441 348.108 349.229 348.038 348.947C347.897 348.383 347.757 347.749 347.757 347.185C347.686 346.48 347.757 345.845 347.897 345.14C347.968 344.788 348.038 344.576 348.108 344.294C348.179 344.012 348.249 343.8 348.39 343.518C348.953 342.249 349.727 341.121 350.712 340.064C350.923 339.852 351.064 339.641 351.205 339.5C352.049 338.583 351.627 338.089 351.275 337.455C351.205 337.314 351.135 337.173 351.064 337.032C350.994 336.891 350.783 336.538 350.642 336.256C350.501 335.974 350.36 335.692 350.22 335.34C349.868 334.494 349.727 333.648 349.727 332.731C349.446 331.109 350.501 329.558 352.19 329.206C352.401 329.206 352.612 329.135 352.753 329.135H352.894H353.105C355.99 329.417 359.72 332.237 361.48 336.961C361.55 337.102 361.62 337.243 361.691 337.455V337.525C361.691 337.596 361.691 337.596 361.761 337.666C361.832 337.807 361.832 337.948 361.902 338.089C362.395 339.782 362.183 341.685 361.269 343.166L361.198 343.307L361.057 343.589L360.917 343.8C360.635 344.364 360.354 344.858 360.072 345.281C359.58 346.057 359.58 347.044 360.143 347.749L360.565 348.454C360.706 348.736 360.846 348.947 361.057 349.3L361.339 349.793L361.62 350.357L361.761 350.64L361.902 350.992C361.972 351.204 362.043 351.486 362.113 351.768C362.183 352.05 362.254 352.402 362.254 352.684C362.254 352.825 362.324 352.966 362.324 353.178C362.324 353.389 362.324 353.53 362.324 353.742C362.324 354.094 362.324 354.447 362.254 354.799C362.183 355.152 362.113 355.434 362.043 355.786C361.972 356.069 361.902 356.351 361.761 356.633C361.691 356.915 361.55 357.126 361.409 357.408C361.198 357.831 360.987 358.254 360.706 358.607L360.354 359.1L360.002 359.523C359.58 360.017 359.157 360.44 358.735 360.863L357.961 361.568C357.328 362.132 356.835 362.555 357.257 363.895C357.328 364.106 357.398 364.247 357.398 364.459L357.539 364.882L357.679 365.305C357.75 365.587 357.82 365.939 357.891 366.292C358.102 367.279 358.031 368.266 357.82 369.253C357.539 370.734 356.272 371.862 354.794 371.862H354.724C354.653 371.862 354.513 371.862 354.442 371.862C354.372 371.862 354.301 371.862 354.301 371.862H354.231C354.09 371.862 353.95 371.791 353.879 371.791L353.668 371.721C350.994 370.734 347.686 366.574 347.264 361.78C347.264 361.709 347.264 361.709 347.264 361.638C347.264 361.568 347.194 361.286 347.194 361.004Z" fill="#0485CA"/>
<path d="M314.821 301.92C314.258 301.779 313.906 301.215 314.047 300.651C314.821 297.407 316.229 294.376 318.129 291.626C319.114 290.286 320.24 289.017 321.436 287.818L321.014 287.677C320.24 287.395 319.536 287.184 318.762 287.043C317.284 286.69 315.806 286.549 314.258 286.62C312.78 286.62 311.373 286.902 309.965 287.466C309.262 287.748 308.558 288.03 307.854 288.382C307.502 288.523 307.15 288.735 306.798 288.947C306.447 289.158 306.095 289.37 305.743 289.511L305.602 289.581C305.109 289.863 304.476 289.652 304.195 289.158C303.983 288.806 304.054 288.312 304.335 288.03C304.617 287.677 304.969 287.395 305.25 287.043C305.532 286.69 305.884 286.408 306.235 286.126L307.361 285.28C307.784 284.998 308.136 284.787 308.558 284.575C309.402 284.152 310.317 283.8 311.232 283.588C311.725 283.447 312.147 283.447 312.64 283.306C313.132 283.236 313.554 283.165 314.047 283.165C315.947 283.095 317.777 283.447 319.607 284.082C320.029 284.293 320.451 284.434 320.873 284.646C321.296 284.857 321.718 285.069 322.07 285.28C322.492 285.562 322.914 285.844 323.337 286.197C323.97 285.703 324.603 285.28 325.307 284.857C328.192 283.165 331.359 281.966 334.667 281.402C336.286 281.12 337.975 280.979 339.593 280.909C341.282 280.909 342.901 281.05 344.519 281.332C345.082 281.473 345.364 281.966 345.294 282.53C345.223 282.954 344.801 283.306 344.308 283.306H344.238C342.76 283.306 341.212 283.377 339.734 283.588C338.256 283.8 336.778 284.011 335.3 284.434C332.415 285.139 329.6 286.267 327.066 287.818C324.533 289.37 322.281 291.344 320.451 293.6C318.551 295.997 317.003 298.606 315.806 301.356C315.877 301.849 315.314 302.061 314.821 301.92Z" fill="#FFAF51"/>
<path d="M402.438 227.395H402.368C401.312 226.972 400.186 226.619 399.06 226.337C397.934 226.055 396.808 225.773 395.612 225.632C393.36 225.28 391.037 225.28 388.785 225.632C386.533 225.985 384.422 226.69 382.381 227.747C380.34 228.875 378.44 230.215 376.681 231.766C376.259 232.189 375.625 232.189 375.203 231.837C374.781 231.414 374.781 230.779 375.133 230.356C377.385 227.113 380.622 224.574 384.352 223.235C388.152 221.825 392.234 221.613 396.104 222.6C397.371 222.882 398.638 223.305 399.834 223.799C401.031 224.292 402.227 224.927 403.283 225.703C403.705 226.055 403.775 226.69 403.423 227.113C403.283 227.324 402.79 227.465 402.438 227.395Z" fill="#FFAF51"/>
<path d="M265.347 243.259C267.459 241.707 269.781 240.509 272.315 239.804C273.581 239.451 274.918 239.24 276.256 239.169C277.593 239.099 278.93 239.169 280.267 239.381C282.871 239.804 285.404 240.72 287.727 242.131C288.853 242.765 289.908 243.541 290.894 244.387C291.879 245.233 292.794 246.149 293.638 247.207C293.99 247.63 293.92 248.265 293.497 248.617C293.146 248.899 292.653 248.899 292.231 248.617L292.16 248.547C291.245 247.842 290.26 247.136 289.275 246.572C288.29 245.938 287.304 245.374 286.249 244.88C284.208 243.893 282.026 243.188 279.774 242.836C277.522 242.483 275.27 242.554 273.018 242.906C270.766 243.4 268.514 244.105 266.403 245.092C265.84 245.303 265.277 245.092 265.066 244.528C264.925 244.034 264.996 243.541 265.347 243.259Z" fill="#FFAF51"/>
<path d="M344.238 405.705C345.223 406.48 346.138 407.186 347.194 407.82C348.179 408.455 349.164 409.019 350.22 409.512C352.261 410.499 354.442 411.275 356.694 411.627C358.946 411.98 361.198 411.98 363.45 411.627C365.702 411.204 367.954 410.499 370.066 409.512C370.629 409.301 371.192 409.512 371.403 410.076C371.614 410.499 371.473 410.993 371.051 411.275C367.884 413.672 364.013 415.082 360.072 415.223C356.061 415.364 352.05 414.307 348.672 412.191C347.546 411.486 346.49 410.781 345.505 409.865C344.519 409.019 343.605 408.032 342.831 406.974C342.549 406.622 342.549 406.128 342.831 405.775C343.182 405.423 343.816 405.352 344.238 405.705Z" fill="#FFAF51"/>
<path d="M290.401 355.927C290.471 355.504 290.612 355.011 290.753 354.588L291.246 353.319C291.457 352.896 291.668 352.473 291.949 352.05C292.442 351.203 293.005 350.428 293.638 349.723C293.99 349.37 294.342 349.088 294.694 348.736C295.046 348.383 295.468 348.101 295.82 347.89C297.368 346.832 299.128 346.057 300.957 345.704C301.45 345.634 301.872 345.493 302.294 345.493C302.787 345.422 303.209 345.422 303.702 345.422C304.617 345.422 305.532 345.493 306.447 345.634C307.01 345.704 307.361 346.268 307.221 346.832C307.15 347.255 306.798 347.537 306.447 347.608H306.306C305.602 347.749 304.758 347.89 303.983 348.101C303.209 348.313 302.506 348.524 301.731 348.736C300.324 349.229 298.987 349.934 297.72 350.78C296.453 351.627 295.398 352.614 294.483 353.812C293.99 354.447 293.568 355.081 293.216 355.716C293.005 356.068 292.794 356.421 292.653 356.773C292.442 357.126 292.301 357.479 292.09 357.831L292.02 357.972C291.738 358.466 291.105 358.677 290.612 358.395C290.26 358.184 290.049 357.761 290.12 357.338C290.26 356.844 290.331 356.35 290.401 355.927Z" fill="#FFAF51"/>
<path d="M417.78 262.648H417.639C417.217 262.648 416.795 262.366 416.654 262.013C416.443 261.449 416.724 260.885 417.217 260.674C417.639 260.533 418.061 260.321 418.484 260.18C418.906 260.039 419.328 259.898 419.821 259.828L421.228 259.616C421.721 259.546 422.143 259.546 422.636 259.546C423.621 259.546 424.536 259.616 425.451 259.828C425.943 259.898 426.366 260.11 426.788 260.251C427.21 260.392 427.703 260.533 428.125 260.744C429.814 261.52 431.362 262.648 432.629 264.058C432.911 264.41 433.262 264.763 433.544 265.116C433.825 265.468 434.107 265.821 434.318 266.244C434.811 267.019 435.233 267.865 435.514 268.711C435.726 269.205 435.514 269.839 435.022 270.051C434.6 270.262 434.107 270.121 433.825 269.698L433.755 269.628C433.262 269.064 432.77 268.429 432.207 267.936C431.644 267.442 431.081 266.808 430.518 266.314C429.392 265.327 428.055 264.481 426.718 263.917C425.38 263.282 423.903 262.859 422.425 262.718C421.651 262.648 420.876 262.577 420.102 262.577C419.68 262.577 419.328 262.577 418.906 262.648C418.554 262.577 418.202 262.648 417.78 262.648Z" fill="#FFAF51"/>
<path d="M359.932 209.98H359.791C359.298 210.05 358.665 210.121 358.102 210.191C357.539 210.262 356.976 210.403 356.413 210.544C355.357 210.826 354.372 211.178 353.387 211.672C353.176 211.813 352.894 211.883 352.683 212.095C352.472 212.236 352.261 212.377 352.05 212.518L351.416 213.011C351.275 213.082 351.205 213.152 351.135 213.293L350.853 213.575C350.642 213.787 350.431 213.998 350.22 214.21C350.924 214.492 351.627 214.774 352.331 215.197C352.753 215.409 353.105 215.62 353.527 215.902C353.95 216.184 354.302 216.396 354.653 216.748C355.357 217.312 356.061 218.017 356.624 218.722C356.906 219.075 356.905 219.498 356.694 219.851C356.413 220.344 355.779 220.485 355.357 220.203L355.217 220.133C354.583 219.78 353.879 219.286 353.176 219.004C352.472 218.652 351.768 218.299 351.064 218.017C349.657 217.453 348.179 217.101 346.701 216.889C345.223 216.678 343.745 216.748 342.267 217.101C341.493 217.242 340.79 217.453 340.086 217.665C339.734 217.806 339.312 217.947 338.96 218.088C338.608 218.229 338.186 218.37 337.834 218.511L337.693 218.581C337.13 218.793 336.567 218.511 336.356 217.947C336.215 217.524 336.356 217.101 336.637 216.819C336.989 216.537 337.341 216.255 337.693 215.973C338.045 215.691 338.467 215.409 338.819 215.197L340.086 214.563C340.508 214.351 340.93 214.21 341.423 214.069C342.338 213.787 343.253 213.575 344.168 213.434C344.66 213.364 345.153 213.434 345.575 213.364C346.068 213.364 346.56 213.364 346.983 213.434L347.264 213.505C347.264 213.505 347.264 213.434 347.334 213.434C347.616 212.8 347.968 212.165 348.39 211.601C348.812 211.037 349.305 210.473 349.868 209.98C350.431 209.486 351.064 209.063 351.698 208.781C352.965 208.076 354.372 207.723 355.85 207.582C356.554 207.512 357.257 207.582 357.961 207.653C358.665 207.723 359.369 207.864 360.072 208.146C360.565 208.358 360.847 208.922 360.635 209.416C360.565 209.698 360.283 209.98 359.932 209.98Z" fill="#FFAF51"/>
<path d="M250.498 284.293C250.569 283.941 250.709 283.588 250.85 283.306C251.132 282.671 251.484 282.037 251.976 281.473C252.398 280.909 252.891 280.345 253.454 279.851C254.017 279.358 254.65 278.935 255.284 278.653C256.551 277.948 257.958 277.595 259.436 277.454C260.14 277.384 260.843 277.384 261.547 277.525C262.251 277.595 262.955 277.807 263.658 278.018C264.01 278.159 264.221 278.441 264.292 278.794C264.362 279.358 264.01 279.851 263.447 279.922H263.307C262.814 279.992 262.181 280.063 261.618 280.133C261.055 280.274 260.492 280.345 259.929 280.486C258.873 280.768 257.888 281.12 256.902 281.614C256.691 281.755 256.41 281.825 256.199 282.037C255.988 282.178 255.776 282.319 255.565 282.46L254.932 282.954C254.791 283.024 254.721 283.095 254.65 283.236L254.369 283.518C253.947 283.87 253.595 284.293 253.243 284.716C252.891 285.139 252.61 285.633 252.187 286.126L252.047 286.267C251.765 286.549 251.413 286.69 251.061 286.549C250.498 286.408 250.146 285.844 250.287 285.28C250.287 284.928 250.428 284.575 250.498 284.293Z" fill="#FFAF51"/>
<path d="M224.178 348.101C224.319 347.396 224.6 346.691 224.882 346.057C225.163 345.563 225.726 345.352 226.219 345.634C226.571 345.775 226.712 346.127 226.782 346.48V346.621C226.782 347.114 226.782 347.749 226.782 348.313C226.782 348.877 226.852 349.441 226.923 350.005C227.064 351.062 227.345 352.12 227.697 353.107C227.767 353.389 227.908 353.601 227.978 353.812C228.119 354.024 228.19 354.306 228.33 354.517L228.753 355.222C228.823 355.363 228.893 355.434 228.964 355.575L229.175 355.927C229.527 356.35 229.879 356.774 230.23 357.197C230.582 357.62 231.075 357.972 231.497 358.395L231.638 358.536C232.06 358.959 231.99 359.594 231.568 360.017C231.286 360.299 230.864 360.369 230.512 360.228C230.16 360.087 229.879 360.017 229.527 359.876C229.175 359.735 228.893 359.594 228.612 359.382C227.978 359.03 227.415 358.607 226.923 358.113C226.36 357.62 225.867 357.056 225.515 356.421C225.093 355.786 224.741 355.152 224.53 354.447C224.037 353.107 223.756 351.627 223.826 350.146C223.897 349.511 224.037 348.736 224.178 348.101Z" fill="#FFAF51"/>
<path d="M382.803 309.605C383.015 309.323 383.226 309.041 383.437 308.759C383.929 308.195 384.422 307.701 384.985 307.278C385.548 306.855 386.181 306.432 386.885 306.15C387.589 305.868 388.293 305.657 388.997 305.516C390.404 305.234 391.882 305.234 393.289 305.586C393.993 305.727 394.627 305.939 395.33 306.221C395.964 306.503 396.597 306.855 397.16 307.278C397.582 307.631 397.723 308.265 397.371 308.688C397.16 308.97 396.808 309.111 396.456 309.111H396.316C395.823 309.041 395.19 308.9 394.627 308.829C394.064 308.759 393.5 308.688 392.937 308.688C391.882 308.618 390.756 308.688 389.7 308.9C389.419 308.97 389.208 308.97 388.926 309.111C388.715 309.182 388.433 309.252 388.152 309.323L387.448 309.605C387.307 309.675 387.167 309.675 387.096 309.746L386.744 309.957C386.252 310.239 385.759 310.522 385.337 310.804C384.844 311.086 384.422 311.509 383.929 311.791L383.789 311.861C383.296 312.143 382.663 312.002 382.381 311.509C382.17 311.156 382.17 310.804 382.381 310.451C382.381 310.239 382.592 309.887 382.803 309.605Z" fill="#FFAF51"/>
<path d="M328.896 412.332C329.389 412.05 329.952 412.191 330.233 412.685L330.304 412.826C330.585 413.249 330.867 413.813 331.148 414.307C331.43 414.8 331.781 415.294 332.133 415.717C332.767 416.563 333.541 417.338 334.385 418.043C334.596 418.255 334.808 418.396 335.019 418.537C335.23 418.678 335.441 418.819 335.652 418.96L336.356 419.313C336.497 419.383 336.567 419.454 336.708 419.454L337.06 419.595C337.552 419.806 338.045 420.018 338.608 420.159C339.171 420.37 339.734 420.441 340.297 420.652L340.508 420.723C341.071 420.934 341.352 421.498 341.141 422.062C341.001 422.415 340.719 422.697 340.367 422.767C340.015 422.838 339.663 422.838 339.312 422.908C338.96 422.979 338.608 422.979 338.256 422.979C337.552 422.979 336.848 422.838 336.145 422.697C335.441 422.556 334.737 422.274 334.104 421.921C332.133 420.934 330.585 419.313 329.6 417.338C329.248 416.704 329.037 416.069 328.826 415.364C328.615 414.659 328.544 413.954 328.474 413.249C328.474 412.897 328.615 412.544 328.896 412.332Z" fill="#FFAF51"/>
<path d="M295.186 384.835C295.257 384.483 295.398 384.13 295.538 383.848C295.82 383.213 296.172 382.579 296.664 382.015C297.087 381.451 297.579 380.887 298.142 380.393C298.705 379.9 299.339 379.477 299.972 379.195C301.239 378.489 302.646 378.137 304.124 377.996C304.828 377.925 305.532 377.925 306.235 378.066H306.446C306.446 377.15 306.446 376.233 306.517 375.317C306.869 372.708 307.643 370.17 308.91 367.773C309.543 366.644 310.247 365.516 311.021 364.459C311.795 363.401 312.71 362.414 313.695 361.568C314.117 361.215 314.751 361.286 315.103 361.709C315.384 362.062 315.384 362.555 315.173 362.908L315.103 362.978C314.399 363.895 313.836 364.882 313.202 365.939C312.639 366.926 312.076 367.984 311.654 369.042C310.739 371.157 310.176 373.343 309.895 375.599C309.684 377.855 309.754 380.111 310.247 382.297C310.81 384.553 311.654 386.739 312.71 388.854C312.991 389.347 312.71 389.982 312.217 390.264C311.795 390.476 311.302 390.335 310.95 389.982C309.261 387.937 307.995 385.611 307.221 383.143C306.939 382.297 306.728 381.451 306.587 380.534C306.446 380.534 306.306 380.605 306.165 380.605C305.602 380.675 305.039 380.816 304.476 380.957C303.42 381.239 302.435 381.592 301.45 382.085C301.239 382.226 300.957 382.297 300.746 382.508C300.535 382.649 300.324 382.79 300.113 382.931L299.479 383.425C299.339 383.495 299.268 383.566 299.198 383.707L298.916 383.989C298.494 384.342 298.142 384.765 297.79 385.188C297.438 385.611 297.157 386.104 296.735 386.598L296.594 386.739C296.312 387.021 295.961 387.162 295.609 387.021C295.046 386.88 294.694 386.316 294.835 385.752C295.046 385.47 295.116 385.117 295.186 384.835Z" fill="#FFAF51"/>
<path d="M356.202 342.672C355.779 342.954 355.427 343.307 355.076 343.73C354.724 344.153 354.442 344.646 354.231 345.14C353.738 346.198 353.598 347.396 353.809 348.524C354.02 349.582 354.442 350.639 355.146 351.486C355.498 351.909 355.85 352.261 356.272 352.543C356.694 352.896 357.116 353.107 357.609 353.319C358.172 353.53 358.735 353.319 358.946 352.755C359.087 352.473 359.087 352.191 358.946 351.909L358.805 351.627C358.665 351.345 358.383 350.992 358.242 350.639C358.031 350.287 357.891 350.005 357.75 349.652C357.468 349.088 357.257 348.454 357.116 347.819C356.976 347.255 356.976 346.621 357.116 345.986C357.187 345.634 357.257 345.281 357.328 344.999C357.398 344.646 357.539 344.294 357.679 343.871L357.75 343.659C357.891 343.095 357.539 342.602 356.976 342.461C356.765 342.39 356.483 342.461 356.202 342.672Z" fill="white"/>
<path d="M354.864 336.186C354.864 336.538 354.935 336.891 355.076 337.243C355.216 337.525 355.357 337.807 355.498 338.16C355.639 338.442 355.85 338.724 356.061 338.935C356.272 339.218 356.553 339.5 356.905 339.711L357.046 339.852C357.609 340.205 358.313 340.134 358.735 339.57C358.805 339.5 358.876 339.359 358.876 339.288C359.017 338.794 359.087 338.301 358.946 337.807C358.876 337.314 358.665 336.891 358.454 336.468C358.242 336.045 357.891 335.692 357.539 335.41C357.116 335.058 356.694 334.846 356.131 334.776C355.568 334.635 355.005 334.987 354.864 335.551C354.864 335.622 354.864 335.692 354.864 335.763V336.186Z" fill="white"/>
<path d="M446.352 341.403V340.98C446.352 340.839 446.352 340.628 446.422 340.487C446.493 340.134 446.563 339.782 446.634 339.5C446.704 339.217 446.845 338.935 446.915 338.653C446.985 338.442 447.126 338.16 447.197 337.948C447.267 337.737 447.408 337.525 447.548 337.314C447.76 336.961 447.971 336.609 448.182 336.327C448.393 336.045 448.604 335.763 448.815 335.481C449.519 334.564 449.378 333.93 448.745 332.872C448.323 332.167 447.9 331.462 447.619 330.686C447.548 330.475 447.478 330.263 447.408 330.052C447.337 329.84 447.267 329.629 447.197 329.347C447.056 328.783 446.915 328.148 446.915 327.584C446.845 326.879 446.915 326.244 447.056 325.539C447.126 325.257 447.197 324.975 447.267 324.693C447.337 324.411 447.408 324.2 447.548 323.918C448.111 322.649 448.886 321.52 449.871 320.463L450.363 319.899V319.828C451.208 318.912 450.786 318.418 450.434 317.784C450.363 317.643 450.293 317.502 450.223 317.361C450.152 317.22 449.941 316.867 449.8 316.585C449.66 316.303 449.519 316.021 449.378 315.598C449.026 314.752 448.886 313.906 448.815 312.989C448.604 311.297 449.8 309.675 451.489 309.464C451.63 309.464 451.701 309.464 451.841 309.464H451.982H452.193C455.079 309.746 458.808 312.566 460.568 317.29C460.638 317.431 460.709 317.572 460.779 317.784V317.854C460.779 317.925 460.779 317.925 460.849 317.995C460.92 318.136 460.92 318.277 460.99 318.418C461.483 320.11 461.272 322.014 460.357 323.495L460.286 323.636L460.146 323.918L460.005 324.129C459.723 324.693 459.442 325.187 459.16 325.61C458.668 326.385 458.668 327.372 459.231 328.077L459.653 328.783C459.794 329.065 459.934 329.276 460.146 329.629L460.427 330.122L460.709 330.686L460.849 330.968L460.99 331.321C461.06 331.603 461.131 331.814 461.201 332.096C461.272 332.378 461.342 332.731 461.342 333.013C461.342 333.154 461.412 333.295 461.412 333.506C461.412 333.718 461.412 333.859 461.412 334.071C461.412 334.423 461.412 334.776 461.342 335.128C461.272 335.481 461.201 335.763 461.131 336.115C461.06 336.397 460.99 336.679 460.849 336.961C460.779 337.243 460.638 337.455 460.497 337.737C460.286 338.16 460.075 338.583 459.794 338.935L459.442 339.429L459.09 339.852C458.738 340.346 458.316 340.769 457.823 341.192C457.542 341.474 457.26 341.685 457.049 341.897C456.416 342.461 455.923 342.884 456.345 344.294C456.416 344.505 456.486 344.646 456.486 344.858L456.627 345.281L456.768 345.704C456.838 345.986 456.908 346.339 456.979 346.691C457.19 347.678 457.119 348.665 456.908 349.652C456.627 351.133 455.36 352.261 453.882 352.261H453.812C453.741 352.261 453.601 352.261 453.53 352.261C453.46 352.261 453.39 352.261 453.39 352.261H453.319C453.178 352.261 453.038 352.191 452.967 352.191L452.756 352.12C450.082 351.133 446.774 346.973 446.422 342.179C446.422 342.108 446.422 342.108 446.422 342.038C446.352 341.967 446.352 341.685 446.352 341.403Z" fill="#0485CA"/>
<path d="M455.36 323.072C454.938 323.354 454.586 323.706 454.234 324.129C453.178 325.469 452.686 327.161 453.038 328.853C453.249 329.911 453.671 330.968 454.375 331.814C454.727 332.237 455.078 332.59 455.501 332.872C455.923 333.224 456.345 333.436 456.838 333.648C457.401 333.859 457.964 333.647 458.175 333.083C458.316 332.801 458.316 332.519 458.175 332.237L458.034 331.955C457.893 331.673 457.682 331.321 457.471 330.968C457.26 330.616 457.119 330.334 456.979 329.981C456.697 329.417 456.486 328.783 456.345 328.148C456.204 327.584 456.204 326.949 456.345 326.315C456.416 325.962 456.486 325.61 456.556 325.328C456.627 324.975 456.767 324.623 456.908 324.2L456.979 323.988C457.049 323.424 456.697 322.931 456.204 322.79C455.853 322.79 455.571 322.931 455.36 323.072Z" fill="white"/>
<path d="M453.953 316.585C453.953 316.938 454.023 317.29 454.164 317.643C454.304 317.925 454.445 318.277 454.586 318.559C454.727 318.841 454.938 319.123 455.149 319.335C455.36 319.617 455.642 319.899 455.993 320.11L456.205 320.251C456.768 320.604 457.471 320.533 457.894 319.969C457.964 319.899 458.034 319.758 458.034 319.687C458.175 319.194 458.245 318.7 458.105 318.207C458.034 317.713 457.823 317.29 457.612 316.867C457.401 316.444 457.049 316.091 456.697 315.809C456.275 315.457 455.853 315.245 455.29 315.175C454.727 315.034 454.164 315.386 454.023 315.95C454.023 316.021 454.023 316.091 454.023 316.162L453.953 316.585Z" fill="white"/>
<path d="M400.679 398.161H400.89C401.664 398.161 402.368 398.302 403.072 398.372C403.775 398.443 404.479 398.513 405.183 398.513C406.52 398.584 407.927 398.584 409.265 398.513C410.602 398.443 411.939 398.231 413.276 397.879C413.557 397.808 413.909 397.738 414.191 397.667C413.628 397.315 413.135 396.892 412.643 396.398C412.009 395.834 411.446 395.199 410.954 394.494C410.672 394.142 410.461 393.789 410.25 393.437C410.039 393.084 409.757 392.661 409.616 392.238C409.335 391.533 409.687 390.757 410.391 390.546C410.954 390.334 411.517 390.546 411.939 390.969L412.009 391.04C412.22 391.322 412.361 391.604 412.572 391.815C412.783 392.097 412.994 392.379 413.276 392.591C413.769 393.084 414.261 393.578 414.824 394.001C415.88 394.847 417.076 395.481 418.413 395.975C419.68 396.398 421.088 396.609 422.425 396.609C423.762 396.609 425.099 396.468 426.366 396.045C427.351 395.763 428.195 395.058 428.688 394.142C429.181 393.014 429.462 391.815 429.533 390.546L429.321 389.559C429.321 389.136 429.392 388.713 429.392 388.219C429.462 387.303 429.673 386.457 429.884 385.54C430.377 383.777 431.292 382.156 432.418 380.675C433.474 379.335 434.67 378.137 435.937 377.009C436.218 376.727 436.57 376.445 436.852 376.233L437.274 375.81C437.415 375.74 437.485 375.669 437.555 375.528C437.907 375.176 438.118 374.823 438.329 374.4C438.681 373.413 438.681 372.355 438.329 371.439C437.907 370.452 437.203 369.606 436.289 369.042C435.233 368.478 434.037 368.125 432.77 368.125C431.433 368.125 430.025 368.266 428.688 368.619C425.873 369.394 423.128 370.593 420.595 372.073C419.891 372.426 419.047 372.144 418.695 371.509C418.343 370.875 418.554 370.17 419.117 369.747C420.736 368.548 422.495 367.49 424.325 366.574C424.254 366.503 424.254 366.503 424.184 366.433C423.903 366.01 423.48 365.587 423.128 365.164C422.425 364.318 421.58 363.472 420.806 362.696C419.962 361.85 419.117 361.074 418.202 360.228C417.71 359.805 417.287 359.382 416.865 358.959C416.372 358.536 415.95 358.113 415.528 357.62L415.458 357.549C414.965 356.914 415.106 355.998 415.669 355.504C416.021 355.222 416.443 355.152 416.865 355.222C417.498 355.434 418.202 355.645 418.836 355.927C419.469 356.209 420.102 356.491 420.665 356.844C421.862 357.549 422.988 358.466 423.973 359.453C425.029 360.44 425.873 361.638 426.577 362.908C426.718 363.26 426.929 363.542 427.069 363.895C427.21 364.247 427.351 364.6 427.421 364.952L427.492 365.234L427.632 365.164C429.251 364.6 431.01 364.318 432.699 364.247C434.6 364.177 436.5 364.6 438.189 365.446C440.018 366.362 441.426 367.913 442.27 369.817C443.115 371.791 443.185 373.977 442.482 375.951C442.13 377.009 441.567 377.925 440.793 378.701C440.581 378.912 440.37 379.124 440.23 379.265L439.807 379.617C439.526 379.829 439.244 380.111 438.963 380.393C437.907 381.31 436.922 382.367 436.007 383.495C435.233 384.482 434.6 385.611 434.248 386.809C434.037 387.444 433.966 388.078 433.896 388.713C433.825 389.065 433.825 389.418 433.825 389.7L433.755 390.898C433.614 392.802 433.122 394.635 432.277 396.257C431.714 397.174 431.01 397.949 430.166 398.584C429.321 399.148 428.407 399.641 427.421 399.923C425.732 400.417 423.903 400.558 422.143 400.417C420.736 400.346 419.399 400.064 418.061 399.641L417.921 399.782C417.569 400.064 417.217 400.276 416.865 400.558C416.161 401.051 415.387 401.474 414.613 401.756C411.446 403.096 407.857 403.449 404.479 402.603C403.635 402.391 402.86 402.179 402.086 401.827C401.312 401.474 400.608 401.051 399.905 400.628C399.271 400.205 399.06 399.359 399.482 398.725C399.694 398.443 400.186 398.231 400.679 398.161Z" fill="#022B42"/>
<path d="M419.469 382.649C420.665 379.618 423.128 377.291 426.155 376.163C427.351 375.74 428.618 376.445 429.04 377.643C429.251 378.348 429.11 379.194 428.688 379.759C427.21 381.662 427.21 382.015 427.281 382.579C427.351 383.495 427.281 384.412 427.14 385.329C426.858 387.021 425.592 388.431 423.903 388.924C423.551 388.995 423.199 389.065 422.847 389.065C421.791 389.065 420.736 388.642 420.032 387.867C419.469 387.303 418.343 385.611 419.469 382.649Z" fill="#022B42"/>
<path d="M273.441 220.203C270.978 220.415 268.514 220.415 266.122 220.344C265.277 220.274 263.588 220.203 262.673 220.062C266.685 219.921 270.626 218.793 274.144 216.819C278.297 216.396 283.223 215.832 287.375 215.197C292.16 214.422 297.016 213.928 301.872 213.716C304.335 213.646 306.869 213.716 309.332 213.998C311.865 214.281 314.399 214.845 316.792 215.691C317.988 216.184 319.184 216.748 320.31 217.383L321.155 217.876L321.929 218.37C322.422 218.722 322.985 219.075 323.477 219.427C325.518 220.838 327.418 222.318 329.318 223.94C331.219 225.562 332.978 227.183 334.737 228.946C336.426 230.708 338.115 232.471 339.734 234.234C341.282 235.926 342.901 237.548 344.731 238.958C346.42 240.297 348.32 241.425 350.361 242.13C354.442 243.682 359.017 243.964 363.661 243.823L365.421 243.752C366.054 243.752 366.688 243.682 367.321 243.682C368.658 243.682 369.925 243.752 371.192 243.964C376.61 244.598 381.537 247.559 384.704 252.001C386.181 254.117 387.448 256.302 388.504 258.699C390.545 263.282 391.952 267.865 393.712 272.166C395.471 276.467 397.582 280.556 400.608 283.8C401.382 284.575 402.157 285.351 403.001 286.056L404.409 287.113C404.901 287.466 405.394 287.889 405.886 288.242C407.857 289.863 409.616 291.626 411.305 293.529C412.924 295.433 414.402 297.548 415.528 299.805C416.654 302.061 417.569 304.458 418.202 306.926C418.765 309.393 419.117 311.861 419.258 314.399C419.328 316.867 419.328 319.335 419.117 321.802C418.695 326.667 417.991 331.462 417.006 336.186C416.865 336.891 416.232 337.384 415.457 337.243C414.754 337.102 414.261 336.468 414.402 335.692C414.754 333.295 415.106 330.968 415.387 328.571C415.669 326.174 415.88 323.847 416.02 321.52C416.232 316.867 416.02 312.143 414.824 307.772C414.261 305.586 413.417 303.471 412.361 301.497C411.305 299.523 409.968 297.689 408.49 295.997C406.942 294.305 405.323 292.754 403.494 291.344C403.071 290.991 402.579 290.639 402.157 290.286L400.679 289.229C399.623 288.453 398.638 287.607 397.793 286.62C396.034 284.787 394.486 282.672 393.219 280.486C391.952 278.3 390.897 276.044 389.911 273.788C388.011 269.275 386.533 264.692 384.633 260.462C383.718 258.417 382.663 256.443 381.326 254.681C380.129 252.988 378.511 251.578 376.751 250.45C374.921 249.393 372.881 248.758 370.84 248.476C369.784 248.335 368.658 248.265 367.602 248.265C367.039 248.265 366.476 248.265 365.913 248.265L364.084 248.335C361.621 248.406 359.087 248.335 356.624 248.053C354.02 247.771 351.487 247.207 349.094 246.361C346.631 245.444 344.308 244.105 342.267 242.412C340.367 240.791 338.538 239.028 336.919 237.195C333.822 233.67 330.515 230.285 326.996 227.113C325.237 225.562 323.407 224.151 321.507 222.741C321.014 222.389 320.522 222.036 320.099 221.754L319.396 221.261L318.692 220.838C317.777 220.274 316.792 219.78 315.806 219.427C311.725 217.806 307.08 217.453 302.435 217.524C297.79 217.594 293.075 218.158 288.29 218.722C283.082 219.216 278.297 219.921 273.441 220.203Z" fill="#FFAF51"/>
<path d="M123.612 184.104C124.738 177.97 130.579 173.951 136.632 175.009C138.039 175.291 139.376 175.784 140.573 176.56C140.784 176.701 140.995 176.842 141.206 176.983L141.487 177.124L142.05 177.476C139.658 171.342 142.754 164.433 148.877 162.035C152.396 160.696 156.337 161.048 159.503 163.022C159.715 163.163 159.996 163.304 160.207 163.445L160.489 163.657L161.052 164.01L161.967 164.644L162.741 165.208C162.741 165.067 162.67 164.926 162.67 164.785C162.67 164.644 162.6 164.574 162.6 164.433C162.6 164.292 162.53 164.08 162.53 163.939C161.755 157.17 166.611 151.107 173.367 150.331C176.393 149.979 179.349 150.754 181.812 152.517C182.023 152.658 182.305 152.87 182.516 153.011L182.798 153.222L183.361 153.645L184.275 154.35L184.979 154.985C185.19 155.196 185.472 155.408 185.683 155.619C186.105 156.042 186.457 156.465 186.879 156.818L187.935 158.087C188.287 158.51 188.568 158.863 188.85 159.286C189.131 159.709 189.413 160.132 189.694 160.484L190.398 161.683C190.539 161.894 190.609 162.106 190.75 162.317L191.031 162.881C192.58 165.913 193.706 169.156 194.409 172.541C194.621 173.316 194.761 174.092 194.832 174.938C194.902 175.714 195.043 176.489 195.113 177.265C195.254 178.675 195.254 180.014 195.254 181.354C195.817 181.707 196.38 182.059 196.943 182.412C198.21 183.328 199.406 184.315 200.462 185.514C200.954 186.078 201.447 186.713 201.94 187.347C202.362 187.982 202.784 188.616 203.136 189.321C204.403 191.718 205.318 194.327 205.74 197.006C206.092 199.192 206.162 201.448 205.951 203.634C205.951 204.128 205.881 204.621 205.81 205.115C205.74 205.82 205.669 206.525 205.458 207.23V207.3C205.318 208.005 205.177 208.71 205.036 209.345C204.825 210.262 204.543 211.108 204.262 212.024C204.121 212.447 203.98 212.941 203.769 213.364L203.488 214.069L203.066 214.986C202.784 215.691 202.432 216.325 202.01 216.96C197.576 226.055 192.65 228.805 195.887 236.842C229.667 300.369 269.007 328.853 269.429 329.206C272.737 331.885 274.285 339.993 271.329 347.044C266.755 358.113 255.776 353.46 253.454 351.768C251.484 350.357 209.962 320.322 173.719 254.046C173.578 253.764 173.367 253.411 173.227 253.129C171.889 250.591 170.482 248.053 169.145 245.444C163.515 235.503 162.53 238.464 149.862 231.131C135.787 222.812 119.038 200.955 123.612 184.104Z" fill="#022B42"/>
<path d="M127.905 196.936C128.327 196.583 128.961 196.654 129.313 197.077C130.298 198.276 131.142 199.545 131.987 200.814C132.761 202.083 133.535 203.423 134.309 204.762C135.646 207.371 137.124 209.909 138.743 212.377C139.446 213.434 140.361 214.351 141.417 215.056C143.528 216.325 146.132 216.325 148.314 215.197C149.369 214.633 150.284 213.787 150.918 212.729C151.27 212.236 151.481 211.672 151.692 211.037C151.762 210.755 151.903 210.473 151.903 210.121C151.973 209.768 152.044 209.416 152.114 209.063C152.255 208.358 152.325 207.653 152.396 206.948C152.466 206.595 152.466 206.243 152.466 205.89C152.466 205.538 152.536 205.185 152.536 204.833C152.607 203.423 152.536 201.942 152.466 200.532C152.325 199.122 152.184 197.641 151.903 196.231C150.847 190.59 148.525 185.161 144.654 180.861C144.232 180.438 144.232 179.803 144.654 179.38C145.077 178.957 145.71 178.957 146.132 179.38C147.258 180.438 148.314 181.566 149.299 182.835C149.792 183.469 150.214 184.104 150.636 184.738C151.058 185.373 151.481 186.078 151.833 186.783C153.31 189.533 154.366 192.494 154.999 195.596C155.281 196.724 155.422 197.923 155.562 199.051C155.633 199.122 155.633 199.192 155.703 199.192C156.337 200.179 156.97 201.166 157.744 202.083C158.448 202.929 159.222 203.634 160.137 204.128C161.967 205.115 164.078 205.397 166.048 204.833C168.511 204.128 170.482 202.294 171.256 199.897C171.397 199.404 171.538 198.84 171.678 198.346C171.819 197.641 171.96 197.006 172.03 196.301C171.819 196.09 171.678 195.878 171.467 195.667C169.919 193.693 169.074 191.154 169.074 188.616C169.074 186.36 169.848 184.174 171.115 182.412C171.045 181.989 170.904 181.566 170.834 181.143C169.708 176.56 167.597 172.329 164.711 168.663C164.359 168.24 164.43 167.605 164.922 167.253C165.344 166.971 165.837 166.971 166.189 167.323C167.948 169.157 169.497 171.131 170.763 173.316C171.96 175.432 172.945 177.617 173.719 179.944C175.056 179.027 176.534 178.393 178.082 177.97C180.334 177.406 182.586 177.194 184.909 177.335C186.035 177.406 187.161 177.547 188.287 177.758C189.413 177.97 190.468 178.252 191.524 178.675C192.017 178.886 192.298 179.45 192.157 179.944C192.017 180.438 191.454 180.72 190.961 180.579C189.976 180.367 188.99 180.226 187.935 180.156C186.95 180.085 185.894 180.085 184.909 180.085C182.868 180.156 180.897 180.438 178.997 181.002C177.238 181.495 175.619 182.482 174.353 183.892C173.227 185.232 172.593 186.924 172.523 188.687C172.523 190.449 173.086 192.212 174.141 193.693C174.634 194.398 175.338 195.032 176.041 195.526C176.393 195.808 176.816 196.019 177.168 196.16C177.59 196.372 178.082 196.513 178.575 196.724C179.068 196.936 179.56 197.077 180.194 197.359C180.546 197.5 180.827 197.712 181.108 197.853C181.531 198.135 181.883 198.487 182.094 198.981C182.305 199.404 182.446 199.827 182.446 200.32C182.446 200.673 182.446 201.025 182.375 201.378C182.305 201.66 182.234 202.012 182.164 202.224L182.094 202.647L181.953 203.07C181.601 204.128 181.32 205.115 181.038 206.102C180.757 207.089 180.616 208.146 180.475 209.134C180.405 209.698 179.842 210.121 179.279 209.98C178.786 209.909 178.364 209.416 178.364 208.922C178.434 207.794 178.575 206.666 178.786 205.608C178.997 204.48 179.279 203.423 179.49 202.435L179.56 202.083L179.631 201.73C179.631 201.448 179.701 201.237 179.701 201.025C179.771 200.602 179.631 200.32 179.631 200.25C179.631 200.179 179.631 200.25 179.56 200.179C179.419 200.109 179.208 200.038 179.068 199.968C178.645 199.827 178.153 199.686 177.59 199.545C177.027 199.404 176.534 199.192 175.971 198.981C175.69 198.84 175.408 198.769 175.127 198.628C175.127 198.769 175.056 198.981 175.056 199.122C174.916 199.756 174.704 200.461 174.493 201.096C174.282 201.801 173.93 202.435 173.578 203.07C171.326 206.877 166.963 208.852 162.6 208.076C161.192 207.794 159.855 207.3 158.729 206.525C157.603 205.749 156.688 204.833 155.914 203.705C155.914 204.128 155.914 204.551 155.914 204.974C155.914 205.397 155.914 205.749 155.844 206.172C155.774 206.595 155.844 206.948 155.774 207.371C155.703 208.146 155.562 208.922 155.492 209.698C155.422 210.121 155.351 210.473 155.281 210.826C155.21 211.249 155.07 211.672 154.929 212.095C154.647 212.941 154.225 213.716 153.803 214.492C152.818 216.043 151.481 217.242 149.932 218.088C146.695 219.78 142.825 219.639 139.728 217.735C138.321 216.748 137.054 215.479 136.209 213.998C134.591 211.39 133.183 208.711 131.916 205.89C131.283 204.551 130.65 203.211 129.946 201.942C129.242 200.673 128.468 199.404 127.694 198.205C127.412 197.712 127.553 197.218 127.905 196.936Z" fill="#0485CA"/>
<path d="M184.557 182.553C177.519 182.412 176.393 190.167 184.064 190.167C189.272 190.167 188.568 182.623 184.557 182.553Z" fill="#0485CA"/>
<path d="M159.715 195.667C161.474 201.096 169.145 199.333 167.034 193.481C165.626 189.533 158.729 192.565 159.715 195.667Z" fill="#0485CA"/>
<path d="M140.854 206.313C141.487 211.954 149.369 211.742 148.455 205.679C147.892 201.448 140.502 203.07 140.854 206.313Z" fill="#0485CA"/>
<path d="M140.08 182.13C139.306 182.059 138.461 182.13 137.687 182.341C136.913 182.553 136.139 182.835 135.506 183.187C134.802 183.54 134.168 184.033 133.605 184.597C133.042 185.161 132.55 185.796 132.198 186.571C131.916 187.136 132.198 187.77 132.691 188.052C132.972 188.193 133.254 188.193 133.535 188.052L133.605 187.982C134.239 187.7 134.872 187.418 135.435 187.136L137.124 186.219C137.687 185.866 138.25 185.584 138.813 185.232C139.376 184.879 139.939 184.527 140.502 184.104L140.643 183.963C141.065 183.61 141.136 182.976 140.784 182.482C140.643 182.341 140.361 182.2 140.08 182.13Z" fill="#0485CA"/>
<path d="M177.168 154.28C176.605 154.068 175.971 154.068 175.338 154.139C174.775 154.209 174.141 154.35 173.649 154.562C173.086 154.773 172.593 155.126 172.171 155.478C171.678 155.901 171.326 156.395 171.045 156.959C170.763 157.523 171.045 158.228 171.608 158.44C171.819 158.51 171.96 158.581 172.171 158.51H172.312C172.804 158.44 173.297 158.299 173.719 158.158C174.141 158.017 174.564 157.876 174.986 157.664C175.408 157.453 175.76 157.241 176.182 157.029C176.605 156.818 177.027 156.536 177.379 156.183L177.59 155.972C178.012 155.549 178.012 154.914 177.59 154.491C177.449 154.421 177.238 154.35 177.168 154.28Z" fill="#0485CA"/>
<path d="M184.064 159.427C182.868 159.356 181.742 159.427 180.546 159.638C179.42 159.85 178.294 160.202 177.238 160.696C176.182 161.119 175.127 161.753 174.212 162.388C173.227 163.093 172.382 163.939 171.678 164.856C171.326 165.349 171.397 165.984 171.889 166.336C172.171 166.548 172.593 166.618 172.945 166.477H173.015C174.001 166.054 174.916 165.561 175.83 165.138C176.745 164.715 177.66 164.291 178.575 163.868C179.49 163.445 180.475 163.022 181.39 162.67C182.375 162.247 183.361 161.894 184.275 161.401L184.346 161.33C184.838 161.119 185.05 160.484 184.838 159.991C184.698 159.638 184.416 159.427 184.064 159.427Z" fill="#0485CA"/>
<path d="M161.333 172.964C160.77 172.823 160.137 172.823 159.574 172.964C159.011 173.105 158.448 173.246 157.955 173.528C157.463 173.81 156.97 174.162 156.618 174.585C156.196 175.008 155.914 175.502 155.703 176.066C155.492 176.701 155.844 177.335 156.407 177.547C156.618 177.617 156.759 177.617 156.97 177.547H157.111C157.533 177.476 158.026 177.335 158.448 177.124C158.87 176.983 159.222 176.771 159.574 176.56C159.926 176.348 160.348 176.137 160.7 175.855C161.052 175.573 161.404 175.29 161.755 174.938L161.967 174.726C162.318 174.233 162.248 173.598 161.826 173.246C161.615 173.105 161.474 173.034 161.333 172.964Z" fill="#0485CA"/>
<path d="M159.574 166.336C158.518 166.336 157.533 166.477 156.548 166.759C155.562 167.041 154.648 167.394 153.733 167.887C152.818 168.381 151.973 168.945 151.27 169.65C150.495 170.355 149.862 171.131 149.369 172.047C149.088 172.541 149.229 173.246 149.792 173.528C150.073 173.669 150.495 173.739 150.777 173.598L150.847 173.528C151.692 173.105 152.396 172.611 153.17 172.188C153.944 171.765 154.648 171.342 155.492 170.919L157.814 169.65C158.589 169.227 159.363 168.804 160.137 168.31L160.207 168.24C160.7 167.887 160.77 167.253 160.489 166.83C160.137 166.548 159.855 166.336 159.574 166.336Z" fill="#0485CA"/>
</g>
<defs>
<linearGradient id="paint0_linear" x1="-1.26203" y1="2.68265" x2="132.778" y2="759.602" gradientUnits="userSpaceOnUse">
<stop stop-color="#4192B0"/>
<stop offset="1" stop-color="#0485CA"/>
</linearGradient>
<clipPath id="clip0">
<rect width="563" height="546" fill="white" transform="matrix(-1 0 0 1 613 61)"/>
</clipPath>
</defs>
</svg>
