<svg width="375" height="459" viewBox="0 0 375 459" fill="none" xmlns="http://www.w3.org/2000/svg">
<rect x="-11.5" y="82.5" width="398" height="376" rx="7.5" stroke="#FF7751"/>
<path d="M352.569 367.037C352.964 377.458 349.482 388.17 341.892 395.543C330.848 406.267 314.406 409.338 298.985 409.444C266.64 409.67 234.197 399.192 202.362 404.889C182.847 408.382 164.965 417.745 147.446 426.996C129.928 436.247 112.064 445.633 92.5573 449.179C73.0525 452.725 51.2825 449.559 36.6802 436.197C22.6782 423.384 17.4327 403.172 18.6397 384.268C19.8451 365.364 26.6956 347.325 33.661 329.699C40.6265 312.074 47.8556 294.245 49.8846 275.412C53.0202 246.301 44.0356 214.322 58.9938 189.122C70.5042 169.733 93.0346 160.216 114.064 151.937C150.475 137.603 186.886 123.268 223.297 108.933C240.208 102.275 257.346 95.5579 275.393 93.34C293.441 91.1204 312.799 93.859 327.408 104.646C349.51 120.965 355.821 151.781 352.417 178.977C350.281 196.034 345.079 212.453 339.968 228.912C336.931 238.698 333.927 248.496 331.619 258.451C325.345 285.525 326.223 312.24 339.782 336.946C345.172 346.764 351.681 353.961 352.498 365.723C352.529 366.16 352.551 366.598 352.569 367.037Z" fill="#04294F"/>
<path d="M96.635 274.312C97.7585 273.613 98.1 272.138 97.3978 271.019C96.6957 269.9 95.2158 269.56 94.0923 270.259C92.9688 270.959 92.6273 272.433 93.3295 273.552C94.0316 274.672 95.5116 275.012 96.635 274.312Z" fill="#F04E23"/>
<path d="M188.423 250.078C189.546 249.379 189.888 247.904 189.186 246.785C188.484 245.666 187.004 245.326 185.88 246.025C184.757 246.725 184.415 248.199 185.117 249.318C185.819 250.438 187.299 250.778 188.423 250.078Z" fill="#FFB400"/>
<path d="M129.73 419.67C130.854 418.971 131.195 417.496 130.493 416.377C129.791 415.258 128.311 414.918 127.187 415.617C126.064 416.317 125.722 417.791 126.424 418.91C127.127 420.029 128.607 420.37 129.73 419.67Z" fill="#FFB400"/>
<path d="M58.2441 402.15C59.3676 401.45 59.7091 399.976 59.007 398.857C58.3048 397.738 56.8249 397.397 55.7014 398.097C54.578 398.796 54.2364 400.271 54.9386 401.39C55.6407 402.509 57.1207 402.85 58.2441 402.15Z" fill="#FFB400"/>
<path d="M278.664 154.44C279.788 153.74 280.129 152.266 279.427 151.146C278.725 150.027 277.245 149.687 276.121 150.386C274.998 151.086 274.656 152.56 275.359 153.68C276.061 154.799 277.541 155.139 278.664 154.44Z" fill="#FFB400"/>
<path d="M124.48 262.585C125.604 261.885 125.945 260.411 125.243 259.291C124.541 258.172 123.061 257.832 121.938 258.531C120.814 259.231 120.473 260.705 121.175 261.825C121.877 262.944 123.357 263.284 124.48 262.585Z" fill="#FFB400"/>
<path d="M216.949 319.349C218.072 318.65 218.414 317.176 217.712 316.056C217.009 314.937 215.529 314.597 214.406 315.296C213.283 315.996 212.941 317.47 213.643 318.59C214.345 319.709 215.825 320.049 216.949 319.349Z" fill="#FFB400"/>
<path d="M200.631 368.091C201.755 367.391 202.096 365.917 201.394 364.798C200.692 363.679 199.212 363.338 198.088 364.038C196.965 364.737 196.623 366.212 197.325 367.331C198.028 368.45 199.508 368.79 200.631 368.091Z" fill="#FFB400"/>
<path d="M88.9128 241.894C90.0363 241.195 90.3778 239.72 89.6757 238.601C88.9735 237.482 87.4936 237.142 86.3701 237.841C85.2467 238.541 84.9051 240.015 85.6073 241.134C86.3094 242.254 87.7894 242.594 88.9128 241.894Z" fill="#FFB400"/>
<path d="M77.3942 199.229C78.5177 198.529 78.8592 197.055 78.157 195.936C77.4548 194.816 75.9748 194.476 74.8514 195.176C73.7279 195.875 73.3864 197.349 74.0885 198.469C74.7907 199.588 76.2707 199.928 77.3942 199.229Z" fill="#F04E23"/>
<path d="M159.537 173.332C160.661 172.633 161.002 171.158 160.3 170.039C159.598 168.92 158.118 168.579 156.995 169.279C155.871 169.978 155.53 171.453 156.232 172.572C156.934 173.691 158.414 174.032 159.537 173.332Z" fill="#FFB400"/>
<path d="M186.025 137.12C187.148 136.421 187.49 134.946 186.788 133.827C186.086 132.708 184.606 132.368 183.482 133.067C182.359 133.767 182.017 135.241 182.719 136.36C183.422 137.48 184.902 137.82 186.025 137.12Z" fill="#FFB400"/>
<path d="M134.676 232.188C135.424 231.722 135.652 230.741 135.184 229.996C134.717 229.251 133.732 229.024 132.984 229.49C132.236 229.955 132.008 230.937 132.476 231.682C132.943 232.427 133.928 232.654 134.676 232.188Z" fill="#FFB400"/>
<path d="M112.858 255.757C113.605 255.291 113.833 254.31 113.365 253.564C112.898 252.819 111.913 252.593 111.165 253.059C110.417 253.524 110.189 254.506 110.657 255.251C111.124 255.996 112.11 256.222 112.858 255.757Z" fill="#F04E23"/>
<path d="M130.904 198.638C131.652 198.172 131.88 197.191 131.412 196.446C130.945 195.701 129.96 195.474 129.212 195.94C128.464 196.406 128.236 197.387 128.704 198.132C129.171 198.877 130.156 199.104 130.904 198.638Z" fill="#F04E23"/>
<path d="M197.718 130.221C198.466 129.755 198.693 128.774 198.226 128.028C197.758 127.283 196.773 127.057 196.025 127.523C195.277 127.988 195.05 128.97 195.517 129.715C195.985 130.46 196.97 130.686 197.718 130.221Z" fill="#F04E23"/>
<path d="M100.661 221.78C101.409 221.315 101.636 220.333 101.169 219.588C100.702 218.843 99.7163 218.616 98.9684 219.082C98.2205 219.548 97.9932 220.529 98.4606 221.274C98.928 222.019 99.9132 222.246 100.661 221.78Z" fill="#F04E23"/>
<path d="M146.755 284.252C147.503 283.787 147.731 282.805 147.263 282.06C146.796 281.315 145.811 281.088 145.063 281.554C144.315 282.02 144.087 283.001 144.555 283.746C145.022 284.492 146.008 284.718 146.755 284.252Z" fill="#F04E23"/>
<path d="M88.4879 229.952C89.2358 229.486 89.4632 228.505 88.9957 227.76C88.5283 227.015 87.543 226.788 86.7951 227.254C86.0472 227.72 85.8199 228.701 86.2873 229.446C86.7547 230.191 87.74 230.418 88.4879 229.952Z" fill="#FFB400"/>
<path d="M294.759 247.012C295.507 246.546 295.734 245.565 295.266 244.819C294.799 244.074 293.814 243.848 293.066 244.314C292.318 244.779 292.091 245.761 292.558 246.506C293.026 247.251 294.011 247.477 294.759 247.012Z" fill="#FFB400"/>
<path d="M209.542 218.348C210.29 217.882 210.517 216.901 210.05 216.156C209.582 215.411 208.597 215.184 207.849 215.65C207.101 216.116 206.874 217.097 207.341 217.842C207.809 218.587 208.794 218.814 209.542 218.348Z" fill="#FFB400"/>
<path d="M52.3877 311.999C53.1356 311.533 53.363 310.552 52.8955 309.807C52.428 309.062 51.4428 308.835 50.6948 309.301C49.9469 309.766 49.7195 310.748 50.187 311.493C50.6545 312.238 51.6398 312.465 52.3877 311.999Z" fill="#FFB400"/>
<path d="M312.635 170.728C313.383 170.262 313.611 169.281 313.143 168.536C312.676 167.791 311.69 167.564 310.942 168.03C310.194 168.495 309.967 169.477 310.435 170.222C310.902 170.967 311.887 171.193 312.635 170.728Z" fill="#FFB400"/>
<path d="M267.85 142.366C268.598 141.9 268.825 140.918 268.358 140.173C267.89 139.428 266.905 139.202 266.157 139.667C265.409 140.133 265.182 141.115 265.649 141.86C266.117 142.605 267.102 142.831 267.85 142.366Z" fill="#FFB400"/>
<path d="M305.301 127.04C306.049 126.574 306.276 125.592 305.809 124.847C305.341 124.102 304.356 123.876 303.608 124.341C302.86 124.807 302.633 125.789 303.1 126.534C303.568 127.279 304.553 127.505 305.301 127.04Z" fill="#FFB400"/>
<path d="M66.8724 254.165C67.6203 253.7 67.8477 252.718 67.3803 251.973C66.9128 251.228 65.9276 251.001 65.1797 251.467C64.4317 251.933 64.2044 252.914 64.6718 253.659C65.1393 254.405 66.1245 254.631 66.8724 254.165Z" fill="#FFB400"/>
<path d="M129.307 183.766C130.055 183.301 130.283 182.319 129.815 181.574C129.348 180.829 128.363 180.602 127.615 181.068C126.867 181.534 126.639 182.515 127.107 183.26C127.574 184.006 128.56 184.232 129.307 183.766Z" fill="#FFB400"/>
<path d="M159.852 355.546C160.372 354.332 159.805 352.928 158.587 352.41C157.368 351.893 155.959 352.457 155.439 353.671C154.919 354.885 155.486 356.289 156.705 356.807C157.923 357.324 159.332 356.76 159.852 355.546Z" fill="#F04E23"/>
<path d="M297.705 117.267C298.225 116.053 297.659 114.649 296.44 114.131C295.222 113.614 293.812 114.178 293.293 115.392C292.773 116.606 293.339 118.01 294.558 118.528C295.777 119.045 297.186 118.481 297.705 117.267Z" fill="#F04E23"/>
<path d="M301.981 261.494C302.501 260.28 301.934 258.877 300.716 258.359C299.497 257.841 298.088 258.405 297.568 259.619C297.049 260.833 297.615 262.237 298.834 262.755C300.052 263.273 301.461 262.708 301.981 261.494Z" fill="#F04E23"/>
<path d="M282.726 392.876C283.245 391.662 282.679 390.259 281.46 389.741C280.242 389.223 278.833 389.787 278.313 391.001C277.793 392.215 278.36 393.619 279.578 394.137C280.797 394.655 282.206 394.09 282.726 392.876Z" fill="#FFB400"/>
<path d="M158.063 331.051C158.583 329.837 158.016 328.433 156.797 327.915C155.579 327.397 154.17 327.962 153.65 329.176C153.13 330.39 153.697 331.794 154.915 332.311C156.134 332.829 157.543 332.265 158.063 331.051Z" fill="#FFB400"/>
<path d="M59.1762 298.607C59.6959 297.393 59.1294 295.989 57.9108 295.472C56.6922 294.954 55.283 295.518 54.7633 296.732C54.2436 297.946 54.8101 299.35 56.0287 299.868C57.2473 300.386 58.6565 299.821 59.1762 298.607Z" fill="#FFB400"/>
<path d="M247.7 268.002C248.22 266.788 247.653 265.384 246.435 264.866C245.216 264.349 243.807 264.913 243.287 266.127C242.768 267.341 243.334 268.745 244.553 269.263C245.771 269.78 247.18 269.216 247.7 268.002Z" fill="#FFB400"/>
<path d="M203.958 207.684C204.478 206.47 203.911 205.066 202.693 204.549C201.474 204.031 200.065 204.595 199.545 205.809C199.026 207.023 199.592 208.427 200.811 208.945C202.029 209.463 203.438 208.898 203.958 207.684Z" fill="#FFB400"/>
<path d="M275.862 314.893C276.382 313.679 275.815 312.275 274.597 311.757C273.378 311.239 271.969 311.804 271.449 313.018C270.93 314.232 271.496 315.635 272.715 316.153C273.933 316.671 275.342 316.107 275.862 314.893Z" fill="#F04E23"/>
<path d="M217.877 144.345C218.397 143.131 217.83 141.727 216.611 141.209C215.393 140.691 213.984 141.255 213.464 142.469C212.944 143.683 213.511 145.087 214.729 145.605C215.948 146.123 217.357 145.558 217.877 144.345Z" fill="#F04E23"/>
<path d="M92.2404 325.115C92.7601 323.901 92.1936 322.497 90.975 321.979C89.7564 321.461 88.3472 322.025 87.8275 323.239C87.3078 324.453 87.8743 325.857 89.0929 326.375C90.3115 326.893 91.7207 326.329 92.2404 325.115Z" fill="#F04E23"/>
<path d="M331.703 218.216C332.222 217.002 331.656 215.598 330.437 215.08C329.219 214.562 327.809 215.127 327.29 216.341C326.77 217.555 327.336 218.959 328.555 219.476C329.774 219.994 331.183 219.43 331.703 218.216Z" fill="#F04E23"/>
<path d="M330.897 347.122C331.417 345.908 330.851 344.505 329.632 343.987C328.413 343.469 327.004 344.033 326.485 345.247C325.965 346.461 326.531 347.865 327.75 348.383C328.968 348.901 330.378 348.336 330.897 347.122Z" fill="#FFB400"/>
<path d="M286.056 196.636C286.576 195.422 286.01 194.018 284.791 193.5C283.572 192.983 282.163 193.547 281.643 194.761C281.124 195.975 281.69 197.379 282.909 197.897C284.127 198.415 285.537 197.85 286.056 196.636Z" fill="#FFB400"/>
<path d="M280.442 380.973C280.788 380.164 280.411 379.23 279.6 378.885C278.789 378.54 277.85 378.916 277.504 379.724C277.158 380.533 277.536 381.467 278.347 381.812C279.158 382.157 280.096 381.781 280.442 380.973Z" fill="#FFB400"/>
<path d="M248.558 376.627C248.904 375.819 248.527 374.885 247.715 374.54C246.904 374.195 245.966 374.571 245.62 375.379C245.274 376.187 245.651 377.122 246.463 377.467C247.274 377.811 248.212 377.436 248.558 376.627Z" fill="#F04E23"/>
<path d="M191.007 398.349C191.353 397.541 190.976 396.606 190.164 396.261C189.353 395.916 188.415 396.292 188.069 397.1C187.723 397.909 188.1 398.843 188.911 399.188C189.723 399.533 190.661 399.157 191.007 398.349Z" fill="#F04E23"/>
<path d="M163.901 320.33C164.247 319.521 163.87 318.587 163.058 318.242C162.247 317.897 161.309 318.273 160.963 319.081C160.617 319.89 160.994 320.824 161.805 321.169C162.617 321.513 163.555 321.138 163.901 320.33Z" fill="#F04E23"/>
<path d="M305.906 358.7C306.252 357.892 305.875 356.957 305.064 356.612C304.252 356.268 303.314 356.644 302.968 357.452C302.622 358.26 302.999 359.194 303.811 359.539C304.622 359.884 305.56 359.508 305.906 358.7Z" fill="#F04E23"/>
<path d="M139.011 404.133C139.357 403.325 138.98 402.39 138.168 402.045C137.357 401.701 136.419 402.076 136.073 402.885C135.727 403.693 136.104 404.627 136.915 404.972C137.727 405.317 138.665 404.941 139.011 404.133Z" fill="#F04E23"/>
<path d="M238.644 326.396C238.99 325.588 238.613 324.653 237.802 324.308C236.991 323.964 236.052 324.339 235.707 325.147C235.361 325.956 235.738 326.89 236.549 327.235C237.36 327.58 238.298 327.204 238.644 326.396Z" fill="#F04E23"/>
<path d="M65.8907 388.746C66.2367 387.937 65.8596 387.003 65.0483 386.658C64.2371 386.313 63.2989 386.689 62.9529 387.497C62.6069 388.306 62.9841 389.24 63.7953 389.585C64.6065 389.929 65.5447 389.554 65.8907 388.746Z" fill="#F04E23"/>
<path d="M210.155 196.321C210.501 195.513 210.124 194.578 209.313 194.234C208.502 193.889 207.563 194.265 207.218 195.073C206.872 195.881 207.249 196.816 208.06 197.16C208.871 197.505 209.809 197.129 210.155 196.321Z" fill="#F04E23"/>
<path d="M64.2945 329.347C64.6405 328.539 64.2634 327.604 63.4521 327.26C62.6409 326.915 61.7028 327.291 61.3567 328.099C61.0107 328.907 61.3879 329.842 62.1991 330.186C63.0104 330.531 63.9485 330.155 64.2945 329.347Z" fill="#F04E23"/>
<path d="M228.7 215.501C229.046 214.693 228.669 213.758 227.858 213.414C227.047 213.069 226.108 213.445 225.762 214.253C225.416 215.061 225.794 215.996 226.605 216.34C227.416 216.685 228.354 216.309 228.7 215.501Z" fill="#F04E23"/>
<path d="M275.169 334.11C275.515 333.302 275.138 332.367 274.326 332.022C273.515 331.678 272.577 332.053 272.231 332.862C271.885 333.67 272.262 334.604 273.073 334.949C273.885 335.294 274.823 334.918 275.169 334.11Z" fill="#FFB400"/>
<path d="M203.064 392.561C203.41 391.753 203.033 390.819 202.222 390.474C201.41 390.129 200.472 390.505 200.126 391.313C199.78 392.121 200.158 393.056 200.969 393.401C201.78 393.745 202.718 393.37 203.064 392.561Z" fill="#FFB400"/>
<path d="M40.6712 370.44C41.0172 369.632 40.6401 368.697 39.8288 368.352C39.0176 368.008 38.0795 368.384 37.7334 369.192C37.3874 370 37.7646 370.934 38.5758 371.279C39.3871 371.624 40.3252 371.248 40.6712 370.44Z" fill="#FFB400"/>
<path d="M332.559 363.593C332.905 362.785 332.528 361.85 331.717 361.506C330.906 361.161 329.967 361.537 329.621 362.345C329.275 363.153 329.653 364.088 330.464 364.432C331.275 364.777 332.213 364.401 332.559 363.593Z" fill="#FFB400"/>
<path d="M72.2823 432.424C72.6283 431.616 72.2511 430.681 71.4399 430.337C70.6286 429.992 69.6905 430.368 69.3445 431.176C68.9985 431.984 69.3756 432.919 70.1869 433.263C70.9981 433.608 71.9363 433.232 72.2823 432.424Z" fill="#FFB400"/>
<path d="M289.006 219.256C287.979 216.935 286.361 214.923 284.313 213.421C281.478 211.224 278.382 209.385 275.096 207.946C270.898 206.002 266.569 204.351 262.142 203.005C256.859 201.348 251.521 200.028 246.097 198.877C240.028 197.58 233.876 196.575 227.748 195.789C221.173 194.947 214.541 194.357 207.91 193.992C201.025 193.651 194.196 193.539 187.313 193.734C180.372 193.931 173.459 194.446 166.575 195.279C159.853 196.078 153.183 197.259 146.596 198.817C140.305 200.314 134.125 202.246 128.102 204.601C126.696 205.162 125.321 205.696 123.971 206.341C131.435 204.102 139.052 202.405 146.76 201.262C154.38 200.052 162.079 199.266 169.778 198.76C177.899 198.256 186.077 198.059 194.196 198.2C202.121 198.34 209.986 198.788 217.881 199.631C225.019 200.388 232.1 201.428 239.126 202.86C246.213 204.252 253.176 206.214 259.947 208.728C265.177 210.566 270.074 213.24 274.446 216.646C276.891 218.699 279.139 221.278 279.87 224.451C280.165 226.051 280.085 227.697 279.636 229.26C279.187 230.824 278.383 232.262 277.284 233.463C274.863 236.175 271.981 238.437 268.771 240.146C265.428 241.987 261.941 243.555 258.345 244.835C251.318 247.335 244.101 249.269 236.765 250.618C234.769 251.011 232.775 251.374 230.78 251.656L229.347 251.909C228.784 251.966 228.251 252.05 227.689 252.162C227.436 252.27 227.548 252.162 227.492 252.27C227.435 252.434 227.435 252.612 227.492 252.776V261.62L227.548 273.831V300.791C227.548 303.992 227.548 307.221 227.492 310.393V311.937C227.461 312.125 227.475 312.317 227.534 312.498C227.593 312.678 227.694 312.842 227.829 312.976C228.812 313.762 230.583 313.624 231.763 313.624C233.774 313.525 235.776 313.272 237.749 312.868C239.586 312.527 241.391 312.029 243.143 311.38C243.69 311.186 244.21 310.922 244.689 310.594C245.279 310.089 245.082 309.298 245.139 308.601C245.279 305.471 245.837 302.374 246.797 299.392C248.286 294.899 251.231 290.322 256.266 289.621C259.247 289.156 262.291 289.872 264.752 291.614C267.338 293.668 268.546 296.948 269.135 300.093C270.119 305.512 269.726 311.239 269.079 316.687C268.63 320.361 267.983 324.071 267.533 327.748C267.141 330.893 266.889 334.065 266.776 337.266C266.668 341.758 266.885 346.419 268.434 350.603C269.372 353.539 271.404 356.002 274.11 357.481C275.458 358.146 276.914 358.564 278.409 358.717C279.248 358.82 280.093 358.867 280.939 358.858C281.177 358.854 281.413 358.817 281.641 358.75C282.75 358.246 283.638 357.358 284.142 356.25C285.082 354.523 285.799 352.683 286.277 350.776C287.048 348.156 287.667 345.493 288.132 342.802C288.781 339.461 289.284 336.091 289.677 332.752C290.184 328.878 290.577 324.972 290.914 321.045C291.307 316.749 291.616 312.481 291.87 308.186C292.179 303.693 292.376 299.173 292.518 294.653C292.659 290.077 292.828 285.5 292.856 280.951C292.912 276.431 292.964 271.939 292.912 267.418C292.856 263.123 292.804 258.856 292.659 254.559C292.551 250.685 292.351 246.754 292.098 242.852C291.901 239.454 291.648 236.141 291.254 232.744C290.945 230.048 290.605 227.353 290.159 224.715C289.962 222.861 289.576 221.032 289.006 219.256V219.256Z" fill="#FF7751"/>
<path d="M268.409 321.792C269.089 317.638 269.52 313.447 269.701 309.241C269.857 306.228 269.687 303.206 269.195 300.229C268.546 296.495 267.004 292.564 263.463 290.711C261.564 289.704 259.413 289.272 257.272 289.466C255.132 289.661 253.094 290.474 251.408 291.807C249.145 293.965 247.522 296.704 246.716 299.724C246.154 301.482 245.75 303.285 245.508 305.114C245.367 306.097 245.255 307.108 245.17 308.09C245.114 308.596 245.114 309.046 245.062 309.522C245.071 309.74 245.053 309.958 245.006 310.171C244.809 310.676 244.106 310.956 243.657 311.153C242.765 311.542 241.844 311.862 240.903 312.108C238.499 312.756 236.046 313.207 233.569 313.456C232.476 313.562 231.378 313.598 230.281 313.564C229.527 313.569 228.781 313.416 228.09 313.114C227.879 312.998 227.71 312.82 227.604 312.604C227.499 312.388 227.462 312.145 227.499 311.907V309.97C227.556 305.843 227.556 301.659 227.556 297.532V280.941C227.556 275.606 227.556 270.327 227.499 264.993L227.443 254.295V252.949C227.443 252.808 227.335 252.443 227.443 252.3C227.584 252.104 228.539 252.104 228.792 252.048C230 251.851 231.237 251.654 232.417 251.458C234.805 251.065 237.194 250.616 239.555 250.11C248.435 248.258 257.4 245.815 265.576 241.884C269.685 240.059 273.42 237.488 276.591 234.303C279.232 231.411 280.834 227.621 279.57 223.746C278.361 220.072 275.27 217.263 272.179 215.127C269.531 213.306 266.707 211.754 263.749 210.495C255.908 207.134 247.719 204.649 239.331 203.083C230.688 201.347 221.953 200.1 213.169 199.348C203.387 198.515 193.568 198.187 183.752 198.366C174.107 198.502 164.476 199.129 154.895 200.246C145.565 201.285 136.328 203.031 127.263 205.471C122.767 206.677 118.355 208.177 114.057 209.963C110.427 211.411 106.984 213.286 103.8 215.551C100.653 217.796 97.5336 220.885 96.6619 224.816V224.788C96.4085 225.92 96.2211 227.065 96.1006 228.218C95.96 229.257 95.8475 230.296 95.708 231.306C95.5112 233.16 95.3143 234.98 95.1456 236.894C94.8925 239.645 94.6957 242.369 94.4967 245.065C94.2436 248.686 94.0479 252.392 93.8478 256.015C93.6001 260.642 93.4596 265.274 93.2908 269.907C93.094 275.578 92.9815 281.249 92.9534 286.949C92.8453 293.631 92.8128 300.341 92.8453 307.024C92.9015 313.399 93.0421 319.827 93.2952 326.2C93.492 331.731 93.8013 337.262 94.1387 342.793C94.447 347.426 94.8406 352.058 95.2905 356.691C95.628 360.426 96.0768 364.159 96.5267 367.894C96.8641 370.673 97.2297 373.513 97.6785 376.316C97.9878 378.197 98.269 380.051 98.6346 381.904C98.7752 382.802 98.9709 383.701 99.1396 384.655C99.5035 386.422 99.973 388.166 100.546 389.878C102.34 395.472 105.119 400.701 108.751 405.32C110.584 407.635 112.584 409.812 114.736 411.834C116.945 413.919 119.294 415.851 121.766 417.617C124.303 419.434 126.95 421.094 129.69 422.588C132.518 424.134 135.425 425.531 138.401 426.771C141.435 428.062 144.582 429.157 147.758 430.168C150.989 431.151 154.333 432.05 157.621 432.807C160.909 433.565 164.449 434.155 167.877 434.661C171.305 435.166 174.846 435.502 178.387 435.699C181.928 435.896 185.468 436.008 189.065 435.952C192.662 435.896 196.145 435.699 199.686 435.39C203.227 435.081 206.711 434.634 210.139 434.042C213.567 433.451 216.968 432.751 220.368 431.909C223.768 431.068 226.942 430.056 230.174 428.933C233.334 427.846 236.43 426.581 239.447 425.142C242.387 423.785 245.246 422.257 248.008 420.567C250.706 418.922 253.306 417.122 255.795 415.176C258.241 413.292 260.525 411.208 262.624 408.943C264.701 406.764 266.617 404.437 268.356 401.981C271.858 396.97 274.471 391.395 276.083 385.499C276.336 384.601 276.673 383.759 276.925 382.86C277.7 380.175 278.319 377.447 278.78 374.69C279.68 369.524 280.326 364.274 280.86 358.995C276.617 359.051 272.486 357.704 269.985 354.054C268.69 352.013 267.794 349.746 267.344 347.372C266.745 344.104 266.509 340.78 266.641 337.46C267.062 332.096 267.565 326.902 268.409 321.792ZM124.819 242.813C118.99 241.152 113.4 238.746 108.189 235.654C105.832 234.305 103.776 232.489 102.146 230.319C101.342 229.25 100.855 227.977 100.74 226.645C100.79 225.317 101.242 224.035 102.038 222.97C103.667 220.785 105.722 218.951 108.079 217.579C110.396 216.151 112.809 214.884 115.301 213.79C120.885 211.438 126.656 209.559 132.554 208.17C138.394 206.739 144.327 205.644 150.257 204.773C156.768 203.814 163.4 203.168 169.975 202.715C177 202.266 184.025 202.079 191.049 202.153C197.99 202.21 204.96 202.491 211.872 203.109C218.361 203.67 224.826 204.4 231.261 205.495C236.993 206.449 242.678 207.673 248.317 209.169C254.255 210.715 260.018 212.87 265.513 215.597C267.774 216.754 269.912 218.137 271.894 219.725C273.889 221.41 276.22 223.768 276.193 226.603C276.137 229.44 273.86 231.742 271.867 233.426C269.876 235.027 267.718 236.411 265.432 237.553C259.969 240.255 254.243 242.392 248.344 243.929C242.7 245.474 236.979 246.722 231.205 247.669C224.824 248.707 218.335 249.522 211.872 249.999C204.932 250.561 198.019 250.898 191.049 250.954C184.025 251.01 177 250.814 169.975 250.364C163.4 249.971 156.768 249.269 150.25 248.311C144.294 247.485 138.385 246.351 132.546 244.913C129.905 244.301 127.348 243.599 124.819 242.813Z" fill="#FFAF51"/>
<path d="M268.662 225.63C268.662 223.047 266.666 220.885 264.783 219.397C261.454 217.034 257.775 215.206 253.881 213.979C248.462 212.127 242.911 210.691 237.274 209.682C230.244 208.335 223.168 207.437 216.086 206.79C207.966 206.034 199.733 205.64 191.556 205.583C183.238 205.475 174.865 205.724 166.573 206.34C159.154 206.844 151.773 207.687 144.43 208.867C138.383 209.805 132.404 211.137 126.531 212.854C122.217 214.06 118.066 215.786 114.169 217.993C111.865 219.398 109.28 221.334 108.437 224.029C107.68 226.417 108.831 228.662 110.492 230.347C113.021 232.929 116.477 234.586 119.765 235.966C124.751 237.962 129.904 239.512 135.164 240.599C141.852 242.031 148.577 243.126 155.339 243.884C163.207 244.783 171.129 245.288 179.055 245.54C187.542 245.793 195.999 245.681 204.486 245.287C212.157 244.895 219.828 244.249 227.414 243.154C233.789 242.299 240.112 241.09 246.353 239.532C251.146 238.362 255.807 236.706 260.263 234.59C263.016 233.186 265.995 231.446 267.681 228.755C268.292 227.825 268.632 226.742 268.662 225.63V225.63Z" fill="#022B42"/>
<path d="M270.6 234.389C272.792 232.789 275.181 230.715 275.995 228.014C276.783 225.233 275.04 222.679 273.157 220.854C269.279 217.008 263.941 214.621 258.939 212.683C253.358 210.556 247.629 208.839 241.798 207.546C235.813 206.198 229.8 205.159 223.702 204.345C217.07 203.502 210.382 202.913 203.722 202.548C196.642 202.211 189.616 202.098 182.536 202.211C175.651 202.355 168.767 202.715 161.91 203.364C155.529 203.954 149.209 204.796 142.915 205.948C137.246 206.948 131.636 208.26 126.111 209.878C120.276 211.504 114.655 213.815 109.364 216.763C105.377 219.088 98.9114 223.58 101.44 228.974C102.825 231.363 104.773 233.378 107.116 234.842C109.315 236.32 111.638 237.607 114.057 238.689C119.612 241.179 125.388 243.143 131.31 244.557C137.092 246.014 142.944 247.176 148.845 248.039C155.334 249.021 161.91 249.723 168.43 250.172C175.398 250.677 182.423 250.874 189.476 250.874C196.501 250.818 203.479 250.556 210.41 250.087C216.93 249.583 223.421 248.852 229.856 247.842C235.694 246.952 241.482 245.752 247.193 244.248C253.107 242.76 258.865 240.711 264.389 238.127C266.554 237.047 268.631 235.797 270.6 234.389ZM108.265 225.63C108.265 223.047 110.26 220.885 112.199 219.397C115.528 217.034 119.207 215.206 123.101 213.979C128.52 212.127 134.071 210.691 139.708 209.682C146.738 208.335 153.814 207.437 160.896 206.79C169.018 206.033 177.196 205.631 185.43 205.583C193.748 205.475 202.121 205.724 210.413 206.34C217.803 206.846 225.222 207.688 232.555 208.867C238.581 209.826 244.54 211.157 250.4 212.854C254.719 214.049 258.872 215.775 262.765 217.992C265.069 219.397 267.654 221.333 268.497 224.028C269.254 226.416 268.103 228.661 266.442 230.346C263.914 232.928 260.457 234.585 257.169 235.965C252.2 237.953 247.067 239.503 241.827 240.598C235.143 242.032 228.39 243.128 221.595 243.883C213.727 244.782 205.805 245.287 197.879 245.539C189.394 245.792 180.935 245.68 172.448 245.286C164.777 244.894 157.106 244.248 149.521 243.153C143.143 242.297 136.818 241.087 130.576 239.528C125.78 238.367 121.119 236.71 116.666 234.586C113.913 233.181 110.934 231.441 109.248 228.751C108.618 227.831 108.277 226.744 108.269 225.63H108.265Z" fill="white"/>
<path d="M104.222 261.825L104.671 261.376C104.807 261.246 104.958 261.132 105.121 261.038C105.43 260.787 105.683 260.646 105.964 260.449C106.554 260.112 107.172 259.747 107.762 259.466C108.363 259.164 108.982 258.902 109.617 258.68C110.266 258.428 110.915 258.287 111.555 258.09C114.133 257.494 116.781 257.258 119.423 257.389L120.407 257.445H120.912L121.419 257.502L123.358 257.753C124.007 257.809 124.594 258.006 125.241 258.09L127.122 258.484C128.36 258.821 129.624 259.186 130.8 259.522L134.397 260.814C134.775 260.944 135.124 261.148 135.422 261.414C135.721 261.68 135.964 262.002 136.136 262.363C136.309 262.724 136.408 263.115 136.428 263.514C136.447 263.914 136.388 264.313 136.251 264.689C136.117 265.07 135.908 265.421 135.637 265.721C135.366 266.021 135.038 266.265 134.672 266.437C134.306 266.61 133.909 266.708 133.505 266.726C133.101 266.744 132.697 266.681 132.317 266.542V266.542L132.064 266.434L131.923 266.326L128.776 264.838C127.737 264.388 126.641 263.995 125.573 263.603L123.915 263.097C123.353 262.956 122.819 262.76 122.258 262.591L120.6 262.199L120.206 262.091L119.813 262.035L118.97 261.927C116.775 261.582 114.543 261.545 112.338 261.819C111.776 261.927 111.243 262.015 110.737 262.128C110.211 262.261 109.694 262.43 109.191 262.632C108.685 262.829 108.208 263.026 107.702 263.281C107.505 263.421 107.252 263.533 107.053 263.674L106.744 263.87C106.635 263.926 106.548 264.01 106.492 264.01L105.843 264.263C105.451 264.4 105.022 264.377 104.648 264.198C104.274 264.019 103.986 263.699 103.847 263.309C103.771 263.055 103.764 262.785 103.829 262.528C103.893 262.271 104.026 262.037 104.213 261.849L104.222 261.825Z" fill="#FF7751"/>
<path d="M206.813 282.789L206.617 282.481C206.522 282.377 206.437 282.264 206.365 282.144C206.184 281.896 205.987 281.661 205.774 281.441C205.572 281.211 205.355 280.995 205.125 280.793C204.905 280.563 204.67 280.346 204.423 280.145C203.451 279.336 202.417 278.604 201.332 277.954C199.09 276.709 196.689 275.774 194.194 275.175C193.545 275.035 192.958 274.866 192.313 274.727L190.43 274.417C190.12 274.361 189.781 274.309 189.474 274.277L188.49 274.221L186.551 274.08C185.254 274.024 183.91 274.08 182.618 274.08L178.683 274.389H178.487C177.685 274.468 176.885 274.229 176.258 273.724C175.631 273.219 175.229 272.487 175.137 271.688C175.045 270.889 175.271 270.085 175.766 269.451C176.261 268.816 176.986 268.402 177.785 268.297H178.235L182.561 268.353C183.994 268.494 185.455 268.549 186.887 268.745L189.023 269.082L190.118 269.223C190.456 269.331 190.821 269.363 191.214 269.476L193.35 269.982C194.053 270.177 194.756 270.43 195.429 270.683C198.243 271.651 200.911 272.997 203.361 274.684C204.576 275.548 205.714 276.515 206.76 277.576C207.035 277.836 207.288 278.118 207.517 278.418C207.771 278.727 208.024 278.98 208.275 279.317C208.525 279.654 208.724 279.906 208.977 280.271C209.086 280.412 209.174 280.58 209.315 280.777C209.439 280.966 209.552 281.163 209.652 281.366C209.829 281.728 209.864 282.143 209.751 282.53C209.638 282.917 209.385 283.248 209.041 283.458C208.697 283.669 208.287 283.744 207.89 283.668C207.494 283.593 207.14 283.373 206.898 283.05L206.813 282.789Z" fill="#FF7751"/>
<path d="M157.274 341.165C157.222 340.889 157.062 340.646 156.83 340.488C156.599 340.33 156.313 340.27 156.038 340.322V340.322C155.146 340.476 154.245 340.56 153.34 340.575C152.906 340.569 152.472 340.533 152.043 340.467L151.394 340.359L150.745 340.219C148.274 339.645 146.066 338.263 144.47 336.294C142.874 334.324 141.98 331.879 141.932 329.345C141.913 327.672 142.288 326.017 143.027 324.516C143.738 322.984 144.796 321.638 146.118 320.584C147.477 319.489 149.06 318.703 150.754 318.283L151.403 318.142L152.052 318.034C152.5 317.97 152.95 317.934 153.402 317.926C154.326 317.913 155.249 317.998 156.156 318.179V318.179C156.266 318.198 156.38 318.194 156.489 318.169C156.598 318.144 156.702 318.097 156.793 318.032C156.885 317.967 156.962 317.884 157.021 317.789C157.081 317.693 157.121 317.587 157.139 317.477C157.171 317.292 157.138 317.101 157.046 316.938C156.954 316.774 156.808 316.647 156.634 316.579C155.672 316.131 154.649 315.828 153.598 315.68H153.396C153.648 314.275 153.788 312.9 153.901 311.497C154.045 309.676 154.092 307.848 154.041 306.022C153.985 304.225 153.933 302.348 153.732 300.547C153.579 298.704 153.298 296.875 152.889 295.072C152.833 294.851 152.694 294.66 152.5 294.539C152.307 294.418 152.074 294.377 151.85 294.424C151.698 294.472 151.559 294.556 151.446 294.668C151.333 294.781 151.249 294.92 151.201 295.072C150.792 296.875 150.511 298.704 150.359 300.547C150.218 302.4 150.106 304.221 150.049 306.022C149.998 307.848 150.045 309.676 150.19 311.497C150.287 312.861 150.456 314.22 150.695 315.567L150.302 315.623C149.201 315.73 148.117 315.966 147.071 316.326C145.214 317.021 143.527 318.102 142.121 319.499C140.714 320.895 139.622 322.574 138.915 324.425C138.208 326.276 137.903 328.256 138.02 330.233C138.138 332.211 138.675 334.14 139.595 335.895C140.639 337.927 142.188 339.657 144.092 340.921C145.021 341.551 146.021 342.069 147.071 342.465C148.119 342.829 149.202 343.083 150.302 343.221L151.145 343.329H151.932C152.486 343.321 153.039 343.285 153.589 343.221C154.677 343.077 155.737 342.774 156.736 342.322C156.942 342.217 157.107 342.045 157.204 341.836C157.302 341.626 157.326 341.39 157.274 341.165Z" fill="#022B42"/>
<path d="M259.529 299.863C259.964 301.047 260.247 302.281 260.372 303.537C260.681 305.969 260.681 308.432 260.372 310.864C260.217 312.115 259.935 313.346 259.529 314.538C259.486 314.657 259.419 314.766 259.333 314.858C259.247 314.951 259.143 315.025 259.028 315.077C258.913 315.13 258.789 315.159 258.662 315.162C258.536 315.166 258.41 315.145 258.292 315.1C258.042 314.99 257.841 314.789 257.731 314.538C257.295 313.354 257.011 312.12 256.887 310.864C256.578 308.432 256.578 305.969 256.887 303.537C257.042 302.286 257.324 301.055 257.731 299.863C257.772 299.746 257.837 299.639 257.92 299.547C258.004 299.456 258.105 299.382 258.217 299.329C258.33 299.277 258.451 299.248 258.575 299.243C258.699 299.238 258.823 299.258 258.939 299.302C259.074 299.343 259.198 299.415 259.301 299.512C259.403 299.61 259.481 299.73 259.529 299.863V299.863Z" fill="#FF7751"/>
<path d="M146.737 394.2C148.005 394.215 149.271 394.3 150.53 394.453C151.795 394.594 153.031 394.762 154.267 394.958C155.503 395.153 156.768 395.351 158.005 395.66C159.274 395.915 160.523 396.262 161.742 396.699V396.699C162.013 396.801 162.232 397.005 162.354 397.268C162.475 397.531 162.488 397.831 162.39 398.103C162.329 398.266 162.227 398.411 162.095 398.524C161.962 398.637 161.804 398.715 161.633 398.752C160.326 399.057 158.987 399.208 157.644 399.201C154.972 399.216 152.315 398.799 149.776 397.966C148.462 397.568 147.22 396.961 146.099 396.169C145.871 396.017 145.712 395.783 145.654 395.516C145.596 395.248 145.645 394.969 145.789 394.737C145.879 394.595 146.003 394.479 146.151 394.4C146.299 394.321 146.465 394.283 146.633 394.288L146.737 394.2Z" fill="#022B42"/>
<path d="M228.984 318.535C230.282 318.339 231.569 318.227 232.834 318.086C234.071 317.946 235.363 317.777 236.627 317.637C237.863 317.496 239.129 317.299 240.365 317.047C241.601 316.794 242.865 316.542 244.158 316.29H244.214C244.388 316.268 244.564 316.315 244.705 316.419C244.846 316.524 244.942 316.679 244.971 316.852C244.996 316.964 244.985 317.082 244.94 317.187C244.894 317.293 244.817 317.382 244.718 317.441C243.634 318.33 242.408 319.032 241.093 319.519C239.792 320.041 238.434 320.408 237.047 320.614C235.681 320.822 234.298 320.907 232.917 320.867C231.511 320.81 230.12 320.556 228.785 320.11C228.591 320.042 228.43 319.902 228.336 319.719C228.242 319.536 228.222 319.324 228.28 319.127C228.326 318.982 228.411 318.854 228.526 318.755C228.64 318.655 228.78 318.59 228.929 318.565L228.984 318.535Z" fill="#FF7751"/>
<path d="M161.854 377.103C159.769 376.976 157.676 377.089 155.616 377.44C153.484 377.794 151.43 378.516 149.547 379.573C148.648 380.135 147.748 380.669 146.905 381.258C146.727 381.385 146.539 381.497 146.343 381.595L145.781 381.904C145.388 382.044 145.024 382.213 144.629 382.352C143.579 382.803 142.404 382.869 141.31 382.541C140.216 382.213 139.272 381.51 138.644 380.556C138.44 380.238 138.252 379.91 138.081 379.573C137.981 379.394 137.897 379.206 137.829 379.012L137.689 378.45C137.529 377.75 137.51 377.024 137.633 376.316C137.769 375.624 138.078 374.977 138.531 374.436C138.978 373.892 139.521 373.435 140.133 373.087C140.728 372.773 141.402 372.637 142.072 372.695H142.325L142.83 372.751H143.871C144.708 372.676 145.511 372.385 146.202 371.908C146.992 371.354 147.559 370.539 147.804 369.607C148.057 368.783 148.057 367.903 147.804 367.079C147.554 366.179 147.01 365.389 146.259 364.834C145.577 364.349 144.785 364.04 143.955 363.934C143.592 363.888 143.225 363.869 142.858 363.878L142.353 363.934H142.1C141.753 363.972 141.401 363.953 141.06 363.878C139.592 363.607 138.291 362.771 137.436 361.548C137.046 360.953 136.798 360.277 136.71 359.571C136.622 358.865 136.698 358.149 136.93 357.477L137.126 356.916C137.238 356.763 137.324 356.592 137.38 356.41L137.52 356.157L137.661 355.961C137.769 355.82 137.858 355.653 137.969 355.512C138.457 354.964 139.076 354.548 139.769 354.304C140.51 354.005 141.302 353.853 142.101 353.856C142.953 353.861 143.802 353.965 144.63 354.165L145.22 354.304L145.81 354.501C146.007 354.609 146.147 354.641 146.372 354.754L146.625 354.894C146.682 354.894 146.682 354.95 146.734 354.95L146.874 355.058C147.72 355.672 148.602 356.235 149.515 356.743C151.416 357.731 153.452 358.433 155.559 358.825C157.601 359.165 159.675 359.269 161.741 359.133C161.845 359.136 161.948 359.117 162.045 359.079C162.141 359.04 162.229 358.983 162.303 358.909C162.376 358.836 162.434 358.748 162.473 358.652C162.512 358.555 162.53 358.452 162.528 358.348C162.535 358.237 162.521 358.126 162.486 358.021C162.45 357.915 162.394 357.818 162.321 357.735C162.248 357.651 162.159 357.583 162.059 357.534C161.96 357.485 161.851 357.456 161.741 357.449C157.929 357.371 154.202 356.307 150.925 354.36C150.129 353.838 149.36 353.276 148.622 352.676L148.481 352.567L148.284 352.427L147.891 352.174C147.638 352.034 147.328 351.865 147.104 351.725L146.317 351.387L145.531 351.079C144.425 350.752 143.283 350.563 142.131 350.518C140.929 350.46 139.727 350.632 138.59 351.023C137.375 351.433 136.27 352.115 135.358 353.016C135.128 353.256 134.911 353.508 134.709 353.772C134.601 353.913 134.512 354.025 134.4 354.166L134.147 354.558C134.006 354.811 133.838 355.12 133.697 355.401L133.36 356.243C132.909 357.449 132.743 358.743 132.875 360.023C133.006 361.304 133.431 362.538 134.117 363.628C134.811 364.683 135.711 365.588 136.764 366.287C137.816 366.987 139 367.467 140.242 367.698C140.883 367.801 141.532 367.848 142.181 367.839H143.338C143.497 367.846 143.652 367.895 143.787 367.979C143.818 368.003 143.843 368.033 143.862 368.066C143.88 368.1 143.892 368.137 143.896 368.176C143.923 368.238 143.938 368.304 143.938 368.372C143.938 368.44 143.923 368.506 143.896 368.568C143.896 368.624 143.896 368.624 143.839 368.624L143.783 368.681C143.654 368.777 143.495 368.827 143.333 368.821H142.157C140.814 368.777 139.481 369.067 138.278 369.664C135.44 373.088 134.85 378.142 135.131 382.27L135.469 382.831C136.226 383.856 137.193 384.709 138.306 385.331C139.443 385.919 140.704 386.227 141.984 386.229C143.188 386.229 144.385 386.03 145.524 385.639C146.073 385.439 146.608 385.205 147.126 384.937C147.378 384.797 147.631 384.628 147.883 384.488C148.142 384.356 148.379 384.186 148.586 383.982C149.372 383.393 150.075 382.831 150.89 382.325C154.146 380.43 157.829 379.387 161.597 379.293V379.293C161.868 379.266 162.119 379.138 162.301 378.936C162.483 378.734 162.582 378.471 162.581 378.199C162.559 377.945 162.448 377.708 162.268 377.528C162.088 377.349 161.85 377.238 161.597 377.216L161.854 377.103Z" fill="#022B42"/>
<path d="M138.471 369.607C136.869 369.607 122.819 374.577 123.663 387.182C124.561 400.884 139.904 395.156 136.728 388.334C135.954 386.356 135.48 384.274 135.322 382.157C135.019 378.001 135.637 373.032 138.471 369.607Z" fill="#0E80BD"/>
<path d="M127.797 385.663C127.927 385.799 128.041 385.95 128.135 386.113C128.197 386.255 128.234 386.407 128.243 386.562C128.231 386.735 128.195 386.905 128.135 387.067C128.055 387.281 127.941 387.48 127.797 387.657L127.741 387.713C127.651 387.821 127.526 387.894 127.388 387.919C127.25 387.945 127.107 387.922 126.984 387.854C126.771 387.717 126.581 387.546 126.422 387.348C126.306 387.172 126.239 386.969 126.225 386.759C126.187 386.542 126.206 386.318 126.281 386.111C126.373 385.86 126.528 385.637 126.731 385.462C126.857 385.376 127.009 385.334 127.162 385.344C127.315 385.355 127.46 385.416 127.573 385.519L127.797 385.663Z" fill="white"/>
<path d="M129.793 379.264C129.768 379.654 129.702 380.04 129.596 380.416C129.488 380.753 129.343 381.117 129.202 381.454C129.068 381.798 128.898 382.128 128.696 382.437C128.514 382.799 128.278 383.131 127.994 383.42C127.902 383.51 127.781 383.566 127.653 383.576C127.524 383.586 127.396 383.551 127.291 383.476C127.235 383.418 127.188 383.352 127.151 383.28C126.903 382.428 126.952 381.517 127.291 380.697C127.437 380.289 127.635 379.902 127.882 379.545C128.131 379.17 128.469 378.862 128.865 378.647C128.993 378.581 129.141 378.564 129.281 378.6C129.421 378.637 129.542 378.723 129.622 378.844C129.682 378.937 129.719 379.043 129.73 379.153L129.793 379.264Z" fill="white"/>
<path d="M260.231 262.214C261.917 261.315 263.631 260.558 265.314 259.827L270.397 257.581C272.083 256.825 273.74 256.037 275.372 255.251C277.03 254.465 278.66 253.594 280.318 252.724C280.393 252.685 280.475 252.661 280.56 252.655C280.644 252.65 280.729 252.662 280.808 252.691C280.888 252.72 280.96 252.765 281.021 252.824C281.082 252.883 281.13 252.954 281.162 253.032C281.228 253.143 281.254 253.275 281.234 253.403C281.214 253.531 281.15 253.648 281.053 253.735C279.753 255.178 278.259 256.435 276.614 257.469C275.023 258.559 273.34 259.508 271.584 260.305C269.852 261.115 268.069 261.809 266.244 262.382C264.419 262.976 262.549 263.427 260.653 263.73C260.551 263.751 260.446 263.75 260.344 263.728C260.242 263.706 260.146 263.663 260.062 263.602C259.977 263.541 259.906 263.464 259.853 263.374C259.8 263.285 259.766 263.185 259.753 263.082C259.735 262.906 259.771 262.729 259.856 262.575C259.942 262.42 260.073 262.295 260.231 262.217V262.214Z" fill="#022B42"/>
<path d="M243.934 260.445C244.371 260.057 244.876 259.752 245.423 259.546C245.941 259.332 246.477 259.163 247.025 259.041C247.574 258.948 248.127 258.882 248.683 258.845C249.269 258.837 249.854 258.903 250.424 259.041V259.041C250.608 259.096 250.764 259.221 250.859 259.388C250.953 259.556 250.979 259.753 250.93 259.939C250.888 260.056 250.821 260.161 250.733 260.248C250.31 260.664 249.827 261.014 249.3 261.287C248.792 261.546 248.254 261.744 247.699 261.877C247.15 262.032 246.583 262.117 246.013 262.13C245.402 262.17 244.79 262.084 244.214 261.877C244.1 261.84 243.993 261.781 243.902 261.703C243.81 261.625 243.735 261.53 243.68 261.423C243.625 261.316 243.592 261.199 243.583 261.08C243.573 260.96 243.587 260.839 243.625 260.725C243.681 260.67 243.793 260.586 243.934 260.445V260.445Z" fill="#022B42"/>
<path d="M254.049 270.693C255.146 270.1 256.282 269.584 257.45 269.148C258.601 268.699 259.697 268.363 260.85 267.941L264.25 266.847C265.402 266.51 266.498 266.09 267.677 265.751C267.759 265.727 267.844 265.719 267.928 265.729C268.012 265.739 268.094 265.766 268.167 265.808C268.241 265.85 268.305 265.906 268.356 265.974C268.407 266.041 268.444 266.118 268.465 266.2C268.49 266.312 268.49 266.428 268.466 266.54C268.441 266.652 268.393 266.757 268.324 266.849C267.405 267.763 266.365 268.547 265.233 269.179C264.138 269.808 262.991 270.343 261.805 270.779C260.62 271.189 259.409 271.517 258.18 271.761C256.949 272.006 255.698 272.138 254.443 272.155C254.23 272.153 254.025 272.071 253.869 271.926C253.713 271.78 253.616 271.582 253.599 271.369C253.597 271.224 253.638 271.082 253.719 270.961C253.799 270.84 253.915 270.746 254.049 270.693V270.693Z" fill="#022B42"/>
<path d="M180.934 338.273C181.44 338.778 182.03 339.368 182.62 339.873C182.929 340.126 183.209 340.378 183.519 340.63C183.662 340.751 183.812 340.864 183.969 340.967L184.475 341.304C185.753 342.19 187.107 342.96 188.521 343.606C189.232 343.936 189.964 344.217 190.713 344.449C191.049 344.557 191.47 344.702 191.809 344.842C192.147 344.983 192.566 345.038 192.96 345.178C193.354 345.272 193.747 345.365 194.14 345.459L195.349 345.768C196.136 345.909 196.951 346.077 197.794 346.274H197.846C197.927 346.296 198.003 346.333 198.07 346.385C198.137 346.436 198.192 346.5 198.234 346.573C198.276 346.646 198.303 346.727 198.313 346.81C198.324 346.894 198.318 346.978 198.295 347.06V347.06C198.266 347.177 198.202 347.282 198.112 347.362C198.021 347.442 197.909 347.493 197.789 347.509C196.947 347.65 196.047 347.762 195.204 347.818H193.907C193.472 347.813 193.038 347.777 192.609 347.71C192.16 347.654 191.71 347.602 191.311 347.513C190.862 347.405 190.412 347.317 190.019 347.204C187.394 346.564 184.97 345.28 182.966 343.47C181.578 342.278 180.488 340.777 179.784 339.089C179.715 338.899 179.723 338.69 179.807 338.506C179.891 338.322 180.044 338.179 180.233 338.107C180.377 338.048 180.535 338.035 180.686 338.07C180.838 338.106 180.974 338.187 181.077 338.303L180.934 338.273Z" fill="#022B42"/>
<path d="M127.994 331.2C127.517 331.891 126.927 332.497 126.25 332.994C125.593 333.488 124.875 333.894 124.114 334.201C122.603 334.841 120.978 335.166 119.337 335.157L118.129 335.1C117.735 335.044 117.343 334.992 116.921 334.904C116.139 334.763 115.369 334.566 114.616 334.314C113.859 334.006 113.183 333.725 112.481 333.36C111.832 332.966 111.183 332.573 110.542 332.124C110.428 332.036 110.347 331.912 110.312 331.772C110.276 331.632 110.289 331.484 110.347 331.352C110.405 331.22 110.505 331.111 110.632 331.043C110.759 330.974 110.906 330.95 111.048 330.974H111.109C111.866 331.113 112.542 331.281 113.244 331.478L114.284 331.675C114.62 331.731 114.986 331.815 115.323 331.872C116.026 331.928 116.672 332.124 117.378 332.124C117.715 332.124 118.027 332.232 118.361 332.232H119.344C120.653 332.216 121.954 332.047 123.223 331.727L123.729 331.586C123.874 331.527 124.024 331.48 124.178 331.446C124.488 331.312 124.808 331.2 125.134 331.109C125.441 330.995 125.741 330.864 126.032 330.716C126.173 330.608 126.342 330.576 126.482 330.463C126.608 330.387 126.739 330.321 126.876 330.267L127.072 330.159C127.162 330.119 127.259 330.098 127.358 330.097C127.457 330.095 127.555 330.113 127.646 330.15C127.738 330.187 127.821 330.241 127.891 330.31C127.962 330.379 128.018 330.461 128.056 330.552C128.102 330.656 128.121 330.77 128.111 330.883C128.101 330.997 128.063 331.106 128 331.2H127.994Z" fill="#022B42"/>
<path d="M190.094 283.749C201.813 286.331 202.908 294.755 202.908 314.52C202.908 326.116 201.813 333.332 198.974 336.781C197.629 336.829 196.284 336.678 194.984 336.331C185.374 333.889 182.17 326.729 182.17 305.56C182.17 293.907 182.927 286.777 185.711 283.299C187.185 283.263 188.658 283.414 190.094 283.749Z" fill="white"/>
<path d="M194.984 336.336C196.284 336.682 197.629 336.833 198.974 336.785C196.979 339.171 194.085 339.761 190.094 338.778C180.484 336.336 177.281 329.176 177.281 308.006C177.281 291.329 178.826 283.861 185.717 283.299C182.935 286.724 182.176 293.912 182.176 305.56C182.17 326.761 185.317 333.95 194.984 336.336Z" fill="#022B42"/>
<path d="M118.693 272.04C130.41 274.624 131.507 283.046 131.507 302.813C131.507 314.408 130.467 321.623 127.572 325.073C126.228 325.122 124.883 324.97 123.583 324.625C113.916 322.182 110.769 315.023 110.769 293.852C110.769 282.201 111.526 275.069 114.31 271.592C115.785 271.531 117.261 271.682 118.693 272.04V272.04Z" fill="white"/>
<path d="M123.555 324.628C124.855 324.974 126.2 325.125 127.544 325.077C125.549 327.464 122.655 328.053 118.665 327.07C108.999 324.628 105.852 317.468 105.852 296.299C105.852 279.621 107.397 272.152 114.287 271.592C111.505 275.016 110.746 282.204 110.746 293.852C110.797 315.026 113.944 322.185 123.555 324.628Z" fill="#022B42"/>
<path d="M121.869 299.976C121.869 302.616 121.475 303.514 120.183 303.205C118.89 302.896 118.497 301.908 118.497 299.134C118.497 296.496 118.806 295.596 120.183 295.906C121.728 296.243 121.869 297.394 121.869 299.976Z" fill="#022B42"/>
<path d="M193.242 311.713C193.242 314.352 192.848 315.251 191.555 314.942C190.263 314.633 189.869 313.645 189.869 310.87C189.869 308.231 190.179 307.333 191.555 307.641C193.101 307.978 193.242 309.074 193.242 311.713Z" fill="#022B42"/>
<path d="M268.652 117.494C263.903 114.22 258.683 111.693 253.173 110.002C247.609 108.104 241.925 106.582 236.159 105.446C229.978 104.192 223.739 103.225 217.502 102.456C210.724 101.687 203.862 101.203 197.031 100.947C189.885 100.691 182.74 100.631 175.594 100.89C168.703 101.146 161.869 101.601 155.035 102.342C148.736 103.054 142.473 103.965 136.264 105.218C130.543 106.32 124.898 107.785 119.362 109.603C113.833 111.482 108.247 113.703 103.426 117.088C101.215 118.653 98.8893 120.567 97.7828 123.152C96.6207 125.886 97.8962 128.505 99.7396 130.531C101.594 132.435 103.716 134.056 106.038 135.344C108.556 136.805 111.182 138.071 113.893 139.13C119.53 141.35 125.333 143.121 131.247 144.427C137.237 145.829 143.294 146.922 149.395 147.701C156.087 148.612 162.779 149.211 169.499 149.581C176.588 149.979 183.734 150.15 190.88 149.979C197.884 149.866 204.802 149.467 211.75 148.868C218.187 148.271 224.623 147.445 231.004 146.306C236.74 145.296 242.419 143.985 248.018 142.377C253.97 140.785 259.711 138.481 265.117 135.514C267.413 134.28 269.532 132.737 271.415 130.93C273.316 128.965 274.985 126.374 274.024 123.551C273.076 121.081 270.81 119.059 268.652 117.494ZM185.768 146.737C177.43 146.737 169.065 146.421 160.729 145.74C153.441 145.142 146.097 144.288 138.838 142.949C132.961 141.972 127.161 140.574 121.484 138.763C117.329 137.545 113.367 135.743 109.716 133.41C107.616 131.959 105.292 129.932 104.895 127.204C104.498 124.674 106.115 122.448 107.901 120.879C110.952 118.425 114.407 116.527 118.11 115.269C123.374 113.311 128.789 111.787 134.301 110.713C141.181 109.316 148.128 108.271 155.114 107.582C163.224 106.784 171.362 106.271 179.5 106.129C188.004 105.987 196.514 106.129 204.993 106.641C212.593 107.098 220.135 107.866 227.678 109.005C233.946 109.917 240.149 111.23 246.251 112.935C250.839 114.109 255.274 115.82 259.466 118.031C262.018 119.456 264.853 121.306 266.1 124.04C266.545 125.102 266.677 126.271 266.481 127.406C266.285 128.541 265.77 129.597 264.995 130.447C262.84 133.124 259.522 134.889 256.402 136.256C251.64 138.323 246.693 139.934 241.629 141.068C235.048 142.631 228.383 143.81 221.666 144.599C213.812 145.567 205.985 146.165 198.074 146.478C194.076 146.706 189.878 146.735 185.768 146.735V146.737Z" fill="white"/>
<path d="M245.825 37.0548C245.116 36.9979 244.406 36.941 243.725 36.941C242.938 36.917 242.152 36.8505 241.372 36.7418C240.046 36.5476 238.744 36.2137 237.487 35.7456C235.643 34.845 233.894 33.7575 232.27 32.4999C229.326 30.519 226.246 28.7492 223.054 27.2038C218.985 25.2448 214.742 23.6725 210.381 22.5076C199.281 19.5011 187.576 19.5897 176.523 22.7637C173.262 23.7599 170.029 24.9279 166.853 26.2424C164.621 27.2741 162.151 27.6778 159.708 27.4104C155.341 26.6978 152.674 22.9682 149.499 20.2348C146.68 17.8233 143.587 15.7554 140.283 14.0744C136.032 11.9339 131.538 10.3184 126.9 9.26325C121.142 7.96428 115.253 7.35285 109.352 7.44168C106.066 7.49624 102.803 8.00381 99.6545 8.95017C96.4034 9.9192 93.2799 11.2768 90.3513 12.9939C87.3305 14.7778 84.4992 16.8671 81.9016 19.2292C79.2823 21.645 76.9083 24.316 74.8144 27.2028C72.6969 30.1373 70.9269 33.3096 69.5403 36.6553C68.1355 40.0073 67.1343 43.5158 66.5579 47.1062C65.9997 50.7641 65.952 54.4824 66.4161 58.1536C66.9265 62.086 67.9761 65.9286 69.5351 69.5722C71.3022 73.6286 73.6005 77.43 76.3692 80.8758C79.6249 84.8815 83.315 88.5104 87.3709 91.6956C89.6395 93.4613 91.99 95.1416 94.4045 96.707C94.858 92.0688 95.4543 87.4253 96.2763 82.7554C96.8715 79.3094 97.3261 75.779 99.3952 72.9033C102.656 68.265 108.611 67.038 113.942 67.6642C117.171 68.0546 120.314 68.9782 123.243 70.3976C124.837 71.1494 126.38 72.0054 127.862 72.9602C129.239 73.9137 130.669 74.7883 132.144 75.5798C138.384 78.6928 145.378 79.9558 152.307 79.2208C160.55 78.3884 168.523 75.8079 175.699 71.6499C178.421 70.1414 180.916 68.3188 183.638 66.8377C185.465 65.8334 187.359 64.9581 189.307 64.2182C193.138 62.713 197.172 61.7916 201.275 61.4848C205.254 61.1688 209.254 61.7427 212.986 63.1651C216.82 64.6364 220.203 67.0908 222.798 70.2837C225.951 74.3457 228.186 79.0482 229.347 84.0646C230.099 87.2666 230.602 90.5225 230.851 93.8029C230.992 95.6824 231.049 97.5335 231.106 99.413V100.182C231.106 100.438 231.049 100.324 231.304 100.498C231.431 100.544 231.566 100.564 231.701 100.555L233.459 100.871C234.622 101.07 235.785 101.326 236.918 101.582C245.68 103.255 254.23 105.899 262.411 109.464C266.31 111.165 269.94 113.429 273.186 116.184C276.107 118.803 278.574 122.391 278.12 126.548C277.61 131.132 273.838 134.692 270.238 137.141C265.928 140.035 261.256 142.343 256.343 144.002C250.066 146.263 243.63 148.053 237.089 149.357C229.248 150.97 221.325 152.149 213.355 152.887C204.451 153.741 195.491 154.14 186.558 154.197C177.455 154.254 168.41 153.855 159.336 153.029C150.483 152.262 141.686 150.95 132.994 149.1C128.825 148.189 124.685 147.192 120.659 145.911C123.37 147.163 126.143 148.275 128.967 149.243C131.887 150.297 134.808 151.207 137.813 152.061C143.948 153.779 150.178 155.129 156.472 156.104C162.909 157.101 169.459 157.813 175.925 158.212C182.39 158.612 189.11 158.782 195.689 158.668C202.125 158.554 208.506 158.212 214.915 157.614C221.039 157.044 227.197 156.303 233.261 155.279C238.847 154.368 244.376 153.257 249.906 151.891C254.727 150.666 259.576 149.328 264.254 147.648C268.188 146.277 272.034 144.661 275.767 142.807C278.615 141.39 281.281 139.631 283.706 137.568C284.637 136.761 285.465 135.843 286.173 134.835C286.786 133.899 287.291 132.896 287.677 131.845C288.713 129.127 289.555 126.339 290.196 123.501C291.008 119.949 291.633 116.357 292.068 112.739C292.563 108.618 292.846 104.474 292.918 100.324C292.976 95.9405 292.777 91.5575 292.323 87.1976C291.847 82.7672 291.04 78.379 289.908 74.0702C288.771 69.8097 287.204 65.677 285.229 61.7367C283.297 57.9 280.865 54.3381 277.999 51.1446C275.012 47.866 271.522 45.0893 267.66 42.9201C263.375 40.5498 258.743 38.8775 253.935 37.9656C251.251 37.5082 248.543 37.2041 245.825 37.0548V37.0548Z" fill="#FF7751"/>
<path d="M136.227 149.726C146.277 151.66 156.44 152.944 166.653 153.57C177.187 154.268 187.752 154.382 198.299 153.911C208.099 153.528 217.869 152.587 227.563 151.093C235.75 149.866 243.834 148.029 251.75 145.597C257.804 143.848 263.602 141.301 268.99 138.023C273.272 135.29 278.15 131.161 278.235 125.637C278.348 120.882 274.719 117.038 271.146 114.419C267.11 111.56 262.715 109.252 258.074 107.556C253.293 105.742 248.406 104.22 243.442 103C240.89 102.346 238.253 101.775 235.701 101.291L231.617 100.523C231.475 100.466 231.277 100.523 231.22 100.381V99.1842C231.22 98.615 231.22 98.0173 231.163 97.4196C230.908 90.3009 229.86 82.9261 226.74 76.4051C224.813 71.9288 221.609 68.1257 217.532 65.4751C213.456 62.8245 208.689 61.4452 203.833 61.511C199.106 61.5046 194.417 62.3619 189.996 64.041C187.749 64.9017 185.56 65.9103 183.445 67.0601C182.339 67.6578 181.29 68.3124 180.213 69.024C177.991 70.4788 175.69 71.8098 173.322 73.0108C165.127 77.1399 155.968 79.7879 146.752 79.3599C142.787 79.2105 138.876 78.3908 135.182 76.9354C133.418 76.2457 131.719 75.3971 130.107 74.4001C128.406 73.346 126.789 72.1801 124.974 71.2113C118.935 68.0225 111.137 66.0007 104.615 68.7868C101.845 70.0008 99.6008 72.1735 98.2919 74.9093C97.5254 76.7938 96.9828 78.7625 96.6752 80.7746C96.165 83.4511 95.7105 86.1845 95.3703 88.861C94.0437 98.5747 93.3239 108.362 93.2151 118.166C93.1584 120.501 93.1584 122.751 93.1584 125.086C93.1585 126.305 93.36 127.516 93.7547 128.67C94.6157 130.853 95.9753 132.803 97.724 134.362C100.74 137.087 104.166 139.317 107.875 140.968C112.326 143.065 116.934 144.808 121.657 146.178C126.474 147.619 131.352 148.758 136.227 149.726ZM268.65 133.353C263.894 136.624 258.675 139.158 253.168 140.871C247.596 142.742 241.914 144.263 236.154 145.427C229.973 146.68 223.734 147.648 217.496 148.416C210.719 149.186 203.856 149.67 197.025 149.926C189.879 150.182 182.735 150.242 175.589 149.983C168.698 149.726 161.864 149.271 155.03 148.53C148.731 147.818 142.468 146.908 136.258 145.654C130.538 144.552 124.893 143.087 119.357 141.269C113.828 139.391 108.242 137.169 103.421 133.785C101.209 132.219 98.884 130.306 97.7775 127.72C96.6154 124.987 97.8909 122.367 99.7343 120.341C101.598 118.463 103.719 116.862 106.033 115.586C108.551 114.124 111.177 112.858 113.888 111.799C119.524 109.58 125.326 107.809 131.238 106.502C137.228 105.101 143.285 104.008 149.386 103.228C156.078 102.317 162.771 101.718 169.491 101.348C176.58 100.95 183.726 100.836 190.872 100.95C197.876 101.064 204.794 101.462 211.741 102.061C218.179 102.659 224.615 103.484 230.995 104.624C236.731 105.633 242.411 106.944 248.009 108.552C253.962 110.145 259.703 112.449 265.108 115.415C267.405 116.65 269.524 118.192 271.407 119.999C273.307 121.964 274.976 124.555 274.016 127.379C273.076 129.766 270.81 131.788 268.652 133.353H268.65Z" fill="#FFAF51"/>
<path d="M185.767 106.132C177.43 106.132 169.065 106.448 160.729 107.129C153.441 107.727 146.097 108.581 138.838 109.92C132.961 110.897 127.161 112.295 121.484 114.105C117.329 115.324 113.368 117.126 109.716 119.459C107.616 120.91 105.292 122.937 104.895 125.665C104.498 128.195 106.115 130.421 107.901 131.99C110.952 134.444 114.407 136.342 118.11 137.6C123.374 139.557 128.789 141.08 134.301 142.153C141.181 143.551 148.128 144.596 155.114 145.285C163.224 146.082 171.362 146.595 179.5 146.738C188.004 146.88 196.514 146.738 204.993 146.225C212.593 145.769 220.135 145.001 227.678 143.861C233.953 142.948 240.165 141.645 246.279 139.961C250.867 138.786 255.302 137.075 259.494 134.864C262.046 133.44 264.882 131.589 266.129 128.855C266.573 127.793 266.705 126.625 266.509 125.49C266.314 124.355 265.798 123.299 265.023 122.449C262.868 119.773 259.551 118.007 256.431 116.64C251.668 114.573 246.721 112.962 241.657 111.829C235.076 110.265 228.411 109.086 221.694 108.297C213.84 107.33 206.014 106.731 198.102 106.418C194.075 106.189 189.878 106.102 185.767 106.132Z" fill="#022B42"/>
<path d="M94.7718 130.677L94.6584 130.535L94.7718 130.677Z" fill="white"/>
<path d="M94.375 129.965L94.3184 129.823L94.375 129.965Z" fill="white"/>
<path d="M94.0633 129.282L94.0066 129.139L94.0633 129.282Z" fill="white"/>
<path d="M95.7357 132.101L95.6223 131.959L95.7357 132.101Z" fill="white"/>
<path d="M93.7798 128.513L93.7231 128.399L93.7798 128.513Z" fill="white"/>
<path d="M95.2254 131.389C95.1688 131.332 95.1688 131.275 95.1121 131.246C95.1427 131.299 95.1809 131.347 95.2254 131.389V131.389Z" fill="white"/>
<path d="M98.2604 134.774L98.2026 134.718L98.2604 134.774Z" fill="white"/>
<path d="M96.2752 132.813L96.1619 132.67L96.2752 132.813Z" fill="white"/>
<path d="M98.9974 135.432L98.9407 135.375L98.9974 135.432Z" fill="white"/>
<path d="M96.8988 133.467L96.7854 133.354L96.8988 133.467Z" fill="white"/>
<path d="M97.5506 134.122L97.4373 134.008L97.5506 134.122Z" fill="white"/>
<path d="M152.813 23.3583C152.813 23.3583 158.482 31.3877 160.668 35.9438C162.823 40.4998 164.581 37.6241 158.513 27.0025C156.365 26.2318 154.417 24.9864 152.813 23.3583V23.3583Z" fill="#022B42"/>
<path d="M235.107 34.5249C238.28 37.2158 241.016 40.386 243.217 43.9216C245.826 48.2215 248.746 46.4515 241.402 36.746C239.23 36.2377 237.119 35.4929 235.107 34.5249V34.5249Z" fill="#022B42"/>
<path d="M117.514 18.1476H119.22C120.667 18.2046 122.141 18.3469 123.559 18.5461C124.013 18.603 124.466 18.6884 124.976 18.8023C125.487 18.9161 125.941 19.0015 126.423 19.1185C127.415 19.3177 128.493 19.6308 129.599 19.9734C130.704 20.3016 131.791 20.6901 132.854 21.1372C133.422 21.3364 133.961 21.5926 134.527 21.8488C135.094 22.1049 135.634 22.3621 136.201 22.6468C136.768 22.963 137.251 23.2445 137.816 23.5006C138.368 23.7682 138.891 24.0925 139.376 24.4683C140.368 25.124 141.333 25.8387 142.24 26.5471C143.147 27.2555 143.942 27.9997 144.707 28.7113C145.086 29.0531 145.437 29.4246 145.757 29.8223L146.721 30.8765C147.316 31.5311 147.826 32.2469 148.281 32.8414C148.666 33.3384 149.017 33.8615 149.33 34.4068C149.897 35.3187 150.181 35.831 150.181 35.831C150.259 35.9783 150.276 36.1508 150.228 36.3107C150.181 36.4707 150.072 36.6052 149.926 36.6849C149.805 36.7587 149.662 36.7877 149.523 36.7669C149.383 36.7461 149.255 36.6768 149.16 36.571V36.5141C148.79 36.1245 148.439 35.716 148.111 35.2902C147.769 34.8918 147.344 34.4922 146.862 33.9799C146.607 33.7238 146.352 33.4676 146.069 33.2114C145.754 32.9553 145.502 32.6422 145.161 32.3576L144.169 31.4457C143.829 31.1295 143.46 30.848 143.063 30.535C142.666 30.2219 142.269 29.9372 141.843 29.6242C141.447 29.3079 140.993 29.0254 140.596 28.7123C140.199 28.3992 139.688 28.1146 139.232 27.8015L137.813 26.9466L136.368 26.0928C135.857 25.8366 135.375 25.5235 134.864 25.2958C133.872 24.7835 132.794 24.2986 131.802 23.8717C130.81 23.4447 129.732 23.0178 128.74 22.6478C127.747 22.3063 126.726 21.9352 125.819 21.679C124.912 21.4229 124.004 21.1098 123.154 20.9106C121.481 20.5121 120.091 20.1421 119.07 19.9998L117.907 19.8005L117.51 19.7436H117.457C117.245 19.7247 117.049 19.626 116.907 19.4674C116.765 19.3088 116.688 19.102 116.692 18.8887C116.696 18.7854 116.72 18.6839 116.764 18.5904C116.808 18.4968 116.87 18.413 116.947 18.3439C117.023 18.2748 117.113 18.2218 117.21 18.1881C117.308 18.1544 117.411 18.1407 117.514 18.1476V18.1476Z" fill="#022B42"/>
<path d="M133.392 33.6089C133.479 33.6216 133.564 33.6407 133.648 33.6658C133.846 33.7227 134.101 33.7796 134.413 33.865C134.81 33.9683 135.199 34.1015 135.576 34.2635C136.03 34.4627 136.54 34.605 137.022 34.8623L137.815 35.2607L138.667 35.7161C139.262 36.0324 139.829 36.4277 140.425 36.7703C141.047 37.1563 141.635 37.5946 142.182 38.0806C142.779 38.5719 143.349 39.0945 143.89 39.646L144.684 40.4998C144.939 40.8161 145.194 41.0975 145.45 41.4106C145.704 41.7003 145.941 42.0048 146.159 42.3225L146.754 43.2333C146.953 43.5495 147.151 43.831 147.321 44.144C147.469 44.4598 147.64 44.7645 147.831 45.0559C147.999 45.3313 148.151 45.6165 148.286 45.9097C148.427 46.226 148.484 46.479 148.601 46.7636C148.799 47.3339 148.998 47.8178 149.168 48.2731C149.285 48.6737 149.37 49.0829 149.423 49.497C149.564 50.1527 149.621 50.5512 149.621 50.5512C149.644 50.728 149.597 50.9067 149.492 51.0499C149.386 51.1931 149.229 51.2898 149.054 51.3196C148.927 51.3344 148.798 51.3125 148.683 51.2565C148.567 51.2005 148.47 51.1127 148.402 51.0034L148.346 50.9465C148.346 50.9465 148.147 50.6302 147.835 50.0926C147.693 49.7764 147.494 49.4938 147.324 49.0954C147.097 48.6703 146.842 48.2613 146.559 47.8715C146.417 47.6723 146.304 47.4161 146.105 47.16C145.907 46.9038 145.765 46.7035 145.595 46.4474L145.027 45.6789L144.432 44.9104L143.837 44.1409C143.616 43.8707 143.379 43.6141 143.128 43.3724L142.419 42.6039L141.653 41.8913C141.143 41.379 140.661 40.9236 140.15 40.4682C139.639 40.0128 139.1 39.6144 138.591 39.1579C138.111 38.7425 137.609 38.3529 137.088 37.991C136.633 37.6429 136.16 37.3195 135.67 37.0222C135.216 36.7661 134.819 36.453 134.451 36.2253C134.143 36.004 133.821 35.8043 133.487 35.6276C133.3 35.4947 133.1 35.3804 132.891 35.286L132.636 35.1437C132.543 35.0909 132.462 35.0193 132.398 34.9334C132.334 34.8475 132.288 34.7491 132.264 34.6446C132.24 34.5401 132.238 34.4317 132.258 34.3263C132.278 34.221 132.32 34.121 132.38 34.0326C132.806 33.7164 133.115 33.5488 133.402 33.6057L133.392 33.6089Z" fill="#022B42"/>
<path d="M253 47.0493C253.803 47.552 254.49 48.2217 255.013 49.0131C255.57 49.7749 255.983 50.6323 256.232 51.5431C256.478 52.4614 256.584 53.4117 256.547 54.3619C256.484 55.3205 256.213 56.2537 255.754 57.0963C255.658 57.2412 255.514 57.3467 255.347 57.3937C255.181 57.4407 255.003 57.4261 254.847 57.3525C254.71 57.2482 254.601 57.1108 254.532 56.953V56.8391C254.332 56.0422 254.217 55.2737 254.02 54.5622C253.824 53.8506 253.68 53.138 253.425 52.4539C253.17 51.7413 252.972 51.0835 252.66 50.3751C252.346 49.6564 252.09 48.9137 251.894 48.154L251.837 48.0117C251.806 47.9088 251.797 47.8007 251.809 47.6941C251.822 47.5874 251.856 47.4844 251.909 47.3912C251.962 47.298 252.033 47.2166 252.118 47.1519C252.204 47.0871 252.301 47.0404 252.405 47.0145C252.499 46.971 252.603 46.9514 252.707 46.9575C252.81 46.9636 252.911 46.9951 253 47.0493V47.0493Z" fill="#022B42"/>
<path d="M172.127 196.779C169.021 192.034 164.376 188.488 161.031 183.908C154.14 174.471 153.76 160.806 159.968 150.905C166.176 141.005 178.52 135.4 190.089 137.064C201.658 138.728 211.862 147.481 215.437 158.606C218.985 169.645 215.415 180.176 208.526 189.018C205.414 193.013 201.05 197.803 200.26 203.015C199.509 207.974 202.558 213.325 199.706 218.082C197.578 221.631 192.957 222.786 188.818 222.792C183.826 222.801 176.02 222.476 175.787 216.171C175.523 209.044 176.304 203.159 172.127 196.779Z" fill="#FFAF51"/>
<path d="M190.88 208.202C190.772 208.222 190.6 207.846 190.369 207.105C190.313 206.92 190.246 206.712 190.189 206.481C190.131 206.25 190.07 205.996 190.006 205.721C189.944 205.445 189.873 205.149 189.81 204.83C189.752 204.509 189.69 204.168 189.624 203.807C189.593 203.626 189.561 203.44 189.527 203.249C189.5 203.057 189.472 202.86 189.444 202.658C189.39 202.254 189.324 201.83 189.276 201.386C189.23 200.94 189.183 200.476 189.134 199.993C189.092 199.508 189.063 199.005 189.027 198.483C188.907 196.394 188.893 194.003 189.074 191.365C189.257 188.729 189.656 185.848 190.333 182.8C190.421 182.421 190.517 182.04 190.61 181.655C190.657 181.463 190.705 181.269 190.752 181.075C190.802 180.883 190.852 180.689 190.906 180.489C191.125 179.693 191.382 178.859 191.777 178.006C191.975 177.581 192.212 177.151 192.503 176.733C192.577 176.628 192.656 176.525 192.733 176.422C192.814 176.32 192.901 176.219 192.985 176.118C193.074 176.019 193.167 175.923 193.26 175.826C193.36 175.728 193.471 175.63 193.579 175.533C194.468 174.783 195.624 174.335 196.845 174.333C197.453 174.331 198.073 174.446 198.65 174.674C199.227 174.901 199.763 175.243 200.203 175.642C200.651 176.045 201.026 176.516 201.325 177.027C201.623 177.538 201.846 178.09 201.989 178.671C202.128 179.253 202.186 179.866 202.132 180.505C202.128 180.584 202.117 180.664 202.105 180.745L202.068 180.986C202.035 181.137 202.008 181.29 201.964 181.439L201.9 181.662C201.878 181.736 201.851 181.807 201.826 181.88C201.777 182.027 201.716 182.165 201.657 182.305C201.412 182.86 201.095 183.357 200.752 183.804C200.406 184.247 200.033 184.645 199.65 185.006C199.456 185.188 199.27 185.358 199.07 185.524C198.872 185.689 198.678 185.861 198.469 186.016C198.263 186.174 198.058 186.335 197.843 186.481L197.522 186.704C197.416 186.779 197.304 186.846 197.195 186.917C196.318 187.48 195.389 187.965 194.425 188.375C192.497 189.195 190.429 189.715 188.308 189.934C186.187 190.152 184.058 190.06 182.006 189.656C180.98 189.453 179.974 189.172 179.002 188.809C178.515 188.627 178.038 188.426 177.571 188.202C177.102 187.982 176.651 187.733 176.216 187.485C175.774 187.23 175.326 186.941 174.892 186.611C174.458 186.282 174.034 185.899 173.647 185.451C173.26 185.006 172.919 184.472 172.672 183.892C172.641 183.82 172.612 183.736 172.583 183.658C172.556 183.579 172.523 183.5 172.504 183.419C172.46 183.259 172.413 183.098 172.388 182.938C172.373 182.858 172.357 182.777 172.346 182.697L172.321 182.457C172.301 182.297 172.304 182.139 172.299 181.98C172.299 181.347 172.419 180.731 172.632 180.149C172.848 179.569 173.163 179.021 173.575 178.552C173.682 178.438 173.784 178.319 173.898 178.214L174.072 178.057L174.159 177.98C174.189 177.955 174.221 177.932 174.252 177.908C174.499 177.714 174.764 177.542 175.045 177.4C175.606 177.114 176.219 176.945 176.826 176.894C177.435 176.843 178.039 176.906 178.609 177.066C179.18 177.225 179.719 177.485 180.198 177.837L180.373 177.973L180.461 178.042L180.537 178.11C180.638 178.202 180.742 178.291 180.834 178.388C180.928 178.484 181.023 178.58 181.107 178.68L181.237 178.829C181.278 178.879 181.317 178.93 181.357 178.98C181.675 179.387 181.933 179.806 182.152 180.222C182.59 181.054 182.885 181.872 183.146 182.639C183.274 183.021 183.394 183.401 183.516 183.777C183.577 183.965 183.638 184.153 183.698 184.34C183.757 184.527 183.809 184.716 183.865 184.902C183.974 185.276 184.082 185.647 184.189 186.014C184.289 186.384 184.382 186.751 184.478 187.114C184.525 187.296 184.572 187.477 184.619 187.657C184.666 187.837 184.704 188.018 184.746 188.197C184.829 188.556 184.91 188.912 184.991 189.264C185.033 189.439 185.068 189.615 185.103 189.791C185.138 189.966 185.173 190.14 185.207 190.313C185.274 190.66 185.349 191.002 185.408 191.343C185.465 191.684 185.523 192.021 185.579 192.354C185.608 192.521 185.635 192.686 185.663 192.851C185.69 193.016 185.711 193.181 185.734 193.344C186.117 195.957 186.293 198.34 186.343 200.43C186.347 200.692 186.352 200.949 186.356 201.201C186.358 201.327 186.36 201.452 186.362 201.576C186.364 201.699 186.36 201.822 186.359 201.943C186.351 202.429 186.343 202.895 186.336 203.343C186.318 203.79 186.295 204.217 186.274 204.624C186.262 204.828 186.254 205.026 186.238 205.22C186.222 205.413 186.205 205.601 186.189 205.784C186.155 206.149 186.122 206.494 186.092 206.818C186.053 207.141 186.011 207.443 185.972 207.723C185.932 208.002 185.893 208.26 185.856 208.495C185.816 208.731 185.769 208.943 185.729 209.132C185.564 209.89 185.424 210.28 185.315 210.269C185.206 210.258 185.132 209.849 185.09 209.083C185.073 208.702 185.052 208.23 185.028 207.673C185.019 207.395 185.01 207.097 185 206.777C184.985 206.458 184.969 206.118 184.952 205.758C184.945 205.579 184.937 205.394 184.93 205.204C184.923 205.015 184.906 204.821 184.895 204.622C184.872 204.224 184.847 203.807 184.821 203.371C184.786 202.936 184.75 202.482 184.712 202.01C184.702 201.892 184.695 201.773 184.682 201.653C184.67 201.533 184.658 201.412 184.645 201.29C184.62 201.046 184.595 200.797 184.569 200.544C184.354 198.522 184.029 196.231 183.52 193.732C183.488 193.576 183.46 193.418 183.426 193.261C183.39 193.103 183.355 192.945 183.319 192.786C183.248 192.468 183.176 192.146 183.103 191.821C183.03 191.496 182.942 191.17 182.862 190.84C182.82 190.675 182.779 190.509 182.737 190.342C182.696 190.175 182.655 190.007 182.607 189.84C182.514 189.506 182.42 189.168 182.326 188.827C182.277 188.656 182.234 188.484 182.181 188.313C182.129 188.142 182.076 187.971 182.024 187.798C181.918 187.454 181.814 187.105 181.704 186.755C181.588 186.407 181.471 186.056 181.353 185.702C181.293 185.525 181.237 185.346 181.173 185.169C181.109 184.992 181.044 184.814 180.979 184.635C180.849 184.278 180.718 183.918 180.586 183.556C180.316 182.839 180.036 182.156 179.697 181.559C179.528 181.262 179.345 180.988 179.147 180.751C179.123 180.722 179.099 180.691 179.073 180.662L178.997 180.58C178.947 180.522 178.893 180.473 178.84 180.423C178.789 180.369 178.732 180.327 178.678 180.279L178.637 180.244L178.599 180.218L178.526 180.165C178.13 179.885 177.585 179.753 177.096 179.811C176.602 179.867 176.176 180.098 175.842 180.494C175.517 180.882 175.325 181.436 175.334 181.97C175.342 182.236 175.392 182.483 175.486 182.695C175.602 182.947 175.755 183.193 175.974 183.435C176.19 183.677 176.452 183.915 176.758 184.14C177.064 184.365 177.399 184.579 177.769 184.787C178.147 184.996 178.519 185.196 178.905 185.373C179.289 185.552 179.685 185.714 180.089 185.862C180.898 186.156 181.742 186.386 182.609 186.552C184.343 186.884 186.167 186.96 187.984 186.772C189.801 186.585 191.57 186.143 193.195 185.463C194.007 185.123 194.783 184.723 195.507 184.267C195.598 184.209 195.691 184.156 195.778 184.095L196.041 183.914C196.22 183.797 196.386 183.667 196.555 183.541C196.726 183.418 196.885 183.278 197.048 183.145C197.211 183.014 197.372 182.87 197.52 182.734C197.819 182.459 198.084 182.178 198.312 181.896C198.535 181.613 198.718 181.328 198.848 181.046C198.877 180.975 198.912 180.906 198.935 180.835C198.947 180.8 198.962 180.765 198.973 180.73L199.005 180.625C199.029 180.555 199.039 180.483 199.058 180.413L199.073 180.317C199.079 180.285 199.086 180.254 199.087 180.219C199.114 179.954 199.096 179.658 199.033 179.365C198.901 178.778 198.592 178.225 198.19 177.848C197.985 177.653 197.772 177.516 197.544 177.418C197.317 177.321 197.075 177.269 196.825 177.261C196.327 177.245 195.8 177.425 195.404 177.742C195.356 177.786 195.309 177.823 195.258 177.868L195.101 178.026L194.95 178.196L194.807 178.379C194.619 178.631 194.448 178.915 194.294 179.222C193.985 179.836 193.74 180.529 193.518 181.245C193.462 181.423 193.408 181.608 193.354 181.792C193.302 181.976 193.25 182.16 193.199 182.342C193.096 182.708 192.991 183.07 192.893 183.43C192.138 186.313 191.628 189.057 191.311 191.584C190.996 194.112 190.855 196.42 190.804 198.452C190.798 198.96 190.783 199.451 190.781 199.924C190.783 200.397 190.786 200.852 190.788 201.288C190.791 201.725 190.81 202.142 190.817 202.54C190.821 202.74 190.825 202.935 190.83 203.124C190.838 203.314 190.847 203.498 190.855 203.678C190.869 204.037 190.882 204.377 190.895 204.696C190.908 205.016 190.93 205.313 190.942 205.591C190.956 205.869 190.967 206.126 190.974 206.362C190.981 206.597 190.996 206.81 191.001 207.002C191.026 207.767 190.988 208.182 190.88 208.202Z" fill="#022B42"/>
<path d="M202.459 214.04C203.035 213.228 203.487 212.332 203.751 211.345C204.443 208.762 203.65 205.919 201.275 204.972C198.344 203.803 196.079 204.865 193.058 205.759C189.366 206.851 185.487 206.949 181.213 205.666C178.095 204.73 174.304 203.281 172.012 207.022C170.568 209.378 170.908 212.616 172.345 215.016C172.232 215.17 172.12 215.335 172.012 215.512C170.568 217.869 170.908 221.106 172.345 223.506C172.232 223.66 172.12 223.825 172.012 224.003C170.465 226.527 170.965 230.063 172.668 232.496C174.371 234.93 177.049 236.401 179.782 237.254C186.193 239.258 193.381 238.162 198.966 234.328C201.084 232.873 203.059 230.909 203.751 228.326C204.285 226.334 203.798 223.952 202.459 222.531C203.035 221.718 203.487 220.822 203.751 219.835C204.285 217.844 203.798 215.462 202.459 214.04Z" fill="#FF7751"/>
<path d="M199.886 215.282C199.933 215.334 199.908 215.444 199.804 215.616C199.749 215.696 199.674 215.79 199.578 215.893C199.479 215.989 199.362 216.105 199.22 216.212C198.659 216.665 197.754 217.143 196.601 217.581C196.024 217.8 195.385 218.009 194.692 218.206C193.995 218.403 193.248 218.579 192.452 218.737C190.861 219.049 189.067 219.259 187.178 219.251C185.288 219.248 183.501 219.031 181.917 218.733C181.125 218.585 180.375 218.417 179.682 218.238C178.989 218.06 178.348 217.871 177.768 217.678C177.188 217.486 176.669 217.289 176.22 217.095C175.772 216.9 175.393 216.707 175.094 216.53C174.493 216.171 174.217 215.873 174.279 215.753C174.344 215.625 174.724 215.676 175.373 215.794C175.7 215.852 176.094 215.929 176.553 216.014C177.012 216.099 177.536 216.193 178.116 216.291C178.696 216.389 179.332 216.492 180.017 216.594C180.702 216.698 181.431 216.798 182.202 216.891C183.74 217.079 185.422 217.226 187.183 217.229C188.945 217.236 190.623 217.096 192.152 216.898C192.916 216.797 193.644 216.688 194.318 216.571C194.996 216.453 195.624 216.331 196.194 216.21C197.333 215.967 198.235 215.723 198.842 215.522C198.998 215.476 199.127 215.425 199.249 215.39C199.366 215.349 199.468 215.315 199.556 215.293C199.722 215.239 199.839 215.231 199.886 215.282Z" fill="#022B42"/>
<path d="M200.618 223.568C200.666 223.619 200.638 223.732 200.529 223.91C200.471 223.993 200.393 224.091 200.293 224.199C200.191 224.3 200.069 224.42 199.922 224.533C199.341 225.009 198.404 225.525 197.207 226.007C196.608 226.248 195.945 226.484 195.224 226.706C194.499 226.929 193.724 227.136 192.895 227.323C191.24 227.697 189.372 227.977 187.39 228.032C185.408 228.092 183.521 227.906 181.848 227.612C180.173 227.318 178.699 226.919 177.483 226.509C176.268 226.097 175.314 225.663 174.69 225.29C174.065 224.918 173.77 224.622 173.829 224.499C173.89 224.37 174.291 224.421 174.974 224.556C175.657 224.692 176.633 224.903 177.845 225.126C179.057 225.346 180.506 225.587 182.115 225.767C183.724 225.949 185.486 226.066 187.333 226.01C189.181 225.959 190.94 225.752 192.54 225.493C193.34 225.364 194.103 225.224 194.807 225.081C195.515 224.938 196.173 224.79 196.767 224.646C197.958 224.359 198.899 224.076 199.533 223.849C199.695 223.796 199.831 223.74 199.958 223.699C200.08 223.653 200.186 223.615 200.278 223.589C200.451 223.529 200.571 223.517 200.618 223.568Z" fill="#022B42"/>
<path d="M192.697 116.514C192.697 120.515 189.371 123.615 185.272 123.758C180.164 123.936 177.847 120.515 177.847 116.514C177.847 112.513 180.578 109.27 184.678 109.27C190.262 109.27 192.697 112.513 192.697 116.514Z" fill="#04294F"/>
<path d="M190.47 127.108C190.47 129.365 188.64 131.114 186.386 131.195C183.577 131.295 182.302 129.365 182.302 127.108C182.302 124.851 183.804 123.022 186.06 123.022C189.131 123.022 190.47 124.851 190.47 127.108Z" fill="#04294F"/>
<path d="M185.53 132.354C185.79 132.367 186.05 132.328 186.295 132.239C186.54 132.151 186.766 132.015 186.958 131.839C187.151 131.663 187.307 131.451 187.417 131.214C187.528 130.978 187.59 130.722 187.602 130.461C187.663 128.751 187.663 127.102 187.663 125.392C187.663 123.682 187.602 122.033 187.48 120.323C187.297 116.965 187.053 113.606 186.627 110.247C186.627 109.988 186.524 109.739 186.341 109.556C186.158 109.373 185.91 109.27 185.651 109.27C185.393 109.27 185.145 109.373 184.962 109.556C184.779 109.739 184.676 109.988 184.676 110.247C184.25 113.606 184.006 116.965 183.823 120.323C183.762 122.033 183.701 123.682 183.64 125.392C183.64 127.102 183.64 128.751 183.701 130.461C183.696 130.706 183.739 130.95 183.828 131.178C183.917 131.406 184.05 131.614 184.22 131.79C184.391 131.967 184.594 132.107 184.819 132.204C185.043 132.301 185.285 132.352 185.53 132.354Z" fill="#FF7751"/>
<path d="M199.06 133.514C199.877 132.83 200.65 132.095 201.377 131.316C202.108 130.522 202.839 129.789 203.51 128.934C204.18 128.14 204.912 127.285 205.521 126.43C206.131 125.575 206.862 124.72 207.411 123.804C207.501 123.635 207.548 123.446 207.548 123.255C207.548 123.063 207.501 122.874 207.411 122.705C207.276 122.484 207.062 122.322 206.813 122.254C206.564 122.186 206.297 122.216 206.07 122.339H206.009C205.094 122.888 204.241 123.56 203.327 124.171C202.453 124.79 201.618 125.463 200.828 126.186C200.036 126.858 199.182 127.591 198.451 128.262C197.659 128.995 196.927 129.728 196.196 130.522C195.834 130.91 195.635 131.422 195.638 131.953C195.642 132.484 195.848 132.993 196.215 133.376C196.582 133.76 197.081 133.987 197.61 134.013C198.14 134.039 198.658 133.86 199.06 133.514V133.514Z" fill="#FF7751"/>
<path d="M165.965 126.553C166.635 127.407 167.306 128.201 168.037 129.056C168.707 129.85 169.439 130.644 170.17 131.438C170.902 132.232 171.694 132.904 172.486 133.637C172.676 133.817 172.901 133.958 173.146 134.05C173.391 134.142 173.652 134.183 173.914 134.172C174.176 134.16 174.432 134.096 174.669 133.983C174.905 133.87 175.116 133.711 175.29 133.514C175.467 133.331 175.606 133.113 175.699 132.875C175.792 132.637 175.837 132.383 175.831 132.128C175.825 131.872 175.769 131.62 175.666 131.387C175.563 131.153 175.414 130.942 175.229 130.766C174.498 129.972 173.766 129.24 172.974 128.507C172.182 127.774 171.389 127.102 170.597 126.43C169.805 125.759 168.951 125.087 168.098 124.415C167.238 123.756 166.343 123.144 165.416 122.583C165.225 122.406 164.975 122.308 164.715 122.308C164.455 122.308 164.205 122.406 164.014 122.583C163.838 122.774 163.74 123.025 163.74 123.285C163.74 123.546 163.838 123.796 164.014 123.988C164.685 124.843 165.355 125.698 165.965 126.553Z" fill="#FF7751"/>
</svg>
