<svg width="530" height="610" viewBox="0 0 530 610" fill="none" xmlns="http://www.w3.org/2000/svg">
<rect x="1" y="111" width="528" height="498" rx="7" stroke="#FF7751" stroke-width="2"/>
<path d="M484.321 486.301C484.844 500.097 480.234 514.28 470.186 524.041C455.564 538.239 433.796 542.304 413.379 542.445C370.556 542.744 327.605 528.872 285.457 536.414C259.621 541.039 235.947 553.435 212.752 565.682C189.56 577.93 165.909 590.356 140.084 595.051C114.261 599.746 85.4386 595.555 66.1062 577.864C47.5684 560.9 40.6238 534.141 42.2218 509.113C43.8176 484.085 52.8873 460.203 62.109 436.868C71.3308 413.534 80.9017 389.929 83.5879 364.995C87.7393 326.455 75.8442 284.117 95.6479 250.754C110.887 225.083 140.716 212.484 168.556 201.524C216.762 182.546 264.968 163.568 313.174 144.59C335.563 135.774 358.252 126.881 382.145 123.945C406.04 121.006 431.668 124.632 451.009 138.913C480.271 160.518 488.627 201.317 484.12 237.322C481.292 259.905 474.405 281.642 467.639 303.433C463.618 316.388 459.64 329.361 456.585 342.541C448.278 378.384 449.441 413.754 467.392 446.462C474.528 459.461 483.145 468.989 484.227 484.561C484.268 485.14 484.298 485.72 484.321 486.301Z" fill="#04294F"/>
<path d="M145.482 363.54C146.97 362.614 147.422 360.662 146.492 359.18C145.563 357.698 143.603 357.248 142.116 358.174C140.628 359.1 140.176 361.052 141.106 362.534C142.035 364.015 143.995 364.466 145.482 363.54Z" fill="#F04E23"/>
<path d="M267.003 331.455C268.49 330.529 268.942 328.577 268.013 327.096C267.083 325.614 265.124 325.163 263.636 326.089C262.149 327.016 261.697 328.968 262.626 330.449C263.556 331.931 265.515 332.382 267.003 331.455Z" fill="#FFB400"/>
<path d="M189.297 555.984C190.785 555.058 191.237 553.106 190.307 551.624C189.378 550.142 187.418 549.692 185.931 550.618C184.444 551.544 183.991 553.496 184.921 554.978C185.851 556.459 187.81 556.91 189.297 555.984Z" fill="#FFB400"/>
<path d="M94.6553 532.788C96.1426 531.862 96.5948 529.91 95.6652 528.428C94.7356 526.946 92.7762 526.496 91.2888 527.422C89.8015 528.348 89.3493 530.3 90.2789 531.782C91.2085 533.264 93.1679 533.714 94.6553 532.788Z" fill="#FFB400"/>
<path d="M386.476 204.837C387.963 203.911 388.415 201.959 387.486 200.477C386.556 198.995 384.597 198.545 383.109 199.471C381.622 200.397 381.17 202.349 382.099 203.831C383.029 205.312 384.988 205.763 386.476 204.837Z" fill="#FFB400"/>
<path d="M182.347 348.013C183.835 347.087 184.287 345.135 183.357 343.653C182.427 342.171 180.468 341.721 178.981 342.647C177.493 343.573 177.041 345.525 177.971 347.007C178.9 348.489 180.86 348.939 182.347 348.013Z" fill="#FFB400"/>
<path d="M304.769 423.166C306.256 422.24 306.709 420.288 305.779 418.806C304.849 417.324 302.89 416.874 301.403 417.8C299.915 418.726 299.463 420.678 300.393 422.16C301.322 423.642 303.282 424.092 304.769 423.166Z" fill="#FFB400"/>
<path d="M283.165 487.696C284.653 486.77 285.105 484.818 284.175 483.336C283.246 481.855 281.286 481.404 279.799 482.33C278.311 483.256 277.859 485.208 278.789 486.69C279.719 488.172 281.678 488.622 283.165 487.696Z" fill="#FFB400"/>
<path d="M135.258 320.621C136.746 319.695 137.198 317.743 136.268 316.261C135.339 314.779 133.379 314.329 131.892 315.255C130.404 316.181 129.952 318.133 130.882 319.615C131.812 321.096 133.771 321.547 135.258 320.621Z" fill="#FFB400"/>
<path d="M120.008 264.134C121.496 263.208 121.948 261.256 121.018 259.774C120.089 258.293 118.129 257.842 116.642 258.768C115.154 259.694 114.702 261.646 115.632 263.128C116.562 264.61 118.521 265.06 120.008 264.134Z" fill="#F04E23"/>
<path d="M228.76 229.849C230.248 228.923 230.7 226.971 229.77 225.489C228.841 224.007 226.881 223.557 225.394 224.483C223.906 225.409 223.454 227.361 224.384 228.843C225.313 230.325 227.273 230.775 228.76 229.849Z" fill="#FFB400"/>
<path d="M263.828 181.907C265.316 180.981 265.768 179.029 264.838 177.547C263.908 176.066 261.949 175.615 260.462 176.541C258.974 177.467 258.522 179.419 259.452 180.901C260.381 182.383 262.341 182.833 263.828 181.907Z" fill="#FFB400"/>
<path d="M195.846 307.77C196.836 307.154 197.137 305.854 196.518 304.868C195.899 303.881 194.595 303.581 193.605 304.198C192.614 304.814 192.313 306.114 192.932 307.1C193.551 308.087 194.856 308.387 195.846 307.77Z" fill="#FFB400"/>
<path d="M166.96 338.974C167.95 338.357 168.251 337.058 167.632 336.071C167.013 335.085 165.709 334.785 164.718 335.401C163.728 336.018 163.427 337.317 164.046 338.304C164.665 339.29 165.969 339.59 166.96 338.974Z" fill="#F04E23"/>
<path d="M190.852 263.352C191.842 262.736 192.143 261.436 191.525 260.45C190.906 259.463 189.601 259.163 188.611 259.78C187.621 260.397 187.32 261.696 187.939 262.683C188.558 263.669 189.862 263.969 190.852 263.352Z" fill="#F04E23"/>
<path d="M279.309 172.773C280.299 172.156 280.6 170.857 279.981 169.87C279.362 168.884 278.058 168.584 277.068 169.2C276.077 169.817 275.776 171.116 276.395 172.103C277.014 173.089 278.318 173.389 279.309 172.773Z" fill="#F04E23"/>
<path d="M150.812 293.991C151.802 293.374 152.104 292.075 151.485 291.088C150.866 290.102 149.561 289.802 148.571 290.418C147.581 291.035 147.28 292.334 147.899 293.321C148.518 294.307 149.822 294.607 150.812 293.991Z" fill="#F04E23"/>
<path d="M211.838 376.699C212.828 376.083 213.129 374.783 212.51 373.797C211.891 372.81 210.587 372.511 209.597 373.127C208.607 373.744 208.306 375.043 208.924 376.03C209.543 377.016 210.848 377.316 211.838 376.699Z" fill="#F04E23"/>
<path d="M134.696 304.81C135.686 304.193 135.987 302.894 135.368 301.907C134.749 300.921 133.445 300.621 132.455 301.237C131.465 301.854 131.164 303.153 131.782 304.14C132.401 305.126 133.706 305.426 134.696 304.81Z" fill="#FFB400"/>
<path d="M407.784 327.396C408.774 326.779 409.075 325.48 408.456 324.493C407.837 323.507 406.533 323.207 405.543 323.823C404.552 324.44 404.251 325.74 404.87 326.726C405.489 327.712 406.794 328.012 407.784 327.396Z" fill="#FFB400"/>
<path d="M294.963 289.447C295.953 288.83 296.254 287.531 295.635 286.544C295.016 285.558 293.712 285.258 292.722 285.875C291.731 286.491 291.43 287.791 292.049 288.777C292.668 289.763 293.973 290.063 294.963 289.447Z" fill="#FFB400"/>
<path d="M86.9014 413.434C87.8916 412.818 88.1926 411.518 87.5738 410.532C86.9549 409.545 85.6505 409.246 84.6603 409.862C83.6701 410.479 83.3691 411.778 83.988 412.765C84.6068 413.751 85.9112 414.051 86.9014 413.434Z" fill="#FFB400"/>
<path d="M431.451 226.401C432.441 225.785 432.742 224.485 432.123 223.499C431.505 222.512 430.2 222.212 429.21 222.829C428.22 223.445 427.919 224.745 428.538 225.731C429.156 226.718 430.461 227.018 431.451 226.401Z" fill="#FFB400"/>
<path d="M372.158 188.852C373.149 188.235 373.45 186.936 372.831 185.949C372.212 184.963 370.908 184.663 369.917 185.279C368.927 185.896 368.626 187.195 369.245 188.182C369.864 189.168 371.168 189.468 372.158 188.852Z" fill="#FFB400"/>
<path d="M421.741 168.561C422.731 167.944 423.032 166.645 422.414 165.658C421.795 164.672 420.49 164.372 419.5 164.989C418.51 165.605 418.209 166.905 418.828 167.891C419.447 168.877 420.751 169.177 421.741 168.561Z" fill="#FFB400"/>
<path d="M106.079 336.866C107.069 336.25 107.37 334.95 106.751 333.964C106.132 332.978 104.828 332.678 103.838 333.294C102.847 333.911 102.546 335.21 103.165 336.197C103.784 337.183 105.089 337.483 106.079 336.866Z" fill="#FFB400"/>
<path d="M188.738 243.663C189.728 243.047 190.029 241.747 189.41 240.761C188.792 239.774 187.487 239.474 186.497 240.091C185.507 240.707 185.206 242.007 185.825 242.993C186.444 243.98 187.748 244.28 188.738 243.663Z" fill="#FFB400"/>
<path d="M229.177 471.088C229.865 469.48 229.115 467.622 227.501 466.936C225.888 466.251 224.022 466.998 223.334 468.605C222.646 470.213 223.396 472.071 225.01 472.757C226.623 473.442 228.489 472.695 229.177 471.088Z" fill="#F04E23"/>
<path d="M411.685 155.623C412.373 154.015 411.623 152.157 410.01 151.471C408.397 150.786 406.531 151.533 405.843 153.14C405.155 154.748 405.905 156.606 407.518 157.292C409.132 157.977 410.997 157.23 411.685 155.623Z" fill="#F04E23"/>
<path d="M417.346 346.569C418.034 344.962 417.284 343.104 415.671 342.418C414.057 341.733 412.192 342.48 411.503 344.087C410.815 345.694 411.565 347.553 413.179 348.238C414.792 348.924 416.658 348.177 417.346 346.569Z" fill="#F04E23"/>
<path d="M391.853 520.51C392.541 518.903 391.791 517.045 390.178 516.359C388.565 515.674 386.699 516.421 386.011 518.028C385.323 519.635 386.073 521.494 387.686 522.179C389.3 522.865 391.165 522.118 391.853 520.51Z" fill="#FFB400"/>
<path d="M226.808 438.657C227.496 437.05 226.746 435.191 225.133 434.506C223.52 433.82 221.654 434.568 220.966 436.175C220.278 437.782 221.028 439.641 222.641 440.326C224.254 441.012 226.12 440.265 226.808 438.657Z" fill="#FFB400"/>
<path d="M95.889 395.704C96.5771 394.097 95.827 392.238 94.2137 391.553C92.6004 390.867 90.7347 391.615 90.0467 393.222C89.3586 394.829 90.1086 396.688 91.722 397.373C93.3353 398.059 95.2009 397.312 95.889 395.704Z" fill="#FFB400"/>
<path d="M345.482 355.185C346.17 353.578 345.42 351.719 343.807 351.034C342.193 350.348 340.328 351.096 339.64 352.703C338.952 354.31 339.702 356.169 341.315 356.854C342.928 357.54 344.794 356.793 345.482 355.185Z" fill="#FFB400"/>
<path d="M287.57 275.329C288.258 273.721 287.508 271.863 285.895 271.177C284.282 270.492 282.416 271.239 281.728 272.846C281.04 274.453 281.79 276.312 283.403 276.998C285.017 277.683 286.882 276.936 287.57 275.329Z" fill="#FFB400"/>
<path d="M382.766 417.265C383.455 415.658 382.704 413.799 381.091 413.114C379.478 412.428 377.612 413.176 376.924 414.783C376.236 416.39 376.986 418.249 378.599 418.934C380.213 419.62 382.078 418.873 382.766 417.265Z" fill="#F04E23"/>
<path d="M305.998 191.471C306.686 189.864 305.936 188.005 304.323 187.32C302.709 186.634 300.844 187.382 300.156 188.989C299.467 190.596 300.218 192.455 301.831 193.14C303.444 193.826 305.31 193.078 305.998 191.471Z" fill="#F04E23"/>
<path d="M139.664 430.798C140.352 429.191 139.602 427.332 137.988 426.647C136.375 425.961 134.509 426.708 133.821 428.316C133.133 429.923 133.883 431.782 135.497 432.467C137.11 433.153 138.976 432.405 139.664 430.798Z" fill="#F04E23"/>
<path d="M456.695 289.272C457.383 287.664 456.633 285.806 455.02 285.12C453.407 284.435 451.541 285.182 450.853 286.789C450.165 288.396 450.915 290.255 452.528 290.941C454.142 291.626 456.007 290.879 456.695 289.272Z" fill="#F04E23"/>
<path d="M455.629 459.935C456.318 458.328 455.568 456.469 453.954 455.784C452.341 455.098 450.475 455.846 449.787 457.453C449.099 459.06 449.849 460.919 451.462 461.604C453.076 462.29 454.941 461.543 455.629 459.935Z" fill="#FFB400"/>
<path d="M396.263 260.702C396.951 259.094 396.201 257.236 394.588 256.55C392.974 255.865 391.109 256.612 390.42 258.219C389.732 259.827 390.482 261.685 392.096 262.371C393.709 263.056 395.575 262.309 396.263 260.702Z" fill="#FFB400"/>
<path d="M388.83 504.751C389.288 503.681 388.789 502.443 387.715 501.987C386.641 501.531 385.399 502.028 384.941 503.098C384.482 504.168 384.982 505.405 386.056 505.862C387.13 506.318 388.372 505.821 388.83 504.751Z" fill="#FFB400"/>
<path d="M346.617 498.997C347.075 497.927 346.576 496.69 345.502 496.234C344.428 495.777 343.186 496.275 342.728 497.345C342.27 498.415 342.769 499.652 343.843 500.109C344.917 500.565 346.159 500.067 346.617 498.997Z" fill="#F04E23"/>
<path d="M270.424 527.755C270.882 526.685 270.383 525.448 269.309 524.991C268.235 524.535 266.993 525.032 266.534 526.102C266.076 527.172 266.576 528.41 267.65 528.866C268.724 529.322 269.966 528.825 270.424 527.755Z" fill="#F04E23"/>
<path d="M234.537 424.463C234.995 423.393 234.496 422.156 233.422 421.699C232.348 421.243 231.106 421.74 230.648 422.81C230.189 423.88 230.689 425.118 231.763 425.574C232.837 426.03 234.079 425.533 234.537 424.463Z" fill="#F04E23"/>
<path d="M422.542 475.263C423 474.193 422.501 472.956 421.427 472.499C420.353 472.043 419.111 472.54 418.653 473.61C418.195 474.68 418.694 475.918 419.768 476.374C420.842 476.83 422.084 476.333 422.542 475.263Z" fill="#F04E23"/>
<path d="M201.585 535.413C202.043 534.343 201.543 533.106 200.469 532.649C199.395 532.193 198.153 532.69 197.695 533.76C197.237 534.83 197.736 536.068 198.81 536.524C199.884 536.98 201.126 536.483 201.585 535.413Z" fill="#F04E23"/>
<path d="M333.492 432.495C333.95 431.425 333.451 430.187 332.377 429.731C331.303 429.274 330.061 429.772 329.603 430.842C329.145 431.912 329.644 433.149 330.718 433.606C331.792 434.062 333.034 433.565 333.492 432.495Z" fill="#F04E23"/>
<path d="M104.779 515.041C105.237 513.971 104.737 512.734 103.663 512.278C102.589 511.821 101.347 512.319 100.889 513.389C100.431 514.459 100.93 515.696 102.005 516.152C103.079 516.609 104.321 516.111 104.779 515.041Z" fill="#F04E23"/>
<path d="M295.775 260.284C296.233 259.214 295.733 257.977 294.659 257.521C293.585 257.064 292.343 257.562 291.885 258.632C291.427 259.702 291.927 260.939 293.001 261.396C294.075 261.852 295.317 261.354 295.775 260.284Z" fill="#F04E23"/>
<path d="M102.665 436.402C103.123 435.332 102.624 434.094 101.55 433.638C100.476 433.182 99.234 433.679 98.776 434.749C98.3179 435.819 98.8172 437.056 99.8912 437.513C100.965 437.969 102.207 437.472 102.665 436.402Z" fill="#F04E23"/>
<path d="M320.327 285.678C320.785 284.608 320.286 283.37 319.212 282.914C318.138 282.457 316.896 282.955 316.438 284.025C315.979 285.095 316.479 286.332 317.553 286.789C318.627 287.245 319.869 286.747 320.327 285.678Z" fill="#F04E23"/>
<path d="M381.848 442.707C382.307 441.637 381.807 440.4 380.733 439.944C379.659 439.487 378.417 439.985 377.959 441.055C377.501 442.125 378 443.362 379.074 443.818C380.148 444.275 381.39 443.777 381.848 442.707Z" fill="#FFB400"/>
<path d="M286.387 520.093C286.845 519.023 286.345 517.786 285.271 517.329C284.197 516.873 282.955 517.37 282.497 518.44C282.039 519.51 282.539 520.748 283.613 521.204C284.687 521.66 285.929 521.163 286.387 520.093Z" fill="#FFB400"/>
<path d="M71.3897 490.806C71.8478 489.736 71.3485 488.499 70.2744 488.042C69.2004 487.586 67.9584 488.084 67.5003 489.154C67.0422 490.224 67.5416 491.461 68.6156 491.917C69.6896 492.374 70.9316 491.876 71.3897 490.806Z" fill="#FFB400"/>
<path d="M457.829 481.741C458.287 480.671 457.788 479.434 456.714 478.978C455.64 478.521 454.398 479.019 453.94 480.089C453.482 481.159 453.981 482.396 455.055 482.852C456.129 483.309 457.371 482.811 457.829 481.741Z" fill="#FFB400"/>
<path d="M113.241 572.869C113.699 571.799 113.199 570.561 112.125 570.105C111.051 569.649 109.809 570.146 109.351 571.216C108.893 572.286 109.393 573.524 110.467 573.98C111.541 574.436 112.783 573.939 113.241 572.869Z" fill="#FFB400"/>
<path d="M399.448 290.048C398.089 286.977 395.948 284.315 393.238 282.328C389.487 279.422 385.391 276.989 381.043 275.085C375.487 272.514 369.759 270.33 363.901 268.549C356.91 266.358 349.846 264.611 342.669 263.089C334.638 261.373 326.498 260.044 318.39 259.003C309.689 257.889 300.913 257.109 292.139 256.626C283.029 256.175 273.993 256.027 264.884 256.286C255.699 256.546 246.552 257.227 237.443 258.328C228.549 259.385 219.723 260.948 211.007 263.009C202.682 264.989 194.505 267.546 186.535 270.661C184.675 271.403 182.854 272.109 181.068 272.962C190.945 270 201.023 267.755 211.224 266.244C221.306 264.642 231.494 263.603 241.682 262.934C252.428 262.267 263.248 262.006 273.993 262.192C284.479 262.378 294.887 262.971 305.334 264.086C314.779 265.087 324.148 266.464 333.445 268.358C342.823 270.199 352.037 272.795 360.996 276.12C367.917 278.552 374.396 282.089 380.182 286.594C383.417 289.31 386.392 292.722 387.359 296.919C387.749 299.036 387.643 301.213 387.05 303.282C386.456 305.35 385.391 307.253 383.938 308.842C380.734 312.429 376.92 315.422 372.672 317.682C368.249 320.117 363.635 322.192 358.876 323.884C349.577 327.192 340.028 329.75 330.321 331.535C327.68 332.055 325.041 332.536 322.401 332.909L320.505 333.243C319.761 333.318 319.055 333.429 318.311 333.578C317.976 333.721 318.125 333.578 318.05 333.721C317.976 333.938 317.976 334.173 318.05 334.39V346.089L318.125 362.242V397.907C318.125 402.142 318.125 406.413 318.05 410.61V412.653C318.01 412.901 318.029 413.155 318.106 413.394C318.184 413.633 318.318 413.85 318.497 414.027C319.798 415.066 322.14 414.884 323.702 414.884C326.364 414.752 329.012 414.418 331.623 413.884C334.054 413.433 336.442 412.774 338.761 411.915C339.485 411.658 340.172 411.309 340.806 410.876C341.588 410.207 341.327 409.16 341.401 408.238C341.587 404.098 342.325 400.001 343.595 396.056C345.566 390.114 349.463 384.058 356.126 383.13C360.07 382.516 364.098 383.462 367.354 385.768C370.776 388.484 372.374 392.824 373.154 396.984C374.457 404.153 373.936 411.729 373.08 418.935C372.486 423.796 371.63 428.703 371.035 433.568C370.516 437.728 370.182 441.925 370.033 446.159C369.89 452.102 370.176 458.267 372.227 463.802C373.467 467.686 376.157 470.944 379.737 472.901C381.521 473.78 383.447 474.334 385.426 474.536C386.536 474.672 387.655 474.734 388.773 474.722C389.088 474.717 389.4 474.669 389.702 474.579C391.169 473.913 392.345 472.738 393.012 471.273C394.256 468.987 395.205 466.554 395.837 464.031C396.857 460.565 397.677 457.043 398.291 453.482C399.15 449.062 399.816 444.605 400.336 440.188C401.006 435.063 401.527 429.896 401.972 424.701C402.493 419.018 402.902 413.372 403.237 407.689C403.647 401.747 403.907 395.767 404.096 389.788C404.282 383.734 404.505 377.68 404.542 371.661C404.617 365.682 404.686 359.739 404.617 353.76C404.542 348.077 404.474 342.432 404.282 336.749C404.139 331.624 403.874 326.423 403.539 321.261C403.279 316.767 402.944 312.384 402.423 307.89C402.014 304.324 401.564 300.759 400.973 297.268C400.713 294.816 400.202 292.396 399.448 290.048V290.048Z" fill="#FF7751"/>
<path d="M372.193 425.688C373.093 420.193 373.664 414.649 373.903 409.086C374.109 405.1 373.884 401.102 373.233 397.164C372.375 392.225 370.334 387.024 365.648 384.573C363.136 383.241 360.29 382.669 357.457 382.927C354.625 383.184 351.928 384.26 349.698 386.022C346.703 388.877 344.555 392.501 343.488 396.496C342.745 398.821 342.21 401.207 341.89 403.627C341.704 404.926 341.555 406.264 341.443 407.564C341.369 408.233 341.369 408.827 341.3 409.458C341.312 409.746 341.287 410.034 341.226 410.315C340.965 410.984 340.035 411.355 339.441 411.615C338.261 412.13 337.042 412.552 335.796 412.879C332.615 413.736 329.37 414.332 326.092 414.661C324.646 414.802 323.193 414.849 321.741 414.804C320.744 414.812 319.756 414.609 318.842 414.209C318.563 414.056 318.339 413.82 318.199 413.534C318.06 413.248 318.011 412.927 318.061 412.613V410.05C318.135 404.59 318.135 399.055 318.135 393.596V371.649C318.135 364.591 318.135 357.608 318.061 350.552L317.986 336.4V334.619C317.986 334.433 317.843 333.95 317.986 333.761C318.172 333.501 319.436 333.501 319.771 333.426C321.369 333.166 323.006 332.906 324.568 332.646C327.728 332.127 330.889 331.532 334.013 330.863C345.764 328.413 357.626 325.181 368.445 319.982C373.882 317.567 378.824 314.166 383.02 309.952C386.515 306.127 388.635 301.114 386.962 295.987C385.362 291.127 381.272 287.41 377.182 284.586C373.678 282.176 369.941 280.123 366.028 278.457C355.651 274.012 344.815 270.724 333.717 268.652C322.28 266.356 310.722 264.707 299.099 263.712C286.155 262.61 273.162 262.176 260.173 262.412C247.411 262.592 234.665 263.422 221.988 264.9C209.642 266.274 197.419 268.584 185.425 271.812C179.475 273.406 173.638 275.392 167.95 277.754C163.147 279.669 158.59 282.15 154.377 285.146C150.213 288.117 146.086 292.202 144.932 297.403V297.365C144.597 298.862 144.349 300.377 144.189 301.903C144.003 303.278 143.855 304.652 143.67 305.988C143.409 308.44 143.149 310.849 142.926 313.38C142.591 317.02 142.33 320.622 142.067 324.189C141.732 328.979 141.473 333.882 141.208 338.674C140.881 344.795 140.695 350.924 140.471 357.052C140.211 364.554 140.062 372.056 140.025 379.597C139.882 388.435 139.839 397.313 139.882 406.153C139.956 414.587 140.142 423.09 140.477 431.521C140.738 438.837 141.147 446.153 141.593 453.471C142.001 459.599 142.522 465.728 143.118 471.856C143.564 476.796 144.158 481.735 144.753 486.676C145.2 490.352 145.683 494.109 146.277 497.817C146.687 500.306 147.059 502.758 147.542 505.209C147.728 506.397 147.988 507.587 148.211 508.849C148.692 511.187 149.313 513.494 150.071 515.758C152.446 523.158 156.123 530.075 160.929 536.185C163.354 539.248 166.001 542.128 168.848 544.803C171.772 547.561 174.88 550.117 178.151 552.453C181.508 554.857 185.01 557.053 188.636 559.029C192.378 561.075 196.225 562.922 200.162 564.563C204.178 566.271 208.342 567.719 212.544 569.057C216.82 570.356 221.245 571.546 225.595 572.548C229.946 573.55 234.63 574.331 239.166 575C243.703 575.669 248.388 576.113 253.074 576.373C257.759 576.633 262.443 576.782 267.203 576.708C271.962 576.633 276.572 576.373 281.257 575.964C285.943 575.556 290.552 574.964 295.089 574.182C299.625 573.4 304.125 572.474 308.624 571.36C313.123 570.246 317.324 568.908 321.6 567.423C325.782 565.985 329.878 564.311 333.87 562.408C337.76 560.612 341.543 558.591 345.198 556.356C348.768 554.18 352.209 551.798 355.502 549.224C358.739 546.732 361.762 543.974 364.538 540.979C367.287 538.097 369.822 535.018 372.123 531.768C376.757 525.14 380.216 517.765 382.348 509.965C382.683 508.777 383.129 507.664 383.463 506.474C384.488 502.922 385.307 499.313 385.917 495.666C387.108 488.833 387.962 481.887 388.669 474.904C383.055 474.978 377.588 473.195 374.279 468.368C372.566 465.668 371.38 462.669 370.785 459.528C369.992 455.205 369.68 450.808 369.854 446.416C370.411 439.32 371.077 432.449 372.193 425.688ZM182.19 321.21C174.477 319.013 167.081 315.83 160.185 311.739C157.066 309.955 154.346 307.553 152.189 304.682C151.125 303.268 150.48 301.584 150.329 299.821C150.394 298.065 150.993 296.369 152.046 294.961C154.202 292.069 156.921 289.643 160.04 287.829C163.105 285.939 166.298 284.264 169.595 282.816C176.984 279.705 184.621 277.219 192.426 275.382C200.153 273.488 208.004 272.04 215.851 270.888C224.466 269.62 233.242 268.765 241.943 268.166C251.238 267.572 260.533 267.324 269.829 267.423C279.013 267.497 288.235 267.869 297.381 268.687C305.968 269.429 314.523 270.395 323.038 271.843C330.623 273.105 338.146 274.725 345.608 276.703C353.465 278.749 361.09 281.599 368.362 285.207C371.354 286.738 374.183 288.568 376.805 290.668C379.444 292.897 382.53 296.016 382.494 299.767C382.419 303.52 379.407 306.564 376.769 308.793C374.134 310.911 371.28 312.741 368.255 314.252C361.025 317.827 353.449 320.653 345.643 322.686C338.175 324.73 330.605 326.381 322.964 327.634C314.52 329.008 305.934 330.086 297.381 330.716C288.198 331.459 279.051 331.905 269.829 331.98C260.533 332.054 251.238 331.794 241.943 331.199C233.242 330.679 224.466 329.751 215.841 328.483C207.96 327.39 200.141 325.89 192.416 323.989C188.921 323.178 185.536 322.25 182.19 321.21Z" fill="#FFAF51"/>
<path d="M372.528 298.479C372.528 295.063 369.887 292.202 367.396 290.234C362.99 287.108 358.123 284.69 352.969 283.066C345.8 280.616 338.454 278.716 330.995 277.382C321.693 275.6 312.329 274.412 302.958 273.557C292.214 272.556 281.319 272.035 270.499 271.96C259.492 271.817 248.413 272.146 237.44 272.961C227.624 273.628 217.858 274.742 208.14 276.304C200.139 277.545 192.227 279.307 184.456 281.578C178.748 283.173 173.255 285.456 168.099 288.377C165.049 290.235 161.629 292.797 160.514 296.362C159.512 299.52 161.035 302.49 163.233 304.719C166.579 308.135 171.153 310.327 175.503 312.152C182.1 314.793 188.919 316.843 195.879 318.281C204.729 320.176 213.628 321.625 222.576 322.626C232.987 323.816 243.47 324.485 253.958 324.818C265.188 325.152 276.379 325.004 287.609 324.483C297.759 323.964 307.91 323.11 317.948 321.662C326.384 320.53 334.751 318.93 343.009 316.87C349.351 315.322 355.518 313.131 361.414 310.333C365.058 308.474 368.999 306.173 371.23 302.613C372.039 301.383 372.489 299.951 372.528 298.479V298.479Z" fill="#022B42"/>
<path d="M375.092 310.067C377.993 307.95 381.154 305.206 382.232 301.633C383.274 297.954 380.968 294.575 378.477 292.161C373.345 287.073 366.281 283.915 359.662 281.352C352.278 278.538 344.697 276.267 336.981 274.556C329.061 272.774 321.104 271.398 313.036 270.322C304.261 269.207 295.411 268.428 286.598 267.945C277.229 267.499 267.932 267.35 258.563 267.499C249.453 267.689 240.344 268.166 231.271 269.024C222.828 269.804 214.464 270.918 206.135 272.442C198.634 273.766 191.211 275.501 183.901 277.641C176.179 279.792 168.741 282.85 161.74 286.75C156.464 289.825 147.909 295.767 151.255 302.903C153.087 306.064 155.666 308.728 158.765 310.666C161.676 312.62 164.749 314.323 167.95 315.755C175.301 319.048 182.944 321.647 190.78 323.517C198.431 325.444 206.175 326.981 213.982 328.123C222.568 329.422 231.271 330.351 239.898 330.945C249.118 331.614 258.414 331.874 267.746 331.874C277.043 331.8 286.277 331.453 295.448 330.833C304.075 330.166 312.664 329.199 321.179 327.863C328.905 326.685 336.562 325.098 344.119 323.108C351.945 321.14 359.565 318.429 366.873 315.011C369.739 313.582 372.488 311.929 375.092 310.067ZM160.286 298.479C160.286 295.062 162.925 292.202 165.491 290.234C169.897 287.108 174.764 284.69 179.918 283.066C187.087 280.616 194.433 278.716 201.892 277.382C211.194 275.6 220.558 274.412 229.929 273.557C240.676 272.555 251.497 272.023 262.393 271.96C273.399 271.817 284.479 272.146 295.451 272.961C305.229 273.63 315.047 274.745 324.751 276.304C332.724 277.573 340.61 279.334 348.364 281.578C354.078 283.159 359.574 285.442 364.725 288.375C367.774 290.234 371.194 292.795 372.31 296.36C373.312 299.518 371.789 302.489 369.591 304.717C366.245 308.134 361.671 310.325 357.321 312.151C350.746 314.781 343.953 316.832 337.02 318.279C328.175 320.177 319.24 321.627 310.248 322.625C299.837 323.814 289.354 324.483 278.866 324.816C267.638 325.151 256.445 325.002 245.215 324.482C235.065 323.963 224.914 323.108 214.876 321.66C206.438 320.527 198.069 318.926 189.808 316.864C183.463 315.328 177.295 313.137 171.403 310.327C167.759 308.468 163.818 306.167 161.587 302.607C160.753 301.391 160.301 299.953 160.291 298.479H160.286Z" fill="white"/>
<path d="M154.936 346.361L155.531 345.766C155.711 345.594 155.911 345.444 156.126 345.32C156.534 344.987 156.869 344.801 157.241 344.541C158.022 344.095 158.84 343.612 159.621 343.24C160.415 342.84 161.235 342.493 162.075 342.201C162.934 341.866 163.793 341.68 164.64 341.42C168.05 340.63 171.554 340.318 175.051 340.492L176.353 340.567H177.021L177.691 340.641L180.257 340.974C181.116 341.048 181.893 341.309 182.749 341.42L185.239 341.94C186.876 342.386 188.549 342.87 190.104 343.314L194.864 345.022C195.365 345.195 195.826 345.464 196.221 345.816C196.616 346.168 196.938 346.595 197.166 347.072C197.394 347.549 197.526 348.067 197.552 348.595C197.578 349.123 197.499 349.651 197.319 350.149C197.141 350.653 196.865 351.118 196.506 351.515C196.147 351.912 195.713 352.234 195.229 352.462C194.744 352.69 194.219 352.82 193.684 352.843C193.149 352.867 192.615 352.785 192.112 352.6V352.6L191.777 352.457L191.591 352.314L187.427 350.346C186.052 349.751 184.602 349.231 183.188 348.712L180.994 348.043C180.251 347.857 179.544 347.597 178.802 347.374L176.608 346.855L176.087 346.712L175.566 346.638L174.451 346.495C171.547 346.039 168.593 345.991 165.676 346.352C164.932 346.495 164.226 346.612 163.556 346.761C162.861 346.938 162.178 347.161 161.511 347.428C160.842 347.689 160.211 347.949 159.541 348.286C159.28 348.472 158.945 348.621 158.682 348.806L158.273 349.065C158.13 349.139 158.014 349.251 157.939 349.251L157.081 349.585C156.563 349.767 155.994 349.736 155.499 349.5C155.004 349.263 154.623 348.84 154.44 348.323C154.339 347.988 154.33 347.631 154.416 347.291C154.501 346.951 154.676 346.64 154.924 346.392L154.936 346.361Z" fill="#FF7751"/>
<path d="M290.688 374.093L290.428 373.686C290.302 373.548 290.191 373.399 290.094 373.24C289.856 372.912 289.595 372.601 289.313 372.31C289.046 372.006 288.759 371.72 288.454 371.453C288.163 371.148 287.852 370.862 287.526 370.595C286.239 369.526 284.871 368.557 283.436 367.697C280.468 366.05 277.291 364.814 273.99 364.021C273.132 363.835 272.355 363.612 271.5 363.427L269.009 363.019C268.599 362.944 268.15 362.876 267.744 362.833L266.443 362.758L263.877 362.573C262.16 362.498 260.382 362.573 258.672 362.573L253.466 362.981H253.205C252.145 363.086 251.086 362.77 250.257 362.101C249.427 361.433 248.894 360.465 248.773 359.408C248.651 358.351 248.95 357.288 249.605 356.448C250.261 355.609 251.22 355.061 252.276 354.922H252.872L258.596 354.996C260.492 355.182 262.426 355.255 264.321 355.515L267.147 355.961L268.597 356.147C269.043 356.29 269.527 356.333 270.046 356.481L272.873 357.15C273.803 357.409 274.733 357.744 275.625 358.078C279.347 359.359 282.878 361.14 286.12 363.372C287.728 364.514 289.233 365.794 290.618 367.197C290.981 367.541 291.316 367.913 291.62 368.311C291.955 368.72 292.29 369.054 292.622 369.5C292.954 369.946 293.217 370.279 293.552 370.762C293.695 370.948 293.812 371.171 293.998 371.431C294.163 371.682 294.312 371.942 294.445 372.21C294.679 372.69 294.725 373.239 294.576 373.751C294.426 374.262 294.091 374.7 293.636 374.979C293.181 375.257 292.638 375.356 292.113 375.256C291.589 375.156 291.121 374.865 290.8 374.439L290.688 374.093Z" fill="#FF7751"/>
<path d="M225.136 451.317C225.067 450.952 224.856 450.63 224.549 450.421C224.242 450.212 223.865 450.133 223.5 450.202V450.202C222.321 450.405 221.128 450.517 219.931 450.536C219.356 450.529 218.782 450.481 218.214 450.393L217.355 450.25L216.497 450.066C213.228 449.306 210.306 447.479 208.193 444.873C206.081 442.268 204.899 439.033 204.835 435.681C204.81 433.467 205.307 431.279 206.284 429.292C207.225 427.265 208.626 425.485 210.374 424.092C212.173 422.642 214.267 421.603 216.509 421.047L217.368 420.861L218.227 420.718C218.819 420.634 219.415 420.586 220.013 420.575C221.236 420.557 222.457 420.669 223.656 420.91V420.91C223.803 420.934 223.953 420.93 224.098 420.897C224.242 420.863 224.379 420.802 224.5 420.715C224.621 420.629 224.724 420.519 224.802 420.393C224.88 420.267 224.933 420.127 224.957 419.98C225 419.736 224.957 419.484 224.835 419.267C224.713 419.051 224.52 418.883 224.289 418.792C223.016 418.2 221.662 417.799 220.272 417.603H220.004C220.338 415.745 220.524 413.926 220.672 412.07C220.864 409.661 220.926 407.243 220.858 404.828C220.784 402.45 220.715 399.967 220.449 397.584C220.247 395.147 219.875 392.727 219.334 390.342C219.26 390.05 219.076 389.797 218.819 389.637C218.563 389.477 218.255 389.423 217.959 389.485C217.757 389.548 217.574 389.659 217.424 389.808C217.275 389.958 217.164 390.141 217.1 390.342C216.559 392.727 216.187 395.147 215.986 397.584C215.8 400.036 215.651 402.445 215.576 404.828C215.508 407.243 215.57 409.661 215.762 412.07C215.891 413.875 216.114 415.672 216.431 417.454L215.911 417.529C214.454 417.67 213.019 417.982 211.635 418.458C209.178 419.377 206.946 420.808 205.085 422.655C203.224 424.503 201.778 426.724 200.843 429.172C199.907 431.621 199.504 434.24 199.659 436.856C199.814 439.471 200.525 442.024 201.743 444.345C203.125 447.033 205.173 449.323 207.694 450.994C208.923 451.827 210.246 452.513 211.635 453.036C213.022 453.518 214.455 453.854 215.911 454.037L217.026 454.18H218.068C218.801 454.169 219.532 454.122 220.26 454.037C221.699 453.847 223.102 453.446 224.425 452.848C224.697 452.708 224.915 452.482 225.044 452.204C225.173 451.927 225.205 451.615 225.136 451.317Z" fill="#022B42"/>
<path d="M360.444 396.679C361.019 398.246 361.394 399.879 361.558 401.54C361.968 404.758 361.968 408.015 361.558 411.233C361.354 412.887 360.98 414.516 360.444 416.094C360.386 416.25 360.297 416.394 360.183 416.516C360.069 416.639 359.932 416.737 359.78 416.806C359.628 416.876 359.463 416.914 359.296 416.919C359.129 416.924 358.963 416.896 358.806 416.837C358.475 416.69 358.21 416.425 358.064 416.094C357.487 414.527 357.112 412.894 356.947 411.233C356.538 408.015 356.538 404.758 356.947 401.54C357.152 399.886 357.526 398.257 358.064 396.679C358.119 396.525 358.204 396.383 358.314 396.262C358.425 396.141 358.559 396.043 358.707 395.974C358.856 395.905 359.017 395.866 359.181 395.86C359.345 395.854 359.509 395.88 359.662 395.937C359.841 395.992 360.005 396.087 360.141 396.216C360.276 396.345 360.38 396.503 360.444 396.679V396.679Z" fill="#FF7751"/>
<path d="M211.193 521.476C212.871 521.496 214.546 521.608 216.212 521.81C217.886 521.996 219.522 522.219 221.157 522.478C222.793 522.737 224.466 522.998 226.103 523.407C227.783 523.744 229.435 524.203 231.048 524.781V524.781C231.406 524.916 231.697 525.187 231.858 525.534C232.018 525.882 232.036 526.279 231.906 526.639C231.824 526.854 231.69 527.046 231.515 527.195C231.34 527.345 231.13 527.449 230.905 527.497C229.174 527.9 227.402 528.1 225.625 528.092C222.089 528.111 218.574 527.559 215.214 526.458C213.475 525.931 211.832 525.128 210.349 524.08C210.047 523.88 209.836 523.57 209.76 523.216C209.684 522.863 209.748 522.493 209.939 522.186C210.057 521.999 210.222 521.845 210.418 521.741C210.614 521.636 210.834 521.585 211.055 521.592L211.193 521.476Z" fill="#022B42"/>
<path d="M320.025 421.38C321.743 421.121 323.446 420.973 325.12 420.787C326.756 420.601 328.466 420.378 330.139 420.192C331.775 420.006 333.449 419.746 335.085 419.412C336.72 419.077 338.393 418.744 340.103 418.411H340.178C340.409 418.382 340.641 418.443 340.828 418.582C341.015 418.72 341.141 418.925 341.18 419.154C341.213 419.303 341.198 419.458 341.138 419.598C341.078 419.738 340.975 419.855 340.845 419.933C339.41 421.109 337.789 422.038 336.048 422.682C334.326 423.372 332.529 423.858 330.694 424.13C328.886 424.406 327.057 424.518 325.229 424.465C323.368 424.391 321.528 424.054 319.762 423.464C319.505 423.374 319.292 423.189 319.168 422.947C319.043 422.705 319.017 422.424 319.094 422.163C319.155 421.972 319.267 421.802 319.418 421.671C319.57 421.54 319.755 421.453 319.952 421.42L320.025 421.38Z" fill="#FF7751"/>
<path d="M231.197 498.858C228.437 498.69 225.667 498.84 222.942 499.304C220.121 499.772 217.404 500.727 214.911 502.126C213.722 502.869 212.531 503.576 211.416 504.355C211.18 504.522 210.931 504.671 210.672 504.801L209.928 505.209C209.408 505.395 208.926 505.618 208.404 505.803C207.014 506.398 205.46 506.487 204.012 506.052C202.564 505.618 201.315 504.688 200.484 503.427C200.214 503.006 199.966 502.572 199.74 502.126C199.608 501.889 199.496 501.64 199.407 501.384L199.22 500.641C199.01 499.714 198.984 498.754 199.146 497.817C199.326 496.901 199.735 496.046 200.335 495.33C200.927 494.611 201.645 494.006 202.455 493.546C203.243 493.131 204.133 492.951 205.021 493.027H205.356L206.024 493.101H207.401C208.508 493.002 209.571 492.618 210.486 491.986C211.531 491.254 212.282 490.175 212.605 488.942C212.94 487.852 212.94 486.687 212.605 485.598C212.274 484.408 211.555 483.362 210.56 482.627C209.658 481.986 208.611 481.578 207.512 481.438C207.031 481.376 206.546 481.351 206.061 481.364L205.393 481.438H205.058C204.598 481.488 204.133 481.462 203.681 481.364C201.739 481.006 200.017 479.898 198.886 478.282C198.37 477.494 198.042 476.6 197.925 475.666C197.809 474.732 197.909 473.785 198.216 472.895L198.476 472.153C198.624 471.951 198.738 471.724 198.811 471.484L198.997 471.15L199.183 470.89C199.326 470.704 199.444 470.482 199.591 470.296C200.237 469.571 201.056 469.022 201.972 468.698C202.953 468.302 204.002 468.101 205.059 468.105C206.187 468.113 207.309 468.25 208.405 468.514L209.187 468.698L209.967 468.958C210.227 469.101 210.413 469.144 210.711 469.293L211.046 469.479C211.12 469.479 211.12 469.553 211.189 469.553L211.375 469.696C212.494 470.508 213.661 471.252 214.869 471.925C217.384 473.232 220.079 474.16 222.866 474.679C225.568 475.129 228.313 475.266 231.046 475.087C231.184 475.09 231.321 475.066 231.449 475.015C231.577 474.964 231.693 474.887 231.79 474.79C231.888 474.693 231.965 474.577 232.016 474.449C232.067 474.322 232.092 474.185 232.088 474.047C232.098 473.901 232.079 473.754 232.032 473.615C231.986 473.476 231.912 473.347 231.815 473.237C231.718 473.126 231.6 473.036 231.468 472.971C231.337 472.906 231.193 472.868 231.046 472.858C226.003 472.756 221.072 471.348 216.736 468.773C215.682 468.082 214.665 467.339 213.687 466.544L213.501 466.401L213.241 466.215L212.72 465.881C212.385 465.695 211.976 465.472 211.68 465.286L210.638 464.84L209.597 464.433C208.134 463.999 206.623 463.749 205.098 463.689C203.508 463.614 201.918 463.841 200.413 464.358C198.805 464.901 197.343 465.802 196.137 466.994C195.832 467.312 195.545 467.646 195.278 467.995C195.135 468.181 195.017 468.329 194.869 468.515L194.534 469.034C194.348 469.369 194.124 469.778 193.938 470.149L193.492 471.263C192.896 472.859 192.676 474.57 192.85 476.264C193.024 477.959 193.586 479.59 194.494 481.032C195.412 482.429 196.604 483.625 197.996 484.551C199.389 485.476 200.955 486.111 202.599 486.417C203.448 486.553 204.306 486.615 205.165 486.603H206.695C206.906 486.613 207.111 486.677 207.29 486.789C207.331 486.82 207.364 486.859 207.389 486.904C207.413 486.949 207.429 486.998 207.433 487.049C207.47 487.13 207.489 487.219 207.489 487.308C207.489 487.398 207.47 487.486 207.433 487.568C207.433 487.642 207.434 487.642 207.359 487.642L207.285 487.716C207.113 487.844 206.903 487.91 206.689 487.902H205.132C203.356 487.845 201.593 488.228 200 489.017C196.245 493.547 195.464 500.233 195.836 505.694L196.282 506.436C197.285 507.792 198.565 508.92 200.038 509.742C201.541 510.521 203.21 510.928 204.903 510.93C206.498 510.931 208.081 510.667 209.589 510.15C210.314 509.885 211.022 509.576 211.708 509.222C212.042 509.036 212.376 508.813 212.71 508.627C213.053 508.453 213.366 508.228 213.64 507.958C214.681 507.179 215.611 506.436 216.688 505.767C220.997 503.259 225.871 501.879 230.856 501.756V501.756C231.215 501.719 231.547 501.551 231.788 501.283C232.028 501.015 232.161 500.668 232.158 500.308C232.129 499.973 231.982 499.659 231.744 499.421C231.506 499.183 231.191 499.037 230.856 499.008L231.197 498.858Z" fill="#022B42"/>
<path d="M200.255 488.942C198.136 488.942 179.544 495.517 180.661 512.191C181.85 530.317 202.151 522.739 197.95 513.715C196.924 511.099 196.297 508.345 196.089 505.544C195.687 500.046 196.506 493.473 200.255 488.942Z" fill="#0E80BD"/>
<path d="M186.132 510.183C186.304 510.362 186.454 510.562 186.578 510.777C186.661 510.966 186.709 511.167 186.721 511.372C186.706 511.6 186.657 511.825 186.578 512.039C186.473 512.322 186.322 512.586 186.132 512.82L186.057 512.894C185.938 513.037 185.773 513.133 185.59 513.167C185.407 513.201 185.218 513.17 185.056 513.08C184.773 512.899 184.522 512.673 184.311 512.411C184.159 512.178 184.069 511.91 184.051 511.632C184.001 511.345 184.027 511.049 184.125 510.774C184.248 510.443 184.453 510.147 184.721 509.917C184.888 509.802 185.089 509.747 185.291 509.761C185.493 509.774 185.685 509.855 185.836 509.991L186.132 510.183Z" fill="white"/>
<path d="M188.772 501.717C188.74 502.233 188.652 502.744 188.511 503.241C188.368 503.687 188.177 504.169 187.991 504.615C187.813 505.07 187.588 505.505 187.321 505.914C187.081 506.393 186.767 506.832 186.392 507.215C186.27 507.334 186.111 507.407 185.94 507.421C185.77 507.435 185.601 507.388 185.462 507.289C185.388 507.212 185.325 507.124 185.276 507.029C184.948 505.902 185.013 504.697 185.462 503.613C185.655 503.073 185.917 502.561 186.243 502.089C186.573 501.592 187.02 501.185 187.544 500.901C187.714 500.813 187.91 500.791 188.095 500.839C188.28 500.887 188.44 501.002 188.546 501.161C188.626 501.284 188.675 501.424 188.689 501.57L188.772 501.717Z" fill="white"/>
<path d="M361.372 346.875C363.603 345.686 365.872 344.684 368.099 343.717L374.825 340.747C377.056 339.746 379.248 338.704 381.408 337.663C383.601 336.624 385.758 335.472 387.952 334.321C388.051 334.269 388.16 334.238 388.272 334.23C388.383 334.222 388.496 334.238 388.601 334.277C388.706 334.315 388.802 334.375 388.883 334.453C388.963 334.531 389.026 334.625 389.068 334.729C389.156 334.876 389.19 335.049 389.164 335.219C389.138 335.388 389.053 335.544 388.925 335.658C387.205 337.568 385.228 339.23 383.051 340.598C380.946 342.04 378.719 343.296 376.395 344.349C374.104 345.422 371.743 346.34 369.329 347.097C366.913 347.883 364.44 348.48 361.931 348.881C361.795 348.908 361.656 348.907 361.522 348.877C361.387 348.848 361.26 348.792 361.148 348.711C361.036 348.631 360.942 348.528 360.872 348.41C360.802 348.291 360.757 348.16 360.74 348.023C360.716 347.791 360.763 347.557 360.877 347.352C360.99 347.148 361.163 346.983 361.372 346.879V346.875Z" fill="#022B42"/>
<path d="M339.807 344.535C340.386 344.022 341.054 343.619 341.778 343.346C342.464 343.062 343.173 342.839 343.897 342.678C344.624 342.555 345.356 342.468 346.091 342.418C346.867 342.408 347.641 342.496 348.395 342.678V342.678C348.639 342.751 348.845 342.916 348.97 343.137C349.095 343.359 349.129 343.62 349.065 343.866C349.009 344.02 348.921 344.16 348.805 344.275C348.245 344.825 347.605 345.288 346.908 345.649C346.235 345.991 345.524 346.253 344.789 346.429C344.062 346.634 343.313 346.746 342.558 346.764C341.75 346.817 340.94 346.703 340.178 346.429C340.026 346.381 339.886 346.302 339.765 346.199C339.643 346.096 339.544 345.971 339.471 345.829C339.399 345.687 339.355 345.533 339.342 345.374C339.33 345.216 339.349 345.057 339.398 344.905C339.472 344.832 339.621 344.721 339.807 344.535V344.535Z" fill="#022B42"/>
<path d="M353.192 358.091C354.643 357.307 356.146 356.624 357.692 356.048C359.216 355.454 360.665 355.009 362.191 354.452L366.69 353.004C368.214 352.557 369.664 352.003 371.225 351.554C371.333 351.522 371.446 351.512 371.557 351.525C371.668 351.538 371.776 351.573 371.873 351.629C371.971 351.684 372.056 351.759 372.124 351.849C372.191 351.938 372.24 352.04 372.267 352.149C372.3 352.297 372.3 352.45 372.268 352.598C372.236 352.746 372.172 352.885 372.081 353.006C370.865 354.216 369.489 355.253 367.991 356.088C366.542 356.921 365.024 357.629 363.455 358.206C361.887 358.748 360.284 359.182 358.658 359.505C357.029 359.829 355.374 360.003 353.713 360.025C353.431 360.023 353.16 359.914 352.953 359.722C352.746 359.53 352.619 359.267 352.597 358.986C352.593 358.794 352.648 358.606 352.755 358.446C352.861 358.286 353.014 358.162 353.192 358.091V358.091Z" fill="#022B42"/>
<path d="M256.444 447.491C257.113 448.159 257.893 448.94 258.675 449.609C259.084 449.943 259.455 450.276 259.864 450.609C260.053 450.77 260.252 450.919 260.459 451.055L261.129 451.501C262.82 452.672 264.611 453.691 266.483 454.546C267.424 454.982 268.393 455.355 269.384 455.661C269.829 455.804 270.385 455.996 270.833 456.181C271.281 456.367 271.835 456.44 272.357 456.626C272.878 456.75 273.398 456.874 273.919 456.998L275.519 457.407C276.56 457.592 277.638 457.815 278.753 458.076H278.822C278.929 458.104 279.03 458.154 279.118 458.222C279.207 458.29 279.281 458.375 279.336 458.471C279.391 458.568 279.427 458.675 279.441 458.785C279.455 458.895 279.447 459.008 279.417 459.115V459.115C279.378 459.27 279.293 459.409 279.174 459.515C279.054 459.621 278.906 459.689 278.747 459.709C277.632 459.895 276.442 460.044 275.327 460.118H273.61C273.034 460.111 272.461 460.063 271.892 459.975C271.298 459.901 270.703 459.832 270.175 459.715C269.581 459.572 268.986 459.455 268.465 459.306C264.992 458.459 261.785 456.761 259.133 454.366C257.296 452.789 255.854 450.804 254.922 448.571C254.831 448.32 254.842 448.043 254.953 447.799C255.064 447.556 255.266 447.367 255.516 447.271C255.706 447.193 255.916 447.177 256.116 447.223C256.316 447.27 256.497 447.378 256.633 447.531L256.444 447.491Z" fill="#022B42"/>
<path d="M186.392 438.135C185.76 439.049 184.98 439.851 184.084 440.508C183.215 441.161 182.265 441.698 181.257 442.105C179.258 442.951 177.107 443.381 174.936 443.369L173.338 443.294C172.817 443.22 172.297 443.151 171.739 443.034C170.705 442.849 169.686 442.588 168.69 442.254C167.688 441.846 166.793 441.475 165.865 440.991C165.006 440.471 164.147 439.951 163.299 439.358C163.148 439.24 163.041 439.076 162.994 438.891C162.947 438.706 162.963 438.511 163.04 438.336C163.117 438.161 163.25 438.017 163.418 437.926C163.586 437.836 163.78 437.804 163.968 437.835H164.048C165.05 438.019 165.945 438.242 166.873 438.503L168.25 438.763C168.695 438.837 169.179 438.949 169.625 439.023C170.556 439.097 171.41 439.358 172.344 439.358C172.79 439.358 173.203 439.5 173.645 439.5H174.946C176.677 439.479 178.4 439.255 180.078 438.831L180.748 438.646C180.94 438.567 181.139 438.505 181.342 438.46C181.753 438.283 182.176 438.134 182.607 438.014C183.013 437.864 183.41 437.69 183.796 437.495C183.982 437.352 184.205 437.309 184.391 437.16C184.557 437.059 184.731 436.972 184.912 436.9L185.171 436.757C185.291 436.705 185.42 436.677 185.55 436.675C185.681 436.673 185.81 436.697 185.931 436.746C186.052 436.794 186.163 436.866 186.256 436.957C186.349 437.049 186.423 437.157 186.474 437.278C186.535 437.415 186.56 437.566 186.547 437.716C186.534 437.866 186.483 438.01 186.399 438.135H186.392Z" fill="#022B42"/>
<path d="M268.565 375.362C284.071 378.779 285.521 389.922 285.521 416.069C285.521 431.409 284.071 440.954 280.314 445.517C278.535 445.581 276.756 445.381 275.035 444.923C262.318 441.692 258.08 432.22 258.08 404.216C258.08 388.801 259.081 379.368 262.765 374.768C264.716 374.72 266.665 374.92 268.565 375.362Z" fill="white"/>
<path d="M275.035 444.928C276.756 445.387 278.535 445.587 280.314 445.523C277.675 448.679 273.846 449.46 268.565 448.159C255.848 444.928 251.61 435.458 251.61 407.452C251.61 385.391 253.655 375.511 262.772 374.768C259.091 379.299 258.087 388.807 258.087 404.216C258.08 432.263 262.244 441.772 275.035 444.928Z" fill="#022B42"/>
<path d="M174.085 359.874C189.589 363.292 191.04 374.433 191.04 400.582C191.04 415.921 189.663 425.465 185.834 430.03C184.054 430.094 182.275 429.894 180.555 429.437C167.764 426.204 163.599 416.734 163.599 388.728C163.599 373.315 164.601 363.881 168.284 359.28C170.236 359.2 172.19 359.4 174.085 359.874V359.874Z" fill="white"/>
<path d="M180.517 429.441C182.238 429.898 184.017 430.098 185.797 430.034C183.156 433.192 179.327 433.971 174.048 432.672C161.256 429.441 157.092 419.969 157.092 391.965C157.092 369.902 159.137 360.022 168.255 359.28C164.572 363.811 163.569 373.32 163.569 388.728C163.636 416.738 167.801 426.209 180.517 429.441Z" fill="#022B42"/>
<path d="M178.287 396.829C178.287 400.322 177.766 401.51 176.056 401.101C174.345 400.692 173.824 399.385 173.824 395.716C173.824 392.225 174.234 391.036 176.056 391.444C178.101 391.89 178.287 393.413 178.287 396.829Z" fill="#022B42"/>
<path d="M272.729 412.355C272.729 415.846 272.209 417.036 270.498 416.627C268.788 416.218 268.267 414.911 268.267 411.24C268.267 407.749 268.677 406.562 270.498 406.969C272.543 407.415 272.729 408.864 272.729 412.355Z" fill="#022B42"/>
<path d="M372.516 155.429C366.231 151.098 359.323 147.756 352.033 145.518C344.671 143.008 337.15 140.995 329.52 139.491C321.341 137.833 313.085 136.553 304.831 135.536C295.863 134.518 286.782 133.878 277.743 133.54C268.288 133.201 258.833 133.121 249.378 133.464C240.26 133.803 231.217 134.406 222.173 135.386C213.839 136.327 205.551 137.532 197.335 139.19C189.765 140.648 182.295 142.586 174.97 144.991C167.654 147.476 160.262 150.414 153.883 154.892C150.956 156.963 147.88 159.494 146.415 162.915C144.878 166.531 146.565 169.996 149.005 172.676C151.459 175.195 154.267 177.339 157.339 179.042C160.671 180.976 164.146 182.65 167.733 184.051C175.192 186.987 182.871 189.33 190.696 191.059C198.622 192.912 206.637 194.358 214.71 195.39C223.565 196.595 232.421 197.387 241.313 197.876C250.693 198.403 260.149 198.629 269.605 198.403C278.873 198.253 288.027 197.726 297.22 196.934C305.738 196.143 314.255 195.051 322.698 193.544C330.288 192.208 337.803 190.474 345.211 188.346C353.088 186.24 360.684 183.192 367.837 179.268C370.876 177.635 373.68 175.594 376.172 173.203C378.686 170.604 380.895 167.176 379.624 163.442C378.369 160.175 375.37 157.5 372.516 155.429ZM262.84 194.114C251.807 194.114 240.739 193.696 229.708 192.795C220.065 192.004 210.347 190.875 200.741 189.104C192.964 187.811 185.29 185.961 177.777 183.566C172.28 181.954 167.038 179.57 162.205 176.485C159.427 174.564 156.352 171.883 155.827 168.274C155.302 164.927 157.441 161.983 159.804 159.907C163.841 156.661 168.413 154.15 173.313 152.487C180.279 149.896 187.444 147.88 194.737 146.46C203.841 144.611 213.033 143.228 222.278 142.317C233.01 141.261 243.778 140.583 254.547 140.395C265.798 140.207 277.06 140.395 288.28 141.073C298.336 141.676 308.316 142.693 318.297 144.199C326.591 145.407 334.8 147.143 342.873 149.398C348.944 150.952 354.813 153.215 360.36 156.14C363.736 158.024 367.488 160.472 369.139 164.089C369.727 165.494 369.902 167.04 369.643 168.542C369.383 170.044 368.701 171.44 367.676 172.565C364.824 176.105 360.435 178.441 356.306 180.248C350.004 182.984 343.459 185.115 336.757 186.614C328.049 188.683 319.229 190.242 310.342 191.286C299.948 192.566 289.593 193.357 279.124 193.771C273.833 194.074 268.279 194.111 262.84 194.111V194.114Z" fill="white"/>
<path d="M342.309 49.0188C341.372 48.9435 340.433 48.8682 339.531 48.8682C338.489 48.8364 337.449 48.7484 336.417 48.6046C334.662 48.3478 332.939 47.9061 331.277 47.2868C328.836 46.0955 326.523 44.6568 324.373 42.9932C320.477 40.3727 316.402 38.0315 312.178 35.9872C306.794 33.3956 301.179 31.3157 295.409 29.7747C280.722 25.7975 265.233 25.9146 250.607 30.1135C246.292 31.4313 242.014 32.9764 237.812 34.7154C234.857 36.0802 231.589 36.6142 228.356 36.2605C222.579 35.3178 219.049 30.3841 214.849 26.7681C211.118 23.5779 207.025 20.8424 202.654 18.6186C197.028 15.787 191.081 13.6499 184.944 12.2541C177.326 10.5358 169.532 9.72692 161.725 9.84444C157.376 9.91661 153.058 10.5881 148.892 11.84C144.59 13.1219 140.457 14.9178 136.582 17.1893C132.585 19.5491 128.838 22.313 125.401 25.4378C121.935 28.6336 118.794 32.167 116.023 35.9858C113.221 39.8678 110.879 44.0643 109.044 48.4903C107.185 52.9246 105.86 57.5658 105.098 62.3154C104.359 67.1544 104.296 72.0732 104.91 76.9298C105.585 82.1318 106.974 87.2151 109.037 92.035C111.375 97.4011 114.417 102.43 118.08 106.988C122.388 112.287 127.271 117.088 132.638 121.301C135.64 123.637 138.75 125.86 141.945 127.931C142.545 121.795 143.334 115.652 144.422 109.475C145.21 104.916 145.811 100.246 148.549 96.4416C152.864 90.3058 160.744 88.6826 167.798 89.511C172.071 90.0275 176.229 91.2493 180.105 93.1269C182.215 94.1214 184.256 95.2539 186.218 96.5169C188.04 97.7783 189.931 98.9353 191.884 99.9823C200.14 104.1 209.395 105.771 218.563 104.799C229.471 103.698 240.021 100.284 249.517 94.7836C253.119 92.788 256.42 90.377 260.022 88.4177C262.44 87.0891 264.946 85.9312 267.524 84.9523C272.593 82.9612 277.931 81.7424 283.36 81.3364C288.625 80.9184 293.918 81.6776 298.856 83.5592C303.929 85.5056 308.406 88.7524 311.839 92.9763C316.012 98.3497 318.969 104.57 320.506 111.207C321.501 115.442 322.166 119.75 322.495 124.089C322.683 126.575 322.758 129.024 322.833 131.511V132.527C322.833 132.866 322.758 132.715 323.095 132.946C323.263 133.007 323.442 133.033 323.62 133.021L325.947 133.439C327.486 133.703 329.024 134.042 330.524 134.38C342.118 136.594 353.431 140.09 364.257 144.807C369.416 147.057 374.219 150.051 378.515 153.696C382.38 157.161 385.644 161.908 385.044 167.406C384.369 173.471 379.378 178.18 374.613 181.42C368.911 185.249 362.729 188.301 356.227 190.497C347.921 193.488 339.406 195.855 330.75 197.579C320.375 199.714 309.89 201.273 299.344 202.25C287.562 203.379 275.706 203.908 263.886 203.983C251.841 204.058 239.872 203.53 227.865 202.438C216.151 201.423 204.51 199.688 193.008 197.24C187.491 196.034 182.013 194.716 176.685 193.021C180.273 194.677 183.942 196.149 187.679 197.429C191.543 198.823 195.408 200.027 199.385 201.158C207.502 203.43 215.747 205.215 224.075 206.506C232.593 207.825 241.26 208.766 249.815 209.295C258.371 209.823 267.263 210.048 275.968 209.897C284.485 209.746 292.928 209.295 301.408 208.502C309.512 207.749 317.661 206.769 325.684 205.414C333.076 204.209 340.392 202.739 347.71 200.932C354.089 199.311 360.505 197.542 366.695 195.319C371.902 193.506 376.99 191.367 381.93 188.915C385.698 187.041 389.226 184.714 392.435 181.985C393.667 180.918 394.763 179.703 395.7 178.369C396.511 177.131 397.178 175.804 397.689 174.414C399.06 170.819 400.174 167.13 401.023 163.376C402.097 158.677 402.924 153.925 403.5 149.139C404.154 143.687 404.53 138.206 404.625 132.715C404.701 126.917 404.438 121.119 403.837 115.351C403.208 109.49 402.14 103.685 400.642 97.9854C399.138 92.3492 397.063 86.8823 394.451 81.6697C391.894 76.5942 388.676 71.8824 384.883 67.6577C380.931 63.3205 376.313 59.6473 371.203 56.7778C365.533 53.6421 359.403 51.4299 353.042 50.2237C349.49 49.6185 345.907 49.2162 342.309 49.0188V49.0188Z" fill="#FF7751"/>
<path d="M197.286 198.069C210.584 200.627 224.032 202.325 237.547 203.153C251.486 204.077 265.466 204.228 279.421 203.605C292.389 203.098 305.317 201.853 318.144 199.876C328.978 198.254 339.676 195.824 350.149 192.607C358.161 190.292 365.832 186.923 372.963 182.587C378.629 178.971 385.083 173.509 385.195 166.202C385.345 159.911 380.543 154.827 375.815 151.361C370.475 147.579 364.658 144.527 358.518 142.283C352.191 139.883 345.725 137.87 339.156 136.256C335.779 135.39 332.29 134.636 328.913 133.996L323.509 132.979C323.322 132.904 323.059 132.979 322.984 132.791V131.208C322.984 130.455 322.984 129.664 322.909 128.874C322.571 119.457 321.184 109.701 317.055 101.074C314.505 95.1527 310.266 90.1216 304.872 86.6152C299.478 83.1088 293.17 81.2842 286.745 81.3713C280.49 81.3627 274.286 82.4968 268.435 84.7181C265.461 85.8567 262.566 87.1909 259.767 88.7119C258.303 89.5026 256.915 90.3686 255.49 91.3099C252.549 93.2345 249.505 94.9951 246.372 96.5839C235.527 102.046 223.408 105.549 211.213 104.983C205.967 104.785 200.791 103.701 195.904 101.776C193.569 100.863 191.321 99.7408 189.188 98.4218C186.937 97.0273 184.798 95.485 182.396 94.2035C174.405 89.9851 164.086 87.3105 155.456 90.9961C151.79 92.6021 148.821 95.4764 147.089 99.0954C146.075 101.588 145.357 104.193 144.95 106.854C144.275 110.395 143.673 114.011 143.223 117.552C141.468 130.402 140.515 143.349 140.371 156.319C140.296 159.408 140.296 162.383 140.296 165.472C140.297 167.086 140.563 168.688 141.085 170.214C142.225 173.102 144.024 175.681 146.338 177.744C150.329 181.349 154.862 184.298 159.77 186.482C165.659 189.257 171.757 191.562 178.007 193.375C184.381 195.281 190.835 196.787 197.286 198.069ZM372.513 176.409C366.219 180.736 359.313 184.089 352.026 186.354C344.653 188.829 337.134 190.842 329.513 192.381C321.334 194.039 313.078 195.319 304.824 196.335C295.856 197.353 286.775 197.994 277.736 198.332C268.281 198.671 258.827 198.751 249.371 198.408C240.253 198.069 231.21 197.466 222.166 196.486C213.832 195.545 205.544 194.34 197.328 192.682C189.758 191.224 182.289 189.286 174.963 186.881C167.647 184.396 160.255 181.457 153.876 176.98C150.949 174.909 147.873 172.378 146.408 168.957C144.871 165.341 146.558 161.876 148.998 159.196C151.464 156.712 154.271 154.594 157.332 152.905C160.665 150.972 164.139 149.297 167.726 147.896C175.184 144.96 182.861 142.617 190.685 140.889C198.611 139.035 206.626 137.589 214.699 136.557C223.554 135.352 232.41 134.56 241.301 134.071C250.682 133.544 260.138 133.393 269.594 133.544C278.862 133.694 288.016 134.222 297.209 135.014C305.727 135.804 314.244 136.896 322.687 138.404C330.277 139.739 337.792 141.474 345.2 143.601C353.077 145.707 360.673 148.755 367.826 152.679C370.865 154.313 373.669 156.353 376.161 158.744C378.675 161.343 380.884 164.771 379.613 168.505C378.369 171.664 375.37 174.339 372.516 176.409H372.513Z" fill="#FFAF51"/>
<path d="M262.84 140.399C251.807 140.399 240.739 140.817 229.708 141.718C220.065 142.509 210.346 143.639 200.741 145.41C192.964 146.702 185.29 148.552 177.777 150.946C172.28 152.558 167.038 154.943 162.205 158.028C159.427 159.949 156.352 162.63 155.826 166.239C155.301 169.586 157.441 172.53 159.803 174.606C163.841 177.852 168.413 180.363 173.313 182.026C180.279 184.616 187.444 186.631 194.737 188.051C203.841 189.899 213.033 191.282 222.277 192.194C233.01 193.248 243.778 193.926 254.547 194.115C265.798 194.304 277.06 194.115 288.28 193.436C298.335 192.834 308.316 191.817 318.297 190.31C326.6 189.102 334.82 187.379 342.911 185.15C348.982 183.595 354.85 181.333 360.397 178.408C363.774 176.524 367.526 174.075 369.176 170.459C369.764 169.054 369.939 167.509 369.68 166.007C369.421 164.505 368.738 163.109 367.713 161.985C364.861 158.444 360.472 156.108 356.343 154.3C350.041 151.565 343.496 149.434 336.794 147.935C328.087 145.866 319.267 144.306 310.379 143.263C299.986 141.983 289.63 141.191 279.162 140.777C273.833 140.474 268.279 140.359 262.84 140.399Z" fill="#022B42"/>
<path d="M142.431 172.869L142.281 172.681L142.431 172.869Z" fill="white"/>
<path d="M141.906 171.928L141.831 171.739L141.906 171.928Z" fill="white"/>
<path d="M141.494 171.024L141.419 170.834L141.494 171.024Z" fill="white"/>
<path d="M143.707 174.753L143.557 174.564L143.707 174.753Z" fill="white"/>
<path d="M141.119 170.006L141.044 169.855L141.119 170.006Z" fill="white"/>
<path d="M143.031 173.81C142.956 173.735 142.956 173.659 142.881 173.622C142.922 173.692 142.972 173.755 143.031 173.81V173.81Z" fill="white"/>
<path d="M147.047 178.289L146.971 178.214L147.047 178.289Z" fill="white"/>
<path d="M144.421 175.694L144.271 175.506L144.421 175.694Z" fill="white"/>
<path d="M148.023 179.159L147.948 179.084L148.023 179.159Z" fill="white"/>
<path d="M145.246 176.56L145.096 176.409L145.246 176.56Z" fill="white"/>
<path d="M146.108 177.426L145.958 177.275L146.108 177.426Z" fill="white"/>
<path d="M219.234 30.9C219.234 30.9 226.735 41.5219 229.627 47.549C232.479 53.576 234.804 49.7718 226.775 35.7208C223.934 34.7013 221.356 33.0538 219.234 30.9V30.9Z" fill="#022B42"/>
<path d="M328.128 45.6721C332.325 49.2318 335.946 53.4255 338.859 58.1026C342.311 63.7908 346.175 61.4495 336.457 48.6103C333.583 47.9378 330.79 46.9526 328.128 45.6721V45.6721Z" fill="#022B42"/>
<path d="M172.524 24.007H174.782C176.697 24.0823 178.647 24.2705 180.524 24.5341C181.124 24.6094 181.724 24.7224 182.399 24.873C183.074 25.0236 183.675 25.1365 184.313 25.2913C185.626 25.5549 187.052 25.969 188.515 26.4223C189.978 26.8564 191.416 27.3703 192.823 27.9618C193.574 28.2253 194.287 28.5642 195.037 28.9031C195.787 29.2419 196.501 29.5822 197.251 29.9587C198.001 30.3771 198.64 30.7494 199.389 31.0883C200.119 31.4422 200.811 31.8712 201.453 32.3684C202.766 33.2358 204.043 34.1813 205.243 35.1184C206.443 36.0555 207.495 37.04 208.507 37.9813C209.008 38.4335 209.473 38.925 209.896 39.4511L211.171 40.8456C211.959 41.7116 212.634 42.6584 213.236 43.4449C213.746 44.1024 214.21 44.7943 214.625 45.5158C215.375 46.722 215.75 47.3998 215.75 47.3998C215.854 47.5946 215.876 47.8228 215.813 48.0344C215.75 48.246 215.606 48.4239 215.412 48.5293C215.253 48.627 215.064 48.6654 214.879 48.6379C214.694 48.6103 214.524 48.5186 214.4 48.3787V48.3034C213.909 47.788 213.446 47.2476 213.011 46.6844C212.559 46.1573 211.997 45.6287 211.359 44.951C211.021 44.6121 210.684 44.2733 210.309 43.9344C209.892 43.5956 209.559 43.1814 209.107 42.8049L207.795 41.5986C207.344 41.1803 206.857 40.8079 206.332 40.3938C205.807 39.9796 205.28 39.6031 204.718 39.1889C204.193 38.7706 203.593 38.3968 203.067 37.9827C202.542 37.5685 201.866 37.192 201.262 36.7778L199.385 35.6469L197.472 34.5173C196.797 34.1785 196.158 33.7643 195.483 33.4631C194.17 32.7854 192.744 32.1439 191.431 31.5791C190.118 31.0144 188.692 30.4496 187.379 29.9601C186.065 29.5083 184.714 29.0174 183.514 28.6786C182.314 28.3397 181.113 27.9255 179.987 27.662C177.773 27.1348 175.934 26.6454 174.584 26.4571L173.045 26.1936L172.519 26.1183H172.449C172.169 26.0933 171.909 25.9627 171.721 25.7528C171.533 25.543 171.431 25.2694 171.436 24.9873C171.441 24.8506 171.474 24.7164 171.532 24.5926C171.59 24.4688 171.672 24.358 171.774 24.2666C171.875 24.1752 171.994 24.1051 172.122 24.0605C172.251 24.0159 172.388 23.9977 172.524 24.007V24.007Z" fill="#022B42"/>
<path d="M193.535 44.4602C193.65 44.4771 193.762 44.5022 193.873 44.5355C194.136 44.6108 194.473 44.6861 194.886 44.799C195.411 44.9356 195.926 45.1118 196.425 45.3262C197.025 45.5897 197.7 45.778 198.338 46.1182L199.388 46.6454L200.514 47.2478C201.302 47.6661 202.052 48.1891 202.841 48.6423C203.664 49.1529 204.442 49.7328 205.166 50.3757C205.955 51.0257 206.71 51.7169 207.427 52.4465L208.477 53.576C208.814 53.9944 209.152 54.3667 209.491 54.7809C209.827 55.1641 210.14 55.5669 210.428 55.9871L211.216 57.192C211.479 57.6103 211.741 57.9827 211.966 58.3968C212.162 58.8145 212.388 59.2176 212.641 59.6031C212.864 59.9675 213.064 60.3447 213.243 60.7326C213.43 61.151 213.505 61.4857 213.659 61.8622C213.922 62.6166 214.185 63.2567 214.41 63.8591C214.565 64.3889 214.678 64.9303 214.747 65.4781C214.935 66.3455 215.01 66.8726 215.01 66.8726C215.04 67.1065 214.978 67.3429 214.838 67.5324C214.699 67.7219 214.491 67.8497 214.26 67.8892C214.091 67.9088 213.921 67.8798 213.768 67.8057C213.615 67.7317 213.486 67.6155 213.397 67.4709L213.322 67.3956C213.322 67.3956 213.059 66.9772 212.647 66.266C212.458 65.8477 212.195 65.4739 211.97 64.9468C211.67 64.3844 211.332 63.8435 210.958 63.3278C210.77 63.0642 210.62 62.7254 210.358 62.3865C210.095 62.0476 209.907 61.7827 209.682 61.4438L208.931 60.4272L208.143 59.4106L207.356 58.3927C207.064 58.0353 206.751 57.6958 206.418 57.3761L205.479 56.3595L204.466 55.4168C203.791 54.7391 203.154 54.1366 202.477 53.5342C201.801 52.9318 201.088 52.4047 200.414 51.8008C199.779 51.2513 199.115 50.736 198.425 50.2571C197.823 49.7967 197.197 49.3689 196.55 48.9756C195.948 48.6367 195.423 48.2225 194.936 47.9213C194.529 47.6286 194.103 47.3644 193.66 47.1307C193.413 46.9549 193.148 46.8036 192.871 46.6788L192.534 46.4906C192.411 46.4208 192.304 46.326 192.219 46.2123C192.134 46.0987 192.074 45.9686 192.043 45.8303C192.011 45.6921 192.008 45.5487 192.035 45.4093C192.061 45.2699 192.116 45.1376 192.196 45.0208C192.759 44.6024 193.169 44.3807 193.548 44.456L193.535 44.4602Z" fill="#022B42"/>
<path d="M351.804 62.2401C352.867 62.9052 353.775 63.7911 354.468 64.8381C355.205 65.8457 355.751 66.98 356.081 68.1849C356.406 69.3996 356.547 70.6568 356.498 71.9138C356.414 73.1819 356.056 74.4164 355.448 75.5311C355.321 75.7227 355.131 75.8623 354.91 75.9245C354.69 75.9867 354.455 75.9673 354.247 75.87C354.066 75.7321 353.923 75.5502 353.831 75.3415V75.1909C353.567 74.1366 353.414 73.12 353.154 72.1787C352.894 71.2374 352.704 70.2948 352.367 69.3897C352.029 68.447 351.766 67.5769 351.354 66.6398C350.938 65.689 350.599 64.7065 350.34 63.7016L350.265 63.5133C350.225 63.3771 350.212 63.2342 350.229 63.0931C350.245 62.9521 350.29 62.8158 350.36 62.6925C350.43 62.5692 350.524 62.4615 350.637 62.3758C350.75 62.2902 350.879 62.2284 351.016 62.1941C351.141 62.1366 351.279 62.1107 351.416 62.1187C351.553 62.1268 351.686 62.1684 351.804 62.2401V62.2401Z" fill="#022B42"/>
<path d="M244.79 260.313C240.68 254.035 234.533 249.345 230.108 243.286C220.989 230.802 220.486 212.725 228.701 199.628C236.915 186.531 253.25 179.116 268.558 181.318C283.866 183.519 297.368 195.098 302.099 209.815C306.794 224.418 302.07 238.35 292.954 250.047C288.836 255.331 283.061 261.668 282.017 268.562C281.023 275.123 285.058 282.201 281.284 288.494C278.468 293.189 272.353 294.717 266.876 294.725C260.27 294.736 249.941 294.306 249.632 285.967C249.283 276.538 250.317 268.753 244.79 260.313Z" fill="#FFAF51"/>
<path d="M269.605 275.424C269.462 275.45 269.234 274.953 268.928 273.973C268.854 273.728 268.766 273.454 268.69 273.148C268.613 272.842 268.533 272.506 268.448 272.142C268.366 271.778 268.272 271.385 268.189 270.963C268.112 270.539 268.03 270.088 267.943 269.61C267.901 269.371 267.859 269.125 267.815 268.872C267.779 268.618 267.742 268.358 267.704 268.091C267.632 267.556 267.546 266.995 267.482 266.407C267.422 265.818 267.359 265.203 267.294 264.564C267.239 263.924 267.2 263.257 267.152 262.567C266.994 259.803 266.975 256.64 267.215 253.151C267.457 249.663 267.985 245.853 268.881 241.821C268.997 241.319 269.124 240.815 269.248 240.306C269.31 240.051 269.373 239.796 269.435 239.539C269.501 239.284 269.567 239.028 269.64 238.763C269.929 237.71 270.269 236.607 270.791 235.479C271.053 234.917 271.367 234.348 271.753 233.794C271.85 233.656 271.954 233.52 272.057 233.383C272.164 233.248 272.278 233.115 272.39 232.981C272.507 232.851 272.631 232.723 272.753 232.595C272.887 232.465 273.033 232.335 273.176 232.208C274.352 231.215 275.882 230.622 277.497 230.62C278.302 230.618 279.122 230.769 279.887 231.071C280.65 231.371 281.359 231.823 281.942 232.352C282.533 232.885 283.03 233.508 283.425 234.184C283.82 234.86 284.115 235.59 284.304 236.358C284.488 237.128 284.565 237.94 284.493 238.784C284.488 238.889 284.473 238.996 284.457 239.102L284.409 239.421C284.365 239.621 284.329 239.823 284.271 240.019L284.187 240.315C284.157 240.412 284.122 240.507 284.089 240.603C284.024 240.797 283.943 240.98 283.866 241.166C283.541 241.9 283.122 242.557 282.668 243.148C282.21 243.735 281.716 244.261 281.209 244.739C280.952 244.98 280.706 245.205 280.442 245.424C280.179 245.643 279.923 245.87 279.646 246.074C279.374 246.284 279.103 246.497 278.818 246.69L278.394 246.986C278.253 247.085 278.105 247.173 277.961 247.267C276.8 248.011 275.571 248.653 274.296 249.196C271.744 250.28 269.008 250.968 266.201 251.257C263.394 251.546 260.578 251.424 257.862 250.89C256.505 250.622 255.173 250.25 253.887 249.769C253.243 249.528 252.611 249.262 251.993 248.967C251.373 248.675 250.776 248.346 250.2 248.018C249.616 247.681 249.023 247.298 248.449 246.862C247.874 246.426 247.313 245.92 246.801 245.327C246.289 244.738 245.837 244.033 245.511 243.266C245.47 243.169 245.432 243.059 245.394 242.956C245.357 242.851 245.315 242.746 245.288 242.64C245.23 242.428 245.169 242.215 245.135 242.003C245.116 241.897 245.095 241.79 245.08 241.684L245.046 241.367C245.02 241.155 245.024 240.946 245.017 240.736C245.018 239.898 245.176 239.083 245.459 238.314C245.744 237.546 246.16 236.822 246.706 236.2C246.847 236.05 246.982 235.893 247.134 235.754L247.363 235.547L247.479 235.444C247.519 235.412 247.561 235.381 247.602 235.349C247.928 235.093 248.28 234.865 248.651 234.677C249.393 234.298 250.204 234.075 251.008 234.008C251.814 233.94 252.613 234.023 253.368 234.235C254.123 234.446 254.836 234.79 255.469 235.256L255.702 235.436L255.817 235.526L255.919 235.617C256.052 235.738 256.19 235.855 256.311 235.984C256.436 236.111 256.561 236.237 256.673 236.37L256.844 236.567C256.899 236.633 256.95 236.701 257.003 236.768C257.424 237.305 257.765 237.86 258.056 238.41C258.635 239.511 259.025 240.593 259.37 241.607C259.539 242.112 259.699 242.616 259.861 243.113C259.941 243.362 260.021 243.61 260.101 243.857C260.18 244.105 260.248 244.355 260.322 244.602C260.466 245.096 260.609 245.587 260.75 246.073C260.884 246.561 261.006 247.048 261.133 247.528C261.195 247.768 261.257 248.008 261.319 248.246C261.383 248.484 261.432 248.724 261.488 248.961C261.597 249.435 261.705 249.906 261.812 250.371C261.868 250.603 261.914 250.836 261.96 251.068C262.006 251.3 262.052 251.53 262.098 251.76C262.187 252.219 262.285 252.671 262.363 253.122C262.44 253.572 262.516 254.019 262.591 254.459C262.628 254.68 262.665 254.899 262.702 255.117C262.736 255.335 262.764 255.553 262.796 255.769C263.303 259.226 263.535 262.378 263.601 265.143C263.607 265.489 263.613 265.829 263.618 266.163C263.621 266.329 263.623 266.494 263.626 266.658C263.628 266.822 263.623 266.984 263.622 267.145C263.612 267.787 263.602 268.404 263.592 268.996C263.568 269.588 263.537 270.153 263.509 270.691C263.493 270.961 263.484 271.223 263.463 271.479C263.44 271.734 263.419 271.983 263.398 272.225C263.352 272.709 263.309 273.165 263.269 273.593C263.217 274.021 263.162 274.42 263.11 274.79C263.057 275.16 263.006 275.501 262.956 275.812C262.904 276.123 262.842 276.404 262.789 276.655C262.57 277.657 262.385 278.172 262.241 278.158C262.096 278.144 261.998 277.602 261.943 276.59C261.921 276.086 261.893 275.462 261.861 274.724C261.849 274.357 261.837 273.962 261.823 273.539C261.804 273.117 261.783 272.667 261.76 272.191C261.751 271.954 261.741 271.709 261.731 271.459C261.721 271.208 261.7 270.951 261.685 270.688C261.654 270.161 261.621 269.609 261.587 269.033C261.541 268.457 261.493 267.857 261.442 267.233C261.429 267.077 261.42 266.919 261.404 266.761C261.387 266.602 261.371 266.442 261.354 266.28C261.321 265.957 261.288 265.628 261.253 265.294C260.969 262.619 260.539 259.588 259.866 256.282C259.824 256.076 259.786 255.867 259.741 255.659C259.694 255.451 259.647 255.241 259.6 255.031C259.505 254.61 259.41 254.184 259.314 253.754C259.218 253.324 259.101 252.893 258.994 252.456C258.94 252.238 258.885 252.018 258.83 251.797C258.775 251.577 258.721 251.355 258.657 251.134C258.534 250.691 258.41 250.244 258.285 249.793C258.221 249.568 258.164 249.34 258.094 249.114C258.024 248.888 257.955 248.661 257.885 248.433C257.745 247.977 257.609 247.515 257.463 247.052C257.309 246.592 257.154 246.128 256.998 245.659C256.918 245.425 256.844 245.189 256.76 244.954C256.675 244.72 256.589 244.485 256.503 244.248C256.331 243.776 256.158 243.3 255.983 242.82C255.626 241.873 255.256 240.969 254.807 240.179C254.584 239.785 254.341 239.424 254.08 239.11C254.047 239.071 254.015 239.03 253.982 238.993L253.88 238.884C253.814 238.808 253.743 238.743 253.673 238.676C253.606 238.605 253.529 238.549 253.458 238.486L253.404 238.44L253.354 238.405L253.257 238.334C252.733 237.965 252.013 237.789 251.365 237.866C250.711 237.94 250.147 238.246 249.705 238.771C249.276 239.283 249.022 240.016 249.034 240.723C249.045 241.075 249.111 241.402 249.235 241.682C249.388 242.015 249.59 242.34 249.88 242.661C250.166 242.981 250.513 243.296 250.918 243.593C251.323 243.891 251.766 244.174 252.255 244.449C252.756 244.725 253.249 244.99 253.759 245.224C254.267 245.461 254.791 245.676 255.326 245.871C256.396 246.26 257.513 246.565 258.66 246.784C260.955 247.223 263.368 247.323 265.773 247.075C268.177 246.827 270.518 246.242 272.668 245.343C273.742 244.893 274.769 244.365 275.728 243.761C275.847 243.685 275.97 243.614 276.086 243.534L276.434 243.295C276.67 243.14 276.89 242.968 277.114 242.8C277.34 242.638 277.55 242.453 277.767 242.277C277.983 242.104 278.195 241.913 278.391 241.734C278.787 241.37 279.138 240.998 279.439 240.624C279.734 240.25 279.976 239.873 280.148 239.501C280.187 239.407 280.233 239.315 280.263 239.221C280.279 239.175 280.3 239.129 280.314 239.082L280.356 238.943C280.387 238.851 280.4 238.755 280.427 238.663L280.446 238.536C280.454 238.494 280.462 238.452 280.464 238.407C280.499 238.056 280.477 237.663 280.393 237.277C280.218 236.5 279.809 235.769 279.277 235.269C279.006 235.011 278.724 234.831 278.423 234.701C278.122 234.573 277.802 234.503 277.472 234.494C276.813 234.472 276.115 234.71 275.591 235.129C275.528 235.187 275.465 235.237 275.398 235.296L275.189 235.505L274.991 235.73L274.8 235.972C274.552 236.306 274.326 236.681 274.122 237.087C273.713 237.899 273.388 238.816 273.095 239.764C273.022 239.999 272.949 240.243 272.878 240.487C272.809 240.731 272.741 240.974 272.673 241.215C272.537 241.699 272.397 242.177 272.268 242.653C271.269 246.468 270.595 250.097 270.175 253.441C269.758 256.785 269.571 259.839 269.504 262.526C269.495 263.198 269.476 263.848 269.473 264.473C269.477 265.099 269.48 265.701 269.482 266.278C269.487 266.855 269.511 267.407 269.521 267.935C269.527 268.199 269.532 268.456 269.538 268.707C269.549 268.957 269.56 269.202 269.571 269.439C269.59 269.915 269.608 270.364 269.624 270.786C269.642 271.209 269.671 271.603 269.687 271.971C269.705 272.338 269.719 272.678 269.729 272.99C269.738 273.302 269.758 273.583 269.764 273.836C269.798 274.848 269.748 275.397 269.605 275.424Z" fill="#022B42"/>
<path d="M284.927 283.148C285.688 282.073 286.287 280.887 286.637 279.582C287.552 276.165 286.502 272.404 283.36 271.151C279.481 269.605 276.484 271.01 272.486 272.192C267.601 273.637 262.469 273.766 256.813 272.069C252.687 270.831 247.671 268.915 244.638 273.864C242.728 276.98 243.178 281.263 245.078 284.438C244.929 284.642 244.782 284.86 244.638 285.095C242.728 288.212 243.178 292.494 245.078 295.669C244.929 295.873 244.782 296.092 244.638 296.326C242.591 299.666 243.253 304.343 245.506 307.563C247.759 310.782 251.304 312.727 254.919 313.857C263.403 316.508 272.914 315.057 280.304 309.985C283.107 308.061 285.721 305.462 286.637 302.045C287.342 299.411 286.699 296.259 284.927 294.379C285.688 293.305 286.287 292.119 286.637 290.814C287.342 288.179 286.699 285.028 284.927 283.148Z" fill="#FF7751"/>
<path d="M281.522 284.791C281.584 284.858 281.551 285.004 281.413 285.232C281.341 285.337 281.241 285.462 281.114 285.599C280.983 285.726 280.828 285.879 280.641 286.021C279.898 286.619 278.701 287.252 277.175 287.831C276.412 288.121 275.565 288.398 274.649 288.658C273.726 288.918 272.738 289.152 271.685 289.36C269.58 289.774 267.206 290.051 264.706 290.041C262.205 290.037 259.841 289.75 257.744 289.355C256.696 289.159 255.704 288.937 254.787 288.7C253.87 288.464 253.022 288.214 252.255 287.96C251.487 287.705 250.8 287.446 250.206 287.189C249.613 286.931 249.112 286.675 248.715 286.442C247.921 285.967 247.556 285.573 247.638 285.413C247.724 285.244 248.226 285.311 249.085 285.468C249.518 285.544 250.039 285.646 250.647 285.759C251.254 285.871 251.947 285.995 252.715 286.125C253.482 286.255 254.324 286.391 255.231 286.526C256.137 286.663 257.101 286.796 258.121 286.919C260.157 287.167 262.382 287.362 264.713 287.366C267.044 287.375 269.264 287.19 271.287 286.927C272.298 286.794 273.263 286.65 274.154 286.496C275.051 286.339 275.882 286.178 276.636 286.018C278.143 285.696 279.337 285.374 280.14 285.108C280.346 285.047 280.517 284.979 280.679 284.932C280.833 284.878 280.968 284.834 281.085 284.804C281.305 284.733 281.46 284.722 281.522 284.791Z" fill="#022B42"/>
<path d="M282.491 295.751C282.553 295.819 282.516 295.969 282.372 296.204C282.296 296.313 282.193 296.444 282.06 296.586C281.925 296.719 281.764 296.879 281.57 297.029C280.8 297.658 279.561 298.341 277.977 298.978C277.184 299.297 276.306 299.609 275.353 299.902C274.394 300.197 273.368 300.471 272.271 300.718C270.081 301.213 267.609 301.584 264.987 301.657C262.364 301.736 259.867 301.49 257.654 301.101C255.437 300.712 253.486 300.185 251.877 299.643C250.269 299.097 249.008 298.523 248.182 298.029C247.355 297.537 246.964 297.145 247.042 296.983C247.123 296.812 247.653 296.879 248.557 297.058C249.461 297.239 250.752 297.518 252.356 297.812C253.961 298.103 255.878 298.422 258.007 298.661C260.136 298.901 262.467 299.056 264.911 298.982C267.356 298.915 269.684 298.641 271.801 298.298C272.859 298.128 273.869 297.942 274.801 297.754C275.738 297.563 276.608 297.368 277.395 297.178C278.97 296.797 280.216 296.424 281.055 296.123C281.269 296.054 281.449 295.979 281.617 295.925C281.779 295.864 281.918 295.813 282.04 295.779C282.269 295.699 282.428 295.684 282.491 295.751Z" fill="#022B42"/>
<path d="M272.01 154.133C272.01 159.426 267.608 163.527 262.185 163.716C255.425 163.952 252.36 159.426 252.36 154.133C252.36 148.84 255.972 144.55 261.399 144.55C268.787 144.55 272.01 148.84 272.01 154.133Z" fill="#04294F"/>
<path d="M269.062 168.147C269.062 171.133 266.641 173.447 263.658 173.553C259.941 173.686 258.255 171.133 258.255 168.147C258.255 165.162 260.242 162.742 263.226 162.742C267.29 162.742 269.062 165.162 269.062 168.147Z" fill="#04294F"/>
<path d="M262.525 175.087C262.869 175.104 263.213 175.052 263.538 174.936C263.862 174.819 264.16 174.639 264.415 174.406C264.67 174.173 264.876 173.892 265.022 173.58C265.169 173.267 265.252 172.928 265.267 172.583C265.347 170.321 265.347 168.14 265.347 165.878C265.347 163.616 265.267 161.434 265.105 159.172C264.863 154.729 264.541 150.286 263.976 145.843C263.976 145.5 263.84 145.171 263.598 144.929C263.356 144.686 263.028 144.55 262.686 144.55C262.344 144.55 262.015 144.686 261.773 144.929C261.531 145.171 261.395 145.5 261.395 145.843C260.831 150.286 260.508 154.729 260.266 159.172C260.186 161.434 260.105 163.616 260.024 165.878C260.024 168.14 260.024 170.321 260.105 172.583C260.098 172.907 260.155 173.229 260.273 173.531C260.391 173.833 260.567 174.109 260.792 174.342C261.017 174.575 261.286 174.761 261.584 174.889C261.881 175.017 262.201 175.084 262.525 175.087Z" fill="#FF7751"/>
<path d="M280.429 176.622C281.509 175.717 282.532 174.745 283.494 173.714C284.461 172.664 285.429 171.694 286.316 170.563C287.204 169.513 288.171 168.382 288.978 167.251C289.784 166.12 290.752 164.989 291.478 163.777C291.597 163.553 291.66 163.304 291.66 163.05C291.66 162.796 291.597 162.547 291.478 162.323C291.3 162.03 291.017 161.816 290.687 161.726C290.357 161.636 290.005 161.676 289.704 161.838H289.623C288.413 162.565 287.284 163.454 286.074 164.262C284.918 165.081 283.814 165.971 282.768 166.928C281.719 167.817 280.59 168.786 279.622 169.675C278.574 170.644 277.606 171.614 276.638 172.664C276.16 173.177 275.896 173.854 275.9 174.557C275.905 175.259 276.178 175.933 276.664 176.44C277.149 176.947 277.81 177.248 278.51 177.282C279.21 177.316 279.897 177.08 280.429 176.622V176.622Z" fill="#FF7751"/>
<path d="M236.636 167.413C237.523 168.544 238.41 169.594 239.378 170.725C240.265 171.775 241.233 172.825 242.201 173.876C243.168 174.926 244.217 175.814 245.265 176.784C245.517 177.023 245.813 177.209 246.138 177.33C246.463 177.452 246.808 177.507 247.155 177.492C247.501 177.477 247.84 177.392 248.153 177.243C248.466 177.093 248.746 176.882 248.975 176.622C249.21 176.379 249.394 176.092 249.516 175.777C249.639 175.462 249.699 175.126 249.691 174.788C249.684 174.45 249.609 174.117 249.473 173.808C249.336 173.498 249.14 173.22 248.895 172.987C247.927 171.937 246.959 170.967 245.911 169.998C244.862 169.028 243.814 168.14 242.765 167.251C241.717 166.362 240.588 165.474 239.459 164.585C238.321 163.713 237.136 162.904 235.91 162.161C235.657 161.928 235.326 161.798 234.982 161.798C234.639 161.798 234.307 161.928 234.055 162.161C233.822 162.414 233.692 162.746 233.692 163.091C233.692 163.435 233.822 163.767 234.055 164.02C234.942 165.151 235.829 166.282 236.636 167.413Z" fill="#FF7751"/>
</svg>
