<svg width="879" height="924" viewBox="0 0 879 924" fill="none" xmlns="http://www.w3.org/2000/svg">
<path d="M98.965 722.75L269.064 845.217L477.608 866.226L668.716 780.149L791.182 610.049L812.191 401.506L726.114 210.398L556.015 87.9314L347.472 66.9222L156.363 152.999L33.897 323.099" stroke="#FF7751" stroke-width="2"/>
<path d="M191.603 200.597C191.674 200.455 191.744 200.243 191.744 200.102C194.079 193.876 200.092 198.121 198.394 201.658C197.545 203.426 198.96 207.954 205.822 207.812C212.684 207.671 216.009 217.009 207.59 219.838C199.102 222.668 198.748 229.388 202.78 232.642C192.452 225.639 187.854 212.764 191.532 200.88C191.603 200.809 191.603 200.809 191.603 200.597Z" fill="#E62A3D"/>
<path d="M218.697 180.86C219.192 180.86 219.616 180.86 220.041 180.86C225.063 188.5 218.697 189.561 221.031 195.928C222.729 200.455 232.067 200.314 225.912 209.298C221.456 215.877 226.973 221.678 232.703 217.292C238.433 212.906 245.861 216.372 244.446 220.758C244.305 221.112 244.163 221.395 243.951 221.748C240.98 227.69 236.028 232.43 229.945 235.118C212.542 218.353 210.208 226.771 212.542 236.887C209.005 236.109 205.681 234.694 202.709 232.713C198.677 229.388 199.031 222.739 207.52 219.909C216.009 217.079 212.613 207.671 205.751 207.883C198.889 208.095 197.475 203.497 198.323 201.729C200.021 198.192 194.008 193.947 191.674 200.172C195.706 188.571 206.529 180.789 218.697 180.86ZM211.906 198.616C214.735 194.442 214.382 191.683 211.34 190.056C208.298 188.5 205.681 190.269 206.105 193.593C206.529 196.918 208.51 203.639 211.906 198.616Z" fill="#022B42"/>
<path d="M211.906 198.616C208.51 203.639 206.529 196.918 206.105 193.593C205.68 190.269 208.298 188.5 211.34 190.056C214.382 191.683 214.735 194.442 211.906 198.616Z" fill="#E62A3D"/>
<path d="M230.086 235.118C224.639 237.523 218.555 238.16 212.684 236.887C210.349 226.771 212.684 218.353 230.086 235.118Z" fill="#E62A3D"/>
<path d="M230.298 183.336C244.588 189.773 250.954 206.539 244.517 220.828C245.932 216.443 238.504 212.976 232.774 217.362C226.973 221.748 221.526 215.877 225.983 209.368C232.137 200.314 222.799 200.526 221.102 195.998C218.767 189.632 225.134 188.571 220.111 180.931C223.578 181.001 227.044 181.85 230.298 183.336Z" fill="#E62A3D"/>
<path d="M350.77 680.643L382.674 670.952L476.122 642.443V650.791L518.708 637.845L526.136 635.582V627.234L556.908 617.896L615.694 599.999L709.213 436.305L709.071 435.88L525.145 491.836L522.67 492.614L440.398 517.727L440.327 518.223L429.716 537.464L426.887 542.557L423.137 549.349L409.272 574.532L350.77 680.643ZM496.778 641.594C496.495 641.17 496.566 640.604 496.991 640.321C497.557 639.897 498.193 639.614 498.83 639.331C499.467 639.048 500.103 638.836 500.74 638.623C501.377 638.411 502.084 638.27 502.721 638.128C503.428 637.987 504.135 637.916 504.772 637.987C505.055 637.987 505.267 638.128 505.409 638.34C505.692 638.694 505.621 639.26 505.197 639.543C504.631 639.967 503.994 640.321 503.357 640.604C502.084 641.17 500.811 641.594 499.467 641.807C498.759 641.948 498.052 642.019 497.415 641.948C497.203 641.948 496.92 641.807 496.778 641.594ZM477.325 641.807C477.183 641.241 477.466 640.675 478.032 640.463L524.155 626.385C524.721 626.244 525.216 626.527 525.428 627.022C525.641 627.588 525.358 628.154 524.792 628.437H524.721C522.811 629.144 520.972 629.781 519.062 630.488L513.332 632.469C509.512 633.742 505.692 634.945 501.872 636.147C497.981 637.279 494.161 638.411 490.27 639.543L484.47 641.099C482.489 641.594 480.579 642.09 478.598 642.514H478.527C478.103 642.585 477.537 642.302 477.325 641.807ZM371.567 665.717L415.993 585.285L437.993 545.458L439.761 542.274L442.025 538.171L447.967 527.348L448.038 526.994L476.193 518.364L501.094 510.795L520.052 504.994L627.649 472.17L686.788 454.131L686.93 454.485L607.346 593.844L556.059 609.478L371.567 665.717Z" fill="#3A829C"/>
<path d="M371.567 665.717L555.988 609.478L607.276 593.844L686.93 454.485L686.788 454.131L627.649 472.17L519.911 504.994L500.952 510.795L476.122 518.364L447.967 526.924L447.897 527.277L441.954 538.101L439.691 542.204L437.922 545.387L415.993 585.285L371.567 665.717ZM505.126 615.067L569.712 500.962L665.495 471.817L599.423 586.346L505.126 615.067ZM392.648 649.73L457.234 535.625L553.017 506.48L486.946 621.009L392.648 649.73Z" fill="#022B42"/>
<path d="M404.603 640.18L483.196 616.269L540.991 516.1L461.125 540.364L404.603 640.18ZM478.032 575.947L485.814 591.51L478.244 595.33L471.807 582.455L450.656 604.314L445.562 599.362L468.411 575.735L460.63 560.243L468.199 556.423L474.637 569.297L495.788 547.439L500.881 552.39L478.032 575.947Z" fill="#022B42"/>
<path d="M517.081 605.446L595.674 581.536L653.469 481.367L573.603 505.702L517.081 605.446Z" fill="#022B42"/>
<path d="M709.071 435.88L709.213 435.81L702.21 432.556L534.978 482.357L435.093 512.21L440.469 517.657L522.811 492.615L525.287 491.836L709.071 435.88Z" fill="#022B42"/>
<path d="M392.79 588.822L392.719 588.893L390.172 593.42C386.989 599.716 383.735 606.012 380.481 612.237C376.873 619.028 373.265 625.748 369.587 632.469L364.069 642.514L358.48 652.559C354.802 659.138 350.982 665.646 347.091 672.084C347.516 673.216 347.94 674.347 348.364 675.479L350.699 680.573L409.272 574.391L423.137 549.207L426.887 542.487L429.716 537.393L440.327 518.152L440.398 517.727L435.093 512.28L421.581 536.757L410.475 556.847L402.198 571.915L399.581 576.584L392.79 588.822Z" fill="#F0F0F0"/>
<path d="M505.126 615.067L599.423 586.346L665.495 471.817L569.712 500.962L505.126 615.067ZM517.081 605.446L573.603 505.631L653.469 481.367L595.674 581.606L517.081 605.446Z" fill="#3A829C"/>
<path d="M392.648 649.73L486.946 621.08L553.017 506.55L457.234 535.695L392.648 649.73ZM404.603 640.18L461.125 540.364L540.992 516.1L483.196 616.269L404.603 640.18Z" fill="#E62A3D"/>
<path d="M478.032 576.018L500.952 552.39L495.859 547.438L474.707 569.297L468.27 556.423L460.701 560.243L468.482 575.735L445.562 599.362L450.656 604.314L471.807 582.455L478.244 595.33L485.814 591.51L478.032 576.018Z" fill="#E62A3D"/>
<path d="M604.446 522.326L579.97 554.725L571.551 542.345L564.548 547.156L580.111 570.005L611.52 526.995L604.446 522.326Z" fill="#3A829C"/>
<path d="M380.551 612.237C383.805 606.012 387.06 599.716 390.243 593.42L391.021 591.793C391.092 591.581 391.021 591.298 390.809 591.227C390.597 591.156 390.384 591.227 390.243 591.368C386.281 597.947 382.391 604.526 378.571 611.176C374.751 617.825 371.001 624.475 367.252 631.195L361.664 641.241L356.146 651.357C352.538 658.077 349.001 664.868 345.535 671.73V671.801C345.464 672.013 345.464 672.225 345.535 672.437C346.525 674.277 347.445 676.045 348.506 677.814C348.577 677.955 348.789 678.026 349.001 677.955C349.143 677.884 349.213 677.672 349.143 677.531C348.93 676.894 348.647 676.257 348.435 675.55C348.011 674.418 347.586 673.286 347.162 672.154C351.053 665.646 354.802 659.138 358.551 652.559L364.14 642.514L369.657 632.469C373.336 625.819 376.944 619.028 380.551 612.237Z" fill="#3A829C"/>
<path d="M478.032 640.392C477.466 640.604 477.183 641.17 477.325 641.736C477.466 642.231 478.032 642.585 478.598 642.443H478.669C480.65 642.019 482.56 641.524 484.54 641.029L490.341 639.472C494.232 638.411 498.052 637.209 501.943 636.077C505.763 634.874 509.583 633.672 513.403 632.398L519.133 630.417C521.043 629.781 522.882 629.073 524.792 628.366H524.863C525.429 628.154 525.712 627.517 525.499 626.951C525.287 626.456 524.721 626.173 524.226 626.314L478.032 640.392Z" fill="#022B42"/>
<path d="M496.92 640.321C496.496 640.604 496.425 641.17 496.708 641.595C496.849 641.807 497.132 641.948 497.415 641.948C498.123 641.948 498.83 641.877 499.467 641.807C500.811 641.595 502.084 641.17 503.358 640.604C503.994 640.321 504.631 639.968 505.197 639.543C505.55 639.26 505.692 638.694 505.409 638.341C505.268 638.128 504.985 637.987 504.772 637.987C504.065 637.987 503.357 637.987 502.721 638.128C502.013 638.27 501.377 638.411 500.74 638.623C500.103 638.836 499.467 639.048 498.83 639.331C498.123 639.614 497.486 639.897 496.92 640.321Z" fill="#022B42"/>
<path d="M285.9 337.056C285.688 337.268 285.547 337.551 285.476 337.834C285.405 338.541 285.83 339.178 286.537 339.249L299.058 341.088C299.695 341.159 300.19 341.795 300.119 342.432L298.917 356.863C298.917 357.146 298.987 357.5 299.129 357.712C299.553 358.278 300.331 358.419 300.897 357.995L311.155 350.496C311.721 350.072 312.499 350.213 312.923 350.779L314.197 352.548C314.409 352.831 314.692 352.972 314.975 353.043C315.682 353.184 316.319 352.689 316.46 351.982L317.451 346.535C317.026 346.606 316.602 346.606 316.107 346.606C314.338 346.606 312.64 346.252 311.013 345.544C304.364 342.715 301.322 335.075 304.151 328.425C306.981 321.776 314.621 318.734 321.271 321.563C327.92 324.393 330.962 332.033 328.133 338.683L331.104 340.31L333.367 339.814C333.933 339.673 334.287 339.249 334.358 338.683L334.711 335.57C334.782 334.933 335.277 334.509 335.914 334.438L345.676 333.801C346.03 333.801 346.384 333.589 346.596 333.306C347.02 332.74 346.95 331.962 346.384 331.538L336.621 323.756C336.197 323.403 336.056 322.837 336.197 322.341L341.927 306.566C341.998 306.283 341.998 305.93 341.927 305.647C341.644 305.01 340.937 304.656 340.3 304.939L325.586 310.881C324.949 311.164 324.242 310.881 323.959 310.245L320.776 303.241C320.634 303.029 320.493 302.817 320.28 302.676C319.714 302.322 318.866 302.534 318.512 303.1L315.611 307.84C315.541 307.91 315.541 307.981 315.47 308.052C314.975 308.547 314.197 308.618 313.631 308.123L298.28 293.904C297.997 293.621 297.573 293.479 297.148 293.55C296.441 293.691 296.016 294.328 296.158 295.036L299.341 313.64C299.412 314.277 299.058 314.914 298.421 315.055L287.669 317.743C287.386 317.814 287.103 318.026 286.891 318.309C286.537 318.875 286.679 319.653 287.244 320.078L295.875 325.808C295.946 325.879 296.016 325.949 296.087 326.02C296.582 326.515 296.511 327.364 296.016 327.789L285.9 337.056Z" fill="#3A829C"/>
<path d="M303.161 333.518C303.161 340.734 309.033 346.535 316.177 346.535C316.673 346.535 317.097 346.535 317.521 346.464L318.3 346.393L315.258 338.046C314.833 336.914 314.975 335.641 315.682 334.65C316.814 332.953 319.149 332.457 320.846 333.66L328.203 338.612C328.911 336.985 329.264 335.287 329.264 333.518C329.264 326.303 323.393 320.502 316.248 320.502C309.033 320.502 303.161 326.303 303.161 333.518Z" fill="#FFAF51"/>
<path d="M326.718 357.924C325.303 359.339 323.959 360.966 322.756 362.593L327.354 379.429C331.387 374.619 335.914 370.233 340.866 366.342C346.313 362.027 352.255 358.349 358.551 355.448L342.988 346.818C342.776 346.889 342.493 346.959 342.281 347.101C340.371 347.879 338.461 348.869 336.692 350.001C334.853 351.133 333.084 352.336 331.457 353.68C329.83 354.953 328.203 356.439 326.718 357.924Z" fill="#022B42"/>
<path d="M350.557 409.423C346.384 413.668 342.564 418.195 339.168 423.076L348.718 458.093C356.146 445.926 368.455 432.343 384.089 420.105C399.722 407.867 415.851 399.095 429.433 394.851L397.671 377.236C392.295 379.359 387.06 381.905 382.037 384.876C376.307 388.272 370.719 392.021 365.484 396.124C360.249 400.156 355.297 404.613 350.557 409.423Z" fill="#022B42"/>
<path d="M335.419 380.844C333.297 382.966 331.387 385.23 329.618 387.635L336.551 413.243C343.342 404.188 351.548 396.407 360.32 389.474C365.908 385.159 371.78 381.198 377.934 377.661C381.471 375.68 385.079 373.911 388.757 372.284L365.767 359.551C362.371 360.895 359.117 362.522 356.004 364.432C352.184 366.696 348.577 369.172 345.11 371.931C341.715 374.69 338.461 377.661 335.419 380.844Z" fill="#022B42"/>
<path d="M318.37 346.393L320.988 356.085C323.039 353.538 325.374 351.274 327.92 349.223C330.75 346.959 333.863 345.049 337.117 343.564L331.245 340.239L328.274 338.612L320.917 333.66C319.927 333.023 318.653 332.811 317.521 333.235C315.611 333.943 314.621 336.065 315.329 338.046L318.37 346.393Z" fill="#022B42"/>
<path d="M348.718 458.093C340.937 470.968 338.673 482.215 343.766 488.724L370.506 532.158C363.432 517.232 382.674 486.106 415.639 460.286C448.604 434.465 483.409 423.147 496.213 433.617L483.974 421.237C483.762 421.449 483.409 421.591 483.055 421.449C481.852 420.954 480.65 420.388 479.518 419.681C478.457 419.044 477.396 418.337 476.405 417.558C474.425 416.002 472.656 414.375 470.958 412.536C469.26 410.767 467.633 408.857 466.148 406.877C464.592 404.896 463.247 402.703 462.116 400.439C461.903 400.015 461.974 399.59 462.328 399.307L460.347 397.256C455.254 390.748 443.794 390.252 429.433 394.78C415.851 399.024 399.722 407.725 384.089 420.034C368.455 432.343 356.146 445.925 348.718 458.093ZM454.122 419.822C452.141 418.195 450.373 416.427 448.675 414.517C446.906 412.677 445.279 410.767 443.794 408.716C443.086 407.655 442.379 406.594 441.742 405.462C441.459 404.896 441.176 404.259 440.893 403.693C440.61 403.127 440.327 402.491 440.045 401.925C439.903 401.642 439.903 401.288 440.115 401.005V400.934C440.398 400.439 441.035 400.298 441.53 400.581C442.096 400.864 442.662 401.288 443.228 401.571C443.794 401.925 444.36 402.278 444.926 402.632C445.987 403.34 447.048 404.118 448.038 404.896C449.948 406.523 451.787 408.291 453.414 410.201C455.183 412.041 456.81 413.951 458.296 416.002C459.003 417.063 459.71 418.195 460.347 419.256C460.63 419.822 460.913 420.459 461.196 421.025C461.479 421.591 461.762 422.227 462.045 422.793C462.186 423.076 462.186 423.43 461.974 423.713C461.691 424.208 461.054 424.349 460.63 424.067C460.064 423.784 459.498 423.359 458.932 423.076C458.366 422.793 457.8 422.44 457.234 422.086C456.173 421.449 455.112 420.671 454.122 419.822ZM436.649 426.33C434.739 424.562 432.9 422.722 431.202 420.742C429.433 418.832 427.877 416.78 426.462 414.658C425.755 413.526 425.118 412.394 424.482 411.262C423.845 410.06 423.35 408.787 422.925 407.513C422.854 407.301 422.855 407.089 422.996 406.877C423.208 406.452 423.703 406.24 424.128 406.452C425.33 407.018 426.533 407.725 427.594 408.574C428.655 409.352 429.716 410.131 430.636 411.05C432.546 412.819 434.315 414.658 435.942 416.709C437.569 418.69 439.125 420.812 440.54 422.935C442.025 425.128 443.299 427.462 444.36 429.867C444.501 430.15 444.43 430.504 444.289 430.787C444.006 431.282 443.369 431.424 442.874 431.07C440.681 429.726 438.63 428.099 436.649 426.33ZM420.803 434.89C418.893 433.051 417.195 431.07 415.568 428.948C413.941 426.896 412.456 424.703 411.112 422.51C409.697 420.247 408.494 417.841 407.433 415.365C407.292 415.082 407.362 414.729 407.504 414.446C407.787 413.951 408.423 413.88 408.919 414.163C411.112 415.648 413.234 417.346 415.144 419.256C417.054 421.095 418.822 423.005 420.52 424.986C422.218 426.967 423.774 429.089 425.189 431.353C425.896 432.485 426.533 433.687 427.099 434.89C427.736 436.163 428.16 437.437 428.584 438.781C428.655 438.993 428.585 439.205 428.514 439.417C428.302 439.842 427.806 439.983 427.382 439.771C426.179 439.134 424.977 438.356 423.916 437.507C422.784 436.658 421.723 435.809 420.803 434.89ZM406.372 444.652C404.533 442.742 402.764 440.761 401.137 438.71C399.439 436.658 397.954 434.465 396.61 432.202C395.973 430.999 395.336 429.797 394.77 428.594C394.205 427.321 393.709 425.977 393.426 424.632C393.356 424.42 393.426 424.208 393.497 423.996C393.709 423.571 394.275 423.43 394.629 423.642C395.832 424.349 396.963 425.128 398.025 426.047C399.086 426.896 400.076 427.816 400.996 428.806C402.835 430.716 404.533 432.768 406.089 434.89C407.645 437.012 409.131 439.276 410.475 441.54C411.89 443.874 413.022 446.35 413.941 448.826C414.012 449.109 414.012 449.462 413.8 449.745C413.446 450.17 412.88 450.311 412.385 449.958C410.263 448.401 408.211 446.633 406.372 444.652ZM392.577 455.971C390.738 453.99 389.111 451.868 387.626 449.675C386.14 447.482 384.725 445.218 383.452 442.813C382.108 440.408 380.976 437.932 380.127 435.314C380.056 435.031 380.056 434.678 380.269 434.395C380.622 433.97 381.259 433.829 381.683 434.182C383.806 435.88 385.857 437.72 387.696 439.771C389.536 441.752 391.233 443.803 392.79 445.925C394.417 448.048 395.832 450.311 397.176 452.646C397.812 453.848 398.378 455.051 398.944 456.324C399.51 457.598 399.935 458.942 400.217 460.357C400.288 460.569 400.217 460.781 400.147 460.993C399.935 461.418 399.369 461.559 398.944 461.276C397.742 460.569 396.61 459.72 395.549 458.8C394.487 457.881 393.497 456.961 392.577 455.971ZM385.928 474.363C383.806 472.595 381.896 470.685 380.127 468.633C378.359 466.582 376.661 464.46 375.105 462.267C373.548 460.074 372.133 457.81 370.86 455.405C370.223 454.202 369.728 452.929 369.233 451.655C368.738 450.311 368.313 448.967 368.03 447.552C367.96 447.34 368.03 447.128 368.172 446.916C368.455 446.491 368.95 446.421 369.375 446.633C370.577 447.411 371.638 448.26 372.699 449.25C373.69 450.17 374.609 451.16 375.529 452.151C377.297 454.202 378.925 456.324 380.339 458.588C381.825 460.852 383.169 463.186 384.372 465.591C385.645 467.997 386.706 470.543 387.555 473.161C387.626 473.444 387.555 473.797 387.343 474.08C386.989 474.646 386.352 474.717 385.928 474.363ZM352.185 481.932C353.175 482.994 354.095 484.055 355.014 485.187C356.712 487.38 358.268 489.714 359.683 492.119C361.098 494.524 362.371 497 363.574 499.547C364.776 502.094 365.767 504.782 366.545 507.541C366.616 507.894 366.545 508.248 366.333 508.46C365.979 508.885 365.342 508.885 364.918 508.531C362.796 506.621 360.886 504.499 359.188 502.235C357.49 500.042 355.863 497.778 354.377 495.373C352.821 493.039 351.477 490.563 350.345 488.016C349.779 486.743 349.213 485.399 348.789 484.055C348.294 482.64 347.94 481.225 347.728 479.81C347.657 479.598 347.728 479.386 347.869 479.174C348.152 478.82 348.647 478.678 349.072 478.961C350.062 479.881 351.194 480.871 352.185 481.932ZM364.14 466.865C365.908 468.987 367.465 471.109 369.021 473.373C370.577 475.637 371.921 477.971 373.124 480.447C373.69 481.72 374.256 482.994 374.68 484.267C375.175 485.611 375.529 486.955 375.812 488.37C375.812 488.582 375.812 488.794 375.67 489.007C375.387 489.36 374.892 489.502 374.468 489.219C373.265 488.441 372.204 487.521 371.214 486.46C370.223 485.47 369.304 484.479 368.384 483.418C366.686 481.296 365.059 479.103 363.715 476.768C362.3 474.434 360.956 472.1 359.825 469.624C358.622 467.148 357.561 464.53 356.853 461.913C356.783 461.559 356.853 461.276 357.066 460.993C357.419 460.569 358.056 460.498 358.48 460.852C360.461 462.691 362.371 464.742 364.14 466.865Z" fill="#3A829C"/>
<path d="M354.236 747.918C352.609 743.744 352.821 739.075 354.802 735.043C348.506 747.281 351.76 758.246 356.005 762.915C363.008 773.314 380.905 777.7 387.696 779.397C405.806 783.854 429.787 786.33 455.112 786.33H455.183C480.508 786.33 504.489 783.854 522.599 779.397C529.39 777.7 547.287 773.314 554.291 762.915C558.535 758.175 561.789 747.281 555.493 735.043C557.474 739.075 557.686 743.744 556.059 747.918C551.107 760.793 530.097 765.957 522.599 767.796C520.83 768.22 519.062 768.645 517.223 768.998C512.483 769.989 507.46 770.908 502.155 771.616L501.306 771.757C486.026 773.738 470.605 774.729 455.183 774.729C429.858 774.729 405.877 772.253 387.767 767.796C380.198 765.957 359.188 760.793 354.236 747.918Z" fill="#022B42"/>
<path d="M364.776 736.67L368.526 723.017C362.866 725.776 357.702 729.596 355.085 734.689L354.943 735.043C352.963 739.075 352.75 743.744 354.377 747.918C359.329 760.793 380.339 765.957 387.838 767.796C405.947 772.253 429.929 774.729 455.254 774.729C470.675 774.799 486.097 773.809 501.377 771.757L502.226 771.616C507.531 770.909 512.554 769.989 517.293 768.998C519.133 768.645 520.972 768.22 522.67 767.796C530.168 765.957 551.178 760.793 556.13 747.918C557.757 743.744 557.545 739.075 555.564 735.043L555.352 734.619C552.735 729.525 547.57 725.776 541.911 722.946L545.66 736.599L547.146 742.046C547.146 749.262 533.21 755.77 511.634 759.873C508.451 760.51 505.055 761.005 501.589 761.571C499.679 761.854 497.698 762.137 495.647 762.349C482.206 763.905 468.694 764.683 455.183 764.683C404.391 764.683 363.22 754.567 363.22 742.117L364.776 736.67Z" fill="#3A829C"/>
<path d="M382.603 670.952L368.384 722.946L364.635 736.599L363.149 742.046C363.149 754.497 404.32 764.613 455.112 764.613C468.624 764.613 482.135 763.905 495.576 762.278C497.557 762.066 499.537 761.783 501.447 761.5C504.984 761.005 508.309 760.439 511.493 759.802C533.139 755.699 547.004 749.191 547.004 741.976L545.519 736.529L541.77 722.876L533.493 692.528L531.3 693.235L457.73 715.731L453.91 709.506L431.697 673.498L436.507 662.817L459.922 711.416L598.928 669.042L590.156 657.865L588.529 655.813L581.738 647.112L579.828 644.707L573.037 636.077L571.198 633.671L563.628 623.98L518.567 637.704L476.122 650.791V642.443L382.603 670.952ZM577.423 648.527L563.487 652.771L569.712 661.614L584.285 657.157L586.195 659.563L571.481 664.019L576.645 671.447L573.815 672.296L568.651 664.868L552.239 669.891L557.191 677.389L554.361 678.238L549.41 670.74L532.998 675.762L537.667 683.331L534.837 684.18L530.168 676.611L513.685 681.634L518.142 689.274L515.383 690.123L510.927 682.483L494.444 687.505L498.688 695.216L495.93 696.065L491.685 688.354L475.132 693.377L479.164 701.158L476.405 702.007L472.373 694.226L458.508 698.47L457.234 695.923L471.029 691.75L466.218 682.483L452.707 686.586L451.434 683.968L464.874 679.865L460.135 670.669L446.977 674.701L445.704 672.154L458.791 668.193L455.395 661.685L458.154 660.836L461.55 667.344L477.325 662.534L473.788 656.096L476.547 655.247L480.084 661.685L495.788 656.945L492.039 650.508L494.798 649.659L498.547 656.026L514.251 651.215L510.29 644.848L513.12 644L517.081 650.366L532.715 645.627L528.541 639.331L531.371 638.482L535.544 644.778L551.107 640.038L546.792 633.813L549.622 632.964L554.008 639.189L567.024 635.228L568.863 637.633L555.705 641.665L561.86 650.437L575.654 646.263L577.423 648.527ZM435.234 708.515C435.022 714.033 434.668 719.48 434.314 724.998C434.102 727.757 433.89 730.516 433.678 733.204C433.465 735.963 433.253 738.721 432.97 741.41C432.475 746.927 431.838 752.374 431.131 757.821C431.131 758.034 430.919 758.175 430.707 758.175C430.494 758.175 430.282 757.963 430.282 757.751C430.282 752.233 430.424 746.715 430.636 741.197C430.777 738.439 430.848 735.68 430.99 732.921C431.131 730.162 431.273 727.403 431.485 724.644C431.768 719.126 432.192 713.679 432.758 708.161C433.324 702.644 433.89 697.197 434.739 691.75C434.739 691.608 434.88 691.467 435.093 691.467C435.305 691.467 435.446 691.608 435.446 691.82C435.588 697.55 435.446 703.068 435.234 708.515ZM523.377 726.2C522.457 722.38 521.608 718.56 520.901 714.74C520.194 710.92 519.486 707.03 519.132 703.068C519.132 702.927 519.203 702.785 519.345 702.714C519.557 702.644 519.698 702.714 519.769 702.927C521.184 706.605 522.245 710.425 523.306 714.174C524.297 717.994 525.287 721.744 526.065 725.634C526.49 727.544 526.914 729.454 527.338 731.364C527.763 733.274 528.117 735.184 528.47 737.165C529.178 740.985 529.885 744.876 530.38 748.767C530.38 748.979 530.31 749.12 530.097 749.191C529.885 749.262 529.602 749.191 529.531 748.908C528.329 745.159 527.197 741.41 526.207 737.59C525.711 735.75 525.216 733.84 524.721 731.93C524.226 730.02 523.801 728.11 523.377 726.2ZM499.042 732.072C498.688 729.384 498.335 726.696 498.193 723.937C497.981 721.178 497.91 718.49 498.052 715.731C498.052 715.589 498.193 715.448 498.335 715.377C498.547 715.306 498.688 715.448 498.759 715.589C499.537 718.207 500.174 720.895 500.669 723.583C501.164 726.271 501.518 728.959 501.872 731.647C502.013 732.991 502.155 734.336 502.296 735.68C502.438 737.024 502.579 738.368 502.65 739.783C502.862 742.471 502.933 745.23 502.933 747.989C502.933 748.201 502.791 748.342 502.579 748.413C502.367 748.484 502.084 748.342 502.084 748.13C501.377 745.442 500.811 742.824 500.315 740.136C500.033 738.792 499.82 737.448 499.608 736.104C499.396 734.76 499.184 733.416 499.042 732.072ZM477.678 744.593C477.537 742.895 477.395 741.197 477.183 739.429C476.9 736.033 476.688 732.567 476.617 729.101C476.547 725.634 476.547 722.239 476.83 718.773C476.83 718.56 476.971 718.419 477.183 718.419C477.395 718.419 477.537 718.56 477.537 718.773C478.244 722.168 478.74 725.564 479.164 729.03C479.518 732.426 479.801 735.892 480.013 739.287C480.154 740.985 480.225 742.754 480.296 744.451C480.367 746.149 480.437 747.918 480.508 749.616C480.579 753.082 480.65 756.477 480.508 759.944C480.508 760.156 480.367 760.297 480.154 760.368C479.942 760.439 479.73 760.227 479.659 760.014C479.093 756.619 478.598 753.223 478.244 749.757C478.032 747.989 477.82 746.291 477.678 744.593ZM455.466 759.944C455.466 760.156 455.324 760.297 455.112 760.297C454.9 760.368 454.617 760.156 454.617 759.944C454.263 756.902 454.051 753.789 453.91 750.747C453.839 749.191 453.839 747.706 453.768 746.149C453.697 744.593 453.697 743.107 453.697 741.551C453.627 738.509 453.697 735.467 453.839 732.355C453.98 729.242 454.263 726.2 454.758 723.159C454.758 722.946 454.9 722.805 455.112 722.805C455.324 722.805 455.466 722.946 455.466 723.159C455.961 726.2 456.244 729.242 456.385 732.355C456.527 735.397 456.598 738.509 456.527 741.551C456.527 743.107 456.456 744.664 456.456 746.149C456.456 747.706 456.385 749.191 456.315 750.747C456.032 753.789 455.89 756.831 455.466 759.944ZM397.529 671.023C397.741 671.023 397.883 671.235 397.812 671.447C396.822 678.026 395.548 684.534 394.204 691.042C392.86 697.55 391.445 703.988 389.889 710.425C389.182 713.679 388.404 716.863 387.625 720.117C386.847 723.3 386.069 726.554 385.22 729.737C383.593 736.175 381.895 742.612 380.056 748.979C379.985 749.191 379.773 749.262 379.632 749.262C379.42 749.262 379.207 749.05 379.278 748.767C380.41 742.259 381.683 735.75 383.027 729.242C383.664 725.988 384.371 722.734 385.079 719.48C385.786 716.226 386.494 713.043 387.201 709.789C388.616 703.28 390.172 696.914 391.799 690.476C393.426 684.039 395.124 677.672 397.105 671.306C397.175 671.093 397.388 670.952 397.529 671.023ZM417.973 665.151C417.549 672.72 416.841 680.219 416.063 687.717C415.285 695.216 414.365 702.714 413.375 710.213C412.88 713.962 412.385 717.711 411.89 721.461C411.394 725.21 410.828 728.959 410.333 732.638C409.272 740.136 408.14 747.564 406.796 754.992C406.725 755.204 406.584 755.346 406.372 755.346C406.16 755.346 405.947 755.133 406.018 754.921C406.584 747.423 407.362 739.924 408.14 732.355C408.565 728.606 408.989 724.856 409.414 721.107C409.838 717.358 410.263 713.609 410.758 709.859C411.677 702.361 412.597 694.933 413.729 687.434C414.861 679.936 415.993 672.508 417.407 665.08C417.407 664.939 417.62 664.797 417.761 664.797C417.832 664.797 417.973 664.939 417.973 665.151Z" fill="#022B42"/>
<path d="M370.506 532.158L371.992 534.564C374.822 538.171 379.42 540.081 385.362 540.364L383.876 537.959C381.4 533.927 381.33 528.834 383.664 524.66L413.305 473.09C416.7 467.219 422.147 462.833 428.655 460.923L487.229 443.167C491.827 441.752 496.849 443.025 500.245 446.491L500.952 447.27C501.377 442.671 500.457 438.71 498.123 435.668L496.142 433.617C483.338 423.147 448.533 434.466 415.568 460.286C382.674 486.106 363.432 517.232 370.506 532.158Z" fill="#022B42"/>
<path d="M371.992 534.564L370.506 532.158C370.931 533.007 371.426 533.856 371.992 534.564Z" fill="#3A829C"/>
<path d="M525.216 491.836L522.74 492.615L525.216 491.836Z" fill="#FFAF51"/>
<path d="M434.951 470.119L454.193 464.247L434.951 470.119Z" fill="#FFAF51"/>
<path d="M383.947 537.959L385.433 540.364L388.333 545.104C388.899 544.609 389.465 544.114 390.102 543.76L399.015 535.837C402.198 532.866 405.877 531.168 409.909 531.168C414.224 531.168 418.256 533.219 421.581 536.615L435.093 512.139L534.979 482.357L533.422 480.801V480.871L531.442 478.891L526.985 474.222C526.985 474.222 526.56 474.009 525.287 474.363L505.975 479.81C504.56 480.164 503.428 481.296 503.075 482.711C504.843 483.206 506.116 484.196 506.116 485.328C506.116 487.026 503.428 488.37 500.033 488.37C496.708 488.37 493.949 487.026 493.949 485.328C493.949 484.125 495.293 483.135 497.274 482.64C497.769 478.749 500.528 475.495 504.348 474.363L522.175 469.341L520.477 467.572L516.02 462.903C516.02 462.903 515.596 462.691 514.322 463.045L494.939 468.562C493.524 468.916 492.393 470.048 492.039 471.463C493.878 471.958 495.081 472.948 495.081 474.08C495.081 475.778 492.393 477.122 488.997 477.122C485.672 477.122 482.913 475.778 482.913 474.08C482.913 472.878 484.257 471.887 486.238 471.392C486.733 467.501 489.492 464.247 493.312 463.115L511.28 458.022L506.399 453C505.833 452.929 505.338 453 504.843 453.141L485.46 458.659C484.045 459.012 482.913 460.144 482.56 461.559C484.328 462.054 485.602 463.045 485.602 464.177C485.602 465.874 482.913 467.218 479.518 467.218C476.193 467.218 473.434 465.874 473.434 464.177C473.434 462.974 474.778 461.984 476.759 461.488C477.254 457.598 480.013 454.344 483.833 453.212L501.66 448.189L500.811 447.34L500.103 446.562C496.708 443.096 491.685 441.822 487.087 443.237L428.514 460.993C422.006 462.974 416.559 467.36 413.163 473.161L383.523 524.731C381.33 528.834 381.4 533.927 383.947 537.959ZM461.408 468.067L440.186 474.717C439.479 474.929 438.7 474.717 438.276 474.151L434.951 470.048L434.102 468.987C433.961 468.845 433.89 468.633 433.819 468.421C433.536 467.501 434.032 466.44 435.022 466.157L457.305 459.366C458.296 459.083 459.427 459.366 460.135 460.144L464.238 464.53C464.45 464.742 464.592 464.955 464.662 465.238C464.945 466.157 464.45 467.218 463.46 467.501L461.408 468.067ZM457.871 477.334C456.103 477.9 454.263 478.466 452.424 478.891C450.585 479.315 448.675 479.598 446.765 479.74C446.623 479.74 446.482 479.669 446.411 479.598C446.34 479.457 446.34 479.174 446.553 479.103C448.18 478.112 449.877 477.264 451.646 476.556C453.414 475.849 455.183 475.212 456.952 474.717C458.72 474.151 460.559 473.656 462.399 473.231C464.238 472.807 466.148 472.453 467.987 472.241C468.129 472.241 468.341 472.312 468.412 472.453C468.553 472.665 468.482 472.948 468.27 473.019C466.572 473.939 464.874 474.717 463.106 475.424C461.408 476.132 459.64 476.768 457.871 477.334ZM431.556 482.64C430.494 481.296 429.504 479.952 428.514 478.537C426.533 475.778 424.552 472.948 422.784 470.048C422.713 469.907 422.713 469.694 422.854 469.553C422.996 469.411 423.279 469.411 423.491 469.553C425.896 472.029 428.16 474.575 430.424 477.193C431.556 478.466 432.617 479.81 433.749 481.084C434.88 482.428 435.942 483.701 437.003 485.045C439.125 487.733 441.247 490.421 443.228 493.18C445.209 496.01 447.119 498.769 448.816 501.811C448.887 501.952 448.887 502.094 448.746 502.235C448.604 502.377 448.392 502.377 448.25 502.235C445.775 499.83 443.44 497.354 441.247 494.737C439.054 492.119 436.861 489.502 434.81 486.743C433.607 485.399 432.617 484.055 431.556 482.64ZM419.954 505.56C419.954 502.872 421.157 500.608 422.713 500.608C424.269 500.608 425.472 502.801 425.472 505.56C425.472 508.319 424.269 510.512 422.713 510.512C421.157 510.512 419.954 508.248 419.954 505.56ZM411.748 493.18C411.748 490.421 412.951 488.228 414.507 488.228C416.063 488.228 417.266 490.421 417.266 493.18C417.266 495.868 416.063 498.132 414.507 498.132C412.951 498.132 411.748 495.939 411.748 493.18Z" fill="#FFAF51"/>
<path d="M459.781 711.769L459.993 711.416L436.578 662.817L431.768 673.498L453.98 709.506L457.8 715.731L459.781 711.769Z" fill="#F0F0F0"/>
<path d="M496.213 433.617L498.193 435.668C497.557 434.89 496.92 434.253 496.213 433.617Z" fill="#3A829C"/>
<path d="M531.442 693.377L533.635 692.669L540.143 690.689L596.382 673.569L598.999 669.042L459.993 711.416L459.781 711.769L457.73 715.731L531.442 693.377Z" fill="#3A829C"/>
<path d="M476.971 461.418C474.99 461.913 473.646 462.974 473.646 464.106C473.646 465.804 476.334 467.148 479.73 467.148C483.055 467.148 485.814 465.804 485.814 464.106C485.814 462.974 484.611 461.984 482.772 461.488C482.63 461.984 482.56 462.479 482.63 462.974C482.772 464.53 481.569 465.026 480.013 465.167H479.801C478.315 465.167 477.113 464.884 476.971 463.398C476.83 462.762 476.9 462.125 476.971 461.418Z" fill="#022B42"/>
<path d="M486.38 471.392C484.399 471.888 483.055 472.949 483.055 474.08C483.055 475.778 485.743 477.122 489.138 477.122C492.463 477.122 495.222 475.778 495.222 474.08C495.222 472.949 494.02 471.958 492.18 471.463C492.039 471.958 491.968 472.453 492.039 472.949C492.18 474.505 490.978 475 489.421 475.142H489.209C487.724 475.142 486.521 474.859 486.38 473.373C486.238 472.666 486.238 472.029 486.38 471.392Z" fill="#022B42"/>
<path d="M497.344 482.711C495.364 483.206 494.02 484.267 494.02 485.399C494.02 487.097 496.708 488.441 500.103 488.441C503.428 488.441 506.187 487.097 506.187 485.399C506.187 484.267 504.984 483.277 503.145 482.781C503.004 483.277 502.933 483.772 503.004 484.267C503.145 485.823 501.942 486.318 500.386 486.46H500.174C498.688 486.46 497.486 486.177 497.344 484.691C497.203 483.984 497.203 483.347 497.344 482.711Z" fill="#022B42"/>
<path d="M533.422 480.871V480.801C533.493 479.032 533.351 477.334 533.139 475.566C532.927 473.444 532.29 471.109 530.451 469.694C528.753 468.421 526.56 468.138 523.802 468.845L522.457 469.199C522.457 467.572 522.387 465.874 522.174 464.247C521.962 462.125 521.326 459.791 519.416 458.376C517.789 457.103 515.666 456.82 512.978 457.456C512.978 456.537 512.907 455.405 512.695 454.273C512.483 452.151 511.846 449.816 510.007 448.401C508.309 447.128 506.116 446.845 503.357 447.553L501.801 447.977L483.974 453.07C480.154 454.202 477.396 457.386 476.9 461.347C476.83 461.984 476.759 462.62 476.83 463.328C476.971 464.813 478.174 465.096 479.659 465.096H479.871C481.428 464.955 482.63 464.46 482.489 462.903C482.489 462.408 482.489 461.913 482.63 461.418C482.984 460.003 484.116 458.871 485.531 458.517L504.914 453C505.409 452.787 505.975 452.787 506.47 452.858H506.541L510.997 457.527L511.351 457.881H511.28L493.241 462.974C489.421 464.106 486.663 467.289 486.167 471.251C486.097 471.887 486.026 472.524 486.097 473.231C486.238 474.717 487.441 475 488.926 475H489.139C490.695 474.858 491.827 474.363 491.756 472.807C491.756 472.312 491.756 471.817 491.897 471.321C492.251 469.907 493.383 468.775 494.798 468.421L514.181 462.903C515.454 462.55 515.879 462.762 515.879 462.762L520.335 467.431L522.033 469.199L504.206 474.222C500.386 475.354 497.627 478.537 497.132 482.498C497.061 483.135 497.061 483.772 497.061 484.479C497.203 485.965 498.406 486.248 499.891 486.248H500.103C501.66 486.106 502.862 485.611 502.721 484.055C502.721 483.56 502.721 483.064 502.862 482.569C503.216 481.154 504.348 480.023 505.763 479.669L525.146 474.151C526.419 473.797 526.843 474.01 526.843 474.01L531.3 478.678L533.422 480.871Z" fill="#E62A3D"/>
<path d="M390.101 543.76C389.465 544.184 388.899 544.609 388.333 545.104C383.806 549.207 380.764 556.847 380.764 565.548C380.764 576.23 385.362 585.285 391.728 588.256C392.082 588.468 392.507 588.61 392.86 588.751L399.651 576.442C398.803 577.433 397.529 578.069 396.185 578.14C392.365 578.14 389.253 572.481 389.253 565.548C389.253 558.616 392.365 552.956 396.185 552.956C400.005 552.956 403.118 558.616 403.118 565.548C403.118 567.67 402.835 569.722 402.198 571.773L410.475 556.706C408.211 547.934 402.623 541.779 396.185 541.779C395.548 541.779 394.912 541.85 394.275 541.992C392.719 542.345 391.304 542.911 390.101 543.76Z" fill="#E62A3D"/>
<path d="M399.581 576.513L402.198 571.844C402.835 569.863 403.118 567.741 403.118 565.619C403.118 558.686 400.005 553.027 396.185 553.027C392.365 553.027 389.253 558.686 389.253 565.619C389.253 572.552 392.365 578.211 396.185 578.211C397.459 578.069 398.732 577.503 399.581 576.513Z" fill="#FFAF51"/>
<path d="M392.79 588.822C392.365 588.68 392.011 588.539 391.658 588.327L392.79 588.822Z" fill="#022B42"/>
<path d="M410.475 556.776L421.581 536.686C418.256 533.22 414.224 531.239 409.909 531.239C405.947 531.239 402.198 532.937 399.015 535.908L390.102 543.831C391.375 542.982 392.79 542.416 394.275 542.062C394.912 541.921 395.549 541.85 396.185 541.85C402.623 541.85 408.211 548.004 410.475 556.776Z" fill="#022B42"/>
<path d="M308.962 369.879C308.962 368.323 307.689 367.05 306.132 367.05C304.576 367.05 303.303 368.323 303.303 369.879C303.303 371.435 304.576 372.709 306.132 372.709C307.689 372.709 308.962 371.506 308.962 369.879Z" fill="#3A829C"/>
<path d="M330.609 299.846C330.609 298.29 329.335 297.016 327.779 297.016C326.223 297.016 324.949 298.29 324.949 299.846C324.949 301.402 326.223 302.676 327.779 302.676C329.335 302.746 330.609 301.402 330.609 299.846Z" fill="#3A829C"/>
<path d="M292.055 360.046C292.055 361.037 292.833 361.815 293.823 361.744C294.814 361.744 295.521 360.966 295.521 359.976C295.521 358.985 294.743 358.278 293.752 358.278C292.833 358.278 292.055 359.056 292.055 360.046Z" fill="#3A829C"/>
<path d="M281.939 309.255C281.939 310.174 282.717 310.952 283.637 310.952C284.556 310.952 285.335 310.174 285.335 309.255C285.335 308.335 284.556 307.557 283.637 307.557C282.717 307.486 281.939 308.264 281.939 309.255Z" fill="#3A829C"/>
<path d="M303.303 402.066C303.303 401.147 302.524 400.369 301.605 400.369C300.685 400.369 299.907 401.147 299.907 402.066C299.907 402.986 300.685 403.764 301.605 403.764C302.524 403.835 303.303 403.057 303.303 402.066Z" fill="#3A829C"/>
<path d="M354.802 324.322C354.802 323.403 354.024 322.625 353.104 322.625C352.184 322.625 351.406 323.403 351.406 324.322C351.406 325.242 352.184 326.02 353.104 326.02C354.024 326.091 354.802 325.313 354.802 324.322Z" fill="#3A829C"/>
<path d="M419.954 505.56C419.954 508.319 421.157 510.512 422.713 510.512C424.269 510.512 425.472 508.248 425.472 505.56C425.472 502.801 424.269 500.608 422.713 500.608C421.157 500.608 419.954 502.801 419.954 505.56Z" fill="#022B42"/>
<path d="M411.748 493.18C411.748 495.939 412.951 498.132 414.507 498.132C416.063 498.132 417.266 495.939 417.266 493.18C417.266 490.421 416.063 488.229 414.507 488.229C412.951 488.229 411.748 490.421 411.748 493.18Z" fill="#022B42"/>
<path d="M461.408 468.138L460.347 468.492L457.234 465.167C456.456 464.318 455.254 463.964 454.122 464.318L434.88 470.19L438.205 474.292C438.7 474.858 439.408 475.141 440.115 474.858L461.408 468.138Z" fill="#3A829C"/>
<path d="M460.418 468.492L461.479 468.138L463.46 467.501C463.743 467.431 463.955 467.289 464.167 467.077C464.874 466.37 464.945 465.238 464.238 464.53L460.135 460.144C459.427 459.366 458.296 459.083 457.305 459.366L435.022 466.087C434.81 466.157 434.597 466.228 434.456 466.37C433.678 467.006 433.536 468.138 434.173 468.916L435.022 470.048L454.263 464.177C455.395 463.823 456.598 464.177 457.376 465.026L460.418 468.492Z" fill="#022B42"/>
<path d="M446.765 479.74C448.675 479.598 450.585 479.315 452.424 478.891C454.263 478.466 456.103 477.9 457.871 477.334C459.64 476.769 461.408 476.132 463.177 475.424C464.945 474.717 466.643 473.939 468.341 473.019C468.482 472.949 468.553 472.807 468.553 472.595C468.553 472.383 468.341 472.17 468.058 472.17C466.148 472.383 464.308 472.736 462.469 473.161C460.63 473.585 458.791 474.08 457.022 474.646C455.254 475.212 453.414 475.778 451.717 476.486C449.948 477.193 448.25 478.042 446.623 479.032C446.482 479.174 446.411 479.386 446.482 479.527C446.553 479.74 446.623 479.74 446.765 479.74Z" fill="#022B42"/>
<path d="M320.988 355.943C319.997 357.217 319.078 358.49 318.299 359.905C317.663 361.037 317.097 362.239 316.672 363.442C316.177 364.857 315.965 366.271 316.107 367.757C316.177 368.677 316.46 369.525 316.955 370.304C317.451 371.082 318.087 371.789 318.936 372.214C320.28 372.921 321.837 373.133 323.322 372.921C324.171 372.85 324.808 372.214 324.878 371.365C324.949 370.445 324.242 369.596 323.322 369.525H323.251C322.473 369.525 321.695 369.242 321.058 368.818C320.705 368.464 320.563 368.04 320.634 367.545C320.705 366.767 320.917 365.988 321.271 365.21C321.695 364.291 322.19 363.442 322.685 362.664L322.756 362.522C323.959 360.824 325.232 359.268 326.718 357.853C328.203 356.297 329.83 354.882 331.457 353.609C333.155 352.265 334.853 350.991 336.692 349.93C338.461 348.798 340.371 347.879 342.281 347.03C342.493 346.959 342.776 346.888 342.988 346.747C343.695 346.464 344.403 346.252 345.11 346.11C345.959 345.898 346.808 345.827 347.728 345.827C348.011 345.827 348.364 345.898 348.647 346.04C348.859 346.11 349.072 346.252 349.213 346.393C349.567 347.03 349.779 347.737 349.638 348.445V348.515C349.567 349.294 350.062 350.001 350.84 350.213C351.689 350.496 352.609 349.93 352.892 349.081C353.104 348.374 353.245 347.667 353.245 346.959C353.245 346.11 353.104 345.261 352.679 344.483C352.255 343.634 351.618 342.927 350.911 342.432C350.204 342.007 349.425 341.654 348.647 341.441C347.303 341.158 345.818 341.088 344.474 341.3C343.2 341.441 341.927 341.724 340.724 342.149C339.522 342.503 338.39 342.998 337.258 343.493C334.004 344.978 330.891 346.888 328.062 349.152C325.374 351.204 323.039 353.467 320.988 355.943Z" fill="#E62A3D"/>
<path d="M327.355 379.5C325.232 382.047 323.393 384.806 321.695 387.635C320.422 389.828 319.361 392.092 318.583 394.497C317.663 397.114 317.38 399.944 317.805 402.703C318.087 404.259 318.795 405.816 319.785 407.018C320.846 408.221 322.12 409.14 323.605 409.706C326.152 410.555 328.911 410.767 331.528 410.272C332.731 410.201 333.58 409.14 333.509 408.009C333.438 406.806 332.377 405.957 331.245 406.028H331.175C329.265 406.169 327.355 405.816 325.586 405.037C324.313 404.471 323.393 403.127 323.322 401.713C323.252 399.873 323.605 398.105 324.313 396.407C325.091 394.497 326.081 392.658 327.213 390.889C327.92 389.757 328.769 388.626 329.547 387.564C331.316 385.159 333.297 382.896 335.348 380.773C338.39 377.59 341.715 374.619 345.181 371.931C348.647 369.172 352.255 366.625 356.075 364.432C359.188 362.522 362.442 360.895 365.837 359.551C366.545 359.268 367.182 358.985 367.889 358.773C369.87 358.066 371.85 357.5 373.973 357.217C375.812 356.863 377.722 356.863 379.49 357.287C380.905 357.57 382.108 358.631 382.532 360.046C383.027 361.532 382.886 363.583 382.391 365.635V365.706C382.108 366.767 382.674 367.828 383.664 368.181C384.725 368.535 385.928 367.969 386.282 366.908C387.343 364.432 387.696 361.673 387.272 358.914C386.989 357.358 386.211 355.873 385.15 354.67C384.089 353.467 382.745 352.619 381.259 352.053C379.915 351.557 378.571 351.274 377.156 351.204C375.812 351.133 374.539 351.133 373.195 351.204C370.719 351.416 368.243 351.911 365.908 352.689C363.432 353.467 360.956 354.387 358.551 355.448C352.255 358.349 346.313 362.027 340.866 366.342C335.914 370.233 331.387 374.619 327.355 379.5Z" fill="#E62A3D"/>
<path d="M336.551 413.173C334.782 415.578 333.084 417.983 331.528 420.53C329.618 423.642 327.991 426.967 326.647 430.433C325.374 433.97 324.383 437.72 324.666 441.964C324.808 444.157 325.374 446.35 326.435 448.26C326.576 448.543 326.718 448.755 326.859 449.038L327.354 449.745C327.708 450.241 328.062 450.665 328.486 451.09C329.264 451.868 330.184 452.575 331.174 453.141C333.014 454.202 334.994 454.839 337.046 455.122C338.956 455.405 340.866 455.405 342.776 455.263C344.191 455.192 345.323 453.99 345.252 452.575C345.181 451.16 343.979 450.028 342.564 450.099H342.493C339.38 450.028 336.268 449.392 334.216 447.977C332.165 446.562 331.316 444.369 331.316 441.681C331.316 440.266 331.528 438.851 331.882 437.507C332.306 436.022 332.801 434.607 333.367 433.192C334.641 430.221 336.197 427.462 337.966 424.774C338.319 424.208 338.744 423.642 339.097 423.147C342.493 418.266 346.313 413.738 350.487 409.494C359.895 399.944 370.436 391.667 381.966 384.876C386.918 381.905 392.153 379.358 397.6 377.236C398.378 376.953 399.086 376.67 399.864 376.387C402.906 375.326 406.018 374.548 409.131 374.053C410.616 373.841 412.173 373.699 413.658 373.699C415.073 373.699 416.488 373.911 417.832 374.265C419.034 374.548 420.166 375.114 421.086 375.963C421.935 376.741 422.642 377.802 422.996 378.934C423.845 381.41 423.562 384.522 422.854 387.635C422.43 388.908 423.208 390.323 424.481 390.677C425.755 391.031 427.17 390.323 427.523 389.05C428.16 387.281 428.655 385.442 428.938 383.532C429.221 381.481 429.15 379.429 428.655 377.378C428.16 375.185 427.028 373.133 425.472 371.506C423.916 369.95 422.006 368.677 419.883 367.969C417.973 367.333 415.993 366.908 413.941 366.767C412.031 366.625 410.121 366.696 408.211 366.837C404.533 367.191 400.925 367.969 397.459 369.101C394.487 370.021 391.516 371.082 388.687 372.284C385.008 373.911 381.33 375.68 377.863 377.661C371.709 381.127 365.837 385.088 360.249 389.404C351.548 396.336 343.342 404.118 336.551 413.173Z" fill="#E62A3D"/>
<path d="M422.784 470.048C424.623 472.948 426.533 475.778 428.514 478.537C429.504 479.952 430.494 481.296 431.555 482.64C432.546 483.984 433.607 485.399 434.668 486.743C436.72 489.431 438.842 492.119 441.105 494.737C443.369 497.283 445.633 499.901 448.109 502.235C448.25 502.376 448.463 502.376 448.604 502.235C448.745 502.094 448.745 501.952 448.675 501.811C446.977 498.839 445.067 495.939 443.086 493.18C441.105 490.421 438.983 487.662 436.861 485.045C435.8 483.701 434.739 482.357 433.607 481.084C432.546 479.739 431.414 478.466 430.282 477.122C428.089 474.505 425.825 471.958 423.35 469.482C423.208 469.341 422.925 469.341 422.713 469.482C422.713 469.624 422.713 469.836 422.784 470.048Z" fill="#E62A3D"/>
<path d="M394.204 690.972C395.549 684.463 396.822 677.955 397.812 671.376C397.812 671.164 397.671 671.023 397.529 670.952C397.388 670.952 397.176 671.023 397.176 671.164C395.195 677.531 393.497 683.897 391.87 690.335C390.243 696.772 388.687 703.21 387.272 709.647C386.564 712.901 385.857 716.085 385.15 719.339C384.442 722.593 383.806 725.847 383.098 729.101C381.754 735.609 380.481 742.117 379.349 748.625C379.349 748.837 379.42 748.979 379.632 749.05C379.844 749.12 380.127 749.05 380.198 748.767C382.037 742.4 383.735 735.963 385.362 729.525C386.211 726.342 386.989 723.088 387.767 719.904C388.545 716.721 389.323 713.467 390.031 710.213C391.516 703.988 392.931 697.48 394.204 690.972Z" fill="#FFAF51"/>
<path d="M416.134 687.647C416.912 680.148 417.619 672.65 418.044 665.08C418.044 664.868 417.902 664.727 417.69 664.727C417.549 664.727 417.337 664.868 417.337 665.009C415.922 672.437 414.719 679.865 413.658 687.364C412.597 694.791 411.607 702.29 410.687 709.788C410.192 713.538 409.767 717.287 409.343 721.036C408.918 724.785 408.494 728.535 408.069 732.284C407.291 739.782 406.513 747.281 405.947 754.85C405.947 755.062 406.089 755.275 406.372 755.275C406.584 755.275 406.796 755.133 406.796 754.921C408.14 747.493 409.272 740.065 410.333 732.567C410.899 728.818 411.394 725.139 411.889 721.39C412.385 717.641 412.88 713.891 413.375 710.213C414.365 702.644 415.356 695.145 416.134 687.647Z" fill="#FFAF51"/>
<path d="M435.234 708.515C435.446 702.997 435.588 697.48 435.446 691.962C435.446 691.75 435.305 691.608 435.093 691.608C434.951 691.608 434.81 691.75 434.739 691.891C433.89 697.338 433.253 702.856 432.758 708.303C432.263 713.821 431.839 719.268 431.485 724.786C431.343 727.544 431.131 730.303 430.99 733.062C430.848 735.821 430.707 738.58 430.636 741.339C430.424 746.857 430.282 752.374 430.282 757.892C430.282 758.104 430.494 758.317 430.707 758.317C430.919 758.317 431.131 758.175 431.131 757.963C431.839 752.516 432.404 746.998 432.97 741.551C433.183 738.792 433.466 736.033 433.678 733.345C433.89 730.586 434.102 727.827 434.314 725.139C434.668 719.551 435.022 714.033 435.234 708.515Z" fill="#FFAF51"/>
<path d="M454.688 759.944C454.688 760.156 454.829 760.297 455.041 760.297C455.254 760.368 455.537 760.156 455.537 759.944C455.89 756.902 456.103 753.789 456.244 750.747C456.315 749.191 456.315 747.705 456.385 746.149C456.456 744.593 456.456 743.107 456.456 741.551C456.527 738.509 456.456 735.467 456.315 732.355C456.173 729.242 455.89 726.2 455.395 723.158C455.395 722.946 455.254 722.805 455.041 722.805C454.829 722.805 454.688 722.946 454.688 723.158C454.193 726.2 453.91 729.242 453.768 732.355C453.627 735.397 453.556 738.509 453.627 741.551C453.627 743.107 453.697 744.664 453.697 746.149C453.697 747.635 453.768 749.191 453.839 750.747C454.051 753.789 454.263 756.831 454.688 759.944Z" fill="#FFAF51"/>
<path d="M477.325 739.429C477.466 741.127 477.608 742.824 477.749 744.593C477.891 746.291 478.103 747.989 478.244 749.757C478.598 753.153 479.023 756.619 479.659 760.015C479.73 760.227 479.942 760.368 480.154 760.368C480.367 760.297 480.508 760.156 480.508 759.944C480.65 756.477 480.579 753.011 480.508 749.616C480.437 747.918 480.437 746.149 480.296 744.452C480.225 742.754 480.154 740.985 480.013 739.287C479.801 735.892 479.588 732.426 479.164 729.03C478.74 725.634 478.244 722.168 477.537 718.773C477.537 718.56 477.325 718.419 477.183 718.419C476.971 718.419 476.83 718.631 476.83 718.773C476.547 722.239 476.547 725.705 476.617 729.101C476.83 732.567 476.971 736.033 477.325 739.429Z" fill="#FFAF51"/>
<path d="M523.306 726.271C523.801 728.181 524.226 730.091 524.721 732.001C525.216 733.84 525.711 735.75 526.207 737.66C527.268 741.48 528.329 745.23 529.531 748.979C529.602 749.191 529.814 749.262 529.956 749.262C530.168 749.262 530.38 749.05 530.31 748.767C529.814 744.876 529.107 740.985 528.4 737.165C528.046 735.255 527.692 733.274 527.268 731.364C526.843 729.454 526.49 727.544 525.994 725.634C525.145 721.814 524.226 717.994 523.235 714.174C522.174 710.425 521.113 706.605 519.698 702.927C519.628 702.715 519.415 702.644 519.274 702.715C519.132 702.785 519.062 702.927 519.062 703.068C519.415 707.03 520.123 710.85 520.83 714.74C521.608 718.56 522.457 722.451 523.306 726.271Z" fill="#FFAF51"/>
<path d="M499.042 732.143C499.184 733.487 499.396 734.831 499.608 736.175C499.82 737.519 500.103 738.863 500.316 740.207C500.811 742.895 501.377 745.583 502.084 748.201C502.155 748.413 502.296 748.554 502.509 748.554C502.721 748.554 502.933 748.342 502.933 748.13C502.933 745.371 502.792 742.683 502.65 739.924C502.579 738.58 502.438 737.236 502.296 735.821C502.155 734.477 502.013 733.133 501.872 731.789C501.589 729.101 501.165 726.413 500.669 723.724C500.174 721.036 499.538 718.348 498.759 715.731C498.689 715.518 498.476 715.448 498.335 715.518C498.193 715.589 498.123 715.66 498.123 715.872C497.981 718.631 498.052 721.319 498.264 724.078C498.406 726.695 498.689 729.384 499.042 732.143Z" fill="#FFAF51"/>
<path d="M426.462 414.729C427.877 416.922 429.504 418.903 431.202 420.813C432.9 422.723 434.739 424.562 436.649 426.33C438.559 428.099 440.681 429.726 442.945 431.141C443.44 431.424 444.077 431.282 444.36 430.787C444.501 430.504 444.572 430.15 444.43 429.867C443.369 427.462 442.096 425.128 440.61 422.935C439.196 420.742 437.639 418.69 436.012 416.71C434.385 414.658 432.617 412.819 430.707 411.05C429.716 410.201 428.726 409.353 427.594 408.574C426.533 407.725 425.33 407.018 424.128 406.452C423.703 406.24 423.208 406.452 422.996 406.877C422.925 407.089 422.925 407.301 422.925 407.513C423.35 408.787 423.845 410.06 424.482 411.263C425.048 412.465 425.684 413.597 426.462 414.729Z" fill="#022B42"/>
<path d="M443.864 408.645C445.35 410.697 446.977 412.678 448.746 414.446C450.373 416.356 452.212 418.125 454.122 419.822C455.112 420.671 456.173 421.379 457.234 422.086C457.8 422.44 458.366 422.723 458.932 423.076C459.498 423.43 460.064 423.784 460.63 424.067C460.913 424.208 461.267 424.208 461.55 424.138C462.045 423.925 462.257 423.289 462.045 422.793C461.762 422.157 461.479 421.591 461.196 421.025C460.913 420.459 460.63 419.822 460.347 419.256C459.71 418.125 459.074 417.063 458.296 416.002C456.81 413.951 455.183 411.97 453.414 410.202C451.787 408.292 449.948 406.523 448.038 404.896C447.048 404.047 445.987 403.34 444.926 402.632C444.36 402.279 443.794 401.925 443.228 401.571C442.662 401.218 442.096 400.864 441.53 400.581H441.459C440.964 400.298 440.327 400.51 440.115 401.005C439.974 401.288 439.974 401.642 440.045 401.925C440.327 402.562 440.61 403.128 440.893 403.693C441.176 404.33 441.459 404.896 441.742 405.462C442.45 406.523 443.157 407.584 443.864 408.645Z" fill="#022B42"/>
<path d="M483.974 421.237C484.045 421.166 484.116 421.025 484.187 420.954C484.257 420.742 484.257 420.53 484.187 420.388C483.762 419.186 483.196 417.983 482.489 416.851C481.852 415.79 481.145 414.729 480.367 413.668C478.881 411.687 477.183 409.848 475.415 408.15C473.646 406.382 471.807 404.755 469.826 403.269C467.846 401.713 465.723 400.298 463.46 399.166C463.035 398.954 462.611 399.025 462.257 399.378C461.974 399.661 461.833 400.156 462.045 400.51C463.177 402.774 464.521 404.967 466.077 406.947C467.563 408.928 469.19 410.838 470.887 412.607C472.585 414.446 474.424 416.073 476.334 417.629C477.325 418.407 478.386 419.115 479.447 419.752C480.579 420.459 481.781 421.025 482.984 421.52C483.409 421.591 483.762 421.52 483.974 421.237Z" fill="#022B42"/>
<path d="M396.61 432.131C397.954 434.395 399.439 436.588 401.137 438.639C402.764 440.761 404.533 442.742 406.372 444.652C408.211 446.633 410.263 448.401 412.456 449.958C412.739 450.17 413.092 450.17 413.375 450.099C413.87 449.887 414.153 449.321 414.012 448.826C413.092 446.279 411.89 443.803 410.546 441.469C409.201 439.205 407.787 436.941 406.16 434.819C404.603 432.626 402.906 430.645 401.066 428.735C400.147 427.745 399.156 426.896 398.095 425.977C397.034 425.057 395.902 424.279 394.7 423.571C394.275 423.359 393.78 423.501 393.568 423.925C393.497 424.137 393.426 424.35 393.497 424.562C393.851 425.906 394.275 427.25 394.841 428.523C395.336 429.726 395.973 430.928 396.61 432.131Z" fill="#022B42"/>
<path d="M411.112 422.581C412.456 424.845 414.012 426.967 415.568 429.018C417.124 431.141 418.893 433.051 420.803 434.89C421.793 435.809 422.784 436.658 423.845 437.507C424.906 438.356 426.109 439.134 427.311 439.771C427.736 439.983 428.231 439.842 428.443 439.417C428.514 439.205 428.585 438.993 428.514 438.781C428.16 437.437 427.665 436.163 427.028 434.89C426.462 433.687 425.826 432.485 425.118 431.353C423.703 429.089 422.147 426.967 420.449 424.986C418.752 423.005 416.983 421.025 415.073 419.256C413.163 417.346 411.112 415.648 408.848 414.163C408.353 413.88 407.716 414.021 407.433 414.446C407.292 414.729 407.221 415.082 407.362 415.365C408.423 417.912 409.626 420.317 411.112 422.581Z" fill="#022B42"/>
<path d="M359.683 492.119C358.268 489.714 356.712 487.38 355.014 485.187C354.094 484.125 353.175 482.994 352.184 482.003C351.194 480.942 350.062 479.952 348.93 479.103C348.577 478.82 348.011 478.891 347.728 479.315C347.586 479.457 347.516 479.669 347.586 479.881C347.799 481.296 348.152 482.711 348.647 484.125C349.072 485.47 349.638 486.814 350.204 488.087C351.406 490.634 352.75 493.11 354.236 495.444C355.722 497.778 357.349 500.113 359.046 502.306C360.744 504.57 362.725 506.692 364.776 508.602C365.201 508.955 365.837 508.955 366.191 508.531C366.403 508.248 366.474 507.965 366.403 507.611C365.625 504.852 364.635 502.164 363.432 499.618C362.371 497 361.098 494.524 359.683 492.119Z" fill="#022B42"/>
<path d="M368.95 473.444C367.464 471.18 365.837 468.987 364.069 466.936C362.3 464.813 360.39 462.762 358.268 460.993C357.844 460.64 357.207 460.71 356.853 461.135C356.641 461.418 356.57 461.771 356.641 462.054C357.419 464.743 358.41 467.289 359.612 469.765C360.815 472.241 362.088 474.576 363.503 476.91C364.918 479.244 366.474 481.437 368.172 483.56C369.091 484.621 370.011 485.611 371.001 486.601C371.992 487.592 373.124 488.511 374.255 489.36C374.68 489.643 375.175 489.502 375.458 489.148C375.6 488.936 375.6 488.724 375.6 488.511C375.387 487.097 374.963 485.682 374.468 484.338C373.973 483.064 373.477 481.791 372.911 480.518C371.85 478.042 370.506 475.707 368.95 473.444Z" fill="#022B42"/>
<path d="M375.034 462.196C376.59 464.389 378.217 466.511 380.056 468.563C381.825 470.685 383.805 472.595 385.928 474.293C386.211 474.505 386.564 474.575 386.847 474.505C387.413 474.363 387.696 473.797 387.555 473.231C386.706 470.614 385.645 468.067 384.371 465.662C383.169 463.257 381.825 460.923 380.339 458.659C378.924 456.395 377.297 454.202 375.529 452.151C374.609 451.09 373.69 450.17 372.699 449.25C371.638 448.26 370.577 447.411 369.374 446.633C369.162 446.491 368.95 446.491 368.738 446.491C368.243 446.562 367.96 447.057 368.03 447.482C368.313 448.897 368.738 450.241 369.233 451.585C369.728 452.858 370.294 454.131 370.86 455.334C372.063 457.739 373.477 460.003 375.034 462.196Z" fill="#022B42"/>
<path d="M383.452 442.884C384.725 445.218 386.14 447.553 387.625 449.746C389.111 451.939 390.809 454.061 392.577 456.042C393.497 457.032 394.487 457.952 395.478 458.871C396.539 459.791 397.671 460.64 398.873 461.347C399.298 461.559 399.793 461.418 400.076 461.064C400.217 460.852 400.217 460.64 400.147 460.428C399.864 459.083 399.439 457.739 398.873 456.395C398.378 455.122 397.812 453.919 397.105 452.717C395.831 450.382 394.346 448.119 392.719 445.996C391.092 443.874 389.394 441.752 387.625 439.842C385.786 437.79 383.805 435.951 381.613 434.253C381.33 434.041 380.976 433.97 380.693 434.112C380.198 434.253 379.844 434.89 380.056 435.385C380.976 438.003 382.108 440.479 383.452 442.884Z" fill="#022B42"/>
<path d="M531.3 673.286L547.641 668.334L541.77 659.421L525.711 664.302L531.3 673.286Z" fill="#022B42"/>
<path d="M540.143 656.874L534.271 648.032L518.567 652.842L524.155 661.826L540.143 656.874Z" fill="#022B42"/>
<path d="M560.657 653.62L544.599 658.501L550.471 667.486L566.812 662.534L560.657 653.62Z" fill="#022B42"/>
<path d="M542.972 656.025L558.96 651.144L552.805 642.373L537.101 647.183L542.972 656.025Z" fill="#022B42"/>
<path d="M521.396 662.604L515.808 653.62L500.032 658.431L505.338 667.486L521.396 662.604Z" fill="#022B42"/>
<path d="M502.508 668.335L497.203 659.28L481.428 664.09L486.45 673.216L502.508 668.335Z" fill="#022B42"/>
<path d="M483.691 674.065L478.669 664.939L462.823 669.749L467.563 678.946L483.691 674.065Z" fill="#022B42"/>
<path d="M468.907 681.563L473.717 690.83L490.2 685.807L485.106 676.611L468.907 681.563Z" fill="#022B42"/>
<path d="M487.865 675.762L492.888 684.958L509.3 679.936L503.923 670.81L487.865 675.762Z" fill="#022B42"/>
<path d="M506.824 670.032L512.129 679.158L528.541 674.135L522.953 665.08L506.824 670.032Z" fill="#022B42"/>
<path d="M577.494 648.456L575.584 646.051L561.789 650.225L555.635 641.453L568.793 637.421L566.953 635.016L553.937 638.977L549.622 632.752L546.792 633.601L551.107 639.826L535.544 644.566L531.441 638.27L528.612 639.119L532.786 645.415L517.152 650.154L513.19 643.787L510.361 644.636L514.322 651.003L498.618 655.813L494.868 649.447L492.11 650.296L495.859 656.662L480.084 661.402L476.547 654.965L473.858 655.884L477.396 662.322L461.62 667.132L458.225 660.624L455.466 661.473L458.861 667.981L445.774 671.942L447.048 674.489L460.206 670.457L464.945 679.653L451.504 683.756L452.778 686.373L466.289 682.27L471.1 691.538L457.305 695.711L458.578 698.258L472.444 694.013L476.476 701.795L479.235 700.946L475.203 693.165L491.756 688.142L496 695.853L498.759 695.004L494.515 687.293L510.997 682.27L515.454 689.91L518.213 689.062L513.756 681.422L530.239 676.399L534.908 683.968L537.737 683.119L533.069 675.55L549.48 670.528L554.432 678.026L557.262 677.177L552.31 669.679L568.722 664.656L573.886 672.084L576.716 671.235L571.551 663.807L586.266 659.35L584.356 656.945L569.783 661.402L563.558 652.559L577.494 648.456ZM531.3 673.286L525.711 664.232L541.77 659.35L547.641 668.264L531.3 673.286ZM506.824 670.032L522.953 665.151L528.541 674.206L512.129 679.229L506.824 670.032ZM487.865 675.762L503.994 670.81L509.37 679.936L492.958 684.959L487.865 675.762ZM468.907 681.563L485.106 676.611L490.2 685.808L473.717 690.83L468.907 681.563ZM483.691 674.065L467.563 678.946L462.823 669.749L478.669 664.939L483.691 674.065ZM502.508 668.335L486.45 673.216L481.428 664.09L497.203 659.28L502.508 668.335ZM521.326 662.605L505.267 667.486L499.962 658.431L515.737 653.62L521.326 662.605ZM540.143 656.875L524.155 661.756L518.567 652.772L534.271 647.961L540.143 656.875ZM558.96 651.145L542.972 656.026L537.101 647.042L552.805 642.302L558.96 651.145ZM560.657 653.62L566.812 662.463L550.471 667.415L544.529 658.431L560.657 653.62Z" fill="#3A829C"/>
<path d="M581.809 647.183L579.899 644.778L581.809 647.183Z" fill="#3A829C"/>
<path d="M573.179 636.147L571.269 633.742L573.179 636.147Z" fill="#3A829C"/>
<path d="M590.227 657.865L588.6 655.813L590.227 657.865Z" fill="#3A829C"/>
<path d="M305.92 443.025L306.132 443.308L312.428 453.566C314.268 456.537 316.107 459.508 317.875 462.55L317.168 476.627C317.168 477.051 317.451 477.405 317.875 477.405C318.158 477.405 318.441 477.264 318.583 476.981L326.293 462.408C326.859 461.347 326.718 460.003 325.94 459.083L325.657 458.73C323.039 455.688 320.422 452.646 317.805 449.604L310.73 441.327L313.843 430.787C314.975 426.826 316.178 422.864 317.38 418.903C317.451 418.62 317.309 418.337 317.026 418.195C316.743 418.054 316.319 418.195 316.177 418.478C314.48 422.227 312.782 426.047 311.013 429.797L305.779 441.115C305.496 441.752 305.566 442.459 305.92 443.025Z" fill="#3A829C"/>
<path d="M377.651 338.4C378.359 339.319 378.995 340.239 379.703 341.159C380.41 342.078 381.117 342.998 381.825 343.847C382.603 344.837 383.947 345.332 385.22 344.979L385.433 344.908C387.06 344.483 388.616 344.13 390.172 343.634C391.729 343.139 393.356 342.715 394.912 342.22C396.468 341.724 398.024 341.229 399.651 340.734C400.217 340.593 400.713 340.38 401.279 340.168C401.915 342.503 402.623 344.766 403.33 347.101C403.896 348.799 404.391 350.496 405.028 352.194C405.664 353.892 406.23 355.59 406.938 357.287C407.079 357.783 407.574 358.136 408.14 358.066C408.706 357.995 409.131 357.429 409.06 356.863C408.989 355.024 408.848 353.255 408.706 351.487C408.565 349.718 408.353 347.879 408.14 346.11C407.716 342.573 407.15 339.036 406.584 335.499C406.301 333.872 404.745 332.74 403.118 333.023L402.906 333.094L402.623 333.165C400.996 333.519 399.439 333.943 397.812 334.367C396.185 334.792 394.629 335.216 393.002 335.641C391.375 336.065 389.819 336.56 388.262 336.985L385.574 337.763C385.362 337.48 385.079 337.197 384.867 336.985C384.089 336.136 383.31 335.287 382.532 334.438C380.976 332.74 379.42 331.113 377.793 329.486C376.166 327.859 374.539 326.232 372.841 324.676C371.143 323.12 369.445 321.563 367.606 320.078C367.323 319.866 366.969 319.795 366.616 320.007C366.191 320.219 365.979 320.785 366.262 321.21C367.394 323.261 368.596 325.242 369.799 327.223C371.002 329.203 372.346 331.113 373.619 332.953C375.034 334.65 376.378 336.56 377.651 338.4Z" fill="#3A829C"/>
<path d="M422.359 338.541C422.147 338.329 421.864 338.187 421.581 338.258C421.157 338.329 420.874 338.753 420.944 339.178C421.227 340.805 421.652 342.29 422.076 343.847C422.501 345.403 422.996 346.889 423.562 348.374C424.057 349.86 424.694 351.345 425.26 352.76C425.896 354.246 426.462 355.66 427.17 357.075V357.146C427.382 357.641 427.806 358.066 428.301 358.278C429.363 358.773 430.353 359.197 431.414 359.693C432.475 360.117 433.536 360.541 434.597 360.966C435.658 361.32 436.79 361.744 437.922 362.027C439.054 362.381 440.186 362.593 441.388 362.805C441.601 362.805 441.813 362.734 441.954 362.593C442.237 362.31 442.237 361.956 441.954 361.673C441.106 360.824 440.257 360.046 439.266 359.339C438.347 358.631 437.427 357.924 436.437 357.287C435.446 356.651 434.527 356.014 433.536 355.448C432.829 355.024 432.051 354.599 431.343 354.246C430.777 353.043 430.282 351.84 429.716 350.708C429.009 349.294 428.301 347.879 427.523 346.535C426.745 345.12 425.967 343.776 425.118 342.432C424.269 341.088 423.35 339.744 422.359 338.541Z" fill="#3A829C"/>
<path d="M337.683 361.532C337.612 363.088 337.683 364.644 337.683 366.13C337.753 369.243 337.895 372.284 338.107 375.326C338.178 376.246 338.673 377.095 339.522 377.59L339.946 377.873C341.503 378.722 343.059 379.571 344.615 380.349C346.171 381.127 347.798 381.905 349.355 382.683C350.911 383.461 352.538 384.24 354.165 384.947C355.014 385.371 355.863 385.725 356.783 386.079C356.783 386.928 356.853 387.847 356.853 388.696C356.924 390.394 356.995 392.092 357.066 393.79C357.207 397.185 357.419 400.581 357.702 404.047V404.471C357.773 405.462 358.339 406.311 359.188 406.735C361.947 408.221 364.706 409.636 367.535 410.98C368.95 411.687 370.365 412.324 371.78 412.96C373.194 413.597 374.609 414.234 376.095 414.8C376.59 415.012 377.085 414.87 377.439 414.517C377.863 414.021 377.863 413.243 377.368 412.819C376.166 411.758 374.963 410.767 373.76 409.777C372.558 408.787 371.284 407.796 370.082 406.877C368.101 405.391 366.12 403.906 364.14 402.491C364.281 399.59 364.352 396.69 364.423 393.79C364.423 392.092 364.493 390.394 364.493 388.696C364.493 386.999 364.493 385.301 364.493 383.603C364.493 382.117 363.574 380.773 362.23 380.137C360.603 379.429 359.046 378.722 357.419 378.014C355.792 377.307 354.165 376.6 352.538 375.963C350.911 375.256 349.284 374.619 347.657 373.982C346.454 373.558 345.323 373.063 344.12 372.638C343.554 370.304 343.059 367.969 342.422 365.706C341.998 364.22 341.573 362.734 341.149 361.249C340.724 359.763 340.3 358.278 339.734 356.863C339.593 356.509 339.239 356.226 338.885 356.226C338.319 356.226 337.895 356.58 337.895 357.146C337.683 358.49 337.753 359.976 337.683 361.532Z" fill="#3A829C"/>
<path d="M505.904 706.676L501.165 708.091L504.136 712.901L530.239 755.204L535.615 763.976L535.969 764.613L536.04 764.542L536.535 763.551L547.429 743.603C547.005 744.31 546.58 745.017 546.014 745.583C541.275 750.96 530.734 754.214 525.712 738.226C524.58 734.618 523.377 731.223 522.175 728.181C520.335 723.583 518.142 719.056 515.596 714.811C511.846 709.01 508.38 706.039 505.904 706.676Z" fill="#022B42"/>
<path d="M517.223 768.998L523.448 779.185L525.641 782.722L546.722 781.873L557.12 762.773L579.262 722.097V721.744L567.449 706.676L558.606 722.946L553.654 732.072L549.622 739.5L547.5 743.461C547.429 743.532 547.429 743.532 547.429 743.602L536.535 763.551L536.04 764.542L535.969 764.612L535.615 763.976L530.239 755.204L504.136 712.901L501.235 708.091L499.255 711.486L498.901 712.123L490.766 726.129L496.637 735.679L504.277 748.13L511.563 759.944L517.223 768.998Z" fill="#E62A3D"/>
<path d="M540.143 690.688L531.441 693.377C532.573 695.004 533.847 696.418 535.261 697.763L540.072 696.348C539.93 694.438 540.001 692.528 540.143 690.688Z" fill="#022B42"/>
<path d="M540.072 696.206L535.261 697.692C535.544 697.975 535.827 698.187 536.11 698.47L536.818 699.107L537.596 699.673C538.091 700.026 538.586 700.38 539.081 700.734C539.577 701.087 540.072 701.37 540.638 701.653C540.284 699.814 540.143 697.975 540.072 696.206Z" fill="#022B42"/>
<path d="M546.721 781.873L633.096 755.204L668.608 694.65L668.537 694.296H668.608L655.521 680.997L654.884 681.209L646.89 683.544L619.018 691.679L582.233 702.431L567.448 706.747L579.262 721.814V722.168L557.12 762.773L546.721 781.873Z" fill="#022B42"/>
<path d="M587.822 719.975C587.61 720.046 587.327 719.905 587.256 719.692C587.185 719.48 587.327 719.197 587.539 719.126C593.481 716.933 599.423 714.882 605.436 712.83C608.407 711.84 611.449 710.85 614.42 709.859C617.392 708.94 620.433 707.949 623.475 707.03C629.488 705.12 635.501 703.28 641.656 701.583C647.739 699.885 653.894 698.258 660.048 696.843C660.19 696.843 660.402 696.914 660.473 697.055C660.543 697.267 660.473 697.409 660.26 697.48C654.389 699.814 648.376 701.866 642.434 703.917C636.421 705.898 630.408 707.808 624.395 709.647C621.353 710.567 618.382 711.486 615.34 712.335C612.298 713.255 609.256 714.104 606.215 714.953C600.131 716.792 594.047 718.49 587.822 719.975Z" fill="#E62A3D"/>
<path d="M321.837 281.312C322.756 281.312 323.534 280.534 323.534 279.614C323.534 278.694 322.756 277.916 321.837 277.916C320.917 277.916 320.139 278.694 320.068 279.614C320.068 280.534 320.846 281.312 321.837 281.312Z" fill="#3A829C"/>
<path d="M504.348 748.059L496.708 735.609C496.496 736.033 496.354 736.387 496.213 736.811C495.505 738.58 495.01 740.349 494.586 742.188C493.878 745.654 493.595 749.191 493.807 752.728C494.02 755.982 494.586 759.236 495.717 762.349L495.859 762.773C496.991 765.957 498.618 768.857 500.811 771.404C501.165 771.828 501.801 771.899 502.226 771.616C502.296 771.616 502.296 771.545 502.367 771.545C502.65 771.262 502.792 770.838 502.721 770.484C501.943 767.584 501.589 764.683 501.66 761.641C501.73 758.883 502.013 756.124 502.721 753.436C503.004 751.596 503.57 749.757 504.348 748.059Z" fill="#FFAF51"/>
<path d="M646.89 683.544L654.884 681.209C668.537 666.141 680.987 645.627 681.836 624.687C682.049 622.211 681.978 619.735 681.624 617.26C681.624 616.977 681.553 616.623 681.483 616.269C680.917 612.944 679.714 609.69 677.946 606.861C676.106 603.89 673.63 601.414 670.659 599.504C665.071 596.037 658.35 594.976 652.054 596.603C648.871 597.381 645.971 598.867 643.424 600.989C642.787 601.555 642.221 602.121 641.656 602.758C641.16 603.324 640.665 603.89 640.311 604.456C639.746 605.304 639.18 606.083 638.614 606.861C636.35 609.973 633.874 612.874 631.115 614.784C628.427 616.764 625.102 617.543 621.848 616.977C618.311 616.411 614.562 614.43 611.025 612.096C610.53 611.742 609.893 611.883 609.539 612.378C609.327 612.732 609.327 613.227 609.539 613.581C610.813 615.42 612.298 617.118 613.925 618.745C614.279 619.028 614.633 619.382 614.986 619.665C608.62 619.877 602.465 621.504 596.877 624.546C588.388 629.073 583.294 636.218 579.687 644.495C575.159 654.894 572.754 667.132 568.51 678.167C568.085 679.37 567.59 680.573 567.095 681.704C566.387 680.856 565.609 680.007 564.76 679.299C561.506 676.611 557.191 675.055 551.39 676.328C545.59 677.601 542.548 681.351 541.133 685.878C541.062 686.09 540.991 686.303 540.921 686.585C540.567 687.93 540.284 689.274 540.143 690.688C539.93 692.528 539.93 694.438 540.001 696.277C540.072 698.045 540.284 699.885 540.567 701.653C540.001 701.37 539.577 701.017 539.011 700.734C538.445 700.451 538.02 700.026 537.525 699.673L536.747 699.107L536.04 698.47C535.757 698.258 535.474 697.975 535.191 697.763C533.776 696.418 532.503 695.004 531.371 693.377C531.229 693.235 531.159 693.094 531.088 692.952C530.522 692.033 529.956 691.113 529.532 690.123C529.036 689.132 528.612 688 528.329 686.939C528.329 686.656 528.187 686.444 528.187 686.232C528.187 686.02 528.117 685.807 528.117 685.595V685.454V685.383V685.1L528.187 684.393C528.258 683.897 528.329 683.473 528.329 682.978C528.47 681.068 528.47 679.087 528.4 677.177C528.187 673.145 527.126 669.183 525.216 665.576C523.377 662.251 520.901 659.28 517.93 656.945C515.171 654.752 512.129 652.984 508.946 651.569C508.592 651.427 508.097 651.427 507.814 651.71C507.39 652.135 507.319 652.771 507.673 653.267C509.866 655.672 511.776 658.218 513.544 660.907C515.1 663.312 516.303 666 516.94 668.83C517.435 671.376 517.435 674.064 516.869 676.611C516.586 677.955 516.162 679.299 515.737 680.573L515.383 681.634L515.171 682.129L515.1 682.27L515.03 682.483L514.959 682.978C514.817 683.614 514.676 684.251 514.534 684.817C514.393 685.383 514.393 686.02 514.322 686.585C514.252 687.434 514.181 688.213 514.181 689.061C512.412 688.92 510.714 689.061 509.017 689.486C501.943 691.184 499.113 695.357 498.264 699.673C497.981 700.946 497.91 702.219 497.91 703.563C498.052 706.251 498.476 708.94 499.325 711.486L501.306 708.091L506.046 706.676C508.522 706.039 511.988 709.01 515.596 714.882C518.142 719.126 520.335 723.583 522.174 728.252C523.377 731.364 524.58 734.689 525.711 738.297C530.734 754.284 541.274 751.03 546.014 745.654C546.58 745.017 547.004 744.381 547.429 743.673C547.429 743.603 547.5 743.602 547.5 743.532L549.622 739.57L553.654 732.143L558.606 723.017L567.449 706.747L582.233 702.431L619.019 691.679L646.89 683.544ZM662.1 618.462C661.817 621.15 661.039 623.838 659.765 626.244C659.199 627.446 658.492 628.72 657.714 629.993C655.309 633.671 652.762 637.208 649.932 640.533C646.324 633.388 640.594 627.588 633.52 623.909C634.157 623.697 634.794 623.485 635.43 623.273C640.382 621.363 644.344 618.391 647.881 615.35C648.8 614.571 649.649 613.793 650.498 613.015C650.71 612.732 650.993 612.52 651.276 612.378C651.489 612.237 651.701 612.166 651.913 612.025C652.903 611.6 653.894 611.388 654.955 611.388C657.077 611.317 659.199 612.166 660.756 613.652C661.321 614.288 661.675 614.996 661.887 615.774C662.029 616.623 662.17 617.543 662.1 618.462Z" fill="#FFAF51"/>
<path d="M649.932 640.392H650.003C652.267 642.585 654.106 645.273 655.309 648.173C656.582 651.074 657.431 654.116 657.785 657.228C657.855 658.006 657.926 658.784 657.997 659.563C658.067 660.341 658.068 661.119 658.068 661.897C658.068 662.675 657.997 663.453 657.926 664.302C657.855 664.656 657.855 665.08 657.785 665.505L657.572 666.707C657.006 669.82 655.804 672.791 654.035 675.408C654.035 675.408 653.965 675.479 653.965 675.408C653.894 675.408 653.894 675.338 653.894 675.338C654.672 672.437 655.167 669.466 655.309 666.495L655.379 665.363C655.379 665.01 655.379 664.585 655.379 664.231V661.968C655.309 660.482 655.238 658.997 655.026 657.511C654.672 654.54 654.035 651.64 653.186 648.739C652.337 645.98 651.206 643.151 649.932 640.392C649.932 640.392 649.862 640.463 649.932 640.392Z" fill="#E62A3D"/>
<path d="M567.095 681.563C567.166 681.563 567.166 681.563 567.166 681.634C567.166 684.746 566.529 687.859 565.468 690.759C564.407 693.73 562.851 696.489 560.87 698.965C558.818 701.653 556.059 703.705 552.876 704.907C551.178 705.473 549.41 705.615 547.641 705.403C546.014 705.12 544.458 704.341 543.255 703.139V703.068H543.326C544.67 703.705 546.156 703.988 547.641 703.988C549.127 703.917 550.612 703.563 551.956 702.927C554.574 701.583 556.908 699.602 558.748 697.267C560.587 694.933 562.214 692.457 563.558 689.769C564.902 687.151 566.105 684.393 567.166 681.634C567.095 681.634 567.095 681.634 567.095 681.563Z" fill="#E62A3D"/>
<path d="M514.11 689.132C514.181 689.132 514.181 689.132 514.181 689.203C515.171 693.306 516.586 697.338 518.354 701.158C520.052 704.837 522.245 708.303 524.721 711.486C527.268 714.67 530.097 717.641 533.21 720.258C536.393 722.946 539.789 725.422 543.397 728.04V728.11C543.397 728.181 543.326 728.181 543.326 728.181C539.294 726.554 535.474 724.573 531.937 722.097C528.4 719.621 525.216 716.65 522.528 713.255C519.84 709.859 517.788 706.039 516.303 701.936C514.817 697.763 514.039 693.447 514.11 689.132C514.11 689.061 514.11 689.061 514.11 689.132Z" fill="#E62A3D"/>
<path d="M633.52 623.839V623.909C632.176 625.253 630.478 626.173 628.639 626.527C626.8 626.951 624.961 626.951 623.121 626.527C622.202 626.315 621.282 626.032 620.433 625.607C619.584 625.183 618.806 624.688 618.028 624.122C616.543 622.99 615.411 621.363 614.845 619.594V619.523H614.915C616.118 620.655 617.462 621.646 618.948 622.424C619.655 622.848 620.433 623.131 621.211 623.485C621.99 623.768 622.768 623.98 623.617 624.192C625.244 624.546 626.871 624.688 628.568 624.688C630.196 624.688 631.893 624.405 633.45 623.98C633.52 623.909 633.52 623.839 633.52 623.839Z" fill="#E62A3D"/>
<path d="M668.891 676.116C668.891 676.045 668.891 676.045 668.961 676.045C669.103 675.833 669.386 675.762 669.598 675.904C670.942 676.753 674.338 679.016 674.904 680.573C674.904 680.643 674.974 680.714 674.974 680.785C675.611 682.766 674.55 684.888 672.569 685.524C670.588 686.161 668.466 685.1 667.83 683.119C667.334 681.563 668.466 677.601 668.891 676.116Z" fill="#3A829C"/>
<path d="M594.189 654.469C594.259 654.469 594.259 654.469 594.33 654.469C594.613 654.469 594.825 654.681 594.754 654.964C594.754 656.521 594.542 660.624 593.552 661.968C593.481 662.039 593.481 662.109 593.41 662.18C592.066 663.736 589.732 663.949 588.105 662.675C586.548 661.331 586.336 658.997 587.61 657.37C588.671 655.955 592.632 654.823 594.189 654.469Z" fill="#3A829C"/>
<path d="M684.241 677.531C684.241 677.46 684.241 677.46 684.241 677.389C684.241 677.177 684.383 677.036 684.595 677.036C685.798 677.036 688.981 676.965 690.042 677.743C691.316 678.663 691.669 680.502 690.679 681.775C689.759 683.049 687.92 683.402 686.647 682.412C685.586 681.705 684.595 678.733 684.241 677.531Z" fill="#3A829C"/>
<path d="M627.507 658.643C627.507 658.643 627.507 658.572 627.578 658.572C627.72 658.431 627.932 658.431 628.073 658.572C628.993 659.35 631.328 661.543 631.54 662.817C631.823 664.373 630.832 665.929 629.205 666.212C627.649 666.495 626.093 665.505 625.81 663.878C625.668 662.604 627.012 659.704 627.507 658.643Z" fill="#3A829C"/>
<path d="M596.311 673.286C596.311 673.286 596.381 673.286 596.381 673.216C596.594 673.145 596.806 673.286 596.806 673.499C597.16 674.701 597.867 677.743 597.443 678.946C596.806 680.431 595.179 681.139 593.623 680.573C592.137 679.936 591.43 678.309 591.995 676.753C592.561 675.621 595.25 673.923 596.311 673.286Z" fill="#3A829C"/>
<path d="M575.372 656.379C589.803 647.749 585.134 634.733 585.134 634.733C577.635 643.575 575.372 656.379 575.372 656.379Z" fill="#022B42"/>
<path d="M570.632 672.084C572.33 674.559 577.423 683.968 579.05 682.412C586.902 674.913 574.24 660.058 574.24 660.058L570.632 672.084Z" fill="#022B42"/>
<path d="M575.796 654.399C583.577 650.083 578.979 644.849 578.979 644.849C576.645 648.81 575.796 654.399 575.796 654.399Z" fill="#E62A3D"/>
</svg>
