<svg width="369" height="363" viewBox="0 0 369 363" fill="none" xmlns="http://www.w3.org/2000/svg">
<g clip-path="url(#clip0)">
<path d="M368.691 3.00254L235.672 199.9C235.499 200.161 235.264 200.375 234.987 200.523C234.711 200.671 234.402 200.748 234.088 200.747H169.491C169.172 200.747 168.857 200.67 168.575 200.523C168.292 200.375 168.049 200.162 167.868 199.9L75.1448 62.707L73.9857 61.0132H3.55466C3.22829 61.0173 2.9062 60.9389 2.61847 60.7854C2.33074 60.6318 2.08675 60.4082 1.90928 60.1352C1.7318 59.8623 1.62663 59.549 1.60358 59.2246C1.58053 58.9002 1.64035 58.5753 1.77746 58.2802L27.74 1.11633C27.8965 0.779241 28.1476 0.49448 28.4629 0.2964C28.7783 0.0983187 29.1444 -0.00462036 29.5172 1.91852e-07H121.97C122.269 0.00291749 122.564 0.0737666 122.832 0.207167C123.1 0.340568 123.333 0.533011 123.515 0.769883L198.737 102.664L201.867 106.898L204.996 102.664L280.179 0.769883C280.371 0.534166 280.612 0.343101 280.886 0.210101C281.159 0.0771006 281.459 0.00538909 281.763 1.91852e-07H367.03C367.386 -0.0112978 367.738 0.075601 368.047 0.251102C368.357 0.426602 368.611 0.683877 368.783 0.99452C368.955 1.30516 369.037 1.65709 369.021 2.01144C369.005 2.36579 368.891 2.70878 368.691 3.00254Z" fill="url(#paint0_linear)"/>
<path d="M363.398 27.3696L304.403 202.672C304.362 202.823 304.297 202.966 304.21 203.095L216.972 335.438L213.457 333.976L240.887 206.483C240.95 206.248 241.055 206.027 241.196 205.829L362.046 26.6767C362.156 26.5336 362.313 26.4336 362.49 26.3942C362.666 26.3547 362.851 26.3782 363.012 26.4607C363.173 26.5432 363.3 26.6794 363.37 26.8455C363.441 27.0116 363.451 27.1971 363.398 27.3696Z" fill="url(#paint1_linear)"/>
<path d="M192.208 332.782L188.692 334.284L102.111 203.403C101.962 203.196 101.857 202.96 101.802 202.71L81.1328 91.6163C81.0444 91.177 81.1125 90.7208 81.3254 90.3263C81.5383 89.9317 81.8827 89.6235 82.2992 89.4547C82.7158 89.286 83.1783 89.2673 83.6071 89.4019C84.036 89.5365 84.4043 89.8159 84.6486 90.192L162.691 205.675C162.836 205.866 162.929 206.091 162.961 206.329L192.208 332.782Z" fill="url(#paint2_linear)"/>
<path d="M91.2553 200.747H33.4964C33.0666 200.75 32.6488 200.606 32.3117 200.34C31.9747 200.074 31.7385 199.702 31.642 199.285L0.000165828 71.099C-0.0629073 70.8147 -0.0617053 70.5199 0.00368468 70.2361C0.0690746 69.9523 0.197015 69.6865 0.378234 69.4581C0.559454 69.2296 0.789414 69.0442 1.05145 68.9152C1.31349 68.7862 1.60104 68.717 1.89327 68.7124H67.3404C67.7912 68.714 68.2273 68.8727 68.573 69.161C68.9187 69.4492 69.1524 69.8488 69.2335 70.2907L93.1484 198.476C93.1993 198.753 93.1885 199.038 93.117 199.31C93.0454 199.582 92.9148 199.836 92.7343 200.052C92.5538 200.269 92.3278 200.443 92.0723 200.563C91.8167 200.684 91.5378 200.746 91.2553 200.747Z" fill="url(#paint3_linear)"/>
<path d="M230.147 208.446C230.436 208.439 230.722 208.498 230.985 208.618C231.247 208.738 231.479 208.916 231.662 209.139C231.844 209.362 231.973 209.623 232.039 209.904C232.105 210.184 232.105 210.476 232.04 210.756L204.494 338.749H201.557L171.809 210.563C171.745 210.281 171.745 209.988 171.811 209.706C171.876 209.424 172.005 209.16 172.187 208.935C172.369 208.709 172.6 208.527 172.862 208.403C173.124 208.278 173.411 208.214 173.702 208.215L230.147 208.446Z" fill="url(#paint4_linear)"/>
<path d="M203.853 362.981C209.782 362.806 214.48 358.994 214.345 354.468C214.21 349.942 209.294 346.414 203.365 346.59C197.436 346.765 192.739 350.577 192.873 355.103C193.008 359.629 197.924 363.156 203.853 362.981Z" fill="#E62A3D"/>
</g>
<defs>
<linearGradient id="paint0_linear" x1="185.386" y1="-0.000976573" x2="185.386" y2="200.912" gradientUnits="userSpaceOnUse">
<stop stop-color="#D80032"/>
<stop offset="1" stop-color="#FF7751"/>
</linearGradient>
<linearGradient id="paint1_linear" x1="363.166" y1="26.9459" x2="213.372" y2="331.483" gradientUnits="userSpaceOnUse">
<stop stop-color="#3A829C"/>
<stop offset="1" stop-color="#0E80BD"/>
</linearGradient>
<linearGradient id="paint2_linear" x1="80.8839" y1="89.5648" x2="178.456" y2="339.479" gradientUnits="userSpaceOnUse">
<stop stop-color="#4192B0"/>
<stop offset="1" stop-color="#0485CA"/>
</linearGradient>
<linearGradient id="paint3_linear" x1="46.4928" y1="68.5186" x2="43.1484" y2="200.919" gradientUnits="userSpaceOnUse">
<stop stop-color="#439FC0"/>
<stop offset="1" stop-color="#0284CB"/>
</linearGradient>
<linearGradient id="paint4_linear" x1="201.877" y1="208.024" x2="196.83" y2="338.807" gradientUnits="userSpaceOnUse">
<stop stop-color="#439FC0"/>
<stop offset="1" stop-color="#0284CB"/>
</linearGradient>
<clipPath id="clip0">
<rect width="369" height="363" fill="white"/>
</clipPath>
</defs>
</svg>
