<svg width="423" height="74" viewBox="0 0 423 74" fill="none" xmlns="http://www.w3.org/2000/svg">
<path d="M80.7078 2.55573L40.2835 71.8405C40.1314 72.099 39.9151 72.3137 39.6556 72.4637C39.396 72.6138 39.1021 72.694 38.8024 72.6966H20.0713C19.6641 72.6982 19.2698 72.5533 18.9604 72.2882C18.6511 72.0231 18.4472 71.6556 18.3859 71.2527L9.92056 19.0144C9.85444 18.6136 9.64915 18.2491 9.34084 17.9849C9.03253 17.7208 8.64098 17.574 8.23515 17.5704H1.71057C1.40999 17.5735 1.11389 17.4973 0.852097 17.3495C0.590301 17.2017 0.372042 16.9874 0.219295 16.7283C0.0665475 16.4692 -0.0152965 16.1744 -0.0179973 15.8736C-0.0206981 15.5728 0.0558396 15.2765 0.20391 15.0147L7.80103 0.907313C7.9444 0.631952 8.16093 0.401539 8.42677 0.241456C8.69261 0.0813741 8.99744 -0.00216484 9.30768 4.26423e-05H22.076C25.9064 4.26423e-05 27.9877 1.90403 28.2941 5.72479L32.6608 43.2423C32.7038 43.606 32.8622 43.9464 33.1127 44.2133C33.3633 44.4803 33.6927 44.6599 34.0527 44.7256C34.4127 44.7914 34.7843 44.7399 35.1129 44.5787C35.4415 44.4176 35.7098 44.1552 35.8784 43.8301L58.1591 0.920091C58.3051 0.643176 58.5236 0.411246 58.7913 0.249166C59.059 0.0870861 59.3657 0.000967566 59.6785 4.26423e-05H79.2395C79.5368 0.00362603 79.8281 0.0846996 80.0846 0.23527C80.341 0.385841 80.5539 0.60071 80.7021 0.858693C80.8503 1.11668 80.9288 1.40886 80.9298 1.70645C80.9308 2.00404 80.8543 2.29675 80.7078 2.55573V2.55573Z" fill="#353535"/>
<path d="M140.63 59.7647L134.067 71.802C133.92 72.0731 133.702 72.2994 133.437 72.4568C133.172 72.6143 132.869 72.6971 132.56 72.6965H117.724C112.08 72.6965 109.156 71.6231 108.25 68.6713C108.156 68.3954 107.993 68.1482 107.776 67.953C107.56 67.7578 107.298 67.6211 107.014 67.5559C106.73 67.4906 106.434 67.4989 106.154 67.5801C105.875 67.6612 105.62 67.8125 105.415 68.0196C103.493 69.8904 101.209 71.3494 98.7044 72.3073C96.1995 73.2652 93.5258 73.702 90.8466 73.591C77.4016 73.591 67.7743 61.3364 70.5833 44.7244C74.2861 21.5827 98.7629 10.0437 130.875 15.334L132.152 15.5512C132.428 15.5932 132.689 15.7025 132.912 15.8695C133.136 16.0364 133.315 16.2559 133.433 16.5085C133.552 16.7612 133.607 17.0391 133.593 17.3179C133.578 17.5967 133.496 17.8677 133.352 18.1069L126.751 29.4286C126.585 29.7179 126.339 29.952 126.041 30.102C125.744 30.2519 125.409 30.3111 125.078 30.272L122.678 29.9909C103.985 28.2147 92.5447 33.6327 90.0421 44.7244C88.2291 52.6599 91.319 57.8862 97.7031 57.8862C104.419 57.8862 108.735 52.7749 110.842 42.7182L112.361 35.5495C112.443 35.165 112.653 34.8198 112.957 34.5712C113.261 34.3226 113.641 34.1853 114.034 34.1822H129.994C130.249 34.1823 130.501 34.2394 130.731 34.3494C130.961 34.4594 131.164 34.6194 131.324 34.8179C131.484 35.0163 131.598 35.2481 131.658 35.4963C131.717 35.7445 131.72 36.0028 131.667 36.2523L127.683 55.1644C127.632 55.4148 127.637 55.6734 127.698 55.9215C127.759 56.1696 127.874 56.4011 128.036 56.5992C128.197 56.7972 128.4 56.957 128.631 57.0669C128.861 57.1768 129.113 57.234 129.368 57.2345H139.174C139.467 57.2426 139.753 57.3257 140.004 57.4758C140.255 57.6259 140.464 57.838 140.61 58.0918C140.756 58.3457 140.835 58.6327 140.838 58.9256C140.842 59.2185 140.77 59.5074 140.63 59.7647V59.7647Z" fill="#353535"/>
<path d="M251.203 59.7521L244.717 71.7894C244.57 72.062 244.353 72.2901 244.088 72.4497C243.823 72.6094 243.52 72.6947 243.21 72.6967H226.28C218.044 72.6967 215.644 70.3838 217.546 61.4516L221.657 42.2839C223.368 33.9524 221.964 30.3361 215.746 30.3361C209.528 30.3361 206.808 33.6457 204.803 43.1912L198.777 71.3038C198.693 71.686 198.481 72.0282 198.178 72.2743C197.874 72.5204 197.495 72.6559 197.104 72.6583H181.131C180.877 72.6559 180.626 72.5973 180.397 72.4866C180.168 72.3759 179.967 72.2159 179.807 72.018C179.647 71.8202 179.533 71.5894 179.473 71.3422C179.412 71.095 179.407 70.8375 179.458 70.5882L185.447 42.3351C187.247 34.0035 185.945 30.3872 179.829 30.3872C173.444 30.3872 170.699 34.0035 168.593 44.239L162.757 71.3038C162.673 71.686 162.462 72.0282 162.158 72.2743C161.854 72.5204 161.476 72.6559 161.085 72.6583H145.124C144.869 72.6582 144.618 72.6011 144.388 72.4911C144.158 72.3812 143.955 72.2211 143.795 72.0227C143.634 71.8243 143.52 71.5925 143.461 71.3443C143.402 71.0961 143.399 70.8378 143.452 70.5882L151.496 32.7512C151.551 32.5008 151.55 32.2411 151.492 31.9912C151.433 31.7414 151.32 31.5079 151.159 31.308C150.999 31.108 150.795 30.9467 150.564 30.836C150.333 30.7253 150.08 30.668 149.823 30.6683H145.188C144.888 30.6714 144.592 30.5952 144.33 30.4474C144.068 30.2996 143.85 30.0853 143.697 29.8262C143.544 29.5671 143.462 29.2723 143.46 28.9715C143.457 28.6707 143.534 28.3745 143.682 28.1126L150.245 16.0753C150.393 15.8051 150.611 15.5796 150.876 15.4223C151.141 15.265 151.443 15.1816 151.751 15.1809H163.575C168.759 15.1809 171.644 16.0881 172.589 18.9122C172.674 19.1887 172.827 19.4394 173.034 19.6413C173.241 19.8431 173.496 19.9896 173.774 20.0672C174.053 20.1448 174.346 20.1511 174.628 20.0855C174.909 20.0199 175.17 19.8844 175.385 19.6917C179.198 16.1734 184.168 14.1774 189.354 14.0819C197.64 14.0819 202.224 16.9315 204.242 21.9279C204.35 22.1962 204.526 22.4323 204.751 22.6138C204.977 22.7952 205.245 22.916 205.53 22.9647C205.815 23.0133 206.108 22.9882 206.381 22.8917C206.654 22.7953 206.897 22.6306 207.089 22.4135C209.315 19.7374 212.115 17.5969 215.28 16.1502C218.445 14.7036 221.894 13.988 225.373 14.0564C240.516 14.0564 245.24 23.0907 241.218 42.0667L238.448 55.1646C238.397 55.4139 238.402 55.6714 238.462 55.9186C238.522 56.1658 238.636 56.3966 238.796 56.5944C238.956 56.7923 239.158 56.9523 239.387 57.063C239.616 57.1737 239.866 57.2323 240.12 57.2347H249.697C249.992 57.2353 250.282 57.3123 250.538 57.4581C250.795 57.604 251.009 57.8138 251.161 58.0672C251.313 58.3205 251.396 58.6088 251.404 58.9041C251.411 59.1993 251.342 59.4914 251.203 59.7521V59.7521Z" fill="#353535"/>
<path d="M309.733 22.4903C315.249 27.9083 317.93 35.7799 315.759 46.1815C311.929 65.8603 296.901 74.0002 281.541 74.0002C264.942 74.0002 251.548 63.5602 255.864 41.8624C256.376 39.6615 257.116 37.5202 258.072 35.4732C258.209 35.1786 258.427 34.9293 258.701 34.7549C258.975 34.5805 259.293 34.4883 259.617 34.4892H275.565C275.867 34.4848 276.166 34.5607 276.429 34.7092C276.693 34.8577 276.912 35.0734 277.066 35.3345C277.219 35.5955 277.3 35.8925 277.301 36.1953C277.302 36.498 277.223 36.7956 277.072 37.0577C275.781 39.4531 274.888 42.0426 274.429 44.7248C273.152 52.7624 276.638 57.8866 283.366 57.8866C290.785 57.8866 295.509 52.8646 296.914 44.1242C297.616 39.8051 297.105 35.6904 294.705 33.3903C292.687 31.2307 289.074 30.6685 283.456 30.6685H257.332C257.03 30.6756 256.731 30.6019 256.467 30.4551C256.203 30.3082 255.983 30.0935 255.829 29.833C255.676 29.5726 255.595 29.2759 255.594 28.9735C255.593 28.6711 255.673 28.374 255.825 28.1128L262.299 16.0755C262.444 15.802 262.661 15.5731 262.927 15.4133C263.192 15.2535 263.496 15.1688 263.805 15.1682H285.511C296.99 15.2577 304.523 17.5706 309.733 22.4903Z" fill="#353535"/>
<path d="M322.284 58.1165C322.434 57.8486 322.653 57.6257 322.917 57.4707C323.182 57.3157 323.484 57.2342 323.79 57.2348H345.05C364.33 57.2348 367.164 41.9006 351.242 32.9557C350.851 32.7401 350.391 32.6849 349.96 32.8017C349.529 32.9185 349.16 33.1982 348.931 33.5819L343.734 42.3862C343.581 42.6389 343.366 42.8481 343.109 42.9935C342.852 43.139 342.561 43.2158 342.266 43.2168H326.37C326.071 43.217 325.777 43.1384 325.518 42.9887C325.26 42.839 325.045 42.6237 324.896 42.3644C324.747 42.1052 324.669 41.8111 324.67 41.5121C324.671 41.213 324.751 40.9195 324.901 40.6611L343.849 8.47221C344.004 8.2225 344.22 8.01709 344.478 7.876C344.735 7.73491 345.024 7.66296 345.318 7.66717H361.751C362.047 7.67293 362.336 7.75559 362.591 7.90705C362.846 8.05852 363.057 8.27359 363.204 8.53121C363.35 8.78884 363.428 9.08018 363.428 9.37672C363.429 9.67325 363.352 9.96481 363.206 10.2229L360.065 15.2576C359.947 15.4528 359.87 15.6694 359.836 15.8948C359.803 16.1203 359.814 16.3502 359.87 16.5712C359.926 16.7922 360.025 17 360.161 17.1824C360.298 17.3649 360.469 17.5185 360.665 17.6344C379.013 28.3555 384.708 44.5969 376.574 54.5257C376.372 54.7809 376.246 55.0882 376.21 55.4123C376.175 55.7363 376.232 56.0636 376.375 56.3565C376.518 56.6493 376.741 56.8957 377.018 57.0669C377.295 57.2382 377.615 57.3274 377.941 57.3242H384.746C385.045 57.3249 385.339 57.4035 385.599 57.5523C385.858 57.701 386.075 57.9149 386.227 58.1727C386.379 58.4305 386.461 58.7235 386.466 59.0228C386.47 59.3222 386.397 59.6175 386.253 59.8799L379.703 71.815C379.558 72.0851 379.342 72.3109 379.079 72.4684C378.816 72.6258 378.515 72.7092 378.209 72.7095H317.228C316.928 72.7103 316.634 72.6325 316.374 72.4837C316.114 72.335 315.897 72.1205 315.746 71.8618C315.595 71.6031 315.514 71.3091 315.512 71.0094C315.51 70.7097 315.586 70.4146 315.734 70.1538L322.284 58.1165Z" fill="#353535"/>
<path d="M388.079 63.4578C389.279 57.2347 394.603 54.6151 400.221 54.6151C406.337 54.6151 410.857 57.9375 409.555 64.7612C408.342 70.9843 402.928 73.5911 397.412 73.5911C391.194 73.5911 386.879 70.2815 388.079 63.4578ZM402.545 0H421.353C421.62 0.000396969 421.883 0.0633579 422.122 0.183843C422.36 0.304329 422.567 0.478993 422.726 0.693856C422.885 0.908719 422.991 1.15781 423.036 1.4212C423.082 1.68459 423.065 1.95496 422.987 2.21067L409.21 47.3825C409.115 47.7452 408.904 48.0666 408.609 48.2975C408.313 48.5283 407.95 48.6558 407.576 48.6603H397.361C397.119 48.6603 396.88 48.6089 396.66 48.5095C396.439 48.4102 396.242 48.2652 396.082 48.084C395.921 47.9029 395.801 47.6898 395.729 47.4587C395.657 47.2277 395.634 46.9839 395.663 46.7436L400.885 1.58453C400.917 1.16158 401.104 0.765372 401.411 0.472641C401.717 0.17991 402.122 0.0114892 402.545 0V0Z" fill="#353535"/>
</svg>
