<svg width="354" height="348" viewBox="0 0 354 348" fill="none" xmlns="http://www.w3.org/2000/svg">
<g clip-path="url(#clip0)">
<path d="M353.704 2.87858L226.092 191.64C225.926 191.89 225.701 192.095 225.435 192.237C225.17 192.379 224.874 192.453 224.573 192.452H162.601C162.295 192.452 161.994 192.378 161.722 192.237C161.451 192.096 161.219 191.891 161.045 191.64L72.0905 60.1159L70.9786 58.4922H3.41058C3.09747 58.4961 2.78848 58.4209 2.51245 58.2737C2.23641 58.1265 2.00234 57.9121 1.83208 57.6504C1.66182 57.3888 1.56092 57.0884 1.53881 56.7774C1.51669 56.4664 1.57409 56.1549 1.70562 55.872L26.6128 1.07031C26.7629 0.747153 27.0038 0.47416 27.3063 0.284264C27.6089 0.0943681 27.9601 -0.0043172 28.3177 0.000112418H117.012C117.299 0.00290917 117.582 0.0708307 117.839 0.198719C118.096 0.326607 118.32 0.511098 118.495 0.738182L190.659 98.4217L193.661 102.481L196.663 98.4217L268.79 0.738182C268.974 0.512205 269.205 0.329035 269.468 0.201531C269.73 0.0740269 270.018 0.00527863 270.31 0.000112418H352.11C352.452 -0.0107187 352.79 0.0725892 353.086 0.240838C353.383 0.409086 353.627 0.65573 353.792 0.953537C353.957 1.25134 354.036 1.58873 354.021 1.92844C354.005 2.26814 353.896 2.59696 353.704 2.87858Z" fill="url(#paint0_linear)"/>
<path d="M348.625 26.2385L292.028 194.297C291.989 194.442 291.927 194.579 291.843 194.703L208.152 321.577L204.779 320.175L231.095 197.951C231.155 197.725 231.256 197.513 231.391 197.323L347.328 25.5742C347.434 25.4371 347.585 25.3412 347.754 25.3034C347.923 25.2655 348.101 25.2881 348.255 25.3672C348.41 25.4463 348.531 25.5768 348.599 25.7361C348.667 25.8953 348.676 26.0731 348.625 26.2385Z" fill="url(#paint1_linear)"/>
<path d="M184.394 319.031L181.021 320.47L97.9604 194.998C97.8174 194.799 97.7165 194.573 97.6639 194.334L77.8345 87.8304C77.7497 87.4093 77.815 86.972 78.0193 86.5937C78.2236 86.2154 78.554 85.92 78.9535 85.7582C79.3531 85.5964 79.7969 85.5785 80.2083 85.7075C80.6197 85.8366 80.973 86.1044 81.2074 86.465L156.077 197.176C156.217 197.359 156.306 197.575 156.336 197.803L184.394 319.031Z" fill="url(#paint2_linear)"/>
<path d="M87.5454 192.452H32.1345C31.7221 192.454 31.3213 192.317 30.9979 192.062C30.6746 191.807 30.448 191.45 30.3554 191.05L-0.000134692 68.1611C-0.0606438 67.8885 -0.0594907 67.606 0.00324112 67.3339C0.0659729 67.0618 0.188712 66.807 0.362565 66.588C0.536418 66.3689 0.75703 66.1912 1.00841 66.0675C1.2598 65.9439 1.53566 65.8775 1.81601 65.8731H64.6027C65.0352 65.8747 65.4535 66.0268 65.7852 66.3031C66.1168 66.5795 66.341 66.9626 66.4189 67.3862L89.3616 190.275C89.4104 190.54 89.4001 190.813 89.3314 191.074C89.2628 191.335 89.1375 191.578 88.9643 191.786C88.7911 191.993 88.5743 192.161 88.3292 192.276C88.084 192.391 87.8165 192.451 87.5454 192.452Z" fill="url(#paint3_linear)"/>
<path d="M220.791 199.833C221.068 199.826 221.343 199.882 221.595 199.997C221.847 200.112 222.069 200.283 222.245 200.497C222.42 200.71 222.544 200.961 222.607 201.23C222.67 201.498 222.67 201.778 222.608 202.047L196.181 324.751H193.364L164.824 201.862C164.763 201.592 164.764 201.311 164.827 201.04C164.89 200.77 165.013 200.517 165.187 200.301C165.362 200.084 165.583 199.91 165.835 199.791C166.086 199.671 166.362 199.61 166.641 199.611L220.791 199.833Z" fill="url(#paint4_linear)"/>
<path d="M195.566 347.982C201.254 347.814 205.761 344.16 205.631 339.821C205.502 335.481 200.786 332.1 195.098 332.268C189.41 332.436 184.903 336.09 185.033 340.429C185.162 344.769 189.878 348.15 195.566 347.982Z" fill="#E62A3D"/>
</g>
<defs>
<linearGradient id="paint0_linear" x1="177.851" y1="-0.000823985" x2="177.851" y2="192.61" gradientUnits="userSpaceOnUse">
<stop stop-color="#D80032"/>
<stop offset="1" stop-color="#FF7751"/>
</linearGradient>
<linearGradient id="paint1_linear" x1="348.403" y1="25.8324" x2="204.86" y2="317.865" gradientUnits="userSpaceOnUse">
<stop stop-color="#3A829C"/>
<stop offset="1" stop-color="#0E80BD"/>
</linearGradient>
<linearGradient id="paint2_linear" x1="77.5957" y1="85.8638" x2="171.088" y2="325.495" gradientUnits="userSpaceOnUse">
<stop stop-color="#4192B0"/>
<stop offset="1" stop-color="#0485CA"/>
</linearGradient>
<linearGradient id="paint3_linear" x1="44.6025" y1="65.6873" x2="41.3986" y2="192.617" gradientUnits="userSpaceOnUse">
<stop stop-color="#439FC0"/>
<stop offset="1" stop-color="#0284CB"/>
</linearGradient>
<linearGradient id="paint4_linear" x1="193.671" y1="199.428" x2="188.835" y2="324.807" gradientUnits="userSpaceOnUse">
<stop stop-color="#439FC0"/>
<stop offset="1" stop-color="#0284CB"/>
</linearGradient>
<clipPath id="clip0">
<rect width="354" height="348" fill="white"/>
</clipPath>
</defs>
</svg>
