<svg width="36" height="36" viewBox="0 0 36 36" fill="none" xmlns="http://www.w3.org/2000/svg">
<g clip-path="url(#clip0)">
<path d="M18.006 8.75696C12.9015 8.75696 8.76904 12.894 8.76904 17.994C8.76904 23.0985 12.906 27.231 18.006 27.231C23.1105 27.231 27.243 23.094 27.243 17.994C27.243 12.8895 23.106 8.75696 18.006 8.75696ZM18.006 23.9895C14.6925 23.9895 12.0105 21.306 12.0105 17.994C12.0105 14.682 14.694 11.9985 18.006 11.9985C21.318 11.9985 24.0015 14.682 24.0015 17.994C24.003 21.306 21.3195 23.9895 18.006 23.9895Z" fill="#353535"/>
<path d="M25.4219 0.113995C22.1099 -0.0405045 13.9064 -0.0330045 10.5914 0.113995C7.67835 0.250495 5.10885 0.953995 3.03735 3.02549C-0.424648 6.48749 0.0178526 11.1525 0.0178526 17.994C0.0178526 24.996 -0.372147 29.553 3.03735 32.9625C6.51285 36.4365 11.2454 35.982 18.0059 35.982C24.9419 35.982 27.3359 35.9865 29.7884 35.037C33.1229 33.7425 35.6399 30.762 35.8859 25.4085C36.0419 22.095 36.0329 13.893 35.8859 10.578C35.5889 4.25849 32.1974 0.425995 25.4219 0.113995ZM30.6644 30.672C28.3949 32.9415 25.2464 32.739 17.9624 32.739C10.4624 32.739 7.45485 32.85 5.26035 30.6495C2.73285 28.134 3.19035 24.0945 3.19035 17.97C3.19035 9.68249 2.33985 3.71399 10.6574 3.28799C12.5684 3.22049 13.1309 3.19799 17.9414 3.19799L18.0089 3.24299C26.0024 3.24299 32.2739 2.40599 32.6504 10.722C32.7359 12.6195 32.7554 13.1895 32.7554 17.9925C32.7539 25.4055 32.8949 28.431 30.6644 30.672Z" fill="#353535"/>
<path d="M27.6092 10.551C28.8013 10.551 29.7677 9.58462 29.7677 8.39251C29.7677 7.2004 28.8013 6.23401 27.6092 6.23401C26.4171 6.23401 25.4507 7.2004 25.4507 8.39251C25.4507 9.58462 26.4171 10.551 27.6092 10.551Z" fill="#353535"/>
</g>
<defs>
<clipPath id="clip0">
<rect width="36" height="36" fill="white"/>
</clipPath>
</defs>
</svg>
