<svg width="144" height="33" viewBox="0 0 144 33" fill="none" xmlns="http://www.w3.org/2000/svg">
<path d="M35.0018 0.273047L22.7344 18.1728C22.7184 18.1966 22.6967 18.216 22.6712 18.2295C22.6457 18.2429 22.6172 18.2499 22.5883 18.2498H16.631C16.6015 18.2499 16.5725 18.2429 16.5465 18.2295C16.5204 18.216 16.498 18.1966 16.4813 18.1728L7.93009 5.70073L7.8232 5.54675H1.32784C1.29774 5.54712 1.26804 5.53999 1.2415 5.52603C1.21497 5.51208 1.19247 5.49174 1.1761 5.46693C1.15973 5.44212 1.15003 5.41364 1.14791 5.38415C1.14578 5.35466 1.1513 5.32512 1.16394 5.29829L3.55828 0.101573C3.57272 0.0709289 3.59587 0.0450416 3.62496 0.0270342C3.65404 0.00902684 3.6878 -0.000331254 3.72218 8.87959e-05H12.2485C12.2761 0.000354005 12.3032 0.00679484 12.3279 0.0189222C12.3526 0.0310495 12.3742 0.0485444 12.391 0.0700782L19.3282 9.33318L19.6168 9.71812L19.9054 9.33318L26.839 0.0700782C26.8566 0.0486493 26.8789 0.0312798 26.9041 0.0191888C26.9294 0.00709793 26.957 0.000578696 26.9851 8.87959e-05H34.8486C34.8814 -0.000938298 34.9139 0.00696159 34.9424 0.0229162C34.971 0.0388708 34.9944 0.0622595 35.0103 0.0904997C35.0261 0.11874 35.0337 0.150733 35.0322 0.182947C35.0308 0.215161 35.0202 0.246342 35.0018 0.273047Z" fill="url(#paint0_linear)"/>
<path d="M34.5133 2.48832L29.0726 18.4249C29.0689 18.4386 29.0629 18.4516 29.0548 18.4634L21.0095 30.4946L20.6853 30.3616L23.215 18.7714C23.2209 18.75 23.2305 18.7299 23.2435 18.7119L34.3886 2.42533C34.3988 2.41232 34.4133 2.40323 34.4296 2.39965C34.4459 2.39606 34.4629 2.3982 34.4778 2.4057C34.4926 2.4132 34.5043 2.42557 34.5108 2.44067C34.5173 2.45577 34.5182 2.47264 34.5133 2.48832Z" fill="url(#paint1_linear)"/>
<path d="M18.7259 30.2532L18.4017 30.3897L10.417 18.4915C10.4032 18.4726 10.3935 18.4512 10.3884 18.4285L8.48224 8.32902C8.47408 8.28909 8.48037 8.24761 8.5 8.21174C8.51964 8.17587 8.5514 8.14785 8.58981 8.13251C8.62822 8.11717 8.67088 8.11548 8.71043 8.12771C8.74998 8.13995 8.78395 8.16535 8.80647 8.19954L16.0037 18.698C16.0172 18.7153 16.0258 18.7358 16.0287 18.7574L18.7259 30.2532Z" fill="url(#paint2_linear)"/>
<path d="M9.41571 18.2498H4.08901C4.04937 18.25 4.01084 18.2369 3.97975 18.2127C3.94867 18.1886 3.92689 18.1547 3.91799 18.1168L0.999887 6.46355C0.994071 6.4377 0.994181 6.4109 1.00021 6.3851C1.00624 6.3593 1.01804 6.33514 1.03475 6.31437C1.05147 6.2936 1.07267 6.27674 1.09684 6.26502C1.12101 6.25329 1.14752 6.247 1.17447 6.24658H7.21021C7.25178 6.24673 7.29199 6.26116 7.32387 6.28736C7.35576 6.31356 7.37731 6.34989 7.38479 6.39006L9.59029 18.0433C9.59498 18.0685 9.59399 18.0943 9.58739 18.1191C9.5808 18.1439 9.56875 18.1669 9.5521 18.1866C9.53545 18.2063 9.51461 18.2221 9.49105 18.233C9.46748 18.244 9.44176 18.2497 9.41571 18.2498Z" fill="url(#paint3_linear)"/>
<path d="M22.2248 18.9497C22.2515 18.949 22.2779 18.9544 22.3021 18.9653C22.3263 18.9762 22.3477 18.9924 22.3645 19.0127C22.3814 19.0329 22.3933 19.0567 22.3993 19.0822C22.4054 19.1077 22.4054 19.1342 22.3994 19.1597L19.859 30.7954H19.5882L16.8447 19.1422C16.8388 19.1165 16.8389 19.0899 16.8449 19.0642C16.851 19.0386 16.8628 19.0146 16.8796 18.9941C16.8964 18.9736 16.9176 18.9571 16.9418 18.9457C16.966 18.9344 16.9925 18.9286 17.0193 18.9287L22.2248 18.9497Z" fill="url(#paint4_linear)"/>
<path d="M19.7998 32.9984C20.3466 32.9824 20.7798 32.6359 20.7673 32.2244C20.7549 31.813 20.3015 31.4923 19.7547 31.5082C19.2079 31.5242 18.7747 31.8707 18.7872 32.2822C18.7996 32.6936 19.253 33.0143 19.7998 32.9984Z" fill="#E62A3D"/>
<path d="M62.2332 6.39735L52.5852 25.575C52.5489 25.6465 52.4973 25.7059 52.4354 25.7475C52.3734 25.789 52.3033 25.8112 52.2317 25.8119H47.7612C47.664 25.8124 47.57 25.7722 47.4961 25.6989C47.4223 25.6255 47.3736 25.5238 47.359 25.4123L45.3386 10.953C45.3228 10.8421 45.2738 10.7412 45.2002 10.6681C45.1266 10.595 45.0332 10.5543 44.9363 10.5533H43.3791C43.3074 10.5542 43.2367 10.5331 43.1742 10.4922C43.1118 10.4513 43.0597 10.392 43.0232 10.3202C42.9867 10.2485 42.9672 10.1669 42.9666 10.0837C42.9659 10.0004 42.9842 9.91839 43.0195 9.84593L44.8327 5.94108C44.8669 5.86486 44.9186 5.80108 44.9821 5.75678C45.0455 5.71247 45.1183 5.68934 45.1923 5.68995H48.2397C49.1539 5.68995 49.6506 6.21697 49.7238 7.27453L50.766 17.6592C50.7762 17.7598 50.814 17.854 50.8738 17.9279C50.9336 18.0018 51.0122 18.0515 51.0981 18.0697C51.1841 18.0879 51.2728 18.0737 51.3512 18.0291C51.4296 17.9845 51.4937 17.9118 51.5339 17.8219L56.8516 5.94462C56.8864 5.86797 56.9386 5.80377 57.0025 5.75891C57.0663 5.71405 57.1395 5.69021 57.2142 5.68995H61.8828C61.9537 5.69095 62.0233 5.71339 62.0845 5.75506C62.1457 5.79674 62.1965 5.85621 62.2319 5.92762C62.2672 5.99903 62.286 6.07991 62.2862 6.16228C62.2864 6.24465 62.2682 6.32567 62.2332 6.39735Z" fill="#353535"/>
<path d="M76.5348 22.2322L74.9685 25.5641C74.9333 25.6391 74.8813 25.7018 74.818 25.7453C74.7547 25.7889 74.6825 25.8118 74.6089 25.8117H71.0678C69.7209 25.8117 69.023 25.5146 68.8067 24.6975C68.7842 24.6212 68.7453 24.5527 68.6937 24.4987C68.6421 24.4447 68.5794 24.4068 68.5117 24.3888C68.4439 24.3707 68.3733 24.373 68.3066 24.3955C68.2398 24.4179 68.1791 24.4598 68.1302 24.5171C67.6713 25.035 67.1263 25.4388 66.5285 25.7039C65.9307 25.9691 65.2925 26.09 64.6531 26.0593C61.4442 26.0593 59.1465 22.6673 59.8169 18.0692C60.7007 11.6637 66.5425 8.46976 74.2066 9.93407L74.5114 9.9942C74.5772 10.0058 74.6395 10.0361 74.6929 10.0823C74.7462 10.1285 74.7889 10.1893 74.8172 10.2592C74.8455 10.3291 74.8586 10.406 74.8552 10.4832C74.8518 10.5604 74.8321 10.6354 74.7978 10.7016L73.2223 13.8354C73.1828 13.9154 73.1239 13.9803 73.053 14.0218C72.982 14.0633 72.902 14.0796 72.8231 14.0688L72.2502 13.991C67.7889 13.4994 65.0584 14.9991 64.4611 18.0692C64.0284 20.2656 64.7659 21.7123 66.2895 21.7123C67.8925 21.7123 68.9225 20.2975 69.4253 17.5139L69.7879 15.5296C69.8074 15.4232 69.8575 15.3276 69.9301 15.2588C70.0027 15.19 70.0934 15.152 70.1871 15.1511H73.9964C74.0572 15.1512 74.1173 15.167 74.1722 15.1974C74.2271 15.2279 74.2755 15.2722 74.3138 15.3271C74.352 15.382 74.3792 15.4462 74.3934 15.5149C74.4075 15.5836 74.4083 15.6551 74.3956 15.7241L73.4448 20.9589C73.4326 21.0282 73.4338 21.0998 73.4484 21.1684C73.4629 21.2371 73.4904 21.3012 73.5289 21.356C73.5674 21.4109 73.6159 21.4551 73.6709 21.4855C73.726 21.5159 73.7861 21.5318 73.847 21.5319H76.1874C76.2572 21.5341 76.3254 21.5571 76.3854 21.5987C76.4454 21.6402 76.4952 21.6989 76.53 21.7692C76.5649 21.8394 76.5836 21.9189 76.5845 22C76.5853 22.081 76.5682 22.161 76.5348 22.2322Z" fill="#353535"/>
<path d="M102.925 22.2291L101.377 25.561C101.342 25.6364 101.29 25.6996 101.227 25.7438C101.164 25.788 101.091 25.8116 101.017 25.8121H96.9766C95.011 25.8121 94.4381 25.1719 94.8922 22.6996L95.8734 17.3941C96.2818 15.0879 95.9465 14.087 94.4625 14.087C92.9784 14.087 92.3293 15.003 91.8509 17.6452L90.4125 25.4266C90.3925 25.5324 90.342 25.6271 90.2695 25.6952C90.197 25.7633 90.1066 25.8008 90.0133 25.8015H86.201C86.1404 25.8008 86.0806 25.7846 86.0259 25.754C85.9713 25.7233 85.9232 25.679 85.885 25.6243C85.8469 25.5695 85.8196 25.5056 85.8052 25.4372C85.7909 25.3688 85.7897 25.2975 85.8018 25.2285L87.2311 17.4082C87.6607 15.1021 87.3499 14.1011 85.8902 14.1011C84.3665 14.1011 83.7113 15.1021 83.2085 17.9352L81.8159 25.4266C81.7958 25.5324 81.7454 25.6271 81.6728 25.6952C81.6003 25.7633 81.51 25.8008 81.4167 25.8015H77.6074C77.5466 25.8015 77.4865 25.7857 77.4316 25.7552C77.3767 25.7248 77.3283 25.6805 77.29 25.6256C77.2518 25.5706 77.2246 25.5065 77.2104 25.4378C77.1963 25.3691 77.1955 25.2976 77.2082 25.2285L79.1281 14.7555C79.1413 14.6861 79.141 14.6142 79.1271 14.5451C79.1131 14.476 79.086 14.4113 79.0477 14.356C79.0094 14.3006 78.9608 14.256 78.9056 14.2253C78.8505 14.1947 78.79 14.1788 78.7289 14.1789H77.6227C77.5509 14.1798 77.4803 14.1587 77.4178 14.1178C77.3553 14.0769 77.3032 14.0176 77.2668 13.9458C77.2303 13.8741 77.2108 13.7925 77.2101 13.7093C77.2095 13.626 77.2277 13.544 77.2631 13.4715L78.8294 10.1397C78.8648 10.0649 78.9169 10.0024 78.9801 9.95891C79.0434 9.91536 79.1155 9.89229 79.189 9.89208H82.0109C83.2481 9.89208 83.9368 10.1432 84.1623 10.9249C84.1826 11.0014 84.2191 11.0708 84.2686 11.1267C84.318 11.1826 84.3787 11.2231 84.4452 11.2446C84.5117 11.2661 84.5817 11.2678 84.6489 11.2497C84.7161 11.2315 84.7783 11.194 84.8297 11.1406C85.7398 10.1668 86.926 9.61434 88.1635 9.5879C90.1413 9.5879 91.2353 10.3767 91.7168 11.7596C91.7427 11.8339 91.7846 11.8993 91.8384 11.9495C91.8922 11.9997 91.9562 12.0331 92.0243 12.0466C92.0924 12.0601 92.1623 12.0531 92.2274 12.0264C92.2925 11.9997 92.3507 11.9541 92.3963 11.894C92.9277 11.1533 93.5958 10.5608 94.3512 10.1604C95.1066 9.75999 95.9299 9.56191 96.7602 9.58083C100.374 9.58083 101.502 12.0815 100.542 17.3339L99.8807 20.9593C99.8686 21.0284 99.8697 21.0996 99.8841 21.168C99.8985 21.2365 99.9257 21.3003 99.9639 21.3551C100.002 21.4099 100.05 21.4542 100.105 21.4848C100.159 21.5154 100.219 21.5317 100.28 21.5323H102.565C102.636 21.5325 102.705 21.5538 102.766 21.5942C102.828 21.6346 102.879 21.6926 102.915 21.7628C102.951 21.8329 102.971 21.9127 102.973 21.9944C102.975 22.0761 102.958 22.157 102.925 22.2291Z" fill="#353535"/>
<path d="M116.894 11.9154C118.211 13.4151 118.851 15.5939 118.333 18.473C117.418 23.9199 113.832 26.173 110.166 26.173C106.204 26.173 103.007 23.2833 104.037 17.2775C104.16 16.6683 104.336 16.0756 104.565 15.509C104.597 15.4274 104.649 15.3584 104.715 15.3102C104.78 15.2619 104.856 15.2364 104.933 15.2366H108.739C108.812 15.2354 108.883 15.2564 108.946 15.2975C109.009 15.3386 109.061 15.3983 109.098 15.4706C109.134 15.5428 109.153 15.625 109.154 15.7088C109.154 15.7926 109.135 15.875 109.099 15.9476C108.791 16.6106 108.578 17.3273 108.468 18.0697C108.163 20.2945 108.995 21.7129 110.601 21.7129C112.372 21.7129 113.499 20.3228 113.835 17.9035C114.002 16.708 113.88 15.5691 113.307 14.9324C112.826 14.3347 111.964 14.1791 110.623 14.1791H104.388C104.316 14.181 104.244 14.1606 104.181 14.12C104.118 14.0793 104.066 14.0199 104.029 13.9478C103.993 13.8757 103.973 13.7936 103.973 13.7099C103.973 13.6262 103.992 13.5439 104.028 13.4717L105.573 10.1398C105.608 10.0641 105.66 10.0007 105.723 9.95652C105.786 9.91229 105.859 9.88884 105.933 9.88867H111.113C113.853 9.91343 115.651 10.5536 116.894 11.9154Z" fill="#353535"/>
<path d="M119.89 21.7761C119.926 21.702 119.978 21.6403 120.041 21.5974C120.104 21.5545 120.176 21.5319 120.249 21.5321H125.323C129.925 21.5321 130.601 17.2877 126.801 14.8118C126.708 14.7521 126.598 14.7368 126.495 14.7691C126.392 14.8015 126.304 14.8789 126.25 14.9851L125.009 17.4221C124.973 17.492 124.921 17.5499 124.86 17.5902C124.799 17.6304 124.729 17.6517 124.659 17.652H120.865C120.794 17.6521 120.723 17.6303 120.662 17.5889C120.6 17.5474 120.549 17.4878 120.513 17.4161C120.478 17.3443 120.459 17.2629 120.459 17.1801C120.459 17.0973 120.478 17.0161 120.514 16.9446L125.037 8.03489C125.074 7.96577 125.125 7.90892 125.187 7.86986C125.248 7.83081 125.317 7.8109 125.387 7.81206H129.309C129.38 7.81366 129.449 7.83654 129.51 7.87846C129.571 7.92038 129.621 7.97991 129.656 8.05122C129.691 8.12253 129.709 8.20317 129.71 8.28525C129.71 8.36733 129.691 8.44804 129.657 8.51946L128.907 9.91304C128.879 9.96707 128.86 10.027 128.852 10.0894C128.844 10.1518 128.847 10.2155 128.86 10.2766C128.874 10.3378 128.897 10.3953 128.93 10.4458C128.962 10.4963 129.003 10.5389 129.05 10.5709C133.429 13.5385 134.788 18.034 132.847 20.7822C132.799 20.8529 132.769 20.9379 132.76 21.0276C132.752 21.1173 132.765 21.2079 132.8 21.289C132.834 21.37 132.887 21.4382 132.953 21.4856C133.019 21.533 133.095 21.5577 133.173 21.5568H134.797C134.869 21.557 134.939 21.5788 135.001 21.62C135.063 21.6611 135.115 21.7203 135.151 21.7917C135.187 21.8631 135.207 21.9441 135.208 22.027C135.209 22.1099 135.191 22.1916 135.157 22.2642L133.594 25.5678C133.559 25.6426 133.508 25.7051 133.445 25.7486C133.382 25.7922 133.31 25.8153 133.237 25.8154H118.683C118.611 25.8156 118.541 25.7941 118.479 25.7529C118.417 25.7117 118.365 25.6524 118.329 25.5807C118.293 25.5091 118.274 25.4278 118.273 25.3448C118.273 25.2619 118.291 25.1802 118.326 25.108L119.89 21.7761Z" fill="#353535"/>
<path d="M135.593 23.2547C135.879 21.5322 137.15 20.8071 138.491 20.8071C139.951 20.8071 141.029 21.7267 140.719 23.6155C140.429 25.338 139.137 26.0595 137.82 26.0595C136.336 26.0595 135.306 25.1434 135.593 23.2547ZM139.046 5.68994H143.534C143.598 5.69005 143.661 5.70748 143.718 5.74083C143.775 5.77418 143.824 5.82252 143.862 5.882C143.9 5.94147 143.925 6.01042 143.936 6.08332C143.947 6.15623 143.943 6.23106 143.924 6.30184L140.636 18.8051C140.614 18.9055 140.563 18.9945 140.493 19.0584C140.422 19.1223 140.336 19.1576 140.246 19.1588H137.808C137.751 19.1588 137.693 19.1446 137.641 19.1171C137.588 19.0896 137.541 19.0494 137.503 18.9993C137.465 18.9492 137.436 18.8902 137.419 18.8262C137.401 18.7623 137.396 18.6948 137.403 18.6283L138.649 6.12853C138.657 6.01146 138.702 5.90179 138.775 5.82077C138.848 5.73974 138.944 5.69312 139.046 5.68994V5.68994Z" fill="#353535"/>
<defs>
<linearGradient id="paint0_linear" x1="18.0969" y1="-9.485e-10" x2="18.0969" y2="18.2648" gradientUnits="userSpaceOnUse">
<stop stop-color="#D80032"/>
<stop offset="1" stop-color="#FF7751"/>
</linearGradient>
<linearGradient id="paint1_linear" x1="34.492" y1="2.44981" x2="20.9939" y2="30.2884" gradientUnits="userSpaceOnUse">
<stop stop-color="#3A829C"/>
<stop offset="1" stop-color="#0E80BD"/>
</linearGradient>
<linearGradient id="paint2_linear" x1="8.45928" y1="8.14252" x2="17.236" y2="30.9473" gradientUnits="userSpaceOnUse">
<stop stop-color="#4192B0"/>
<stop offset="1" stop-color="#0485CA"/>
</linearGradient>
<linearGradient id="paint3_linear" x1="5.28757" y1="6.22897" x2="4.98786" y2="18.2656" gradientUnits="userSpaceOnUse">
<stop stop-color="#439FC0"/>
<stop offset="1" stop-color="#0284CB"/>
</linearGradient>
<linearGradient id="paint4_linear" x1="19.6177" y1="18.9113" x2="19.1654" y2="30.8012" gradientUnits="userSpaceOnUse">
<stop stop-color="#439FC0"/>
<stop offset="1" stop-color="#0284CB"/>
</linearGradient>
</defs>
</svg>
