<svg width="336" height="61" viewBox="0 0 336 61" fill="none" xmlns="http://www.w3.org/2000/svg">
<g clip-path="url(#clip0)">
<path d="M63.9258 4.28567L32.2429 58.6663C32.1237 58.8692 31.9534 59.0382 31.7485 59.1567C31.5437 59.2753 31.3113 59.3395 31.074 59.343L16.24 59.4336C15.9174 59.4368 15.6045 59.3254 15.3582 59.1196C15.112 58.9138 14.9487 58.6274 14.8983 58.3125L7.94462 17.4998C7.89034 17.1867 7.72602 16.9026 7.48059 16.6975C7.23517 16.4925 6.92438 16.3796 6.60297 16.3787L1.43584 16.4103C1.19781 16.4142 0.962955 16.356 0.75492 16.2416C0.546884 16.1273 0.373011 15.9608 0.250806 15.7589C0.1286 15.557 0.0623755 15.3268 0.0587995 15.0916C0.0552234 14.8563 0.114422 14.6243 0.230435 14.4188L6.17956 3.34921C6.29178 3.13317 6.46216 2.95192 6.67193 2.82544C6.8817 2.69896 7.12271 2.63215 7.36842 2.63238L17.4802 2.57061C20.5138 2.55208 22.1711 4.03105 22.432 7.01764L26.0695 36.3376C26.1053 36.6218 26.2323 36.8872 26.432 37.0948C26.6317 37.3024 26.8934 37.4412 27.1788 37.4909C27.4643 37.5406 27.7583 37.4985 28.0178 37.3709C28.2772 37.2432 28.4885 37.0368 28.6205 36.7817L46.0606 3.11558C46.1749 2.89831 46.3468 2.71587 46.558 2.58782C46.7692 2.45976 47.0117 2.39093 47.2595 2.38869L62.7507 2.29406C62.9862 2.29543 63.2173 2.35742 63.4211 2.47394C63.625 2.59045 63.7946 2.75746 63.9132 2.9585C64.0318 3.15955 64.0953 3.38768 64.0975 3.62041C64.0998 3.85313 64.0406 4.08242 63.9258 4.28567Z" fill="url(#paint0_linear)"/>
<path d="M111.657 48.7367L106.517 58.1824C106.402 58.3952 106.23 58.5732 106.021 58.6976C105.812 58.822 105.572 58.8882 105.328 58.8892L93.578 58.961C89.1086 58.9883 86.7879 58.163 86.0559 55.8589C85.98 55.6436 85.8498 55.4511 85.6775 55.2995C85.5053 55.1479 85.2968 55.0422 85.0717 54.9925C84.8465 54.9429 84.6123 54.9508 84.3912 55.0156C84.17 55.0805 83.9693 55.2 83.8079 55.3629C82.2944 56.8354 80.493 57.9874 78.5138 58.7487C76.5347 59.51 74.4193 59.8645 72.297 59.7906C61.6493 59.8556 53.9664 50.3184 56.1117 37.3132C58.9335 19.1969 78.2627 10.0544 103.719 14.0363L104.731 14.2001C104.95 14.2315 105.157 14.3157 105.335 14.4452C105.513 14.5747 105.656 14.7455 105.751 14.9425C105.846 15.1395 105.891 15.3566 105.881 15.5747C105.871 15.7928 105.807 16.0052 105.694 16.193L100.52 25.0792C100.391 25.3062 100.196 25.4905 99.9616 25.6092C99.7268 25.7279 99.4619 25.7758 99.1998 25.7468L97.2974 25.5386C82.4852 24.2399 73.451 28.5325 71.522 37.2191C70.1241 43.4338 72.5961 47.5062 77.652 47.4753C82.9708 47.4429 86.3642 43.4246 87.9846 35.5494L89.1536 29.9357C89.2163 29.6346 89.3811 29.3637 89.6208 29.1677C89.8605 28.9718 90.1607 28.8626 90.4717 28.8583L103.111 28.7811C103.313 28.7799 103.513 28.8234 103.696 28.9083C103.879 28.9932 104.04 29.1174 104.168 29.2718C104.296 29.4262 104.387 29.6069 104.435 29.8007C104.483 29.9945 104.487 30.1965 104.446 30.392L101.381 45.2017C101.342 45.3977 101.348 45.5999 101.397 45.7937C101.447 45.9874 101.539 46.1679 101.668 46.322C101.796 46.4762 101.958 46.6001 102.141 46.6849C102.324 46.7697 102.524 46.8133 102.726 46.8125L110.492 46.765C110.724 46.77 110.95 46.8335 111.15 46.9497C111.35 47.0659 111.516 47.2307 111.633 47.4285C111.75 47.6264 111.813 47.8505 111.818 48.0795C111.822 48.3086 111.766 48.5348 111.657 48.7367Z" fill="url(#paint1_linear)"/>
<path d="M199.225 48.192L194.146 57.6373C194.031 57.8512 193.86 58.0307 193.651 58.1568C193.441 58.2829 193.202 58.3511 192.957 58.3541L179.549 58.436C173.026 58.4759 171.114 56.6787 172.578 49.684L175.743 34.6738C177.058 28.1497 175.928 25.3283 171.004 25.3584C166.08 25.3885 163.942 27.9899 162.4 35.4648L157.761 57.4798C157.696 57.7791 157.531 58.0477 157.291 58.2417C157.052 58.4357 156.753 58.5434 156.443 58.5472L143.793 58.6245C143.592 58.6238 143.393 58.5792 143.211 58.4937C143.029 58.4082 142.869 58.2841 142.741 58.1301C142.614 57.9762 142.522 57.7962 142.473 57.6032C142.425 57.4102 142.419 57.2088 142.459 57.0136L147.066 34.8889C148.452 28.3644 147.403 25.5425 142.56 25.5721C137.504 25.603 135.347 28.4445 133.728 36.4595L129.236 57.6541C129.171 57.9533 129.005 58.222 128.766 58.416C128.526 58.6099 128.227 58.7176 127.918 58.7215L115.278 58.7987C115.076 58.7998 114.876 58.7564 114.694 58.6715C114.511 58.5866 114.35 58.4624 114.222 58.308C114.094 58.1536 114.002 57.9729 113.954 57.7791C113.906 57.5852 113.902 57.3832 113.943 57.1878L120.133 27.558C120.176 27.3619 120.173 27.1587 120.126 26.9637C120.079 26.7686 119.988 26.5865 119.859 26.4309C119.731 26.2753 119.569 26.1502 119.386 26.0647C119.202 25.9792 119.001 25.9356 118.798 25.9371L115.128 25.9596C114.89 25.9634 114.655 25.9053 114.447 25.7909C114.239 25.6766 114.065 25.5101 113.943 25.3082C113.821 25.1063 113.754 24.8761 113.751 24.6409C113.747 24.4056 113.806 24.1736 113.922 23.9681L119.062 14.5225C119.179 14.3104 119.35 14.133 119.559 14.0087C119.768 13.8843 120.007 13.8177 120.251 13.8156L129.615 13.7584C133.72 13.7333 136.01 14.4289 136.772 16.6329C136.84 16.8488 136.963 17.0441 137.128 17.201C137.292 17.3578 137.495 17.4711 137.716 17.5305C137.937 17.5899 138.169 17.5934 138.392 17.5407C138.614 17.488 138.82 17.3808 138.99 17.229C141.993 14.4591 145.919 12.874 150.025 12.7743C156.588 12.7342 160.232 14.9406 161.853 18.8383C161.94 19.0476 162.081 19.2314 162.26 19.3722C162.439 19.5131 162.652 19.6062 162.878 19.6429C163.105 19.6795 163.336 19.6585 163.552 19.5817C163.768 19.505 163.96 19.375 164.11 19.2043C165.861 17.1007 168.067 15.4131 170.567 14.2664C173.067 13.1197 175.795 12.5434 178.55 12.58C190.543 12.5068 194.328 19.5493 191.233 34.4092L189.101 44.666C189.062 44.8612 189.067 45.0626 189.116 45.2556C189.165 45.4486 189.257 45.6286 189.384 45.7825C189.512 45.9365 189.672 46.0607 189.854 46.1461C190.036 46.2316 190.235 46.2762 190.436 46.2769L198.02 46.2306C198.253 46.2296 198.483 46.2884 198.687 46.4012C198.891 46.514 199.062 46.6771 199.183 46.8745C199.305 47.0719 199.372 47.297 199.38 47.5278C199.387 47.7587 199.334 47.9875 199.225 48.192Z" fill="url(#paint2_linear)"/>
<path d="M245.399 18.7678C249.794 22.9784 251.955 29.1214 250.285 37.2667C247.346 52.6753 235.483 59.1139 223.319 59.1882C210.173 59.2685 199.516 51.1686 202.83 34.1786C203.225 32.4549 203.802 30.7767 204.549 29.1712C204.656 28.9401 204.828 28.7441 205.044 28.6064C205.26 28.4687 205.511 28.395 205.768 28.3942L218.398 28.317C218.637 28.3121 218.874 28.37 219.083 28.4849C219.293 28.5997 219.467 28.7674 219.59 28.9708C219.713 29.1742 219.778 29.4061 219.781 29.6428C219.783 29.8796 219.722 30.1127 219.603 30.3184C218.593 32.198 217.898 34.2275 217.547 36.3274C216.574 42.6195 219.359 46.61 224.688 46.5775C230.563 46.5416 234.28 42.5913 235.351 35.7489C235.886 32.3677 235.462 29.1522 233.55 27.365C231.942 25.6858 229.078 25.2636 224.628 25.2908L203.94 25.4172C203.701 25.4242 203.464 25.368 203.254 25.2544C203.044 25.1409 202.869 24.974 202.746 24.7711C202.623 24.5681 202.557 24.3364 202.555 24.1C202.553 23.8635 202.615 23.6307 202.734 23.4257L207.804 13.9805C207.918 13.7659 208.088 13.5858 208.298 13.4596C208.507 13.3334 208.747 13.2656 208.992 13.2637L226.182 13.1586C235.273 13.1731 241.25 14.9455 245.399 18.7678Z" fill="url(#paint3_linear)"/>
<path d="M255.509 46.5689C255.627 46.3587 255.799 46.1833 256.008 46.0608C256.217 45.9383 256.455 45.8732 256.698 45.8721L273.535 45.7692C288.803 45.676 290.975 33.67 278.323 26.7515C278.012 26.5848 277.648 26.5438 277.307 26.6373C276.966 26.7307 276.675 26.9512 276.496 27.2524L272.422 34.1631C272.302 34.3615 272.132 34.5261 271.929 34.6411C271.727 34.7561 271.497 34.8176 271.263 34.8198L258.674 34.8967C258.437 34.8983 258.204 34.8382 257.999 34.7224C257.793 34.6066 257.622 34.4392 257.503 34.2372C257.384 34.0352 257.321 33.8056 257.32 33.5717C257.319 33.3378 257.381 33.1078 257.499 32.9051L272.351 7.63964C272.472 7.44361 272.643 7.28191 272.846 7.17033C273.049 7.05875 273.278 7.00108 273.51 7.00294L286.524 6.92345C286.759 6.92652 286.988 6.98976 287.191 7.10699C287.393 7.22421 287.561 7.39139 287.679 7.59215C287.796 7.79292 287.859 8.0204 287.861 8.25231C287.863 8.48421 287.803 8.7126 287.689 8.91511L285.225 12.8678C285.133 13.021 285.073 13.1908 285.047 13.3673C285.022 13.5438 285.032 13.7235 285.077 13.8961C285.122 14.0686 285.202 14.2306 285.311 14.3727C285.42 14.5147 285.556 14.634 285.712 14.7237C300.294 23.0195 304.881 35.6938 298.488 43.4981C298.328 43.6986 298.23 43.9396 298.203 44.1932C298.177 44.4467 298.224 44.7025 298.338 44.9308C298.453 45.1592 298.631 45.3507 298.851 45.4833C299.071 45.6159 299.325 45.6841 299.583 45.6801L304.973 45.6471C305.209 45.6463 305.442 45.7063 305.649 45.8214C305.855 45.9365 306.027 46.1026 306.149 46.3036C306.271 46.5045 306.337 46.7332 306.342 46.9673C306.347 47.2013 306.291 47.4327 306.178 47.6386L301.048 57.0042C300.934 57.2162 300.764 57.3938 300.557 57.5183C300.349 57.6427 300.112 57.7093 299.869 57.711L251.575 58.006C251.338 58.0081 251.104 57.9487 250.897 57.8336C250.691 57.7185 250.518 57.5519 250.397 57.3503C250.276 57.1486 250.211 56.9192 250.208 56.6848C250.205 56.4504 250.264 56.2193 250.38 56.0145L255.509 46.5689Z" fill="url(#paint4_linear)"/>
<path d="M307.641 50.4279C308.562 45.5552 312.766 43.4808 317.215 43.4536C322.059 43.424 325.654 46.0005 324.655 51.3433C323.725 56.2161 319.45 58.2809 315.081 58.3076C310.157 58.3377 306.723 55.7703 307.641 50.4279ZM318.795 0.729916L333.689 0.638928C333.901 0.637946 334.11 0.685912 334.299 0.778986C334.488 0.87206 334.653 1.00766 334.78 1.17493C334.907 1.34219 334.992 1.53649 335.029 1.74225C335.067 1.94802 335.055 2.15955 334.994 2.35991L324.299 37.7538C324.226 38.0379 324.06 38.2903 323.827 38.4723C323.595 38.6542 323.308 38.7557 323.011 38.761L314.922 38.8105C314.73 38.8116 314.541 38.7725 314.365 38.6959C314.19 38.6193 314.034 38.5068 313.906 38.3659C313.778 38.2251 313.681 38.059 313.623 37.8786C313.565 37.6983 313.546 37.5077 313.568 37.3196L317.488 1.97715C317.511 1.64622 317.657 1.33546 317.898 1.10504C318.14 0.874622 318.459 0.74095 318.795 0.729916V0.729916Z" fill="url(#paint5_linear)"/>
</g>
<defs>
<linearGradient id="paint0_linear" x1="32.0362" y1="2.48166" x2="32.3835" y2="59.335" gradientUnits="userSpaceOnUse">
<stop stop-color="#161616"/>
<stop offset="1" stop-color="#353535"/>
</linearGradient>
<linearGradient id="paint1_linear" x1="83.5906" y1="13.1673" x2="83.8751" y2="59.7331" gradientUnits="userSpaceOnUse">
<stop stop-color="#161616"/>
<stop offset="1" stop-color="#353535"/>
</linearGradient>
<linearGradient id="paint2_linear" x1="156.405" y1="12.7118" x2="156.685" y2="58.5757" gradientUnits="userSpaceOnUse">
<stop stop-color="#161616"/>
<stop offset="1" stop-color="#353535"/>
</linearGradient>
<linearGradient id="paint3_linear" x1="226.394" y1="13.1574" x2="226.676" y2="59.1677" gradientUnits="userSpaceOnUse">
<stop stop-color="#161616"/>
<stop offset="1" stop-color="#353535"/>
</linearGradient>
<linearGradient id="paint4_linear" x1="278.001" y1="6.97537" x2="278.312" y2="57.8427" gradientUnits="userSpaceOnUse">
<stop stop-color="#161616"/>
<stop offset="1" stop-color="#353535"/>
</linearGradient>
<linearGradient id="paint5_linear" x1="321.111" y1="0.715768" x2="321.462" y2="58.2687" gradientUnits="userSpaceOnUse">
<stop stop-color="#161616"/>
<stop offset="1" stop-color="#353535"/>
</linearGradient>
<clipPath id="clip0">
<rect width="335" height="57.8738" fill="white" transform="translate(0 2.67737) rotate(-0.35)"/>
</clipPath>
</defs>
</svg>
