<?xml version="1.0" encoding="utf-8"?>
<!-- Generator: Adobe Illustrator 23.1.0, SVG Export Plug-In . SVG Version: 6.00 Build 0)  -->
<svg version="1.1" id="katman_1" xmlns="http://www.w3.org/2000/svg" xmlns:xlink="http://www.w3.org/1999/xlink" x="0px" y="0px"
	 viewBox="0 0 375 664" style="enable-background:new 0 0 375 664;" xml:space="preserve">
<style type="text/css">
	.st0{clip-path:url(#SVGID_2_);fill:none;stroke:#FF7751;}
	.st1{clip-path:url(#SVGID_2_);fill:#022B42;}
	.st2{clip-path:url(#SVGID_2_);fill:#E62A3D;}
	.st3{clip-path:url(#SVGID_2_);fill:#3A829C;}
	.st4{clip-path:url(#SVGID_2_);fill:#F0F0F0;}
	.st5{clip-path:url(#SVGID_2_);fill:#FFAF51;}
</style>
<g>
	<defs>
		<rect id="SVGID_1_" x="-0.1" width="375.1" height="664"/>
	</defs>
	<clipPath id="SVGID_2_">
		<use xlink:href="#SVGID_1_"  style="overflow:visible;"/>
	</clipPath>
	<path class="st0" d="M-112.8,497.7L8.3,618.9l165.5,44.3l165.5-44.3l121.1-121.1l44.3-165.5l-44.3-165.5L339.3,45.7L173.8,1.3
		L8.3,45.7l-121.1,121.1"/>
	<path class="st1" d="M0.4,104.3c0.4,0,0.8,0,1.1,0c4.1,6.2-1.1,7.1,0.8,12.3c1.4,3.7,9,3.6,4,10.9c-3.6,5.4,0.9,10.1,5.5,6.5
		c4.7-3.6,10.7-0.8,9.6,2.8c-0.1,0.3-0.2,0.5-0.4,0.8c-2.4,4.9-6.5,8.7-11.4,10.9c-14.2-13.7-16.1-6.8-14.2,1.4
		c-2.9-0.6-5.6-1.8-8-3.4c-3.3-2.7-3-8.1,3.9-10.5c6.9-2.3,4.2-10-1.4-9.8c-5.6,0.2-6.8-3.6-6.1-5c1.4-2.9-3.5-6.4-5.4-1.3
		C-18.4,110.6-9.6,104.3,0.4,104.3z M-5.2,118.8c2.3-3.4,2-5.7-0.5-7c-2.5-1.3-4.6,0.2-4.3,2.9C-9.6,117.4-7.9,122.9-5.2,118.8z"/>
	<path class="st2" d="M9.7,148.6c-4.4,2-9.4,2.5-14.2,1.4C-6.4,141.8-4.5,134.9,9.7,148.6z"/>
	<path class="st2" d="M9.9,106.3c11.7,5.3,16.9,19,11.6,30.6c1.2-3.6-4.9-6.4-9.6-2.8c-4.7,3.6-9.2-1.2-5.5-6.5
		c5-7.4-2.6-7.2-4-10.9c-1.9-5.2,3.3-6.1-0.8-12.3C4.4,104.4,7.2,105.1,9.9,106.3z"/>
	<path class="st3" d="M108.2,512.5l26.1-7.9l76.3-23.3v6.8l34.8-10.6l6.1-1.8v-6.8l25.1-7.6l48-14.6L401,312.9l-0.1-0.3l-150.2,45.7
		l-2,0.6l-67.2,20.5l-0.1,0.4l-8.7,15.7l-2.3,4.2l-3.1,5.5L156,425.8L108.2,512.5z M227.5,480.6c-0.2-0.3-0.2-0.8,0.2-1
		c0.5-0.3,1-0.6,1.5-0.8c0.5-0.2,1-0.4,1.6-0.6c0.5-0.2,1.1-0.3,1.6-0.4c0.6-0.1,1.2-0.2,1.7-0.1c0.2,0,0.4,0.1,0.5,0.3
		c0.2,0.3,0.2,0.8-0.2,1c-0.5,0.3-1,0.6-1.5,0.9c-1,0.5-2.1,0.8-3.2,1c-0.6,0.1-1.2,0.2-1.7,0.1
		C227.8,480.9,227.6,480.8,227.5,480.6z M211.6,480.8c-0.1-0.5,0.1-0.9,0.6-1.1l37.7-11.5c0.5-0.1,0.9,0.1,1,0.5
		c0.2,0.5-0.1,0.9-0.5,1.2h-0.1c-1.6,0.6-3.1,1.1-4.6,1.7l-4.7,1.6c-3.1,1-6.2,2-9.4,3c-3.2,0.9-6.3,1.8-9.5,2.8l-4.7,1.3
		c-1.6,0.4-3.2,0.8-4.8,1.2h-0.1C212.2,481.4,211.8,481.2,211.6,480.8z M125.2,500.3l36.3-65.7l18-32.5l1.4-2.6l1.8-3.4l4.9-8.8
		l0.1-0.3l23-7l20.3-6.2l15.5-4.7l87.9-26.8l48.3-14.7l0.1,0.3l-65,113.8l-41.9,12.8L125.2,500.3z"/>
	<path class="st1" d="M125.2,500.3l150.6-45.9l41.9-12.8l65.1-113.8l-0.1-0.3l-48.3,14.7l-88,26.8l-15.5,4.7l-20.3,6.2l-23,7
		l-0.1,0.3l-4.9,8.8l-1.8,3.4l-1.4,2.6l-17.9,32.6L125.2,500.3z M234.3,459l52.8-93.2l78.2-23.8l-54,93.5L234.3,459z M142.5,487.3
		l52.8-93.2l78.2-23.8l-54,93.5L142.5,487.3z"/>
	<path class="st1" d="M152.2,479.5l64.2-19.5l47.2-81.8l-65.2,19.8L152.2,479.5z M212.2,427l6.4,12.7l-6.2,3.1l-5.3-10.5l-17.3,17.9
		l-4.2-4l18.7-19.3l-6.4-12.7l6.2-3.1l5.3,10.5l17.3-17.9l4.2,4L212.2,427z"/>
	<path class="st1" d="M244.1,451.1l64.2-19.5l47.2-81.8l-65.2,19.9L244.1,451.1z"/>
	<path class="st1" d="M400.9,312.6l0.1-0.1l-5.7-2.7l-136.6,40.7l-81.6,24.4l4.4,4.4l67.3-20.5l2-0.6L400.9,312.6z"/>
	<path class="st4" d="M142.6,437.5L142.6,437.5l-2.1,3.8c-2.6,5.1-5.3,10.3-7.9,15.4c-2.9,5.5-5.9,11-8.9,16.5l-4.5,8.2l-4.6,8.2
		c-3,5.4-6.1,10.7-9.3,15.9c0.3,0.9,0.7,1.8,1,2.8l1.9,4.2l47.8-86.7l11.3-20.6l3.1-5.5l2.3-4.2l8.7-15.7l0.1-0.3l-4.3-4.4l-11,20
		l-9.1,16.4l-6.8,12.3l-2.1,3.8L142.6,437.5z"/>
	<path class="st3" d="M234.3,459l77-23.5l54-93.5l-78.2,23.8L234.3,459z M244.1,451.1l46.2-81.5l65.2-19.8l-47.2,81.9L244.1,451.1z"
		/>
	<path class="st2" d="M142.5,487.3l77-23.4l54-93.5l-78.2,23.8L142.5,487.3z M152.2,479.5l46.2-81.5l65.2-19.8l-47.2,81.8
		L152.2,479.5z"/>
	<path class="st2" d="M212.2,427.1l18.7-19.3l-4.2-4l-17.3,17.9l-5.3-10.5l-6.2,3.1l6.4,12.7l-18.7,19.3l4.2,4l17.3-17.9l5.3,10.5
		l6.2-3.1L212.2,427.1z"/>
	<path class="st3" d="M315.4,383.2l-20,26.5l-6.9-10.1l-5.7,3.9l12.7,18.7l25.7-35.1L315.4,383.2z"/>
	<path class="st3" d="M132.6,456.6c2.7-5.1,5.3-10.2,7.9-15.4l0.6-1.3c0.1-0.2,0-0.4-0.2-0.5c-0.2-0.1-0.3,0-0.5,0.1
		c-3.2,5.4-6.4,10.7-9.5,16.2c-3.1,5.4-6.2,10.9-9.2,16.4l-4.6,8.2l-4.5,8.3c-2.9,5.5-5.8,11-8.7,16.6v0.1c-0.1,0.2-0.1,0.3,0,0.5
		c0.8,1.5,1.6,2.9,2.4,4.4c0.1,0.1,0.2,0.2,0.4,0.1c0.1-0.1,0.2-0.2,0.1-0.3c-0.2-0.5-0.4-1-0.6-1.6c-0.3-0.9-0.7-1.8-1-2.8
		c3.2-5.3,6.2-10.6,9.3-16l4.6-8.2l4.5-8.2C126.7,467.7,129.6,462.2,132.6,456.6z"/>
	<path class="st1" d="M212.2,479.6c-0.5,0.2-0.7,0.6-0.6,1.1c0.1,0.4,0.6,0.7,1,0.6h0.1c1.6-0.3,3.2-0.8,4.8-1.2l4.7-1.3
		c3.2-0.9,6.3-1.8,9.5-2.8c3.1-1,6.2-2,9.4-3l4.7-1.6c1.6-0.5,3.1-1.1,4.6-1.7h0.1c0.5-0.2,0.7-0.7,0.5-1.2c-0.2-0.4-0.6-0.6-1-0.5
		L212.2,479.6z"/>
	<path class="st1" d="M227.6,479.6c-0.3,0.2-0.4,0.7-0.2,1c0.1,0.2,0.3,0.3,0.6,0.3c0.6,0,1.2-0.1,1.7-0.1c1.1-0.2,2.1-0.5,3.2-1
		c0.5-0.2,1-0.5,1.5-0.9c0.3-0.2,0.4-0.7,0.2-1c-0.1-0.2-0.3-0.3-0.5-0.3c-0.6,0-1.2,0-1.7,0.1c-0.6,0.1-1.1,0.2-1.6,0.4
		c-0.5,0.2-1,0.3-1.6,0.6C228.6,479,228.1,479.2,227.6,479.6z"/>
	<path class="st3" d="M55.3,231.9c-0.2,0.2-0.3,0.4-0.3,0.6c-0.1,0.6,0.3,1.1,0.9,1.2l10.2,1.5c0.5,0.1,0.9,0.6,0.9,1.1l-1,11.8
		c0,0.2,0.1,0.5,0.2,0.7c0.3,0.5,1,0.6,1.4,0.2l8.4-6.1c0.5-0.3,1.1-0.2,1.4,0.2l1,1.4c0.2,0.2,0.4,0.3,0.6,0.4
		c0.6,0.1,1.1-0.3,1.2-0.9l0.8-4.4c-0.3,0.1-0.7,0.1-1.1,0.1c-1.4,0-2.8-0.3-4.2-0.9c-5.4-2.3-7.9-8.6-5.6-14
		c2.3-5.4,8.6-7.9,14-5.6c5.4,2.3,7.9,8.6,5.6,14l2.4,1.3l1.8-0.4c0.5-0.1,0.8-0.5,0.8-0.9l0.3-2.5c0.1-0.5,0.5-0.9,1-0.9l8-0.5
		c0.3,0,0.6-0.2,0.8-0.4c0.3-0.5,0.3-1.1-0.2-1.4l-8-6.4c-0.3-0.3-0.5-0.8-0.3-1.2L101,207c0.1-0.2,0.1-0.5,0-0.8
		c-0.2-0.5-0.8-0.8-1.3-0.6l-12,4.9c-0.5,0.2-1.1,0-1.3-0.5l-2.6-5.7c-0.1-0.2-0.2-0.3-0.4-0.5c-0.5-0.3-1.2-0.1-1.4,0.3l-2.4,3.9
		c-0.1,0.1-0.1,0.1-0.1,0.2c-0.4,0.4-1,0.5-1.5,0.1l-12.5-11.6c-0.2-0.2-0.6-0.3-0.9-0.3c-0.6,0.1-0.9,0.6-0.8,1.2l2.6,15.2
		c0.1,0.5-0.2,1-0.8,1.2l-8.8,2.2c-0.2,0.1-0.5,0.2-0.6,0.5c-0.3,0.5-0.2,1.1,0.3,1.4l7,4.7c0.1,0.1,0.1,0.1,0.2,0.2
		c0.4,0.4,0.3,1.1-0.1,1.4L55.3,231.9z"/>
	<path class="st5" d="M69.4,229c0,5.9,4.8,10.6,10.6,10.6c0.4,0,0.8,0,1.1-0.1l0.6-0.1l-2.5-6.8c-0.3-0.9-0.2-2,0.3-2.8
		c0.9-1.4,2.8-1.8,4.2-0.8l6,4c0.6-1.3,0.9-2.7,0.9-4.2c0-5.9-4.8-10.6-10.6-10.6C74.2,218.4,69.4,223.1,69.4,229z"/>
	<path class="st1" d="M88.6,248.9c-1.2,1.2-2.3,2.5-3.2,3.8l3.8,13.8c3.3-3.9,7-7.5,11-10.7c4.4-3.5,9.3-6.5,14.4-8.9l-12.7-7
		c-0.2,0.1-0.4,0.1-0.6,0.2c-1.6,0.6-3.1,1.4-4.6,2.4c-1.5,0.9-2.9,1.9-4.3,3C91.1,246.5,89.8,247.7,88.6,248.9z"/>
	<path class="st1" d="M108.1,291c-3.4,3.5-6.5,7.2-9.3,11.2l7.8,28.6c6.1-9.9,16.1-21,28.9-31c12.8-10,25.9-17.2,37-20.6l-25.9-14.4
		c-4.4,1.7-8.7,3.8-12.8,6.2c-4.7,2.8-9.2,5.8-13.5,9.2C116,283.4,111.9,287.1,108.1,291z"/>
	<path class="st1" d="M95.7,267.6c-1.7,1.7-3.3,3.6-4.7,5.5l5.7,20.9c5.5-7.4,12.2-13.8,19.4-19.4c4.6-3.5,9.4-6.8,14.4-9.6
		c2.9-1.6,5.8-3.1,8.8-4.4l-18.8-10.4c-2.8,1.1-5.4,2.4-8,4c-3.1,1.8-6.1,3.9-8.9,6.1C100.9,262.6,98.2,265,95.7,267.6z"/>
	<path class="st1" d="M81.8,239.5l2.1,7.9c1.7-2.1,3.6-3.9,5.7-5.6c2.3-1.8,4.9-3.4,7.5-4.6l-4.8-2.7l-2.4-1.3l-6-4
		c-0.8-0.5-1.8-0.7-2.8-0.3c-1.6,0.6-2.4,2.3-1.8,3.9L81.8,239.5z"/>
	<path class="st3" d="M106.6,330.7c-6.4,10.5-8.2,19.7-4,25l21.8,35.5c-5.8-12.2,9.9-37.6,36.9-58.7c26.9-21.1,55.4-30.3,65.8-21.8
		l-10-10.1c-0.2,0.2-0.5,0.3-0.8,0.2c-1-0.4-2-0.9-2.9-1.4c-0.9-0.5-1.7-1.1-2.5-1.7c-1.6-1.3-3.1-2.6-4.4-4.1
		c-1.4-1.4-2.7-3-3.9-4.6c-1.3-1.6-2.4-3.4-3.3-5.3c-0.2-0.3-0.1-0.7,0.2-0.9l-1.6-1.7c-4.2-5.3-13.5-5.7-25.2-2
		c-11.1,3.5-24.3,10.6-37,20.6S112.6,320.8,106.6,330.7z M192.7,299.5c-1.6-1.3-3.1-2.8-4.4-4.3c-1.4-1.5-2.8-3.1-4-4.7
		c-0.6-0.9-1.2-1.7-1.7-2.7c-0.2-0.5-0.5-1-0.7-1.4c-0.2-0.5-0.5-1-0.7-1.4c-0.1-0.2-0.1-0.5,0.1-0.8v-0.1c0.2-0.4,0.8-0.5,1.2-0.3
		c0.5,0.2,0.9,0.6,1.4,0.8c0.5,0.3,0.9,0.6,1.4,0.9c0.9,0.6,1.7,1.2,2.5,1.8c1.6,1.3,3.1,2.8,4.4,4.3c1.4,1.5,2.8,3.1,4,4.7
		c0.6,0.9,1.2,1.8,1.7,2.7c0.2,0.5,0.5,1,0.7,1.4c0.2,0.5,0.5,1,0.7,1.4c0.1,0.2,0.1,0.5-0.1,0.8c-0.2,0.4-0.8,0.5-1.1,0.3
		c-0.5-0.2-0.9-0.6-1.4-0.8c-0.5-0.2-0.9-0.5-1.4-0.8C194.3,300.8,193.5,300.2,192.7,299.5z M178.4,304.8c-1.6-1.4-3.1-2.9-4.4-4.6
		c-1.4-1.6-2.7-3.2-3.9-5c-0.6-0.9-1.1-1.8-1.6-2.8c-0.5-1-0.9-2-1.3-3.1c-0.1-0.2-0.1-0.3,0.1-0.5c0.2-0.3,0.6-0.5,0.9-0.3
		c1,0.5,2,1,2.8,1.7c0.9,0.6,1.7,1.3,2.5,2c1.6,1.4,3,2.9,4.3,4.6c1.3,1.6,2.6,3.4,3.8,5.1c1.2,1.8,2.3,3.7,3.1,5.7
		c0.1,0.2,0.1,0.5-0.1,0.8c-0.2,0.4-0.8,0.5-1.2,0.2C181.7,307.6,180,306.2,178.4,304.8z M165.4,311.8c-1.6-1.5-2.9-3.1-4.3-4.9
		c-1.3-1.7-2.5-3.5-3.6-5.3c-1.2-1.8-2.1-3.8-3-5.8c-0.1-0.2-0.1-0.5,0.1-0.8c0.2-0.4,0.8-0.5,1.2-0.2c1.8,1.2,3.5,2.6,5.1,4.2
		c1.6,1.5,3,3.1,4.4,4.7c1.4,1.6,2.7,3.4,3.8,5.2c0.6,0.9,1.1,1.9,1.6,2.9c0.5,1,0.9,2.1,1.2,3.2c0.1,0.2,0,0.3-0.1,0.5
		c-0.2,0.3-0.6,0.5-0.9,0.3c-1-0.5-2-1.2-2.8-1.8C167.1,313.2,166.2,312.5,165.4,311.8z M153.7,319.8c-1.5-1.6-2.9-3.2-4.3-4.9
		c-1.4-1.7-2.6-3.5-3.7-5.3c-0.5-1-1-2-1.5-2.9c-0.5-1-0.9-2.1-1.1-3.2c-0.1-0.2,0-0.3,0.1-0.5c0.2-0.3,0.6-0.5,0.9-0.3
		c1,0.6,1.9,1.2,2.8,2c0.9,0.7,1.7,1.4,2.4,2.3c1.5,1.6,2.9,3.2,4.2,5c1.3,1.7,2.5,3.6,3.6,5.4c1.2,1.9,2.1,3.9,2.8,6
		c0.1,0.2,0.1,0.5-0.1,0.8c-0.3,0.3-0.8,0.5-1.2,0.2C156.8,322.8,155.2,321.4,153.7,319.8z M142.4,329c-1.5-1.6-2.8-3.4-4-5.1
		c-1.2-1.8-2.4-3.6-3.4-5.6c-1.1-2-2-4-2.7-6.1c-0.1-0.2-0.1-0.5,0.1-0.8c0.3-0.3,0.8-0.5,1.2-0.2c1.7,1.4,3.4,2.9,4.9,4.6
		c1.5,1.6,2.9,3.3,4.2,5c1.3,1.7,2.5,3.6,3.6,5.5c0.5,1,1,2,1.4,3c0.5,1,0.8,2.1,1,3.3c0.1,0.2,0,0.3-0.1,0.5
		c-0.2,0.3-0.6,0.5-1,0.2c-1-0.6-1.9-1.3-2.8-2C144,330.6,143.1,329.8,142.4,329z M137,344c-1.7-1.4-3.3-3-4.7-4.7
		c-1.4-1.7-2.8-3.4-4.1-5.2c-1.3-1.8-2.4-3.6-3.5-5.6c-0.5-1-0.9-2-1.3-3.1c-0.4-1.1-0.8-2.2-1-3.4c-0.1-0.2,0-0.3,0.1-0.5
		c0.2-0.3,0.6-0.4,1-0.2c1,0.6,1.8,1.3,2.7,2.1c0.8,0.8,1.6,1.6,2.3,2.4c1.4,1.7,2.8,3.4,3.9,5.3c1.2,1.8,2.3,3.8,3.3,5.7
		c1,2,1.9,4,2.6,6.2c0.1,0.2,0,0.5-0.2,0.8C137.8,344.3,137.3,344.3,137,344z M109.4,350.2c0.8,0.9,1.6,1.7,2.3,2.7
		c1.4,1.8,2.7,3.7,3.8,5.7c1.2,2,2.2,4,3.2,6.1c1,2.1,1.8,4.3,2.4,6.5c0.1,0.3,0,0.6-0.2,0.8c-0.3,0.3-0.8,0.3-1.2,0.1
		c-1.7-1.6-3.3-3.3-4.7-5.1c-1.4-1.8-2.7-3.6-3.9-5.6c-1.3-1.9-2.4-3.9-3.3-6c-0.5-1-0.9-2.1-1.3-3.2c-0.4-1.2-0.7-2.3-0.9-3.5
		c-0.1-0.2,0-0.3,0.1-0.5c0.2-0.3,0.6-0.4,1-0.2C107.7,348.5,108.6,349.3,109.4,350.2z M119.2,337.9c1.4,1.7,2.7,3.5,4,5.3
		c1.3,1.8,2.4,3.8,3.4,5.8c0.5,1,0.9,2.1,1.3,3.1c0.4,1.1,0.7,2.2,0.9,3.4c0,0.2,0,0.3-0.1,0.5c-0.2,0.3-0.6,0.4-1,0.2
		c-1-0.6-1.8-1.4-2.7-2.3c-0.8-0.8-1.6-1.6-2.3-2.5c-1.4-1.7-2.7-3.5-3.8-5.4c-1.2-1.9-2.3-3.8-3.2-5.8c-1-2-1.8-4.2-2.4-6.3
		c-0.1-0.3,0-0.5,0.2-0.8c0.3-0.3,0.8-0.4,1.2-0.1C116.2,334.5,117.7,336.2,119.2,337.9z"/>
	<path class="st1" d="M111.1,567.5c-1.3-3.4-1.2-7.2,0.5-10.5c-5.1,10-2.5,19,1,22.8c5.7,8.5,20.3,12.1,25.9,13.5
		c14.8,3.6,34.4,5.7,55.1,5.7h0.1c20.7,0,40.3-2,55.1-5.7c5.5-1.4,20.2-5,25.9-13.5c3.5-3.9,6.1-12.8,1-22.8
		c1.6,3.3,1.8,7.1,0.5,10.5c-4,10.5-21.2,14.7-27.3,16.2c-1.4,0.3-2.9,0.7-4.4,1c-3.9,0.8-8,1.6-12.3,2.1l-0.7,0.1
		c-12.5,1.6-25.1,2.4-37.7,2.4c-20.7,0-40.3-2-55.1-5.7C132.3,582.2,115.1,578,111.1,567.5z"/>
	<path class="st3" d="M119.7,558.3l3.1-11.2c-4.6,2.3-8.8,5.4-11,9.5l-0.1,0.3c-1.6,3.3-1.8,7.1-0.5,10.5
		c4,10.5,21.2,14.7,27.3,16.2c14.8,3.6,34.4,5.7,55.1,5.7c12.6,0.1,25.2-0.8,37.7-2.4l0.7-0.1c4.3-0.6,8.4-1.3,12.3-2.1
		c1.5-0.3,3-0.6,4.4-1c6.1-1.5,23.3-5.7,27.3-16.2c1.3-3.4,1.2-7.2-0.5-10.5l-0.2-0.3c-2.1-4.2-6.4-7.2-11-9.5l3.1,11.2l1.2,4.4
		c0,5.9-11.4,11.2-29,14.6c-2.6,0.5-5.4,0.9-8.2,1.4c-1.6,0.2-3.2,0.5-4.9,0.6c-11,1.3-22,1.9-33,1.9c-41.5,0-75.1-8.3-75.1-18.4
		L119.7,558.3z"/>
	<path class="st1" d="M134.2,504.6l-11.6,42.5l-3.1,11.2l-1.2,4.4c0,10.2,33.6,18.4,75.1,18.4c11,0,22.1-0.6,33-1.9
		c1.6-0.2,3.2-0.4,4.8-0.6c2.9-0.4,5.6-0.9,8.2-1.4c17.7-3.4,29-8.7,29-14.6l-1.2-4.4l-3.1-11.2l-6.8-24.8l-1.8,0.6l-60.1,18.4
		l-3.1-5.1l-18.1-29.4l3.9-8.7l19.1,39.7L310.9,503l-7.2-9.1l-1.3-1.7l-5.5-7.1l-1.6-2l-5.5-7l-1.5-2l-6.2-7.9l-36.8,11.2
		l-34.7,10.7v-6.8L134.2,504.6z M293.4,486.3l-11.4,3.5l5.1,7.2l11.9-3.6l1.6,2l-12,3.6l4.2,6.1l-2.3,0.7l-4.2-6.1l-13.4,4.1l4,6.1
		l-2.3,0.7l-4-6.1l-13.4,4.1l3.8,6.2l-2.3,0.7l-3.8-6.2l-13.5,4.1l3.6,6.2l-2.3,0.7l-3.6-6.2l-13.5,4.1l3.5,6.3l-2.3,0.7l-3.5-6.3
		l-13.5,4.1l3.3,6.4l-2.3,0.7l-3.3-6.4l-11.3,3.5l-1-2.1l11.3-3.4l-3.9-7.6l-11,3.4l-1-2.1l11-3.4l-3.9-7.5l-10.7,3.3l-1-2.1
		l10.7-3.2l-2.8-5.3l2.3-0.7l2.8,5.3l12.9-3.9l-2.9-5.3l2.3-0.7l2.9,5.3l12.8-3.9l-3.1-5.3l2.3-0.7l3.1,5.2l12.8-3.9l-3.2-5.2
		l2.3-0.7l3.2,5.2l12.8-3.9l-3.4-5.1l2.3-0.7l3.4,5.1l12.7-3.9l-3.5-5.1l2.3-0.7l3.6,5.1l10.6-3.2l1.5,2l-10.7,3.3l5,7.2l11.3-3.4
		L293.4,486.3z M177.2,535.3c-0.2,4.5-0.5,9-0.8,13.5c-0.2,2.3-0.3,4.5-0.5,6.7c-0.2,2.3-0.3,4.5-0.6,6.7c-0.4,4.5-0.9,9-1.5,13.4
		c0,0.2-0.2,0.3-0.3,0.3c-0.2,0-0.3-0.2-0.3-0.3c0-4.5,0.1-9,0.3-13.5c0.1-2.3,0.2-4.5,0.3-6.8c0.1-2.3,0.2-4.5,0.4-6.8
		c0.2-4.5,0.6-9,1-13.5c0.5-4.5,0.9-9,1.6-13.4c0-0.1,0.1-0.2,0.3-0.2c0.2,0,0.3,0.1,0.3,0.3C177.5,526.3,177.4,530.8,177.2,535.3z
		 M249.2,549.7c-0.8-3.1-1.4-6.2-2-9.4s-1.2-6.3-1.4-9.5c0-0.1,0.1-0.2,0.2-0.3c0.2-0.1,0.3,0,0.3,0.2c1.2,3,2,6.1,2.9,9.2
		c0.8,3.1,1.6,6.2,2.3,9.4c0.3,1.6,0.7,3.1,1,4.7s0.6,3.1,0.9,4.7c0.6,3.1,1.2,6.3,1.6,9.5c0,0.2-0.1,0.3-0.2,0.3
		c-0.2,0.1-0.4,0-0.5-0.2c-1-3.1-1.9-6.1-2.7-9.2c-0.4-1.5-0.8-3.1-1.2-4.6C249.9,552.8,249.6,551.3,249.2,549.7z M229.4,554.5
		c-0.3-2.2-0.6-4.4-0.7-6.6c-0.2-2.3-0.2-4.4-0.1-6.7c0-0.1,0.1-0.2,0.2-0.3c0.2-0.1,0.3,0.1,0.3,0.2c0.6,2.1,1.2,4.3,1.6,6.5
		c0.4,2.2,0.7,4.4,1,6.6c0.1,1.1,0.2,2.2,0.3,3.3c0.1,1.1,0.2,2.2,0.3,3.4c0.2,2.2,0.2,4.4,0.2,6.7c0,0.2-0.1,0.3-0.3,0.3
		c-0.2,0.1-0.4-0.1-0.4-0.2c-0.6-2.2-1-4.3-1.4-6.5c-0.2-1.1-0.4-2.2-0.6-3.3C229.6,556.7,229.5,555.6,229.4,554.5z M211.9,564.7
		c-0.1-1.4-0.2-2.8-0.4-4.2c-0.2-2.8-0.4-5.6-0.5-8.4c-0.1-2.8-0.1-5.6,0.2-8.4c0-0.2,0.1-0.3,0.3-0.3c0.2,0,0.3,0.1,0.3,0.3
		c0.6,2.8,1,5.5,1.3,8.4c0.3,2.8,0.5,5.6,0.7,8.4c0.1,1.4,0.2,2.8,0.2,4.2c0.1,1.4,0.1,2.8,0.2,4.2c0.1,2.8,0.1,5.6,0,8.4
		c0,0.2-0.1,0.3-0.3,0.3c-0.2,0.1-0.3-0.1-0.4-0.3c-0.5-2.8-0.9-5.5-1.2-8.4C212.2,567.5,212,566.1,211.9,564.7z M193.8,577.3
		c0,0.2-0.1,0.3-0.3,0.3c-0.2,0.1-0.4-0.1-0.4-0.3c-0.3-2.5-0.5-5-0.6-7.5c-0.1-1.3-0.1-2.5-0.1-3.8c-0.1-1.3-0.1-2.5-0.1-3.8
		c-0.1-2.5,0-5,0.1-7.5c0.1-2.5,0.3-5,0.8-7.5c0-0.2,0.1-0.3,0.3-0.3c0.2,0,0.3,0.1,0.3,0.3c0.4,2.5,0.6,5,0.8,7.5
		c0.1,2.5,0.2,5,0.1,7.5c0,1.3-0.1,2.5-0.1,3.8c0,1.3-0.1,2.5-0.1,3.8C194.2,572.3,194.1,574.7,193.8,577.3z M146.4,504.7
		c0.2,0,0.3,0.2,0.2,0.3c-0.8,5.4-1.8,10.7-2.9,16c-1.1,5.3-2.3,10.6-3.5,15.8c-0.6,2.7-1.2,5.3-1.8,7.9c-0.6,2.6-1.3,5.3-2,7.9
		c-1.3,5.3-2.7,10.5-4.2,15.7c-0.1,0.2-0.2,0.2-0.3,0.2c-0.2,0-0.3-0.2-0.3-0.4c0.9-5.3,2-10.6,3.1-15.9c0.5-2.7,1.1-5.3,1.7-8
		s1.2-5.3,1.7-7.9c1.2-5.3,2.4-10.5,3.8-15.8c1.3-5.3,2.7-10.5,4.3-15.7C146.1,504.7,146.3,504.6,146.4,504.7z M163.1,499.9
		c-0.3,6.2-0.9,12.3-1.6,18.4c-0.6,6.1-1.4,12.2-2.2,18.4c-0.4,3.1-0.8,6.1-1.2,9.2c-0.4,3.1-0.9,6.1-1.3,9.1
		c-0.9,6.1-1.8,12.2-2.9,18.3c-0.1,0.2-0.2,0.3-0.3,0.3c-0.2,0-0.3-0.2-0.3-0.3c0.5-6.1,1.1-12.2,1.7-18.4c0.3-3.1,0.7-6.1,1-9.2
		c0.3-3.1,0.7-6.1,1.1-9.2c0.8-6.1,1.5-12.2,2.4-18.3c0.9-6.1,1.8-12.2,3-18.3c0-0.1,0.2-0.2,0.3-0.2
		C163,499.6,163.1,499.7,163.1,499.9z"/>
	<path class="st1" d="M124.4,391.2l1.2,2c2.3,2.9,6.1,4.5,10.9,4.7l-1.2-2c-2-3.3-2.1-7.5-0.2-10.9l24.2-42.1
		c2.8-4.8,7.2-8.4,12.5-9.9l47.8-14.5c3.8-1.2,7.9-0.1,10.6,2.7l0.6,0.6c0.3-3.8-0.4-7-2.3-9.5l-1.6-1.7
		c-10.5-8.6-38.9,0.7-65.8,21.8C134.3,353.6,118.6,379,124.4,391.2z"/>
	<path class="st3" d="M125.6,393.2l-1.2-2C124.7,391.9,125.1,392.6,125.6,393.2z"/>
	<path class="st5" d="M250.7,358.3l-2,0.6L250.7,358.3z"/>
	<path class="st5" d="M177,340.6l15.7-4.8L177,340.6z"/>
	<path class="st5" d="M135.3,396l1.2,2l2.4,3.9c0.5-0.4,0.9-0.8,1.4-1.1l7.3-6.5c2.6-2.4,5.6-3.8,8.9-3.8c3.5,0,6.8,1.7,9.5,4.4
		l11-20l81.6-24.3l-1.3-1.3v0.1l-1.6-1.6l-3.6-3.8c0,0-0.3-0.2-1.4,0.1l-15.8,4.4c-1.2,0.3-2.1,1.2-2.4,2.4c1.4,0.4,2.5,1.2,2.5,2.1
		c0,1.4-2.2,2.5-5,2.5c-2.7,0-5-1.1-5-2.5c0-1,1.1-1.8,2.7-2.2c0.4-3.2,2.7-5.8,5.8-6.8l14.6-4.1l-1.4-1.4l-3.6-3.8
		c0,0-0.3-0.2-1.4,0.1l-15.8,4.5c-1.2,0.3-2.1,1.2-2.4,2.4c1.5,0.4,2.5,1.2,2.5,2.1c0,1.4-2.2,2.5-5,2.5c-2.7,0-5-1.1-5-2.5
		c0-1,1.1-1.8,2.7-2.2c0.4-3.2,2.7-5.8,5.8-6.8l14.7-4.2l-4-4.1c-0.5-0.1-0.9,0-1.3,0.1l-15.8,4.5c-1.2,0.3-2.1,1.2-2.4,2.4
		c1.4,0.4,2.5,1.2,2.5,2.1c0,1.4-2.2,2.5-5,2.5c-2.7,0-5-1.1-5-2.5c0-1,1.1-1.8,2.7-2.2c0.4-3.2,2.7-5.8,5.8-6.8l14.6-4.1l-0.7-0.7
		l-0.6-0.6c-2.8-2.8-6.9-3.9-10.6-2.7l-47.8,14.5c-5.3,1.6-9.8,5.2-12.5,9.9L135,385.2C133.2,388.5,133.3,392.7,135.3,396z
		 M198.6,338.9l-17.3,5.4c-0.6,0.2-1.2,0-1.6-0.5l-2.7-3.4l-0.7-0.9c-0.1-0.1-0.2-0.3-0.2-0.5c-0.2-0.8,0.2-1.6,1-1.8l18.2-5.5
		c0.8-0.2,1.7,0,2.3,0.6l3.4,3.6c0.2,0.2,0.3,0.3,0.3,0.6c0.2,0.8-0.2,1.6-1,1.8L198.6,338.9z M195.7,346.5
		c-1.4,0.5-2.9,0.9-4.4,1.3c-1.5,0.3-3.1,0.6-4.6,0.7c-0.1,0-0.2-0.1-0.3-0.1c-0.1-0.1-0.1-0.3,0.1-0.4c1.3-0.8,2.7-1.5,4.2-2.1
		c1.4-0.6,2.9-1.1,4.3-1.5c1.4-0.5,2.9-0.9,4.4-1.2c1.5-0.3,3.1-0.6,4.6-0.8c0.1,0,0.3,0.1,0.3,0.2c0.1,0.2,0.1,0.4-0.1,0.5
		c-1.4,0.8-2.8,1.4-4.2,2C198.6,345.5,197.2,346,195.7,346.5z M174.2,350.8c-0.9-1.1-1.7-2.2-2.5-3.4c-1.6-2.3-3.2-4.6-4.7-6.9
		c-0.1-0.1-0.1-0.3,0.1-0.4c0.1-0.1,0.3-0.1,0.5,0c2,2,3.8,4.1,5.7,6.2c0.9,1,1.8,2.1,2.7,3.2c0.9,1.1,1.8,2.1,2.7,3.2
		c1.7,2.2,3.5,4.4,5.1,6.6c1.6,2.3,3.2,4.6,4.6,7c0.1,0.1,0.1,0.2-0.1,0.3c-0.1,0.1-0.3,0.1-0.4,0c-2-2-3.9-4-5.7-6.1
		c-1.8-2.1-3.6-4.3-5.3-6.5C175.9,353,175.1,351.9,174.2,350.8z M164.8,369.5c0-2.2,1-4,2.3-4c1.3,0,2.3,1.8,2.3,4c0,2.3-1,4-2.3,4
		C165.7,373.6,164.8,371.7,164.8,369.5z M158.1,359.4c0-2.3,1-4,2.3-4c1.3,0,2.3,1.8,2.3,4c0,2.2-1,4-2.3,4
		C159,363.4,158.1,361.7,158.1,359.4z"/>
	<path class="st4" d="M197.3,537.9l0.2-0.3L178.3,498l-3.9,8.7l18.1,29.4l3.1,5.1L197.3,537.9z"/>
	<path class="st3" d="M227,310.8l1.6,1.7C228.1,311.8,227.6,311.3,227,310.8z"/>
	<path class="st3" d="M255.8,522.9l1.8-0.6l5.3-1.6l45.9-14l2.1-3.7l-113.5,34.6l-0.2,0.3l-1.7,3.2L255.8,522.9z"/>
	<path class="st1" d="M211.3,333.5c-1.6,0.4-2.7,1.3-2.7,2.2c0,1.4,2.2,2.5,5,2.5c2.7,0,5-1.1,5-2.5c0-0.9-1-1.7-2.5-2.1
		c-0.1,0.4-0.2,0.8-0.1,1.2c0.1,1.3-0.9,1.7-2.1,1.8h-0.2c-1.2,0-2.2-0.2-2.3-1.4C211.2,334.6,211.3,334,211.3,333.5z"/>
	<path class="st1" d="M219,341.6c-1.6,0.4-2.7,1.3-2.7,2.2c0,1.4,2.2,2.5,5,2.5c2.7,0,5-1.1,5-2.5c0-0.9-1-1.7-2.5-2.1
		c-0.1,0.4-0.2,0.8-0.1,1.2c0.1,1.3-0.9,1.7-2.1,1.8h-0.2c-1.2,0-2.2-0.2-2.3-1.4C218.9,342.6,218.9,342.1,219,341.6z"/>
	<path class="st1" d="M228,350.9c-1.6,0.4-2.7,1.3-2.7,2.2c0,1.4,2.2,2.5,5,2.5c2.7,0,5-1.1,5-2.5c0-0.9-1-1.7-2.5-2.1
		c-0.1,0.4-0.2,0.8-0.1,1.2c0.1,1.3-0.9,1.7-2.1,1.8h-0.2c-1.2,0-2.2-0.2-2.3-1.4C227.8,351.9,227.8,351.4,228,350.9z"/>
	<path class="st2" d="M257.4,349.3L257.4,349.3c0.1-1.5-0.1-2.9-0.2-4.3c-0.2-1.7-0.7-3.6-2.2-4.8c-1.4-1-3.2-1.3-5.4-0.7l-1.1,0.3
		c0-1.3-0.1-2.7-0.2-4c-0.2-1.7-0.7-3.6-2.3-4.8c-1.3-1-3.1-1.3-5.3-0.8c0-0.8-0.1-1.7-0.2-2.6c-0.2-1.7-0.7-3.6-2.2-4.8
		c-1.4-1-3.2-1.3-5.4-0.7l-1.3,0.3l-14.6,4.2c-3.1,0.9-5.4,3.5-5.8,6.8c-0.1,0.5-0.1,1-0.1,1.6c0.1,1.2,1.1,1.4,2.3,1.4h0.2
		c1.3-0.1,2.3-0.5,2.1-1.8c0-0.4,0-0.8,0.1-1.2c0.3-1.2,1.2-2.1,2.4-2.4l15.8-4.5c0.4-0.2,0.9-0.2,1.3-0.1h0.1l3.6,3.8l0.3,0.3h-0.1
		l-14.7,4.2c-3.1,0.9-5.4,3.5-5.8,6.8c-0.1,0.5-0.1,1-0.1,1.6c0.1,1.2,1.1,1.4,2.3,1.4h0.2c1.3-0.1,2.2-0.5,2.1-1.8
		c0-0.4,0-0.8,0.1-1.2c0.3-1.2,1.2-2.1,2.4-2.4l15.8-4.5c1-0.3,1.4-0.1,1.4-0.1l3.6,3.8l1.4,1.4l-14.6,4.1c-3.1,0.9-5.4,3.5-5.8,6.8
		c-0.1,0.5-0.1,1-0.1,1.6c0.1,1.2,1.1,1.4,2.3,1.4h0.2c1.3-0.1,2.3-0.5,2.1-1.8c0-0.4,0-0.8,0.1-1.2c0.3-1.2,1.2-2.1,2.4-2.4
		l15.8-4.5c1-0.3,1.4-0.1,1.4-0.1l3.6,3.8L257.4,349.3z"/>
	<path class="st2" d="M140.4,400.7c-0.5,0.3-1,0.7-1.4,1.1c-3.7,3.4-6.2,9.6-6.2,16.7c0,8.7,3.8,16.1,9,18.5
		c0.3,0.2,0.6,0.3,0.9,0.4l5.5-10.1c-0.7,0.8-1.7,1.3-2.8,1.4c-3.1,0-5.7-4.6-5.7-10.3c0-5.7,2.5-10.3,5.7-10.3
		c3.1,0,5.7,4.6,5.7,10.3c0,1.7-0.2,3.4-0.8,5.1l6.8-12.3c-1.8-7.2-6.4-12.2-11.7-12.2c-0.5,0-1,0.1-1.6,0.2
		C142.5,399.6,141.4,400,140.4,400.7z"/>
	<path class="st5" d="M148.1,427.5l2.1-3.8c0.5-1.6,0.8-3.4,0.8-5.1c0-5.7-2.5-10.3-5.7-10.3c-3.1,0-5.7,4.6-5.7,10.3
		c0,5.7,2.5,10.3,5.7,10.3C146.4,428.7,147.4,428.3,148.1,427.5z"/>
	<path class="st1" d="M142.6,437.5c-0.3-0.1-0.6-0.2-0.9-0.4L142.6,437.5z"/>
	<path class="st1" d="M157,411.3l9.1-16.4c-2.7-2.8-6-4.4-9.5-4.4c-3.2,0-6.3,1.4-8.9,3.8l-7.3,6.5c1-0.7,2.2-1.2,3.4-1.4
		c0.5-0.1,1-0.2,1.6-0.2C150.6,399.2,155.2,404.2,157,411.3z"/>
	<path class="st3" d="M74.1,258.7c0-1.3-1-2.3-2.3-2.3c-1.3,0-2.3,1-2.3,2.3c0,1.3,1,2.3,2.3,2.3C73.1,261,74.1,260,74.1,258.7z"/>
	<path class="st3" d="M91.8,201.5c0-1.3-1-2.3-2.3-2.3c-1.3,0-2.3,1-2.3,2.3c0,1.3,1,2.3,2.3,2.3C90.7,203.9,91.8,202.8,91.8,201.5z
		"/>
	<path class="st3" d="M60.3,250.7c0,0.8,0.6,1.4,1.4,1.4c0.8,0,1.4-0.6,1.4-1.4c0-0.8-0.6-1.4-1.4-1.4
		C60.9,249.2,60.3,249.9,60.3,250.7z"/>
	<path class="st3" d="M52,209.2c0,0.8,0.6,1.4,1.4,1.4c0.8,0,1.4-0.6,1.4-1.4c0-0.8-0.6-1.4-1.4-1.4C52.7,207.7,52,208.4,52,209.2z"
		/>
	<path class="st3" d="M69.5,285c0-0.8-0.6-1.4-1.4-1.4c-0.8,0-1.4,0.6-1.4,1.4s0.6,1.4,1.4,1.4C68.8,286.4,69.5,285.8,69.5,285z"/>
	<path class="st3" d="M111.5,221.5c0-0.8-0.6-1.4-1.4-1.4s-1.4,0.6-1.4,1.4c0,0.8,0.6,1.4,1.4,1.4
		C110.9,222.9,111.5,222.3,111.5,221.5z"/>
	<path class="st1" d="M164.8,369.5c0,2.3,1,4,2.3,4c1.3,0,2.3-1.8,2.3-4c0-2.3-1-4-2.3-4C165.7,365.5,164.8,367.3,164.8,369.5z"/>
	<path class="st1" d="M158.1,359.4c0,2.3,1,4,2.3,4c1.3,0,2.3-1.8,2.3-4s-1-4-2.3-4C159,355.4,158.1,357.1,158.1,359.4z"/>
	<path class="st3" d="M198.6,338.9l-0.9,0.3l-2.5-2.7c-0.6-0.7-1.6-1-2.5-0.7l-15.7,4.8l2.7,3.4c0.4,0.5,1,0.7,1.6,0.5L198.6,338.9z
		"/>
	<path class="st1" d="M197.8,339.2l0.9-0.3l1.6-0.5c0.2-0.1,0.4-0.2,0.6-0.3c0.6-0.6,0.6-1.5,0.1-2.1l-3.4-3.6
		c-0.6-0.6-1.5-0.9-2.3-0.6l-18.2,5.5c-0.2,0.1-0.3,0.1-0.5,0.2c-0.6,0.5-0.8,1.4-0.2,2.1l0.7,0.9l15.7-4.8c0.9-0.3,1.9,0,2.5,0.7
		L197.8,339.2z"/>
	<path class="st1" d="M186.7,348.4c1.6-0.1,3.1-0.3,4.6-0.7c1.5-0.3,3-0.8,4.4-1.3c1.4-0.5,2.9-1,4.3-1.6c1.4-0.6,2.8-1.2,4.2-2
		c0.1-0.1,0.2-0.2,0.2-0.3c0-0.2-0.2-0.3-0.4-0.3c-1.6,0.2-3.1,0.5-4.6,0.8c-1.5,0.3-3,0.8-4.4,1.2c-1.4,0.5-2.9,0.9-4.3,1.5
		c-1.4,0.6-2.8,1.3-4.2,2.1c-0.1,0.1-0.2,0.3-0.1,0.4C186.5,348.4,186.5,348.4,186.7,348.4z"/>
	<path class="st2" d="M83.9,247.3c-0.8,1-1.6,2.1-2.2,3.2c-0.5,0.9-1,1.9-1.3,2.9c-0.4,1.2-0.6,2.3-0.5,3.5c0.1,0.8,0.3,1.4,0.7,2.1
		c0.4,0.6,0.9,1.2,1.6,1.6c1.1,0.6,2.4,0.8,3.6,0.6c0.7-0.1,1.2-0.6,1.3-1.3c0.1-0.8-0.5-1.4-1.3-1.5h-0.1c-0.6,0-1.3-0.2-1.8-0.6
		c-0.3-0.3-0.4-0.6-0.3-1c0.1-0.6,0.2-1.3,0.5-1.9c0.3-0.8,0.8-1.4,1.2-2.1l0.1-0.1c1-1.4,2-2.7,3.2-3.8c1.2-1.3,2.5-2.4,3.9-3.5
		c1.4-1.1,2.8-2.1,4.3-3c1.4-0.9,3-1.7,4.6-2.4c0.2-0.1,0.4-0.1,0.6-0.2c0.6-0.2,1.2-0.4,1.7-0.5c0.7-0.2,1.4-0.2,2.1-0.2
		c0.2,0,0.5,0.1,0.8,0.2c0.2,0.1,0.3,0.2,0.5,0.3c0.3,0.5,0.5,1.1,0.3,1.7v0.1c-0.1,0.6,0.3,1.2,1,1.4c0.7,0.2,1.4-0.2,1.7-0.9
		c0.2-0.6,0.3-1.2,0.3-1.7c0-0.7-0.1-1.4-0.5-2c-0.3-0.7-0.9-1.3-1.4-1.7c-0.6-0.3-1.2-0.6-1.8-0.8c-1.1-0.2-2.3-0.3-3.4-0.1
		c-1,0.1-2.1,0.3-3.1,0.7c-1,0.3-1.9,0.7-2.8,1.1c-2.7,1.2-5.2,2.8-7.5,4.6C87.5,243.4,85.6,245.3,83.9,247.3z"/>
	<path class="st2" d="M89.1,266.6c-1.7,2.1-3.2,4.3-4.6,6.6c-1,1.8-1.9,3.6-2.5,5.6c-0.8,2.1-1,4.4-0.6,6.7c0.2,1.3,0.8,2.5,1.6,3.5
		c0.9,1,1.9,1.7,3.1,2.2c2.1,0.7,4.3,0.9,6.5,0.5c1-0.1,1.7-0.9,1.6-1.8c-0.1-1-0.9-1.7-1.8-1.6h-0.1c-1.6,0.1-3.1-0.2-4.6-0.8
		c-1-0.5-1.8-1.6-1.8-2.7c-0.1-1.5,0.2-2.9,0.8-4.3c0.6-1.6,1.4-3.1,2.4-4.5c0.6-0.9,1.3-1.8,1.9-2.7c1.4-2,3.1-3.8,4.7-5.5
		c2.5-2.6,5.2-5,8-7.2c2.8-2.3,5.8-4.3,8.9-6.1c2.5-1.6,5.2-2.9,8-4c0.6-0.2,1.1-0.5,1.7-0.6c1.6-0.6,3.2-1,5-1.3
		c1.5-0.3,3.1-0.3,4.5,0.1c1.2,0.2,2.1,1.1,2.5,2.3c0.4,1.2,0.3,2.9-0.1,4.6v0.1c-0.2,0.9,0.2,1.7,1,2c0.9,0.3,1.8-0.2,2.1-1
		c0.9-2,1.2-4.3,0.8-6.5c-0.2-1.3-0.9-2.5-1.7-3.5c-0.9-1-2-1.7-3.2-2.1c-1.1-0.4-2.2-0.6-3.4-0.7c-1.1-0.1-2.1-0.1-3.2,0
		c-2,0.2-4,0.6-6,1.2c-2,0.6-4,1.4-6,2.3c-5.1,2.4-10,5.4-14.4,8.9C96.1,259,92.4,262.6,89.1,266.6z"/>
	<path class="st2" d="M96.6,294.1c-1.4,2-2.8,3.9-4.1,6c-1.6,2.5-2.9,5.3-4,8.1c-1,2.9-1.8,6-1.6,9.4c0.1,1.8,0.6,3.6,1.4,5.1
		c0.1,0.2,0.2,0.4,0.3,0.6l0.4,0.6c0.3,0.4,0.6,0.8,0.9,1.1c0.6,0.6,1.4,1.2,2.2,1.7c1.5,0.9,3.1,1.4,4.8,1.6
		c1.6,0.2,3.1,0.2,4.7,0.1c1.2-0.1,2.1-1,2-2.2c-0.1-1.2-1-2.1-2.2-2h-0.1c-2.5-0.1-5.1-0.6-6.8-1.7c-1.7-1.2-2.4-2.9-2.4-5.1
		c0-1.2,0.2-2.3,0.5-3.4c0.3-1.2,0.8-2.4,1.2-3.5c1-2.4,2.3-4.7,3.8-6.9c0.3-0.5,0.6-0.9,0.9-1.3c2.8-4,5.9-7.7,9.3-11.2
		c7.7-7.8,16.3-14.6,25.7-20.1c4-2.4,8.3-4.5,12.8-6.2c0.6-0.2,1.2-0.5,1.8-0.7c2.5-0.9,5-1.5,7.6-1.9c1.2-0.2,2.5-0.3,3.7-0.3
		c1.2,0,2.3,0.2,3.4,0.5c1,0.2,1.9,0.7,2.7,1.4c0.7,0.6,1.3,1.5,1.6,2.4c0.7,2,0.5,4.6-0.1,7.1c-0.3,1,0.3,2.2,1.3,2.5
		c1,0.3,2.2-0.3,2.5-1.3c0.5-1.4,0.9-2.9,1.2-4.5c0.2-1.7,0.2-3.4-0.2-5c-0.4-1.8-1.3-3.5-2.6-4.8c-1.3-1.3-2.8-2.3-4.6-2.9
		c-1.6-0.5-3.2-0.9-4.9-1c-1.6-0.1-3.1-0.1-4.7,0.1c-3,0.3-6,0.9-8.8,1.8c-2.4,0.8-4.9,1.6-7.2,2.6c-3,1.3-6,2.8-8.8,4.4
		c-5,2.8-9.8,6.1-14.4,9.6C108.9,280.3,102.2,286.7,96.6,294.1z"/>
	<path class="st2" d="M167.1,340.5c1.5,2.4,3.1,4.7,4.7,6.9c0.8,1.2,1.6,2.3,2.5,3.4c0.8,1.1,1.7,2.3,2.5,3.4
		c1.7,2.2,3.4,4.4,5.3,6.5c1.8,2.1,3.7,4.2,5.7,6.1c0.1,0.1,0.3,0.1,0.4,0c0.1-0.1,0.1-0.2,0.1-0.3c-1.4-2.4-2.9-4.8-4.6-7
		c-1.6-2.3-3.4-4.5-5.1-6.6c-0.9-1.1-1.7-2.2-2.7-3.2c-0.9-1.1-1.8-2.1-2.7-3.2c-1.8-2.1-3.6-4.2-5.7-6.2c-0.1-0.1-0.3-0.1-0.5,0
		C167,340.2,167,340.3,167.1,340.5z"/>
	<path class="st5" d="M143.7,520.9c1.1-5.3,2.1-10.6,2.9-16c0-0.2-0.1-0.3-0.2-0.3c-0.1,0-0.3,0.1-0.3,0.2c-1.6,5.2-3,10.4-4.3,15.7
		c-1.3,5.3-2.6,10.5-3.8,15.8c-0.6,2.7-1.2,5.3-1.7,7.9c-0.6,2.7-1.1,5.3-1.7,8c-1.1,5.3-2.1,10.6-3.1,15.9c0,0.2,0.1,0.3,0.2,0.3
		c0.2,0.1,0.4,0,0.5-0.2c1.5-5.2,2.9-10.5,4.2-15.7c0.7-2.6,1.3-5.3,2-7.9c0.6-2.6,1.3-5.3,1.8-7.9
		C141.5,531.6,142.7,526.3,143.7,520.9z"/>
	<path class="st5" d="M161.6,518.2c0.6-6.1,1.2-12.2,1.6-18.4c0-0.2-0.1-0.3-0.3-0.3c-0.1,0-0.3,0.1-0.3,0.2
		c-1.2,6.1-2.1,12.1-3,18.3c-0.9,6.1-1.7,12.2-2.4,18.3c-0.4,3.1-0.8,6.1-1.1,9.2c-0.3,3.1-0.7,6.1-1,9.2
		c-0.6,6.1-1.3,12.2-1.7,18.4c0,0.2,0.1,0.3,0.3,0.3c0.2,0,0.3-0.1,0.3-0.3c1.1-6.1,2-12.1,2.9-18.3c0.5-3.1,0.9-6.1,1.3-9.1
		c0.4-3.1,0.8-6.1,1.2-9.1C160.2,530.5,161,524.4,161.6,518.2z"/>
	<path class="st5" d="M177.2,535.3c0.2-4.5,0.3-9,0.2-13.5c0-0.2-0.1-0.3-0.3-0.3c-0.1,0-0.2,0.1-0.3,0.2c-0.7,4.4-1.2,9-1.6,13.4
		c-0.4,4.5-0.8,9-1,13.5c-0.1,2.3-0.3,4.5-0.4,6.8c-0.1,2.3-0.2,4.5-0.3,6.8c-0.2,4.5-0.3,9-0.3,13.5c0,0.2,0.2,0.3,0.3,0.3
		c0.2,0,0.3-0.1,0.3-0.3c0.6-4.4,1-9,1.5-13.4c0.2-2.3,0.4-4.5,0.6-6.7c0.2-2.3,0.3-4.5,0.5-6.7
		C176.8,544.3,177.1,539.8,177.2,535.3z"/>
	<path class="st5" d="M193.1,577.3c0,0.2,0.1,0.3,0.3,0.3c0.2,0.1,0.4-0.1,0.4-0.3c0.3-2.5,0.5-5,0.6-7.5c0.1-1.3,0.1-2.5,0.1-3.8
		c0.1-1.3,0.1-2.5,0.1-3.8c0.1-2.5,0-5-0.1-7.5c-0.1-2.5-0.3-5-0.8-7.5c0-0.2-0.1-0.3-0.3-0.3s-0.3,0.1-0.3,0.3
		c-0.4,2.5-0.6,5-0.8,7.5c-0.1,2.5-0.2,5-0.1,7.5c0,1.3,0.1,2.5,0.1,3.8c0,1.2,0.1,2.5,0.1,3.8C192.6,572.3,192.8,574.7,193.1,577.3
		z"/>
	<path class="st5" d="M211.6,560.5c0.1,1.4,0.2,2.8,0.3,4.2c0.1,1.4,0.3,2.8,0.4,4.2c0.3,2.8,0.6,5.6,1.2,8.4
		c0.1,0.2,0.2,0.3,0.4,0.3c0.2-0.1,0.3-0.2,0.3-0.3c0.1-2.8,0.1-5.7,0-8.4c-0.1-1.4-0.1-2.8-0.2-4.2c-0.1-1.4-0.1-2.8-0.2-4.2
		c-0.2-2.8-0.3-5.6-0.7-8.4c-0.3-2.8-0.8-5.6-1.3-8.4c0-0.2-0.2-0.3-0.3-0.3c-0.2,0-0.3,0.2-0.3,0.3c-0.2,2.8-0.2,5.7-0.2,8.4
		C211.2,554.9,211.3,557.8,211.6,560.5z"/>
	<path class="st5" d="M249.2,549.8c0.4,1.6,0.8,3.1,1.2,4.7c0.4,1.5,0.8,3.1,1.2,4.6c0.9,3.1,1.7,6.2,2.7,9.2
		c0.1,0.2,0.2,0.2,0.3,0.2c0.2,0,0.3-0.2,0.3-0.4c-0.4-3.2-1-6.4-1.6-9.5c-0.3-1.6-0.6-3.2-0.9-4.7s-0.6-3.1-1-4.7
		c-0.7-3.1-1.4-6.2-2.3-9.4c-0.9-3.1-1.7-6.2-2.9-9.2c-0.1-0.2-0.2-0.2-0.3-0.2c-0.1,0.1-0.2,0.2-0.2,0.3c0.3,3.2,0.9,6.4,1.4,9.5
		C247.8,543.5,248.5,546.7,249.2,549.8z"/>
	<path class="st5" d="M229.4,554.6c0.1,1.1,0.3,2.2,0.5,3.3c0.2,1.1,0.4,2.2,0.6,3.3c0.4,2.2,0.9,4.4,1.4,6.5
		c0.1,0.2,0.2,0.3,0.3,0.3s0.3-0.2,0.3-0.3c0-2.3-0.1-4.4-0.2-6.7c-0.1-1.1-0.2-2.2-0.3-3.4c-0.1-1.1-0.2-2.2-0.3-3.3
		c-0.2-2.2-0.6-4.4-1-6.6c-0.4-2.2-0.9-4.4-1.6-6.5c-0.1-0.2-0.2-0.2-0.3-0.2s-0.2,0.1-0.2,0.3c-0.1,2.3-0.1,4.4,0.1,6.7
		C228.8,550.1,229.1,552.3,229.4,554.6z"/>
	<path class="st1" d="M170.1,295.3c1.2,1.8,2.5,3.4,3.9,5c1.4,1.6,2.9,3.1,4.4,4.5c1.6,1.4,3.3,2.8,5.1,3.9c0.4,0.2,0.9,0.1,1.2-0.3
		c0.1-0.2,0.2-0.5,0.1-0.8c-0.9-2-1.9-3.9-3.1-5.7c-1.2-1.8-2.4-3.5-3.8-5.1c-1.3-1.7-2.8-3.2-4.3-4.6c-0.8-0.7-1.6-1.4-2.5-2
		c-0.9-0.7-1.8-1.3-2.8-1.7c-0.3-0.2-0.8,0-0.9,0.3c-0.1,0.2-0.1,0.3-0.1,0.5c0.3,1,0.8,2.1,1.3,3.1
		C168.9,293.5,169.4,294.4,170.1,295.3z"/>
	<path class="st1" d="M184.3,290.4c1.2,1.7,2.5,3.3,4,4.7c1.3,1.6,2.8,3,4.4,4.4c0.8,0.7,1.7,1.3,2.5,1.8c0.5,0.3,0.9,0.5,1.4,0.8
		c0.5,0.3,0.9,0.6,1.4,0.8c0.2,0.1,0.5,0.1,0.8,0.1c0.4-0.2,0.6-0.7,0.4-1.1c-0.2-0.5-0.5-1-0.7-1.4c-0.2-0.5-0.5-1-0.7-1.4
		c-0.5-0.9-1-1.8-1.7-2.7c-1.2-1.7-2.5-3.3-4-4.7c-1.3-1.6-2.8-3-4.4-4.3c-0.8-0.7-1.7-1.3-2.5-1.8c-0.5-0.3-0.9-0.6-1.4-0.9
		s-0.9-0.6-1.4-0.8h-0.1c-0.4-0.2-0.9-0.1-1.1,0.3c-0.1,0.2-0.1,0.5-0.1,0.8c0.2,0.5,0.5,1,0.7,1.4c0.2,0.5,0.5,1,0.7,1.4
		C183.1,288.6,183.7,289.5,184.3,290.4z"/>
	<path class="st1" d="M217,300.6c0.1-0.1,0.1-0.2,0.2-0.2c0.1-0.2,0.1-0.3,0-0.5c-0.3-1-0.8-2-1.4-2.9c-0.5-0.9-1.1-1.7-1.7-2.6
		c-1.2-1.6-2.6-3.1-4-4.5c-1.4-1.4-2.9-2.8-4.6-4c-1.6-1.3-3.4-2.4-5.2-3.4c-0.3-0.2-0.7-0.1-1,0.2c-0.2,0.2-0.3,0.6-0.2,0.9
		c0.9,1.8,2,3.6,3.3,5.3c1.2,1.6,2.5,3.2,3.9,4.6c1.4,1.5,2.9,2.8,4.4,4.1c0.8,0.6,1.7,1.2,2.5,1.7c0.9,0.6,1.9,1,2.9,1.4
		C216.6,300.9,216.9,300.9,217,300.6z"/>
	<path class="st1" d="M145.7,309.5c1.1,1.8,2.3,3.6,3.7,5.3c1.3,1.7,2.8,3.4,4.3,4.9c1.5,1.6,3.2,3.1,5,4.3c0.2,0.2,0.5,0.2,0.8,0.1
		c0.4-0.2,0.6-0.6,0.5-1c-0.8-2.1-1.7-4.1-2.8-6c-1.1-1.8-2.3-3.7-3.6-5.4c-1.3-1.8-2.7-3.4-4.2-5c-0.8-0.8-1.6-1.5-2.4-2.3
		c-0.9-0.8-1.8-1.4-2.8-2c-0.3-0.2-0.8-0.1-0.9,0.3c-0.1,0.2-0.1,0.3-0.1,0.5c0.3,1.1,0.6,2.2,1.1,3.2
		C144.6,307.6,145.2,308.6,145.7,309.5z"/>
	<path class="st1" d="M157.5,301.7c1.1,1.8,2.4,3.6,3.6,5.3c1.3,1.7,2.7,3.3,4.3,4.8c0.8,0.8,1.6,1.4,2.5,2.1
		c0.9,0.7,1.8,1.3,2.8,1.8c0.3,0.2,0.8,0.1,0.9-0.3c0.1-0.2,0.1-0.3,0.1-0.5c-0.3-1.1-0.7-2.1-1.2-3.2c-0.5-1-1-2-1.6-2.9
		c-1.2-1.8-2.4-3.6-3.8-5.2c-1.4-1.6-2.8-3.2-4.4-4.7c-1.6-1.6-3.2-2.9-5.1-4.2c-0.4-0.2-0.9-0.1-1.2,0.2c-0.1,0.2-0.2,0.5-0.1,0.8
		C155.3,297.9,156.3,299.9,157.5,301.7z"/>
	<path class="st1" d="M115.5,358.5c-1.2-2-2.4-3.9-3.8-5.7c-0.8-0.9-1.5-1.8-2.3-2.6c-0.8-0.9-1.7-1.7-2.7-2.4
		c-0.3-0.2-0.8-0.2-1,0.2c-0.1,0.1-0.2,0.3-0.1,0.5c0.2,1.2,0.5,2.3,0.9,3.5c0.3,1.1,0.8,2.2,1.3,3.2c1,2.1,2.1,4.1,3.3,6
		c1.2,1.9,2.5,3.8,3.9,5.6c1.4,1.8,3,3.6,4.7,5.1c0.3,0.3,0.9,0.3,1.2-0.1c0.2-0.2,0.2-0.5,0.2-0.8c-0.6-2.3-1.4-4.4-2.4-6.5
		C117.7,362.5,116.7,360.5,115.5,358.5z"/>
	<path class="st1" d="M123.1,343.3c-1.2-1.8-2.5-3.6-4-5.3c-1.4-1.7-3-3.4-4.7-4.9c-0.3-0.3-0.9-0.2-1.2,0.1
		c-0.2,0.2-0.2,0.5-0.2,0.8c0.6,2.2,1.4,4.3,2.4,6.3c1,2,2,3.9,3.2,5.8c1.2,1.9,2.4,3.7,3.8,5.4c0.8,0.9,1.5,1.7,2.3,2.5
		c0.8,0.8,1.7,1.6,2.7,2.3c0.3,0.2,0.8,0.1,1-0.2c0.1-0.2,0.1-0.3,0.1-0.5c-0.2-1.2-0.5-2.3-0.9-3.4c-0.4-1-0.8-2.1-1.3-3.1
		C125.5,347,124.4,345.1,123.1,343.3z"/>
	<path class="st1" d="M128.1,334.1c1.3,1.8,2.6,3.5,4.1,5.2c1.4,1.7,3.1,3.3,4.8,4.7c0.2,0.2,0.5,0.2,0.8,0.2c0.5-0.1,0.7-0.6,0.6-1
		c-0.7-2.1-1.6-4.2-2.6-6.2c-1-2-2.1-3.9-3.3-5.7c-1.2-1.8-2.5-3.6-3.9-5.3c-0.8-0.9-1.5-1.6-2.3-2.4c-0.9-0.8-1.7-1.5-2.7-2.1
		c-0.2-0.1-0.3-0.1-0.5-0.1c-0.4,0.1-0.6,0.5-0.6,0.8c0.2,1.2,0.6,2.3,1,3.4c0.4,1,0.9,2.1,1.3,3.1
		C125.6,330.5,126.8,332.3,128.1,334.1z"/>
	<path class="st1" d="M134.9,318.3c1,1.9,2.2,3.8,3.4,5.6c1.2,1.8,2.6,3.5,4,5.1c0.8,0.8,1.6,1.6,2.4,2.3c0.9,0.8,1.8,1.4,2.8,2
		c0.3,0.2,0.8,0.1,1-0.2c0.1-0.2,0.1-0.3,0.1-0.5c-0.2-1.1-0.6-2.2-1-3.3c-0.4-1-0.9-2-1.4-3c-1-1.9-2.3-3.8-3.6-5.5
		c-1.3-1.7-2.7-3.5-4.2-5c-1.5-1.7-3.1-3.2-4.9-4.6c-0.2-0.2-0.5-0.2-0.8-0.1c-0.4,0.1-0.7,0.6-0.5,1
		C132.9,314.3,133.8,316.4,134.9,318.3z"/>
	<path class="st1" d="M255.7,506.5l13.3-4l-4.8-7.3l-13.1,4L255.7,506.5z"/>
	<path class="st1" d="M262.9,493.1l-4.8-7.2l-12.8,3.9l4.6,7.3L262.9,493.1z"/>
	<path class="st1" d="M279.7,490.4l-13.1,4l4.8,7.3l13.3-4L279.7,490.4z"/>
	<path class="st1" d="M265.2,492.4l13.1-4l-5-7.2l-12.8,3.9L265.2,492.4z"/>
	<path class="st1" d="M247.6,497.8l-4.6-7.3l-12.9,3.9l4.3,7.4L247.6,497.8z"/>
	<path class="st1" d="M232.2,502.5l-4.3-7.4L215,499l4.1,7.5L232.2,502.5z"/>
	<path class="st1" d="M216.8,507.1l-4.1-7.5l-12.9,3.9l3.9,7.5L216.8,507.1z"/>
	<path class="st1" d="M204.7,513.3l3.9,7.6l13.5-4.1l-4.2-7.5L204.7,513.3z"/>
	<path class="st1" d="M220.2,508.5l4.1,7.5l13.4-4.1l-4.4-7.5L220.2,508.5z"/>
	<path class="st1" d="M235.7,503.8l4.3,7.5l13.4-4.1l-4.6-7.4L235.7,503.8z"/>
	<path class="st3" d="M293.4,486.2l-1.6-2l-11.3,3.4l-5-7.2l10.7-3.3l-1.5-2l-10.6,3.2l-3.5-5.1l-2.3,0.7l3.5,5.1l-12.7,3.9
		l-3.4-5.1l-2.3,0.7l3.4,5.1l-12.8,3.9l-3.2-5.2l-2.3,0.7l3.2,5.2l-12.8,3.9l-3.1-5.2l-2.3,0.7l3.1,5.2l-12.9,3.9l-2.9-5.3l-2.2,0.8
		l2.9,5.3l-12.9,3.9l-2.8-5.3l-2.3,0.7l2.8,5.3l-10.7,3.2l1,2.1l10.7-3.3l3.9,7.5l-11,3.4l1,2.1l11-3.4l3.9,7.6l-11.3,3.4l1,2.1
		l11.3-3.5l3.3,6.4l2.3-0.7l-3.3-6.4l13.5-4.1l3.5,6.3l2.3-0.7l-3.5-6.3l13.5-4.1l3.6,6.2l2.3-0.7l-3.6-6.2l13.5-4.1l3.8,6.2
		l2.3-0.7l-3.8-6.2l13.4-4.1l4,6.1l2.3-0.7l-4-6.1l13.4-4.1l4.2,6.1l2.3-0.7l-4.2-6.1l12-3.6l-1.6-2l-11.9,3.6l-5.1-7.2L293.4,486.2
		z M255.7,506.5l-4.6-7.4l13.1-4l4.8,7.3L255.7,506.5z M235.7,503.8l13.2-4l4.6,7.4l-13.4,4.1L235.7,503.8z M220.2,508.5l13.2-4
		l4.4,7.5l-13.4,4.1L220.2,508.5z M204.7,513.3l13.2-4l4.2,7.5l-13.5,4.1L204.7,513.3z M216.8,507.1l-13.2,4l-3.9-7.5l12.9-3.9
		L216.8,507.1z M232.2,502.5l-13.1,4L215,499l12.9-3.9L232.2,502.5z M247.6,497.8l-13.1,4l-4.3-7.4l12.9-3.9L247.6,497.8z
		 M262.9,493.1l-13.1,4l-4.6-7.3l12.8-3.9L262.9,493.1z M278.3,488.4l-13.1,4l-4.8-7.3l12.8-3.9L278.3,488.4z M279.7,490.4l5,7.2
		l-13.3,4l-4.9-7.3L279.7,490.4z"/>
	<path class="st3" d="M297,485.2l-1.6-2L297,485.2z"/>
	<path class="st3" d="M289.9,476.2l-1.6-2L289.9,476.2z"/>
	<path class="st3" d="M303.8,493.9l-1.3-1.7L303.8,493.9z"/>
	<path class="st3" d="M71.6,318.4l0.2,0.2l5.1,8.4c1.5,2.4,3,4.9,4.4,7.3l-0.6,11.5c0,0.3,0.2,0.6,0.6,0.6c0.2,0,0.5-0.1,0.6-0.3
		l6.3-11.9c0.5-0.9,0.3-2-0.3-2.7l-0.2-0.3c-2.1-2.5-4.3-5-6.4-7.5l-5.8-6.8l2.5-8.6c0.9-3.2,1.9-6.5,2.9-9.7
		c0.1-0.2-0.1-0.5-0.3-0.6c-0.2-0.1-0.6,0-0.7,0.2c-1.4,3.1-2.8,6.2-4.2,9.2l-4.3,9.2C71.3,317.4,71.3,318,71.6,318.4z"/>
	<path class="st3" d="M130.2,233c0.6,0.8,1.1,1.5,1.7,2.3c0.6,0.8,1.2,1.5,1.7,2.2c0.6,0.8,1.7,1.2,2.8,0.9l0.2-0.1
		c1.3-0.3,2.6-0.6,3.9-1c1.3-0.4,2.6-0.8,3.9-1.2c1.3-0.4,2.5-0.8,3.9-1.2c0.5-0.1,0.9-0.3,1.3-0.5c0.5,1.9,1.1,3.8,1.7,5.7
		c0.5,1.4,0.9,2.8,1.4,4.2c0.5,1.4,1,2.8,1.6,4.2c0.1,0.4,0.5,0.7,1,0.6c0.5-0.1,0.8-0.5,0.8-1c-0.1-1.5-0.2-2.9-0.3-4.4
		c-0.1-1.4-0.3-2.9-0.5-4.4c-0.3-2.9-0.8-5.8-1.3-8.7c-0.2-1.3-1.5-2.3-2.8-2l-0.2,0.1l-0.2,0.1c-1.3,0.3-2.6,0.6-3.9,1
		s-2.6,0.7-3.9,1c-1.3,0.3-2.6,0.8-3.9,1.1l-2.2,0.6c-0.2-0.2-0.4-0.5-0.6-0.6c-0.6-0.7-1.3-1.4-1.9-2.1c-1.3-1.4-2.5-2.7-3.9-4
		c-1.3-1.3-2.7-2.7-4-3.9c-1.4-1.3-2.8-2.5-4.3-3.8c-0.2-0.2-0.5-0.2-0.8-0.1c-0.3,0.2-0.5,0.6-0.3,1c0.9,1.7,1.9,3.3,2.9,4.9
		c1,1.6,2.1,3.2,3.1,4.7C128.1,229.9,129.2,231.5,130.2,233z"/>
	<path class="st3" d="M166.7,233.1c-0.2-0.2-0.4-0.3-0.6-0.2c-0.3,0.1-0.6,0.4-0.5,0.8c0.2,1.3,0.6,2.5,0.9,3.8
		c0.3,1.3,0.8,2.5,1.2,3.7c0.4,1.2,0.9,2.4,1.4,3.6c0.5,1.2,1,2.4,1.6,3.5v0.1c0.2,0.4,0.5,0.8,0.9,0.9c0.9,0.4,1.7,0.8,2.5,1.2
		c0.9,0.3,1.7,0.7,2.6,1c0.9,0.3,1.8,0.6,2.7,0.9c0.9,0.3,1.8,0.5,2.8,0.6c0.2,0,0.3-0.1,0.5-0.2c0.2-0.2,0.2-0.5,0-0.8
		c-0.7-0.7-1.4-1.3-2.2-1.9c-0.8-0.6-1.5-1.2-2.3-1.7c-0.8-0.5-1.6-1-2.4-1.5c-0.6-0.3-1.2-0.7-1.8-1c-0.5-1-0.9-2-1.3-2.9
		c-0.6-1.2-1.2-2.3-1.8-3.4c-0.6-1.2-1.3-2.3-2-3.4C168.3,235.2,167.5,234.1,166.7,233.1z"/>
	<path class="st3" d="M97.6,251.9c-0.1,1.3,0,2.5,0,3.8c0.1,2.5,0.2,5,0.3,7.5c0.1,0.8,0.5,1.4,1.2,1.8l0.3,0.2
		c1.3,0.7,2.5,1.4,3.8,2c1.3,0.6,2.6,1.3,3.9,1.9c1.3,0.6,2.6,1.3,3.9,1.8c0.7,0.3,1.4,0.6,2.1,0.9c0,0.7,0.1,1.4,0.1,2.1
		c0.1,1.4,0.1,2.8,0.2,4.2c0.1,2.8,0.3,5.5,0.5,8.4v0.3c0.1,0.8,0.5,1.5,1.2,1.8c2.3,1.2,4.5,2.4,6.8,3.5c1.2,0.6,2.3,1.1,3.5,1.6
		c1.2,0.5,2.3,1,3.5,1.5c0.4,0.2,0.8,0.1,1.1-0.2c0.3-0.4,0.3-1-0.1-1.4c-1-0.9-2-1.7-2.9-2.5c-1-0.8-2-1.6-3-2.4
		c-1.6-1.2-3.2-2.4-4.9-3.6c0.1-2.4,0.2-4.7,0.2-7.1c0-1.4,0.1-2.8,0.1-4.2c0-1.4,0-2.8,0-4.2c0-1.2-0.8-2.3-1.8-2.8
		c-1.3-0.6-2.6-1.2-3.9-1.7s-2.7-1.2-4-1.7c-1.3-0.6-2.7-1.1-4-1.6c-1-0.3-1.9-0.8-2.9-1.1c-0.5-1.9-0.9-3.8-1.4-5.7
		c-0.3-1.2-0.7-2.4-1-3.6c-0.3-1.2-0.7-2.4-1.2-3.6c-0.1-0.3-0.4-0.5-0.7-0.5c-0.5,0-0.8,0.3-0.8,0.8
		C97.6,249.4,97.6,250.6,97.6,251.9z"/>
	<path class="st1" d="M235,533.8l-3.9,1.2l2.4,3.9l21.3,34.6l4.4,7.2l0.3,0.5l0.1-0.1l0.4-0.8l8.9-16.3c-0.3,0.6-0.7,1.2-1.2,1.6
		c-3.9,4.4-12.5,7-16.6-6c-0.9-2.9-1.9-5.7-2.9-8.2c-1.5-3.8-3.3-7.5-5.4-10.9C239.8,535.7,237,533.3,235,533.8z"/>
	<path class="st2" d="M244.2,584.7l5.1,8.3l1.8,2.9l17.2-0.7l8.5-15.6l18.1-33.2v-0.3l-9.6-12.3l-7.2,13.3l-4,7.5l-3.3,6.1l-1.7,3.2
		c-0.1,0.1-0.1,0.1-0.1,0.1l-8.9,16.3l-0.4,0.8l-0.1,0.1l-0.3-0.5l-4.4-7.2l-21.3-34.6l-2.4-3.9l-1.6,2.8l-0.3,0.5l-6.6,11.4
		l4.8,7.8l6.2,10.2l6,9.6L244.2,584.7z"/>
	<path class="st1" d="M262.9,520.7l-7.1,2.2c0.9,1.3,2,2.5,3.1,3.6l3.9-1.2C262.7,523.8,262.8,522.2,262.9,520.7z"/>
	<path class="st1" d="M262.9,525.2l-3.9,1.2c0.2,0.2,0.5,0.4,0.7,0.6l0.6,0.5l0.6,0.5c0.4,0.3,0.8,0.6,1.2,0.9
		c0.4,0.3,0.8,0.5,1.3,0.8C263,528.2,262.9,526.7,262.9,525.2z"/>
	<path class="st1" d="M268.3,595.2l70.5-21.8l29-49.5l-0.1-0.3h0.1l-10.7-10.9l-0.5,0.2l-6.5,1.9l-22.8,6.6l-30,8.8l-12.1,3.5
		l9.6,12.3v0.3l-18.1,33.2L268.3,595.2z"/>
	<path class="st2" d="M301.9,544.6c-0.2,0.1-0.4-0.1-0.5-0.2c-0.1-0.2,0.1-0.4,0.2-0.5c4.9-1.8,9.7-3.5,14.6-5.1
		c2.4-0.8,4.9-1.6,7.3-2.4c2.4-0.8,4.9-1.6,7.4-2.3c4.9-1.6,9.8-3.1,14.8-4.4c5-1.4,10-2.7,15-3.9c0.1,0,0.3,0.1,0.3,0.2
		c0.1,0.2,0,0.3-0.2,0.3c-4.8,1.9-9.7,3.6-14.6,5.3c-4.9,1.6-9.8,3.2-14.7,4.7c-2.5,0.8-4.9,1.5-7.4,2.2c-2.5,0.8-5,1.4-7.5,2.1
		C311.9,542,306.9,543.4,301.9,544.6z"/>
	<path class="st3" d="M84.6,186.4c0.8,0,1.4-0.6,1.4-1.4c0-0.8-0.6-1.4-1.4-1.4s-1.4,0.6-1.4,1.4C83.2,185.7,83.8,186.4,84.6,186.4z
		"/>
	<path class="st5" d="M233.7,567.6l-6.2-10.2c-0.2,0.3-0.3,0.6-0.4,1c-0.6,1.4-1,2.9-1.3,4.4c-0.6,2.8-0.8,5.7-0.6,8.6
		c0.2,2.7,0.6,5.3,1.6,7.9l0.1,0.3c0.9,2.6,2.3,5,4,7c0.3,0.3,0.8,0.4,1.2,0.2c0.1,0,0.1-0.1,0.1-0.1c0.2-0.2,0.3-0.6,0.3-0.9
		c-0.6-2.4-0.9-4.7-0.9-7.2c0.1-2.3,0.3-4.5,0.9-6.7C232.6,570.5,233,569,233.7,567.6z"/>
	<path class="st5" d="M350.1,514.9l6.5-1.9c11.2-12.3,21.3-29.1,22-46.2c0.2-2,0.1-4-0.2-6.1c0-0.2-0.1-0.5-0.1-0.8
		c-0.5-2.7-1.4-5.4-2.9-7.7c-1.5-2.4-3.5-4.4-6-6c-4.6-2.8-10.1-3.7-15.2-2.4c-2.6,0.6-5,1.8-7,3.6c-0.5,0.5-1,0.9-1.4,1.4
		c-0.4,0.5-0.8,0.9-1.1,1.4c-0.5,0.7-0.9,1.3-1.4,2c-1.8,2.5-3.9,4.9-6.1,6.5c-2.2,1.6-4.9,2.3-7.6,1.8c-2.9-0.5-6-2.1-8.8-4
		c-0.4-0.3-0.9-0.2-1.2,0.2c-0.2,0.3-0.2,0.7,0,1c1,1.5,2.3,2.9,3.6,4.2c0.3,0.2,0.6,0.5,0.9,0.8c-5.2,0.2-10.2,1.5-14.8,4
		c-6.9,3.7-11.1,9.5-14,16.3c-3.7,8.5-5.7,18.5-9.1,27.5c-0.3,1-0.8,2-1.2,2.9c-0.6-0.7-1.2-1.4-1.9-2c-2.7-2.2-6.2-3.5-10.9-2.4
		c-4.7,1-7.2,4.1-8.4,7.8c-0.1,0.2-0.1,0.3-0.2,0.6c-0.3,1.1-0.5,2.2-0.6,3.4c-0.2,1.5-0.2,3.1-0.1,4.6c0.1,1.4,0.2,2.9,0.5,4.4
		c-0.5-0.2-0.8-0.5-1.3-0.8c-0.5-0.2-0.8-0.6-1.2-0.9l-0.6-0.5l-0.6-0.5c-0.2-0.2-0.5-0.4-0.7-0.6c-1.2-1.1-2.2-2.3-3.1-3.6
		c-0.1-0.1-0.2-0.2-0.2-0.3c-0.5-0.8-0.9-1.5-1.3-2.3c-0.4-0.8-0.8-1.7-1-2.6c0-0.2-0.1-0.4-0.1-0.6c0-0.2-0.1-0.3-0.1-0.5v-0.1
		v-0.1v-0.2l0.1-0.6c0.1-0.4,0.1-0.8,0.1-1.2c0.1-1.6,0.1-3.2,0.1-4.7c-0.2-3.3-1-6.5-2.6-9.5c-1.5-2.7-3.5-5.1-6-7
		c-2.3-1.8-4.7-3.2-7.3-4.4c-0.3-0.1-0.7-0.1-0.9,0.1c-0.3,0.3-0.4,0.9-0.1,1.3c1.8,2,3.4,4,4.8,6.2c1.3,2,2.3,4.2,2.8,6.5
		c0.4,2.1,0.4,4.3-0.1,6.4c-0.2,1.1-0.6,2.2-0.9,3.2l-0.3,0.9l-0.2,0.4l-0.1,0.1l-0.1,0.2l-0.1,0.4c-0.1,0.5-0.2,1-0.3,1.5
		c-0.1,0.5-0.1,1-0.2,1.4c-0.1,0.7-0.1,1.3-0.1,2c-1.4-0.1-2.8,0-4.2,0.3c-5.8,1.4-8.1,4.8-8.8,8.3c-0.2,1-0.3,2.1-0.3,3.2
		c0.1,2.2,0.5,4.4,1.2,6.5l1.6-2.8l3.9-1.2c2-0.5,4.9,1.9,7.8,6.7c2.1,3.5,3.9,7.1,5.4,10.9c1,2.5,2,5.3,2.9,8.2
		c4.1,13.1,12.7,10.4,16.6,6c0.5-0.5,0.8-1,1.2-1.6c0-0.1,0.1-0.1,0.1-0.1l1.7-3.2l3.3-6.1l4-7.5l7.2-13.3l12.1-3.5l30-8.8
		L350.1,514.9z M362.5,461.7c-0.2,2.2-0.9,4.4-1.9,6.4c-0.5,1-1,2-1.7,3.1c-2,3-4,5.9-6.4,8.6c-2.9-5.8-7.6-10.6-13.4-13.6
		c0.5-0.2,1-0.3,1.6-0.5c4-1.6,7.3-4,10.2-6.5c0.8-0.6,1.4-1.3,2.1-1.9c0.2-0.2,0.4-0.4,0.6-0.5c0.2-0.1,0.3-0.2,0.5-0.3
		c0.8-0.3,1.6-0.5,2.5-0.5c1.7-0.1,3.5,0.6,4.7,1.8c0.5,0.5,0.8,1.1,0.9,1.7C362.5,460.2,362.6,461,362.5,461.7z"/>
	<path class="st2" d="M352.6,479.6L352.6,479.6c1.9,1.8,3.4,4,4.4,6.4c1,2.4,1.7,4.9,2,7.4c0.1,0.6,0.1,1.3,0.2,1.9
		c0.1,0.6,0.1,1.3,0.1,1.9c0,0.6-0.1,1.3-0.1,2c-0.1,0.3-0.1,0.6-0.1,1l-0.2,1c-0.5,2.5-1.4,5-2.9,7.1c0,0-0.1,0.1-0.1,0
		c-0.1,0-0.1-0.1-0.1-0.1c0.6-2.4,1-4.8,1.2-7.2l0.1-0.9c0-0.3,0-0.6,0-0.9v-1.8c-0.1-1.2-0.1-2.4-0.3-3.6c-0.3-2.4-0.8-4.8-1.5-7.2
		C354.6,484.2,353.6,481.9,352.6,479.6C352.6,479.6,352.5,479.7,352.6,479.6z"/>
	<path class="st2" d="M284.9,513.3C285,513.3,285,513.3,284.9,513.3c0.1,2.6-0.5,5.1-1.3,7.5c-0.9,2.4-2.1,4.7-3.8,6.7
		c-1.7,2.2-3.9,3.9-6.5,4.9c-1.4,0.5-2.8,0.6-4.3,0.4c-1.3-0.2-2.6-0.9-3.6-1.8v-0.1h0.1c1.1,0.5,2.3,0.8,3.5,0.8
		c1.2-0.1,2.4-0.3,3.5-0.9c2.1-1.1,4-2.7,5.5-4.6c1.5-1.9,2.8-3.9,3.9-6.1C283.1,517.8,284.1,515.6,284.9,513.3
		C284.9,513.3,284.9,513.3,284.9,513.3z"/>
	<path class="st2" d="M241.7,519.4C241.7,519.4,241.7,519.4,241.7,519.4c0.9,3.4,2,6.7,3.5,9.8c1.4,3,3.2,5.8,5.2,8.4
		c2.1,2.6,4.4,5,6.9,7.2c2.6,2.2,5.4,4.2,8.3,6.4v0.1c0,0.1-0.1,0.1-0.1,0.1c-3.3-1.3-6.4-2.9-9.3-5c-2.9-2-5.5-4.4-7.7-7.2
		s-3.9-5.9-5.1-9.2C242.2,526.5,241.6,523,241.7,519.4C241.7,519.4,241.7,519.4,241.7,519.4z"/>
	<path class="st2" d="M339.2,466.1L339.2,466.1c-1.1,1.2-2.5,1.9-4,2.2c-1.5,0.3-3,0.3-4.5,0c-0.8-0.2-1.5-0.4-2.2-0.8
		c-0.7-0.3-1.3-0.8-2-1.2c-1.2-0.9-2.1-2.3-2.6-3.7v-0.1h0.1c1,0.9,2.1,1.7,3.3,2.4c0.6,0.3,1.2,0.6,1.8,0.9c0.6,0.2,1.3,0.4,2,0.6
		c1.3,0.3,2.7,0.4,4,0.4c1.3,0,2.7-0.2,4-0.6C339.2,466.2,339.2,466.1,339.2,466.1z"/>
	<path class="st3" d="M368.1,508.8C368.1,508.8,368.1,508.8,368.1,508.8c0.2-0.2,0.4-0.3,0.6-0.2c1.1,0.7,3.9,2.5,4.3,3.8
		c0,0.1,0.1,0.1,0.1,0.2c0.5,1.6-0.3,3.4-2,3.9c-1.6,0.5-3.4-0.3-3.9-2C366.8,513.3,367.7,510,368.1,508.8z"/>
	<path class="st3" d="M307.1,491.1c0.1,0,0.1,0,0.1,0c0.2,0,0.4,0.2,0.3,0.4c0,1.3-0.2,4.6-1,5.7c-0.1,0.1-0.1,0.1-0.1,0.2
		c-1.1,1.3-3,1.4-4.3,0.4c-1.3-1.1-1.4-3-0.4-4.3C302.6,492.3,305.8,491.4,307.1,491.1z"/>
	<path class="st3" d="M334.3,494.5C334.3,494.5,334.3,494.5,334.3,494.5c0.2-0.2,0.3-0.2,0.5-0.1c0.8,0.6,2.7,2.4,2.8,3.5
		c0.2,1.3-0.6,2.5-1.9,2.8c-1.3,0.2-2.5-0.6-2.8-1.9C332.8,497.8,333.9,495.4,334.3,494.5z"/>
	<path class="st3" d="M308.8,506.5C308.8,506.5,308.9,506.5,308.8,506.5c0.2-0.1,0.4,0,0.4,0.2c0.3,1,0.9,3.5,0.5,4.4
		c-0.5,1.2-1.8,1.8-3.1,1.3c-1.2-0.5-1.8-1.8-1.3-3.1C305.7,508.4,307.9,507,308.8,506.5z"/>
	<path class="st1" d="M291.7,492.7c11.8-7,8-17.7,8-17.7C293.5,482.2,291.7,492.7,291.7,492.7z"/>
	<path class="st1" d="M287.8,505.5c1.4,2,5.5,9.7,6.9,8.4c6.4-6.1-3.9-18.3-3.9-18.3L287.8,505.5z"/>
	<path class="st2" d="M292,491.1c6.4-3.5,2.6-7.8,2.6-7.8C292.7,486.5,292,491.1,292,491.1z"/>
</g>
</svg>
