<svg width="36" height="36" viewBox="0 0 36 36" fill="none" xmlns="http://www.w3.org/2000/svg">
<g clip-path="url(#clip0)">
<path d="M36 6.46275C34.6613 7.05 33.2347 7.43925 31.7475 7.62825C33.2775 6.71475 34.4453 5.27925 34.9943 3.549C33.5678 4.3995 31.9927 5.00025 30.3142 5.3355C28.9597 3.89325 27.0292 3 24.9232 3C20.8372 3 17.5477 6.3165 17.5477 10.3823C17.5477 10.9673 17.5972 11.5297 17.7188 12.0652C11.583 11.766 6.15375 8.82525 2.5065 4.3455C1.86975 5.45025 1.49625 6.71475 1.49625 8.076C1.49625 10.632 2.8125 12.8977 4.7745 14.2095C3.58875 14.187 2.4255 13.8428 1.44 13.3005C1.44 13.323 1.44 13.3523 1.44 13.3815C1.44 16.968 3.99825 19.947 7.353 20.6332C6.75225 20.7975 6.0975 20.8762 5.418 20.8762C4.9455 20.8762 4.4685 20.8493 4.02075 20.7502C4.977 23.673 7.6905 25.8217 10.917 25.8915C8.406 27.8557 5.21775 29.0392 1.76625 29.0392C1.161 29.0392 0.5805 29.0122 0 28.938C3.26925 31.0462 7.14375 32.25 11.322 32.25C24.903 32.25 32.328 21 32.328 11.2485C32.328 10.9222 32.3167 10.6073 32.301 10.2945C33.7658 9.255 34.9965 7.95675 36 6.46275Z" fill="#353535"/>
</g>
<defs>
<clipPath id="clip0">
<rect width="36" height="36" fill="white"/>
</clipPath>
</defs>
</svg>
