<svg width="250" height="250" viewBox="0 0 250 250" fill="none" xmlns="http://www.w3.org/2000/svg">
<g clip-path="url(#clip0)">
<path d="M28.3155 7.23794C38.6605 -4.27798 198.687 -1.83296 209.387 13.0103C220.087 27.8536 215.971 180.41 197.864 185.358C179.757 190.305 33.2538 191.955 25.8464 181.234C18.4389 170.514 20.9081 15.4842 28.3155 7.23794Z" fill="#0485CA"/>
<path d="M156.685 271.167C155.44 280.715 158.576 284.881 153.655 287.797C127.3 294.38 101.852 293.743 75.5905 287.797C75.5905 275.243 66.2494 203.036 60.9116 186.592C56.7648 173.825 67.1101 164.673 89.025 161.224C95.3269 160.23 102.583 159.71 110.73 159.71C125.048 159.71 136.041 159.744 144.114 162.5C156.608 166.766 162.106 177.547 162.106 204.812C162.106 234.794 158.599 256.486 156.685 271.167Z" fill="white"/>
<path d="M199.522 236.419C192.699 236.419 184.731 234.19 176.425 227.278C168.513 220.694 161.997 211.365 156.247 203.133C153.08 198.599 150.088 194.315 147.301 191.091C144.11 187.4 142.623 186.791 142.464 186.733L150.159 165.414C160.053 168.978 167.241 179.269 174.852 190.165C187.64 208.474 194.759 216.126 203.138 213.066C210.926 210.222 215.604 205.762 217.44 199.431C220.159 190.056 216.119 178.065 210.723 171.066L228.696 157.238C233.484 163.448 237.232 171.257 239.251 179.227C241.589 188.458 241.582 197.625 239.229 205.738C236.525 215.063 229.42 227.597 210.928 234.351C207.726 235.52 203.854 236.419 199.522 236.419Z" fill="white"/>
<path d="M221.959 167.131C226.956 163.372 230.005 158.996 228.77 157.357C227.534 155.718 222.482 157.436 217.485 161.194C212.488 164.953 209.438 169.329 210.674 170.968C211.909 172.607 216.962 170.889 221.959 167.131Z" fill="#439FC0"/>
<path d="M144.114 162.5C137.118 169.475 122.75 186.369 118.993 210.478C116.718 203.286 111.864 175.718 89.0249 161.224C95.3268 160.23 102.583 159.71 110.73 159.71C125.048 159.71 136.041 159.744 144.114 162.5Z" fill="#FFAF51"/>
<path fill-rule="evenodd" clip-rule="evenodd" d="M105.834 222.191C105.748 221.083 106.453 219.997 107.438 219.481C108.613 218.867 110.184 219.058 111.116 220.001C112.047 220.944 112.196 222.586 111.382 223.631C109.998 225.408 106.019 224.573 105.834 222.191Z" fill="#439FC0"/>
<path fill-rule="evenodd" clip-rule="evenodd" d="M111.978 243.275C115.021 245.005 112.251 249.554 109.243 248.136C106.149 246.677 108.855 241.5 111.978 243.275Z" fill="#439FC0"/>
<path fill-rule="evenodd" clip-rule="evenodd" d="M180.697 166.067C188.745 168.238 196.976 168.328 205.368 166.582C207.675 166.101 209.352 164.104 209.442 161.751C209.82 151.828 209.832 142.027 209.448 132.357C209.355 130.028 207.7 128.048 205.42 127.554C197.189 125.77 188.959 126.062 180.729 128.137C179.805 128.37 179.1 129.128 178.951 130.069C177.159 141.427 177.16 152.786 178.956 164.144C179.103 165.071 179.79 165.823 180.697 166.067Z" fill="#439FC0"/>
<path d="M194.299 131.262C200.505 131.262 205.535 130.71 205.535 130.028C205.535 129.347 200.505 128.794 194.299 128.794C188.094 128.794 183.063 129.347 183.063 130.028C183.063 130.71 188.094 131.262 194.299 131.262Z" fill="#022B42"/>
<path fill-rule="evenodd" clip-rule="evenodd" d="M226.473 158.122C227.08 158.851 227.142 159.893 226.614 160.681C225.466 162.398 223.381 164.507 220.762 166.48C218.752 167.991 216.75 169.178 215.038 169.932C214.037 170.373 212.866 169.996 212.313 169.053L211.24 167.228L206.953 159.912L217.418 147.233L225.685 157.174L226.473 158.122Z" fill="#FFAF51"/>
<path fill-rule="evenodd" clip-rule="evenodd" d="M218.805 148.715C218.438 148.132 217.957 147.646 217.418 147.234C217.527 147.113 217.632 146.992 217.733 146.873C219.149 145.116 219.509 143.373 218.805 142.11C218.342 141.28 217.484 140.752 216.403 140.455C216.475 140.32 216.543 140.182 216.599 140.036C216.852 139.354 216.873 138.627 216.643 137.88C216.529 137.503 216.35 137.133 216.112 136.772C215.874 136.406 215.575 136.045 215.22 135.714C214.511 135.028 213.575 134.448 212.478 133.994C211.729 133.694 210.901 133.473 210.029 133.336C209.577 133.185 209.108 133.055 208.626 132.956C207.822 132.78 206.984 132.677 206.101 132.645C205.218 132.603 204.374 132.635 203.559 132.745C202.748 132.841 201.963 133.02 201.235 133.254C199.787 133.738 198.496 134.496 197.922 135.752C197.642 136.378 197.592 137.064 197.787 137.788C197.883 138.153 198.043 138.522 198.267 138.879C198.27 138.884 198.274 138.889 198.277 138.894C197.901 138.971 197.53 139.065 197.173 139.148C196.95 139.204 196.726 139.28 196.51 139.342C196.294 139.402 196.082 139.47 195.873 139.545C195.451 139.706 195.058 139.846 194.68 140.033C194.301 140.223 193.951 140.418 193.634 140.635C192.998 141.077 192.483 141.63 192.215 142.307C191.947 142.983 191.96 143.725 192.277 144.509C192.434 144.904 192.668 145.303 192.984 145.68C193.298 146.06 193.684 146.46 194.151 146.8C194.383 146.976 194.633 147.149 194.899 147.318C195.166 147.486 195.452 147.628 195.753 147.777C195.858 147.83 195.967 147.878 196.076 147.927C195.85 147.993 195.628 148.062 195.412 148.137C193.653 148.751 192.201 149.631 191.733 151.024C191.505 151.715 191.57 152.459 191.936 153.227C192.117 153.613 192.375 154.001 192.709 154.366C193.043 154.734 193.446 155.116 193.924 155.443C194.401 155.783 194.945 156.108 195.553 156.379C196.059 156.622 196.612 156.816 197.197 156.992C196.415 157.648 195.82 158.429 195.623 159.371C195.488 160.043 195.59 160.724 195.941 161.387C196.116 161.721 196.352 162.046 196.651 162.345C196.948 162.646 197.305 162.948 197.719 163.197C198.544 163.723 199.594 164.119 200.792 164.333C201.416 164.438 202.079 164.489 202.765 164.481C202.845 164.503 202.928 164.518 203.016 164.518C203.655 164.518 204.453 164.496 205.341 164.405C206.46 164.518 207.678 164.487 208.94 164.266C211.557 163.818 213.821 162.647 215.207 161.228C216.608 159.81 217.111 158.194 216.598 156.839C216.527 156.65 216.436 156.472 216.334 156.301C216.485 156.188 216.631 156.071 216.77 155.95C217.044 155.717 217.303 155.492 217.535 155.244C217.767 154.994 217.98 154.742 218.173 154.49C218.562 153.997 218.851 153.455 219.066 152.943C219.283 152.434 219.407 151.916 219.449 151.415C219.538 150.417 219.307 149.512 218.805 148.715Z" fill="#FFAF51"/>
<path d="M214.801 140.63C214.595 141.086 211.384 139.955 207.292 139.614C203.204 139.225 199.843 139.769 199.721 139.284C199.668 139.064 200.461 138.63 201.857 138.281C202.554 138.103 203.401 137.966 204.349 137.886C205.298 137.816 206.348 137.81 207.445 137.904C208.54 138.005 209.573 138.198 210.495 138.435C211.414 138.682 212.223 138.967 212.877 139.265C214.189 139.855 214.893 140.423 214.801 140.63Z" fill="#FF7751"/>
<path d="M213.955 147.775C214.012 147.997 213.191 148.444 211.762 148.861C210.337 149.278 208.297 149.631 206.024 149.67C203.75 149.704 201.7 149.416 200.263 149.045C198.821 148.674 197.986 148.254 198.036 148.03C198.15 147.547 201.673 148.039 205.996 147.953C210.32 147.901 213.826 147.296 213.955 147.775Z" fill="#FF7751"/>
<path d="M213.415 155.507C213.502 155.717 212.796 156.257 211.495 156.811C210.846 157.09 210.047 157.354 209.14 157.58C208.232 157.797 207.215 157.97 206.138 158.056C205.061 158.134 204.029 158.118 203.098 158.042C202.168 157.956 201.337 157.816 200.654 157.639C199.284 157.29 198.504 156.863 198.557 156.642C198.679 156.158 201.983 156.674 206.006 156.343C210.034 156.058 213.221 155.047 213.415 155.507Z" fill="#FF7751"/>
<path d="M217.108 153.932C216.982 153.726 217.104 153.413 217.237 153.037C217.376 152.661 217.531 152.204 217.592 151.718C217.652 151.233 217.614 150.751 217.571 150.352C217.535 149.955 217.494 149.622 217.666 149.453C217.827 149.291 218.229 149.352 218.641 149.775C219.047 150.185 219.414 150.992 219.298 151.93C219.18 152.868 218.626 153.561 218.132 153.858C217.629 154.168 217.225 154.129 217.108 153.932Z" fill="#FF7751"/>
<path d="M216.772 157.464C216.99 157.408 217.355 157.839 217.483 158.699C217.616 159.54 217.433 160.819 216.611 161.926C215.787 163.031 214.613 163.574 213.769 163.689C212.908 163.814 212.389 163.589 212.38 163.364C212.364 163.119 212.801 162.902 213.374 162.541C213.948 162.186 214.67 161.653 215.231 160.901C215.791 160.148 216.094 159.304 216.268 158.652C216.449 158 216.533 157.519 216.772 157.464Z" fill="#FF7751"/>
<path d="M205.645 146.429C205.409 146.377 205.262 146.082 205.132 145.695C205.003 145.304 204.882 144.815 204.739 144.281C204.592 143.748 204.449 143.265 204.362 142.863C204.278 142.464 204.256 142.135 204.433 141.971C204.602 141.812 204.963 141.866 205.369 142.183C205.772 142.495 206.194 143.085 206.398 143.832C206.6 144.579 206.535 145.301 206.345 145.774C206.155 146.252 205.871 146.481 205.645 146.429Z" fill="#FF7751"/>
<path d="M208.756 145.583C208.521 145.538 208.343 145.34 208.198 145.103C208.054 144.863 207.937 144.582 207.852 144.266C207.763 143.951 207.718 143.65 207.719 143.369C207.723 143.092 207.773 142.831 207.953 142.672C208.127 142.516 208.42 142.509 208.736 142.703C209.049 142.892 209.366 143.292 209.509 143.809C209.652 144.326 209.584 144.832 209.413 145.154C209.241 145.483 208.986 145.627 208.756 145.583Z" fill="#FF7751"/>
<path d="M208.634 135.969C208.833 135.305 208.627 134.655 208.172 134.519C207.717 134.383 207.187 134.811 206.987 135.476C206.788 136.141 206.994 136.79 207.449 136.926C207.903 137.063 208.434 136.634 208.634 135.969Z" fill="#FF7751"/>
<path d="M210.817 136.56C211.285 136.482 211.61 136.096 211.544 135.697C211.477 135.298 211.044 135.038 210.576 135.116C210.108 135.194 209.782 135.58 209.849 135.979C209.915 136.378 210.349 136.638 210.817 136.56Z" fill="#FF7751"/>
<path d="M205.992 154.969C205.815 154.807 205.793 154.521 205.817 154.202C205.844 153.88 205.916 153.518 206.013 153.128C206.106 152.736 206.21 152.382 206.333 152.083C206.458 151.789 206.61 151.545 206.842 151.482C207.066 151.42 207.344 151.579 207.542 151.957C207.741 152.329 207.833 152.92 207.683 153.534C207.534 154.147 207.18 154.63 206.832 154.869C206.482 155.114 206.163 155.128 205.992 154.969Z" fill="#FF7751"/>
<path d="M209.935 153.878C210.401 153.79 210.677 153.178 210.55 152.512C210.424 151.846 209.943 151.378 209.477 151.466C209.01 151.554 208.735 152.166 208.861 152.832C208.988 153.498 209.468 153.966 209.935 153.878Z" fill="#FF7751"/>
<path d="M206.729 162.687C206.561 162.515 206.536 162.246 206.555 161.96C206.578 161.672 206.645 161.362 206.749 161.036C206.85 160.709 206.973 160.416 207.12 160.166C207.268 159.921 207.443 159.714 207.679 159.669C207.908 159.624 208.166 159.779 208.335 160.128C208.504 160.472 208.559 161.009 208.389 161.55C208.219 162.092 207.866 162.501 207.53 162.686C207.191 162.876 206.891 162.855 206.729 162.687Z" fill="#FF7751"/>
<path fill-rule="evenodd" clip-rule="evenodd" d="M201.29 135.346C201.659 135.49 201.946 135.873 201.902 136.268C201.85 136.74 201.387 137.051 200.947 137.229C200.631 137.357 200.291 137.453 199.952 137.414C199.286 137.337 198.828 136.602 199.257 136.029C199.653 135.498 200.672 135.105 201.29 135.346Z" fill="#FF7751"/>
<path fill-rule="evenodd" clip-rule="evenodd" d="M195.781 142.406C196.323 142.113 196.954 142.213 197.442 142.672C197.829 143.034 198.14 143.729 198.003 144.382C197.91 144.828 197.635 145.134 197.349 145.32C196.632 145.786 195.762 145.613 195.123 144.951C194.729 144.543 194.533 144.244 194.809 143.587C195.036 143.049 195.382 142.622 195.781 142.406Z" fill="#FF7751"/>
<path fill-rule="evenodd" clip-rule="evenodd" d="M194.268 152.964C194.025 152.418 194.112 151.683 194.425 151.199C194.738 150.715 195.243 150.475 195.731 150.492C196.219 150.508 196.69 150.761 197.09 151.122C197.435 151.434 197.758 151.897 197.743 152.442C197.727 153.003 197.353 153.444 196.96 153.685C196.11 154.205 194.793 154.147 194.268 152.964Z" fill="#FF7751"/>
<path fill-rule="evenodd" clip-rule="evenodd" d="M197.564 161.56C197.305 161.347 197.104 161.038 197.104 160.702C197.103 160.369 197.298 160.062 197.546 159.84C197.956 159.473 198.537 159.294 199.077 159.397C199.618 159.501 200.101 159.898 200.277 160.419C200.454 160.94 200.3 161.565 199.882 161.922C199.175 162.527 198.184 162.067 197.564 161.56Z" fill="#FF7751"/>
<path d="M44.5208 296.974C44.0721 297.358 43.4276 297.408 42.9282 297.093C38.2303 294.123 30.0975 288.288 23.0216 279.729C13.7176 268.474 9 256.099 9 242.948C9 229.561 11.7166 217.406 17.074 206.823C21.6095 197.863 28.0568 189.986 36.237 183.412C50.366 172.057 66.2195 167.325 73.8385 165.051C74.5298 164.844 75.1516 164.659 75.6944 164.491L82.4223 186.133C81.8112 186.323 81.1112 186.532 80.3329 186.765C57.6834 193.525 31.6855 206.021 31.6855 242.948C31.6855 261.268 48.4688 273.737 54.8438 277.806C55.3302 278.117 55.558 278.702 55.4192 279.261C53.6421 286.427 49.9717 292.306 44.5208 296.974Z" fill="white"/>
<path d="M99.911 170.821C100.008 170.721 101.34 171.746 103.395 173.973C105.432 176.205 108.167 179.685 110.753 184.466C113.354 189.229 115.799 195.27 117.531 202.231C119.284 209.188 120.312 217.017 120.817 225.221C121.325 233.432 121.369 241.232 121.499 248.316C121.607 255.404 121.673 261.787 121.695 267.149C121.717 272.511 121.696 276.851 121.629 279.851C121.562 282.852 121.451 284.513 121.292 284.517C121.134 284.52 120.944 282.866 120.737 279.872C120.529 276.878 120.304 272.544 120.075 267.187C119.846 261.83 119.612 255.45 119.388 248.365C119.142 241.278 119.033 233.486 118.53 225.364C118.029 217.244 117.08 209.553 115.478 202.726C113.896 195.896 111.67 189.954 109.314 185.211C106.974 180.454 104.504 176.914 102.709 174.544C100.899 172.181 99.7852 170.946 99.911 170.821Z" fill="#439FC0"/>
<path d="M118.995 214.479C118.838 214.462 118.78 213.74 118.81 212.441C118.838 211.141 119.001 209.271 119.356 206.977C119.717 204.686 120.267 201.97 121.094 199.01C121.919 196.049 123.008 192.839 124.399 189.573C127.158 183.023 130.6 177.537 133.403 173.844C134.803 171.992 136.038 170.576 136.946 169.647C137.852 168.716 138.426 168.267 138.545 168.365C138.67 168.468 138.33 169.107 137.647 170.197C136.964 171.285 135.943 172.828 134.738 174.762C132.324 178.624 129.2 184.083 126.51 190.466C125.153 193.65 124.034 196.755 123.118 199.613C122.201 202.472 121.5 205.088 120.945 207.297C120.395 209.507 119.991 211.313 119.694 212.562C119.394 213.81 119.152 214.497 118.995 214.479Z" fill="#439FC0"/>
<path d="M144.694 164.047C144.853 164.008 145.176 164.745 145.688 166.081C146.197 167.418 146.902 169.354 147.888 171.69C148.874 174.026 150.131 176.768 151.738 179.696C152.543 181.159 153.429 182.672 154.402 184.204C154.648 184.585 154.898 184.969 155.149 185.356C155.657 186.112 156.17 186.873 156.686 187.64L156.886 187.936L156.986 188.085L157.011 188.122C157.01 188.13 156.988 188.13 156.977 188.134L156.898 188.153L156.257 188.306C155.829 188.409 155.399 188.512 154.968 188.615C154.536 188.718 154.103 188.821 153.668 188.925L153.521 188.96L153.434 188.984L153.261 189.031L152.913 189.124C149.192 190.098 145.74 191.358 142.674 192.674C139.615 194.01 136.946 195.412 134.752 196.68C130.367 199.226 127.832 201.144 127.608 200.874C127.423 200.664 129.608 198.283 133.884 195.312C136.021 193.835 138.69 192.24 141.8 190.753C144.917 189.287 148.472 187.92 152.327 186.911C152.548 186.852 152.768 186.793 152.987 186.734L153.102 186.707L153.289 186.666C153.289 186.666 153.291 186.664 153.291 186.663L153.291 186.66V186.658C153.294 186.662 153.285 186.646 153.298 186.667L153.251 186.592C152.997 186.189 152.746 185.789 152.497 185.392C151.519 183.794 150.645 182.211 149.868 180.677C148.317 177.605 147.181 174.719 146.37 172.255C145.557 169.791 145.078 167.745 144.828 166.318C144.575 164.892 144.546 164.083 144.694 164.047Z" fill="#439FC0"/>
<path d="M232.849 166.054C233.113 166.187 232.874 167.366 231.924 169.027C231.8 169.232 231.671 169.446 231.536 169.669C231.397 169.89 231.232 170.104 231.069 170.334C230.749 170.798 230.352 171.25 229.937 171.729C229.078 172.66 228.039 173.603 226.84 174.449C225.633 175.282 224.388 175.931 223.217 176.416C222.623 176.641 222.063 176.857 221.516 176.997C221.244 177.071 220.986 177.151 220.73 177.205C220.474 177.255 220.228 177.303 219.994 177.348C218.104 177.667 216.915 177.485 216.88 177.192C216.836 176.859 217.914 176.471 219.544 175.793C219.748 175.708 219.961 175.618 220.182 175.525C220.404 175.434 220.627 175.319 220.862 175.214C221.335 175.013 221.819 174.752 222.335 174.499C223.351 173.958 224.439 173.322 225.527 172.571C226.608 171.808 227.581 171.008 228.439 170.241C228.855 169.845 229.267 169.481 229.619 169.106C229.798 168.922 229.983 168.752 230.145 168.576C230.309 168.4 230.466 168.231 230.616 168.07C231.815 166.775 232.552 165.898 232.849 166.054Z" fill="#439FC0"/>
<path d="M217.125 174.702C217.675 174.39 217.825 173.614 217.458 172.969C217.092 172.323 216.348 172.053 215.798 172.365C215.247 172.677 215.098 173.453 215.464 174.098C215.831 174.744 216.574 175.014 217.125 174.702Z" fill="#439FC0"/>
<path d="M110.772 198.07C110.66 198.182 109.969 197.728 108.825 196.826C107.642 195.968 106.004 194.652 103.842 193.23C101.694 191.796 99.0578 190.209 95.9949 188.728C92.9377 187.237 89.4328 185.906 85.658 184.861C85.1886 184.721 84.7112 184.622 84.2432 184.501C83.7728 184.391 83.31 184.258 82.841 184.171C82.3739 184.075 81.9105 183.979 81.4505 183.884C81.221 183.834 80.9914 183.789 80.7613 183.755C80.419 183.699 80.0784 183.643 79.7391 183.588C79.282 183.513 78.8267 183.439 78.3736 183.365L77.6964 183.255L77.5279 183.227L77.4438 183.213L77.4018 183.206C77.3898 183.203 77.4095 183.183 77.4118 183.173L77.5653 182.865C77.9699 182.054 78.3706 181.251 78.7673 180.457C79.1793 179.65 79.5826 178.859 79.9763 178.088C81.5576 175.005 83.0101 172.244 84.2598 169.939C86.7592 165.33 88.447 162.549 88.7312 162.689C89.0154 162.828 87.8415 165.862 85.7144 170.654C84.6508 173.05 83.3487 175.885 81.8715 179.019C81.5005 179.801 81.1202 180.603 80.7316 181.422C80.7159 181.467 80.7229 181.465 80.7206 181.48C80.7266 181.488 80.7509 181.479 80.7663 181.48C80.7749 181.48 80.7643 181.478 80.7879 181.481L81.1472 181.535C81.3881 181.568 81.6276 181.612 81.8675 181.661C82.3479 181.755 82.8323 181.85 83.32 181.945C83.8101 182.032 84.2929 182.167 84.7839 182.28C85.2723 182.404 85.7701 182.507 86.2595 182.652C90.1944 183.74 93.8244 185.192 96.9447 186.844C100.071 188.487 102.709 190.276 104.797 191.923C106.899 193.557 108.413 195.094 109.428 196.17C110.405 197.29 110.884 197.959 110.772 198.07Z" fill="#439FC0"/>
<path d="M103.467 168.383C101.965 167.691 100.961 166.326 100.838 164.779C99.7082 150.508 92.4652 85.966 111.076 72.9056C129.723 59.8207 155.684 65.5173 160.388 81.4291C166.3 101.427 167.471 139.655 158.575 145.376C149.679 151.098 137.224 149.082 137.224 149.082L135.868 163.893C135.738 165.311 134.871 166.586 133.541 167.304C123.878 172.521 113.876 173.18 103.467 168.383Z" fill="#FFAF51"/>
<path d="M120.607 46.7683C122.089 51.1825 123.674 53.4348 123.674 53.4348C123.674 53.4348 82.5103 49.4355 82.5103 101.87C82.5103 128.975 94.8502 141.401 98.9943 141.87C106.735 142.229 109.083 137.477 109.083 127.295V109.175C109.083 106.881 110.879 104.914 113.175 104.872C115.514 104.829 117.424 106.71 117.424 109.037V121.904C117.424 123.236 118.357 124.389 119.663 124.658C121.777 125.093 123.436 125.294 124.156 123.868C125.419 121.369 119.347 95.6302 129.069 91.5982C138.283 87.7766 140.424 96.4774 152.311 96.4774C161.651 96.4774 170.279 91.2053 168.771 77.2888C167.206 62.8407 154.532 46.1877 121.245 45.8848C120.787 45.8808 120.461 46.3347 120.607 46.7683Z" fill="#022B42"/>
<path d="M161.04 109.198C161.04 112.867 159.529 115.84 157.667 115.84C155.806 115.84 154.298 112.867 154.298 109.198C154.298 107.878 154.491 106.652 154.832 105.619H160.506C160.846 106.652 161.04 107.878 161.04 109.198Z" fill="#022B42"/>
<path d="M154.96 106.764C158.922 106.764 162.134 106.251 162.134 105.619C162.134 104.987 158.922 104.474 154.96 104.474C150.998 104.474 147.786 104.987 147.786 105.619C147.786 106.251 150.998 106.764 154.96 106.764Z" fill="#022B42"/>
<path d="M140.69 109.198C140.69 112.867 139.179 115.84 137.317 115.84C135.455 115.84 133.948 112.867 133.948 109.198C133.948 107.878 134.141 106.652 134.481 105.619H140.156C140.496 106.652 140.69 107.878 140.69 109.198Z" fill="#022B42"/>
<path d="M134.61 106.764C138.572 106.764 141.784 106.251 141.784 105.619C141.784 104.987 138.572 104.474 134.61 104.474C130.648 104.474 127.436 104.987 127.436 105.619C127.436 106.251 130.648 106.764 134.61 106.764Z" fill="#022B42"/>
<path d="M147.354 124.942C147.328 124.785 147.499 124.606 147.818 124.412C148.135 124.215 148.605 124.008 149.109 123.74C149.36 123.607 149.616 123.454 149.855 123.278C149.975 123.192 150.089 123.094 150.196 122.995C150.289 122.901 150.383 122.801 150.465 122.685C150.632 122.459 150.774 122.188 150.838 121.927C150.913 121.663 150.9 121.43 150.843 121.253C150.779 121.075 150.673 120.919 150.469 120.78C150.273 120.638 150 120.535 149.724 120.482C149.586 120.459 149.445 120.439 149.31 120.439C149.241 120.433 149.177 120.441 149.11 120.44C149.037 120.449 148.965 120.45 148.893 120.463C148.606 120.499 148.323 120.569 148.055 120.651C147.518 120.817 147.045 121.008 146.685 121.101C146.325 121.197 146.077 121.199 145.982 121.072C145.886 120.947 145.947 120.708 146.156 120.383C146.368 120.061 146.723 119.642 147.306 119.215C147.598 119.004 147.955 118.796 148.385 118.633C148.491 118.59 148.605 118.558 148.72 118.521C148.842 118.491 148.969 118.455 149.099 118.436C149.357 118.388 149.627 118.374 149.906 118.38C150.46 118.402 151.06 118.53 151.642 118.866C152.221 119.188 152.773 119.786 153.017 120.525C153.264 121.268 153.191 122.024 152.975 122.618C152.764 123.225 152.421 123.712 152.029 124.104C151.833 124.301 151.617 124.468 151.395 124.614C151.181 124.748 150.971 124.859 150.762 124.947C150.346 125.125 149.953 125.226 149.601 125.283C148.896 125.395 148.352 125.358 147.974 125.289C147.595 125.216 147.38 125.097 147.354 124.942Z" fill="#022B42"/>
<path d="M143.407 127.309C143.671 127.1 144.344 127.597 145.459 127.969C146.014 128.156 146.684 128.316 147.422 128.34C147.79 128.358 148.173 128.339 148.556 128.277C148.941 128.221 149.327 128.121 149.695 127.966C150.051 127.837 150.331 127.642 150.569 127.433C150.8 127.221 150.925 127.011 150.971 126.88C151.008 126.75 151.027 126.626 150.938 126.458C150.855 126.289 150.676 126.113 150.485 125.985C150.096 125.724 149.578 125.594 149.224 125.463C148.862 125.335 148.64 125.199 148.634 125.04C148.628 124.883 148.821 124.718 149.208 124.572C149.402 124.501 149.648 124.434 149.956 124.4C150.266 124.369 150.632 124.364 151.072 124.476C151.502 124.591 151.974 124.805 152.399 125.242C152.609 125.459 152.8 125.742 152.924 126.078C153.042 126.408 153.099 126.784 153.065 127.158C152.988 127.911 152.611 128.536 152.168 129.008C151.943 129.245 151.694 129.453 151.424 129.635C151.289 129.727 151.147 129.81 151.001 129.889L150.775 129.999L150.558 130.087C149.982 130.328 149.386 130.459 148.813 130.506C148.239 130.56 147.685 130.529 147.174 130.435C146.147 130.261 145.296 129.846 144.68 129.389C144.062 128.93 143.673 128.439 143.485 128.055C143.297 127.667 143.286 127.405 143.407 127.309Z" fill="#022B42"/>
<path d="M135.04 148.961C135.079 149.265 134.46 149.651 133.358 149.86C132.809 149.968 132.143 150.013 131.404 149.983C130.667 149.945 129.858 149.826 129.034 149.599C128.212 149.366 127.459 149.049 126.809 148.7C126.162 148.342 125.617 147.958 125.203 147.582C124.369 146.832 124.04 146.181 124.231 145.941C124.432 145.686 125.095 145.864 126.041 146.196C126.505 146.36 127.057 146.556 127.671 146.773C128.28 146.977 128.945 147.193 129.652 147.394C130.36 147.588 131.041 147.748 131.668 147.89C132.305 148.022 132.879 148.141 133.361 148.241C134.341 148.448 135.001 148.638 135.04 148.961Z" fill="#022B42"/>
<path fill-rule="evenodd" clip-rule="evenodd" d="M112.036 110.71C112.124 110.322 112.323 109.9 112.707 109.799C113.055 109.707 113.411 109.92 113.667 110.173C114.454 110.953 114.704 112.224 114.272 113.243C114.134 113.568 113.925 113.875 113.626 114.063C111.955 115.114 111.84 111.577 112.036 110.71Z" fill="#022B42"/>
<path d="M111.327 59.4804C111.386 59.6687 111.041 59.991 110.384 60.4053C110.22 60.5089 110.036 60.6182 109.834 60.7326C109.636 60.8559 109.421 60.9895 109.191 61.1332C108.732 61.4201 108.192 61.6997 107.633 62.0776C107.348 62.2549 107.051 62.4406 106.741 62.6342C106.432 62.8268 106.127 63.0565 105.801 63.2731C105.142 63.6957 104.485 64.2169 103.78 64.7355C102.404 65.8236 100.953 67.0867 99.5483 68.5355C98.1604 70.0006 96.9598 71.5026 95.9313 72.9234C95.4432 73.6502 94.9504 74.3278 94.5564 75.004C94.3539 75.3386 94.1371 75.6529 93.9579 75.9698C93.7778 76.2878 93.605 76.5927 93.4402 76.884C93.0866 77.4589 92.83 78.0091 92.5628 78.48C92.429 78.7167 92.3046 78.9366 92.1898 79.1396C92.0841 79.3462 91.983 79.5345 91.8862 79.7028C91.5006 80.3764 91.193 80.735 91.0022 80.6836C90.8113 80.6323 90.755 80.1731 90.8227 79.3675C90.8397 79.1662 90.8644 78.9433 90.8967 78.7C90.9354 78.4587 90.9972 78.2028 91.0599 77.9251C91.1943 77.3736 91.3334 76.7337 91.5873 76.0641C91.7091 75.7259 91.8369 75.3716 91.97 75.0027C92.1087 74.6351 92.2896 74.2701 92.4617 73.8832C92.795 73.1023 93.247 72.3188 93.7164 71.4873C94.7069 69.8586 95.9586 68.1579 97.4782 66.5562C99.0141 64.9705 100.661 63.6474 102.247 62.5882C103.058 62.0836 103.822 61.5984 104.588 61.2321C104.968 61.0435 105.325 60.8472 105.687 60.6929C106.05 60.5443 106.399 60.4013 106.732 60.265C107.39 59.9824 108.024 59.8161 108.57 59.6577C108.845 59.5831 109.098 59.5104 109.338 59.4615C109.58 59.4185 109.801 59.3841 110.002 59.3585C110.806 59.2558 111.267 59.2921 111.327 59.4804Z" fill="#439FC0"/>
<path d="M95.0105 90.7562C94.6292 90.7985 94.1668 90.0913 93.9339 88.8262C93.8148 88.196 93.7745 87.4331 93.8278 86.5886C93.8922 85.7464 94.057 84.8239 94.3533 83.8917C94.6572 82.9619 95.0622 82.1167 95.5019 81.3952C95.9519 80.6783 96.43 80.0821 96.8951 79.6398C97.8232 78.748 98.6118 78.4434 98.8967 78.7C99.1996 78.97 98.9768 79.7265 98.5701 80.7783C98.3676 81.2922 98.1264 81.9041 97.8589 82.5833C97.606 83.2568 97.3364 83.9894 97.0805 84.7689C96.833 85.5511 96.6242 86.3033 96.436 86.9975C96.2565 87.705 96.0951 88.3423 95.9593 88.8778C95.675 89.9693 95.4142 90.7132 95.0105 90.7562Z" fill="#439FC0"/>
<path d="M99.9807 137.061C99.8936 137.232 99.4809 137.241 98.811 137.044C98.1408 136.851 97.228 136.423 96.2028 135.726C95.1763 135.032 94.0637 134.043 93.0049 132.799C91.9456 131.555 90.9548 130.051 90.1195 128.381C89.2948 126.711 88.6923 125.055 88.2522 123.536C87.8122 122.016 87.523 120.632 87.3371 119.464C86.9718 117.127 86.9822 115.647 87.3605 115.548C87.7478 115.448 88.4364 116.768 89.2911 118.929C90.1575 121.083 91.185 124.069 92.6853 127.108C94.1825 130.139 95.9967 132.583 97.5166 134.186C99.0212 135.804 100.169 136.685 99.9807 137.061Z" fill="#439FC0"/>
<path d="M131.662 86.1001C131.633 86.5097 130.75 86.7579 129.527 87.2372C128.304 87.7064 126.717 88.4706 125.331 89.7187C123.948 90.9695 123.026 92.4686 122.434 93.637C121.833 94.8035 121.496 95.6563 121.085 95.643C120.891 95.6354 120.707 95.4034 120.58 94.9631C120.451 94.5239 120.396 93.8763 120.486 93.0811C120.574 92.287 120.827 91.3508 121.301 90.387C121.772 89.4245 122.479 88.4423 123.411 87.5945C124.35 86.7539 125.399 86.1514 126.405 85.7808C127.413 85.4075 128.371 85.2515 129.171 85.2446C129.972 85.2362 130.611 85.3559 131.036 85.5282C131.461 85.7005 131.674 85.9058 131.662 86.1001Z" fill="#439FC0"/>
</g>
<defs>
<clipPath id="clip0">
<rect width="250" height="250" fill="white"/>
</clipPath>
</defs>
</svg>
