<svg width="250" height="250" viewBox="0 0 250 250" fill="none" xmlns="http://www.w3.org/2000/svg">
<g clip-path="url(#clip0)">
<path d="M20.8136 7.79953C31.9612 -4.60991 204.404 -1.97518 215.934 14.0198C227.464 30.0148 223.029 194.408 203.517 199.739C184.005 205.071 26.1351 206.848 18.1529 195.296C10.1707 183.744 12.8314 16.6856 20.8136 7.79953Z" fill="#00ACDC"/>
<path d="M159.143 292.206C157.802 302.495 161.182 306.984 155.879 310.126C127.479 317.219 100.057 316.533 71.7571 310.126C71.7571 296.598 61.6913 218.788 55.9393 201.069C51.4708 187.31 62.6188 177.449 86.234 173.732C93.0249 172.661 100.844 172.101 109.623 172.101C125.052 172.101 136.898 172.137 145.597 175.107C159.061 179.704 164.985 191.322 164.985 220.702C164.985 253.01 161.207 276.386 159.143 292.206Z" fill="white"/>
<path d="M205.305 254.763C197.952 254.763 189.367 252.361 180.416 244.913C171.89 237.818 164.868 227.764 158.673 218.895C155.26 214.008 152.035 209.392 149.032 205.918C145.594 201.94 143.992 201.284 143.82 201.222L152.112 178.249C162.773 182.089 170.519 193.179 178.72 204.92C192.501 224.65 200.173 232.895 209.201 229.598C217.593 226.533 222.634 221.727 224.613 214.905C227.543 204.802 223.19 191.881 217.375 184.34L236.743 169.438C241.902 176.13 245.941 184.545 248.116 193.133C250.636 203.081 250.628 212.959 248.093 221.701C245.179 231.75 237.522 245.256 217.596 252.534C214.145 253.794 209.973 254.763 205.305 254.763Z" fill="white"/>
<path d="M229.482 180.098C234.867 176.048 238.153 171.332 236.821 169.566C235.49 167.799 230.045 169.651 224.661 173.701C219.276 177.751 215.99 182.467 217.321 184.233C218.652 186 224.097 184.148 229.482 180.098Z" fill="#00AEE0"/>
<path d="M145.597 175.107C138.059 182.624 122.575 200.828 118.527 226.808C116.076 219.058 110.845 189.35 86.2339 173.732C93.0247 172.661 100.844 172.101 109.623 172.101C125.052 172.101 136.898 172.137 145.597 175.107Z" fill="#FFB400"/>
<path fill-rule="evenodd" clip-rule="evenodd" d="M104.348 239.431C104.255 238.237 105.014 237.066 106.076 236.511C107.342 235.849 109.035 236.055 110.039 237.071C111.043 238.087 111.203 239.856 110.326 240.982C108.834 242.897 104.546 241.998 104.348 239.431Z" fill="#00AEE0"/>
<path fill-rule="evenodd" clip-rule="evenodd" d="M185.019 178.952C193.692 181.291 202.561 181.388 211.604 179.506C214.09 178.989 215.897 176.836 215.994 174.301C216.402 163.608 216.415 153.046 216.001 142.626C215.901 140.116 214.117 137.983 211.66 137.45C202.79 135.528 193.922 135.842 185.054 138.078C184.058 138.329 183.298 139.147 183.138 140.16C181.206 152.4 181.208 164.64 183.143 176.879C183.301 177.879 184.042 178.688 185.019 178.952Z" fill="#00AEE0"/>
<path d="M199.677 141.446C206.364 141.446 211.784 140.851 211.784 140.117C211.784 139.382 206.364 138.787 199.677 138.787C192.99 138.787 187.569 139.382 187.569 140.117C187.569 140.851 192.99 141.446 199.677 141.446Z" fill="#04294F"/>
<path fill-rule="evenodd" clip-rule="evenodd" d="M234.347 170.39C235.001 171.176 235.067 172.299 234.499 173.148C233.261 174.998 231.015 177.27 228.192 179.397C226.027 181.025 223.87 182.304 222.025 183.117C220.946 183.592 219.684 183.185 219.088 182.17L217.932 180.202L213.312 172.319L224.589 158.656L233.497 169.369L234.347 170.39Z" fill="#FFB400"/>
<path fill-rule="evenodd" clip-rule="evenodd" d="M226.084 160.252C225.689 159.625 225.17 159.1 224.59 158.657C224.706 158.526 224.82 158.396 224.929 158.268C226.454 156.374 226.842 154.496 226.084 153.135C225.585 152.241 224.661 151.672 223.496 151.352C223.573 151.206 223.646 151.057 223.706 150.901C223.98 150.165 224.002 149.382 223.754 148.577C223.631 148.171 223.439 147.772 223.182 147.383C222.925 146.989 222.603 146.6 222.221 146.243C221.456 145.504 220.448 144.879 219.267 144.39C218.459 144.066 217.566 143.828 216.627 143.68C216.14 143.518 215.635 143.377 215.115 143.271C214.249 143.081 213.345 142.97 212.394 142.936C211.443 142.891 210.533 142.925 209.655 143.043C208.781 143.147 207.935 143.34 207.151 143.592C205.591 144.113 204.199 144.93 203.581 146.284C203.279 146.958 203.225 147.698 203.435 148.478C203.539 148.871 203.711 149.269 203.952 149.654C203.956 149.659 203.96 149.665 203.963 149.67C203.558 149.753 203.158 149.854 202.774 149.944C202.533 150.004 202.292 150.086 202.059 150.152C201.827 150.217 201.598 150.29 201.372 150.371C200.918 150.545 200.495 150.696 200.088 150.897C199.679 151.101 199.302 151.311 198.96 151.546C198.275 152.022 197.72 152.618 197.431 153.347C197.143 154.076 197.156 154.876 197.497 155.72C197.667 156.146 197.919 156.576 198.26 156.982C198.598 157.392 199.014 157.823 199.517 158.19C199.767 158.378 200.036 158.565 200.323 158.748C200.611 158.929 200.919 159.081 201.243 159.241C201.356 159.299 201.474 159.351 201.592 159.404C201.348 159.475 201.109 159.549 200.876 159.63C198.981 160.291 197.416 161.239 196.911 162.74C196.666 163.486 196.736 164.287 197.13 165.115C197.326 165.531 197.603 165.949 197.964 166.342C198.323 166.739 198.757 167.151 199.273 167.503C199.786 167.869 200.373 168.22 201.028 168.511C201.573 168.774 202.169 168.982 202.8 169.171C201.957 169.879 201.315 170.72 201.103 171.736C200.958 172.46 201.068 173.193 201.446 173.908C201.634 174.268 201.889 174.618 202.211 174.94C202.531 175.264 202.916 175.59 203.361 175.859C204.25 176.426 205.382 176.852 206.674 177.082C207.345 177.195 208.06 177.251 208.8 177.242C208.886 177.266 208.975 177.282 209.07 177.282C209.758 177.282 210.618 177.258 211.575 177.16C212.782 177.282 214.093 177.248 215.454 177.01C218.273 176.528 220.713 175.265 222.207 173.737C223.716 172.209 224.259 170.468 223.706 169.007C223.629 168.803 223.531 168.612 223.421 168.427C223.584 168.305 223.741 168.18 223.892 168.049C224.186 167.798 224.465 167.556 224.716 167.288C224.966 167.018 225.195 166.747 225.402 166.476C225.822 165.944 226.134 165.36 226.366 164.809C226.599 164.261 226.733 163.703 226.778 163.162C226.874 162.087 226.624 161.112 226.084 160.252Z" fill="#FFB400"/>
<path d="M221.769 151.542C221.547 152.033 218.087 150.814 213.677 150.447C209.272 150.028 205.651 150.614 205.519 150.091C205.461 149.854 206.316 149.386 207.821 149.01C208.572 148.819 209.484 148.671 210.506 148.585C211.528 148.509 212.66 148.502 213.842 148.604C215.022 148.713 216.135 148.92 217.128 149.176C218.119 149.442 218.991 149.749 219.695 150.07C221.109 150.707 221.868 151.318 221.769 151.542Z" fill="#F04E23"/>
<path d="M220.857 159.241C220.919 159.481 220.034 159.963 218.494 160.411C216.958 160.861 214.76 161.242 212.311 161.283C209.861 161.32 207.652 161.01 206.102 160.61C204.549 160.21 203.649 159.757 203.703 159.516C203.826 158.996 207.622 159.526 212.281 159.433C216.94 159.377 220.718 158.726 220.857 159.241Z" fill="#F04E23"/>
<path d="M220.276 167.573C220.369 167.799 219.608 168.381 218.206 168.978C217.507 169.278 216.646 169.563 215.669 169.807C214.69 170.04 213.594 170.227 212.434 170.319C211.273 170.404 210.161 170.386 209.158 170.304C208.155 170.212 207.26 170.061 206.524 169.87C205.048 169.494 204.207 169.034 204.265 168.796C204.396 168.275 207.956 168.83 212.292 168.474C216.632 168.167 220.067 167.077 220.276 167.573Z" fill="#F04E23"/>
<path d="M224.255 165.876C224.119 165.654 224.25 165.317 224.393 164.912C224.543 164.507 224.71 164.014 224.777 163.491C224.841 162.967 224.8 162.448 224.754 162.019C224.714 161.59 224.67 161.232 224.856 161.05C225.03 160.875 225.462 160.94 225.906 161.397C226.344 161.838 226.739 162.708 226.615 163.719C226.487 164.729 225.891 165.476 225.358 165.797C224.816 166.131 224.38 166.088 224.255 165.876Z" fill="#F04E23"/>
<path d="M223.893 169.682C224.128 169.622 224.521 170.087 224.659 171.013C224.802 171.919 224.605 173.297 223.719 174.49C222.831 175.681 221.566 176.266 220.657 176.39C219.729 176.525 219.17 176.282 219.16 176.04C219.143 175.776 219.613 175.542 220.231 175.153C220.85 174.771 221.628 174.197 222.233 173.386C222.836 172.574 223.162 171.665 223.35 170.962C223.545 170.259 223.635 169.742 223.893 169.682Z" fill="#F04E23"/>
<path d="M211.902 157.792C211.649 157.735 211.489 157.418 211.35 157C211.211 156.579 211.08 156.052 210.926 155.477C210.768 154.903 210.614 154.382 210.52 153.949C210.43 153.518 210.406 153.164 210.596 152.987C210.779 152.816 211.167 152.874 211.605 153.216C212.04 153.552 212.494 154.188 212.713 154.993C212.932 155.797 212.862 156.576 212.656 157.085C212.452 157.601 212.146 157.847 211.902 157.792Z" fill="#F04E23"/>
<path d="M215.255 156.879C215.002 156.831 214.81 156.617 214.654 156.362C214.498 156.103 214.373 155.8 214.28 155.46C214.185 155.12 214.137 154.796 214.138 154.494C214.142 154.195 214.196 153.913 214.389 153.742C214.577 153.574 214.893 153.567 215.233 153.776C215.571 153.979 215.913 154.41 216.066 154.967C216.22 155.524 216.148 156.069 215.963 156.417C215.777 156.771 215.503 156.927 215.255 156.879Z" fill="#F04E23"/>
<path d="M215.123 146.52C215.338 145.804 215.116 145.104 214.626 144.957C214.136 144.81 213.565 145.272 213.349 145.989C213.134 146.705 213.357 147.405 213.847 147.552C214.337 147.698 214.908 147.237 215.123 146.52Z" fill="#F04E23"/>
<path d="M217.475 147.156C217.98 147.072 218.331 146.656 218.259 146.226C218.187 145.796 217.72 145.516 217.216 145.6C216.711 145.684 216.36 146.1 216.432 146.53C216.504 146.96 216.971 147.24 217.475 147.156Z" fill="#F04E23"/>
<path d="M212.276 166.994C212.086 166.819 212.062 166.51 212.087 166.167C212.117 165.82 212.195 165.43 212.299 165.009C212.4 164.588 212.511 164.206 212.644 163.884C212.779 163.567 212.942 163.304 213.192 163.236C213.434 163.169 213.733 163.34 213.947 163.748C214.161 164.148 214.26 164.786 214.099 165.447C213.938 166.108 213.557 166.629 213.182 166.886C212.804 167.15 212.46 167.164 212.276 166.994Z" fill="#F04E23"/>
<path d="M216.525 165.818C217.028 165.723 217.324 165.064 217.188 164.346C217.052 163.629 216.534 163.124 216.031 163.219C215.529 163.314 215.232 163.973 215.368 164.691C215.505 165.409 216.023 165.913 216.525 165.818Z" fill="#F04E23"/>
<path d="M213.071 175.311C212.89 175.125 212.864 174.835 212.884 174.527C212.908 174.216 212.98 173.882 213.093 173.531C213.201 173.179 213.334 172.863 213.492 172.594C213.652 172.33 213.84 172.107 214.094 172.058C214.341 172.01 214.62 172.177 214.802 172.553C214.984 172.924 215.043 173.502 214.86 174.086C214.676 174.669 214.296 175.11 213.934 175.309C213.569 175.514 213.246 175.491 213.071 175.311Z" fill="#F04E23"/>
<path fill-rule="evenodd" clip-rule="evenodd" d="M207.209 145.847C207.607 146.002 207.916 146.416 207.868 146.84C207.812 147.349 207.314 147.684 206.839 147.876C206.499 148.014 206.132 148.118 205.768 148.076C205.05 147.993 204.556 147.201 205.018 146.583C205.445 146.011 206.543 145.588 207.209 145.847Z" fill="#F04E23"/>
<path fill-rule="evenodd" clip-rule="evenodd" d="M201.273 153.455C201.857 153.139 202.536 153.247 203.063 153.741C203.48 154.132 203.815 154.881 203.668 155.585C203.568 156.065 203.271 156.395 202.963 156.595C202.19 157.097 201.252 156.911 200.564 156.198C200.139 155.758 199.928 155.435 200.226 154.727C200.47 154.148 200.843 153.688 201.273 153.455Z" fill="#F04E23"/>
<path fill-rule="evenodd" clip-rule="evenodd" d="M199.642 164.833C199.38 164.243 199.474 163.451 199.811 162.93C200.149 162.409 200.693 162.15 201.218 162.168C201.744 162.186 202.252 162.458 202.683 162.847C203.056 163.184 203.403 163.683 203.387 164.269C203.369 164.875 202.967 165.35 202.543 165.609C201.627 166.17 200.209 166.106 199.642 164.833Z" fill="#F04E23"/>
<path fill-rule="evenodd" clip-rule="evenodd" d="M203.195 174.095C202.915 173.866 202.699 173.532 202.698 173.17C202.698 172.812 202.908 172.481 203.175 172.242C203.617 171.846 204.242 171.653 204.825 171.764C205.408 171.876 205.928 172.304 206.118 172.865C206.308 173.426 206.143 174.1 205.692 174.485C204.93 175.137 203.862 174.642 203.195 174.095Z" fill="#F04E23"/>
<path d="M38.2769 320.015C37.7934 320.429 37.0988 320.483 36.5607 320.143C31.4982 316.943 22.7345 310.656 15.1096 301.432C5.08362 289.304 0 275.968 0 261.797C0 247.371 2.92737 234.274 8.7005 222.869C13.5878 213.214 20.5354 204.726 29.3503 197.642C44.5756 185.406 61.6592 180.306 69.8693 177.856C70.6142 177.633 71.2843 177.434 71.8692 177.252L79.1191 200.574C78.4605 200.779 77.7063 201.004 76.8676 201.255C52.4608 208.54 24.4457 222.005 24.4457 261.797C24.4457 281.539 42.5312 294.975 49.4007 299.36C49.9249 299.695 50.1704 300.325 50.0209 300.928C48.1058 308.65 44.1507 314.985 38.2769 320.015Z" fill="white"/>
<path d="M97.9645 184.074C98.0691 183.967 99.5038 185.071 101.718 187.471C103.914 189.875 106.861 193.626 109.648 198.778C112.451 203.911 115.085 210.42 116.951 217.921C118.841 225.417 119.948 233.854 120.493 242.695C121.04 251.543 121.087 259.948 121.228 267.582C121.344 275.219 121.415 282.098 121.439 287.876C121.463 293.654 121.44 298.331 121.368 301.564C121.296 304.797 121.175 306.587 121.005 306.591C120.834 306.595 120.63 304.813 120.406 301.586C120.183 298.36 119.94 293.689 119.693 287.917C119.446 282.144 119.194 275.269 118.953 267.634C118.687 259.998 118.57 251.601 118.028 242.849C117.488 234.099 116.466 225.811 114.739 218.455C113.035 211.095 110.636 204.691 108.098 199.581C105.575 194.454 102.914 190.639 100.98 188.086C99.029 185.54 97.829 184.208 97.9645 184.074Z" fill="#00AEE0"/>
<path d="M118.529 231.121C118.36 231.102 118.297 230.324 118.329 228.923C118.359 227.523 118.535 225.508 118.918 223.036C119.307 220.567 119.9 217.641 120.791 214.45C121.68 211.26 122.853 207.801 124.353 204.281C127.326 197.224 131.034 191.311 134.055 187.332C135.564 185.337 136.894 183.81 137.872 182.809C138.849 181.806 139.467 181.322 139.596 181.428C139.731 181.539 139.364 182.228 138.629 183.402C137.892 184.575 136.792 186.238 135.494 188.321C132.892 192.483 129.526 198.365 126.627 205.244C125.165 208.675 123.959 212.02 122.972 215.101C121.983 218.181 121.229 221 120.63 223.381C120.037 225.762 119.602 227.709 119.282 229.054C118.959 230.399 118.699 231.14 118.529 231.121Z" fill="#00AEE0"/>
<path d="M146.222 176.775C146.394 176.733 146.742 177.527 147.293 178.967C147.842 180.407 148.602 182.493 149.665 185.011C150.726 187.528 152.081 190.483 153.813 193.638C154.68 195.215 155.635 196.844 156.683 198.496C156.949 198.906 157.218 199.32 157.488 199.737C158.036 200.551 158.589 201.371 159.145 202.198L159.36 202.517L159.468 202.678L159.495 202.717C159.494 202.726 159.47 202.726 159.459 202.731L159.373 202.751L158.683 202.916C158.221 203.027 157.758 203.138 157.294 203.249C156.828 203.36 156.361 203.471 155.893 203.583L155.734 203.621L155.641 203.646L155.454 203.697L155.079 203.798C151.069 204.847 147.35 206.205 144.046 207.623C140.75 209.063 137.873 210.573 135.509 211.939C130.784 214.683 128.053 216.749 127.811 216.459C127.611 216.232 129.966 213.667 134.574 210.465C136.877 208.874 139.752 207.155 143.104 205.553C146.463 203.973 150.294 202.499 154.448 201.412C154.685 201.349 154.923 201.285 155.159 201.222L155.283 201.193L155.485 201.149C155.485 201.149 155.486 201.147 155.486 201.145L155.487 201.142V201.14C155.49 201.144 155.48 201.128 155.494 201.15L155.443 201.069C155.17 200.635 154.899 200.203 154.63 199.776C153.577 198.053 152.635 196.348 151.798 194.695C150.126 191.385 148.903 188.274 148.028 185.62C147.152 182.964 146.636 180.76 146.367 179.222C146.095 177.685 146.063 176.813 146.222 176.775Z" fill="#00AEE0"/>
<path d="M241.218 178.937C241.502 179.08 241.244 180.351 240.22 182.141C240.087 182.361 239.947 182.592 239.802 182.833C239.653 183.071 239.475 183.302 239.299 183.549C238.954 184.049 238.527 184.536 238.079 185.053C237.154 186.056 236.034 187.072 234.742 187.983C233.441 188.881 232.1 189.581 230.838 190.103C230.198 190.345 229.594 190.578 229.005 190.729C228.712 190.809 228.434 190.896 228.158 190.954C227.882 191.007 227.617 191.059 227.364 191.108C225.329 191.452 224.047 191.255 224.009 190.939C223.962 190.581 225.124 190.163 226.88 189.432C227.099 189.34 227.329 189.244 227.568 189.144C227.806 189.045 228.047 188.921 228.3 188.808C228.81 188.591 229.332 188.31 229.887 188.037C230.982 187.454 232.154 186.769 233.328 185.96C234.492 185.138 235.54 184.275 236.465 183.45C236.913 183.022 237.357 182.63 237.737 182.226C237.93 182.028 238.129 181.845 238.304 181.655C238.48 181.466 238.65 181.284 238.811 181.11C240.103 179.715 240.897 178.769 241.218 178.937Z" fill="#00AEE0"/>
<path d="M224.273 188.257C224.866 187.921 225.027 187.084 224.632 186.389C224.237 185.693 223.436 185.402 222.843 185.738C222.25 186.074 222.089 186.91 222.484 187.606C222.878 188.302 223.679 188.593 224.273 188.257Z" fill="#00AEE0"/>
<path d="M109.669 213.438C109.548 213.558 108.803 213.069 107.571 212.097C106.296 211.172 104.531 209.755 102.201 208.223C99.8859 206.677 97.0455 204.967 93.745 203.371C90.4506 201.764 86.6737 200.33 82.606 199.203C82.1002 199.053 81.5858 198.947 81.0814 198.816C80.5745 198.697 80.0759 198.554 79.5704 198.461C79.0671 198.357 78.5678 198.254 78.0721 198.152C77.8247 198.098 77.5774 198.049 77.3293 198.012C76.9605 197.951 76.5935 197.891 76.2279 197.832C75.7353 197.751 75.2446 197.671 74.7564 197.592L74.0267 197.473L73.8451 197.443L73.7545 197.428L73.7092 197.421C73.6963 197.417 73.7175 197.396 73.72 197.384L73.8854 197.053C74.3214 196.179 74.7532 195.314 75.1806 194.458C75.6246 193.588 76.0592 192.736 76.4835 191.905C78.1875 188.584 79.7527 185.608 81.0994 183.124C83.7927 178.158 85.6114 175.161 85.9177 175.311C86.224 175.462 84.9589 178.73 82.6668 183.894C81.5207 186.476 80.1176 189.532 78.5257 192.908C78.126 193.751 77.7162 194.615 77.2974 195.498C77.2805 195.546 77.288 195.544 77.2855 195.56C77.292 195.569 77.3182 195.559 77.3347 195.56C77.3441 195.561 77.3326 195.558 77.3581 195.561L77.7453 195.62C78.0048 195.655 78.263 195.703 78.5214 195.755C79.0391 195.857 79.5611 195.959 80.0867 196.062C80.6148 196.156 81.135 196.301 81.6641 196.423C82.1904 196.557 82.7268 196.668 83.2542 196.823C87.4944 197.996 91.4061 199.56 94.7685 201.341C98.1376 203.111 100.981 205.039 103.23 206.814C105.495 208.575 107.126 210.231 108.22 211.391C109.273 212.597 109.789 213.318 109.669 213.438Z" fill="#00AEE0"/>
<path d="M101.797 181.448C100.178 180.701 99.0955 179.23 98.9636 177.564C97.746 162.185 89.941 92.6356 109.996 78.562C130.089 64.4617 158.065 70.6004 163.134 87.7468C169.505 109.296 170.767 150.49 161.18 156.656C151.594 162.821 138.173 160.649 138.173 160.649L136.711 176.609C136.571 178.137 135.637 179.511 134.203 180.285C123.791 185.907 113.013 186.616 101.797 181.448Z" fill="#FFB400"/>
<path d="M120.266 50.3964C121.863 55.1531 123.572 57.5801 123.572 57.5801C123.572 57.5801 79.2136 53.2706 79.2136 109.774C79.2136 138.981 92.511 152.372 96.9766 152.877C105.318 153.264 107.848 148.143 107.848 137.172V117.645C107.848 115.173 109.784 113.053 112.258 113.008C114.778 112.962 116.836 114.989 116.836 117.497V131.362C116.836 132.797 117.842 134.04 119.249 134.329C121.527 134.799 123.314 135.014 124.09 133.478C125.451 130.785 118.909 103.049 129.384 98.7047C139.313 94.5865 141.621 103.962 154.43 103.962C164.495 103.962 173.792 98.2813 172.167 83.285C170.481 67.7159 156.824 49.7708 120.954 49.4444C120.461 49.4401 120.109 49.9292 120.266 50.3964Z" fill="#04294F"/>
<path d="M163.837 117.67C163.837 121.624 162.208 124.828 160.202 124.828C158.196 124.828 156.571 121.624 156.571 117.67C156.571 116.248 156.78 114.926 157.146 113.813H163.261C163.628 114.926 163.837 116.248 163.837 117.67Z" fill="#04294F"/>
<path d="M157.285 115.047C161.554 115.047 165.016 114.495 165.016 113.813C165.016 113.132 161.554 112.58 157.285 112.58C153.015 112.58 149.554 113.132 149.554 113.813C149.554 114.495 153.015 115.047 157.285 115.047Z" fill="#04294F"/>
<path d="M141.907 117.67C141.907 121.624 140.279 124.828 138.273 124.828C136.267 124.828 134.642 121.624 134.642 117.67C134.642 116.248 134.851 114.926 135.217 113.813H141.332C141.699 114.926 141.907 116.248 141.907 117.67Z" fill="#04294F"/>
<path d="M135.356 115.047C139.625 115.047 143.087 114.495 143.087 113.813C143.087 113.132 139.625 112.58 135.356 112.58C131.086 112.58 127.625 113.132 127.625 113.813C127.625 114.495 131.086 115.047 135.356 115.047Z" fill="#04294F"/>
<path d="M149.088 134.636C149.06 134.467 149.245 134.275 149.589 134.065C149.93 133.853 150.436 133.63 150.98 133.341C151.25 133.197 151.526 133.033 151.783 132.843C151.913 132.75 152.036 132.644 152.151 132.539C152.251 132.437 152.352 132.329 152.441 132.204C152.621 131.96 152.774 131.669 152.843 131.388C152.924 131.103 152.91 130.851 152.848 130.661C152.779 130.47 152.665 130.301 152.445 130.151C152.234 129.999 151.94 129.888 151.642 129.831C151.493 129.805 151.342 129.784 151.196 129.784C151.122 129.778 151.053 129.786 150.98 129.785C150.902 129.794 150.825 129.796 150.747 129.809C150.438 129.849 150.133 129.924 149.844 130.013C149.265 130.191 148.755 130.397 148.368 130.497C147.98 130.6 147.713 130.602 147.61 130.466C147.507 130.331 147.573 130.074 147.798 129.724C148.026 129.377 148.409 128.925 149.037 128.465C149.352 128.238 149.736 128.013 150.2 127.838C150.314 127.792 150.437 127.757 150.561 127.717C150.692 127.685 150.829 127.646 150.969 127.626C151.247 127.574 151.538 127.558 151.838 127.566C152.436 127.589 153.082 127.727 153.709 128.089C154.334 128.435 154.928 129.08 155.191 129.877C155.457 130.677 155.379 131.492 155.146 132.132C154.918 132.786 154.549 133.311 154.126 133.734C153.915 133.946 153.682 134.126 153.443 134.283C153.212 134.427 152.986 134.547 152.761 134.641C152.313 134.833 151.889 134.942 151.51 135.004C150.751 135.124 150.164 135.085 149.757 135.01C149.349 134.932 149.116 134.803 149.088 134.636Z" fill="#04294F"/>
<path d="M144.835 137.186C145.12 136.961 145.845 137.496 147.047 137.897C147.645 138.098 148.367 138.271 149.163 138.297C149.559 138.317 149.972 138.296 150.385 138.229C150.799 138.169 151.215 138.061 151.611 137.894C151.995 137.755 152.297 137.545 152.553 137.319C152.803 137.092 152.937 136.865 152.987 136.724C153.027 136.583 153.047 136.45 152.951 136.269C152.861 136.087 152.669 135.897 152.463 135.76C152.044 135.478 151.485 135.338 151.104 135.197C150.714 135.059 150.475 134.913 150.469 134.741C150.462 134.572 150.67 134.394 151.087 134.237C151.296 134.16 151.561 134.088 151.893 134.052C152.227 134.018 152.621 134.013 153.096 134.134C153.559 134.257 154.068 134.487 154.525 134.959C154.751 135.193 154.957 135.498 155.091 135.859C155.219 136.215 155.28 136.62 155.243 137.024C155.16 137.834 154.754 138.508 154.277 139.017C154.034 139.272 153.766 139.496 153.475 139.693C153.329 139.792 153.176 139.881 153.019 139.966L152.775 140.085L152.542 140.18C151.921 140.439 151.279 140.581 150.661 140.631C150.043 140.689 149.446 140.656 148.895 140.555C147.788 140.367 146.871 139.92 146.208 139.428C145.542 138.933 145.122 138.404 144.92 137.99C144.718 137.572 144.706 137.289 144.835 137.186Z" fill="#04294F"/>
<path d="M135.82 160.518C135.861 160.846 135.194 161.262 134.006 161.488C133.415 161.604 132.698 161.652 131.902 161.62C131.107 161.579 130.235 161.451 129.348 161.206C128.462 160.955 127.65 160.613 126.95 160.237C126.252 159.852 125.665 159.438 125.219 159.033C124.32 158.224 123.966 157.523 124.172 157.264C124.389 156.989 125.103 157.182 126.122 157.539C126.622 157.716 127.217 157.927 127.878 158.161C128.535 158.381 129.252 158.613 130.013 158.83C130.776 159.039 131.51 159.212 132.185 159.364C132.872 159.507 133.49 159.635 134.01 159.743C135.066 159.966 135.777 160.171 135.82 160.518Z" fill="#04294F"/>
<path fill-rule="evenodd" clip-rule="evenodd" d="M111.031 119.299C111.125 118.882 111.34 118.427 111.754 118.318C112.129 118.22 112.513 118.449 112.788 118.722C113.636 119.562 113.906 120.931 113.44 122.029C113.291 122.38 113.066 122.71 112.743 122.913C110.943 124.046 110.82 120.234 111.031 119.299Z" fill="#04294F"/>
<path d="M110.266 64.0953C110.331 64.2983 109.958 64.6455 109.251 65.0919C109.074 65.2036 108.876 65.3214 108.658 65.4446C108.445 65.5775 108.213 65.7215 107.965 65.8763C107.47 66.1855 106.889 66.4868 106.285 66.8941C105.979 67.0851 105.659 67.2852 105.325 67.4938C104.991 67.7014 104.663 67.9488 104.312 68.1823C103.601 68.6376 102.894 69.1993 102.134 69.7581C100.651 70.9307 99.0877 72.2918 97.5738 73.853C96.0783 75.4317 94.7845 77.0503 93.6762 78.5813C93.1502 79.3646 92.6193 80.0947 92.1947 80.8234C91.9765 81.1839 91.7428 81.5226 91.5498 81.8641C91.3557 82.2067 91.1694 82.5353 90.9918 82.8492C90.6108 83.4687 90.3343 84.0616 90.0464 84.5691C89.9022 84.8241 89.7681 85.0611 89.6445 85.2798C89.5305 85.5025 89.4216 85.7054 89.3173 85.8868C88.9017 86.6126 88.5703 86.999 88.3647 86.9437C88.159 86.8884 88.0983 86.3935 88.1712 85.5255C88.1896 85.3086 88.2162 85.0683 88.251 84.8061C88.2928 84.5461 88.3593 84.2703 88.4268 83.9711C88.5717 83.3768 88.7216 82.6872 88.9952 81.9658C89.1264 81.6012 89.2641 81.2195 89.4075 80.8219C89.5571 80.4258 89.7519 80.0325 89.9374 79.6156C90.2966 78.7741 90.7837 77.9298 91.2895 77.0338C92.3568 75.2787 93.7057 73.4461 95.3432 71.7201C96.9983 70.0113 98.7731 68.5856 100.482 67.4443C101.356 66.9005 102.179 66.3776 103.005 65.9829C103.414 65.7797 103.799 65.5681 104.189 65.4019C104.58 65.2417 104.956 65.0876 105.314 64.9407C106.024 64.6362 106.707 64.457 107.295 64.2864C107.592 64.206 107.865 64.1277 108.123 64.0749C108.383 64.0286 108.623 63.9916 108.839 63.9639C109.705 63.8533 110.202 63.8924 110.266 64.0953Z" fill="#00AEE0"/>
<path d="M92.6839 97.798C92.273 97.8436 91.7747 97.0815 91.5238 95.7183C91.3954 95.0392 91.352 94.2171 91.4095 93.3071C91.4789 92.3995 91.6564 91.4055 91.9757 90.401C92.3032 89.399 92.7396 88.4882 93.2134 87.7107C93.6984 86.9382 94.2135 86.2957 94.7147 85.8192C95.7148 84.8581 96.5646 84.5299 96.8716 84.8064C97.1981 85.0973 96.9579 85.9125 96.5197 87.046C96.3015 87.5997 96.0416 88.2591 95.7533 88.991C95.4808 89.7168 95.1903 90.5062 94.9145 91.3462C94.6478 92.1891 94.4228 92.9996 94.22 93.7477C94.0266 94.5102 93.8526 95.1968 93.7063 95.7739C93.4 96.9501 93.1189 97.7517 92.6839 97.798Z" fill="#00AEE0"/>
<path d="M98.0398 147.695C97.9459 147.88 97.5013 147.889 96.7794 147.678C96.0572 147.469 95.0736 147.008 93.9688 146.257C92.8627 145.508 91.6638 144.443 90.5227 143.102C89.3813 141.762 88.3136 140.142 87.4135 138.342C86.5248 136.543 85.8755 134.758 85.4014 133.121C84.9272 131.483 84.6155 129.991 84.4153 128.733C84.0216 126.215 84.0328 124.62 84.4404 124.514C84.8578 124.405 85.5998 125.828 86.5208 128.156C87.4544 130.478 88.5617 133.696 90.1783 136.97C91.7917 140.236 93.7467 142.87 95.3845 144.597C97.0059 146.341 98.2432 147.29 98.0398 147.695Z" fill="#00AEE0"/>
<path d="M132.179 92.7807C132.149 93.2221 131.196 93.4897 129.879 94.0061C128.56 94.5117 126.851 95.3352 125.357 96.6802C123.866 98.028 122.873 99.6434 122.235 100.903C121.587 102.159 121.224 103.078 120.782 103.064C120.572 103.056 120.375 102.806 120.237 102.331C120.098 101.858 120.04 101.16 120.136 100.303C120.231 99.4477 120.503 98.4389 121.014 97.4002C121.521 96.3631 122.283 95.3047 123.288 94.3911C124.3 93.4853 125.43 92.836 126.515 92.4367C127.601 92.0345 128.633 91.8664 129.495 91.8588C130.358 91.8499 131.047 91.9788 131.505 92.1645C131.963 92.3501 132.192 92.5714 132.179 92.7807Z" fill="#00AEE0"/>
</g>
<defs>
<clipPath id="clip0">
<rect width="250" height="250" fill="white"/>
</clipPath>
</defs>
</svg>
