<svg width="250" height="250" viewBox="0 0 250 250" fill="none" xmlns="http://www.w3.org/2000/svg">
<g clip-path="url(#clip0)">
<path d="M30.3053 7.63504C41.1919 -4.51269 209.599 -1.93352 220.859 13.7241C232.119 29.3818 227.788 190.308 208.733 195.527C189.677 200.746 35.5022 202.486 27.7068 191.178C19.9114 179.869 22.5099 16.3337 30.3053 7.63504Z" fill="#00ACDC"/>
<path d="M65.9262 116.156C64.5149 120.778 62.7173 125.775 64.4511 130.285C65.4083 132.774 67.3405 134.76 68.5579 137.133C71.9828 143.809 69.3011 152.41 72.779 159.058C76.0559 165.322 84.3823 167.882 91.109 165.725C97.8357 163.569 102.837 157.544 105.159 150.867C107.482 144.189 107.438 136.909 106.604 129.888C104.677 113.667 98.6042 97.9576 89.1229 84.6633C86.6399 81.1819 83.7352 77.7196 79.7396 76.2037C76.8988 75.1259 72.888 75.2794 70.5159 77.3956C67.7392 79.8727 69.5959 84.8188 69.69 88.2475C69.9483 97.6723 68.6801 107.139 65.9262 116.156Z" fill="#04294F"/>
<path d="M199.518 292.82H199.492C199.031 296.673 192.182 299.732 183.797 299.732C175.412 299.732 168.563 296.673 168.102 292.82H168.076V284.122L156.963 272.635C155.971 271.61 154.375 271.475 153.226 272.32L133.355 286.927C131.825 288.052 129.75 288.08 128.19 286.999L107.198 272.445C105.859 271.516 104.052 271.655 102.87 272.777L95.3426 279.921C93.5712 281.602 90.7781 281.541 89.0827 279.783C85.7407 276.318 80.76 271.21 80.0516 270.8C78.4119 271.198 76.5502 271.424 74.5741 271.424C68.0264 271.424 62.7171 268.95 62.7171 265.899C62.7171 265.899 59.959 213.715 59.959 180.029C59.959 160.837 73.042 149.042 89.0885 143.645C101.205 139.567 115.013 139.138 126.153 141.926C135.049 144.153 144.133 148.811 152.691 154.894C169.605 166.917 184.47 184.509 191.795 199.909C202.828 223.102 199.518 292.82 199.518 292.82Z" fill="#F04E23"/>
<path d="M152.691 154.895C143.898 164.075 133.615 171.78 124.596 180.773C119.056 186.298 113.907 192.546 110.186 199.41C108.282 202.921 106.752 206.595 105.736 210.412C105.166 212.549 102.204 212.74 101.344 210.703C98.6048 204.227 96.339 197.552 94.5573 190.749C92.2571 181.967 90.7649 172.973 90.1071 163.919C89.7141 158.504 88.5433 150.234 89.088 143.646C101.204 139.568 115.013 139.139 126.153 141.927C135.049 144.154 144.132 148.812 152.691 154.895Z" fill="white"/>
<path d="M91.8601 133.891C85.563 132.077 80.7634 126.683 78.2196 120.638C75.6758 114.592 75.0948 107.915 74.8873 101.359C74.428 86.8504 75.9906 71.3644 84.8536 59.8758C93.6331 48.4954 109.252 42.8774 123.259 46.0614C128.999 47.3661 134.656 50.232 137.903 55.1466C141.649 60.816 141.595 68.1003 141.364 74.8938C140.601 97.2619 139.336 119.613 137.571 141.924C137.346 144.763 136.994 147.866 134.952 149.848C133.702 151.06 131.995 151.661 130.326 152.153C123.625 154.129 105.121 158.189 99.4112 152.28C93.4401 146.1 103.518 137.249 91.8601 133.891Z" fill="#FFB400"/>
<path d="M79.4617 263.904C78.222 263.992 76.1242 248.673 74.7761 229.687C74.4391 224.941 74.1808 220.415 74.0023 216.294C73.9132 214.233 73.8436 212.276 73.7949 210.438C73.7471 208.599 73.7258 206.875 73.7501 205.296C73.7953 202.135 74.0316 199.562 74.3638 197.806C74.6929 196.047 75.0799 195.105 75.384 195.13C75.6991 195.155 75.9037 196.135 76.1147 197.862C76.3224 199.591 76.5709 202.069 76.9286 205.138C77.1087 206.678 77.3059 208.365 77.5176 210.176C77.7274 211.997 77.9362 213.948 78.1388 216C78.5443 220.104 78.9283 224.622 79.2653 229.368C80.6134 248.353 80.7013 263.816 79.4617 263.904Z" fill="#04294F"/>
<path d="M99.9743 211.031C99.8636 211.101 99.2918 210.423 98.3542 209.137C97.417 207.851 96.1125 205.956 94.5544 203.577C93 201.196 91.1843 198.334 89.2851 195.079C87.3833 191.827 85.3911 188.183 83.5177 184.243C81.6357 180.304 80.0899 176.454 78.7247 172.952C77.3666 169.449 76.177 166.286 75.1989 163.619C73.2451 158.285 72.158 154.937 72.4008 154.84C72.6437 154.742 74.1704 157.913 76.4424 163.119C77.579 165.721 78.8994 168.837 80.3435 172.298C81.7942 175.754 83.3749 179.549 85.2285 183.428C87.0757 187.313 88.999 190.941 90.803 194.216C92.604 197.492 94.2927 200.413 95.6968 202.876C97.1045 205.338 98.2348 207.339 98.9795 208.746C99.7247 210.152 100.085 210.962 99.9743 211.031Z" fill="#04294F"/>
<path d="M162.94 167.429C162.991 167.47 162.879 167.703 162.619 168.111C162.489 168.315 162.322 168.562 162.12 168.851C162.018 168.994 161.908 169.149 161.79 169.314C161.67 169.478 161.536 169.647 161.397 169.828C161.116 170.189 160.801 170.588 160.453 171.022C160.1 171.452 159.704 171.909 159.281 172.403C158.863 172.901 158.385 173.405 157.89 173.951C157.397 174.5 156.849 175.053 156.28 175.641C156.137 175.788 155.993 175.936 155.846 176.086C155.697 176.233 155.546 176.381 155.393 176.531C155.087 176.831 154.774 177.136 154.454 177.449C154.137 177.763 153.798 178.067 153.46 178.386C153.119 178.7 152.777 179.027 152.418 179.347C151.699 179.986 150.963 180.656 150.179 181.315C149.788 181.646 149.397 181.988 148.989 182.322C148.582 182.657 148.17 182.995 147.752 183.338C146.071 184.695 144.28 186.088 142.387 187.478C140.495 188.869 138.511 190.273 136.459 191.677C132.352 194.481 128.376 197.038 124.761 199.357C121.145 201.672 117.891 203.752 115.175 205.523C109.737 209.053 106.441 211.349 106.272 211.131C106.119 210.935 109.143 208.251 114.415 204.418C117.046 202.497 120.236 200.293 123.803 197.895C127.368 195.495 131.308 192.898 135.39 190.111C137.429 188.715 139.405 187.333 141.294 185.976C143.184 184.618 144.977 183.272 146.668 181.968C147.088 181.639 147.504 181.315 147.913 180.994C148.324 180.675 148.718 180.347 149.113 180.032C149.906 179.404 150.652 178.767 151.384 178.163C151.749 177.859 152.098 177.55 152.446 177.253C152.792 176.953 153.139 176.666 153.465 176.37C153.794 176.077 154.116 175.79 154.431 175.509C154.589 175.369 154.745 175.23 154.899 175.093C155.051 174.952 155.2 174.814 155.348 174.676C155.939 174.127 156.512 173.613 157.031 173.104C157.553 172.598 158.06 172.133 158.51 171.675C158.966 171.223 159.391 170.803 159.782 170.416C160.166 170.022 160.519 169.663 160.84 169.342C161.001 169.182 161.153 169.031 161.295 168.889C161.435 168.745 161.567 168.611 161.689 168.486C161.935 168.238 162.147 168.03 162.324 167.867C162.679 167.54 162.889 167.388 162.94 167.429Z" fill="#04294F"/>
<path d="M100.152 224.626C100.09 224.646 100.016 224.612 99.9308 224.518C99.8895 224.47 99.8392 224.408 99.798 224.33C99.7605 224.25 99.7221 224.155 99.6842 224.044C99.6499 223.933 99.6332 223.806 99.6108 223.663C99.6001 223.523 99.5972 223.366 99.6088 223.199C99.638 222.866 99.7338 222.491 99.9153 222.104C100.102 221.721 100.381 221.33 100.775 220.987C101.166 220.647 101.686 220.352 102.314 220.235C102.936 220.114 103.659 220.202 104.267 220.515C104.88 220.821 105.398 221.301 105.769 221.886C106.133 222.476 106.343 223.151 106.352 223.837C106.367 224.523 106.128 225.212 105.748 225.721C105.368 226.235 104.875 226.573 104.398 226.777C103.917 226.98 103.444 227.059 103.018 227.06C102.59 227.052 102.21 226.972 101.898 226.851C101.743 226.786 101.604 226.715 101.483 226.641C101.365 226.557 101.259 226.486 101.175 226.405C101.092 226.321 101.024 226.243 100.97 226.174C100.919 226.101 100.886 226.028 100.863 225.97C100.817 225.851 100.82 225.77 100.866 225.723C100.912 225.676 100.997 225.665 101.109 225.678C101.166 225.684 101.226 225.701 101.297 225.714C101.37 225.725 101.449 225.739 101.532 225.759C101.617 225.776 101.715 225.781 101.812 225.799C101.913 225.807 102.022 225.813 102.135 225.817C102.365 225.815 102.62 225.788 102.889 225.724C103.157 225.653 103.436 225.538 103.689 225.372C103.943 225.207 104.164 224.988 104.305 224.737C104.444 224.486 104.521 224.206 104.496 223.883C104.473 223.564 104.359 223.213 104.165 222.895C103.964 222.581 103.696 222.328 103.418 222.168C103.138 222.003 102.854 221.947 102.565 221.965C102.277 221.982 101.984 222.086 101.724 222.241C101.465 222.396 101.238 222.596 101.056 222.807C100.881 223.021 100.742 223.239 100.639 223.446C100.591 223.549 100.55 223.65 100.511 223.745C100.483 223.84 100.445 223.93 100.422 224.014C100.402 224.097 100.379 224.175 100.356 224.246C100.335 224.316 100.324 224.376 100.303 224.43C100.264 224.536 100.215 224.607 100.152 224.626Z" fill="#04294F"/>
<path d="M100.86 247.211C100.749 247.259 100.508 247.088 100.368 246.605C100.231 246.131 100.279 245.366 100.695 244.598C100.898 244.213 101.19 243.829 101.582 243.48C101.976 243.136 102.48 242.817 103.134 242.67C103.216 242.651 103.299 242.636 103.385 242.626C103.465 242.613 103.568 242.607 103.67 242.604C103.772 242.597 103.868 242.614 103.969 242.621C104.063 242.633 104.143 242.648 104.231 242.664C104.573 242.736 104.897 242.862 105.197 243.025C105.797 243.352 106.303 243.826 106.698 244.408C107.086 244.993 107.35 245.68 107.36 246.428C107.367 246.798 107.298 247.18 107.159 247.526C107.092 247.7 107.002 247.863 106.92 247.989C106.837 248.122 106.755 248.254 106.653 248.371C106.268 248.856 105.794 249.21 105.312 249.439C104.829 249.669 104.336 249.779 103.884 249.79C103.429 249.797 103.024 249.705 102.695 249.574C102.614 249.537 102.538 249.496 102.466 249.458C102.394 249.419 102.325 249.385 102.266 249.337C102.205 249.292 102.148 249.248 102.096 249.206C102.043 249.165 101.995 249.124 101.956 249.076C101.874 248.986 101.807 248.904 101.753 248.831C101.707 248.75 101.674 248.678 101.652 248.616C101.609 248.493 101.614 248.41 101.662 248.365C101.709 248.32 101.797 248.314 101.912 248.336C101.97 248.347 102.034 248.365 102.104 248.389C102.18 248.405 102.262 248.426 102.348 248.451C102.39 248.467 102.437 248.475 102.486 248.483C102.534 248.492 102.583 248.501 102.635 248.511C102.684 248.526 102.74 248.526 102.795 248.531C102.849 248.536 102.905 248.542 102.963 248.548C103.199 248.55 103.455 248.529 103.728 248.458C103.999 248.382 104.283 248.252 104.548 248.065C104.814 247.878 105.059 247.632 105.245 247.338C105.297 247.268 105.333 247.186 105.374 247.106C105.42 247.021 105.445 246.961 105.462 246.896C105.499 246.769 105.517 246.633 105.504 246.478C105.486 246.172 105.351 245.804 105.124 245.464C104.895 245.126 104.593 244.831 104.28 244.641C104.123 244.545 103.966 244.474 103.817 244.428L103.71 244.4C103.686 244.399 103.66 244.382 103.639 244.386C103.617 244.385 103.597 244.38 103.556 244.383C103.52 244.383 103.484 244.385 103.447 244.39C103.15 244.418 102.824 244.549 102.541 244.726C102.257 244.904 102.007 245.121 101.809 245.344C101.405 245.793 101.205 246.243 101.106 246.579C101.006 246.917 100.987 247.162 100.86 247.211Z" fill="#04294F"/>
<path d="M102.354 220.824C102.877 220.824 103.301 219.48 103.301 217.822C103.301 216.164 102.877 214.819 102.354 214.819C101.83 214.819 101.406 216.164 101.406 217.822C101.406 219.48 101.83 220.824 102.354 220.824Z" fill="#04294F"/>
<path d="M102.767 243.142C103.291 243.142 103.715 241.865 103.715 240.289C103.715 238.713 103.291 237.436 102.767 237.436C102.244 237.436 101.82 238.713 101.82 240.289C101.82 241.865 102.244 243.142 102.767 243.142Z" fill="#04294F"/>
<path d="M105.189 264.715C104.667 264.739 104.067 261.251 103.748 256.922C103.435 252.592 103.523 249.054 104.043 249.002C104.564 248.949 105.324 252.434 105.637 256.784C105.959 261.133 105.712 264.691 105.189 264.715Z" fill="#04294F"/>
<path d="M168.475 279.208C168.163 279.19 167.933 278.056 167.763 276.026C167.595 273.996 167.479 271.069 167.356 267.468C167.324 266.569 167.29 265.627 167.256 264.645C167.218 263.665 167.178 262.646 167.137 261.591C167.083 260.537 167.049 259.446 166.983 258.326C166.953 257.766 166.924 257.198 166.894 256.622C166.858 256.047 166.822 255.464 166.786 254.874C166.487 250.155 166.013 244.993 165.2 239.64C164.782 236.966 164.295 234.373 163.749 231.889C163.608 231.269 163.467 230.654 163.328 230.046C163.176 229.441 163.024 228.842 162.874 228.25C162.732 227.654 162.559 227.076 162.401 226.5C162.238 225.925 162.091 225.351 161.912 224.797C161.742 224.239 161.574 223.688 161.408 223.144C161.229 222.605 161.052 222.073 160.877 221.548C160.79 221.286 160.704 221.025 160.618 220.767C160.525 220.511 160.432 220.258 160.34 220.006C160.158 219.501 159.978 219.005 159.801 218.517C159.61 218.034 159.423 217.56 159.239 217.094C159.056 216.627 158.882 216.166 158.685 215.726C158.303 214.841 157.958 213.978 157.577 213.18C157.393 212.777 157.214 212.383 157.04 211.999C156.956 211.805 156.863 211.619 156.772 211.435C156.682 211.251 156.593 211.069 156.505 210.889C156.154 210.171 155.836 209.483 155.502 208.86C155.341 208.545 155.186 208.24 155.037 207.946C154.887 207.653 154.753 207.363 154.605 207.098C154.317 206.563 154.059 206.068 153.834 205.616C153.719 205.392 153.621 205.173 153.516 204.976C153.412 204.777 153.317 204.59 153.231 204.414C153.059 204.063 152.923 203.757 152.824 203.5C152.627 202.987 152.582 202.669 152.705 202.574C152.828 202.479 153.114 202.612 153.55 202.955C153.768 203.127 154.023 203.352 154.313 203.626C154.459 203.764 154.613 203.914 154.776 204.076C154.94 204.238 155.098 204.422 155.271 204.614C155.615 204.999 155.99 205.433 156.395 205.915C156.602 206.153 156.794 206.418 157.003 206.687C157.208 206.96 157.422 207.243 157.643 207.536C158.093 208.119 158.525 208.773 158.99 209.466C159.105 209.639 159.223 209.815 159.342 209.994C159.461 210.172 159.582 210.353 159.693 210.542C159.922 210.919 160.156 211.306 160.396 211.702C160.887 212.489 161.337 213.348 161.824 214.237C162.071 214.679 162.296 215.143 162.529 215.615C162.761 216.088 162.997 216.569 163.237 217.059C163.459 217.557 163.685 218.064 163.915 218.578C164.029 218.836 164.144 219.096 164.26 219.358C164.367 219.623 164.475 219.891 164.584 220.16C164.799 220.7 165.023 221.246 165.238 221.803C165.441 222.365 165.647 222.935 165.856 223.511C166.071 224.086 166.252 224.679 166.448 225.276C166.639 225.874 166.843 226.476 167.014 227.094C167.191 227.71 167.37 228.333 167.551 228.962C167.713 229.595 167.876 230.235 168.041 230.88C168.673 233.468 169.214 236.171 169.647 238.953C170.493 244.522 170.853 249.865 170.929 254.708C170.935 255.314 170.942 255.911 170.948 256.501C170.945 257.091 170.942 257.672 170.939 258.245C170.936 259.391 170.896 260.502 170.869 261.576C170.827 262.649 170.785 263.685 170.728 264.68C170.666 265.674 170.613 266.628 170.537 267.536C170.252 271.172 169.882 274.098 169.513 276.111C169.145 278.124 168.784 279.225 168.475 279.208Z" fill="#04294F"/>
<path d="M97.389 161.314C96.6195 159.427 96.8184 156.928 98.3523 155.642C99.7631 154.459 101.753 154.638 103.525 154.876C104.87 155.058 106.215 155.239 107.56 155.42C109.66 155.703 111.996 156.128 113.234 157.94C114.478 159.762 114.057 162.497 112.616 164.177C111.175 165.857 108.947 166.582 106.818 166.572C102.947 166.554 99.0286 165.337 97.389 161.314Z" fill="#04294F"/>
<path d="M110.186 199.41C108.282 202.92 106.752 206.594 105.736 210.411C105.167 212.548 102.204 212.739 101.344 210.703C98.6051 204.226 96.3393 197.552 94.5576 190.748C94.8389 187.634 95.2595 184.533 95.8194 181.456C96.7282 176.453 98.0742 171.593 99.6173 166.754C100.086 165.285 100.224 163.618 101.595 162.784C103.292 161.749 106.569 162.5 108.239 163.211C106.558 175.253 107.252 187.613 110.186 199.41Z" fill="#04294F"/>
<path d="M103.682 121.439C103.833 120.204 99.8698 118.703 94.83 118.086C89.7902 117.47 85.5824 117.971 85.4317 119.206C85.2809 120.441 89.2443 121.942 94.284 122.558C99.3238 123.175 103.532 122.674 103.682 121.439Z" fill="#04294F"/>
<path d="M105.405 106.763C107.283 106.763 108.806 103.804 108.806 100.153C108.806 96.5031 107.283 93.5439 105.405 93.5439C103.527 93.5439 102.004 96.5031 102.004 100.153C102.004 103.804 103.527 106.763 105.405 106.763Z" fill="#04294F"/>
<path d="M82.266 104.262C84.1443 104.262 85.667 101.303 85.667 97.6525C85.667 94.0021 84.1443 91.043 82.266 91.043C80.3877 91.043 78.865 94.0021 78.865 97.6525C78.865 101.303 80.3877 104.262 82.266 104.262Z" fill="#04294F"/>
<path d="M149.99 220.218C150.115 220.179 150.414 220.751 150.849 221.822C150.957 222.09 151.075 222.389 151.2 222.718C151.321 223.047 151.441 223.409 151.572 223.798C151.828 224.576 152.13 225.461 152.4 226.457C152.539 226.954 152.685 227.475 152.837 228.018C152.985 228.562 153.115 229.133 153.26 229.723C153.331 230.018 153.403 230.319 153.476 230.624C153.552 230.929 153.618 231.241 153.683 231.558C153.813 232.192 153.947 232.844 154.084 233.513C154.591 236.199 155.036 239.174 155.333 242.317C155.615 245.46 155.72 248.468 155.712 251.2C155.699 251.883 155.686 252.549 155.673 253.197C155.668 253.52 155.659 253.839 155.641 254.152C155.624 254.466 155.608 254.774 155.593 255.078C155.558 255.684 155.534 256.27 155.487 256.832C155.437 257.393 155.389 257.932 155.343 258.446C155.259 259.475 155.124 260.4 155.014 261.212C154.956 261.618 154.904 261.996 154.845 262.342C154.782 262.688 154.721 263.003 154.663 263.287C154.431 264.42 154.242 265.036 154.112 265.021C153.982 265.005 153.924 264.36 153.929 263.212C153.931 262.925 153.936 262.607 153.945 262.259C153.949 261.911 153.953 261.533 153.958 261.126C153.966 260.314 154.007 259.392 154.005 258.372C154.012 257.862 154.019 257.328 154.026 256.772C154.034 256.216 154.021 255.638 154.022 255.039C154.021 254.74 154.021 254.435 154.02 254.126C154.023 253.817 154.016 253.503 154.007 253.184C153.994 252.547 153.98 251.892 153.966 251.219C153.878 248.531 153.723 245.58 153.446 242.491C153.154 239.403 152.769 236.473 152.364 233.814C152.256 233.15 152.15 232.503 152.047 231.874C151.998 231.559 151.947 231.249 151.888 230.946C151.832 230.641 151.777 230.342 151.723 230.048C151.613 229.46 151.52 228.888 151.411 228.343C151.302 227.797 151.198 227.274 151.099 226.774C150.914 225.77 150.706 224.872 150.549 224.075C150.471 223.676 150.398 223.305 150.331 222.963C150.258 222.623 150.195 222.311 150.141 222.029C149.926 220.902 149.865 220.257 149.99 220.218Z" fill="#04294F"/>
<path d="M168.693 127.893C166.768 103.832 158.613 80.3822 145.385 60.8667C136.221 47.348 121.692 41.0882 105.376 42.7025C95.986 43.6315 87.0038 47.0084 78.8062 51.5899C71.5388 55.6516 63.4073 60.7857 60.5514 69.0967C57.4396 78.1529 66.8618 82.5027 74.0837 84.1851C84.8814 86.7004 94.3479 84.4181 105.189 83.7697C109.738 83.4976 114.489 83.9976 118.419 86.3067C126.498 91.0531 127.709 102.203 125.646 110.537C123.941 117.426 119.539 124.163 121.282 131.041C122.087 134.214 124.126 136.861 125.197 139.941C127.314 146.036 125.399 152.765 124.367 159.176C123.334 165.587 123.715 173.325 128.684 177.037C132.018 179.527 136.583 179.373 140.348 177.743C144.113 176.113 147.259 173.209 150.33 170.356C156.916 164.236 163.745 157.753 166.877 149.02C169.265 142.363 169.261 135.002 168.693 127.893Z" fill="#04294F"/>
</g>
<defs>
<clipPath id="clip0">
<rect width="250" height="250" fill="white"/>
</clipPath>
</defs>
</svg>
