<svg width="130" height="130" viewBox="0 0 130 130" fill="none" xmlns="http://www.w3.org/2000/svg">
<g filter="url(#filter0_d)">
<circle cx="65" cy="61" r="53" fill="#2060BF"/>
</g>
<path d="M30.3126 57.5L31.5143 54.0355H36.6279L37.8232 57.5H39.9198L35.2089 44.4091H32.9269L28.216 57.5H30.3126ZM32.0896 52.3736L34.02 46.7869H34.1222L36.0526 52.3736H32.0896ZM46.574 57.5H48.5491V52.8977H51.2338C54.27 52.8977 55.7721 51.0632 55.7721 48.647C55.7721 46.2372 54.2828 44.4091 51.2401 44.4091H46.574V57.5ZM48.5491 51.223V46.103H51.0292C52.9852 46.103 53.7842 47.1641 53.7842 48.647C53.7842 50.13 52.9852 51.223 51.0548 51.223H48.5491ZM57.9342 57.5H59.8454V51.5043C59.8454 50.2195 60.8362 49.2926 62.1913 49.2926C62.5876 49.2926 63.0351 49.3629 63.1885 49.4077V47.5795C62.9967 47.554 62.6196 47.5348 62.3767 47.5348C61.2261 47.5348 60.2417 48.1868 59.8838 49.2415H59.7815V47.6818H57.9342V57.5ZM68.6265 57.6982C71.3943 57.6982 73.2032 55.6719 73.2032 52.6357C73.2032 49.5803 71.3943 47.554 68.6265 47.554C65.8588 47.554 64.0498 49.5803 64.0498 52.6357C64.0498 55.6719 65.8588 57.6982 68.6265 57.6982ZM68.6329 56.0938C66.824 56.0938 65.9802 54.5149 65.9802 52.6293C65.9802 50.75 66.824 49.152 68.6329 49.152C70.4291 49.152 71.2728 50.75 71.2728 52.6293C71.2728 54.5149 70.4291 56.0938 68.6329 56.0938ZM75.3366 47.6818V58.1264C75.3366 59.0341 74.9594 59.5327 74.0518 59.5327H73.7449V61.1754C73.8792 61.1818 74.0006 61.1818 74.1349 61.1818C76.1675 61.1818 77.2478 60.108 77.2478 58.1392V47.6818H75.3366ZM76.2826 46.1669C76.941 46.1669 77.4907 45.6555 77.4907 45.0291C77.4907 44.4027 76.941 43.8849 76.2826 43.8849C75.6178 43.8849 75.0745 44.4027 75.0745 45.0291C75.0745 45.6555 75.6178 46.1669 76.2826 46.1669ZM84.0505 57.6982C86.1919 57.6982 87.7068 56.6435 88.1414 55.0455L86.3325 54.7195C85.9873 55.6463 85.1563 56.1193 84.0697 56.1193C82.4333 56.1193 81.3339 55.0582 81.2828 53.1662H88.2629V52.4886C88.2629 48.9411 86.1407 47.554 83.9163 47.554C81.1805 47.554 79.3779 49.6378 79.3779 52.6548C79.3779 55.7038 81.1549 57.6982 84.0505 57.6982ZM81.2892 51.7344C81.3659 50.3409 82.3758 49.1328 83.9291 49.1328C85.412 49.1328 86.3836 50.2322 86.39 51.7344H81.2892ZM97.7407 50.0788C97.3444 48.5511 96.1491 47.554 94.0269 47.554C91.8089 47.554 90.2364 48.7237 90.2364 50.4624C90.2364 51.8558 91.0802 52.7827 92.9211 53.1918L94.583 53.5561C95.529 53.767 95.9701 54.1889 95.9701 54.8026C95.9701 55.5632 95.1583 56.1577 93.9055 56.1577C92.7613 56.1577 92.0262 55.6655 91.7961 54.7003L89.9488 54.9815C90.2684 56.7202 91.713 57.6982 93.9182 57.6982C96.2897 57.6982 97.9324 56.4389 97.9324 54.6619C97.9324 53.2749 97.0503 52.4183 95.2478 52.0028L93.6881 51.6449C92.6079 51.3892 92.1412 51.0249 92.1476 50.3601C92.1412 49.6058 92.9594 49.0689 94.0461 49.0689C95.235 49.0689 95.7847 49.7273 96.0084 50.3857L97.7407 50.0788ZM100.034 57.5H101.945V47.6818H100.034V57.5ZM100.999 46.1669C101.657 46.1669 102.207 45.6555 102.207 45.0291C102.207 44.4027 101.657 43.8849 100.999 43.8849C100.334 43.8849 99.7909 44.4027 99.7909 45.0291C99.7909 45.6555 100.334 46.1669 100.999 46.1669ZM40.7132 79.7173C43.7367 79.7173 45.5073 77.25 45.5073 72.9609C45.5073 68.7038 43.7111 66.2301 40.7132 66.2301C37.709 66.2301 35.9192 68.6974 35.9128 72.9609C35.9128 77.2436 37.6834 79.7109 40.7132 79.7173ZM40.7132 78.0107C38.9426 78.0107 37.8752 76.2337 37.8752 72.9609C37.8816 69.701 38.949 67.9048 40.7132 67.9048C42.4711 67.9048 43.5449 69.701 43.5449 72.9609C43.5449 76.2337 42.4775 78.0107 40.7132 78.0107ZM52.7175 79.5H54.6926V75.4283L56.2395 73.6513L60.4711 79.5H62.8489L57.5499 72.3026L62.8297 66.4091H60.3432L54.8525 72.6605H54.6926V66.4091H52.7175V79.5ZM64.5172 79.5H66.4284V73.5043C66.4284 72.2195 67.4192 71.2926 68.7743 71.2926C69.1706 71.2926 69.6181 71.3629 69.7715 71.4077V69.5795C69.5797 69.554 69.2026 69.5348 68.9597 69.5348C67.8091 69.5348 66.8248 70.1868 66.4668 71.2415H66.3645V69.6818H64.5172V79.5ZM75.3054 79.6982C77.4467 79.6982 78.9616 78.6435 79.3963 77.0455L77.5874 76.7195C77.2422 77.6463 76.4112 78.1193 75.3246 78.1193C73.6882 78.1193 72.5888 77.0582 72.5376 75.1662H79.5178V74.4886C79.5178 70.9411 77.3956 69.554 75.1712 69.554C72.4354 69.554 70.6328 71.6378 70.6328 74.6548C70.6328 77.7038 72.4098 79.6982 75.3054 79.6982ZM72.544 73.7344C72.6207 72.3409 73.6307 71.1328 75.1839 71.1328C76.6669 71.1328 77.6385 72.2322 77.6449 73.7344H72.544ZM85.3137 79.6918C87.1035 79.6918 87.8066 78.5987 88.1518 77.9723H88.3116V79.5H90.1781V66.4091H88.2669V71.2734H88.1518C87.8066 70.6662 87.1547 69.554 85.3265 69.554C82.9551 69.554 81.21 71.4268 81.21 74.6101C81.21 77.7869 82.9295 79.6918 85.3137 79.6918ZM85.7356 78.0618C84.0289 78.0618 83.1404 76.5597 83.1404 74.5909C83.1404 72.6413 84.0098 71.1776 85.7356 71.1776C87.4039 71.1776 88.2988 72.5391 88.2988 74.5909C88.2988 76.6555 87.3848 78.0618 85.7356 78.0618ZM92.9059 79.5H94.8171V69.6818H92.9059V79.5ZM93.8711 68.1669C94.5295 68.1669 95.0792 67.6555 95.0792 67.0291C95.0792 66.4027 94.5295 65.8849 93.8711 65.8849C93.2063 65.8849 92.663 66.4027 92.663 67.0291C92.663 67.6555 93.2063 68.1669 93.8711 68.1669Z" fill="white"/>
<defs>
<filter id="filter0_d" x="0" y="0" width="130" height="130" filterUnits="userSpaceOnUse" color-interpolation-filters="sRGB">
<feFlood flood-opacity="0" result="BackgroundImageFix"/>
<feColorMatrix in="SourceAlpha" type="matrix" values="0 0 0 0 0 0 0 0 0 0 0 0 0 0 0 0 0 0 127 0"/>
<feOffset dy="4"/>
<feGaussianBlur stdDeviation="6"/>
<feColorMatrix type="matrix" values="0 0 0 0 0.729167 0 0 0 0 0.729167 0 0 0 0 0.729167 0 0 0 0.26 0"/>
<feBlend mode="normal" in2="BackgroundImageFix" result="effect1_dropShadow"/>
<feBlend mode="normal" in="SourceGraphic" in2="effect1_dropShadow" result="shape"/>
</filter>
</defs>
</svg>
