<svg width="130" height="130" viewBox="0 0 130 130" fill="none" xmlns="http://www.w3.org/2000/svg">
<g filter="url(#filter0_d)">
<circle cx="65" cy="61" r="53" fill="#FFB156"/>
</g>
<path d="M30.1199 57.5H35.1376C38.1802 57.5 39.5545 55.9851 39.5545 53.978C39.5545 51.9517 38.1355 50.8075 36.8379 50.7372V50.6094C38.0396 50.3026 39.0431 49.4844 39.0431 47.848C39.0431 45.9112 37.7008 44.4091 34.9139 44.4091H30.1199V57.5ZM32.095 55.8061V51.6129H35.0162C36.6014 51.6129 37.5922 52.6357 37.5922 53.8821C37.5922 54.9815 36.8443 55.8061 34.9458 55.8061H32.095ZM32.095 50.0724V46.0902H34.7924C36.3585 46.0902 37.1064 46.9148 37.1064 48.0014C37.1064 49.267 36.0708 50.0724 34.7413 50.0724H32.095ZM46.6609 57.5H48.636V52.8977H51.3207C54.3569 52.8977 55.859 51.0632 55.859 48.647C55.859 46.2372 54.3697 44.4091 51.3271 44.4091H46.6609V57.5ZM48.636 51.223V46.103H51.1161C53.0721 46.103 53.8711 47.1641 53.8711 48.647C53.8711 50.13 53.0721 51.223 51.1417 51.223H48.636ZM58.0211 57.5H59.9324V51.5043C59.9324 50.2195 60.9231 49.2926 62.2782 49.2926C62.6745 49.2926 63.122 49.3629 63.2754 49.4077V47.5795C63.0836 47.554 62.7065 47.5348 62.4636 47.5348C61.313 47.5348 60.3287 48.1868 59.9707 49.2415H59.8684V47.6818H58.0211V57.5ZM68.7134 57.6982C71.4812 57.6982 73.2901 55.6719 73.2901 52.6357C73.2901 49.5803 71.4812 47.554 68.7134 47.554C65.9457 47.554 64.1367 49.5803 64.1367 52.6357C64.1367 55.6719 65.9457 57.6982 68.7134 57.6982ZM68.7198 56.0938C66.9109 56.0938 66.0671 54.5149 66.0671 52.6293C66.0671 50.75 66.9109 49.152 68.7198 49.152C70.516 49.152 71.3597 50.75 71.3597 52.6293C71.3597 54.5149 70.516 56.0938 68.7198 56.0938ZM75.4235 47.6818V58.1264C75.4235 59.0341 75.0463 59.5327 74.1387 59.5327H73.8319V61.1754C73.9661 61.1818 74.0875 61.1818 74.2218 61.1818C76.2544 61.1818 77.3347 60.108 77.3347 58.1392V47.6818H75.4235ZM76.3695 46.1669C77.0279 46.1669 77.5776 45.6555 77.5776 45.0291C77.5776 44.4027 77.0279 43.8849 76.3695 43.8849C75.7047 43.8849 75.1614 44.4027 75.1614 45.0291C75.1614 45.6555 75.7047 46.1669 76.3695 46.1669ZM84.1374 57.6982C86.2788 57.6982 87.7937 56.6435 88.2283 55.0455L86.4194 54.7195C86.0742 55.6463 85.2433 56.1193 84.1566 56.1193C82.5202 56.1193 81.4208 55.0582 81.3697 53.1662H88.3498V52.4886C88.3498 48.9411 86.2276 47.554 84.0032 47.554C81.2674 47.554 79.4648 49.6378 79.4648 52.6548C79.4648 55.7038 81.2418 57.6982 84.1374 57.6982ZM81.3761 51.7344C81.4528 50.3409 82.4627 49.1328 84.016 49.1328C85.4989 49.1328 86.4705 50.2322 86.4769 51.7344H81.3761ZM97.8276 50.0788C97.4313 48.5511 96.236 47.554 94.1138 47.554C91.8958 47.554 90.3233 48.7237 90.3233 50.4624C90.3233 51.8558 91.1671 52.7827 93.008 53.1918L94.6699 53.5561C95.6159 53.767 96.057 54.1889 96.057 54.8026C96.057 55.5632 95.2452 56.1577 93.9924 56.1577C92.8482 56.1577 92.1131 55.6655 91.883 54.7003L90.0357 54.9815C90.3553 56.7202 91.7999 57.6982 94.0051 57.6982C96.3766 57.6982 98.0194 56.4389 98.0194 54.6619C98.0194 53.2749 97.1373 52.4183 95.3347 52.0028L93.775 51.6449C92.6948 51.3892 92.2282 51.0249 92.2346 50.3601C92.2282 49.6058 93.0463 49.0689 94.133 49.0689C95.3219 49.0689 95.8716 49.7273 96.0953 50.3857L97.8276 50.0788ZM100.121 57.5H102.032V47.6818H100.121V57.5ZM101.086 46.1669C101.744 46.1669 102.294 45.6555 102.294 45.0291C102.294 44.4027 101.744 43.8849 101.086 43.8849C100.421 43.8849 99.8778 44.4027 99.8778 45.0291C99.8778 45.6555 100.421 46.1669 101.086 46.1669ZM41.2053 79.679C43.8388 79.679 45.718 77.8189 45.7116 75.2685C45.718 72.7372 43.9538 70.8963 41.5696 70.8963C40.598 70.8963 39.6967 71.267 39.1854 71.7656H39.1087L39.5241 68.103H45.0788V66.4091H37.8814L37.1463 73.0057L38.9553 73.2741C39.4474 72.8331 40.3295 72.5327 41.1222 72.5327C42.6754 72.5455 43.8004 73.7088 43.8004 75.3068C43.8004 76.8793 42.7074 78.017 41.2053 78.017C39.9396 78.017 38.9361 77.2116 38.8338 76.0866H36.9162C36.9929 78.1705 38.8018 79.679 41.2053 79.679ZM52.989 79.5H54.9641V75.4283L56.511 73.6513L60.7425 79.5H63.1204L57.8214 72.3026L63.1012 66.4091H60.6147L55.1239 72.6605H54.9641V66.4091H52.989V79.5ZM64.7887 79.5H66.6999V73.5043C66.6999 72.2195 67.6907 71.2926 69.0458 71.2926C69.4421 71.2926 69.8896 71.3629 70.043 71.4077V69.5795C69.8512 69.554 69.4741 69.5348 69.2312 69.5348C68.0806 69.5348 67.0962 70.1868 66.7383 71.2415H66.636V69.6818H64.7887V79.5ZM75.5769 79.6982C77.7182 79.6982 79.2331 78.6435 79.6678 77.0455L77.8588 76.7195C77.5137 77.6463 76.6827 78.1193 75.5961 78.1193C73.9597 78.1193 72.8603 77.0582 72.8091 75.1662H79.7892V74.4886C79.7892 70.9411 77.6671 69.554 75.4426 69.554C72.7069 69.554 70.9043 71.6378 70.9043 74.6548C70.9043 77.7038 72.6813 79.6982 75.5769 79.6982ZM72.8155 73.7344C72.8922 72.3409 73.9022 71.1328 75.4554 71.1328C76.9384 71.1328 77.91 72.2322 77.9164 73.7344H72.8155ZM85.5852 79.6918C87.375 79.6918 88.0781 78.5987 88.4233 77.9723H88.5831V79.5H90.4496V66.4091H88.5384V71.2734H88.4233C88.0781 70.6662 87.4261 69.554 85.598 69.554C83.2266 69.554 81.4815 71.4268 81.4815 74.6101C81.4815 77.7869 83.201 79.6918 85.5852 79.6918ZM86.0071 78.0618C84.3004 78.0618 83.4119 76.5597 83.4119 74.5909C83.4119 72.6413 84.2812 71.1776 86.0071 71.1776C87.6754 71.1776 88.5703 72.5391 88.5703 74.5909C88.5703 76.6555 87.6562 78.0618 86.0071 78.0618ZM93.1774 79.5H95.0886V69.6818H93.1774V79.5ZM94.1426 68.1669C94.801 68.1669 95.3507 67.6555 95.3507 67.0291C95.3507 66.4027 94.801 65.8849 94.1426 65.8849C93.4778 65.8849 92.9345 66.4027 92.9345 67.0291C92.9345 67.6555 93.4778 68.1669 94.1426 68.1669Z" fill="white"/>
<path d="M113.625 8.97384C113.234 8.5834 112.601 8.58369 112.21 8.97448L92.1362 29.0709C91.7461 29.4615 91.1132 29.4621 90.7224 29.0722L83.2695 21.6366C82.8786 21.2465 82.2455 21.2472 81.8554 21.6381L78.7936 24.7064C78.4035 25.0974 78.4042 25.7306 78.7952 26.1207L90.7303 38.0275C91.1211 38.4174 91.754 38.4169 92.1441 38.0263L116.692 13.4519C117.082 13.0612 117.082 12.4281 116.691 12.0378L113.625 8.97384Z" fill="#227B26"/>
<defs>
<filter id="filter0_d" x="0" y="0" width="130" height="130" filterUnits="userSpaceOnUse" color-interpolation-filters="sRGB">
<feFlood flood-opacity="0" result="BackgroundImageFix"/>
<feColorMatrix in="SourceAlpha" type="matrix" values="0 0 0 0 0 0 0 0 0 0 0 0 0 0 0 0 0 0 127 0"/>
<feOffset dy="4"/>
<feGaussianBlur stdDeviation="6"/>
<feColorMatrix type="matrix" values="0 0 0 0 0.729167 0 0 0 0 0.729167 0 0 0 0 0.729167 0 0 0 0.26 0"/>
<feBlend mode="normal" in2="BackgroundImageFix" result="effect1_dropShadow"/>
<feBlend mode="normal" in="SourceGraphic" in2="effect1_dropShadow" result="shape"/>
</filter>
</defs>
</svg>
