<svg width="193" height="349" viewBox="0 0 193 349" fill="none" xmlns="http://www.w3.org/2000/svg">
<g clip-path="url(#clip0)">
<path d="M162.332 264.408C162.332 264.408 165.068 268.607 165.068 289.915C165.068 311.223 162.332 314.326 162.332 314.326C162.332 314.326 131.174 340.034 107.364 349C107.442 348.904 110.1 345.573 110.1 324.594C110.1 303.286 107.364 299.086 107.364 299.086L162.332 264.408Z" fill="#10294C"/>
<path d="M162.332 264.407L107.358 299.086C107.358 299.086 98.3287 293.082 57.5446 280.556C16.7605 268.03 7.73218 268.364 7.73218 268.364C7.73218 268.364 33.7235 247.162 62.7066 233.685C62.7066 233.685 71.74 233.349 112.52 245.879C153.3 258.41 162.332 264.407 162.332 264.407Z" fill="#10294C"/>
<path d="M107.358 299.085C107.358 299.085 110.094 303.285 110.094 324.593C110.094 345.572 107.435 348.903 107.358 348.999C107.358 348.999 89.3046 347.596 57.5446 337.603C25.7847 327.61 7.73216 318.283 7.73216 318.283C7.73216 318.283 4.99634 310.605 4.99634 292.5C4.99634 274.395 7.73216 268.364 7.73216 268.364C7.73216 268.364 16.7613 268.027 57.5446 280.558C98.3279 293.089 107.358 299.085 107.358 299.085Z" fill="#FFAF51"/>
<path d="M159.152 49.2117C159.13 46.1632 159.688 41.9543 158.475 38.8712C152.244 23.0314 121.281 11.7491 82.1934 12.3264C42.8853 12.9037 8.41866 25.7835 6.32758 43.1171C5.99567 45.8692 6.07461 47.9222 6.11779 50.7441C6.21474 57.0788 6.41394 63.7857 6.58612 70.8702C7.05445 90.1492 9.02526 111.884 15.1443 138.344C20.3277 160.758 45.8953 189.138 65.2066 195.172C65.2254 195.178 65.2458 195.178 65.2651 195.182C68.5286 195.724 71.0822 198.304 71.5524 201.587C72.2904 206.74 73.2424 211.868 73.4066 217.07C73.6429 224.548 71.933 232.613 66.5891 237.599C62.9693 240.976 54.4079 243.846 45.7048 251.348C40.7447 255.623 40.4753 267.093 92.6329 279.096C122.386 285.824 140.649 267.05 115.542 255.005C105.185 248.002 100.935 234.277 100.109 221.424C99.7524 215.867 99.8907 210.285 100.03 204.707C100.124 200.948 102.918 197.775 106.639 197.304C120.997 195.485 136.18 179.768 142.501 169.681C158.521 144.116 159.577 118.396 159.152 49.2117Z" fill="#FFAF51"/>
<path d="M83.2479 66.7408C122.086 66.7408 153.57 55.3345 153.57 41.2642C153.57 27.1939 122.086 15.7876 83.2479 15.7876C44.4102 15.7876 12.926 27.1939 12.926 41.2642C12.926 55.3345 44.4102 66.7408 83.2479 66.7408Z" fill="#10294C"/>
<path d="M159.231 269.807C159.46 270.404 156.856 271.97 152.687 274.415C150.593 275.621 148.125 277.098 145.381 278.716C142.651 280.365 139.663 282.19 136.548 284.146C133.445 286.119 130.511 288.033 127.85 289.791C125.209 291.573 122.815 293.168 120.825 294.539C116.824 297.253 114.291 298.931 113.852 298.466C113.441 298.034 115.25 295.499 118.841 292.074C120.624 290.349 122.877 288.449 125.453 286.435C128.046 284.446 130.985 282.378 134.165 280.356C137.357 278.352 140.488 276.588 143.396 275.1C146.321 273.641 149.002 272.423 151.325 271.557C155.958 269.788 159.02 269.249 159.231 269.807Z" fill="#FFAF51"/>
<path d="M150.98 99.3393C155.128 94.4043 162.796 93.3278 168.65 96.0104C174.505 98.6929 178.535 104.522 180.147 110.769C181.76 117.017 181.197 123.648 179.76 129.939C178.309 136.291 175.894 142.585 171.577 147.459C167.26 152.332 160.8 155.603 154.336 154.904C147.872 154.206 141.848 148.89 141.455 142.385L150.98 99.3393Z" fill="#FFAF51"/>
<path d="M30.1483 77.8041C26.0006 72.8692 18.333 71.7927 12.4783 74.4752C6.62364 77.1578 2.59408 82.9871 0.981405 89.2343C-0.631268 95.4816 -0.0678388 102.113 1.36868 108.403C2.8195 114.756 5.23454 121.05 9.55151 125.923C13.8685 130.796 20.329 134.067 26.7929 133.369C33.2568 132.671 39.2803 127.355 39.6742 120.85L30.1483 77.8041Z" fill="#FFAF51"/>
<path d="M169.535 115.125C168.961 112.413 167.498 109.332 164.75 109.01C162.862 108.789 161.052 110.069 160.07 111.7C159.087 113.332 158.762 115.265 158.456 117.146C157.876 120.707 157.295 124.269 156.715 127.831C156.088 131.681 155.722 136.297 158.697 138.812C169.377 147.838 170.535 119.845 169.535 115.125Z" fill="#10294C"/>
<path d="M11.7395 123.368C12.6611 123.283 12.6013 114.45 11.606 103.639C10.6107 92.8275 9.05682 84.1324 8.13523 84.2177C7.21365 84.303 7.27339 93.1362 8.26867 103.947C9.26395 114.759 10.8179 123.454 11.7395 123.368Z" fill="#04294F"/>
<path d="M57.4862 304.764C57.421 303.416 57.3024 302.122 57.1456 300.899C56.8314 298.452 56.3678 296.289 55.8449 294.498C55.322 292.706 54.7361 291.288 54.1605 290.34C53.7197 289.615 53.2863 289.169 52.8845 289.032C52.6959 288.937 52.4977 288.879 52.2908 288.861C52.0397 288.839 51.7883 288.872 51.5409 288.942C51.4172 288.978 51.2946 289.022 51.1738 289.075C51.1131 289.101 51.0541 289.13 50.9931 289.16C50.9314 289.19 50.8702 289.222 50.8093 289.255C50.6872 289.322 50.5688 289.395 50.4498 289.474C50.3269 289.553 50.2064 289.637 50.089 289.726C49.9701 289.814 49.8451 289.908 49.7285 290.006C49.6697 290.054 49.6091 290.104 49.5471 290.156C49.4862 290.207 49.4263 290.259 49.3675 290.312C48.8854 290.737 48.3868 291.227 47.8796 291.788C47.62 292.068 47.3612 292.367 47.0957 292.684C46.829 292.998 46.5532 293.34 46.2931 293.678C46.028 294.011 45.7604 294.363 45.517 294.7C45.2706 295.037 45.0407 295.366 44.8288 295.688C44.4023 296.327 44.0471 296.93 43.7602 297.504C43.4739 298.074 43.2511 298.62 43.1104 299.145C43.0418 299.415 42.9936 299.667 42.9809 299.926C42.9682 300.183 42.9907 300.437 43.0659 300.678C43.1414 300.919 43.2672 301.136 43.4513 301.325C43.6341 301.511 43.8818 301.677 44.1764 301.788C44.3239 301.844 44.4897 301.895 44.663 301.929C44.8357 301.962 45.0219 301.985 45.2211 301.997C45.4158 302.005 45.6211 302.001 45.8388 301.985C46.0518 301.967 46.2727 301.934 46.5045 301.891C47.416 301.708 48.4136 301.293 49.372 300.668C49.7434 300.423 50.1102 300.146 50.4665 299.842C50.4514 300.304 50.4374 300.773 50.4241 301.254C50.3619 303.564 50.3057 306.064 50.2151 308.694C50.1251 311.324 50.017 313.847 49.9444 316.166C49.9084 317.324 49.8816 318.438 49.8689 319.47C49.8546 320.507 49.8554 321.48 49.8705 322.365C49.8859 323.251 49.9163 324.053 49.9638 324.761C50.0114 325.47 50.0739 326.081 50.1595 326.594C50.2037 326.852 50.2496 327.08 50.3063 327.289C50.3616 327.495 50.4215 327.675 50.4946 327.834C50.6326 328.143 50.8122 328.365 51.0458 328.46C51.2795 328.554 51.5579 328.516 51.8819 328.328C52.0376 328.236 52.2071 328.106 52.3783 327.943C52.547 327.78 52.7263 327.582 52.9004 327.353C53.2532 326.895 53.6116 326.311 53.9576 325.62C54.304 324.93 54.641 324.132 54.9615 323.244C55.2826 322.354 55.5848 321.378 55.8674 320.319C56.1498 319.254 56.4065 318.124 56.6343 316.916C57.0891 314.504 57.4184 311.805 57.5164 308.944C57.5633 307.514 57.5532 306.112 57.4862 304.764Z" fill="#04294F"/>
<path d="M176.405 123.928C175.787 123.731 175.91 121.904 175.769 119.231C175.694 117.894 175.535 116.345 175.132 114.696C174.746 113.046 174.106 111.293 173.206 109.549C172.29 107.791 171.226 106.177 170.162 104.83C169.1 103.469 168.011 102.39 167.038 101.552C166.063 100.714 165.182 100.152 164.537 99.731C164.218 99.4986 163.953 99.3404 163.774 99.1625C163.595 98.9891 163.499 98.8228 163.513 98.6688C163.527 98.5148 163.651 98.3802 163.89 98.267C164.127 98.1584 164.487 98.0458 164.941 98.0347C165.855 97.967 167.201 98.1733 168.674 98.8417C170.144 99.5042 171.749 100.587 173.216 102.061C174.694 103.533 176.061 105.354 177.173 107.485C178.286 109.636 178.961 111.903 179.192 114.002C179.442 116.102 179.264 118.008 178.915 119.529C178.564 121.055 178.059 122.21 177.59 122.948C177.113 123.687 176.694 124.021 176.405 123.928Z" fill="white"/>
<path d="M42.6983 172.469C42.613 172.598 42.3966 172.631 42.057 172.571C41.7193 172.508 41.247 172.366 40.6939 172.097C39.5705 171.582 38.0545 170.636 36.3812 169.237C34.7062 167.842 32.8679 166.006 31.0398 163.801C30.1299 162.697 29.2192 161.503 28.3255 160.231C27.4381 158.955 26.5671 157.607 25.7237 156.183C24.8943 154.751 24.1425 153.331 23.4642 151.928C22.7911 150.523 22.2025 149.137 21.6872 147.797C20.6783 145.106 19.9927 142.595 19.6232 140.446C19.2523 138.296 19.1565 136.527 19.2468 135.299C19.3297 134.071 19.5628 133.389 19.8627 133.357C20.5095 133.292 21.2171 135.802 22.6713 139.611C23.3948 141.519 24.3322 143.751 25.4758 146.18C26.0593 147.391 26.6871 148.654 27.3716 149.949C28.0609 151.242 28.8002 152.572 29.5768 153.914C30.3668 155.247 31.1681 156.543 31.9572 157.78C32.7532 159.013 33.5418 160.187 34.3102 161.293C35.8548 163.499 37.33 165.418 38.6153 166.997C41.1765 170.158 43.0477 171.918 42.6983 172.469Z" fill="white"/>
<path d="M50.933 70.3315C50.9322 70.6345 50.2957 70.9354 49.1153 71.1481C47.9357 71.368 46.2118 71.4583 44.0879 71.3135C41.964 71.1736 39.4549 70.7384 36.7477 69.9847C35.3991 69.5957 33.9991 69.1347 32.5785 68.5856C31.1597 68.0311 29.7211 67.4018 28.2674 66.693C26.82 65.9689 25.4494 65.2084 24.148 64.4247C22.8514 63.6345 21.6313 62.8187 20.4996 61.996C18.2411 60.3422 16.3482 58.6422 14.9032 57.0683C13.455 55.4962 12.4691 54.0416 11.9324 52.9526C11.6522 52.4178 11.502 51.9557 11.435 51.6243C11.3695 51.291 11.3987 51.077 11.525 50.9886C12.0689 50.6261 13.8214 52.3986 17.0181 54.715C18.6141 55.8794 20.5574 57.2018 22.7891 58.5654C23.908 59.2431 25.095 59.9346 26.3408 60.6263C27.59 61.3109 28.8994 62.0024 30.2427 62.6748C31.5942 63.3331 32.9353 63.9531 34.2354 64.5232C35.5382 65.0886 36.807 65.595 38.0234 66.0602C40.4623 66.9641 42.6985 67.674 44.6102 68.1896C48.4266 69.2354 50.9325 69.6791 50.933 70.3315Z" fill="white"/>
<path d="M106.855 188.23C106.609 187.959 106.669 187.401 106.96 186.609C107.106 186.213 107.285 185.726 107.526 185.198C107.647 184.936 107.761 184.634 107.897 184.332C108.027 184.023 108.181 183.715 108.32 183.364C108.917 182.003 109.6 180.328 110.33 178.371C111.058 176.412 111.82 174.156 112.581 171.63C113.341 169.104 114.11 166.31 114.85 163.288C115.579 160.289 116.304 157.033 116.973 153.624C117.648 150.215 118.27 146.639 118.829 142.952C119.381 139.255 119.871 135.479 120.262 131.585C120.359 130.624 120.455 129.668 120.55 128.718C120.627 127.777 120.702 126.842 120.778 125.913C120.866 124.988 120.896 124.066 120.967 123.157C120.998 122.703 121.029 122.25 121.06 121.8C121.081 121.349 121.103 120.9 121.123 120.453C121.238 118.67 121.272 116.917 121.358 115.205C121.383 113.489 121.464 111.815 121.473 110.174C121.528 108.536 121.51 106.931 121.557 105.371C121.564 104.588 121.571 103.817 121.577 103.058C121.592 102.298 121.613 101.548 121.61 100.807C121.616 100.067 121.631 99.3378 121.653 98.62C121.667 97.8993 121.681 97.1919 121.694 96.4986C121.719 95.8005 121.744 95.1161 121.768 94.4467C121.784 93.7743 121.81 93.1139 121.844 92.4662C121.925 91.1712 121.985 89.9255 122.09 88.7353C122.14 88.1402 122.21 87.5584 122.268 86.9915C122.324 86.4245 122.389 85.8719 122.463 85.3344C122.777 83.1835 123.146 81.2758 123.686 79.6539C124.212 78.033 124.842 76.7034 125.628 75.7137C126.408 74.7248 127.321 74.0782 128.35 73.8363C129.379 73.5946 130.476 73.7704 131.605 74.3477C132.73 74.9266 133.91 75.8998 135.053 77.2637C136.183 78.632 137.341 80.3706 138.379 82.4894C138.643 83.0176 138.904 83.5678 139.164 84.139C139.42 84.7109 139.656 85.3108 139.898 85.9282C140.377 87.1643 140.853 88.4812 141.257 89.8926C141.466 90.5963 141.67 91.3199 141.869 92.0618C142.064 92.8054 142.231 93.5738 142.405 94.3572C142.572 95.1424 142.753 95.9409 142.892 96.7652C143.032 97.5892 143.166 98.4304 143.293 99.2881C143.43 100.144 143.529 101.022 143.619 101.917C143.708 102.81 143.803 103.718 143.869 104.643C143.973 106.497 144.082 108.406 144.059 110.372C144.082 112.336 143.972 114.35 143.859 116.405C143.686 118.456 143.505 120.551 143.189 122.666C143.114 123.195 143.039 123.726 142.963 124.26C142.881 124.792 142.781 125.324 142.688 125.858C142.489 126.925 142.317 128.005 142.075 129.078C141.834 130.15 141.592 131.23 141.349 132.317C141.067 133.386 140.784 134.462 140.499 135.544C139.33 139.821 137.916 143.945 136.397 147.811C134.868 151.682 133.221 155.327 131.52 158.721C129.822 162.117 128.077 165.251 126.322 168.158C124.575 171.041 122.821 173.66 121.113 175.992C119.404 178.322 117.734 180.357 116.155 182.059C114.573 183.759 113.102 185.132 111.785 186.142C111.469 186.401 111.136 186.623 110.837 186.835C110.531 187.043 110.256 187.24 109.973 187.402C109.409 187.727 108.935 187.988 108.505 188.15C107.646 188.474 107.102 188.501 106.855 188.23Z" fill="white"/>
</g>
<defs>
<clipPath id="clip0">
<rect width="193" height="349" fill="white"/>
</clipPath>
</defs>
</svg>
