<svg width="130" height="130" viewBox="0 0 130 130" fill="none" xmlns="http://www.w3.org/2000/svg">
<g filter="url(#filter0_d)">
<circle cx="65" cy="61" r="53" fill="#FF7751"/>
</g>
<path d="M40.2632 48.6662C39.8158 45.8665 37.6233 44.2301 34.8556 44.2301C31.4678 44.2301 28.9685 46.7678 28.9685 50.9545C28.9685 55.1413 31.455 57.679 34.8556 57.679C37.732 57.679 39.835 55.8764 40.2632 53.2876L38.2689 53.2812C37.9301 54.956 36.5239 55.8764 34.8683 55.8764C32.6247 55.8764 30.9308 54.157 30.9308 50.9545C30.9308 47.7777 32.6183 46.0327 34.8747 46.0327C36.5431 46.0327 37.9429 46.9723 38.2689 48.6662H40.2632ZM47.3904 57.5H49.3655V52.8977H52.0502C55.0864 52.8977 56.5885 51.0632 56.5885 48.647C56.5885 46.2372 55.0992 44.4091 52.0566 44.4091H47.3904V57.5ZM49.3655 51.223V46.103H51.8456C53.8016 46.103 54.6006 47.1641 54.6006 48.647C54.6006 50.13 53.8016 51.223 51.8712 51.223H49.3655ZM58.7506 57.5H60.6618V51.5043C60.6618 50.2195 61.6526 49.2926 63.0077 49.2926C63.404 49.2926 63.8515 49.3629 64.0049 49.4077V47.5795C63.8131 47.554 63.436 47.5348 63.1931 47.5348C62.0425 47.5348 61.0582 48.1868 60.7002 49.2415H60.5979V47.6818H58.7506V57.5ZM69.4429 57.6982C72.2107 57.6982 74.0196 55.6719 74.0196 52.6357C74.0196 49.5803 72.2107 47.554 69.4429 47.554C66.6752 47.554 64.8662 49.5803 64.8662 52.6357C64.8662 55.6719 66.6752 57.6982 69.4429 57.6982ZM69.4493 56.0938C67.6404 56.0938 66.7966 54.5149 66.7966 52.6293C66.7966 50.75 67.6404 49.152 69.4493 49.152C71.2455 49.152 72.0892 50.75 72.0892 52.6293C72.0892 54.5149 71.2455 56.0938 69.4493 56.0938ZM76.153 47.6818V58.1264C76.153 59.0341 75.7758 59.5327 74.8682 59.5327H74.5613V61.1754C74.6956 61.1818 74.817 61.1818 74.9513 61.1818C76.9839 61.1818 78.0642 60.108 78.0642 58.1392V47.6818H76.153ZM77.099 46.1669C77.7574 46.1669 78.3071 45.6555 78.3071 45.0291C78.3071 44.4027 77.7574 43.8849 77.099 43.8849C76.4342 43.8849 75.8909 44.4027 75.8909 45.0291C75.8909 45.6555 76.4342 46.1669 77.099 46.1669ZM84.8669 57.6982C87.0083 57.6982 88.5232 56.6435 88.9578 55.0455L87.1489 54.7195C86.8037 55.6463 85.9727 56.1193 84.8861 56.1193C83.2497 56.1193 82.1503 55.0582 82.0992 53.1662H89.0793V52.4886C89.0793 48.9411 86.9571 47.554 84.7327 47.554C81.9969 47.554 80.1943 49.6378 80.1943 52.6548C80.1943 55.7038 81.9713 57.6982 84.8669 57.6982ZM82.1056 51.7344C82.1823 50.3409 83.1922 49.1328 84.7455 49.1328C86.2284 49.1328 87.2 50.2322 87.2064 51.7344H82.1056ZM98.5571 50.0788C98.1608 48.5511 96.9655 47.554 94.8433 47.554C92.6253 47.554 91.0528 48.7237 91.0528 50.4624C91.0528 51.8558 91.8966 52.7827 93.7375 53.1918L95.3994 53.5561C96.3454 53.767 96.7865 54.1889 96.7865 54.8026C96.7865 55.5632 95.9747 56.1577 94.7219 56.1577C93.5777 56.1577 92.8426 55.6655 92.6125 54.7003L90.7652 54.9815C91.0848 56.7202 92.5294 57.6982 94.7346 57.6982C97.1061 57.6982 98.7488 56.4389 98.7488 54.6619C98.7488 53.2749 97.8667 52.4183 96.0642 52.0028L94.5045 51.6449C93.4243 51.3892 92.9577 51.0249 92.964 50.3601C92.9577 49.6058 93.7758 49.0689 94.8625 49.0689C96.0514 49.0689 96.6011 49.7273 96.8248 50.3857L98.5571 50.0788ZM100.85 57.5H102.761V47.6818H100.85V57.5ZM101.815 46.1669C102.474 46.1669 103.024 45.6555 103.024 45.0291C103.024 44.4027 102.474 43.8849 101.815 43.8849C101.151 43.8849 100.607 44.4027 100.607 45.0291C100.607 45.6555 101.151 46.1669 101.815 46.1669ZM43.178 66.4091H41.254L37.9877 68.544V70.4361L41.1198 68.3906H41.1965V79.5H43.178V66.4091ZM51.6618 79.5H53.637V75.4283L55.1839 73.6513L59.4154 79.5H61.7932L56.4942 72.3026L61.7741 66.4091H59.2876L53.7968 72.6605H53.637V66.4091H51.6618V79.5ZM63.4616 79.5H65.3728V73.5043C65.3728 72.2195 66.3635 71.2926 67.7187 71.2926C68.115 71.2926 68.5624 71.3629 68.7158 71.4077V69.5795C68.5241 69.554 68.1469 69.5348 67.904 69.5348C66.7535 69.5348 65.7691 70.1868 65.4111 71.2415H65.3089V69.6818H63.4616V79.5ZM74.2497 79.6982C76.3911 79.6982 77.906 78.6435 78.3406 77.0455L76.5317 76.7195C76.1865 77.6463 75.3556 78.1193 74.2689 78.1193C72.6325 78.1193 71.5331 77.0582 71.482 75.1662H78.4621V74.4886C78.4621 70.9411 76.3399 69.554 74.1155 69.554C71.3797 69.554 69.5771 71.6378 69.5771 74.6548C69.5771 77.7038 71.3541 79.6982 74.2497 79.6982ZM71.4884 73.7344C71.5651 72.3409 72.575 71.1328 74.1283 71.1328C75.6112 71.1328 76.5828 72.2322 76.5892 73.7344H71.4884ZM84.2581 79.6918C86.0479 79.6918 86.751 78.5987 87.0961 77.9723H87.2559V79.5H89.1224V66.4091H87.2112V71.2734H87.0961C86.751 70.6662 86.099 69.554 84.2709 69.554C81.8994 69.554 80.1544 71.4268 80.1544 74.6101C80.1544 77.7869 81.8738 79.6918 84.2581 79.6918ZM84.68 78.0618C82.9733 78.0618 82.0848 76.5597 82.0848 74.5909C82.0848 72.6413 82.9541 71.1776 84.68 71.1776C86.3483 71.1776 87.2432 72.5391 87.2432 74.5909C87.2432 76.6555 86.3291 78.0618 84.68 78.0618ZM91.8502 79.5H93.7615V69.6818H91.8502V79.5ZM92.8154 68.1669C93.4738 68.1669 94.0235 67.6555 94.0235 67.0291C94.0235 66.4027 93.4738 65.8849 92.8154 65.8849C92.1507 65.8849 91.6073 66.4027 91.6073 67.0291C91.6073 67.6555 92.1507 68.1669 92.8154 68.1669Z" fill="white"/>
<defs>
<filter id="filter0_d" x="0" y="0" width="130" height="130" filterUnits="userSpaceOnUse" color-interpolation-filters="sRGB">
<feFlood flood-opacity="0" result="BackgroundImageFix"/>
<feColorMatrix in="SourceAlpha" type="matrix" values="0 0 0 0 0 0 0 0 0 0 0 0 0 0 0 0 0 0 127 0"/>
<feOffset dy="4"/>
<feGaussianBlur stdDeviation="6"/>
<feColorMatrix type="matrix" values="0 0 0 0 0.729167 0 0 0 0 0.729167 0 0 0 0 0.729167 0 0 0 0.26 0"/>
<feBlend mode="normal" in2="BackgroundImageFix" result="effect1_dropShadow"/>
<feBlend mode="normal" in="SourceGraphic" in2="effect1_dropShadow" result="shape"/>
</filter>
</defs>
</svg>
