<svg width="130" height="130" viewBox="0 0 130 130" fill="none" xmlns="http://www.w3.org/2000/svg">
<g filter="url(#filter0_d)">
<circle cx="65" cy="61" r="53" fill="#6F22D1"/>
</g>
<path d="M33.2513 57.5C37.24 57.5 39.5475 55.0263 39.5475 50.9354C39.5475 46.8636 37.24 44.4091 33.3856 44.4091H29.0134V57.5H33.2513ZM30.9885 55.7741V46.1349H33.2641C36.1278 46.1349 37.6043 47.848 37.6043 50.9354C37.6043 54.0355 36.1278 55.7741 33.1427 55.7741H30.9885ZM46.7673 57.5H48.7425V52.8977H51.4271C54.4633 52.8977 55.9655 51.0632 55.9655 48.647C55.9655 46.2372 54.4761 44.4091 51.4335 44.4091H46.7673V57.5ZM48.7425 51.223V46.103H51.2226C53.1785 46.103 53.9775 47.1641 53.9775 48.647C53.9775 50.13 53.1785 51.223 51.2481 51.223H48.7425ZM58.1276 57.5H60.0388V51.5043C60.0388 50.2195 61.0296 49.2926 62.3847 49.2926C62.781 49.2926 63.2284 49.3629 63.3818 49.4077V47.5795C63.1901 47.554 62.8129 47.5348 62.57 47.5348C61.4195 47.5348 60.4351 48.1868 60.0771 49.2415H59.9749V47.6818H58.1276V57.5ZM68.8199 57.6982C71.5876 57.6982 73.3966 55.6719 73.3966 52.6357C73.3966 49.5803 71.5876 47.554 68.8199 47.554C66.0521 47.554 64.2432 49.5803 64.2432 52.6357C64.2432 55.6719 66.0521 57.6982 68.8199 57.6982ZM68.8263 56.0938C67.0173 56.0938 66.1736 54.5149 66.1736 52.6293C66.1736 50.75 67.0173 49.152 68.8263 49.152C70.6224 49.152 71.4662 50.75 71.4662 52.6293C71.4662 54.5149 70.6224 56.0938 68.8263 56.0938ZM75.5299 47.6818V58.1264C75.5299 59.0341 75.1528 59.5327 74.2451 59.5327H73.9383V61.1754C74.0725 61.1818 74.194 61.1818 74.3282 61.1818C76.3609 61.1818 77.4411 60.108 77.4411 58.1392V47.6818H75.5299ZM76.4759 46.1669C77.1343 46.1669 77.684 45.6555 77.684 45.0291C77.684 44.4027 77.1343 43.8849 76.4759 43.8849C75.8112 43.8849 75.2678 44.4027 75.2678 45.0291C75.2678 45.6555 75.8112 46.1669 76.4759 46.1669ZM84.2439 57.6982C86.3852 57.6982 87.9001 56.6435 88.3348 55.0455L86.5258 54.7195C86.1807 55.6463 85.3497 56.1193 84.2631 56.1193C82.6267 56.1193 81.5273 55.0582 81.4761 53.1662H88.4562V52.4886C88.4562 48.9411 86.3341 47.554 84.1096 47.554C81.3738 47.554 79.5713 49.6378 79.5713 52.6548C79.5713 55.7038 81.3483 57.6982 84.2439 57.6982ZM81.4825 51.7344C81.5592 50.3409 82.5692 49.1328 84.1224 49.1328C85.6054 49.1328 86.577 50.2322 86.5834 51.7344H81.4825ZM97.934 50.0788C97.5377 48.5511 96.3424 47.554 94.2203 47.554C92.0022 47.554 90.4298 48.7237 90.4298 50.4624C90.4298 51.8558 91.2735 52.7827 93.1144 53.1918L94.7764 53.5561C95.7224 53.767 96.1634 54.1889 96.1634 54.8026C96.1634 55.5632 95.3517 56.1577 94.0988 56.1577C92.9546 56.1577 92.2195 55.6655 91.9894 54.7003L90.1421 54.9815C90.4617 56.7202 91.9063 57.6982 94.1116 57.6982C96.483 57.6982 98.1258 56.4389 98.1258 54.6619C98.1258 53.2749 97.2437 52.4183 95.4411 52.0028L93.8815 51.6449C92.8012 51.3892 92.3346 51.0249 92.341 50.3601C92.3346 49.6058 93.1528 49.0689 94.2394 49.0689C95.4284 49.0689 95.9781 49.7273 96.2018 50.3857L97.934 50.0788ZM100.227 57.5H102.138V47.6818H100.227V57.5ZM101.192 46.1669C101.851 46.1669 102.4 45.6555 102.4 45.0291C102.4 44.4027 101.851 43.8849 101.192 43.8849C100.528 43.8849 99.9843 44.4027 99.9843 45.0291C99.9843 45.6555 100.528 46.1669 101.192 46.1669ZM40.7132 79.7173C43.7367 79.7173 45.5073 77.25 45.5073 72.9609C45.5073 68.7038 43.7111 66.2301 40.7132 66.2301C37.709 66.2301 35.9192 68.6974 35.9128 72.9609C35.9128 77.2436 37.6834 79.7109 40.7132 79.7173ZM40.7132 78.0107C38.9426 78.0107 37.8752 76.2337 37.8752 72.9609C37.8816 69.701 38.949 67.9048 40.7132 67.9048C42.4711 67.9048 43.5449 69.701 43.5449 72.9609C43.5449 76.2337 42.4775 78.0107 40.7132 78.0107ZM52.7175 79.5H54.6926V75.4283L56.2395 73.6513L60.4711 79.5H62.8489L57.5499 72.3026L62.8297 66.4091H60.3432L54.8525 72.6605H54.6926V66.4091H52.7175V79.5ZM64.5172 79.5H66.4284V73.5043C66.4284 72.2195 67.4192 71.2926 68.7743 71.2926C69.1706 71.2926 69.6181 71.3629 69.7715 71.4077V69.5795C69.5797 69.554 69.2026 69.5348 68.9597 69.5348C67.8091 69.5348 66.8248 70.1868 66.4668 71.2415H66.3645V69.6818H64.5172V79.5ZM75.3054 79.6982C77.4467 79.6982 78.9616 78.6435 79.3963 77.0455L77.5874 76.7195C77.2422 77.6463 76.4112 78.1193 75.3246 78.1193C73.6882 78.1193 72.5888 77.0582 72.5376 75.1662H79.5178V74.4886C79.5178 70.9411 77.3956 69.554 75.1712 69.554C72.4354 69.554 70.6328 71.6378 70.6328 74.6548C70.6328 77.7038 72.4098 79.6982 75.3054 79.6982ZM72.544 73.7344C72.6207 72.3409 73.6307 71.1328 75.1839 71.1328C76.6669 71.1328 77.6385 72.2322 77.6449 73.7344H72.544ZM85.3137 79.6918C87.1035 79.6918 87.8066 78.5987 88.1518 77.9723H88.3116V79.5H90.1781V66.4091H88.2669V71.2734H88.1518C87.8066 70.6662 87.1547 69.554 85.3265 69.554C82.9551 69.554 81.21 71.4268 81.21 74.6101C81.21 77.7869 82.9295 79.6918 85.3137 79.6918ZM85.7356 78.0618C84.0289 78.0618 83.1404 76.5597 83.1404 74.5909C83.1404 72.6413 84.0098 71.1776 85.7356 71.1776C87.4039 71.1776 88.2988 72.5391 88.2988 74.5909C88.2988 76.6555 87.3848 78.0618 85.7356 78.0618ZM92.9059 79.5H94.8171V69.6818H92.9059V79.5ZM93.8711 68.1669C94.5295 68.1669 95.0792 67.6555 95.0792 67.0291C95.0792 66.4027 94.5295 65.8849 93.8711 65.8849C93.2063 65.8849 92.663 66.4027 92.663 67.0291C92.663 67.6555 93.2063 68.1669 93.8711 68.1669Z" fill="white"/>
<defs>
<filter id="filter0_d" x="0" y="0" width="130" height="130" filterUnits="userSpaceOnUse" color-interpolation-filters="sRGB">
<feFlood flood-opacity="0" result="BackgroundImageFix"/>
<feColorMatrix in="SourceAlpha" type="matrix" values="0 0 0 0 0 0 0 0 0 0 0 0 0 0 0 0 0 0 127 0"/>
<feOffset dy="4"/>
<feGaussianBlur stdDeviation="6"/>
<feColorMatrix type="matrix" values="0 0 0 0 0.729167 0 0 0 0 0.729167 0 0 0 0 0.729167 0 0 0 0.26 0"/>
<feBlend mode="normal" in2="BackgroundImageFix" result="effect1_dropShadow"/>
<feBlend mode="normal" in="SourceGraphic" in2="effect1_dropShadow" result="shape"/>
</filter>
</defs>
</svg>
