<svg width="130" height="130" viewBox="0 0 130 130" fill="none" xmlns="http://www.w3.org/2000/svg">
<g filter="url(#filter0_d)">
<circle cx="65" cy="61" r="53" fill="#E0073A"/>
</g>
<path d="M30.0857 57.5H38.3698V55.7997H32.0608V51.7919H37.8648V50.098H32.0608V46.1094H38.2931V44.4091H30.0857V57.5ZM45.695 57.5H47.6702V52.8977H50.3548C53.3911 52.8977 54.8932 51.0632 54.8932 48.647C54.8932 46.2372 53.4039 44.4091 50.3612 44.4091H45.695V57.5ZM47.6702 51.223V46.103H50.1503C52.1063 46.103 52.9053 47.1641 52.9053 48.647C52.9053 50.13 52.1063 51.223 50.1759 51.223H47.6702ZM57.0553 57.5H58.9665V51.5043C58.9665 50.2195 59.9573 49.2926 61.3124 49.2926C61.7087 49.2926 62.1562 49.3629 62.3096 49.4077V47.5795C62.1178 47.554 61.7407 47.5348 61.4978 47.5348C60.3472 47.5348 59.3628 48.1868 59.0049 49.2415H58.9026V47.6818H57.0553V57.5ZM67.7476 57.6982C70.5154 57.6982 72.3243 55.6719 72.3243 52.6357C72.3243 49.5803 70.5154 47.554 67.7476 47.554C64.9798 47.554 63.1709 49.5803 63.1709 52.6357C63.1709 55.6719 64.9798 57.6982 67.7476 57.6982ZM67.754 56.0938C65.945 56.0938 65.1013 54.5149 65.1013 52.6293C65.1013 50.75 65.945 49.152 67.754 49.152C69.5502 49.152 70.3939 50.75 70.3939 52.6293C70.3939 54.5149 69.5502 56.0938 67.754 56.0938ZM74.4577 47.6818V58.1264C74.4577 59.0341 74.0805 59.5327 73.1729 59.5327H72.866V61.1754C73.0003 61.1818 73.1217 61.1818 73.2559 61.1818C75.2886 61.1818 76.3689 60.108 76.3689 58.1392V47.6818H74.4577ZM75.4037 46.1669C76.0621 46.1669 76.6118 45.6555 76.6118 45.0291C76.6118 44.4027 76.0621 43.8849 75.4037 43.8849C74.7389 43.8849 74.1956 44.4027 74.1956 45.0291C74.1956 45.6555 74.7389 46.1669 75.4037 46.1669ZM83.1716 57.6982C85.3129 57.6982 86.8279 56.6435 87.2625 55.0455L85.4536 54.7195C85.1084 55.6463 84.2774 56.1193 83.1908 56.1193C81.5544 56.1193 80.455 55.0582 80.4039 53.1662H87.384V52.4886C87.384 48.9411 85.2618 47.554 83.0374 47.554C80.3016 47.554 78.499 49.6378 78.499 52.6548C78.499 55.7038 80.276 57.6982 83.1716 57.6982ZM80.4102 51.7344C80.4869 50.3409 81.4969 49.1328 83.0502 49.1328C84.5331 49.1328 85.5047 50.2322 85.5111 51.7344H80.4102ZM96.8618 50.0788C96.4655 48.5511 95.2702 47.554 93.148 47.554C90.93 47.554 89.3575 48.7237 89.3575 50.4624C89.3575 51.8558 90.2013 52.7827 92.0422 53.1918L93.7041 53.5561C94.6501 53.767 95.0912 54.1889 95.0912 54.8026C95.0912 55.5632 94.2794 56.1577 93.0265 56.1577C91.8824 56.1577 91.1473 55.6655 90.9172 54.7003L89.0699 54.9815C89.3895 56.7202 90.8341 57.6982 93.0393 57.6982C95.4108 57.6982 97.0535 56.4389 97.0535 54.6619C97.0535 53.2749 96.1714 52.4183 94.3689 52.0028L92.8092 51.6449C91.729 51.3892 91.2623 51.0249 91.2687 50.3601C91.2623 49.6058 92.0805 49.0689 93.1672 49.0689C94.3561 49.0689 94.9058 49.7273 95.1295 50.3857L96.8618 50.0788ZM99.1549 57.5H101.066V47.6818H99.1549V57.5ZM100.12 46.1669C100.778 46.1669 101.328 45.6555 101.328 45.0291C101.328 44.4027 100.778 43.8849 100.12 43.8849C99.4553 43.8849 98.912 44.4027 98.912 45.0291C98.912 45.6555 99.4553 46.1669 100.12 46.1669ZM40.722 79.679C43.3939 79.679 45.3563 78.081 45.3499 75.9077C45.3563 74.2521 44.3527 73.0632 42.6141 72.7947V72.6925C43.982 72.3409 44.8705 71.267 44.8641 69.7969C44.8705 67.8729 43.2916 66.2301 40.7732 66.2301C38.3698 66.2301 36.4394 67.6811 36.3754 69.8097H38.2867C38.3314 68.608 39.4628 67.8793 40.7476 67.8793C42.0835 67.8793 42.9593 68.6911 42.9529 69.8991C42.9593 71.1648 41.9429 71.9957 40.4919 71.9957H39.3861V73.6065H40.4919C42.3073 73.6065 43.3556 74.527 43.3556 75.8438C43.3556 77.1158 42.2497 77.9787 40.7093 77.9787C39.2902 77.9787 38.1844 77.25 38.1077 76.0866H36.1006C36.1837 78.2216 38.0757 79.679 40.722 79.679ZM52.7087 79.5H54.6839V75.4283L56.2307 73.6513L60.4623 79.5H62.8401L57.5411 72.3026L62.8209 66.4091H60.3344L54.8437 72.6605H54.6839V66.4091H52.7087V79.5ZM64.5084 79.5H66.4197V73.5043C66.4197 72.2195 67.4104 71.2926 68.7655 71.2926C69.1618 71.2926 69.6093 71.3629 69.7627 71.4077V69.5795C69.5709 69.554 69.1938 69.5348 68.9509 69.5348C67.8003 69.5348 66.816 70.1868 66.458 71.2415H66.3557V69.6818H64.5084V79.5ZM75.2966 79.6982C77.4379 79.6982 78.9529 78.6435 79.3875 77.0455L77.5786 76.7195C77.2334 77.6463 76.4024 78.1193 75.3158 78.1193C73.6794 78.1193 72.58 77.0582 72.5289 75.1662H79.509V74.4886C79.509 70.9411 77.3868 69.554 75.1624 69.554C72.4266 69.554 70.624 71.6378 70.624 74.6548C70.624 77.7038 72.401 79.6982 75.2966 79.6982ZM72.5352 73.7344C72.6119 72.3409 73.6219 71.1328 75.1752 71.1328C76.6581 71.1328 77.6297 72.2322 77.6361 73.7344H72.5352ZM85.305 79.6918C87.0947 79.6918 87.7979 78.5987 88.143 77.9723H88.3028V79.5H90.1693V66.4091H88.2581V71.2734H88.143C87.7979 70.6662 87.1459 69.554 85.3177 69.554C82.9463 69.554 81.2013 71.4268 81.2013 74.6101C81.2013 77.7869 82.9207 79.6918 85.305 79.6918ZM85.7268 78.0618C84.0202 78.0618 83.1317 76.5597 83.1317 74.5909C83.1317 72.6413 84.001 71.1776 85.7268 71.1776C87.3952 71.1776 88.29 72.5391 88.29 74.5909C88.29 76.6555 87.376 78.0618 85.7268 78.0618ZM92.8971 79.5H94.8083V69.6818H92.8971V79.5ZM93.8623 68.1669C94.5207 68.1669 95.0704 67.6555 95.0704 67.0291C95.0704 66.4027 94.5207 65.8849 93.8623 65.8849C93.1975 65.8849 92.6542 66.4027 92.6542 67.0291C92.6542 67.6555 93.1975 68.1669 93.8623 68.1669Z" fill="white"/>
<defs>
<filter id="filter0_d" x="0" y="0" width="130" height="130" filterUnits="userSpaceOnUse" color-interpolation-filters="sRGB">
<feFlood flood-opacity="0" result="BackgroundImageFix"/>
<feColorMatrix in="SourceAlpha" type="matrix" values="0 0 0 0 0 0 0 0 0 0 0 0 0 0 0 0 0 0 127 0"/>
<feOffset dy="4"/>
<feGaussianBlur stdDeviation="6"/>
<feColorMatrix type="matrix" values="0 0 0 0 0.729167 0 0 0 0 0.729167 0 0 0 0 0.729167 0 0 0 0.26 0"/>
<feBlend mode="normal" in2="BackgroundImageFix" result="effect1_dropShadow"/>
<feBlend mode="normal" in="SourceGraphic" in2="effect1_dropShadow" result="shape"/>
</filter>
</defs>
</svg>
