<svg width="130" height="130" viewBox="0 0 130 130" fill="none" xmlns="http://www.w3.org/2000/svg">
<g filter="url(#filter0_d)">
<circle cx="65" cy="61" r="53" fill="#05C597"/>
</g>
<path d="M30.2351 57.5H32.2102V51.7919H37.7713V50.098H32.2102V46.1094H38.353V44.4091H30.2351V57.5ZM45.5456 57.5H47.5208V52.8977H50.2054C53.2417 52.8977 54.7438 51.0632 54.7438 48.647C54.7438 46.2372 53.2544 44.4091 50.2118 44.4091H45.5456V57.5ZM47.5208 51.223V46.103H50.0009C51.9569 46.103 52.7559 47.1641 52.7559 48.647C52.7559 50.13 51.9569 51.223 50.0265 51.223H47.5208ZM56.9059 57.5H58.8171V51.5043C58.8171 50.2195 59.8079 49.2926 61.163 49.2926C61.5593 49.2926 62.0067 49.3629 62.1602 49.4077V47.5795C61.9684 47.554 61.5913 47.5348 61.3484 47.5348C60.1978 47.5348 59.2134 48.1868 58.8555 49.2415H58.7532V47.6818H56.9059V57.5ZM67.5982 57.6982C70.3659 57.6982 72.1749 55.6719 72.1749 52.6357C72.1749 49.5803 70.3659 47.554 67.5982 47.554C64.8304 47.554 63.0215 49.5803 63.0215 52.6357C63.0215 55.6719 64.8304 57.6982 67.5982 57.6982ZM67.6046 56.0938C65.7956 56.0938 64.9519 54.5149 64.9519 52.6293C64.9519 50.75 65.7956 49.152 67.6046 49.152C69.4007 49.152 70.2445 50.75 70.2445 52.6293C70.2445 54.5149 69.4007 56.0938 67.6046 56.0938ZM74.3082 47.6818V58.1264C74.3082 59.0341 73.9311 59.5327 73.0234 59.5327H72.7166V61.1754C72.8509 61.1818 72.9723 61.1818 73.1065 61.1818C75.1392 61.1818 76.2195 60.108 76.2195 58.1392V47.6818H74.3082ZM75.2543 46.1669C75.9126 46.1669 76.4624 45.6555 76.4624 45.0291C76.4624 44.4027 75.9126 43.8849 75.2543 43.8849C74.5895 43.8849 74.0462 44.4027 74.0462 45.0291C74.0462 45.6555 74.5895 46.1669 75.2543 46.1669ZM83.0222 57.6982C85.1635 57.6982 86.6784 56.6435 87.1131 55.0455L85.3042 54.7195C84.959 55.6463 84.128 56.1193 83.0414 56.1193C81.405 56.1193 80.3056 55.0582 80.2544 53.1662H87.2346V52.4886C87.2346 48.9411 85.1124 47.554 82.888 47.554C80.1522 47.554 78.3496 49.6378 78.3496 52.6548C78.3496 55.7038 80.1266 57.6982 83.0222 57.6982ZM80.2608 51.7344C80.3375 50.3409 81.3475 49.1328 82.9007 49.1328C84.3837 49.1328 85.3553 50.2322 85.3617 51.7344H80.2608ZM96.7124 50.0788C96.3161 48.5511 95.1207 47.554 92.9986 47.554C90.7805 47.554 89.2081 48.7237 89.2081 50.4624C89.2081 51.8558 90.0518 52.7827 91.8928 53.1918L93.5547 53.5561C94.5007 53.767 94.9418 54.1889 94.9418 54.8026C94.9418 55.5632 94.13 56.1577 92.8771 56.1577C91.733 56.1577 90.9979 55.6655 90.7678 54.7003L88.9205 54.9815C89.2401 56.7202 90.6847 57.6982 92.8899 57.6982C95.2614 57.6982 96.9041 56.4389 96.9041 54.6619C96.9041 53.2749 96.022 52.4183 94.2195 52.0028L92.6598 51.6449C91.5795 51.3892 91.1129 51.0249 91.1193 50.3601C91.1129 49.6058 91.9311 49.0689 93.0178 49.0689C94.2067 49.0689 94.7564 49.7273 94.9801 50.3857L96.7124 50.0788ZM99.0055 57.5H100.917V47.6818H99.0055V57.5ZM99.9707 46.1669C100.629 46.1669 101.179 45.6555 101.179 45.0291C101.179 44.4027 100.629 43.8849 99.9707 43.8849C99.3059 43.8849 98.7626 44.4027 98.7626 45.0291C98.7626 45.6555 99.3059 46.1669 99.9707 46.1669ZM40.7132 79.7173C43.7367 79.7173 45.5073 77.25 45.5073 72.9609C45.5073 68.7038 43.7111 66.2301 40.7132 66.2301C37.709 66.2301 35.9192 68.6974 35.9128 72.9609C35.9128 77.2436 37.6834 79.7109 40.7132 79.7173ZM40.7132 78.0107C38.9426 78.0107 37.8752 76.2337 37.8752 72.9609C37.8816 69.701 38.949 67.9048 40.7132 67.9048C42.4711 67.9048 43.5449 69.701 43.5449 72.9609C43.5449 76.2337 42.4775 78.0107 40.7132 78.0107ZM52.7175 79.5H54.6926V75.4283L56.2395 73.6513L60.4711 79.5H62.8489L57.5499 72.3026L62.8297 66.4091H60.3432L54.8525 72.6605H54.6926V66.4091H52.7175V79.5ZM64.5172 79.5H66.4284V73.5043C66.4284 72.2195 67.4192 71.2926 68.7743 71.2926C69.1706 71.2926 69.6181 71.3629 69.7715 71.4077V69.5795C69.5797 69.554 69.2026 69.5348 68.9597 69.5348C67.8091 69.5348 66.8248 70.1868 66.4668 71.2415H66.3645V69.6818H64.5172V79.5ZM75.3054 79.6982C77.4467 79.6982 78.9616 78.6435 79.3963 77.0455L77.5874 76.7195C77.2422 77.6463 76.4112 78.1193 75.3246 78.1193C73.6882 78.1193 72.5888 77.0582 72.5376 75.1662H79.5178V74.4886C79.5178 70.9411 77.3956 69.554 75.1712 69.554C72.4354 69.554 70.6328 71.6378 70.6328 74.6548C70.6328 77.7038 72.4098 79.6982 75.3054 79.6982ZM72.544 73.7344C72.6207 72.3409 73.6307 71.1328 75.1839 71.1328C76.6669 71.1328 77.6385 72.2322 77.6449 73.7344H72.544ZM85.3137 79.6918C87.1035 79.6918 87.8066 78.5987 88.1518 77.9723H88.3116V79.5H90.1781V66.4091H88.2669V71.2734H88.1518C87.8066 70.6662 87.1547 69.554 85.3265 69.554C82.9551 69.554 81.21 71.4268 81.21 74.6101C81.21 77.7869 82.9295 79.6918 85.3137 79.6918ZM85.7356 78.0618C84.0289 78.0618 83.1404 76.5597 83.1404 74.5909C83.1404 72.6413 84.0098 71.1776 85.7356 71.1776C87.4039 71.1776 88.2988 72.5391 88.2988 74.5909C88.2988 76.6555 87.3848 78.0618 85.7356 78.0618ZM92.9059 79.5H94.8171V69.6818H92.9059V79.5ZM93.8711 68.1669C94.5295 68.1669 95.0792 67.6555 95.0792 67.0291C95.0792 66.4027 94.5295 65.8849 93.8711 65.8849C93.2063 65.8849 92.663 66.4027 92.663 67.0291C92.663 67.6555 93.2063 68.1669 93.8711 68.1669Z" fill="white"/>
<defs>
<filter id="filter0_d" x="0" y="0" width="130" height="130" filterUnits="userSpaceOnUse" color-interpolation-filters="sRGB">
<feFlood flood-opacity="0" result="BackgroundImageFix"/>
<feColorMatrix in="SourceAlpha" type="matrix" values="0 0 0 0 0 0 0 0 0 0 0 0 0 0 0 0 0 0 127 0"/>
<feOffset dy="4"/>
<feGaussianBlur stdDeviation="6"/>
<feColorMatrix type="matrix" values="0 0 0 0 0.729167 0 0 0 0 0.729167 0 0 0 0 0.729167 0 0 0 0.26 0"/>
<feBlend mode="normal" in2="BackgroundImageFix" result="effect1_dropShadow"/>
<feBlend mode="normal" in="SourceGraphic" in2="effect1_dropShadow" result="shape"/>
</filter>
</defs>
</svg>
