<svg width="344" height="343" viewBox="0 0 344 343" fill="none" xmlns="http://www.w3.org/2000/svg">
<path d="M234.184 273.13C233.969 273.13 233.76 273.057 233.592 272.923C233.423 272.789 233.305 272.602 233.256 272.393L229.585 256.548L218.368 254.074C218.245 254.047 218.13 253.997 218.027 253.925C217.924 253.853 217.837 253.762 217.77 253.657C217.634 253.444 217.588 253.186 217.642 252.939C217.696 252.692 217.846 252.477 218.059 252.341C218.272 252.205 218.53 252.159 218.777 252.213L230.569 254.808C230.745 254.847 230.905 254.935 231.033 255.061C231.161 255.188 231.25 255.348 231.29 255.523L234.908 271.069L249.911 268.28C250.159 268.234 250.416 268.288 250.625 268.431C250.833 268.574 250.976 268.794 251.022 269.042C251.069 269.291 251.015 269.548 250.872 269.756C250.729 269.965 250.509 270.108 250.26 270.154L234.349 273.13C234.294 273.135 234.239 273.135 234.184 273.13Z" fill="#022B42"/>
<path d="M213.993 251.37L214.493 254.789C214.641 255.799 215.58 256.498 216.59 256.35L220.009 255.85C221.019 255.702 221.718 254.764 221.57 253.754L221.07 250.335C220.922 249.325 219.984 248.626 218.974 248.773L215.555 249.273C214.545 249.421 213.846 250.36 213.993 251.37Z" fill="#022B42"/>
<path d="M247.693 269.82L249.184 271.697C249.819 272.497 250.982 272.63 251.781 271.995L253.659 270.504C254.458 269.869 254.592 268.706 253.957 267.907L252.465 266.029C251.83 265.23 250.668 265.096 249.868 265.731L247.991 267.223C247.191 267.858 247.058 269.02 247.693 269.82Z" fill="#022B42"/>
<path d="M226.977 251.785L225.497 256.529C225.193 257.504 225.736 258.54 226.711 258.845L231.455 260.325C232.43 260.629 233.466 260.086 233.77 259.111L235.251 254.366C235.555 253.392 235.011 252.356 234.037 252.051L229.292 250.571C228.318 250.267 227.281 250.81 226.977 251.785Z" fill="#022B42"/>
<path d="M235.364 264.644L228.639 267.543C227.702 267.947 227.269 269.035 227.673 269.972L230.573 276.698C230.977 277.635 232.064 278.068 233.002 277.663L239.727 274.764C240.665 274.36 241.097 273.273 240.693 272.335L237.794 265.61C237.389 264.672 236.302 264.24 235.364 264.644Z" fill="#439FC0"/>
<path d="M248.564 100.797H53.6354C52.3321 100.797 51.2756 101.854 51.2756 103.157V219.199C51.2756 220.502 52.3321 221.559 53.6354 221.559H248.564C249.867 221.559 250.924 220.502 250.924 219.199V103.157C250.924 101.854 249.867 100.797 248.564 100.797Z" fill="#022B42"/>
<path d="M292.872 119.984H227.765C226.045 119.982 224.395 119.298 223.179 118.081C221.962 116.865 221.278 115.215 221.277 113.495V58.9201C221.278 57.1997 221.962 55.5504 223.179 54.3339C224.395 53.1175 226.045 52.4333 227.765 52.4316H292.872C294.592 52.4333 296.241 53.1175 297.458 54.3339C298.674 55.5504 299.358 57.1997 299.36 58.9201V113.495C299.358 115.215 298.674 116.865 297.458 118.081C296.241 119.298 294.592 119.982 292.872 119.984ZM227.765 54.3372C226.55 54.338 225.385 54.8211 224.525 55.6804C223.666 56.5397 223.183 57.7049 223.182 58.9201V113.495C223.184 114.71 223.667 115.875 224.526 116.734C225.385 117.593 226.55 118.076 227.765 118.078H292.872C294.086 118.076 295.251 117.593 296.11 116.734C296.969 115.875 297.453 114.71 297.454 113.495V58.9201C297.454 57.7049 296.97 56.5397 296.111 55.6804C295.252 54.8211 294.087 54.338 292.872 54.3372H227.765Z" fill="#FFAF51"/>
<path d="M292.872 56.5601H227.752C226.449 56.5601 225.393 57.6165 225.393 58.9198V113.495C225.393 114.798 226.449 115.855 227.752 115.855H292.872C294.175 115.855 295.231 114.798 295.231 113.495V58.9198C295.231 57.6165 294.175 56.5601 292.872 56.5601Z" fill="#FF7751"/>
<path d="M315.227 130.171H269.287C267.973 130.171 266.908 131.236 266.908 132.55V160.965C266.908 162.279 267.973 163.344 269.287 163.344H315.227C316.541 163.344 317.606 162.279 317.606 160.965V132.55C317.606 131.236 316.541 130.171 315.227 130.171Z" fill="white"/>
<path d="M315.227 164.294H269.284C268.4 164.294 267.553 163.943 266.928 163.318C266.303 162.693 265.952 161.846 265.952 160.962V132.55C265.952 131.667 266.303 130.819 266.928 130.195C267.553 129.57 268.4 129.219 269.284 129.219H315.227C316.11 129.219 316.958 129.57 317.583 130.195C318.207 130.819 318.558 131.667 318.558 132.55V160.962C318.558 161.846 318.207 162.693 317.583 163.318C316.958 163.943 316.11 164.294 315.227 164.294ZM269.284 131.124C268.906 131.124 268.543 131.275 268.276 131.542C268.008 131.809 267.858 132.172 267.858 132.55V160.962C267.858 161.34 268.008 161.703 268.276 161.97C268.543 162.238 268.906 162.388 269.284 162.388H315.227C315.605 162.388 315.968 162.238 316.235 161.97C316.503 161.703 316.653 161.34 316.653 160.962V132.55C316.653 132.172 316.503 131.809 316.235 131.542C315.968 131.275 315.605 131.124 315.227 131.124H269.284Z" fill="#022B42"/>
<path d="M243.391 159.39H208.373C207.07 159.39 206.013 160.447 206.013 161.75V177.687C206.013 178.99 207.07 180.046 208.373 180.046H243.391C244.694 180.046 245.75 178.99 245.75 177.687V161.75C245.75 160.447 244.694 159.39 243.391 159.39Z" fill="#FF7751"/>
<path d="M211.593 175.07L214.991 169.039L218.387 175.07H211.593Z" fill="#FFAF51"/>
<path d="M220.019 176.022H209.964L214.991 167.098L220.019 176.022ZM213.226 174.117H216.757L214.991 170.979L213.226 174.117Z" fill="#022B42"/>
<path d="M211.161 171.17L214.992 164.37L218.822 171.17H211.161Z" fill="#FFAF51"/>
<path d="M220.451 172.135H209.532L214.991 162.442L220.451 172.135ZM212.79 170.23H217.199L215.001 166.327L212.79 170.23Z" fill="#022B42"/>
<path d="M241.167 165.466H224.43C224.178 165.466 223.935 165.365 223.757 165.187C223.578 165.008 223.478 164.766 223.478 164.513C223.478 164.26 223.578 164.018 223.757 163.839C223.935 163.66 224.178 163.56 224.43 163.56H241.167C241.42 163.56 241.662 163.66 241.841 163.839C242.02 164.018 242.12 164.26 242.12 164.513C242.12 164.766 242.02 165.008 241.841 165.187C241.662 165.365 241.42 165.466 241.167 165.466Z" fill="#022B42"/>
<path d="M241.167 172.405H229.918C229.666 172.405 229.423 172.305 229.245 172.126C229.066 171.947 228.966 171.705 228.966 171.452C228.966 171.2 229.066 170.957 229.245 170.779C229.423 170.6 229.666 170.5 229.918 170.5H241.167C241.42 170.5 241.662 170.6 241.841 170.779C242.02 170.957 242.12 171.2 242.12 171.452C242.12 171.705 242.02 171.947 241.841 172.126C241.662 172.305 241.42 172.405 241.167 172.405Z" fill="#022B42"/>
<path d="M226.857 171.98H224.43C224.178 171.98 223.935 171.879 223.757 171.701C223.578 171.522 223.478 171.28 223.478 171.027C223.478 170.774 223.578 170.532 223.757 170.353C223.935 170.175 224.178 170.074 224.43 170.074H226.857C227.109 170.074 227.352 170.175 227.53 170.353C227.709 170.532 227.809 170.774 227.809 171.027C227.809 171.28 227.709 171.522 227.53 171.701C227.352 171.879 227.109 171.98 226.857 171.98Z" fill="#022B42"/>
<path d="M241.167 168.94H235.832C235.579 168.94 235.337 168.84 235.158 168.661C234.98 168.482 234.879 168.24 234.879 167.987C234.879 167.735 234.98 167.492 235.158 167.314C235.337 167.135 235.579 167.035 235.832 167.035H241.167C241.42 167.035 241.663 167.135 241.841 167.314C242.02 167.492 242.12 167.735 242.12 167.987C242.12 168.24 242.02 168.482 241.841 168.661C241.663 168.84 241.42 168.94 241.167 168.94Z" fill="#022B42"/>
<path d="M232.294 168.94H224.43C224.178 168.94 223.935 168.84 223.757 168.661C223.578 168.482 223.478 168.24 223.478 167.987C223.478 167.735 223.578 167.492 223.757 167.314C223.935 167.135 224.178 167.035 224.43 167.035H232.294C232.547 167.035 232.789 167.135 232.968 167.314C233.146 167.492 233.247 167.735 233.247 167.987C233.247 168.24 233.146 168.482 232.968 168.661C232.789 168.84 232.547 168.94 232.294 168.94Z" fill="#022B42"/>
<path d="M238.001 175.867H224.43C224.178 175.867 223.935 175.767 223.757 175.588C223.578 175.409 223.478 175.167 223.478 174.914C223.478 174.662 223.578 174.419 223.757 174.24C223.935 174.062 224.178 173.961 224.43 173.961H238.001C238.254 173.961 238.496 174.062 238.675 174.24C238.853 174.419 238.954 174.662 238.954 174.914C238.954 175.167 238.853 175.409 238.675 175.588C238.496 175.767 238.254 175.867 238.001 175.867Z" fill="#022B42"/>
<path d="M292.687 199.41L314.264 208.862C315.638 205.267 316.14 201.398 315.728 197.573C315.317 193.747 314.005 190.073 311.9 186.852C309.794 183.632 306.955 180.956 303.616 179.045C300.276 177.134 296.531 176.041 292.687 175.857V199.41Z" fill="#FF7751"/>
<path d="M290.353 197.565V175.857C284.243 176.143 278.467 178.726 274.181 183.089L290.353 197.565Z" fill="#439FC0"/>
<path d="M291.052 201.243L290.959 201.195L290.912 201.166C290.855 201.133 290.802 201.093 290.753 201.049L272.625 184.839C270.468 187.497 268.896 190.579 268.011 193.886C267.127 197.192 266.949 200.648 267.49 204.028C268.032 207.408 269.28 210.635 271.153 213.5C273.026 216.365 275.482 218.802 278.361 220.654C281.24 222.505 284.477 223.728 287.861 224.244C291.245 224.759 294.699 224.556 297.999 223.646C301.299 222.736 304.369 221.14 307.01 218.963C309.652 216.786 311.804 214.077 313.328 211.012L291.052 201.243Z" fill="#022B42"/>
<path d="M287.215 244.813H273.654C273.317 244.813 272.994 244.679 272.756 244.441C272.517 244.203 272.384 243.88 272.384 243.543C272.384 243.206 272.517 242.883 272.756 242.644C272.994 242.406 273.317 242.272 273.654 242.272H285.951L286.078 217.818C286.078 217.481 286.212 217.158 286.45 216.919C286.688 216.681 287.012 216.547 287.349 216.547C287.685 216.547 288.009 216.681 288.247 216.919C288.485 217.158 288.619 217.481 288.619 217.818L288.486 243.52C288.488 243.689 288.458 243.857 288.395 244.013C288.333 244.17 288.24 244.313 288.121 244.433C288.003 244.554 287.862 244.649 287.706 244.714C287.551 244.78 287.384 244.813 287.215 244.813Z" fill="#FFAF51"/>
<path d="M306.658 212.365C306.605 212.188 306.514 212.025 306.391 211.886C306.269 211.747 306.119 211.637 305.95 211.561L294.183 206.41C293.971 206.317 293.738 206.284 293.509 206.313C293.28 206.343 293.063 206.435 292.882 206.578C292.701 206.722 292.563 206.913 292.482 207.129C292.401 207.346 292.381 207.58 292.424 207.807L294.459 218.758C294.514 219.05 294.668 219.313 294.896 219.503C295.124 219.692 295.411 219.796 295.708 219.797H295.819C297.965 219.619 300.042 218.955 301.893 217.855C303.744 216.754 305.319 215.246 306.499 213.445C306.604 213.288 306.673 213.109 306.701 212.923C306.728 212.736 306.714 212.545 306.658 212.365Z" fill="#FFAF51"/>
<path d="M217.418 161.572C217.165 161.572 216.923 161.471 216.744 161.293C216.565 161.114 216.465 160.872 216.465 160.619V148.928L203.996 136.46C203.828 136.279 203.737 136.04 203.741 135.793C203.745 135.547 203.845 135.311 204.02 135.136C204.194 134.962 204.43 134.862 204.677 134.858C204.924 134.853 205.162 134.945 205.343 135.113L218.091 147.861C218.27 148.04 218.37 148.282 218.371 148.535V160.619C218.371 160.872 218.27 161.114 218.092 161.293C217.913 161.471 217.671 161.572 217.418 161.572Z" fill="#FF7751"/>
<path d="M274.791 231.363H232.856C231.553 231.363 230.496 232.419 230.496 233.722V255.001C230.496 256.304 231.553 257.361 232.856 257.361H274.791C276.094 257.361 277.151 256.304 277.151 255.001V233.722C277.151 232.419 276.094 231.363 274.791 231.363Z" fill="#FFAF51"/>
<path d="M271.742 236.873H259.064C258.811 236.873 258.569 236.773 258.39 236.594C258.211 236.416 258.111 236.173 258.111 235.921C258.111 235.668 258.211 235.426 258.39 235.247C258.569 235.068 258.811 234.968 259.064 234.968H271.742C271.995 234.968 272.237 235.068 272.416 235.247C272.595 235.426 272.695 235.668 272.695 235.921C272.695 236.173 272.595 236.416 272.416 236.594C272.237 236.773 271.995 236.873 271.742 236.873Z" fill="#022B42"/>
<path d="M254.357 236.873H236.032C235.779 236.873 235.537 236.773 235.358 236.594C235.179 236.416 235.079 236.173 235.079 235.921C235.079 235.668 235.179 235.426 235.358 235.247C235.537 235.068 235.779 234.968 236.032 234.968H254.357C254.61 234.968 254.852 235.068 255.031 235.247C255.209 235.426 255.31 235.668 255.31 235.921C255.31 236.173 255.209 236.416 255.031 236.594C254.852 236.773 254.61 236.873 254.357 236.873Z" fill="#022B42"/>
<path d="M271.742 249.348H265.324C265.071 249.348 264.829 249.248 264.65 249.069C264.471 248.891 264.371 248.648 264.371 248.396C264.371 248.143 264.471 247.901 264.65 247.722C264.829 247.543 265.071 247.443 265.324 247.443H271.742C271.995 247.443 272.237 247.543 272.416 247.722C272.595 247.901 272.695 248.143 272.695 248.396C272.695 248.648 272.595 248.891 272.416 249.069C272.237 249.248 271.995 249.348 271.742 249.348Z" fill="white"/>
<path d="M262.328 249.348H252.712C252.459 249.348 252.217 249.248 252.038 249.069C251.859 248.891 251.759 248.648 251.759 248.396C251.759 248.143 251.859 247.901 252.038 247.722C252.217 247.543 252.459 247.443 252.712 247.443H262.328C262.581 247.443 262.824 247.543 263.002 247.722C263.181 247.901 263.281 248.143 263.281 248.396C263.281 248.648 263.181 248.891 263.002 249.069C262.824 249.248 262.581 249.348 262.328 249.348Z" fill="#022B42"/>
<path d="M248.005 249.348H236.032C235.779 249.348 235.537 249.248 235.358 249.069C235.179 248.891 235.079 248.648 235.079 248.396C235.079 248.143 235.179 247.901 235.358 247.722C235.537 247.543 235.779 247.443 236.032 247.443H248.005C248.258 247.443 248.5 247.543 248.679 247.722C248.858 247.901 248.958 248.143 248.958 248.396C248.958 248.648 248.858 248.891 248.679 249.069C248.5 249.248 248.258 249.348 248.005 249.348Z" fill="#022B42"/>
<path d="M271.742 241.034H264.584C264.331 241.034 264.089 240.934 263.91 240.755C263.731 240.576 263.631 240.334 263.631 240.081C263.631 239.829 263.731 239.586 263.91 239.407C264.089 239.229 264.331 239.128 264.584 239.128H271.742C271.995 239.128 272.237 239.229 272.416 239.407C272.595 239.586 272.695 239.829 272.695 240.081C272.695 240.334 272.595 240.576 272.416 240.755C272.237 240.934 271.995 241.034 271.742 241.034Z" fill="#022B42"/>
<path d="M259.473 241.034H246.713C246.46 241.034 246.218 240.934 246.039 240.755C245.86 240.576 245.76 240.334 245.76 240.081C245.76 239.829 245.86 239.586 246.039 239.407C246.218 239.229 246.46 239.128 246.713 239.128H259.473C259.726 239.128 259.969 239.229 260.147 239.407C260.326 239.586 260.426 239.829 260.426 240.081C260.426 240.334 260.326 240.576 260.147 240.755C259.969 240.934 259.726 241.034 259.473 241.034Z" fill="white"/>
<path d="M241.622 241.034H236.038C235.786 241.034 235.543 240.934 235.365 240.755C235.186 240.576 235.085 240.334 235.085 240.081C235.085 239.829 235.186 239.586 235.365 239.407C235.543 239.229 235.786 239.128 236.038 239.128H241.622C241.874 239.128 242.117 239.229 242.295 239.407C242.474 239.586 242.574 239.829 242.574 240.081C242.574 240.334 242.474 240.576 242.295 240.755C242.117 240.934 241.874 241.034 241.622 241.034Z" fill="#022B42"/>
<path d="M266.842 245.181H236.035C235.782 245.181 235.54 245.081 235.361 244.902C235.183 244.724 235.082 244.481 235.082 244.229C235.082 243.976 235.183 243.734 235.361 243.555C235.54 243.376 235.782 243.276 236.035 243.276H266.842C267.094 243.276 267.337 243.376 267.515 243.555C267.694 243.734 267.794 243.976 267.794 244.229C267.794 244.481 267.694 244.724 267.515 244.902C267.337 245.081 267.094 245.181 266.842 245.181Z" fill="#022B42"/>
<path d="M260.582 253.509H236.038C235.786 253.509 235.543 253.409 235.365 253.23C235.186 253.051 235.085 252.809 235.085 252.556C235.085 252.304 235.186 252.061 235.365 251.883C235.543 251.704 235.786 251.604 236.038 251.604H260.582C260.834 251.604 261.077 251.704 261.255 251.883C261.434 252.061 261.535 252.304 261.535 252.556C261.535 252.809 261.434 253.051 261.255 253.23C261.077 253.409 260.834 253.509 260.582 253.509Z" fill="#022B42"/>
<path d="M245.067 88.8687H241.256V106.819H245.067V88.8687Z" fill="#FFAF51"/>
<path d="M245.067 84.686H241.256V88.8687H245.067V84.686Z" fill="white"/>
<path d="M252.264 83.0122H248.453V106.819H252.264V83.0122Z" fill="#FFAF51"/>
<path d="M252.264 74.1958H248.453V83.0122H252.264V74.1958Z" fill="white"/>
<path d="M259.458 91.7969H255.646V106.819H259.458V91.7969Z" fill="#FFAF51"/>
<path d="M259.458 80.0522H255.646V91.7968H259.458V80.0522Z" fill="white"/>
<path d="M266.654 97.6562H262.843V106.822H266.654V97.6562Z" fill="#FFAF51"/>
<path d="M266.654 88.8403H262.843V97.6567H266.654V88.8403Z" fill="white"/>
<path d="M273.851 80.084H270.04V106.822H273.851V80.084Z" fill="#FFAF51"/>
<path d="M273.851 68.3364H270.04V80.081H273.851V68.3364Z" fill="white"/>
<path d="M281.047 71.2964H277.236V106.819H281.047V71.2964Z" fill="#FFAF51"/>
<path d="M281.047 66.2881H277.236V71.2965H281.047V66.2881Z" fill="white"/>
<path d="M286.078 108.09H234.212V66.2881H236.753V105.549H286.078V108.09Z" fill="white"/>
<path d="M238.468 187.551C240.904 187.551 242.879 185.576 242.879 183.14C242.879 180.704 240.904 178.729 238.468 178.729C236.032 178.729 234.057 180.704 234.057 183.14C234.057 185.576 236.032 187.551 238.468 187.551Z" fill="#FFAF51"/>
<path d="M238.477 188.504C237.417 188.504 236.379 188.19 235.497 187.6C234.615 187.011 233.928 186.173 233.522 185.193C233.116 184.213 233.009 183.134 233.216 182.094C233.423 181.053 233.934 180.097 234.684 179.347C235.435 178.597 236.39 178.086 237.431 177.879C238.471 177.672 239.55 177.778 240.53 178.184C241.51 178.59 242.348 179.278 242.938 180.16C243.527 181.042 243.842 182.079 243.842 183.14C243.839 184.562 243.273 185.925 242.268 186.93C241.262 187.936 239.899 188.502 238.477 188.504ZM238.477 179.681C237.793 179.681 237.125 179.884 236.556 180.264C235.987 180.644 235.544 181.185 235.282 181.816C235.02 182.448 234.952 183.144 235.085 183.815C235.219 184.486 235.548 185.102 236.032 185.586C236.516 186.069 237.132 186.399 237.803 186.532C238.474 186.666 239.169 186.597 239.801 186.335C240.433 186.074 240.973 185.63 241.353 185.062C241.733 184.493 241.936 183.824 241.936 183.14C241.934 182.223 241.569 181.345 240.921 180.696C240.273 180.048 239.394 179.683 238.477 179.681Z" fill="#022B42"/>
<path d="M226.596 187.551C229.033 187.551 231.008 185.576 231.008 183.14C231.008 180.704 229.033 178.729 226.596 178.729C224.16 178.729 222.185 180.704 222.185 183.14C222.185 185.576 224.16 187.551 226.596 187.551Z" fill="#439FC0"/>
<path d="M226.596 188.504C225.535 188.504 224.498 188.19 223.616 187.6C222.734 187.011 222.046 186.173 221.64 185.193C221.234 184.213 221.128 183.134 221.335 182.094C221.542 181.053 222.053 180.097 222.803 179.347C223.553 178.597 224.509 178.086 225.55 177.879C226.59 177.672 227.669 177.778 228.649 178.184C229.629 178.59 230.467 179.278 231.056 180.16C231.646 181.042 231.96 182.079 231.96 183.14C231.959 184.562 231.393 185.926 230.387 186.931C229.382 187.937 228.018 188.502 226.596 188.504ZM226.596 179.681C225.912 179.681 225.244 179.884 224.675 180.264C224.106 180.644 223.663 181.185 223.401 181.816C223.139 182.448 223.071 183.144 223.204 183.815C223.338 184.486 223.667 185.102 224.151 185.586C224.634 186.069 225.251 186.399 225.922 186.532C226.592 186.666 227.288 186.597 227.92 186.335C228.552 186.074 229.092 185.63 229.472 185.062C229.852 184.493 230.055 183.824 230.055 183.14C230.053 182.223 229.688 181.345 229.04 180.696C228.392 180.048 227.513 179.683 226.596 179.681Z" fill="#022B42"/>
<path d="M172.736 122.077C167.794 122.069 162.961 120.631 158.819 117.936C154.677 115.241 151.405 111.404 149.396 106.889L156.364 103.796C157.538 106.438 159.333 108.757 161.597 110.555C163.861 112.353 166.526 113.576 169.365 114.121C172.205 114.666 175.133 114.515 177.902 113.683C180.671 112.851 183.197 111.361 185.265 109.341L190.597 114.788C185.818 119.447 179.411 122.062 172.736 122.077Z" fill="white"/>
<path d="M190.588 114.788L185.255 109.341C187.855 106.781 189.616 103.49 190.302 99.9066C190.988 96.3228 190.568 92.615 189.098 89.2754C187.664 86.0143 185.283 83.2593 182.264 81.3673L186.307 74.9043C189.578 76.9558 192.341 79.7224 194.389 82.9959C196.437 86.2694 197.715 89.9647 198.129 93.8037C198.543 97.6427 198.08 101.526 196.777 105.16C195.473 108.795 193.363 112.086 190.604 114.788H190.588Z" fill="#FF7751"/>
<path d="M154.925 94.6426L147.344 93.8295C147.804 89.5238 149.351 85.4057 151.84 81.8624C154.329 78.3191 157.678 75.4669 161.573 73.5741C165.467 71.6813 169.779 70.81 174.103 71.0421C178.427 71.2742 182.621 72.6021 186.291 74.901L182.264 81.3672C179.69 79.7555 176.748 78.8247 173.716 78.6623C170.683 78.5 167.659 79.1115 164.928 80.4393C162.197 81.7671 159.848 83.7676 158.103 86.2527C156.358 88.7379 155.273 91.6261 154.951 94.6458L154.925 94.6426Z" fill="#022B42"/>
<path d="M149.399 106.889C147.58 102.793 146.871 98.2895 147.344 93.8325L154.925 94.6424C154.594 97.766 155.091 100.922 156.367 103.792L149.399 106.889Z" fill="#FFAF51"/>
<path d="M98.8002 78.3375C97.3161 76.0426 96.4782 73.39 96.3747 70.659C96.2712 67.928 96.9059 65.2196 98.212 62.8189C99.5182 60.4183 101.447 58.4142 103.797 57.0176C106.146 55.6211 108.828 54.8838 111.561 54.8833V58.6944C109.514 58.695 107.505 59.2474 105.745 60.2935C103.985 61.3395 102.54 62.8406 101.561 64.6387C100.583 66.4368 100.107 68.4654 100.184 70.5112C100.261 72.5569 100.887 74.5441 101.998 76.2636L98.8002 78.3375Z" fill="#022B42"/>
<path d="M111.561 85.2769C109.023 85.2812 106.525 84.6481 104.295 83.4356C102.066 82.2231 100.176 80.4702 98.8003 78.3375L101.998 76.2636C103.071 77.9212 104.555 79.2716 106.307 80.1822C108.058 81.0928 110.017 81.5323 111.989 81.4577C113.962 81.383 115.881 80.7967 117.559 79.7563C119.237 78.7158 120.615 77.2571 121.559 75.5232C122.503 73.7892 122.979 71.8397 122.942 69.866C122.905 67.8922 122.356 65.962 121.347 64.2648C120.339 62.5676 118.907 61.1617 117.191 60.1851C115.475 59.2086 113.535 58.6948 111.561 58.6944V54.8833C115.592 54.8833 119.457 56.4844 122.307 59.3343C125.157 62.1843 126.758 66.0497 126.758 70.0801C126.758 74.1105 125.157 77.9759 122.307 80.8259C119.457 83.6758 115.592 85.2769 111.561 85.2769Z" fill="#439FC0"/>
<path d="M150.615 79.7632C150.49 79.7635 150.365 79.739 150.249 79.691C150.133 79.643 150.028 79.5726 149.939 79.4837L142.514 72.0584H129.543C129.29 72.0584 129.048 71.958 128.869 71.7793C128.691 71.6006 128.59 71.3583 128.59 71.1056C128.59 70.8529 128.691 70.6106 128.869 70.4319C129.048 70.2532 129.29 70.1528 129.543 70.1528H142.901C143.153 70.1522 143.395 70.2516 143.574 70.4291L151.289 78.1276C151.467 78.3062 151.567 78.5484 151.567 78.8009C151.567 79.0534 151.467 79.2955 151.289 79.4742C151.201 79.5644 151.096 79.6364 150.981 79.686C150.865 79.7356 150.741 79.7618 150.615 79.7632Z" fill="#439FC0"/>
<path d="M183.365 86.6362H177.77V96.164H183.365V86.6362Z" fill="#FFAF51"/>
<path d="M173.625 86.6362H162.096V96.164H173.625V86.6362Z" fill="#FFAF51"/>
<path d="M115.518 72.1631H107.604V77.2446H115.518V72.1631Z" fill="#FF7751"/>
<path d="M119.151 64.9287H111.237V70.0102H119.151V64.9287Z" fill="#FF7751"/>
<path d="M107.96 64.9287H103.968V70.0102H107.96V64.9287Z" fill="#FF7751"/>
<path d="M243.896 196.034H58.3804V214.651H243.896V196.034Z" fill="#FF7751"/>
<path d="M240.088 211.796H62.1913C61.9386 211.796 61.6963 211.696 61.5176 211.517C61.3389 211.339 61.2385 211.096 61.2385 210.844V199.845C61.2385 199.593 61.3389 199.35 61.5176 199.172C61.6963 198.993 61.9386 198.893 62.1913 198.893H240.088C240.34 198.893 240.583 198.993 240.761 199.172C240.94 199.35 241.04 199.593 241.04 199.845V210.844C241.04 211.096 240.94 211.339 240.761 211.517C240.583 211.696 240.34 211.796 240.088 211.796ZM63.1441 209.891H239.135V200.798H63.1441V209.891Z" fill="#022B42"/>
<path d="M68.5433 211.796C68.3543 211.796 68.1694 211.741 68.0122 211.636C67.855 211.531 67.7325 211.382 67.6604 211.207C67.5882 211.033 67.5696 210.84 67.6069 210.655C67.6442 210.47 67.7358 210.3 67.87 210.167L78.8682 199.172C79.0488 199.003 79.2877 198.912 79.5345 198.916C79.7814 198.921 80.0169 199.021 80.1914 199.195C80.366 199.37 80.466 199.605 80.4703 199.852C80.4747 200.099 80.3831 200.338 80.2148 200.518L69.2197 211.517C69.131 211.605 69.0255 211.676 68.9094 211.724C68.7933 211.772 68.6689 211.796 68.5433 211.796Z" fill="#022B42"/>
<path d="M78.4107 211.796C78.2217 211.796 78.0369 211.741 77.8797 211.636C77.7224 211.531 77.6 211.382 77.5278 211.207C77.4556 211.032 77.437 210.84 77.4743 210.655C77.5117 210.47 77.6032 210.3 77.7374 210.167L88.7356 199.172C88.9162 199.003 89.1551 198.912 89.402 198.916C89.6488 198.921 89.8843 199.021 90.0589 199.195C90.2334 199.37 90.3334 199.605 90.3378 199.852C90.3421 200.099 90.2505 200.338 90.0822 200.518L79.0903 211.517C79.0012 211.606 78.8952 211.676 78.7785 211.724C78.6619 211.772 78.5368 211.797 78.4107 211.796Z" fill="#022B42"/>
<path d="M88.2879 211.796C88.0987 211.797 87.9134 211.742 87.7557 211.637C87.598 211.533 87.475 211.384 87.4024 211.209C87.3299 211.034 87.311 210.842 87.3482 210.656C87.3854 210.47 87.4771 210.3 87.6114 210.167L98.6097 199.172C98.6969 199.078 98.8021 199.003 98.919 198.951C99.0358 198.899 99.162 198.871 99.2899 198.869C99.4178 198.867 99.5449 198.89 99.6636 198.938C99.7822 198.986 99.89 199.057 99.9804 199.148C100.071 199.238 100.142 199.346 100.19 199.465C100.238 199.583 100.262 199.71 100.259 199.838C100.257 199.966 100.229 200.092 100.177 200.209C100.125 200.326 100.05 200.431 99.9563 200.518L88.9612 211.517C88.7827 211.695 88.5405 211.796 88.2879 211.796Z" fill="#022B42"/>
<path d="M98.1588 211.796C97.9695 211.797 97.7842 211.742 97.6265 211.637C97.4688 211.533 97.3458 211.383 97.2733 211.209C97.2007 211.034 97.1818 210.841 97.2191 210.656C97.2563 210.47 97.3479 210.3 97.4823 210.167L108.481 199.172C108.661 199.003 108.9 198.912 109.147 198.916C109.394 198.921 109.629 199.021 109.804 199.195C109.978 199.37 110.078 199.605 110.083 199.852C110.087 200.099 109.995 200.338 109.827 200.518L98.8321 211.517C98.6535 211.695 98.4114 211.796 98.1588 211.796Z" fill="#022B42"/>
<path d="M108.029 211.796C107.84 211.797 107.655 211.742 107.497 211.637C107.339 211.533 107.216 211.383 107.144 211.209C107.071 211.034 107.052 210.841 107.09 210.656C107.127 210.47 107.219 210.3 107.353 210.167L118.351 199.172C118.532 199.003 118.771 198.912 119.017 198.916C119.264 198.921 119.5 199.021 119.674 199.195C119.849 199.37 119.949 199.605 119.953 199.852C119.958 200.099 119.866 200.338 119.698 200.518L108.703 211.517C108.524 211.695 108.282 211.796 108.029 211.796Z" fill="#022B42"/>
<path d="M117.9 211.796C117.711 211.797 117.526 211.742 117.368 211.637C117.21 211.533 117.087 211.383 117.015 211.209C116.942 211.034 116.923 210.841 116.961 210.656C116.998 210.47 117.089 210.3 117.224 210.167L128.222 199.172C128.403 199.003 128.641 198.912 128.888 198.916C129.135 198.921 129.371 199.021 129.545 199.195C129.72 199.37 129.82 199.605 129.824 199.852C129.828 200.099 129.737 200.338 129.569 200.518L118.574 211.517C118.395 211.695 118.153 211.796 117.9 211.796Z" fill="#022B42"/>
<path d="M127.771 211.796C127.582 211.797 127.397 211.742 127.239 211.637C127.081 211.533 126.958 211.383 126.886 211.209C126.813 211.034 126.794 210.841 126.831 210.656C126.869 210.47 126.96 210.3 127.095 210.167L138.093 199.172C138.273 199.003 138.512 198.912 138.759 198.916C139.006 198.921 139.242 199.021 139.416 199.195C139.591 199.37 139.691 199.605 139.695 199.852C139.699 200.099 139.608 200.338 139.439 200.518L128.444 211.517C128.266 211.695 128.024 211.796 127.771 211.796Z" fill="#022B42"/>
<path d="M137.642 211.796C137.453 211.796 137.268 211.741 137.111 211.636C136.953 211.531 136.831 211.382 136.759 211.207C136.687 211.033 136.668 210.84 136.705 210.655C136.743 210.47 136.834 210.3 136.968 210.167L147.963 199.172C148.144 199.003 148.383 198.912 148.63 198.916C148.877 198.921 149.112 199.021 149.287 199.195C149.461 199.37 149.561 199.605 149.566 199.852C149.57 200.099 149.478 200.338 149.31 200.518L138.315 211.517C138.136 211.695 137.894 211.796 137.642 211.796Z" fill="#022B42"/>
<path d="M147.513 211.796C147.324 211.796 147.139 211.741 146.982 211.636C146.824 211.531 146.702 211.382 146.63 211.207C146.558 211.033 146.539 210.84 146.576 210.655C146.614 210.47 146.705 210.3 146.839 210.167L157.835 199.172C158.015 199.003 158.254 198.912 158.501 198.916C158.748 198.921 158.983 199.021 159.158 199.195C159.332 199.37 159.432 199.605 159.437 199.852C159.441 200.099 159.349 200.338 159.181 200.518L148.186 211.517C148.008 211.695 147.765 211.796 147.513 211.796Z" fill="#022B42"/>
<path d="M157.383 211.796C157.194 211.796 157.01 211.741 156.852 211.636C156.695 211.531 156.573 211.382 156.5 211.207C156.428 211.033 156.41 210.84 156.447 210.655C156.484 210.47 156.576 210.3 156.71 210.167L167.705 199.172C167.886 199.003 168.125 198.912 168.371 198.916C168.618 198.921 168.854 199.021 169.028 199.195C169.203 199.37 169.303 199.605 169.307 199.852C169.312 200.099 169.22 200.338 169.052 200.518L158.057 211.517C157.878 211.695 157.636 211.796 157.383 211.796Z" fill="#022B42"/>
<path d="M167.254 211.796C167.065 211.796 166.88 211.741 166.723 211.636C166.566 211.531 166.443 211.382 166.371 211.207C166.299 211.033 166.281 210.84 166.318 210.655C166.355 210.47 166.447 210.3 166.581 210.167L177.576 199.172C177.757 199.003 177.995 198.912 178.242 198.916C178.489 198.921 178.725 199.021 178.899 199.195C179.074 199.37 179.174 199.605 179.178 199.852C179.182 200.099 179.091 200.338 178.923 200.518L167.927 211.517C167.749 211.695 167.507 211.796 167.254 211.796Z" fill="#022B42"/>
<path d="M177.125 210.843L188.12 199.845H240.088V210.843H177.125Z" fill="#022B42"/>
<path d="M62.1912 208.487C62.0029 208.487 61.8188 208.431 61.6623 208.326C61.5058 208.221 61.3838 208.072 61.3117 207.898C61.2397 207.724 61.2208 207.533 61.2575 207.348C61.2942 207.164 61.3848 206.994 61.5179 206.861L69.2005 199.172C69.3811 199.003 69.62 198.912 69.8668 198.916C70.1136 198.921 70.3491 199.021 70.5237 199.195C70.6983 199.37 70.7983 199.605 70.8026 199.852C70.807 200.099 70.7154 200.338 70.5471 200.518L62.8613 208.207C62.6836 208.385 62.4427 208.486 62.1912 208.487Z" fill="#022B42"/>
<path d="M71.77 230.689H61.1401V239.017H71.77V230.689Z" fill="#FF7751"/>
<path d="M61.353 230.689H28.5171V239.017H61.353V230.689Z" fill="#439FC0"/>
<path d="M62.4104 230.689H59.8696V239.017H62.4104V230.689Z" fill="#022B42"/>
<path d="M90.8255 243.635H61.1401V251.962H90.8255V243.635Z" fill="#FF7751"/>
<path d="M61.3528 243.635H47.5725V251.962H61.3528V243.635Z" fill="#439FC0"/>
<path d="M62.4104 243.635H59.8696V251.962H62.4104V243.635Z" fill="#022B42"/>
<path d="M81.2977 256.577H61.1401V264.904H81.2977V256.577Z" fill="#FF7751"/>
<path d="M61.3527 256.577H36.6631V264.904H61.3527V256.577Z" fill="#439FC0"/>
<path d="M62.4104 256.577H59.8696V264.904H62.4104V256.577Z" fill="#022B42"/>
<path d="M187.345 157.294L184.534 151.26C183.933 151.89 183.142 152.305 182.282 152.441L185.141 158.612C185.71 157.942 186.485 157.479 187.345 157.294Z" fill="#0485CA"/>
<path d="M178.843 151.308L170.22 165.12C171.081 165.262 171.87 165.684 172.466 166.32L181.127 152.445C180.261 152.329 179.458 151.929 178.843 151.308Z" fill="#0485CA"/>
<path d="M137.007 114.534L111.999 153.823C111.905 153.964 111.84 154.122 111.808 154.288C111.776 154.454 111.778 154.625 111.813 154.791C111.848 154.957 111.915 155.114 112.012 155.253C112.108 155.392 112.231 155.51 112.374 155.601C112.517 155.692 112.677 155.753 112.844 155.781C113.011 155.81 113.181 155.804 113.346 155.766C113.511 155.727 113.666 155.656 113.803 155.556C113.94 155.456 114.056 155.33 114.143 155.186L139.141 115.922C138.296 115.706 137.546 115.218 137.007 114.534Z" fill="#0485CA"/>
<path d="M168.712 165.148L142.942 114.857C142.33 115.475 141.533 115.875 140.672 115.998L166.533 166.495C167.09 165.817 167.856 165.343 168.712 165.148Z" fill="#0485CA"/>
<path d="M169.573 171.109C170.716 171.109 171.643 170.182 171.643 169.038C171.643 167.895 170.716 166.968 169.573 166.968C168.429 166.968 167.502 167.895 167.502 169.038C167.502 170.182 168.429 171.109 169.573 171.109Z" fill="#0485CA"/>
<path d="M140.116 114.133C141.26 114.133 142.187 113.206 142.187 112.062C142.187 110.919 141.26 109.992 140.116 109.992C138.972 109.992 138.045 110.919 138.045 112.062C138.045 113.206 138.972 114.133 140.116 114.133Z" fill="#0485CA"/>
<path d="M190.111 160.384C189.942 159.973 189.646 159.628 189.265 159.399C188.885 159.17 188.441 159.069 187.999 159.111C187.557 159.153 187.14 159.337 186.81 159.634C186.48 159.931 186.255 160.327 186.167 160.762C186.139 160.897 186.125 161.034 186.126 161.172C186.166 161.691 186.401 162.176 186.784 162.53C187.167 162.884 187.669 163.08 188.19 163.08C188.711 163.08 189.213 162.884 189.596 162.53C189.978 162.176 190.213 161.691 190.254 161.172C190.258 160.902 190.209 160.635 190.111 160.384Z" fill="#0485CA"/>
<path d="M183.74 148.519C183.741 148.109 183.62 147.709 183.393 147.368C183.165 147.027 182.842 146.761 182.463 146.604C182.085 146.446 181.668 146.405 181.266 146.485C180.864 146.565 180.495 146.762 180.205 147.052C179.916 147.342 179.718 147.711 179.639 148.113C179.559 148.515 179.6 148.931 179.757 149.31C179.914 149.688 180.18 150.012 180.521 150.239C180.862 150.466 181.263 150.587 181.673 150.587C182.221 150.586 182.746 150.368 183.134 149.98C183.521 149.593 183.739 149.067 183.74 148.519Z" fill="#0485CA"/>
<path d="M171.643 169.038C171.643 169.448 171.522 169.848 171.294 170.189C171.067 170.529 170.743 170.795 170.365 170.952C169.987 171.108 169.57 171.149 169.169 171.069C168.767 170.989 168.398 170.792 168.108 170.503C167.819 170.213 167.622 169.844 167.542 169.442C167.462 169.041 167.503 168.624 167.66 168.246C167.816 167.868 168.082 167.544 168.422 167.317C168.763 167.089 169.163 166.968 169.573 166.968C170.122 166.969 170.648 167.187 171.036 167.575C171.424 167.963 171.642 168.49 171.643 169.038Z" fill="#0485CA"/>
<path d="M101.506 139.934L95.6053 133.465C95.4781 133.325 95.3213 133.216 95.1464 133.144C94.9715 133.073 94.7829 133.041 94.5943 133.052C94.4056 133.062 94.2218 133.115 94.056 133.206C93.8903 133.296 93.7469 133.423 93.6362 133.576L74.46 160.067C75.3412 160.161 76.1653 160.548 76.8006 161.165L94.7795 136.323L99.626 141.646C99.853 141.895 100.17 142.044 100.507 142.06C100.843 142.076 101.173 141.957 101.422 141.73C101.671 141.503 101.82 141.187 101.836 140.85C101.852 140.513 101.733 140.184 101.506 139.934Z" fill="#0485CA"/>
<path d="M61.0767 169.147C61.715 169.734 62.1425 170.515 62.293 171.37L71.0395 166.606C70.4701 165.944 70.1352 165.112 70.0868 164.24L61.0767 169.147Z" fill="#0485CA"/>
<path d="M60.451 172.062C60.451 171.652 60.3295 171.252 60.102 170.911C59.8745 170.571 59.5511 170.306 59.1727 170.149C58.7943 169.992 58.378 169.951 57.9763 170.031C57.5746 170.111 57.2057 170.308 56.9161 170.598C56.6265 170.887 56.4293 171.256 56.3494 171.658C56.2695 172.06 56.3105 172.476 56.4672 172.854C56.6239 173.233 56.8893 173.556 57.2299 173.784C57.5704 174.011 57.9707 174.133 58.3803 174.133C58.9295 174.133 59.4561 173.914 59.8445 173.526C60.2328 173.138 60.451 172.611 60.451 172.062Z" fill="#0485CA"/>
<path d="M74.0438 166.101C75.1875 166.101 76.1145 165.174 76.1145 164.03C76.1145 162.887 75.1875 161.959 74.0438 161.959C72.9002 161.959 71.9731 162.887 71.9731 164.03C71.9731 165.174 72.9002 166.101 74.0438 166.101Z" fill="#0485CA"/>
<path d="M165.65 134.214L138.556 138.845L128.673 138.349C128.336 138.333 128.006 138.45 127.756 138.677C127.506 138.903 127.356 139.219 127.339 139.556C127.322 139.893 127.44 140.223 127.666 140.473C127.892 140.723 128.209 140.873 128.546 140.89L138.569 141.392C138.661 141.398 138.754 141.392 138.845 141.376L166.066 136.72C165.645 135.957 165.495 135.074 165.641 134.214H165.65Z" fill="white"/>
<path d="M202.688 150.653L191.655 140.872C191.282 141.659 190.662 142.302 189.889 142.704L201.005 152.549C201.345 151.751 201.936 151.086 202.688 150.653Z" fill="white"/>
<path d="M218.38 141.529L206.813 150.739C207.544 151.21 208.102 151.905 208.401 152.721L219.86 143.587C219.156 143.08 218.636 142.358 218.38 141.529Z" fill="white"/>
<path d="M184.566 137.283L173.533 134.517C173.533 134.621 173.533 134.726 173.533 134.834C173.533 135.596 173.312 136.342 172.898 136.981L184.125 139.798C183.979 138.936 184.129 138.049 184.55 137.283H184.566Z" fill="white"/>
<path d="M226.155 140.525C226.125 141.397 225.809 142.234 225.256 142.907L237.207 148.316C237.273 147.448 237.625 146.626 238.208 145.978L226.155 140.525Z" fill="white"/>
<path d="M222.185 138.312C221.775 138.312 221.375 138.433 221.035 138.66C220.694 138.888 220.429 139.211 220.272 139.59C220.115 139.968 220.074 140.385 220.154 140.786C220.234 141.188 220.431 141.557 220.721 141.846C221.01 142.136 221.379 142.333 221.781 142.413C222.183 142.493 222.599 142.452 222.977 142.295C223.356 142.139 223.679 141.873 223.907 141.533C224.134 141.192 224.256 140.792 224.256 140.382C224.255 139.833 224.036 139.307 223.648 138.919C223.26 138.531 222.734 138.312 222.185 138.312Z" fill="white"/>
<path d="M241.167 150.701C242.311 150.701 243.238 149.774 243.238 148.63C243.238 147.487 242.311 146.56 241.167 146.56C240.024 146.56 239.097 147.487 239.097 148.63C239.097 149.774 240.024 150.701 241.167 150.701Z" fill="white"/>
<path d="M204.67 156.167C205.813 156.167 206.741 155.24 206.741 154.096C206.741 152.952 205.813 152.025 204.67 152.025C203.526 152.025 202.599 152.952 202.599 154.096C202.599 155.24 203.526 156.167 204.67 156.167Z" fill="white"/>
<path d="M188.063 141.246C189.207 141.246 190.134 140.319 190.134 139.175C190.134 138.032 189.207 137.104 188.063 137.104C186.919 137.104 185.992 138.032 185.992 139.175C185.992 140.319 186.919 141.246 188.063 141.246Z" fill="white"/>
<path d="M169.573 136.905C170.716 136.905 171.643 135.977 171.643 134.834C171.643 133.69 170.716 132.763 169.573 132.763C168.429 132.763 167.502 133.69 167.502 134.834C167.502 135.977 168.429 136.905 169.573 136.905Z" fill="white"/>
<path d="M99.645 136.882L89.2502 136.358C89.1599 136.354 89.0694 136.359 88.9802 136.374L77.5469 138.248C77.853 138.822 78.0133 139.462 78.0137 140.112C78.0106 140.325 77.9915 140.537 77.9566 140.747L89.2533 138.899L99.5116 139.414C99.6784 139.422 99.8452 139.397 100.003 139.341C100.16 139.285 100.305 139.199 100.428 139.086C100.552 138.974 100.653 138.839 100.724 138.688C100.796 138.537 100.837 138.374 100.845 138.207C100.854 138.04 100.829 137.873 100.773 137.716C100.717 137.558 100.63 137.414 100.518 137.29C100.406 137.166 100.271 137.065 100.12 136.994C99.969 136.922 99.8054 136.881 99.6386 136.873L99.645 136.882Z" fill="white"/>
<path d="M70.6837 142.24L59.7681 155.671C60.5806 155.972 61.273 156.53 61.7403 157.259L72.656 143.828C71.8434 143.527 71.1511 142.97 70.6837 142.24Z" fill="white"/>
<path d="M58.3803 161.464C59.5239 161.464 60.451 160.537 60.451 159.393C60.451 158.25 59.5239 157.323 58.3803 157.323C57.2367 157.323 56.3096 158.25 56.3096 159.393C56.3096 160.537 57.2367 161.464 58.3803 161.464Z" fill="white"/>
<path d="M74.0438 142.193C75.1875 142.193 76.1145 141.266 76.1145 140.122C76.1145 138.978 75.1875 138.051 74.0438 138.051C72.9002 138.051 71.9731 138.978 71.9731 140.122C71.9731 141.266 72.9002 142.193 74.0438 142.193Z" fill="white"/>
<path d="M104.113 145.867C102.788 146.934 101.238 147.685 99.5795 148.064C97.9212 148.444 96.1984 148.441 94.5412 148.057C92.884 147.673 91.3359 146.917 90.0137 145.846C88.6916 144.776 87.6301 143.419 86.9095 141.878C85.471 140.913 84.2751 139.629 83.4152 138.125C82.5553 136.622 82.0548 134.94 81.9526 133.211C81.8505 131.482 82.1496 129.753 82.8265 128.158C83.5034 126.564 84.5399 125.148 85.8548 124.021C87.1697 122.893 88.7275 122.085 90.4064 121.66C92.0854 121.234 93.84 121.203 95.5331 121.568C97.2263 121.933 98.8121 122.684 100.167 123.763C101.521 124.843 102.608 126.221 103.342 127.79C104.59 128.627 105.658 129.707 106.482 130.965C107.306 132.223 107.869 133.634 108.137 135.113" fill="#022336"/>
<path d="M97.0789 148.983C94.8556 148.977 92.6782 148.349 90.793 147.171C88.9078 145.992 87.3899 144.309 86.411 142.313C84.9205 141.28 83.6869 139.918 82.8047 138.333C81.9225 136.748 81.4153 134.982 81.3221 133.171C81.2288 131.36 81.552 129.551 82.2668 127.884C82.9815 126.217 84.0689 124.736 85.4453 123.555C86.8217 122.373 88.4505 121.523 90.2067 121.07C91.9629 120.616 93.7997 120.571 95.576 120.938C97.3523 121.305 99.0208 122.074 100.454 123.186C101.886 124.299 103.045 125.725 103.84 127.355C105.126 128.239 106.223 129.37 107.068 130.682C107.913 131.994 108.489 133.46 108.763 134.996C108.793 135.162 108.756 135.333 108.66 135.471C108.563 135.61 108.416 135.704 108.25 135.734C108.084 135.764 107.913 135.727 107.775 135.631C107.636 135.535 107.542 135.387 107.512 135.221C107.263 133.823 106.733 132.49 105.955 131.302C105.178 130.114 104.168 129.095 102.986 128.307C102.891 128.244 102.815 128.155 102.767 128.05C102.075 126.57 101.05 125.269 99.7718 124.251C98.4938 123.232 96.9976 122.523 95.4 122.178C93.8024 121.834 92.1468 121.863 90.5625 122.265C88.9783 122.666 87.5084 123.429 86.2677 124.492C85.027 125.556 84.0491 126.892 83.4105 128.397C82.7719 129.901 82.4899 131.533 82.5865 133.164C82.6831 134.796 83.1557 136.383 83.9674 137.801C84.779 139.22 85.9077 140.431 87.2653 141.341C87.3614 141.405 87.4383 141.494 87.4876 141.599C88.1667 143.053 89.1675 144.333 90.4143 145.343C91.6612 146.353 93.1214 147.067 94.6846 147.429C96.2478 147.792 97.873 147.794 99.4372 147.436C101.001 147.078 102.464 146.369 103.713 145.362C103.778 145.31 103.853 145.271 103.933 145.247C104.014 145.224 104.097 145.216 104.18 145.225C104.264 145.234 104.344 145.26 104.417 145.3C104.49 145.34 104.555 145.394 104.607 145.459C104.66 145.524 104.699 145.599 104.722 145.679C104.746 145.759 104.753 145.843 104.744 145.926C104.735 146.009 104.71 146.09 104.67 146.163C104.63 146.236 104.576 146.301 104.511 146.353C102.404 148.049 99.783 148.976 97.0789 148.983Z" fill="white"/>
<path d="M97.0788 145.172C95.3966 145.167 93.7577 144.638 92.3911 143.657C91.0246 142.676 89.9986 141.292 89.4566 139.7C88.315 139.106 87.3324 138.247 86.5909 137.195C85.8495 136.143 85.371 134.929 85.1953 133.654C85.0196 132.379 85.1519 131.081 85.5812 129.868C86.0105 128.655 86.7243 127.562 87.6627 126.681C88.6011 125.801 89.7368 125.158 90.9748 124.807C92.2127 124.455 93.5168 124.406 94.7779 124.662C96.039 124.918 97.2204 125.473 98.223 126.28C99.2256 127.086 100.02 128.121 100.541 129.298C100.732 129.722 101.042 130.082 101.433 130.334C102.901 131.273 104.024 132.663 104.635 134.294C105.245 135.926 105.31 137.712 104.82 139.384C104.33 141.056 103.311 142.524 101.915 143.567C100.52 144.611 98.8243 145.174 97.082 145.172H97.0788Z" fill="white"/>
<path d="M97.6792 131.461C97.446 130.701 97.0165 130.016 96.4339 129.475C95.8514 128.934 95.1364 128.557 94.3613 128.38C93.5861 128.204 92.7781 128.235 92.0189 128.471C91.2596 128.706 90.576 129.138 90.037 129.723C89.4979 130.307 89.1225 131.023 88.9487 131.799C88.7749 132.575 88.8088 133.382 89.0469 134.141C89.2851 134.899 89.7191 135.582 90.3052 136.119C90.8913 136.656 91.6086 137.029 92.385 137.2C92.4352 137.993 92.6937 138.759 93.1342 139.42C93.5748 140.081 94.1819 140.615 94.8943 140.966C95.6067 141.318 96.3993 141.476 97.1921 141.424C97.9849 141.372 98.75 141.111 99.4102 140.669C100.07 140.227 100.602 139.619 100.952 138.905C101.302 138.192 101.458 137.399 101.404 136.606C101.35 135.814 101.088 135.049 100.644 134.39C100.2 133.731 99.5907 133.201 98.8765 132.852C98.5917 132.716 98.3383 132.522 98.1322 132.282C97.9261 132.043 97.7719 131.763 97.6792 131.461Z" fill="#022B42"/>
<path d="M63.8523 107.956C63.7305 106.947 63.219 106.025 62.4269 105.388C61.6349 104.751 60.6251 104.449 59.6133 104.547C58.6016 104.644 57.668 105.133 57.0121 105.91C56.3562 106.686 56.0299 107.689 56.103 108.702L47.0167 112.514C46.6193 112.014 46.1232 111.601 45.5593 111.301C44.9955 111.001 44.3759 110.821 43.7393 110.77C43.1026 110.72 42.4624 110.802 41.8587 111.01C41.2549 111.218 40.7004 111.548 40.2297 111.98L33.8461 108.169C34.3571 106.982 34.5871 105.694 34.5182 104.403C34.4493 103.113 34.0835 101.856 33.4491 100.731L46.0163 90.5139L34.9609 75.7744C36.0274 74.7057 36.6604 73.28 36.738 71.7722C36.8156 70.2644 36.3323 68.7813 35.3812 67.6088C34.43 66.4362 33.0785 65.6573 31.5871 65.4222C30.0957 65.1871 28.5701 65.5125 27.3044 66.3356C26.0387 67.1586 25.1225 68.4212 24.7325 69.8797C24.3425 71.3383 24.5063 72.8896 25.1923 74.2345C25.8783 75.5795 27.038 76.6229 28.4476 77.1635C29.8573 77.7041 31.4173 77.7037 32.8267 77.1623L42.5228 90.0851L31.8834 98.7395C30.6584 97.5888 29.1167 96.8314 27.4573 96.565C25.7978 96.2985 24.0965 96.5352 22.5728 97.2446C21.0491 97.9539 19.7728 99.1034 18.9084 100.545C18.044 101.986 17.6311 103.653 17.723 105.332C17.8149 107.01 18.4074 108.622 19.424 109.96C20.4407 111.299 21.8349 112.302 23.427 112.841C25.019 113.379 26.7359 113.429 28.3564 112.983C29.9768 112.537 31.4265 111.616 32.5186 110.338L38.899 114.149C38.7068 114.815 38.6651 115.515 38.777 116.198C38.8889 116.882 39.1515 117.532 39.5459 118.102C39.9402 118.671 40.4564 119.146 41.0569 119.491C41.6575 119.837 42.3273 120.044 43.018 120.099C43.7086 120.153 44.4027 120.053 45.0499 119.806C45.6971 119.559 46.2811 119.171 46.7597 118.67C47.2383 118.169 47.5995 117.568 47.817 116.91C48.0344 116.252 48.1028 115.554 48.0171 114.867L57.1066 111.056C57.661 111.672 58.3976 112.095 59.2092 112.264C60.0208 112.433 60.8651 112.338 61.6191 111.993C62.3731 111.649 62.9975 111.073 63.4015 110.349C63.8054 109.625 63.9678 108.791 63.865 107.969L63.8523 107.956Z" fill="#FFAF51"/>
<path d="M43.9583 78.6266C45.0461 79.0294 46.243 79.024 47.3271 78.6113C48.4112 78.1987 49.3088 77.4069 49.8535 76.3827C50.3982 75.3586 50.553 74.1717 50.2891 73.0421C50.0252 71.9126 49.3606 70.9171 48.4186 70.2402C47.4766 69.5634 46.321 69.2512 45.1663 69.3616C44.0116 69.472 42.9361 69.9974 42.1393 70.8404C41.3426 71.6834 40.8786 72.7868 40.8334 73.9459C40.7883 75.105 41.1651 76.2411 41.8939 77.1435L22.5144 104.212L33.8302 118.504C32.5715 119.915 31.8886 121.748 31.9168 123.64C31.945 125.531 32.6822 127.343 33.9825 128.717C35.2828 130.09 37.0514 130.926 38.9384 131.058C40.8253 131.19 42.693 130.609 44.1719 129.43C45.6508 128.25 46.6331 126.559 46.9243 124.69C47.2156 122.821 46.7946 120.91 45.7447 119.337C44.6948 117.764 43.0924 116.642 41.2548 116.193C39.4172 115.745 37.4782 116.003 35.8215 116.916L25.6903 104.136L43.9583 78.6266Z" fill="#FF7751"/>
<path d="M31.8834 98.7397L23.9436 105.219L32.5186 110.338C33.072 109.691 33.5239 108.964 33.8588 108.182L28.3486 104.898L33.4492 100.744C33.0323 100 32.5043 99.3242 31.8834 98.7397Z" fill="#022B42"/>
<path d="M24.096 106.546C25.3975 106.546 26.4526 105.491 26.4526 104.19C26.4526 102.888 25.3975 101.833 24.096 101.833C22.7946 101.833 21.7395 102.888 21.7395 104.19C21.7395 105.491 22.7946 106.546 24.096 106.546Z" fill="#022B42"/>
<path d="M37.4573 83.3393L39.0548 85.4704L40.6078 83.3044L39.0071 81.1733L37.4573 83.3393Z" fill="#022B42"/>
<path d="M38.7434 116.02C38.8384 116.792 39.1252 117.528 39.5777 118.16C40.0302 118.793 40.634 119.302 41.3339 119.641C42.0337 119.98 42.8074 120.139 43.5843 120.102C44.3612 120.065 45.1165 119.835 45.7813 119.431C45.0305 118.275 43.978 117.346 42.7375 116.745C41.4971 116.144 40.116 115.893 38.7434 116.02Z" fill="#022B42"/>
<path d="M286.491 157.866C283.598 157.866 282.645 153.076 281.543 147.528C280.708 143.32 279.561 137.553 277.681 137.553C275.957 137.553 275.261 140.109 274.467 143.723C273.689 147.261 272.879 150.92 269.84 150.92C269.587 150.92 269.345 150.82 269.166 150.641C268.987 150.462 268.887 150.22 268.887 149.967C268.887 149.715 268.987 149.472 269.166 149.294C269.345 149.115 269.587 149.014 269.84 149.014C271.351 149.014 271.99 146.118 272.606 143.314C273.397 139.719 274.292 135.647 277.687 135.647C281.13 135.647 282.242 141.237 283.404 147.157C284.1 150.65 285.154 155.96 286.482 155.96C288.031 155.96 288.756 154.763 289.807 152.803C290.804 150.949 292.03 148.643 294.809 148.643C296.413 148.643 297.032 147.414 297.883 145.388C298.604 143.663 299.417 141.71 301.58 141.71C304.092 141.71 304.438 144.886 304.756 147.696C304.931 149.265 305.226 151.885 305.963 151.885C307.039 151.885 308.043 150.688 309.11 149.418C310.533 147.725 312.143 145.804 314.655 145.804C314.908 145.804 315.15 145.904 315.329 146.083C315.508 146.261 315.608 146.504 315.608 146.756C315.608 147.009 315.508 147.251 315.329 147.43C315.15 147.609 314.908 147.709 314.655 147.709C313.032 147.709 311.835 149.135 310.568 150.644C309.301 152.152 307.925 153.791 305.963 153.791C303.524 153.791 303.171 150.666 302.86 147.909C302.669 146.201 302.377 143.615 301.57 143.615C300.764 143.615 300.344 144.419 299.633 146.121C298.874 147.998 297.807 150.539 294.818 150.539C293.272 150.539 292.548 151.736 291.496 153.696C290.499 155.56 289.257 157.866 286.491 157.866Z" fill="#439FC0"/>
<path d="M301.145 159.114C298.461 159.114 296.832 157.103 295.644 155.62C295.031 154.864 294.339 154.01 293.913 154.01C290.604 154.01 290.083 150.183 289.623 146.807C289.175 143.498 288.768 141.329 287.291 141.329C285.319 141.329 284.116 143.199 282.845 145.181C281.518 147.242 280.012 149.577 277.373 149.577C275.499 149.577 274.581 150.983 273.613 152.473C272.717 153.842 271.707 155.398 269.849 155.398C269.597 155.398 269.354 155.298 269.176 155.119C268.997 154.94 268.896 154.698 268.896 154.445C268.896 154.193 268.997 153.95 269.176 153.772C269.354 153.593 269.597 153.492 269.849 153.492C270.634 153.492 271.183 152.708 272.015 151.431C273.095 149.764 274.458 147.681 277.363 147.681C278.951 147.681 280.015 146.048 281.235 144.158C282.661 141.935 284.281 139.433 287.291 139.433C290.544 139.433 291.058 143.218 291.512 146.559C291.966 149.9 292.382 152.127 293.913 152.127C295.247 152.127 296.159 153.251 297.124 154.442C298.229 155.808 299.373 157.218 301.145 157.218C302.253 157.218 302.628 154.016 302.901 151.682C303.304 148.233 303.724 144.67 306.395 144.67C307.954 144.67 309.085 146.324 310.39 148.236C311.695 150.148 313.115 152.225 314.671 152.225C314.924 152.225 315.166 152.326 315.345 152.504C315.523 152.683 315.624 152.925 315.624 153.178C315.624 153.431 315.523 153.673 315.345 153.852C315.166 154.03 314.924 154.131 314.671 154.131C312.108 154.131 310.358 151.571 308.818 149.313C308.071 148.224 306.947 146.575 306.395 146.575C305.413 146.575 305.038 149.78 304.791 151.901C304.378 155.436 303.946 159.114 301.145 159.114Z" fill="#FF7751"/>
<path d="M155.789 184.486C155.095 184.653 154.39 184.771 153.68 184.839C152.997 184.915 152.327 184.963 151.66 184.998C150.991 185.04 150.319 185.04 149.65 184.998C149.307 184.963 148.964 184.925 148.605 184.855C148.224 184.786 147.85 184.679 147.49 184.537H147.468C147.424 184.519 147.383 184.492 147.349 184.459C147.315 184.425 147.288 184.385 147.269 184.34C147.251 184.296 147.241 184.249 147.241 184.201C147.24 184.153 147.25 184.105 147.268 184.061C147.287 184.014 147.315 183.972 147.35 183.937C147.927 183.393 148.625 182.995 149.386 182.775C150.107 182.56 150.857 182.459 151.609 182.476C152.36 182.481 153.107 182.582 153.833 182.775C154.589 182.958 155.304 183.281 155.941 183.727C155.985 183.759 156.022 183.8 156.051 183.846C156.079 183.893 156.098 183.944 156.106 183.998C156.114 184.052 156.112 184.106 156.099 184.159C156.086 184.212 156.062 184.262 156.03 184.305C155.975 184.385 155.892 184.441 155.798 184.464L155.789 184.486Z" fill="#022B42"/>
<path d="M149.844 158.997C150.691 158.997 151.378 157.538 151.378 155.738C151.378 153.938 150.691 152.479 149.844 152.479C148.997 152.479 148.31 153.938 148.31 155.738C148.31 157.538 148.997 158.997 149.844 158.997Z" fill="#022B42"/>
<path d="M152.451 170.595C152.011 170.65 151.567 170.679 151.124 170.681C150.679 170.681 150.238 170.681 149.793 170.646C149.348 170.611 148.907 170.576 148.465 170.516C148.018 170.46 147.575 170.376 147.138 170.265C147.01 170.233 146.896 170.159 146.815 170.055C146.734 169.951 146.69 169.823 146.69 169.691C146.69 169.559 146.734 169.431 146.815 169.328C146.896 169.224 147.01 169.15 147.138 169.118C147.575 169.007 148.018 168.923 148.465 168.867C148.907 168.807 149.351 168.769 149.793 168.737C150.234 168.705 150.679 168.696 151.124 168.702C151.567 168.704 152.011 168.732 152.451 168.788C152.67 168.817 152.871 168.925 153.017 169.091C153.162 169.257 153.243 169.47 153.243 169.691C153.243 169.912 153.162 170.126 153.017 170.292C152.871 170.458 152.67 170.566 152.451 170.595Z" fill="#022B42"/>
<path d="M134.402 161.178C134.252 160.947 134.145 160.691 134.085 160.423C134.026 160.175 133.995 159.921 133.993 159.667C133.989 159.412 134.016 159.159 134.072 158.911C134.127 158.643 134.228 158.388 134.371 158.155C134.419 158.078 134.482 158.011 134.556 157.959C134.63 157.906 134.714 157.869 134.803 157.85C134.892 157.83 134.983 157.829 135.073 157.845C135.162 157.862 135.247 157.896 135.323 157.945C135.407 158 135.478 158.071 135.533 158.155C135.682 158.386 135.79 158.642 135.851 158.911C135.904 159.159 135.93 159.413 135.927 159.667C135.924 159.921 135.894 160.174 135.838 160.423C135.775 160.691 135.668 160.946 135.52 161.178C135.461 161.27 135.379 161.346 135.283 161.398C135.187 161.45 135.079 161.477 134.969 161.477C134.86 161.477 134.752 161.45 134.656 161.398C134.56 161.346 134.478 161.27 134.418 161.178H134.402Z" fill="#022B42"/>
<path d="M98.0286 156.78C97.8899 156.535 97.7202 156.31 97.5236 156.11C97.5236 156.062 97.5236 156.014 97.5236 155.967L97.6252 153.864C97.657 153.159 97.6983 152.448 97.7173 151.736C97.7215 151.669 97.7023 151.603 97.663 151.548C97.6238 151.493 97.5668 151.454 97.5019 151.436C97.4369 151.419 97.3679 151.424 97.3065 151.452C97.2451 151.479 97.195 151.527 97.1647 151.587C96.8154 152.243 96.5324 152.933 96.3199 153.645C96.104 154.348 95.9322 155.064 95.8054 155.789C95.5506 157.238 95.4601 158.712 95.5355 160.181V160.257C95.5448 160.42 95.5982 160.577 95.6901 160.712C95.782 160.847 95.9088 160.954 96.057 161.022C96.2051 161.091 96.3691 161.117 96.5312 161.099C96.6934 161.082 96.8476 161.02 96.9773 160.921C97.0383 160.875 97.0967 160.825 97.152 160.772L97.2918 160.638C97.3807 160.55 97.4633 160.454 97.5458 160.359C97.7055 160.16 97.8468 159.948 97.9682 159.724C98.2233 159.268 98.3639 158.757 98.3779 158.234C98.3927 157.727 98.2721 157.225 98.0286 156.78Z" fill="#022B42"/>
<path d="M86.5317 144.981C86.6131 145.43 86.6408 145.888 86.6143 146.344C86.5926 146.77 86.5428 147.194 86.465 147.614C86.3954 148.029 86.2814 148.436 86.1252 148.827C85.9476 149.265 85.6962 149.669 85.382 150.021C85.3562 150.05 85.325 150.073 85.2902 150.089C85.2555 150.105 85.2179 150.115 85.1795 150.116C85.1412 150.118 85.1029 150.112 85.0668 150.099C85.0307 150.086 84.9975 150.066 84.9691 150.04C84.9514 150.023 84.9355 150.004 84.9215 149.983C84.6532 149.557 84.499 149.069 84.4737 148.567C84.4468 148.104 84.4961 147.641 84.6198 147.195C84.7342 146.753 84.9016 146.326 85.1184 145.924C85.3414 145.495 85.6393 145.109 85.9982 144.784C86.0297 144.755 86.067 144.732 86.1076 144.717C86.1483 144.703 86.1915 144.697 86.2346 144.699C86.2777 144.702 86.3198 144.713 86.3583 144.733C86.3968 144.752 86.431 144.78 86.4587 144.813C86.4975 144.856 86.5238 144.908 86.5349 144.965L86.5317 144.981Z" fill="#022B42"/>
<path d="M94.9002 137.279C94.6334 138.146 94.4016 139.055 94.1793 139.938C93.9569 140.821 93.7505 141.716 93.5441 142.609C93.3376 143.501 93.1407 144.403 92.8803 145.296C92.7533 145.746 92.6199 146.194 92.4579 146.642C92.3102 147.106 92.1276 147.558 91.9117 147.995C91.8969 148.024 91.8764 148.051 91.8514 148.072C91.8263 148.093 91.7973 148.11 91.766 148.12C91.7346 148.13 91.7016 148.133 91.6688 148.131C91.636 148.128 91.6041 148.118 91.575 148.103C91.5431 148.087 91.515 148.064 91.4926 148.036C91.4701 148.008 91.4539 147.976 91.4448 147.941C91.3356 147.458 91.2634 146.968 91.2288 146.474C91.2066 145.988 91.2034 145.499 91.2288 145.016C91.291 144.049 91.4517 143.092 91.7084 142.158C91.9524 141.207 92.2907 140.284 92.7183 139.401C92.9347 138.955 93.1819 138.526 93.4583 138.115C93.7343 137.686 94.063 137.293 94.4365 136.946C94.4651 136.92 94.4984 136.901 94.5346 136.888C94.5708 136.875 94.6092 136.869 94.6476 136.872C94.6859 136.874 94.7235 136.883 94.7581 136.9C94.7927 136.916 94.8237 136.94 94.8494 136.968C94.8842 137.005 94.9084 137.051 94.9196 137.101C94.9308 137.151 94.9285 137.202 94.9129 137.251L94.9002 137.279Z" fill="#022B42"/>
<path d="M82.6952 147.541C82.8342 147.767 82.929 148.019 82.9746 148.281C83.0102 148.491 83.0102 148.706 82.9746 148.916C82.9536 149.12 82.878 149.316 82.7555 149.481C82.577 149.71 82.349 149.896 82.0886 150.024H82.0727C82.002 150.062 81.9216 150.079 81.8415 150.072C81.7614 150.066 81.685 150.036 81.6217 149.986C81.3642 149.799 81.1792 149.528 81.0977 149.221C81.039 148.982 81.0478 148.731 81.1231 148.497C81.1926 148.265 81.307 148.049 81.4597 147.861C81.6425 147.639 81.8754 147.462 82.1394 147.347C82.2315 147.307 82.335 147.302 82.4307 147.332C82.5264 147.362 82.608 147.426 82.6602 147.512L82.6952 147.541Z" fill="#022B42"/>
<path d="M91.7497 132.611C92.5374 131.34 94.4048 132.331 93.83 133.624C93.2551 134.917 90.6668 134.323 91.7497 132.611Z" fill="#FF7751"/>
<path d="M95.4878 136.565C96.2755 135.294 98.1461 136.285 97.5712 137.575C96.9964 138.864 94.4207 138.261 95.4878 136.565Z" fill="#FF7751"/>
<path d="M88.234 140.503C88.4461 140.339 88.6908 140.222 88.9517 140.16C89.1971 140.096 89.4517 140.074 89.7044 140.096C89.9685 140.11 90.226 140.184 90.4571 140.312C90.7265 140.454 90.9311 140.694 91.0288 140.982C91.0366 141.008 91.0392 141.035 91.0366 141.062C91.0339 141.088 91.026 141.114 91.0133 141.138C91.0006 141.161 90.9834 141.182 90.9626 141.199C90.9418 141.216 90.9179 141.229 90.8922 141.236H90.8636C90.6365 141.309 90.4023 141.357 90.1649 141.379C89.963 141.392 89.7602 141.379 89.5615 141.341C89.3459 141.308 89.1335 141.257 88.9263 141.189C88.6906 141.114 88.4662 141.007 88.2594 140.871C88.234 140.855 88.2122 140.833 88.1952 140.809C88.1781 140.784 88.1661 140.756 88.1599 140.726C88.1537 140.697 88.1534 140.666 88.159 140.637C88.1647 140.607 88.1761 140.579 88.1927 140.554C88.2035 140.534 88.2175 140.517 88.234 140.503Z" fill="#022B42"/>
<path d="M93.8934 142.11C94.0891 141.951 94.32 141.842 94.5667 141.792C94.7946 141.739 95.0301 141.727 95.2622 141.757C95.4972 141.781 95.7233 141.859 95.9228 141.986C96.1487 142.129 96.3215 142.342 96.4151 142.592C96.4337 142.645 96.432 142.703 96.4103 142.755C96.3886 142.807 96.3484 142.848 96.2976 142.872C95.9144 143.057 95.4783 143.102 95.0653 142.999C94.8786 142.956 94.6959 142.898 94.5191 142.824C94.3157 142.741 94.1228 142.635 93.9442 142.507L93.9156 142.484C93.8687 142.447 93.8379 142.394 93.8296 142.335C93.8213 142.275 93.8362 142.215 93.8712 142.167L93.8934 142.11Z" fill="#022B42"/>
<path d="M89.1708 138.995C89.273 138.847 89.4136 138.731 89.5773 138.658C89.7155 138.595 89.867 138.566 90.0187 138.575C90.1812 138.579 90.3382 138.634 90.4665 138.734C90.5528 138.799 90.6236 138.882 90.6736 138.978C90.7236 139.073 90.7516 139.179 90.7555 139.287C90.7563 139.331 90.7463 139.374 90.7264 139.414C90.7065 139.453 90.6772 139.487 90.6412 139.512L90.584 139.55C90.4545 139.649 90.3163 139.737 90.1712 139.811C90.0766 139.85 89.9715 139.857 89.8727 139.83C89.76 139.804 89.6526 139.759 89.5551 139.696C89.4204 139.611 89.3012 139.504 89.2025 139.379L89.1771 139.347C89.1378 139.297 89.1159 139.236 89.1148 139.172C89.1136 139.108 89.1333 139.046 89.1708 138.995Z" fill="#022B42"/>
<path d="M95.0019 166.987C94.9119 167.248 94.7554 167.481 94.5478 167.663C94.374 167.813 94.1689 167.921 93.9475 167.981C93.7275 168.051 93.4911 168.051 93.271 167.981C92.9826 167.887 92.7356 167.696 92.5723 167.441C92.5271 167.376 92.5003 167.3 92.4948 167.221C92.4892 167.143 92.505 167.064 92.5406 166.993V166.974C92.6523 166.721 92.8208 166.497 93.0328 166.32C93.1773 166.206 93.3516 166.137 93.5346 166.12C93.7212 166.097 93.9104 166.106 94.0936 166.148C94.3343 166.204 94.5633 166.302 94.7701 166.437L94.8272 166.472C94.9132 166.523 94.9781 166.603 95.0102 166.697C95.0422 166.791 95.0393 166.894 95.0019 166.987Z" fill="#022B42"/>
<path d="M192.369 215.903C193.455 215.668 194.556 215.503 195.663 215.411C196.759 215.312 197.857 215.258 198.956 215.242C200.054 215.221 201.153 215.258 202.247 215.353C203.362 215.443 204.465 215.646 205.54 215.957C205.572 215.967 205.601 215.983 205.627 216.004C205.652 216.025 205.673 216.052 205.688 216.081C205.704 216.111 205.713 216.143 205.715 216.177C205.717 216.21 205.713 216.243 205.702 216.275C205.689 216.312 205.668 216.346 205.64 216.375C205.612 216.403 205.578 216.424 205.54 216.436C204.465 216.748 203.362 216.95 202.247 217.04C201.153 217.136 200.054 217.173 198.956 217.151C197.857 217.135 196.759 217.081 195.663 216.983C194.556 216.89 193.455 216.726 192.369 216.49C192.303 216.476 192.244 216.44 192.201 216.388C192.158 216.335 192.135 216.269 192.135 216.201C192.135 216.134 192.158 216.068 192.201 216.015C192.244 215.963 192.303 215.926 192.369 215.912V215.903Z" fill="#022B42"/>
<path d="M117.03 140.074C116.962 139.024 117.304 137.988 117.983 137.184C118.679 136.38 119.59 135.792 120.609 135.488C121.574 135.189 122.592 135.099 123.595 135.224C123.836 135.262 124.077 135.301 124.316 135.348C124.554 135.396 124.786 135.475 125.014 135.548C125.246 135.62 125.472 135.709 125.691 135.815C125.908 135.919 126.12 136.035 126.326 136.161C126.354 136.178 126.378 136.201 126.397 136.228C126.416 136.254 126.43 136.284 126.437 136.316C126.445 136.348 126.445 136.381 126.44 136.413C126.435 136.446 126.423 136.477 126.405 136.504C126.387 136.534 126.363 136.56 126.334 136.58C126.305 136.6 126.272 136.613 126.237 136.619C125.284 136.784 124.414 136.793 123.566 136.901C122.753 136.973 121.947 137.108 121.155 137.305C120.411 137.499 119.71 137.833 119.091 138.289C118.451 138.79 117.935 139.432 117.586 140.166V140.185C117.568 140.22 117.544 140.251 117.515 140.276C117.485 140.301 117.451 140.32 117.414 140.332C117.377 140.345 117.338 140.349 117.3 140.346C117.261 140.343 117.223 140.333 117.189 140.315C117.144 140.292 117.106 140.257 117.078 140.215C117.05 140.173 117.034 140.124 117.03 140.074Z" fill="#022B42"/>
<path d="M120.422 139.883C120.591 139.484 120.869 139.14 121.225 138.893C121.568 138.651 121.956 138.48 122.366 138.391C122.765 138.296 123.182 138.296 123.582 138.391C124.008 138.492 124.391 138.724 124.678 139.055C124.705 139.086 124.726 139.123 124.739 139.163C124.753 139.203 124.758 139.245 124.754 139.287C124.751 139.329 124.74 139.37 124.72 139.408C124.701 139.445 124.675 139.478 124.643 139.506C124.33 139.747 123.979 139.934 123.604 140.058C123.313 140.154 123.013 140.219 122.709 140.252C122.413 140.29 122.124 140.315 121.81 140.334C121.495 140.354 121.175 140.363 120.752 140.35H120.73C120.685 140.349 120.64 140.339 120.599 140.32C120.557 140.302 120.52 140.275 120.489 140.242C120.458 140.209 120.434 140.17 120.418 140.128C120.402 140.085 120.395 140.04 120.396 139.995C120.399 139.956 120.407 139.919 120.422 139.883Z" fill="#022B42"/>
<path d="M115.531 142.084C114.993 142.061 114.458 142.17 113.972 142.402C113.54 142.64 113.152 142.951 112.825 143.32C112.472 143.73 112.141 144.16 111.834 144.606C111.49 145.137 111.119 145.65 110.723 146.143C110.7 146.169 110.673 146.191 110.643 146.207C110.612 146.222 110.579 146.232 110.544 146.234C110.51 146.237 110.476 146.233 110.443 146.222C110.41 146.211 110.38 146.194 110.354 146.172C110.313 146.139 110.284 146.093 110.272 146.042C110.095 145.336 110.112 144.595 110.319 143.898C110.541 143.177 110.938 142.522 111.475 141.992C112.039 141.412 112.773 141.026 113.571 140.89C113.967 140.824 114.373 140.849 114.758 140.961C115.143 141.074 115.497 141.272 115.795 141.541C115.849 141.6 115.879 141.677 115.879 141.757C115.879 141.837 115.849 141.915 115.795 141.973C115.766 142.003 115.731 142.027 115.693 142.043C115.655 142.059 115.614 142.066 115.572 142.065L115.531 142.084Z" fill="#022B42"/>
<path d="M158.695 137.873C158.675 137.627 158.638 137.383 158.584 137.143C158.555 137.022 158.527 136.901 158.492 136.781C158.455 136.646 158.41 136.513 158.358 136.384C158.293 136.226 158.186 136.089 158.049 135.987C157.912 135.885 157.75 135.821 157.58 135.803C157.411 135.785 157.239 135.813 157.084 135.884C156.928 135.955 156.795 136.066 156.697 136.206C156.527 136.48 156.335 136.741 156.122 136.984C155.897 137.241 155.655 137.483 155.398 137.708C155.132 137.941 154.849 138.167 154.55 138.385C154.252 138.604 153.915 138.82 153.617 139.02L153.588 139.039C153.55 139.066 153.519 139.102 153.496 139.143C153.474 139.184 153.461 139.23 153.458 139.277C153.455 139.317 153.461 139.357 153.474 139.395C153.487 139.433 153.508 139.467 153.535 139.497C153.562 139.527 153.595 139.551 153.631 139.567C153.667 139.584 153.707 139.593 153.747 139.595C154.175 139.602 154.602 139.552 155.017 139.445C155.436 139.341 155.842 139.19 156.227 138.994C156.454 138.884 156.671 138.757 156.878 138.613C156.878 138.788 156.901 138.966 156.907 139.144C156.921 139.516 156.908 139.888 156.869 140.258C156.843 140.649 156.758 141.033 156.694 141.481V141.503C156.685 141.567 156.701 141.632 156.739 141.684C156.778 141.738 156.836 141.774 156.901 141.786C156.966 141.797 157.033 141.782 157.088 141.745C157.482 141.466 157.813 141.108 158.06 140.693C158.318 140.275 158.501 139.813 158.6 139.331C158.705 138.853 158.737 138.361 158.695 137.873Z" fill="#022B42"/>
<path d="M148.173 134.291C148.03 134.088 147.814 133.949 147.57 133.904C147.326 133.858 147.074 133.909 146.868 134.046L146.846 134.062C146.422 134.367 145.973 134.634 145.502 134.859C145.015 135.09 144.51 135.283 143.994 135.437C143.458 135.599 142.914 135.73 142.364 135.831C141.809 135.933 141.227 136.012 140.662 136.066H140.64C140.583 136.071 140.53 136.093 140.485 136.128C140.441 136.164 140.409 136.212 140.392 136.266C140.38 136.303 140.376 136.341 140.379 136.379C140.382 136.418 140.392 136.455 140.409 136.489C140.427 136.523 140.451 136.554 140.48 136.579C140.509 136.604 140.543 136.623 140.579 136.635C141.176 136.824 141.794 136.942 142.418 136.984C143.046 137.029 143.677 137.014 144.302 136.939C144.941 136.862 145.57 136.712 146.175 136.492C146.036 137.043 145.855 137.582 145.632 138.105C145.528 138.378 145.388 138.629 145.264 138.899C145.14 139.169 144.988 139.417 144.819 139.661C144.483 140.182 144.118 140.682 143.724 141.16V141.179C143.699 141.211 143.683 141.249 143.678 141.289C143.672 141.329 143.677 141.37 143.692 141.408C143.703 141.438 143.72 141.466 143.743 141.49C143.765 141.513 143.791 141.532 143.821 141.545C143.851 141.558 143.883 141.565 143.915 141.566C143.947 141.566 143.979 141.56 144.009 141.548C144.66 141.308 145.261 140.953 145.785 140.5C146.052 140.272 146.303 140.024 146.534 139.76C146.76 139.488 146.967 139.202 147.154 138.902C147.53 138.301 147.821 137.651 148.021 136.971L148.154 136.457C148.192 136.285 148.227 136.11 148.256 135.936C148.284 135.761 148.306 135.583 148.326 135.402C148.346 135.21 148.355 135.017 148.354 134.824C148.35 134.632 148.287 134.446 148.173 134.291Z" fill="#022B42"/>
<path d="M121.016 161.067C121.011 161.037 121.001 161.008 120.986 160.982C120.97 160.956 120.949 160.934 120.925 160.916C120.9 160.898 120.872 160.885 120.842 160.879C120.813 160.872 120.782 160.871 120.752 160.877C120.477 160.932 120.217 161.046 119.99 161.21C119.785 161.349 119.588 161.498 119.399 161.658C119.021 161.976 118.681 162.293 118.342 162.643C118.002 162.992 117.751 163.278 117.465 163.595C117.43 163.417 117.395 163.236 117.363 163.059C117.3 162.741 117.252 162.398 117.198 162.068C117.144 161.737 117.1 161.401 117.062 161.083C117.041 160.932 116.984 160.788 116.897 160.664C116.75 160.465 116.532 160.33 116.289 160.289C116.045 160.247 115.795 160.302 115.591 160.442C115.132 160.778 114.729 161.187 114.4 161.652C114.105 162.057 113.835 162.482 113.594 162.922C113.476 163.138 113.365 163.351 113.257 163.557C113.096 162.991 112.976 162.413 112.898 161.829C112.816 161.185 112.798 160.534 112.844 159.886C112.895 159.227 113.017 158.575 113.209 157.942C113.224 157.883 113.221 157.82 113.198 157.763C113.176 157.706 113.137 157.658 113.085 157.625C113.053 157.604 113.018 157.589 112.98 157.582C112.942 157.575 112.904 157.576 112.867 157.584C112.829 157.593 112.794 157.608 112.763 157.631C112.732 157.653 112.705 157.681 112.685 157.713C112.289 158.333 111.992 159.01 111.806 159.721C111.616 160.438 111.519 161.176 111.517 161.918C111.507 162.659 111.577 163.398 111.726 164.123C111.799 164.488 111.885 164.847 111.99 165.206C112.044 165.383 112.101 165.561 112.164 165.736C112.228 165.911 112.291 166.079 112.384 166.292C112.453 166.443 112.564 166.571 112.703 166.662C112.842 166.752 113.004 166.801 113.171 166.804C113.337 166.806 113.5 166.761 113.642 166.675C113.784 166.588 113.898 166.463 113.972 166.314L114 166.26C114.397 165.434 114.797 164.621 115.236 163.862C115.35 163.668 115.464 163.475 115.585 163.29C115.585 163.348 115.61 163.405 115.626 163.462C115.807 164.178 116.052 164.876 116.357 165.549L116.388 165.618C116.451 165.748 116.547 165.858 116.668 165.936C116.751 165.989 116.844 166.025 116.941 166.042C117.038 166.059 117.137 166.056 117.234 166.035C117.33 166.013 117.421 165.973 117.501 165.916C117.582 165.859 117.651 165.787 117.703 165.704L118.443 164.542C118.691 164.151 118.951 163.773 119.205 163.389C119.46 163.005 119.729 162.636 119.996 162.271C120.133 162.09 120.273 161.918 120.419 161.753C120.539 161.605 120.68 161.476 120.838 161.369L120.901 161.331C120.948 161.307 120.984 161.267 121.005 161.219C121.026 161.171 121.03 161.118 121.016 161.067Z" fill="#022B42"/>
<path d="M108.658 184.759C108.658 184.798 108.658 184.836 108.658 184.874C108.73 185.488 108.903 186.085 109.17 186.643C109.313 186.936 109.488 187.213 109.69 187.469C109.8 187.602 109.918 187.73 110.043 187.85C110.183 187.967 110.331 188.073 110.488 188.167L110.57 188.202C110.67 188.232 110.777 188.221 110.868 188.173C110.96 188.124 111.028 188.041 111.059 187.942V187.923C111.242 187.333 111.336 186.72 111.339 186.103C111.34 185.677 111.301 185.251 111.221 184.833C110.599 184.801 109.312 184.75 108.658 184.759Z" fill="#022B42"/>
<path d="M200.62 139.661L189.092 157.307C189.939 157.503 190.699 157.972 191.255 158.64L202.71 141.109C201.908 140.8 201.192 140.303 200.62 139.661Z" fill="#0485CA"/>
<path d="M238.551 137.908L226.091 130.667C225.922 131.521 225.476 132.296 224.821 132.871L237.267 140.103C237.444 139.25 237.894 138.48 238.551 137.908Z" fill="#0485CA"/>
<path d="M241.167 138.826C240.902 138.826 240.638 138.877 240.392 138.979C240.012 139.132 239.685 139.395 239.454 139.734C239.224 140.073 239.099 140.474 239.097 140.884C239.096 140.977 239.103 141.069 239.116 141.16C239.169 141.555 239.334 141.925 239.592 142.228C239.851 142.531 240.19 142.752 240.571 142.867C240.952 142.982 241.358 142.984 241.74 142.874C242.123 142.764 242.465 142.546 242.727 142.247C242.989 141.948 243.159 141.579 243.217 141.185C243.274 140.792 243.218 140.39 243.053 140.028C242.889 139.666 242.623 139.359 242.289 139.143C241.955 138.928 241.565 138.813 241.167 138.813V138.826Z" fill="#0485CA"/>
<path d="M218.212 129.87L209.094 132.951C209.587 133.655 209.905 134.468 210.021 135.32L219.006 132.284C218.489 131.599 218.209 130.764 218.209 129.905C218.209 129.905 218.212 129.896 218.212 129.87Z" fill="#0485CA"/>
<path d="M222.185 131.976C223.329 131.976 224.256 131.049 224.256 129.905C224.256 128.762 223.329 127.834 222.185 127.834C221.041 127.834 220.114 128.762 220.114 129.905C220.114 131.049 221.041 131.976 222.185 131.976Z" fill="#0485CA"/>
<path d="M204.654 132.538C203.957 132.537 203.277 132.743 202.697 133.129C202.118 133.516 201.667 134.065 201.4 134.708C201.133 135.352 201.063 136.059 201.199 136.742C201.335 137.425 201.67 138.052 202.162 138.545C202.655 139.037 203.282 139.372 203.965 139.508C204.648 139.644 205.356 139.574 205.999 139.307C206.642 139.04 207.191 138.589 207.578 138.01C207.964 137.43 208.17 136.75 208.169 136.053C208.168 135.121 207.797 134.228 207.138 133.569C206.479 132.91 205.586 132.539 204.654 132.538Z" fill="#0485CA"/>
</svg>
