<svg width="460" height="287" viewBox="0 0 460 287" fill="none" xmlns="http://www.w3.org/2000/svg">
<path d="M243.574 152.707L190.946 39.1543C173.85 42.7574 116.517 90.3848 116.517 154.181C116.518 250.082 195.85 281.55 236.126 285.9L243.574 152.707Z" fill="#05C597"/>
<path d="M250.613 152.347V26.9673C301.732 26.9678 376.675 71.0604 376.675 156.868C376.675 242.676 304.3 286.246 243.01 286.246L250.613 152.347Z" fill="#6F22D1"/>
<path d="M243.647 136.656L197.348 36.2195C218.729 28.4639 222.414 28.0483 243.647 26.7378V136.656Z" fill="#FEC636"/>
<path d="M223.626 41.616L216.954 57H214.194L220.938 41.904H212.058V39.576H223.626V41.616ZM225.967 48.024C225.967 45.256 226.431 43.096 227.359 41.544C228.303 39.976 229.919 39.192 232.207 39.192C234.495 39.192 236.103 39.976 237.031 41.544C237.975 43.096 238.447 45.256 238.447 48.024C238.447 50.824 237.975 53.016 237.031 54.6C236.103 56.168 234.495 56.952 232.207 56.952C229.919 56.952 228.303 56.168 227.359 54.6C226.431 53.016 225.967 50.824 225.967 48.024ZM235.759 48.024C235.759 46.728 235.671 45.632 235.495 44.736C235.335 43.84 234.999 43.112 234.487 42.552C233.975 41.976 233.215 41.688 232.207 41.688C231.199 41.688 230.439 41.976 229.927 42.552C229.415 43.112 229.071 43.84 228.895 44.736C228.735 45.632 228.655 46.728 228.655 48.024C228.655 49.368 228.735 50.496 228.895 51.408C229.055 52.32 229.391 53.056 229.903 53.616C230.431 54.176 231.199 54.456 232.207 54.456C233.215 54.456 233.975 54.176 234.487 53.616C235.015 53.056 235.359 52.32 235.519 51.408C235.679 50.496 235.759 49.368 235.759 48.024Z" fill="white"/>
<path d="M239.777 72.728C239.777 76.36 239.073 79.04 237.665 80.768C236.273 82.496 234.025 83.36 230.921 83.36C229.577 83.36 228.017 83.16 226.241 82.76V77.216L222.665 78.032V76.088L226.241 75.272V73.232L222.569 74.072V72.2L226.241 71.36V66.176H229.049V70.712L232.985 69.8V71.72L229.049 72.608V74.648L232.865 73.784V75.704L229.049 76.568V80.624C229.577 80.736 230.201 80.792 230.921 80.792C233.097 80.792 234.649 80.112 235.577 78.752C236.505 77.392 236.969 75.384 236.969 72.728H239.777Z" fill="white"/>
<path d="M145.526 165.458V163.394L153.59 151.826H156.902V163.082H159.134V165.458H156.902V169.106H154.214V165.458H145.526ZM154.334 154.61L148.67 163.082H154.334V154.61ZM162.913 165.386C164.449 164.058 165.657 162.97 166.537 162.122C167.433 161.258 168.177 160.362 168.769 159.434C169.361 158.506 169.657 157.578 169.657 156.65C169.657 155.69 169.425 154.938 168.961 154.394C168.513 153.85 167.801 153.578 166.825 153.578C165.881 153.578 165.145 153.882 164.617 154.49C164.105 155.082 163.833 155.882 163.801 156.89H161.161C161.209 155.066 161.753 153.674 162.793 152.714C163.849 151.738 165.185 151.25 166.801 151.25C168.545 151.25 169.905 151.73 170.881 152.69C171.873 153.65 172.369 154.93 172.369 156.53C172.369 157.682 172.073 158.794 171.481 159.866C170.905 160.922 170.209 161.874 169.393 162.722C168.593 163.554 167.569 164.522 166.321 165.626L165.241 166.586H172.849V168.866H161.185V166.874L162.913 165.386ZM175.253 160.13C175.253 157.362 175.717 155.202 176.645 153.65C177.589 152.082 179.205 151.298 181.493 151.298C183.781 151.298 185.389 152.082 186.317 153.65C187.261 155.202 187.733 157.362 187.733 160.13C187.733 162.93 187.261 165.122 186.317 166.706C185.389 168.274 183.781 169.058 181.493 169.058C179.205 169.058 177.589 168.274 176.645 166.706C175.717 165.122 175.253 162.93 175.253 160.13ZM185.045 160.13C185.045 158.834 184.957 157.738 184.781 156.842C184.621 155.946 184.285 155.218 183.773 154.658C183.261 154.082 182.501 153.794 181.493 153.794C180.485 153.794 179.725 154.082 179.213 154.658C178.701 155.218 178.357 155.946 178.181 156.842C178.021 157.738 177.941 158.834 177.941 160.13C177.941 161.474 178.021 162.602 178.181 163.514C178.341 164.426 178.677 165.162 179.189 165.722C179.717 166.282 180.485 166.562 181.493 166.562C182.501 166.562 183.261 166.282 183.773 165.722C184.301 165.162 184.645 164.426 184.805 163.514C184.965 162.602 185.045 161.474 185.045 160.13ZM206.66 158.834C206.66 162.466 205.956 165.146 204.548 166.874C203.156 168.602 200.908 169.466 197.804 169.466C196.46 169.466 194.9 169.266 193.124 168.866V163.322L189.548 164.138V162.194L193.124 161.378V159.338L189.452 160.178V158.306L193.124 157.466V152.282H195.932V156.818L199.868 155.906V157.826L195.932 158.714V160.754L199.748 159.89V161.81L195.932 162.674V166.73C196.46 166.842 197.084 166.898 197.804 166.898C199.98 166.898 201.532 166.218 202.46 164.858C203.388 163.498 203.852 161.49 203.852 158.834H206.66Z" fill="white"/>
<path d="M295.978 153.962H287.938V158.738C288.274 158.29 288.77 157.914 289.426 157.61C290.098 157.306 290.81 157.154 291.562 157.154C292.906 157.154 293.994 157.442 294.826 158.018C295.674 158.594 296.274 159.322 296.626 160.202C296.994 161.082 297.178 162.01 297.178 162.986C297.178 164.17 296.946 165.226 296.482 166.154C296.034 167.066 295.354 167.786 294.442 168.314C293.546 168.842 292.442 169.106 291.13 169.106C289.386 169.106 287.986 168.674 286.93 167.81C285.874 166.946 285.242 165.802 285.034 164.378H287.698C287.874 165.13 288.266 165.73 288.874 166.178C289.482 166.61 290.242 166.826 291.154 166.826C292.29 166.826 293.138 166.482 293.698 165.794C294.274 165.106 294.562 164.194 294.562 163.058C294.562 161.906 294.274 161.026 293.698 160.418C293.122 159.794 292.274 159.482 291.154 159.482C290.37 159.482 289.706 159.682 289.162 160.082C288.634 160.466 288.25 160.994 288.01 161.666H285.418V151.562H295.978V153.962ZM299.666 154.106V151.61H304.658V169.106H301.898V154.106H299.666ZM308.417 160.13C308.417 157.362 308.881 155.202 309.809 153.65C310.753 152.082 312.369 151.298 314.657 151.298C316.945 151.298 318.553 152.082 319.481 153.65C320.425 155.202 320.897 157.362 320.897 160.13C320.897 162.93 320.425 165.122 319.481 166.706C318.553 168.274 316.945 169.058 314.657 169.058C312.369 169.058 310.753 168.274 309.809 166.706C308.881 165.122 308.417 162.93 308.417 160.13ZM318.209 160.13C318.209 158.834 318.121 157.738 317.945 156.842C317.785 155.946 317.449 155.218 316.937 154.658C316.425 154.082 315.665 153.794 314.657 153.794C313.649 153.794 312.889 154.082 312.377 154.658C311.865 155.218 311.521 155.946 311.345 156.842C311.185 157.738 311.105 158.834 311.105 160.13C311.105 161.474 311.185 162.602 311.345 163.514C311.505 164.426 311.841 165.162 312.353 165.722C312.881 166.282 313.649 166.562 314.657 166.562C315.665 166.562 316.425 166.282 316.937 165.722C317.465 165.162 317.809 164.426 317.969 163.514C318.129 162.602 318.209 161.474 318.209 160.13ZM339.824 158.834C339.824 162.466 339.12 165.146 337.712 166.874C336.32 168.602 334.072 169.466 330.968 169.466C329.624 169.466 328.064 169.266 326.288 168.866V163.322L322.712 164.138V162.194L326.288 161.378V159.338L322.616 160.178V158.306L326.288 157.466V152.282H329.096V156.818L333.032 155.906V157.826L329.096 158.714V160.754L332.912 159.89V161.81L329.096 162.674V166.73C329.624 166.842 330.248 166.898 330.968 166.898C333.144 166.898 334.696 166.218 335.624 164.858C336.552 163.498 337.016 161.49 337.016 158.834H339.824Z" fill="white"/>
<path d="M199.411 20.126C198.571 20.126 197.815 19.982 197.143 19.694C196.471 19.394 195.943 18.974 195.559 18.434C195.175 17.894 194.983 17.264 194.983 16.544H197.179C197.227 17.084 197.437 17.528 197.809 17.876C198.193 18.224 198.727 18.398 199.411 18.398C200.119 18.398 200.671 18.23 201.067 17.894C201.463 17.546 201.661 17.102 201.661 16.562C201.661 16.142 201.535 15.8 201.283 15.536C201.043 15.272 200.737 15.068 200.365 14.924C200.005 14.78 199.501 14.624 198.853 14.456C198.037 14.24 197.371 14.024 196.855 13.808C196.351 13.58 195.919 13.232 195.559 12.764C195.199 12.296 195.019 11.672 195.019 10.892C195.019 10.172 195.199 9.542 195.559 9.002C195.919 8.462 196.423 8.048 197.071 7.76C197.719 7.472 198.469 7.328 199.321 7.328C200.533 7.328 201.523 7.634 202.291 8.246C203.071 8.846 203.503 9.674 203.587 10.73H201.319C201.283 10.274 201.067 9.884 200.671 9.56C200.275 9.236 199.753 9.074 199.105 9.074C198.517 9.074 198.037 9.224 197.665 9.524C197.293 9.824 197.107 10.256 197.107 10.82C197.107 11.204 197.221 11.522 197.449 11.774C197.689 12.014 197.989 12.206 198.349 12.35C198.709 12.494 199.201 12.65 199.825 12.818C200.653 13.046 201.325 13.274 201.841 13.502C202.369 13.73 202.813 14.084 203.173 14.564C203.545 15.032 203.731 15.662 203.731 16.454C203.731 17.09 203.557 17.69 203.209 18.254C202.873 18.818 202.375 19.274 201.715 19.622C201.067 19.958 200.299 20.126 199.411 20.126ZM207.197 8.768C206.825 8.768 206.513 8.642 206.261 8.39C206.009 8.138 205.883 7.826 205.883 7.454C205.883 7.082 206.009 6.77 206.261 6.518C206.513 6.266 206.825 6.14 207.197 6.14C207.557 6.14 207.863 6.266 208.115 6.518C208.367 6.77 208.493 7.082 208.493 7.454C208.493 7.826 208.367 8.138 208.115 8.39C207.863 8.642 207.557 8.768 207.197 8.768ZM208.205 10.082V20H206.153V10.082H208.205ZM212.717 18.326H217.217V20H210.341V18.326L214.859 11.756H210.341V10.082H217.217V11.756L212.717 18.326ZM223.453 10.046C223.453 9.17 223.705 8.486 224.209 7.994C224.725 7.49 225.385 7.238 226.189 7.238C226.993 7.238 227.647 7.49 228.151 7.994C228.667 8.486 228.925 9.17 228.925 10.046C228.925 10.922 228.667 11.612 228.151 12.116C227.647 12.62 226.993 12.872 226.189 12.872C225.385 12.872 224.725 12.62 224.209 12.116C223.705 11.612 223.453 10.922 223.453 10.046ZM234.433 7.472L227.251 20H225.235L232.417 7.472H234.433ZM226.189 8.48C225.433 8.48 225.055 9.002 225.055 10.046C225.055 11.102 225.433 11.63 226.189 11.63C226.549 11.63 226.825 11.504 227.017 11.252C227.221 10.988 227.323 10.586 227.323 10.046C227.323 9.002 226.945 8.48 226.189 8.48ZM230.779 17.408C230.779 16.532 231.031 15.848 231.535 15.356C232.051 14.852 232.711 14.6 233.515 14.6C234.307 14.6 234.955 14.852 235.459 15.356C235.975 15.848 236.233 16.532 236.233 17.408C236.233 18.284 235.975 18.974 235.459 19.478C234.955 19.982 234.307 20.234 233.515 20.234C232.711 20.234 232.051 19.982 231.535 19.478C231.031 18.974 230.779 18.284 230.779 17.408ZM233.497 15.842C232.741 15.842 232.363 16.364 232.363 17.408C232.363 18.452 232.741 18.974 233.497 18.974C234.253 18.974 234.631 18.452 234.631 17.408C234.631 16.364 234.253 15.842 233.497 15.842ZM246.384 8.462L241.38 20H239.31L244.368 8.678H237.708V6.932H246.384V8.462Z" fill="black"/>
<path d="M37.2358 137.49C38.5678 137.49 39.7318 137.748 40.7278 138.264C41.7358 138.768 42.5098 139.5 43.0498 140.46C43.6018 141.408 43.8778 142.518 43.8778 143.79C43.8778 145.062 43.6018 146.166 43.0498 147.102C42.5098 148.038 41.7358 148.758 40.7278 149.262C39.7318 149.754 38.5678 150 37.2358 150H33.1498V137.49H37.2358ZM37.2358 148.326C38.6998 148.326 39.8218 147.93 40.6018 147.138C41.3818 146.346 41.7718 145.23 41.7718 143.79C41.7718 142.338 41.3818 141.204 40.6018 140.388C39.8218 139.572 38.6998 139.164 37.2358 139.164H35.2018V148.326H37.2358ZM46.9555 138.768C46.5835 138.768 46.2715 138.642 46.0195 138.39C45.7675 138.138 45.6415 137.826 45.6415 137.454C45.6415 137.082 45.7675 136.77 46.0195 136.518C46.2715 136.266 46.5835 136.14 46.9555 136.14C47.3155 136.14 47.6215 136.266 47.8735 136.518C48.1255 136.77 48.2515 137.082 48.2515 137.454C48.2515 137.826 48.1255 138.138 47.8735 138.39C47.6215 138.642 47.3155 138.768 46.9555 138.768ZM47.9635 140.082V150H45.9115V140.082H47.9635ZM54.6536 139.92C55.4216 139.92 56.0996 140.076 56.6876 140.388C57.2876 140.688 57.7556 141.066 58.0916 141.522V140.082H60.1616V150.162C60.1616 151.074 59.9696 151.884 59.5856 152.592C59.2016 153.312 58.6436 153.876 57.9116 154.284C57.1916 154.692 56.3276 154.896 55.3196 154.896C53.9756 154.896 52.8596 154.578 51.9716 153.942C51.0836 153.318 50.5796 152.466 50.4596 151.386H52.4936C52.6496 151.902 52.9796 152.316 53.4836 152.628C53.9996 152.952 54.6116 153.114 55.3196 153.114C56.1476 153.114 56.8136 152.862 57.3176 152.358C57.8336 151.854 58.0916 151.122 58.0916 150.162V148.506C57.7436 148.974 57.2696 149.37 56.6696 149.694C56.0816 150.006 55.4096 150.162 54.6536 150.162C53.7896 150.162 52.9976 149.946 52.2776 149.514C51.5696 149.07 51.0056 148.458 50.5856 147.678C50.1776 146.886 49.9736 145.992 49.9736 144.996C49.9736 144 50.1776 143.118 50.5856 142.35C51.0056 141.582 51.5696 140.988 52.2776 140.568C52.9976 140.136 53.7896 139.92 54.6536 139.92ZM58.0916 145.032C58.0916 144.348 57.9476 143.754 57.6596 143.25C57.3836 142.746 57.0176 142.362 56.5616 142.098C56.1056 141.834 55.6136 141.702 55.0856 141.702C54.5576 141.702 54.0656 141.834 53.6096 142.098C53.1536 142.35 52.7816 142.728 52.4936 143.232C52.2176 143.724 52.0796 144.312 52.0796 144.996C52.0796 145.68 52.2176 146.28 52.4936 146.796C52.7816 147.312 53.1536 147.708 53.6096 147.984C54.0776 148.248 54.5696 148.38 55.0856 148.38C55.6136 148.38 56.1056 148.248 56.5616 147.984C57.0176 147.72 57.3836 147.336 57.6596 146.832C57.9476 146.316 58.0916 145.716 58.0916 145.032ZM58.1276 136.752C58.1276 137.508 57.8816 138.114 57.3896 138.57C56.9096 139.026 56.2496 139.254 55.4096 139.254C54.5696 139.254 53.9096 139.026 53.4296 138.57C52.9496 138.102 52.7096 137.49 52.7096 136.734V136.356H53.8796C53.8796 136.788 53.9936 137.112 54.2216 137.328C54.4496 137.544 54.8456 137.652 55.4096 137.652C55.9736 137.652 56.3696 137.544 56.5976 137.328C56.8256 137.112 56.9396 136.788 56.9396 136.356H58.1276V136.752ZM71.9468 144.798C71.9468 145.17 71.9228 145.506 71.8748 145.806H64.2968C64.3568 146.598 64.6508 147.234 65.1788 147.714C65.7068 148.194 66.3548 148.434 67.1228 148.434C68.2268 148.434 69.0068 147.972 69.4628 147.048H71.6768C71.3768 147.96 70.8308 148.71 70.0388 149.298C69.2588 149.874 68.2868 150.162 67.1228 150.162C66.1748 150.162 65.3228 149.952 64.5668 149.532C63.8228 149.1 63.2348 148.5 62.8028 147.732C62.3828 146.952 62.1728 146.052 62.1728 145.032C62.1728 144.012 62.3768 143.118 62.7848 142.35C63.2048 141.57 63.7868 140.97 64.5308 140.55C65.2868 140.13 66.1508 139.92 67.1228 139.92C68.0588 139.92 68.8928 140.124 69.6248 140.532C70.3568 140.94 70.9268 141.516 71.3348 142.26C71.7428 142.992 71.9468 143.838 71.9468 144.798ZM69.8048 144.15C69.7928 143.394 69.5228 142.788 68.9948 142.332C68.4668 141.876 67.8128 141.648 67.0328 141.648C66.3248 141.648 65.7188 141.876 65.2148 142.332C64.7108 142.776 64.4108 143.382 64.3148 144.15H69.8048ZM76.0182 141.522C76.3182 141.018 76.7142 140.628 77.2062 140.352C77.7102 140.064 78.3042 139.92 78.9882 139.92V142.044H78.4662C77.6622 142.044 77.0502 142.248 76.6302 142.656C76.2222 143.064 76.0182 143.772 76.0182 144.78V150H73.9662V140.082H76.0182V141.522ZM16.4745 164.49L12.3345 172.464V177H10.2825V172.464L6.12449 164.49H8.41049L11.3085 170.628L14.2065 164.49H16.4745ZM17.4189 171.996C17.4189 171 17.6229 170.118 18.0309 169.35C18.4509 168.582 19.0149 167.988 19.7229 167.568C20.4429 167.136 21.2349 166.92 22.0989 166.92C22.8789 166.92 23.5569 167.076 24.1329 167.388C24.7209 167.688 25.1889 168.066 25.5369 168.522V167.082H27.6069V177H25.5369V175.524C25.1889 175.992 24.7149 176.382 24.1149 176.694C23.5149 177.006 22.8309 177.162 22.0629 177.162C21.2109 177.162 20.4309 176.946 19.7229 176.514C19.0149 176.07 18.4509 175.458 18.0309 174.678C17.6229 173.886 17.4189 172.992 17.4189 171.996ZM25.5369 172.032C25.5369 171.348 25.3929 170.754 25.1049 170.25C24.8289 169.746 24.4629 169.362 24.0069 169.098C23.5509 168.834 23.0589 168.702 22.5309 168.702C22.0029 168.702 21.5109 168.834 21.0549 169.098C20.5989 169.35 20.2269 169.728 19.9389 170.232C19.6629 170.724 19.5249 171.312 19.5249 171.996C19.5249 172.68 19.6629 173.28 19.9389 173.796C20.2269 174.312 20.5989 174.708 21.0549 174.984C21.5229 175.248 22.0149 175.38 22.5309 175.38C23.0589 175.38 23.5509 175.248 24.0069 174.984C24.4629 174.72 24.8289 174.336 25.1049 173.832C25.3929 173.316 25.5369 172.716 25.5369 172.032ZM32.6961 168.756V174.246C32.6961 174.618 32.7801 174.888 32.9481 175.056C33.1281 175.212 33.4281 175.29 33.8481 175.29H35.1081V177H33.4881C32.5641 177 31.8561 176.784 31.3641 176.352C30.8721 175.92 30.6261 175.218 30.6261 174.246V168.756H29.4561V167.082H30.6261V164.616H32.6961V167.082H35.1081V168.756H32.6961ZM39.0514 167.082V177H36.9994V167.082H39.0514ZM43.7975 168.522C44.0975 168.018 44.4935 167.628 44.9855 167.352C45.4895 167.064 46.0835 166.92 46.7675 166.92V169.044H46.2455C45.4415 169.044 44.8295 169.248 44.4095 169.656C44.0015 170.064 43.7975 170.772 43.7975 171.78V177H41.7455V167.082H43.7975V168.522ZM50.7057 167.082V177H48.6537V167.082H50.7057ZM65.4058 166.92C66.1858 166.92 66.8818 167.082 67.4938 167.406C68.1178 167.73 68.6038 168.21 68.9518 168.846C69.3118 169.482 69.4918 170.25 69.4918 171.15V177H67.4578V171.456C67.4578 170.568 67.2358 169.89 66.7918 169.422C66.3478 168.942 65.7418 168.702 64.9738 168.702C64.2058 168.702 63.5938 168.942 63.1378 169.422C62.6938 169.89 62.4718 170.568 62.4718 171.456V177H60.4378V171.456C60.4378 170.568 60.2158 169.89 59.7718 169.422C59.3278 168.942 58.7218 168.702 57.9538 168.702C57.1858 168.702 56.5738 168.942 56.1178 169.422C55.6738 169.89 55.4518 170.568 55.4518 171.456V177H53.3998V167.082H55.4518V168.216C55.7878 167.808 56.2138 167.49 56.7298 167.262C57.2458 167.034 57.7978 166.92 58.3858 166.92C59.1778 166.92 59.8858 167.088 60.5098 167.424C61.1338 167.76 61.6138 168.246 61.9498 168.882C62.2498 168.282 62.7178 167.808 63.3538 167.46C63.9898 167.1 64.6738 166.92 65.4058 166.92ZM71.4189 172.032C71.4189 171.012 71.6229 170.118 72.0309 169.35C72.4509 168.57 73.0269 167.97 73.7589 167.55C74.4909 167.13 75.3309 166.92 76.2789 166.92C77.4789 166.92 78.4689 167.208 79.2489 167.784C80.0409 168.348 80.5749 169.158 80.8509 170.214H78.6369C78.4569 169.722 78.1689 169.338 77.7729 169.062C77.3769 168.786 76.8789 168.648 76.2789 168.648C75.4389 168.648 74.7669 168.948 74.2629 169.548C73.7709 170.136 73.5249 170.964 73.5249 172.032C73.5249 173.1 73.7709 173.934 74.2629 174.534C74.7669 175.134 75.4389 175.434 76.2789 175.434C77.4669 175.434 78.2529 174.912 78.6369 173.868H80.8509C80.5629 174.876 80.0229 175.68 79.2309 176.28C78.4389 176.868 77.4549 177.162 76.2789 177.162C75.3309 177.162 74.4909 176.952 73.7589 176.532C73.0269 176.1 72.4509 175.5 72.0309 174.732C71.6229 173.952 71.4189 173.052 71.4189 172.032ZM84.9479 167.082V177H82.8959V167.082H84.9479ZM89.694 163.68V177H87.642V163.68H89.694ZM91.7041 171.996C91.7041 171 91.9081 170.118 92.3161 169.35C92.7361 168.582 93.3001 167.988 94.0081 167.568C94.7281 167.136 95.5201 166.92 96.3841 166.92C97.1641 166.92 97.8421 167.076 98.4181 167.388C99.0061 167.688 99.4741 168.066 99.8221 168.522V167.082H101.892V177H99.8221V175.524C99.4741 175.992 99.0001 176.382 98.4001 176.694C97.8001 177.006 97.1161 177.162 96.3481 177.162C95.4961 177.162 94.7161 176.946 94.0081 176.514C93.3001 176.07 92.7361 175.458 92.3161 174.678C91.9081 173.886 91.7041 172.992 91.7041 171.996ZM99.8221 172.032C99.8221 171.348 99.6781 170.754 99.3901 170.25C99.1141 169.746 98.7481 169.362 98.2921 169.098C97.8361 168.834 97.3441 168.702 96.8161 168.702C96.2881 168.702 95.7961 168.834 95.3401 169.098C94.8841 169.35 94.5121 169.728 94.2241 170.232C93.9481 170.724 93.8101 171.312 93.8101 171.996C93.8101 172.68 93.9481 173.28 94.2241 173.796C94.5121 174.312 94.8841 174.708 95.3401 174.984C95.8081 175.248 96.3001 175.38 96.8161 175.38C97.3441 175.38 97.8361 175.248 98.2921 174.984C98.7481 174.72 99.1141 174.336 99.3901 173.832C99.6781 173.316 99.8221 172.716 99.8221 172.032ZM106.639 168.522C106.939 168.018 107.335 167.628 107.827 167.352C108.331 167.064 108.925 166.92 109.609 166.92V169.044H109.087C108.283 169.044 107.671 169.248 107.251 169.656C106.843 170.064 106.639 170.772 106.639 171.78V177H104.587V167.082H106.639V168.522ZM40.589 194.046C40.589 193.17 40.841 192.486 41.345 191.994C41.861 191.49 42.521 191.238 43.325 191.238C44.129 191.238 44.783 191.49 45.287 191.994C45.803 192.486 46.061 193.17 46.061 194.046C46.061 194.922 45.803 195.612 45.287 196.116C44.783 196.62 44.129 196.872 43.325 196.872C42.521 196.872 41.861 196.62 41.345 196.116C40.841 195.612 40.589 194.922 40.589 194.046ZM51.569 191.472L44.387 204H42.371L49.553 191.472H51.569ZM43.325 192.48C42.569 192.48 42.191 193.002 42.191 194.046C42.191 195.102 42.569 195.63 43.325 195.63C43.685 195.63 43.961 195.504 44.153 195.252C44.357 194.988 44.459 194.586 44.459 194.046C44.459 193.002 44.081 192.48 43.325 192.48ZM47.915 201.408C47.915 200.532 48.167 199.848 48.671 199.356C49.187 198.852 49.847 198.6 50.651 198.6C51.443 198.6 52.091 198.852 52.595 199.356C53.111 199.848 53.369 200.532 53.369 201.408C53.369 202.284 53.111 202.974 52.595 203.478C52.091 203.982 51.443 204.234 50.651 204.234C49.847 204.234 49.187 203.982 48.671 203.478C48.167 202.974 47.915 202.284 47.915 201.408ZM50.633 199.842C49.877 199.842 49.499 200.364 49.499 201.408C49.499 202.452 49.877 202.974 50.633 202.974C51.389 202.974 51.767 202.452 51.767 201.408C51.767 200.364 51.389 199.842 50.633 199.842ZM54.952 201.264V199.716L61 191.04H63.484V199.482H65.158V201.264H63.484V204H61.468V201.264H54.952ZM61.558 193.128L57.31 199.482H61.558V193.128ZM67.9923 201.21C69.1443 200.214 70.0503 199.398 70.7103 198.762C71.3823 198.114 71.9403 197.442 72.3843 196.746C72.8283 196.05 73.0503 195.354 73.0503 194.658C73.0503 193.938 72.8763 193.374 72.5283 192.966C72.1923 192.558 71.6583 192.354 70.9263 192.354C70.2183 192.354 69.6663 192.582 69.2703 193.038C68.8863 193.482 68.6823 194.082 68.6583 194.838H66.6783C66.7143 193.47 67.1223 192.426 67.9023 191.706C68.6943 190.974 69.6963 190.608 70.9083 190.608C72.2163 190.608 73.2363 190.968 73.9683 191.688C74.7123 192.408 75.0843 193.368 75.0843 194.568C75.0843 195.432 74.8623 196.266 74.4183 197.07C73.9863 197.862 73.4643 198.576 72.8523 199.212C72.2523 199.836 71.4843 200.562 70.5483 201.39L69.7383 202.11H75.4443V203.82H66.6963V202.326L67.9923 201.21Z" fill="black"/>
<path d="M391.278 156.574C391.95 156.694 392.52 157.048 392.988 157.636C393.456 158.224 393.69 158.89 393.69 159.634C393.69 160.27 393.522 160.846 393.186 161.362C392.862 161.866 392.388 162.268 391.764 162.568C391.14 162.856 390.414 163 389.586 163H384.582V150.49H389.352C390.204 150.49 390.936 150.634 391.548 150.922C392.16 151.21 392.622 151.6 392.934 152.092C393.246 152.572 393.402 153.112 393.402 153.712C393.402 154.432 393.21 155.032 392.826 155.512C392.442 155.992 391.926 156.346 391.278 156.574ZM386.634 155.746H389.172C389.844 155.746 390.366 155.596 390.738 155.296C391.122 154.984 391.314 154.54 391.314 153.964C391.314 153.4 391.122 152.962 390.738 152.65C390.366 152.326 389.844 152.164 389.172 152.164H386.634V155.746ZM389.406 161.326C390.102 161.326 390.648 161.158 391.044 160.822C391.44 160.486 391.638 160.018 391.638 159.418C391.638 158.806 391.428 158.32 391.008 157.96C390.588 157.6 390.03 157.42 389.334 157.42H386.634V161.326H389.406ZM408.678 150.49V152.164H405.348V163H403.296V152.164H399.948V150.49H408.678ZM410.072 157.996C410.072 157 410.276 156.118 410.684 155.35C411.104 154.582 411.668 153.988 412.376 153.568C413.096 153.136 413.888 152.92 414.752 152.92C415.532 152.92 416.21 153.076 416.786 153.388C417.374 153.688 417.842 154.066 418.19 154.522V153.082H420.26V163H418.19V161.524C417.842 161.992 417.368 162.382 416.768 162.694C416.168 163.006 415.484 163.162 414.716 163.162C413.864 163.162 413.084 162.946 412.376 162.514C411.668 162.07 411.104 161.458 410.684 160.678C410.276 159.886 410.072 158.992 410.072 157.996ZM418.19 158.032C418.19 157.348 418.046 156.754 417.758 156.25C417.482 155.746 417.116 155.362 416.66 155.098C416.204 154.834 415.712 154.702 415.184 154.702C414.656 154.702 414.164 154.834 413.708 155.098C413.252 155.35 412.88 155.728 412.592 156.232C412.316 156.724 412.178 157.312 412.178 157.996C412.178 158.68 412.316 159.28 412.592 159.796C412.88 160.312 413.252 160.708 413.708 160.984C414.176 161.248 414.668 161.38 415.184 161.38C415.712 161.38 416.204 161.248 416.66 160.984C417.116 160.72 417.482 160.336 417.758 159.832C418.046 159.316 418.19 158.716 418.19 158.032ZM426.879 158.05L431.451 163H428.679L425.007 158.734V163H422.955V149.68H425.007V157.42L428.607 153.082H431.451L426.879 158.05ZM434.974 153.082V163H432.922V153.082H434.974ZM449.674 152.92C450.454 152.92 451.15 153.082 451.762 153.406C452.386 153.73 452.872 154.21 453.22 154.846C453.58 155.482 453.76 156.25 453.76 157.15V163H451.726V157.456C451.726 156.568 451.504 155.89 451.06 155.422C450.616 154.942 450.01 154.702 449.242 154.702C448.474 154.702 447.862 154.942 447.406 155.422C446.962 155.89 446.74 156.568 446.74 157.456V163H444.706V157.456C444.706 156.568 444.484 155.89 444.04 155.422C443.596 154.942 442.99 154.702 442.222 154.702C441.454 154.702 440.842 154.942 440.386 155.422C439.942 155.89 439.72 156.568 439.72 157.456V163H437.668V153.082H439.72V154.216C440.056 153.808 440.482 153.49 440.998 153.262C441.514 153.034 442.066 152.92 442.654 152.92C443.446 152.92 444.154 153.088 444.778 153.424C445.402 153.76 445.882 154.246 446.218 154.882C446.518 154.282 446.986 153.808 447.622 153.46C448.258 153.1 448.942 152.92 449.674 152.92ZM458.423 153.082V163H456.371V153.082H458.423ZM406.216 180.046C406.216 179.17 406.468 178.486 406.972 177.994C407.488 177.49 408.148 177.238 408.952 177.238C409.756 177.238 410.41 177.49 410.914 177.994C411.43 178.486 411.688 179.17 411.688 180.046C411.688 180.922 411.43 181.612 410.914 182.116C410.41 182.62 409.756 182.872 408.952 182.872C408.148 182.872 407.488 182.62 406.972 182.116C406.468 181.612 406.216 180.922 406.216 180.046ZM417.196 177.472L410.014 190H407.998L415.18 177.472H417.196ZM408.952 178.48C408.196 178.48 407.818 179.002 407.818 180.046C407.818 181.102 408.196 181.63 408.952 181.63C409.312 181.63 409.588 181.504 409.78 181.252C409.984 180.988 410.086 180.586 410.086 180.046C410.086 179.002 409.708 178.48 408.952 178.48ZM413.542 187.408C413.542 186.532 413.794 185.848 414.298 185.356C414.814 184.852 415.474 184.6 416.278 184.6C417.07 184.6 417.718 184.852 418.222 185.356C418.738 185.848 418.996 186.532 418.996 187.408C418.996 188.284 418.738 188.974 418.222 189.478C417.718 189.982 417.07 190.234 416.278 190.234C415.474 190.234 414.814 189.982 414.298 189.478C413.794 188.974 413.542 188.284 413.542 187.408ZM416.26 185.842C415.504 185.842 415.126 186.364 415.126 187.408C415.126 188.452 415.504 188.974 416.26 188.974C417.016 188.974 417.394 188.452 417.394 187.408C417.394 186.364 417.016 185.842 416.26 185.842ZM429.291 178.642H423.261V182.224C423.513 181.888 423.885 181.606 424.377 181.378C424.881 181.15 425.415 181.036 425.979 181.036C426.987 181.036 427.803 181.252 428.427 181.684C429.063 182.116 429.513 182.662 429.777 183.322C430.053 183.982 430.191 184.678 430.191 185.41C430.191 186.298 430.017 187.09 429.669 187.786C429.333 188.47 428.823 189.01 428.139 189.406C427.467 189.802 426.639 190 425.655 190C424.347 190 423.297 189.676 422.505 189.028C421.713 188.38 421.239 187.522 421.083 186.454H423.081C423.213 187.018 423.507 187.468 423.963 187.804C424.419 188.128 424.989 188.29 425.673 188.29C426.525 188.29 427.161 188.032 427.581 187.516C428.013 187 428.229 186.316 428.229 185.464C428.229 184.6 428.013 183.94 427.581 183.484C427.149 183.016 426.513 182.782 425.673 182.782C425.085 182.782 424.587 182.932 424.179 183.232C423.783 183.52 423.495 183.916 423.315 184.42H421.371V176.842H429.291V178.642ZM432.057 178.75V176.878H435.801V190H433.731V178.75H432.057Z" fill="black"/>
</svg>
