<svg width="477" height="476" viewBox="0 0 477 476" fill="none" xmlns="http://www.w3.org/2000/svg">
<path d="M336.089 182.909C334.404 184.256 331.503 190.859 329.765 194.82C327.261 200.523 324.48 206.848 320.555 212.56C319.804 213.657 319.011 214.73 318.165 215.772C318.036 215.933 317.907 216.092 317.775 216.25C310.526 224.975 301.334 229.396 290.459 229.396C280.207 229.396 271.293 225.902 264.685 219.286C250.548 205.14 250.58 181.064 250.598 169.49V168.511H272.911V169.523C272.899 177.423 272.873 195.926 280.474 203.533C282.004 205.064 284.705 207.1 290.459 207.1C298.68 207.1 302.755 200.84 309.331 185.86C311.689 180.495 313.914 175.428 316.926 171.169C322.875 162.761 329.877 160.998 334.703 160.998V183.293C335.191 183.289 335.669 183.156 336.089 182.909Z" fill="#00AEE0"/>
<path d="M261.754 171.605C267.917 171.605 272.912 170.219 272.912 168.51C272.912 166.8 267.917 165.415 261.754 165.415C255.592 165.415 250.597 166.8 250.597 168.51C250.597 170.219 255.592 171.605 261.754 171.605Z" fill="#04294F"/>
<path d="M269.952 169.14C269.956 169.271 269.917 169.399 269.84 169.504C269.763 169.609 269.653 169.686 269.527 169.722C268.058 170.141 265.849 170.438 263.305 170.523H260.205C256.341 170.391 253.246 169.777 252.348 168.985L252.606 167.847L256.711 149.758L265.554 149.166C266.896 152.055 269.318 159.51 269.864 167.398C269.903 167.977 269.933 168.558 269.952 169.14Z" fill="#FFAF51"/>
<path d="M265.787 147.518C265.685 146.875 265.508 146.246 265.26 145.645C264.523 143.871 263.251 142.41 262.252 140.784C261.253 139.157 260.508 137.172 261.008 135.311C261.527 133.384 263.302 131.887 263.329 129.886C263.36 127.674 261.019 126.03 258.915 126.254C256.811 126.479 255.054 128.057 253.789 129.829C251.887 132.56 250.812 135.78 250.694 139.105C250.69 139.182 250.67 139.258 250.635 139.328C250.601 139.397 250.552 139.459 250.492 139.508C250.432 139.558 250.363 139.595 250.288 139.616C250.214 139.638 250.135 139.644 250.058 139.634C244.455 138.955 238.4 139.129 233.672 141.239C231.637 142.148 229.836 143.676 229.169 145.651C228.501 147.626 229.209 150.042 231.14 151.123C228.823 151.961 227.239 154.247 227.405 156.516C227.571 158.786 229.473 160.86 231.892 161.41C230.155 162.754 229.571 165.194 230.536 167.076C231.501 168.957 233.929 170.112 236.173 169.756C235.455 170.909 235.473 172.202 235.848 172.97C236.71 174.738 238.505 174.958 240.629 175.097C244.82 175.37 247.994 173.313 251.763 171.43C255.532 169.547 263.854 163.578 265.101 159.987C266.039 157.283 266.704 151.432 265.787 147.518Z" fill="#FFAF51"/>
<path d="M243.878 142.364C243.855 142.299 243.918 142.209 244.081 142.094C244.326 141.946 244.602 141.853 244.888 141.824C245.347 141.77 245.813 141.819 246.251 141.968C246.84 142.165 247.376 142.495 247.818 142.931C248.083 143.191 248.311 143.487 248.494 143.81C248.695 144.165 248.842 144.548 248.93 144.946C249.118 145.806 249.081 146.699 248.823 147.541C248.551 148.455 248.072 149.295 247.424 149.994C246.744 150.712 245.936 151.296 245.041 151.716C244.186 152.119 243.285 152.415 242.358 152.597C241.523 152.767 240.675 152.869 239.823 152.903C238.412 152.954 237 152.868 235.605 152.646C234.679 152.509 233.764 152.308 232.866 152.044C232.231 151.846 231.89 151.669 231.907 151.532C231.924 151.393 232.299 151.307 232.959 151.265C233.619 151.221 234.565 151.225 235.715 151.225C237.04 151.237 238.364 151.179 239.683 151.051C241.23 150.916 242.744 150.528 244.164 149.901C244.842 149.585 245.461 149.156 245.993 148.632C246.46 148.158 246.822 147.591 247.055 146.968C247.266 146.421 247.345 145.831 247.285 145.247C247.258 144.993 247.197 144.744 247.102 144.507C247.013 144.283 246.895 144.072 246.753 143.878C246.493 143.528 246.169 143.23 245.798 143C245.507 142.821 245.191 142.689 244.86 142.608C244.635 142.556 244.407 142.517 244.178 142.489C244.011 142.469 243.902 142.43 243.878 142.364Z" fill="#FF7751"/>
<path d="M247.527 151.069C247.511 151.001 247.598 150.917 247.799 150.816C247.925 150.764 248.056 150.724 248.19 150.695C248.376 150.664 248.564 150.652 248.752 150.659C249.276 150.684 249.788 150.828 250.248 151.079C250.872 151.413 251.404 151.894 251.797 152.482C252.033 152.835 252.216 153.221 252.34 153.627C252.466 154.063 252.532 154.514 252.537 154.967C252.537 155.952 252.293 156.922 251.826 157.789C251.327 158.73 250.629 159.55 249.781 160.194C248.91 160.852 247.946 161.377 246.921 161.754C245.942 162.12 244.936 162.408 243.912 162.617C242.968 162.813 242.012 162.95 241.051 163.028C239.429 163.157 237.797 163.101 236.187 162.862C235.845 162.814 235.522 162.746 235.217 162.69C234.913 162.624 234.628 162.554 234.362 162.49C233.909 162.371 233.463 162.227 233.026 162.059C232.745 161.957 232.475 161.828 232.219 161.673C232.042 161.561 231.959 161.47 231.978 161.402C231.996 161.335 232.114 161.295 232.32 161.279C232.612 161.269 232.903 161.273 233.194 161.293C233.564 161.316 234.016 161.344 234.541 161.377C234.802 161.39 235.08 161.403 235.376 161.417C235.672 161.422 235.982 161.441 236.309 161.442C237.828 161.469 239.348 161.382 240.854 161.181C241.7 161.063 242.58 160.903 243.481 160.69C244.404 160.476 245.312 160.202 246.2 159.871C247.048 159.562 247.851 159.141 248.588 158.619C249.238 158.158 249.786 157.569 250.201 156.889C250.57 156.293 250.798 155.619 250.865 154.921C250.891 154.613 250.879 154.304 250.829 153.999C250.778 153.725 250.69 153.459 250.57 153.208C250.346 152.751 250.027 152.348 249.634 152.025C249.33 151.771 248.985 151.57 248.614 151.431C248.459 151.364 248.314 151.338 248.186 151.294C248.058 151.272 247.943 151.239 247.849 151.219C247.661 151.186 247.543 151.136 247.527 151.069Z" fill="#FF7751"/>
<path d="M236.682 169.8C236.689 169.66 237.006 169.545 237.568 169.449C238.13 169.352 238.939 169.276 239.921 169.182C240.901 169.084 242.057 168.97 243.293 168.732C244.608 168.494 245.886 168.08 247.091 167.5C247.692 167.206 248.262 166.851 248.792 166.443C249.271 166.07 249.703 165.641 250.079 165.166C250.706 164.357 251.115 163.402 251.269 162.391C251.331 161.996 251.35 161.595 251.325 161.197C251.324 161.016 251.289 160.854 251.28 160.696C251.254 160.54 251.23 160.397 251.209 160.269C251.152 160.014 251.115 159.801 251.09 159.65C251.072 159.496 251.087 159.391 251.144 159.352C251.202 159.312 251.299 159.34 251.436 159.436C251.627 159.579 251.793 159.754 251.927 159.951C252.012 160.079 252.1 160.227 252.193 160.394C252.283 160.579 252.362 160.77 252.429 160.965C252.591 161.446 252.681 161.949 252.694 162.456C252.726 163.798 252.344 165.118 251.598 166.235C251.165 166.884 250.641 167.469 250.043 167.972C249.414 168.497 248.724 168.945 247.988 169.306C246.6 169.979 245.106 170.406 243.571 170.568C242.361 170.7 241.14 170.713 239.927 170.607C239.121 170.546 238.321 170.421 237.535 170.233C236.977 170.088 236.675 169.938 236.682 169.8Z" fill="#FF7751"/>
<path d="M251.495 166.53C251.48 166.483 251.538 166.408 251.69 166.334C251.921 166.239 252.175 166.212 252.421 166.257C252.814 166.326 253.181 166.504 253.478 166.771C253.885 167.127 254.172 167.599 254.3 168.125C254.447 168.746 254.426 169.396 254.238 170.007C254.14 170.342 254.003 170.663 253.829 170.966C253.644 171.282 253.424 171.577 253.174 171.845C252.654 172.383 252.058 172.842 251.405 173.207C250.747 173.585 250.066 173.922 249.367 174.217C248.669 174.51 247.954 174.762 247.226 174.97C246.547 175.159 245.858 175.309 245.162 175.419C244.533 175.519 243.9 175.585 243.264 175.616C242.966 175.627 242.678 175.629 242.402 175.634C242.125 175.624 241.861 175.616 241.607 175.607C241.102 175.571 240.647 175.526 240.252 175.458C239.913 175.405 239.577 175.334 239.246 175.245C238.703 175.084 238.417 174.941 238.434 174.839C238.45 174.735 238.766 174.681 239.312 174.66C239.587 174.636 239.918 174.641 240.302 174.614C240.686 174.601 241.12 174.57 241.598 174.539C241.836 174.516 242.085 174.493 242.345 174.468C242.603 174.436 242.872 174.402 243.15 174.368C243.704 174.283 244.293 174.189 244.905 174.05C245.519 173.924 246.152 173.743 246.804 173.55C247.45 173.337 248.118 173.111 248.779 172.824C249.442 172.544 250.082 172.237 250.674 171.918C251.219 171.636 251.724 171.285 252.177 170.872C252.557 170.52 252.854 170.089 253.048 169.609C253.218 169.204 253.287 168.763 253.249 168.326C253.217 168.013 253.109 167.713 252.935 167.45C252.761 167.188 252.527 166.972 252.251 166.821C252.087 166.736 251.912 166.674 251.731 166.636C251.597 166.607 251.51 166.582 251.495 166.53Z" fill="#FF7751"/>
<path d="M231.256 148.339C231.199 148.358 231.139 148.362 231.08 148.351C231.022 148.34 230.967 148.315 230.92 148.277C230.849 148.23 230.785 148.172 230.732 148.105C230.662 148.024 230.602 147.934 230.553 147.839C230.426 147.593 230.346 147.327 230.314 147.053C230.295 146.892 230.29 146.73 230.3 146.568C230.316 146.219 230.396 145.876 230.537 145.556C230.601 145.407 230.678 145.263 230.767 145.128C230.916 144.896 231.107 144.694 231.33 144.53C231.416 144.466 231.51 144.413 231.608 144.371C231.686 144.334 231.769 144.311 231.854 144.301C231.912 144.288 231.973 144.289 232.03 144.306C232.087 144.322 232.14 144.352 232.182 144.394C232.252 144.488 232.282 144.606 232.266 144.721C232.261 144.787 232.249 144.858 232.236 144.938C232.222 145.016 232.197 145.093 232.178 145.182C232.132 145.343 232.077 145.533 232.016 145.744C231.992 145.848 231.955 145.95 231.931 146.061C231.903 146.169 231.874 146.281 231.845 146.396C231.82 146.512 231.796 146.626 231.773 146.735C231.745 146.845 231.733 146.953 231.708 147.056C231.669 147.272 231.633 147.467 231.602 147.632C231.58 147.72 231.568 147.8 231.546 147.876C231.523 147.953 231.501 148.022 231.476 148.083C231.439 148.194 231.36 148.286 231.256 148.339Z" fill="#FF7751"/>
<path d="M229.976 158.604C229.926 158.643 229.866 158.667 229.804 158.674C229.741 158.682 229.677 158.672 229.62 158.646C229.411 158.569 229.225 158.442 229.078 158.276C228.857 158.036 228.688 157.753 228.582 157.444C228.447 157.058 228.398 156.647 228.441 156.239C228.483 155.832 228.616 155.44 228.829 155.09C228.996 154.81 229.22 154.568 229.486 154.379C229.664 154.246 229.873 154.161 230.093 154.129C230.154 154.116 230.219 154.119 230.279 154.139C230.339 154.159 230.392 154.195 230.433 154.243C230.55 154.421 230.43 154.712 230.295 155.079C229.925 155.921 229.827 156.858 230.014 157.758C230.071 158.145 230.128 158.455 229.976 158.604Z" fill="#FF7751"/>
<path d="M234.001 167.614C233.967 167.661 233.921 167.699 233.869 167.725C233.817 167.75 233.759 167.762 233.701 167.76C233.62 167.764 233.538 167.754 233.46 167.73C233.362 167.704 233.267 167.664 233.179 167.613C232.952 167.482 232.755 167.305 232.601 167.093C232.51 166.969 232.431 166.837 232.367 166.698C232.224 166.4 232.145 166.075 232.137 165.744C232.131 165.591 232.14 165.437 232.165 165.285C232.206 165.027 232.3 164.779 232.442 164.559C232.497 164.473 232.563 164.395 232.639 164.327C232.697 164.27 232.765 164.224 232.839 164.191C232.89 164.162 232.947 164.147 233.005 164.146C233.063 164.144 233.121 164.158 233.173 164.184C233.266 164.247 233.336 164.34 233.369 164.449C233.389 164.506 233.406 164.568 233.426 164.638C233.444 164.706 233.452 164.775 233.471 164.852C233.496 164.99 233.525 165.153 233.558 165.335C233.579 165.421 233.587 165.509 233.612 165.6C233.631 165.69 233.651 165.783 233.672 165.879C233.697 165.973 233.722 166.065 233.745 166.154C233.765 166.246 233.798 166.328 233.818 166.414C233.872 166.591 233.921 166.75 233.962 166.884C233.98 166.961 234.004 167.026 234.019 167.095C234.033 167.166 234.047 167.229 234.055 167.289C234.075 167.401 234.055 167.515 234.001 167.614Z" fill="#FF7751"/>
<path d="M239.157 173.862C239.103 173.966 239.016 174.05 238.91 174.1C238.803 174.151 238.683 174.164 238.568 174.14C238.389 174.106 238.219 174.036 238.067 173.936C237.915 173.836 237.785 173.707 237.683 173.555C237.582 173.404 237.511 173.235 237.476 173.056C237.441 172.878 237.441 172.694 237.478 172.516C237.498 172.4 237.556 172.294 237.643 172.215C237.73 172.136 237.841 172.087 237.958 172.077C238.165 172.086 238.363 172.162 238.524 172.292C238.854 172.52 239.086 172.865 239.172 173.257C239.231 173.455 239.226 173.667 239.157 173.862Z" fill="#FF7751"/>
<path d="M242.309 145.102C242.585 144.842 242.947 144.691 243.326 144.679C243.705 144.666 244.076 144.792 244.369 145.033C244.647 145.292 244.826 145.639 244.878 146.015C244.929 146.391 244.849 146.773 244.65 147.097C243.431 148.999 240.838 146.603 242.309 145.102Z" fill="#FF7751"/>
<path d="M245.403 155.302C245.424 155.128 245.479 154.96 245.565 154.807C245.652 154.655 245.767 154.521 245.906 154.413C246.044 154.305 246.202 154.226 246.371 154.179C246.541 154.133 246.717 154.12 246.891 154.142C247.164 154.206 247.415 154.339 247.619 154.529C247.823 154.72 247.974 154.961 248.056 155.228C248.158 155.459 248.198 155.713 248.172 155.964C248.147 156.216 248.056 156.456 247.91 156.662C246.962 157.814 245.345 156.264 245.403 155.302Z" fill="#FF7751"/>
<path d="M247.398 163.938C247.411 163.558 247.542 163.192 247.774 162.89C247.973 162.566 248.291 162.334 248.66 162.24C248.926 162.211 249.193 162.279 249.413 162.432C249.633 162.584 249.79 162.811 249.856 163.07C249.91 163.332 249.892 163.604 249.802 163.856C249.713 164.108 249.556 164.331 249.349 164.501C248.625 165.115 247.411 165.163 247.398 163.938Z" fill="#FF7751"/>
<path d="M250.413 169.328C250.47 169.143 250.577 168.979 250.723 168.853C250.869 168.728 251.047 168.646 251.238 168.617C251.429 168.596 251.622 168.639 251.786 168.74C251.95 168.841 252.076 168.993 252.144 169.173C252.181 169.301 252.191 169.435 252.173 169.567C252.155 169.699 252.109 169.826 252.04 169.94C251.825 170.308 251.251 170.65 250.81 170.515C250.374 170.382 250.294 169.715 250.413 169.328Z" fill="#FF7751"/>
<path d="M257.943 150.45C257.937 150.502 257.886 150.546 257.792 150.582C257.661 150.627 257.524 150.653 257.385 150.659C256.889 150.683 256.393 150.629 255.914 150.499C255.195 150.315 254.508 150.02 253.879 149.626C253.503 149.393 253.148 149.129 252.817 148.836C252.099 148.204 251.506 147.443 251.069 146.592C250.866 146.2 250.697 145.791 250.564 145.37C250.335 144.663 250.218 143.926 250.216 143.183C250.208 142.688 250.277 142.194 250.421 141.719C250.461 141.586 250.52 141.46 250.596 141.344C250.654 141.262 250.709 141.223 250.761 141.23C250.813 141.236 250.859 141.288 250.9 141.378C250.947 141.5 250.984 141.627 251.009 141.756C251.077 142.077 251.155 142.53 251.28 143.068C251.422 143.692 251.62 144.301 251.872 144.888C252.018 145.23 252.185 145.562 252.371 145.883C252.765 146.57 253.254 147.198 253.824 147.749C254.09 148.008 254.371 148.251 254.667 148.477C255.175 148.864 255.717 149.206 256.287 149.497C256.779 149.75 257.199 149.937 257.494 150.081C257.613 150.137 257.727 150.204 257.834 150.28C257.911 150.341 257.95 150.399 257.943 150.45Z" fill="#FF7751"/>
<path d="M260.67 130.343C260.961 129.949 261.447 129.629 261.932 129.736C262.468 129.854 262.769 130.471 262.687 131.003C262.563 131.536 262.262 132.01 261.832 132.348C261.649 132.527 261.434 132.669 261.197 132.767C259.652 133.326 260.234 130.933 260.67 130.343Z" fill="#FF7751"/>
<path d="M260.275 135.782C260.323 135.983 260.199 136.213 259.913 136.383C259.543 136.572 259.122 136.638 258.711 136.573C258.301 136.507 257.921 136.313 257.628 136.018C257.532 135.936 257.465 135.826 257.437 135.703C257.409 135.58 257.421 135.451 257.471 135.335C257.543 135.245 257.634 135.173 257.737 135.123C257.841 135.072 257.954 135.046 258.069 135.045C258.659 134.998 259.251 135.093 259.798 135.32C259.907 135.357 260.006 135.417 260.089 135.497C260.171 135.577 260.235 135.675 260.275 135.782Z" fill="#FF7751"/>
<path d="M256.897 167.613C256.79 167.427 257.452 166.863 258.527 166.055C259.588 165.237 261.073 164.161 262.167 162.602C262.677 161.891 263.049 161.091 263.263 160.243C263.425 159.551 263.458 158.835 263.361 158.131C263.32 157.856 263.262 157.583 263.186 157.316C263.116 157.077 263.042 156.873 262.98 156.7C262.853 156.358 262.773 156.146 262.855 156.071C262.925 156.004 263.157 156.083 263.465 156.367C263.649 156.543 263.812 156.74 263.95 156.954C264.133 157.24 264.283 157.545 264.397 157.865C264.687 158.71 264.768 159.613 264.634 160.497C264.46 161.569 264.04 162.585 263.407 163.468C262.799 164.322 262.057 165.072 261.209 165.69C260.542 166.18 259.832 166.608 259.086 166.967C257.827 167.565 256.998 167.789 256.897 167.613Z" fill="#FF7751"/>
<path d="M265.712 153.27C265.816 153.26 265.923 153.362 266.029 153.561C266.091 153.678 266.141 153.802 266.178 153.929C266.231 154.093 266.272 154.26 266.301 154.43C266.38 154.868 266.414 155.313 266.404 155.758C266.395 156.008 266.386 156.273 266.349 156.543C266.321 156.815 266.27 157.094 266.213 157.378C266.147 157.661 266.078 157.936 265.992 158.195C265.913 158.457 265.811 158.701 265.716 158.933C265.541 159.342 265.326 159.733 265.073 160.1C264.976 160.242 264.87 160.377 264.754 160.504C264.667 160.605 264.571 160.697 264.466 160.778C264.287 160.916 264.147 160.964 264.057 160.912C263.966 160.86 263.933 160.713 263.948 160.498C263.956 160.391 263.975 160.266 263.999 160.123C264.024 159.981 264.064 159.827 264.101 159.654C264.185 159.32 264.286 158.921 264.398 158.479C264.449 158.259 264.513 158.033 264.565 157.794C264.62 157.556 264.676 157.31 264.734 157.059C264.786 156.805 264.836 156.558 264.884 156.319C264.936 156.08 264.971 155.847 265.016 155.626C265.097 155.177 265.17 154.773 265.232 154.433C265.269 154.261 265.297 154.104 265.333 153.964C265.37 153.825 265.405 153.703 265.442 153.602C265.517 153.4 265.608 153.28 265.712 153.27Z" fill="#FF7751"/>
<path fill-rule="evenodd" clip-rule="evenodd" d="M347.559 384.775C342.242 379.495 328.315 385.387 328.315 385.387C328.545 390.54 309.842 395.854 309.071 413.306C309.014 414.603 309.789 415.765 310.934 415.94C317.967 417.018 328.182 415.96 337.931 412.125C339.542 411.492 340.649 409.809 340.724 407.891C340.795 406.262 340.971 404.638 341.25 403.032C341.435 401.932 342.313 401.107 343.306 401.182C344.502 401.273 345.322 402.509 345.104 403.792C344.906 404.956 344.774 406.011 344.698 406.975C344.625 407.881 345.473 408.511 346.188 408.084C347.141 407.514 348.076 406.912 348.994 406.278C349.546 401.17 349.853 400.203 350.405 397.788C350.958 395.372 352.876 390.055 347.559 384.775Z" fill="#04294F"/>
<path fill-rule="evenodd" clip-rule="evenodd" d="M415.256 277.084C416.532 276.563 417.991 276.041 419.244 276.617C420.393 277.144 420.996 278.507 420.904 279.767C420.813 281.026 420.143 282.179 419.319 283.137C416.431 286.498 411.735 287.783 407.303 287.797C405.968 287.801 404.592 287.696 403.395 287.104C402.198 286.513 401.212 285.339 401.186 284.005C401.133 281.294 404.792 281.358 406.624 280.61C409.501 279.434 412.378 278.259 415.256 277.084Z" fill="#FFAF51"/>
<path fill-rule="evenodd" clip-rule="evenodd" d="M407.987 272.097C409.074 271.477 410.333 270.888 411.535 271.238C412.843 271.618 413.631 273.062 413.607 274.423C413.584 275.785 412.91 277.054 412.102 278.15C410.566 280.225 408.519 281.868 406.16 282.919C404.899 283.478 403.52 283.864 402.149 283.712C400.779 283.559 399.422 282.787 398.848 281.534C397.802 279.256 399.718 278.121 401.188 276.924C403.317 275.129 405.591 273.515 407.987 272.097Z" fill="#FFAF51"/>
<path fill-rule="evenodd" clip-rule="evenodd" d="M347.37 389.374C341.471 389.374 335.047 389.374 328.096 389.374C329.895 358.002 329.895 326.553 328.096 295.181C334.289 294.801 340.734 295.597 347.37 295.181C345.571 326.553 345.571 358.002 347.37 389.374Z" fill="#FFAF51"/>
<path fill-rule="evenodd" clip-rule="evenodd" d="M346.987 381.9C346.987 384.998 349.832 388.428 347.745 390.499C341.371 396.299 327.247 402.32 317.373 402.162C316.35 402.145 315.632 401.032 315.942 399.935C317.974 392.754 328.096 389.374 328.315 385.387L346.987 381.9Z" fill="#FFAF51"/>
<path fill-rule="evenodd" clip-rule="evenodd" d="M392.146 400.962C386.829 395.682 372.902 401.574 372.902 401.574C373.132 406.727 354.429 412.041 353.658 429.493C353.601 430.79 354.376 431.952 355.521 432.127C362.554 433.205 372.769 432.147 382.518 428.312C384.129 427.679 385.235 425.996 385.311 424.078C385.382 422.449 385.558 420.825 385.837 419.219C386.022 418.119 386.899 417.294 387.892 417.369C389.089 417.46 389.909 418.696 389.691 419.979C389.493 421.143 389.361 422.198 389.284 423.162C389.212 424.068 390.06 424.698 390.775 424.271C391.728 423.701 392.663 423.099 393.58 422.465C394.133 417.357 394.44 416.39 394.992 413.974C395.544 411.559 397.463 406.242 392.146 400.962Z" fill="#04294F"/>
<path fill-rule="evenodd" clip-rule="evenodd" d="M391.957 405.56C386.058 405.56 379.633 405.56 372.683 405.56C374.482 374.189 374.482 342.74 372.683 311.368C378.876 310.988 385.321 311.783 391.957 311.368C390.158 342.74 390.158 374.189 391.957 405.56Z" fill="#FFAF51"/>
<path fill-rule="evenodd" clip-rule="evenodd" d="M391.574 398.087C391.574 401.185 394.419 404.615 392.332 406.686C385.958 412.486 371.834 418.507 361.96 418.349C360.937 418.332 360.219 417.219 360.529 416.122C362.56 408.941 372.683 405.561 372.902 401.574L391.574 398.087Z" fill="#FFAF51"/>
<path fill-rule="evenodd" clip-rule="evenodd" d="M327.601 261.554C326.496 272.46 324.228 281.153 322.846 287.641C321.464 294.13 318.966 300.99 328.719 307.739C338.597 314.573 364.433 320.546 384.052 316.819C403.67 313.091 404.361 305.36 402.012 299.7C399.664 294.04 394.345 264.634 394.345 264.634L327.601 261.554Z" fill="#04294F"/>
<path fill-rule="evenodd" clip-rule="evenodd" d="M321.621 256.644C321.879 265.738 321.188 272.674 329.34 281.924C337.491 291.173 348.959 280.01 348.959 280.01C348.959 280.01 360.21 290.959 371.138 291.29C382.618 291.29 403.809 284.928 400.542 256.077C376.122 265.072 321.621 256.644 321.621 256.644Z" fill="#00AEE0"/>
<path fill-rule="evenodd" clip-rule="evenodd" d="M397.453 273.746C377.559 289.485 340.669 278.507 331.342 273.746C322.017 268.982 321.603 262.355 321.503 251.588C321.406 240.819 320.153 203.145 320.153 190.292C320.153 170.519 322.149 161.578 339.336 160.445C339.647 160.425 339.962 160.407 340.282 160.389C344.794 160.172 350.311 160.46 357.04 161.196C368.193 162.42 376.285 164.282 382.157 167.017C383.199 167.5 384.214 168.038 385.198 168.63C397.658 176.155 397.658 189.166 397.658 211.001C397.658 235.852 405.327 267.533 397.453 273.746Z" fill="#00AEE0"/>
<path fill-rule="evenodd" clip-rule="evenodd" d="M382.157 167.017C382.142 167.046 382.127 167.075 382.11 167.105C380.903 169.281 378.998 170.91 377.174 172.541C369.307 179.599 362.278 187.538 356.227 196.201C355.484 197.26 354.757 198.329 354.045 199.407C353.713 199.906 353.387 200.408 353.065 200.912C352.31 202.089 351.265 203.432 349.929 203.218C348.866 203.045 348.203 201.945 347.68 200.95C346.562 198.815 345.443 196.667 344.383 194.49C342.146 189.896 340.176 185.173 339.04 180.165C337.551 173.623 337.625 166.445 340.282 160.389C344.794 160.172 350.311 160.46 357.04 161.196C368.193 162.42 376.285 164.282 382.157 167.017Z" fill="white"/>
<path fill-rule="evenodd" clip-rule="evenodd" d="M384.15 276.807C385.55 284.33 391.404 291.142 398.844 293.218C404.201 294.713 409.996 294.204 415.313 292.795C417.973 292.09 429.132 289.192 427.301 284.73C426.757 283.403 425.041 283.111 423.609 283.014C417.928 282.627 411.871 282.319 406.914 285.121C405.779 277.056 401.619 269.654 394.428 265.531C392.16 264.23 389.087 263.018 386.81 264.898C385.313 266.134 384.567 268.063 384.179 269.965C383.727 272.222 383.717 274.546 384.15 276.807Z" fill="#FFAF51"/>
<path d="M403.816 276.683C396.826 275.126 391.217 271.517 386.851 266.061C386.618 265.77 386.484 265.412 386.47 265.039C386.456 264.666 386.561 264.299 386.772 263.991C389.169 260.502 392.508 257.038 396.319 253.084C403.197 245.949 412.616 236.178 412.616 228.395C412.616 227.286 411.957 221.119 398.935 208.602C390.36 200.36 380.179 193.027 374.873 189.389L387.426 170.133C394.6 175.051 405.162 183.65 414.404 192.534C428.215 205.81 434.929 217.54 434.929 228.395C434.929 245.169 421.902 258.684 412.39 268.551C409.766 271.273 407.066 274.074 405.593 276.02C405.391 276.289 405.117 276.494 404.802 276.612C404.487 276.729 404.145 276.754 403.816 276.683Z" fill="#00AEE0"/>
<path fill-rule="evenodd" clip-rule="evenodd" d="M345.194 165.097V156.261C338.009 155.295 321.844 146.735 321.844 132.792C321.844 118.848 320.187 86.6738 320.187 86.6738L371.859 86.6815C371.868 86.2051 382.635 107.804 370.852 144.768C369.301 149.634 370.155 157.244 370.234 167.165C370.269 171.418 363.431 174.793 355.97 173.834C349.057 172.945 345.194 168.962 345.194 165.097Z" fill="#FFAF51"/>
<path fill-rule="evenodd" clip-rule="evenodd" d="M311.901 83.3221C305.541 93.4463 310.731 100.606 316.543 103.439C320.484 105.36 325.208 104.797 329.364 103.398C333.52 102 337.39 99.8282 341.581 98.5368C345.772 97.2455 350.561 96.9313 354.343 99.1494C358.398 101.528 360.444 106.317 361.137 110.965C361.863 115.835 361.4 117.296 362.057 122.179C362.085 122.423 362.166 122.658 362.294 122.867C362.422 123.077 362.594 123.256 362.798 123.392C364.004 124.157 365.206 122.585 365.435 121.257C365.875 118.705 365.201 116.052 365.691 113.509C366.249 110.615 369.467 107.73 372.078 110.087C372.89 110.849 373.387 111.886 373.472 112.995C374.285 121.702 373.374 130.483 370.79 138.837C369.905 141.695 368.315 145.993 369.312 148.391C369.363 148.51 369.448 148.611 369.556 148.683C369.663 148.756 369.79 148.795 369.919 148.798C370.049 148.801 370.177 148.766 370.287 148.698C370.398 148.631 370.487 148.533 370.543 148.416C373.09 143.147 375.313 137.594 377.905 132.364C381.487 125.135 385.096 117.834 387.019 110C388.943 102.165 389.068 93.6437 385.799 86.2677C381.534 76.6407 371.899 70.1244 361.677 67.5724C355.696 66.0791 349.327 65.791 343.387 67.4411C338.282 68.8592 333.573 71.7703 330.271 75.9391C329.694 76.6684 329.161 77.837 328.187 78.0904C327.234 78.3382 325.896 77.6386 324.928 77.5073C322.573 77.1967 320.178 77.4894 317.967 78.3581C315.468 79.3252 313.343 81.0643 311.901 83.3221Z" fill="#FF7751"/>
<path fill-rule="evenodd" clip-rule="evenodd" d="M410.27 72.527C417.753 73.9363 424.166 79.5709 427.029 86.6213C429.892 93.6718 429.317 101.915 425.998 108.763C422.68 115.611 416.766 121.061 409.897 124.344C405.836 126.285 401.34 127.512 396.86 127.352C396.719 127.346 396.583 127.295 396.472 127.208C396.361 127.12 396.28 127 396.241 126.865C396.202 126.729 396.206 126.584 396.253 126.451C396.3 126.318 396.387 126.203 396.503 126.122C401.851 122.351 407.187 118.186 410.007 112.405C410.04 112.334 410.05 112.254 410.034 112.178C410.018 112.101 409.978 112.031 409.919 111.98C409.861 111.928 409.787 111.896 409.709 111.89C409.63 111.884 409.552 111.903 409.486 111.945C405.573 114.429 401.341 116.817 396.856 117.065C396.688 117.076 396.52 117.035 396.376 116.946C396.232 116.857 396.119 116.726 396.053 116.57C395.988 116.415 395.972 116.242 396.009 116.077C396.046 115.913 396.134 115.763 396.26 115.651C399.062 113.13 401.665 110.397 404.047 107.476C406.108 104.948 408.091 101.984 407.873 98.7301C407.615 94.8955 404.19 91.8227 400.453 90.9147C396.716 90.0068 392.773 90.8551 389.139 92.1139C387.719 92.6057 386.036 93.1375 384.883 91.9316C384.583 91.6081 384.373 91.2113 384.275 90.781C383.975 89.5415 384.387 88.3539 384.858 87.235C388.828 77.8164 399.872 70.5687 410.27 72.527Z" fill="#FF7751"/>
<path fill-rule="evenodd" clip-rule="evenodd" d="M387.393 82.8896C386.84 82.0357 386.2 81.1965 385.312 80.6986C384.425 80.2008 383.235 80.1211 382.433 80.7465C381.4 81.5512 381.395 83.096 381.61 84.3866C382.175 87.7724 383.586 90.9503 384.983 94.0858C385.269 94.8328 385.675 95.5279 386.185 96.1437C389.18 99.3762 390.191 94.264 390.24 92.2277C390.32 88.926 389.173 85.6403 387.393 82.8896Z" fill="#04294F"/>
<path d="M368.628 115.271C368.671 114.9 368.782 114.54 368.955 114.209C369.018 114.067 369.123 113.947 369.255 113.865C369.387 113.782 369.541 113.741 369.696 113.747C370.032 113.806 370.28 114.201 370.457 114.596C370.767 115.298 370.965 116.044 371.045 116.807C371.129 117.402 371.085 118.007 370.917 118.584C370.531 119.722 369.482 119.874 368.916 118.88C368.408 117.988 368.469 116.294 368.628 115.271Z" fill="#04294F"/>
<path d="M357.342 153.473C357.411 153.594 357.344 153.782 357.157 154.022C357.045 154.163 356.92 154.293 356.783 154.41C356.609 154.565 356.425 154.709 356.232 154.84C355.734 155.18 355.203 155.471 354.648 155.707C354.333 155.835 354.002 155.972 353.647 156.079C353.295 156.197 352.922 156.29 352.539 156.38C352.154 156.457 351.776 156.527 351.407 156.566C351.04 156.616 350.681 156.629 350.342 156.642C349.738 156.658 349.135 156.614 348.54 156.511C348.31 156.472 348.083 156.418 347.86 156.349C347.687 156.3 347.519 156.233 347.359 156.151C347.089 156.01 346.95 155.867 346.963 155.729C346.976 155.59 347.138 155.469 347.412 155.368C347.549 155.319 347.714 155.272 347.904 155.223C348.093 155.174 348.307 155.137 348.541 155.086C349.003 155.003 349.552 154.904 350.163 154.794C350.464 154.733 350.78 154.685 351.105 154.615C351.43 154.549 351.766 154.48 352.111 154.41C352.453 154.331 352.788 154.254 353.111 154.179C353.435 154.108 353.743 154.02 354.042 153.951C354.643 153.798 355.184 153.66 355.639 153.544C355.873 153.493 356.083 153.438 356.275 153.403C356.469 153.37 356.638 153.344 356.783 153.332C357.074 153.31 357.272 153.353 357.342 153.473Z" fill="#FF7751"/>
<path d="M420.392 283.357C420.381 283.496 420.062 283.606 419.508 283.694C419.231 283.749 418.895 283.785 418.507 283.843C418.314 283.868 418.108 283.896 417.888 283.925C417.671 283.956 417.441 283.989 417.199 284.024C416.718 284.098 416.194 284.182 415.635 284.286C415.356 284.335 415.069 284.401 414.773 284.457C414.479 284.525 414.177 284.594 413.866 284.665C413.25 284.822 412.605 284.988 411.949 285.201C411.29 285.403 410.618 285.644 409.94 285.912C409.601 286.047 409.267 286.183 408.943 286.33L408.743 286.418C408.656 286.455 408.573 286.496 408.49 286.537C408.325 286.615 408.16 286.694 407.997 286.772L407.03 287.23L406.911 287.286C406.891 287.248 406.876 287.208 406.865 287.167L406.78 286.914C406.725 286.746 406.669 286.578 406.614 286.412C406.504 286.082 406.396 285.755 406.289 285.431C406.249 285.305 406.208 285.18 406.167 285.055L406.092 284.811C406.043 284.649 405.994 284.49 405.946 284.332C405.563 283.067 405.245 281.919 405.005 280.946C404.526 278.999 404.361 277.749 404.625 277.659C404.888 277.568 405.529 278.653 406.354 280.481C406.766 281.395 407.223 282.495 407.703 283.726C407.762 283.88 407.822 284.036 407.883 284.194L407.974 284.432L408.015 284.538L408.02 284.543C408.035 284.552 408.043 284.556 408.051 284.55C408.054 284.545 408.058 284.54 408.061 284.535L408.063 284.53C408.063 284.53 408.064 284.528 408.061 284.529L408.058 284.529L408.115 284.503C408.465 284.337 408.827 284.185 409.196 284.038C409.914 283.753 410.648 283.508 411.394 283.306C412.087 283.115 412.789 282.961 413.499 282.844C413.838 282.792 414.169 282.747 414.491 282.707C414.815 282.678 415.128 282.643 415.432 282.627C416.04 282.59 416.607 282.585 417.123 282.601C417.38 282.616 417.625 282.63 417.858 282.643C418.089 282.665 418.307 282.69 418.51 282.716C418.858 282.762 419.203 282.826 419.544 282.91C420.106 283.065 420.404 283.219 420.392 283.357Z" fill="#FF7751"/>
<path d="M410.179 278.728C410.398 278.894 410.436 279.273 410.243 279.744C409.965 280.324 409.534 280.817 408.997 281.171C408.46 281.525 407.836 281.726 407.193 281.753C406.684 281.744 406.351 281.56 406.284 281.293C406.215 281.021 406.402 280.719 406.7 280.415C407.441 279.733 408.288 279.176 409.208 278.764C409.604 278.61 409.956 278.557 410.179 278.728Z" fill="#FF7751"/>
<path d="M414.352 288.937C414.766 288.99 415.008 289.774 414.892 290.688C414.776 291.603 414.345 292.302 413.931 292.249C413.516 292.197 413.275 291.413 413.391 290.498C413.507 289.583 413.938 288.884 414.352 288.937Z" fill="#FF7751"/>
<path d="M417.072 288.241C417.49 288.241 417.828 288.859 417.828 289.622C417.828 290.384 417.49 291.002 417.072 291.002C416.654 291.002 416.315 290.384 416.315 289.622C416.315 288.859 416.654 288.241 417.072 288.241Z" fill="#FF7751"/>
<path fill-rule="evenodd" clip-rule="evenodd" d="M354.301 181.254C354.049 181.392 353.788 181.511 353.52 181.612C353.525 181.665 353.531 181.72 353.534 181.776C353.581 182.436 354.136 185.64 354.257 186.291C355.707 194.103 355.918 193.816 356.227 196.201C355.484 197.26 354.757 198.329 354.045 199.407C353.713 199.906 353.387 200.408 353.065 200.912C352.31 202.089 351.265 203.432 349.929 203.218C348.866 203.045 348.203 201.945 347.68 200.95C346.562 198.815 345.443 196.667 344.383 194.49C345.328 189.893 346.466 185.339 347.795 180.828C347.803 180.796 347.812 180.764 347.824 180.732C347.85 180.644 347.877 180.556 347.903 180.465C347.444 179.948 347.062 179.368 346.767 178.743C346.532 178.255 346.398 177.725 346.373 177.185C346.348 176.645 346.432 176.105 346.62 175.598C346.85 175.097 347.204 174.663 347.647 174.336C348.091 174.008 348.61 173.799 349.157 173.726C350.179 173.576 351.191 173.832 352.181 174.093C353.209 174.363 354.262 174.65 355.12 175.34C355.583 175.704 355.948 176.179 356.179 176.721C356.411 177.263 356.502 177.854 356.444 178.44C356.271 179.711 355.314 180.696 354.301 181.254Z" fill="#04294F"/>
<path d="M352.844 71.6515C352.824 71.7893 352.521 71.8896 352.002 71.9541C351.744 71.9804 351.43 72.0126 351.065 72.0499C350.702 72.088 350.293 72.1009 349.842 72.1585C349.617 72.1797 349.382 72.202 349.136 72.2253C348.892 72.2477 348.638 72.2907 348.376 72.3211C347.851 72.3741 347.297 72.4786 346.713 72.5678C346.422 72.6138 346.127 72.6855 345.823 72.7421C345.672 72.7716 345.519 72.8015 345.364 72.8317C345.211 72.8693 345.057 72.9072 344.901 72.9455C344.274 73.0823 343.639 73.2733 342.984 73.4546C342.339 73.6689 341.705 73.8646 341.108 74.1002C340.957 74.1552 340.808 74.2098 340.66 74.2638C340.515 74.3248 340.371 74.3853 340.229 74.4452C339.946 74.5673 339.661 74.6721 339.393 74.7964C338.859 75.0475 338.34 75.2697 337.875 75.5181C337.64 75.6389 337.406 75.7444 337.19 75.862C336.974 75.9794 336.766 76.0919 336.568 76.1995C336.161 76.4029 335.814 76.6201 335.492 76.7907C335.168 76.9632 334.889 77.1118 334.66 77.2333C334.193 77.4692 333.885 77.5548 333.793 77.4511C333.7 77.3474 333.832 77.063 334.159 76.6298C334.241 76.5215 334.334 76.4042 334.44 76.2778C334.548 76.1547 334.674 76.0302 334.808 75.8946C335.109 75.5847 335.429 75.293 335.765 75.0211C335.953 74.8709 336.15 74.7136 336.355 74.5494C336.563 74.3881 336.792 74.2403 337.025 74.0785C337.487 73.748 338.014 73.4501 338.568 73.1322C338.845 72.9745 339.143 72.8387 339.442 72.6882C339.592 72.615 339.744 72.5411 339.898 72.4664C340.055 72.4005 340.214 72.3339 340.374 72.2667C341.011 71.986 341.695 71.7579 342.396 71.5265C343.107 71.3281 343.802 71.1365 344.487 71.0146C344.658 70.9811 344.827 70.9478 344.994 70.9148C345.163 70.8913 345.331 70.8681 345.496 70.845C345.828 70.8035 346.151 70.7504 346.47 70.7266C347.107 70.6817 347.711 70.6355 348.279 70.6525C348.562 70.6572 348.835 70.6522 349.097 70.6704C349.359 70.6923 349.61 70.7132 349.85 70.7332C350.281 70.7717 350.709 70.8357 351.132 70.925C351.319 70.9629 351.493 70.9962 351.651 71.0382C351.809 71.0841 351.953 71.1293 352.081 71.1736C352.595 71.351 352.863 71.5137 352.844 71.6515Z" fill="#FFAF51"/>
<path d="M314.192 96.4381C314.16 96.4625 314.122 96.479 314.082 96.4864C314.042 96.4937 314.001 96.4917 313.962 96.4805C313.83 96.4522 313.704 96.4005 313.59 96.3278C313.199 96.0775 312.857 95.7577 312.582 95.3842C312.162 94.835 311.835 94.2203 311.615 93.5647C311.481 93.175 311.382 92.7741 311.319 92.3669C311.179 91.4843 311.209 90.583 311.408 89.7119C311.499 89.3098 311.625 88.9165 311.784 88.5366C312.048 87.8973 312.415 87.306 312.872 86.7863C313.172 86.4322 313.534 86.136 313.941 85.9125C314.059 85.8476 314.188 85.8045 314.322 85.7852C314.362 85.7766 314.403 85.7774 314.442 85.7874C314.482 85.7974 314.519 85.8164 314.549 85.8429C314.575 85.8745 314.594 85.9112 314.604 85.9505C314.615 85.9898 314.617 86.0308 314.611 86.071C314.597 86.1966 314.567 86.3199 314.523 86.4384C314.423 86.7256 314.257 87.1028 314.072 87.5554C313.859 88.0718 313.682 88.6022 313.541 89.1429C313.461 89.4539 313.397 89.7688 313.348 90.0864C313.243 90.7602 313.22 91.4443 313.28 92.1236C313.307 92.4437 313.349 92.7622 313.409 93.0779C313.512 93.6268 313.654 94.1679 313.832 94.6975C313.985 95.1614 314.125 95.549 314.206 95.8423C314.242 95.9634 314.263 96.0885 314.269 96.2147C314.273 96.2552 314.268 96.2961 314.255 96.3346C314.241 96.373 314.22 96.4083 314.192 96.4381Z" fill="#FFAF51"/>
<path d="M376.375 119.542C376.236 119.534 376.11 119.379 376.001 119.111C375.94 118.953 375.887 118.792 375.843 118.628C375.792 118.442 375.749 118.231 375.697 117.999C375.605 117.535 375.508 116.989 375.411 116.387C375.313 115.787 375.205 115.128 375.092 114.436C374.974 113.745 374.861 113.086 374.759 112.487C374.654 111.886 374.568 111.338 374.504 110.87C374.478 110.634 374.449 110.42 374.437 110.227C374.426 110.058 374.423 109.889 374.429 109.72C374.445 109.431 374.513 109.243 374.642 109.19C374.771 109.138 374.948 109.225 375.16 109.435C375.285 109.559 375.397 109.695 375.496 109.84C375.628 110.025 375.749 110.218 375.857 110.417C376.137 110.931 376.372 111.469 376.559 112.024C376.661 112.337 376.768 112.667 376.852 113.016C376.942 113.364 377.014 113.729 377.082 114.103C377.14 114.479 377.191 114.848 377.218 115.206C377.253 115.563 377.259 115.91 377.264 116.239C377.268 116.825 377.221 117.41 377.124 117.987C377.086 118.211 377.035 118.432 376.971 118.65C376.925 118.819 376.862 118.984 376.785 119.142C376.653 119.409 376.514 119.55 376.375 119.542Z" fill="#FFAF51"/>
<path d="M410.446 108.911C410.318 108.854 410.256 108.655 410.248 108.358C410.246 108.21 410.254 108.035 410.261 107.835C410.27 107.635 410.301 107.418 410.314 107.174C410.335 106.933 410.364 106.674 410.38 106.394C410.41 106.117 410.416 105.819 410.438 105.51C410.449 105.356 410.445 105.196 410.453 105.035C410.461 104.873 410.464 104.708 410.46 104.54C410.467 104.205 410.448 103.859 410.441 103.504C410.413 103.15 410.399 102.803 410.359 102.47C410.347 102.303 410.328 102.139 410.304 101.979C410.281 101.819 410.268 101.66 410.243 101.507C410.191 101.202 410.156 100.906 410.099 100.634C410.056 100.356 410.002 100.101 409.958 99.8627C409.921 99.6213 409.869 99.4081 409.841 99.2105C409.814 99.0118 409.789 98.839 409.777 98.6914C409.756 98.3943 409.799 98.1908 409.92 98.1219C410.041 98.053 410.23 98.1264 410.474 98.3301C410.619 98.4505 410.75 98.5871 410.865 98.7372C411.021 98.9272 411.161 99.1292 411.285 99.3413C411.441 99.5949 411.578 99.8593 411.695 100.132C411.834 100.445 411.954 100.765 412.055 101.092C412.111 101.264 412.151 101.444 412.198 101.628C412.247 101.815 412.287 102.004 412.316 102.195C412.462 102.996 412.502 103.813 412.434 104.624C412.424 104.817 412.403 105.01 412.372 105.2C412.343 105.387 412.321 105.571 412.282 105.748C412.214 106.083 412.125 106.413 412.017 106.737C411.926 107.021 411.816 107.297 411.686 107.564C411.583 107.788 411.463 108.002 411.326 108.207C411.227 108.367 411.11 108.516 410.977 108.65C410.754 108.876 410.573 108.968 410.446 108.911Z" fill="#FFAF51"/>
<path d="M424.418 102.148C424.554 102.176 424.618 102.49 424.614 103.044C424.613 103.378 424.586 103.712 424.533 104.042C424.477 104.48 424.397 104.914 424.293 105.343C424.234 105.581 424.172 105.831 424.107 106.091C424.039 106.351 423.947 106.613 423.86 106.889C423.693 107.443 423.457 108.014 423.212 108.617C423.088 108.919 422.936 109.216 422.792 109.525C422.718 109.679 422.644 109.834 422.568 109.991C422.484 110.143 422.4 110.297 422.315 110.453C421.985 111.081 421.588 111.7 421.181 112.332C420.746 112.947 420.319 113.545 419.859 114.086C419.747 114.223 419.635 114.358 419.525 114.493C419.407 114.621 419.291 114.749 419.176 114.875C418.943 115.124 418.724 115.375 418.49 115.602C418.022 116.055 417.58 116.487 417.128 116.849C416.904 117.033 416.695 117.216 416.479 117.376C416.262 117.533 416.054 117.684 415.854 117.828C415.495 118.084 415.122 118.321 414.736 118.536C414.45 118.708 414.15 118.858 413.84 118.983C413.327 119.194 413.012 119.252 412.935 119.136C412.858 119.02 413.026 118.741 413.386 118.343C413.568 118.15 413.791 117.915 414.05 117.641C414.308 117.369 414.617 117.084 414.933 116.74C415.094 116.574 415.264 116.4 415.44 116.218C415.617 116.037 415.788 115.836 415.974 115.639C416.351 115.248 416.72 114.801 417.122 114.345C417.322 114.117 417.51 113.867 417.713 113.623C417.813 113.5 417.915 113.376 418.018 113.251C418.115 113.121 418.213 112.99 418.312 112.858C418.72 112.339 419.104 111.774 419.509 111.204C419.887 110.616 420.268 110.049 420.597 109.477C420.683 109.336 420.768 109.196 420.852 109.058C420.93 108.916 421.007 108.775 421.083 108.636C421.234 108.357 421.396 108.09 421.534 107.819C421.807 107.276 422.084 106.767 422.306 106.272C422.42 106.025 422.542 105.792 422.644 105.561C422.747 105.329 422.845 105.107 422.939 104.895C423.141 104.474 423.29 104.081 423.446 103.741C423.604 103.398 423.739 103.104 423.85 102.862C424.085 102.38 424.281 102.121 424.418 102.148Z" fill="#FFAF51"/>
<path d="M423.519 91.7932C423.381 91.804 423.22 91.569 423.051 91.1497C423.008 91.0448 422.965 90.9283 422.922 90.8011C422.873 90.6753 422.821 90.5388 422.764 90.3918C422.652 90.0997 422.555 89.7641 422.404 89.4058C422.337 89.2257 422.266 89.0373 422.192 88.8405C422.12 88.6445 422.024 88.4468 421.94 88.2389C421.779 87.8201 421.56 87.3922 421.351 86.9365C421.245 86.7093 421.114 86.4869 420.995 86.2534C420.935 86.1371 420.874 86.0197 420.812 85.9011C420.743 85.7863 420.674 85.6703 420.604 85.5533C420.461 85.3219 420.337 85.0732 420.176 84.8424C420.022 84.6071 419.867 84.3685 419.709 84.1267C419.539 83.8935 419.372 83.6632 419.206 83.4358C419.048 83.2031 418.86 82.9993 418.694 82.7828C418.61 82.6758 418.526 82.5698 418.443 82.4648C418.354 82.365 418.266 82.2661 418.179 82.1682C418.003 81.9743 417.842 81.7719 417.667 81.592C417.316 81.2347 416.993 80.878 416.659 80.5782C416.495 80.4254 416.344 80.266 416.187 80.1281C416.029 79.9893 415.878 79.8561 415.734 79.7288C415.452 79.4603 415.173 79.2508 414.94 79.0416C414.823 78.9363 414.714 78.8385 414.614 78.7481C414.51 78.6625 414.417 78.5811 414.333 78.504C414.002 78.1963 413.839 77.9625 413.899 77.8368C413.958 77.7111 414.236 77.7057 414.701 77.8107C414.817 77.837 414.945 77.8701 415.084 77.9101C415.22 77.9535 415.363 78.0124 415.518 78.0741C415.871 78.2104 416.214 78.3715 416.545 78.5563C416.728 78.6605 416.92 78.7694 417.12 78.8831C417.318 79.0004 417.51 79.1425 417.715 79.282C418.15 79.5836 418.566 79.9103 418.963 80.2604C419.176 80.4419 419.373 80.6493 419.585 80.8523C419.689 80.9554 419.794 81.0596 419.901 81.165C420 81.277 420.099 81.39 420.2 81.5042C420.397 81.7366 420.614 81.9601 420.799 82.2153C420.987 82.4678 421.177 82.7239 421.37 82.9834C421.544 83.256 421.715 83.5252 421.885 83.7909C422.058 84.0541 422.189 84.3368 422.336 84.6031C422.407 84.7378 422.477 84.8713 422.547 85.0036C422.607 85.1404 422.667 85.2758 422.727 85.4098C422.841 85.6796 422.965 85.9381 423.058 86.2017C423.244 86.6966 423.401 87.2019 423.528 87.7151C423.586 87.9566 423.65 88.1863 423.689 88.4132C423.724 88.6404 423.758 88.8582 423.79 89.0666C423.845 89.4409 423.873 89.8185 423.875 90.1968C423.877 90.3636 423.881 90.5178 423.873 90.6609C423.861 90.8046 423.847 90.9355 423.83 91.0535C423.762 91.5249 423.658 91.7824 423.519 91.7932Z" fill="#FFAF51"/>
<path d="M417.779 101.172C417.709 101.169 417.643 101.051 417.58 100.834C417.51 100.618 417.475 100.301 417.388 99.9003C417.348 99.6997 417.307 99.4778 417.267 99.2359C417.216 98.996 417.16 98.7359 417.1 98.4556C417.05 98.1757 416.959 97.8829 416.883 97.5711C416.812 97.258 416.701 96.9357 416.599 96.596C416.364 95.8608 416.088 95.1394 415.772 94.4353C415.404 93.6361 414.982 92.8627 414.508 92.1206C412.347 88.7105 409.02 86.2007 405.145 85.0578C404.301 84.8063 403.441 84.6123 402.571 84.4773C401.807 84.3663 401.037 84.2987 400.265 84.2748C399.91 84.2695 399.569 84.251 399.249 84.269C398.928 84.2812 398.621 84.2735 398.338 84.3028C398.052 84.3218 397.786 84.3397 397.541 84.356C397.297 84.3835 397.073 84.4054 396.869 84.4217C396.459 84.4476 396.145 84.5008 395.917 84.4929C395.691 84.4921 395.56 84.4606 395.538 84.3946C395.516 84.3287 395.604 84.2313 395.796 84.1052C396.074 83.9267 396.37 83.7776 396.679 83.6604C396.878 83.5831 397.102 83.5012 397.349 83.4146C397.598 83.335 397.872 83.2672 398.168 83.1887C398.463 83.1035 398.785 83.057 399.127 82.9926C399.468 82.9227 399.833 82.8916 400.218 82.8504C401.059 82.774 401.905 82.7623 402.748 82.8153C403.721 82.8846 404.685 83.0352 405.632 83.2653C406.684 83.5212 407.708 83.8785 408.691 84.3322C410.824 85.3026 412.717 86.7306 414.235 88.5149C414.941 89.3348 415.566 90.2213 416.1 91.162C416.581 92.0089 416.99 92.8946 417.323 93.8097C417.605 94.6056 417.826 95.4219 417.983 96.2515C418.048 96.6322 418.119 96.9917 418.145 97.3389C418.177 97.6848 418.22 98.0074 418.219 98.314C418.224 98.6195 418.234 98.9022 418.226 99.1626C418.21 99.4236 418.193 99.6607 418.173 99.8737C418.145 100.203 418.082 100.528 417.987 100.845C417.918 101.064 417.848 101.175 417.779 101.172Z" fill="#FFAF51"/>
<path d="M379.243 82.5087C379.187 82.5632 379.12 82.6055 379.047 82.6329C378.973 82.6604 378.895 82.6724 378.817 82.6682C378.715 82.6686 378.613 82.6629 378.512 82.6509C378.401 82.6385 378.287 82.6121 378.159 82.5893C377.911 82.5341 377.631 82.465 377.334 82.3818C377.04 82.3024 376.717 82.2151 376.378 82.1235C376.038 82.0365 375.714 81.9537 375.419 81.8784C375.12 81.8046 374.842 81.7272 374.599 81.6531C374.477 81.6102 374.364 81.5771 374.261 81.5332C374.167 81.4939 374.076 81.4488 373.988 81.3984C373.917 81.3636 373.855 81.3147 373.805 81.2547C373.755 81.1948 373.717 81.1251 373.695 81.05C373.686 80.9707 373.696 80.8903 373.726 80.816C373.755 80.7417 373.802 80.6757 373.863 80.6238C373.941 80.5413 374.031 80.4705 374.13 80.4138C374.252 80.3395 374.38 80.278 374.514 80.2303C374.856 80.1079 375.215 80.0396 375.578 80.0279C375.791 80.0199 376.004 80.0278 376.216 80.0516C376.673 80.0984 377.12 80.2158 377.54 80.3998C377.736 80.4833 377.926 80.5813 378.108 80.6932C378.418 80.8818 378.696 81.1177 378.934 81.3923C379.027 81.4998 379.108 81.6166 379.177 81.7409C379.236 81.8389 379.279 81.9449 379.307 82.0554C379.335 82.1304 379.343 82.211 379.332 82.2901C379.321 82.3691 379.29 82.4442 379.243 82.5087Z" fill="#FFAF51"/>
<path d="M372.468 91.3148C372.316 90.7792 373.711 89.917 375.582 89.3893C377.453 88.8615 379.092 88.8679 379.244 89.4035C379.395 89.9392 378.001 90.8013 376.13 91.3291C374.259 91.8569 372.619 91.8505 372.468 91.3148Z" fill="#FFAF51"/>
<path d="M380.321 92.6178C380.035 92.1405 380.112 91.5682 380.493 91.3394C380.875 91.1107 381.416 91.3122 381.703 91.7895C381.989 92.2667 381.912 92.8391 381.531 93.0678C381.149 93.2966 380.608 93.0951 380.321 92.6178Z" fill="#FFAF51"/>
<path d="M383.088 102.698C382.855 102.54 382.823 102.151 382.89 101.656C382.989 101.057 383.135 100.467 383.327 99.8917C383.498 99.3093 383.714 98.7413 383.975 98.1931C384.202 97.7484 384.451 97.4473 384.733 97.4497C385.008 97.4518 385.265 97.7764 385.394 98.3362C385.52 99.0565 385.471 99.7963 385.252 100.494C385.034 101.192 384.651 101.827 384.137 102.347C383.712 102.734 383.315 102.854 383.088 102.698Z" fill="#FFAF51"/>
<path d="M326.284 300.106C325.931 300.566 325.181 300.551 324.61 300.071C324.039 299.592 323.872 298.861 324.233 298.441C324.595 298.021 325.346 298.035 325.907 298.475C326.469 298.915 326.638 299.645 326.284 300.106Z" fill="#00AEE0"/>
<path d="M332.364 304.223C332.05 304.763 330.794 304.606 329.6 303.809C328.405 303.014 327.753 301.93 328.099 301.453C328.447 300.974 329.641 301.225 330.804 301.958C331.965 302.692 332.679 303.681 332.364 304.223Z" fill="#00AEE0"/>
<path d="M338.894 307.579C338.632 308.181 337.355 308.198 336.073 307.553C334.79 306.91 334.024 305.889 334.33 305.337C334.637 304.782 335.867 304.86 337.106 305.454C338.344 306.049 339.156 306.975 338.894 307.579Z" fill="#00AEE0"/>
<path d="M345.766 310.168C345.568 310.815 344.295 310.996 342.946 310.504C341.596 310.014 340.725 309.07 340.976 308.459C341.228 307.844 342.466 307.763 343.764 308.216C345.061 308.67 345.966 309.519 345.766 310.168Z" fill="#00AEE0"/>
<path d="M352.885 311.976C352.757 312.654 351.51 312.985 350.113 312.65C348.716 312.317 347.748 311.463 347.935 310.809C348.122 310.151 349.346 309.92 350.685 310.229C352.023 310.54 353.014 311.295 352.885 311.976Z" fill="#00AEE0"/>
<path d="M360.16 312.98C360.109 313.673 358.905 314.147 357.479 313.973C356.053 313.801 354.997 313.052 355.111 312.371C355.226 311.688 356.418 311.313 357.781 311.476C359.144 311.641 360.212 312.286 360.16 312.98Z" fill="#00AEE0"/>
<path d="M367.503 313.163C367.529 313.853 366.387 314.461 364.95 314.45C363.513 314.441 362.379 313.818 362.417 313.125C362.454 312.429 363.596 311.925 364.969 311.935C366.342 311.947 367.477 312.47 367.503 313.163Z" fill="#00AEE0"/>
<path d="M374.822 312.535C374.922 313.208 373.852 313.929 372.424 314.08C370.997 314.233 369.802 313.744 369.762 313.055C369.722 312.364 370.802 311.742 372.169 311.605C373.537 311.47 374.722 311.859 374.822 312.535Z" fill="#00AEE0"/>
<path d="M382.028 311.114C382.196 311.754 381.209 312.575 379.807 312.884C378.406 313.194 377.167 312.849 377.055 312.181C376.942 311.511 377.95 310.787 379.296 310.506C380.643 310.227 381.86 310.472 382.028 311.114Z" fill="#00AEE0"/>
<path d="M389.035 308.911C389.263 309.501 388.366 310.408 387.009 310.873C385.652 311.339 384.389 311.151 384.21 310.52C384.03 309.886 384.959 309.075 386.268 308.652C387.577 308.23 388.807 308.319 389.035 308.911Z" fill="#00AEE0"/>
<path d="M395.746 305.927C396.022 306.448 395.224 307.429 393.931 308.05C392.638 308.672 391.373 308.655 391.137 308.077C390.898 307.496 391.742 306.614 392.996 306.048C394.251 305.483 395.47 305.403 395.746 305.927Z" fill="#00AEE0"/>
<path d="M400.007 303.498C400.303 303.966 400.032 304.665 399.399 305.057C398.766 305.448 398.022 305.355 397.738 304.849C397.454 304.343 397.725 303.645 398.345 303.29C398.965 302.936 399.71 303.03 400.007 303.498Z" fill="#00AEE0"/>
<path d="M349.354 226.117C348.797 226.117 348.345 222.594 348.345 218.248C348.345 213.902 348.797 210.379 349.354 210.379C349.911 210.379 350.362 213.902 350.362 218.248C350.362 222.594 349.911 226.117 349.354 226.117Z" fill="#04294F"/>
<path d="M351.565 228.643C351.615 228.594 351.7 228.59 351.828 228.638C352.003 228.719 352.155 228.841 352.271 228.994C352.458 229.237 352.591 229.516 352.662 229.814C352.757 230.214 352.763 230.631 352.68 231.035C352.578 231.552 352.338 232.032 351.986 232.425C351.578 232.869 351.06 233.199 350.485 233.382C349.869 233.577 349.216 233.625 348.578 233.521C347.892 233.411 347.243 233.136 346.689 232.718C346.146 232.308 345.701 231.784 345.385 231.183C345.088 230.621 344.919 230 344.89 229.365C344.864 228.786 344.97 228.209 345.201 227.678C345.394 227.235 345.668 226.831 346.009 226.487C346.476 225.992 347.093 225.664 347.765 225.554C347.946 225.525 348.131 225.533 348.309 225.58C348.434 225.619 348.501 225.674 348.513 225.742C348.513 225.787 348.503 225.831 348.484 225.871C348.465 225.912 348.436 225.947 348.401 225.975C348.319 226.058 348.201 226.161 348.061 226.281C347.685 226.59 347.367 226.963 347.12 227.381C346.965 227.648 346.85 227.936 346.778 228.236C346.701 228.556 346.689 228.887 346.742 229.211C346.801 229.572 346.928 229.918 347.117 230.231C347.319 230.57 347.585 230.867 347.9 231.106C348.194 231.328 348.532 231.486 348.891 231.569C349.25 231.653 349.622 231.662 349.984 231.593C350.285 231.536 350.568 231.412 350.815 231.232C351.027 231.068 351.199 230.858 351.316 230.618C351.427 230.397 351.502 230.161 351.538 229.917C351.566 229.721 351.573 229.521 351.558 229.323C351.529 228.982 351.46 228.744 351.565 228.643Z" fill="#04294F"/>
<path d="M349.215 252.82C348.658 252.82 348.207 250.033 348.207 246.596C348.207 243.158 348.658 240.371 349.215 240.371C349.772 240.371 350.224 243.158 350.224 246.596C350.224 250.033 349.772 252.82 349.215 252.82Z" fill="#04294F"/>
<path d="M349.215 269.276C348.658 269.276 348.207 267.143 348.207 264.512C348.207 261.88 348.658 259.747 349.215 259.747C349.772 259.747 350.224 261.88 350.224 264.512C350.224 267.143 349.772 269.276 349.215 269.276Z" fill="#04294F"/>
<path d="M350.114 252.537C350.14 252.472 350.23 252.439 350.39 252.439C350.617 252.449 350.839 252.503 351.045 252.597C351.376 252.741 351.681 252.937 351.951 253.177C352.311 253.503 352.613 253.887 352.845 254.314C353.136 254.847 353.316 255.434 353.374 256.039C353.439 256.767 353.316 257.5 353.016 258.168C352.845 258.549 352.612 258.898 352.325 259.201C352.009 259.532 351.63 259.795 351.21 259.975C350.385 260.315 349.478 260.398 348.605 260.215C347.756 260.052 346.965 259.668 346.312 259.102C345.686 258.563 345.229 257.854 344.999 257.061C344.793 256.353 344.782 255.602 344.967 254.887C345.127 254.259 345.459 253.688 345.927 253.24C346.299 252.886 346.748 252.624 347.239 252.475C347.597 252.365 347.974 252.328 348.347 252.368C348.58 252.389 348.804 252.461 349.006 252.579C349.141 252.673 349.195 252.753 349.179 252.82C349.162 252.888 349.075 252.94 348.942 252.98C348.808 253.029 348.625 253.069 348.409 253.15C348.157 253.24 347.916 253.36 347.692 253.507C347.416 253.69 347.177 253.923 346.987 254.194C346.775 254.502 346.644 254.857 346.605 255.228C346.556 255.657 346.612 256.091 346.768 256.493C346.937 256.928 347.221 257.308 347.589 257.595C347.997 257.919 348.478 258.139 348.99 258.237C349.475 258.342 349.98 258.313 350.449 258.153C350.638 258.083 350.811 257.978 350.959 257.843C351.115 257.699 351.247 257.53 351.35 257.344C351.561 256.962 351.682 256.536 351.703 256.1C351.717 255.69 351.662 255.281 351.54 254.889C351.434 254.549 351.286 254.223 351.101 253.918C350.951 253.68 350.783 253.455 350.598 253.243C350.441 253.063 350.309 252.916 350.218 252.807C350.129 252.695 350.089 252.602 350.114 252.537Z" fill="#04294F"/>
<path d="M391.664 175.107C391.726 175.137 391.703 175.328 391.598 175.671C391.429 176.164 391.21 176.638 390.945 177.087C390.528 177.798 390.049 178.471 389.514 179.098C388.807 179.923 388.042 180.696 387.225 181.411C386.329 182.211 385.305 183.023 384.206 183.869C383.105 184.707 381.929 185.602 380.691 186.544C378.207 188.417 375.46 190.453 372.559 192.566C360.955 201.019 351.281 207.508 350.953 207.058C350.625 206.608 359.766 199.391 371.371 190.937C374.272 188.824 377.052 186.834 379.596 185.044C380.872 184.154 382.085 183.31 383.22 182.519C384.356 181.736 385.401 181.01 386.318 180.311C387.144 179.691 387.937 179.028 388.694 178.325C389.26 177.791 389.796 177.228 390.302 176.637C390.715 176.146 391.023 175.747 391.24 175.478C391.456 175.208 391.601 175.076 391.664 175.107Z" fill="#04294F"/>
<path d="M326.502 163.434C326.57 163.445 326.616 163.626 326.64 163.953C326.652 164.117 326.658 164.318 326.66 164.552C326.664 164.787 326.69 165.059 326.7 165.362C326.706 165.513 326.712 165.672 326.719 165.84C326.735 166.007 326.752 166.183 326.769 166.366C326.785 166.548 326.801 166.739 326.818 166.937C326.845 167.134 326.874 167.338 326.903 167.55C327.036 168.508 327.224 169.457 327.464 170.393C327.744 171.432 328.097 172.558 328.54 173.749C328.992 174.938 329.527 176.193 330.132 177.502C330.736 178.812 331.409 180.177 332.115 181.599C332.822 183.021 333.547 184.495 334.307 185.989C335.067 187.483 335.82 188.932 336.584 190.306C337.335 191.689 338.113 192.986 338.868 194.212C339.249 194.823 339.64 195.404 340.009 195.978C340.402 196.532 340.77 197.082 341.146 197.598C341.533 198.104 341.89 198.609 342.26 199.071C342.635 199.528 342.985 199.978 343.335 200.392C343.693 200.8 344.033 201.189 344.356 201.557C344.693 201.913 345.011 202.247 345.308 202.561C345.599 202.883 345.892 203.158 346.159 203.417C346.423 203.68 346.664 203.919 346.882 204.136C347.329 204.553 347.679 204.881 347.899 205.128C348.121 205.374 348.22 205.531 348.18 205.588C348.141 205.646 347.964 205.6 347.662 205.458C347.227 205.246 346.804 205.01 346.394 204.751C346.135 204.574 345.85 204.374 345.538 204.15C345.225 203.928 344.885 203.686 344.547 203.393C344.205 203.106 343.833 202.803 343.452 202.467C343.084 202.117 342.695 201.747 342.286 201.358C341.888 200.959 341.492 200.522 341.07 200.073C340.653 199.62 340.252 199.122 339.821 198.618C339.402 198.105 338.993 197.557 338.56 197C338.153 196.426 337.725 195.84 337.31 195.225C336.488 193.99 335.653 192.674 334.862 191.275C334.056 189.882 333.278 188.414 332.508 186.901C331.738 185.388 331.022 183.899 330.337 182.461C329.653 181.021 329.004 179.617 328.431 178.251C327.857 176.885 327.36 175.559 326.958 174.292C326.59 173.111 326.294 171.909 326.07 170.692C325.895 169.682 325.797 168.66 325.778 167.635C325.776 167.409 325.77 167.191 325.773 166.981C325.785 166.771 325.796 166.569 325.808 166.375C325.821 166.183 325.833 165.998 325.845 165.822C325.87 165.647 325.894 165.481 325.916 165.323C325.967 165.009 326.003 164.731 326.063 164.494C326.125 164.257 326.183 164.058 326.237 163.899C326.344 163.581 326.433 163.422 326.502 163.434Z" fill="#04294F"/>
<path d="M399.567 250.794C399.638 250.914 399.493 251.156 399.176 251.489C399.016 251.654 398.815 251.844 398.579 252.06C398.343 252.275 398.066 252.505 397.765 252.765C397.157 253.27 396.433 253.87 395.629 254.536C395.233 254.873 394.807 255.214 394.38 255.584C393.951 255.95 393.506 256.33 393.051 256.718C392.602 257.114 392.165 257.5 391.74 257.874C391.314 258.245 390.916 258.618 390.526 258.963C389.753 259.664 389.057 260.296 388.472 260.827C388.171 261.088 387.905 261.331 387.659 261.534C387.412 261.736 387.195 261.909 387.009 262.044C386.635 262.311 386.374 262.42 386.266 262.333C386.157 262.247 386.21 261.972 386.402 261.546C386.519 261.29 386.652 261.042 386.8 260.804C386.969 260.525 387.166 260.21 387.406 259.88C387.963 259.101 388.566 258.356 389.212 257.65C389.579 257.255 389.966 256.838 390.391 256.432C390.808 256.018 391.261 255.61 391.728 255.196C392.204 254.792 392.671 254.402 393.14 254.046C393.602 253.683 394.07 253.36 394.513 253.051C395.303 252.511 396.126 252.019 396.976 251.578C397.337 251.387 397.677 251.236 397.976 251.108C398.234 250.995 398.498 250.898 398.767 250.819C399.217 250.688 399.496 250.674 399.567 250.794Z" fill="#04294F"/>
<path d="M409.434 269.066C409.395 269.199 409.109 269.249 408.619 269.221C408.323 269.205 408.03 269.167 407.74 269.107C407.357 269.038 406.977 268.95 406.603 268.843C406.187 268.727 405.733 268.589 405.258 268.409C404.776 268.242 404.278 268.024 403.754 267.794C403.492 267.678 403.232 267.542 402.962 267.41C402.692 267.279 402.422 267.136 402.152 266.98C401.603 266.682 401.058 266.334 400.503 265.975C399.96 265.597 399.431 265.225 398.948 264.831C398.701 264.641 398.466 264.445 398.242 264.245C398.017 264.046 397.793 263.857 397.586 263.658C397.174 263.26 396.784 262.883 396.447 262.501C396.1 262.129 395.801 261.762 395.536 261.421C395.294 261.115 395.069 260.798 394.86 260.47C394.695 260.225 394.548 259.967 394.421 259.7C394.21 259.257 394.147 258.974 394.256 258.887C394.365 258.801 394.635 258.917 395.023 259.196C395.216 259.337 395.441 259.516 395.703 259.721C395.957 259.931 396.246 260.17 396.565 260.434C396.882 260.698 397.223 260.99 397.6 261.29C397.967 261.601 398.377 261.911 398.796 262.249C399.006 262.417 399.232 262.577 399.455 262.749C399.676 262.922 399.907 263.093 400.147 263.261C400.616 263.611 401.119 263.947 401.627 264.302C402.148 264.637 402.65 264.975 403.151 265.276C403.398 265.434 403.643 265.583 403.888 265.722C404.132 265.863 404.366 266.01 404.601 266.141C405.072 266.401 405.515 266.663 405.942 266.884C406.363 267.119 406.763 267.324 407.127 267.517C407.493 267.712 407.823 267.889 408.114 268.044C408.403 268.209 408.654 268.349 408.858 268.474C409.263 268.727 409.473 268.932 409.434 269.066Z" fill="#04294F"/>
<path d="M331.147 119.765C331.147 119.753 331.146 119.741 331.146 119.729C331.146 119.717 331.147 119.706 331.147 119.694C331.147 119.634 331.14 119.577 331.139 119.517C331.135 119.373 331.13 119.23 331.119 119.089C331.069 118.249 330.885 117.422 330.574 116.64H330.539C329.861 115.043 328.681 113.982 327.336 113.982C325.991 113.982 324.811 115.043 324.133 116.64H324.098C323.788 117.422 323.604 118.249 323.553 119.089C323.542 119.23 323.537 119.373 323.533 119.517C323.532 119.577 323.525 119.634 323.525 119.694C323.525 119.706 323.526 119.717 323.526 119.729C323.526 119.741 323.525 119.753 323.525 119.765C323.525 119.825 323.532 119.882 323.533 119.942C323.537 120.085 323.542 120.229 323.553 120.369C323.604 121.21 323.788 122.036 324.098 122.819H324.133C324.811 124.415 325.991 125.476 327.336 125.476C328.681 125.476 329.861 124.415 330.539 122.819H330.574C330.885 122.036 331.069 121.21 331.119 120.369C331.13 120.229 331.135 120.085 331.139 119.942C331.14 119.882 331.147 119.825 331.147 119.765Z" fill="#04294F"/>
<path d="M348.194 119.765C348.194 119.753 348.193 119.741 348.193 119.729C348.193 119.717 348.194 119.706 348.194 119.694C348.194 119.634 348.187 119.577 348.186 119.517C348.182 119.373 348.177 119.23 348.166 119.089C348.116 118.249 347.932 117.422 347.621 116.64H347.586C346.908 115.043 345.728 113.982 344.383 113.982C343.038 113.982 341.858 115.043 341.18 116.64H341.145C340.835 117.422 340.651 118.249 340.6 119.089C340.589 119.23 340.584 119.373 340.58 119.517C340.579 119.577 340.572 119.634 340.572 119.694C340.572 119.706 340.573 119.717 340.573 119.729C340.573 119.741 340.572 119.753 340.572 119.765C340.572 119.825 340.579 119.882 340.58 119.942C340.584 120.085 340.589 120.229 340.6 120.369C340.651 121.21 340.835 122.036 341.145 122.819H341.18C341.858 124.415 343.038 125.476 344.383 125.476C345.728 125.476 346.908 124.415 347.586 122.819H347.621C347.932 122.036 348.116 121.21 348.166 120.369C348.177 120.229 348.182 120.085 348.186 119.942C348.187 119.882 348.194 119.825 348.194 119.765Z" fill="#04294F"/>
<path d="M354.488 131.877C354.604 131.954 354.579 132.214 354.428 132.628C354.339 132.879 354.227 133.12 354.091 133.349C353.919 133.654 353.73 133.949 353.525 134.233C353.405 134.386 353.278 134.547 353.147 134.714C353.079 134.797 353.011 134.882 352.94 134.968C352.866 135.051 352.787 135.131 352.708 135.215C352.546 135.38 352.379 135.55 352.207 135.726C352.03 135.897 351.831 136.055 351.633 136.225C351.432 136.402 351.221 136.567 351 136.717C350.774 136.873 350.548 137.039 350.306 137.19C350.057 137.331 349.805 137.475 349.548 137.621C349.29 137.764 349.009 137.876 348.734 138.005C348.46 138.129 348.179 138.237 347.892 138.327C347.752 138.375 347.612 138.422 347.474 138.469C347.335 138.514 347.192 138.543 347.053 138.579C346.772 138.643 346.501 138.723 346.226 138.762C345.952 138.8 345.684 138.837 345.422 138.873C345.159 138.902 344.9 138.901 344.651 138.913C344.526 138.916 344.403 138.919 344.282 138.923C344.161 138.915 344.042 138.908 343.924 138.901C343.691 138.883 343.466 138.865 343.25 138.848C343.035 138.816 342.83 138.774 342.636 138.736C342.285 138.672 341.941 138.576 341.609 138.448C341.462 138.395 341.326 138.344 341.203 138.293C341.082 138.231 340.973 138.172 340.877 138.114C340.493 137.886 340.312 137.699 340.354 137.567C340.397 137.435 340.657 137.367 341.071 137.354C341.175 137.351 341.288 137.351 341.41 137.355C341.535 137.348 341.669 137.342 341.81 137.339C342.094 137.336 342.41 137.346 342.76 137.316C342.933 137.309 343.114 137.301 343.302 137.293C343.49 137.273 343.684 137.252 343.886 137.23C343.986 137.221 344.088 137.211 344.191 137.201C344.294 137.183 344.398 137.165 344.504 137.147C344.715 137.107 344.933 137.084 345.153 137.036C345.372 136.985 345.596 136.932 345.826 136.879C346.055 136.83 346.282 136.743 346.517 136.678C346.633 136.642 346.753 136.614 346.87 136.571C346.986 136.527 347.104 136.482 347.222 136.437C347.465 136.355 347.703 136.26 347.936 136.154C348.171 136.043 348.412 135.953 348.637 135.834C348.862 135.717 349.084 135.602 349.303 135.488C349.518 135.369 349.722 135.237 349.928 135.118C350.131 135.002 350.327 134.876 350.517 134.74C350.704 134.61 350.897 134.494 351.071 134.364C351.245 134.233 351.414 134.105 351.578 133.982C351.661 133.921 351.743 133.861 351.823 133.801C351.899 133.738 351.974 133.675 352.047 133.613C352.197 133.492 352.341 133.376 352.479 133.264C352.757 133.042 352.987 132.817 353.215 132.639C353.446 132.462 353.625 132.29 353.794 132.165C354.128 131.91 354.372 131.799 354.488 131.877Z" fill="#04294F"/>
<path d="M357.009 133.246C357.023 133.327 357.014 133.41 356.985 133.487C356.955 133.564 356.905 133.632 356.84 133.682C356.625 133.871 356.363 133.997 356.081 134.047C355.668 134.13 355.241 134.116 354.835 134.005C354.317 133.869 353.844 133.603 353.458 133.233C353.072 132.863 352.788 132.401 352.631 131.89C352.504 131.489 352.472 131.063 352.539 130.647C352.577 130.364 352.693 130.097 352.873 129.875C352.921 129.808 352.987 129.755 353.062 129.723C353.138 129.69 353.221 129.678 353.303 129.689C353.579 129.756 353.738 130.116 353.96 130.52C354.397 131.473 355.18 132.225 356.151 132.624C356.564 132.829 356.931 132.973 357.009 133.246Z" fill="#04294F"/>
<path d="M325.972 120.875C326.874 120.875 327.604 120.145 327.604 119.244C327.604 118.343 326.874 117.613 325.972 117.613C325.071 117.613 324.34 118.343 324.34 119.244C324.34 120.145 325.071 120.875 325.972 120.875Z" fill="white"/>
<path d="M328.008 116.96C328.55 116.96 328.99 116.52 328.99 115.978C328.99 115.436 328.55 114.997 328.008 114.997C327.465 114.997 327.025 115.436 327.025 115.978C327.025 116.52 327.465 116.96 328.008 116.96Z" fill="white"/>
<path d="M343.001 120.875C343.902 120.875 344.633 120.145 344.633 119.244C344.633 118.343 343.902 117.613 343.001 117.613C342.099 117.613 341.369 118.343 341.369 119.244C341.369 120.145 342.099 120.875 343.001 120.875Z" fill="white"/>
<path d="M345.036 116.96C345.579 116.96 346.018 116.52 346.018 115.978C346.018 115.436 345.579 114.997 345.036 114.997C344.494 114.997 344.054 115.436 344.054 115.978C344.054 116.52 344.494 116.96 345.036 116.96Z" fill="white"/>
<path d="M331.147 112.485C331.109 112.495 331.068 112.498 331.029 112.493C330.989 112.488 330.951 112.475 330.916 112.455C330.812 112.399 330.714 112.331 330.625 112.254C330.516 112.164 330.396 112.055 330.258 111.934C330.122 111.814 329.97 111.681 329.799 111.545C329.631 111.407 329.439 111.271 329.234 111.133C329.016 110.993 328.79 110.865 328.556 110.752C328.305 110.631 328.045 110.53 327.778 110.452C327.222 110.282 326.637 110.226 326.058 110.287C325.781 110.314 325.506 110.364 325.237 110.435C324.986 110.502 324.74 110.584 324.499 110.681C324.272 110.778 324.058 110.875 323.866 110.979C323.673 111.079 323.499 111.181 323.342 111.274C323.184 111.366 323.045 111.451 322.921 111.518C322.819 111.577 322.71 111.625 322.597 111.66C322.521 111.687 322.437 111.682 322.364 111.646C322.331 111.623 322.304 111.593 322.285 111.558C322.266 111.523 322.254 111.485 322.253 111.445C322.238 111.314 322.25 111.182 322.287 111.056C322.337 110.867 322.411 110.685 322.508 110.515C322.633 110.289 322.782 110.077 322.953 109.884C323.162 109.646 323.395 109.431 323.648 109.242C324.277 108.779 325.006 108.468 325.775 108.333C326.665 108.171 327.583 108.259 328.426 108.586C329.157 108.865 329.812 109.308 330.343 109.881C330.555 110.115 330.743 110.37 330.903 110.643C331.035 110.866 331.141 111.102 331.221 111.348C331.283 111.533 331.322 111.725 331.335 111.92C331.348 112.051 331.334 112.183 331.295 112.308C331.286 112.347 331.268 112.383 331.242 112.414C331.216 112.445 331.184 112.469 331.147 112.485Z" fill="#04294F"/>
<path d="M350.049 112.063C350.009 112.075 349.967 112.078 349.925 112.072C349.883 112.067 349.843 112.052 349.807 112.029C349.69 111.962 349.579 111.883 349.476 111.795C349.349 111.69 349.206 111.561 349.039 111.42C348.873 111.278 348.687 111.122 348.476 110.964C348.267 110.803 348.029 110.646 347.773 110.487C347.5 110.325 347.216 110.181 346.924 110.056C346.609 109.921 346.283 109.813 345.949 109.734C345.249 109.561 344.52 109.536 343.81 109.661C343.471 109.717 343.139 109.803 342.815 109.916C342.515 110.021 342.222 110.145 341.939 110.288C341.673 110.429 341.424 110.57 341.205 110.716C340.983 110.859 340.787 111.003 340.612 111.133C340.436 111.262 340.285 111.381 340.15 111.477C340.042 111.558 339.926 111.629 339.804 111.688C339.767 111.708 339.726 111.72 339.684 111.723C339.642 111.726 339.6 111.72 339.56 111.705C339.525 111.682 339.497 111.65 339.477 111.613C339.458 111.576 339.447 111.534 339.448 111.492C339.435 111.343 339.45 111.194 339.491 111.051C339.548 110.832 339.63 110.621 339.737 110.422C339.875 110.157 340.041 109.907 340.231 109.675C340.463 109.392 340.722 109.132 341.006 108.901C341.337 108.635 341.695 108.404 342.074 108.213C342.498 107.998 342.947 107.835 343.41 107.727C344.424 107.484 345.485 107.52 346.479 107.832C346.934 107.971 347.371 108.164 347.78 108.407C348.145 108.624 348.487 108.878 348.799 109.166C349.066 109.417 349.307 109.693 349.519 109.992C349.693 110.236 349.841 110.497 349.961 110.771C350.053 110.977 350.121 111.193 350.163 111.414C350.195 111.56 350.199 111.71 350.176 111.858C350.174 111.9 350.161 111.94 350.139 111.976C350.117 112.012 350.086 112.042 350.049 112.063Z" fill="#04294F"/>
<path d="M270.855 177.386C270.909 177.514 270.71 177.733 270.296 178.022C270.047 178.197 269.784 178.353 269.511 178.486C269.156 178.673 268.791 178.84 268.418 178.987C268.21 179.067 267.992 179.151 267.765 179.239C267.536 179.323 267.293 179.393 267.043 179.472C266.543 179.637 265.997 179.762 265.42 179.896C265.132 179.961 264.832 180.006 264.528 180.061C264.375 180.087 264.221 180.113 264.065 180.14C263.908 180.158 263.75 180.177 263.59 180.196C262.951 180.282 262.285 180.317 261.602 180.349C260.919 180.354 260.252 180.356 259.609 180.305C259.448 180.295 259.289 180.285 259.131 180.275C258.975 180.257 258.819 180.239 258.665 180.222C258.358 180.183 258.056 180.155 257.765 180.105C257.182 180.004 256.629 179.908 256.122 179.772C255.867 179.706 255.621 179.65 255.388 179.578C255.156 179.503 254.934 179.431 254.722 179.362C254.341 179.236 253.968 179.089 253.603 178.922C253.323 178.804 253.052 178.663 252.794 178.502C252.364 178.236 252.154 178.028 252.2 177.897C252.246 177.765 252.544 177.722 253.032 177.754C253.275 177.772 253.568 177.805 253.907 177.837C254.246 177.871 254.623 177.935 255.044 177.974C255.253 177.999 255.472 178.026 255.7 178.054C255.927 178.083 256.166 178.098 256.41 178.125C256.899 178.185 257.424 178.213 257.972 178.26C258.247 178.282 258.53 178.286 258.817 178.303C258.961 178.311 259.106 178.319 259.252 178.326C259.399 178.328 259.548 178.33 259.697 178.332C260.295 178.354 260.913 178.338 261.547 178.334C262.18 178.303 262.798 178.286 263.394 178.231C263.543 178.221 263.691 178.211 263.837 178.201C263.983 178.185 264.128 178.169 264.271 178.154C264.557 178.121 264.839 178.102 265.112 178.064C265.657 177.988 266.18 177.931 266.664 177.844C266.907 177.804 267.144 177.776 267.37 177.735C267.596 177.694 267.812 177.655 268.02 177.618C268.439 177.556 268.811 177.472 269.148 177.419C269.485 177.369 269.775 177.32 270.017 177.289C270.503 177.23 270.802 177.257 270.855 177.386Z" fill="#04294F"/>
<path d="M270.449 176.391C269.895 176.453 269.353 175.669 269.237 174.64C269.122 173.611 269.477 172.726 270.03 172.664C270.584 172.602 271.126 173.386 271.242 174.415C271.357 175.445 271.002 176.329 270.449 176.391Z" fill="#04294F"/>
<path fill-rule="evenodd" clip-rule="evenodd" d="M320.555 212.559C319.804 213.656 319.011 214.73 318.165 215.771C317.42 208.126 319.381 210.362 319.125 205.727C318.82 200.17 320.279 200.414 320.3 201.379C320.32 202.344 320.505 210.511 320.555 212.559Z" fill="#04294F"/>
<path d="M230.425 348.637C226.536 331.227 217.715 318.301 214.728 314.485C214.728 314.485 203.204 303.323 181.485 292.591C176.553 290.158 172.285 288.155 168.634 286.485C163.892 284.339 157.727 282.383 152.51 280.905C150.744 280.412 148.879 280.395 147.104 280.857L137.003 283.623C134.49 284.482 131.692 285.484 128.61 286.628C125.527 287.773 122.208 289.109 118.604 290.635C114.241 292.495 110.162 294.403 106.464 296.264C99.2247 299.844 92.2232 303.891 85.5031 308.379C74.4538 322.021 70.0435 339.145 69.9961 339.383L74.0744 343.342C74.0744 343.342 79.6702 338.668 83.8907 336.331V336.521C83.7959 341.53 83.7485 347.397 83.7485 354.265C83.7485 393.617 85.5505 398.196 85.5505 398.196C85.5505 398.196 91.0514 403.92 108.93 414.461C126.76 425.003 149.618 433.159 149.618 433.159C149.618 433.159 166.026 429.2 186.986 419.47C207.947 409.739 214.823 404.302 214.823 404.302C214.823 404.302 217.052 388.895 217.052 360.466C217.052 360.466 217.194 359.083 217.194 356.889C227.911 351.308 230.045 349.114 230.425 348.637Z" fill="#FF7751"/>
<path d="M230.425 348.637C230.045 349.114 227.864 351.356 216.957 356.984C212.831 359.13 207.425 361.754 200.359 364.95C172.048 377.828 165.314 377.351 165.314 377.351C161.331 359.035 153.079 347.683 150.424 344.344V344.296C150.433 344.168 150.417 344.039 150.377 343.916C150.337 343.794 150.273 343.681 150.189 343.584C150.106 343.486 150.004 343.406 149.889 343.349C149.775 343.291 149.65 343.256 149.523 343.247C149.395 343.237 149.267 343.253 149.145 343.294C149.024 343.334 148.911 343.398 148.814 343.483C148.718 343.567 148.638 343.669 148.581 343.784C148.523 343.899 148.489 344.025 148.479 344.153C147.578 351.069 147.104 358.033 146.772 364.95C146.488 371.866 146.298 378.83 146.251 385.746C146.203 392.663 146.298 399.627 146.488 406.543C146.725 413.459 147.057 420.423 147.863 427.34C147.888 427.601 148.013 427.841 148.212 428.011C148.411 428.18 148.668 428.264 148.928 428.245C149.188 428.227 149.43 428.107 149.604 427.911C149.777 427.715 149.867 427.459 149.855 427.197C149.76 423.762 149.665 420.28 149.618 416.846C149.618 413.412 149.57 409.93 149.523 406.495V396.145L149.712 385.746C149.712 378.83 149.807 371.914 149.902 364.997C149.95 361.563 149.997 358.081 150.092 354.647C150.092 353.884 150.139 353.073 150.139 352.31C153.791 357.843 159.244 368.146 162.279 382.074C162.279 382.074 169.582 382.503 197.893 369.624C206.382 365.761 212.547 362.756 217.052 360.418C227.437 354.981 228.623 353.264 228.623 353.264L230.567 348.971C230.508 348.865 230.46 348.753 230.425 348.637Z" fill="#10294C"/>
<path d="M148.242 321.591C150.993 322.975 153.648 324.263 156.114 325.455C152.795 323.881 149.902 322.45 148.242 321.591Z" fill="#10294C"/>
<path d="M84.4598 319.636C81.6192 324.277 79.1913 329.161 77.2042 334.232C76.0071 337.208 74.978 340.249 74.1218 343.342C77.2448 340.859 80.5237 338.58 83.9382 336.521C83.9856 334.184 84.033 331.99 84.0804 330.034C84.1753 325.837 84.3175 322.402 84.4598 319.636Z" fill="#10294C"/>
<path d="M145.065 340.432C140.37 338.191 135.723 335.901 131.076 333.564C128.752 332.371 126.428 331.227 124.152 330.034C121.876 328.842 119.552 327.649 117.276 326.409C114.999 325.169 112.723 323.976 110.447 322.688C108.171 321.448 105.942 320.16 103.666 318.873C101.389 317.585 99.1606 316.297 96.9792 314.913C94.7503 313.53 92.5689 312.195 90.3875 310.811C90.1721 310.678 89.9139 310.634 89.6666 310.687C89.4194 310.74 89.202 310.887 89.0597 311.098C88.9905 311.198 88.9417 311.31 88.9161 311.429C88.8906 311.549 88.8888 311.672 88.9108 311.791C88.9329 311.911 88.9783 312.025 89.0446 312.127C89.1109 312.229 89.1966 312.317 89.2968 312.385C93.4048 315.659 97.7128 318.67 102.196 321.401C106.653 324.167 111.158 326.791 115.806 329.271C120.406 331.751 125.1 334.041 129.89 336.235C134.68 338.429 139.469 340.385 144.401 342.15C144.525 342.201 144.659 342.227 144.793 342.226C144.928 342.225 145.061 342.197 145.185 342.144C145.308 342.091 145.42 342.013 145.514 341.916C145.607 341.818 145.68 341.703 145.729 341.577C145.78 341.459 145.803 341.33 145.795 341.201C145.787 341.072 145.75 340.947 145.685 340.836C145.62 340.724 145.531 340.63 145.423 340.56C145.315 340.49 145.193 340.446 145.065 340.432Z" fill="#10294C"/>
<path d="M102.196 384.651L90.9565 378.307V382.218L101.958 388.419L102.196 384.651Z" fill="#FFAF51"/>
<path d="M105.849 390.665H105.802L126.43 402.351L126.667 398.583L106.086 386.897L105.849 390.665Z" fill="#FFAF51"/>
<path d="M90.3894 390.379L105.517 398.965L105.754 395.196L90.3894 386.515V390.379Z" fill="#FFAF51"/>
<path d="M130.888 404.88L135.582 407.551V403.639L131.125 401.111L130.888 404.88Z" fill="#FFAF51"/>
<path d="M109.975 401.493L119.412 406.835V402.924L110.212 397.725L109.975 401.493Z" fill="#FFAF51"/>
<path d="M195.427 396.813C195.669 397.075 195.985 397.256 196.333 397.333C196.68 397.409 197.042 397.378 197.371 397.242L199.079 396.479V403.252C199.08 403.535 199.15 403.813 199.283 404.062C199.415 404.311 199.605 404.524 199.837 404.683C200.071 404.846 200.342 404.944 200.625 404.969C200.907 404.994 201.192 404.945 201.45 404.826L205.718 402.918C206.02 402.784 206.275 402.563 206.453 402.283C206.63 402.003 206.721 401.676 206.713 401.344V393.092L209.796 391.709C210.054 391.593 210.28 391.415 210.454 391.19C210.628 390.966 210.744 390.702 210.792 390.421C210.832 390.139 210.802 389.851 210.702 389.585C210.603 389.318 210.438 389.08 210.223 388.895L204.01 383.362C203.846 383.212 203.654 383.098 203.446 383.024C203.237 382.95 203.016 382.919 202.795 382.932C202.574 382.946 202.358 383.003 202.16 383.101C201.961 383.2 201.784 383.337 201.639 383.505C201.56 383.589 201.496 383.685 201.45 383.791L195.237 394.857C195.057 395.161 194.978 395.514 195.012 395.867C195.046 396.219 195.191 396.55 195.427 396.813Z" fill="#10294C"/>
<path d="M213.21 315.963C213.147 315.851 213.062 315.753 212.96 315.675C212.858 315.597 212.742 315.541 212.618 315.51C212.493 315.478 212.364 315.473 212.238 315.493C212.112 315.514 211.991 315.56 211.883 315.629H211.835C209.654 316.964 207.33 318.205 205.006 319.349C202.683 320.494 200.312 321.687 197.988 322.784L192.677 325.264C185.761 319.863 178.436 315.015 170.768 310.764C164.405 306.94 157.763 303.607 150.898 300.795C136.15 293.974 129.89 292.113 128.847 291.827C126.571 292.733 124.152 293.687 121.639 294.784C117.845 296.359 114.288 298.028 110.969 299.65C116.902 303.894 123.06 307.811 129.416 311.384C131.455 312.576 133.684 313.816 136.055 315.104C140.276 317.441 144.306 319.54 148.148 321.496C150.803 322.831 160.288 327.363 163.986 329.032C168.681 331.131 172.285 332.61 174.419 333.468C172.712 334.231 171.052 334.947 169.345 335.662C166.927 336.664 164.508 337.666 162.09 338.62C159.671 339.574 157.205 340.48 154.739 341.291C154.475 341.367 154.252 341.545 154.118 341.787C153.985 342.028 153.952 342.313 154.028 342.579C154.103 342.844 154.281 343.069 154.521 343.203C154.761 343.337 155.044 343.37 155.308 343.294C160.484 342.092 165.57 340.53 170.531 338.62C172.997 337.714 175.463 336.712 177.881 335.662C180.3 334.613 182.718 333.564 185.137 332.467C189.926 330.272 194.668 327.983 199.363 325.55C204.122 323.17 208.674 320.393 212.973 317.251C213.174 317.111 213.312 316.897 213.356 316.656C213.401 316.415 213.348 316.165 213.21 315.963Z" fill="#10294C"/>
<path d="M193.483 319.493C189.223 315.809 184.724 312.415 180.015 309.333C177.691 307.759 175.273 306.328 172.854 304.897L171.574 304.182C168.207 302.322 150.945 293.831 146.82 292.162C142.789 290.445 138.758 288.918 134.585 287.583C134.336 287.501 134.066 287.519 133.831 287.633C133.595 287.747 133.413 287.948 133.321 288.194C133.229 288.44 133.235 288.712 133.338 288.954C133.441 289.195 133.633 289.388 133.874 289.491C136.387 290.635 138.948 291.732 141.461 292.925L149.001 296.502L149.57 296.788C157.822 300.747 167.733 305.804 171.337 307.855C173.755 309.19 176.126 310.573 178.45 312.004C183.192 314.866 187.84 317.919 192.345 321.115C192.566 321.257 192.833 321.307 193.09 321.254C193.347 321.2 193.573 321.048 193.72 320.829C193.815 320.607 193.843 320.363 193.8 320.125C193.758 319.888 193.648 319.668 193.483 319.493Z" fill="#10294C"/>
<path d="M190.13 209.438C188.479 210.201 186.898 211.107 185.404 212.146C183.992 213.13 182.703 214.238 181.598 215.161C181.316 215.404 181.1 215.715 180.97 216.065C180.84 216.415 180.801 216.791 180.857 217.16C180.912 217.529 181.059 217.878 181.286 218.174C181.512 218.47 181.81 218.704 182.15 218.854C183.779 219.595 185.462 220.212 187.184 220.7C189.332 221.315 190.928 221.684 191.972 221.869C192.468 221.95 192.924 222.193 193.268 222.56C193.612 222.928 193.825 223.399 193.875 223.9C194.048 225.72 194.418 227.515 194.98 229.254C195.464 230.804 196.038 232.325 196.698 233.808C196.849 234.147 197.081 234.442 197.374 234.669C197.666 234.896 198.01 235.046 198.375 235.107C198.74 235.168 199.114 235.138 199.464 235.018C199.814 234.899 200.129 234.695 200.382 234.423C201.514 233.25 202.561 231.995 203.512 230.669C204.597 229.214 205.523 227.646 206.274 225.992C206.489 225.539 206.844 225.168 207.287 224.935C207.73 224.702 208.236 224.619 208.73 224.7C210.356 224.959 211.996 225.123 213.641 225.192C215.42 225.3 217.205 225.279 218.981 225.131C219.353 225.099 219.712 224.975 220.024 224.769C220.336 224.563 220.592 224.283 220.769 223.953C220.946 223.623 221.038 223.254 221.036 222.879C221.035 222.505 220.94 222.136 220.761 221.808C219.149 218.759 217.079 215.978 214.623 213.561C214.262 213.208 214.026 212.747 213.948 212.248C213.871 211.749 213.957 211.238 214.193 210.792C214.936 209.335 215.592 207.834 216.157 206.299C216.78 204.605 217.312 202.88 217.753 201.13C217.843 200.767 217.84 200.388 217.745 200.027C217.65 199.666 217.465 199.335 217.207 199.065C216.95 198.794 216.629 198.594 216.274 198.482C215.918 198.369 215.54 198.349 215.175 198.422C213.573 198.695 211.993 199.085 210.449 199.591C208.72 200.16 207.038 200.859 205.415 201.684C204.97 201.921 204.46 202.007 203.962 201.929C203.464 201.851 203.005 201.614 202.653 201.253C201.916 200.514 200.75 199.407 198.97 197.93C197.588 196.806 196.132 195.778 194.611 194.853C194.286 194.664 193.918 194.559 193.541 194.549C193.165 194.539 192.792 194.623 192.456 194.795C192.121 194.966 191.833 195.219 191.62 195.53C191.407 195.841 191.275 196.2 191.235 196.576C191.04 198.374 190.978 200.184 191.051 201.991C191.113 204.268 191.297 205.868 191.419 206.915C191.515 207.419 191.44 207.941 191.206 208.398C190.973 208.855 190.594 209.221 190.13 209.438Z" fill="#FFAF51"/>
<path d="M93.4502 211.468C94.3721 212.535 95.4005 213.504 96.5194 214.361C97.5039 215.113 98.5285 215.812 99.5886 216.453C99.8349 216.602 100.115 216.686 100.402 216.697C100.689 216.709 100.975 216.647 101.232 216.518C101.489 216.389 101.71 216.197 101.873 215.96C102.037 215.722 102.138 215.448 102.167 215.161C102.325 213.792 102.407 212.416 102.412 211.038C102.422 209.762 102.34 208.486 102.167 207.222C102.106 206.841 102.176 206.451 102.366 206.116C102.555 205.78 102.853 205.519 103.21 205.376C104.484 204.786 105.714 204.107 106.893 203.345C107.933 202.642 108.918 201.86 109.84 201.007C110.054 200.822 110.219 200.587 110.319 200.322C110.42 200.058 110.454 199.772 110.417 199.491C110.381 199.211 110.275 198.943 110.11 198.714C109.945 198.484 109.726 198.299 109.471 198.176C108.357 197.613 107.209 197.12 106.034 196.699C104.72 196.236 103.362 195.906 101.983 195.714C101.596 195.656 101.238 195.476 100.962 195.199C100.686 194.922 100.506 194.563 100.448 194.175C100.265 192.913 100.02 191.66 99.7113 190.422C99.3834 189.077 98.9524 187.761 98.4223 186.483C98.3188 186.214 98.149 185.976 97.9287 185.791C97.7085 185.606 97.445 185.48 97.163 185.424C96.8809 185.369 96.5895 185.386 96.3159 185.475C96.0423 185.563 95.7955 185.719 95.5986 185.929C94.862 186.729 93.9412 187.714 93.1432 188.76C92.3255 189.897 91.5871 191.09 90.9334 192.329C90.7616 192.675 90.4845 192.956 90.1424 193.133C89.8003 193.31 89.4109 193.374 89.0305 193.314C88.2325 193.191 87.0048 193.006 85.286 192.883C83.8962 192.79 82.5018 192.79 81.1119 192.883C80.8271 192.905 80.552 192.996 80.3111 193.15C80.0702 193.304 79.871 193.515 79.7312 193.765C79.5915 194.015 79.5155 194.296 79.5101 194.582C79.5046 194.868 79.5699 195.151 79.7001 195.406C80.2564 196.518 80.8923 197.587 81.603 198.606C82.4026 199.755 83.3068 200.826 84.3039 201.807C84.5748 202.087 84.7504 202.447 84.8055 202.834C84.8606 203.22 84.7925 203.615 84.6108 203.96C84.2425 204.699 83.6901 205.807 83.0148 207.407C82.4902 208.681 82.0794 209.999 81.7871 211.345C81.7202 211.628 81.7254 211.923 81.8024 212.204C81.8794 212.484 82.0256 212.74 82.2275 212.949C82.4294 213.157 82.6805 213.311 82.9576 213.397C83.2347 213.482 83.5289 213.496 83.8128 213.438C85.1861 213.158 86.5395 212.788 87.8642 212.33C89.0776 211.928 90.2664 211.456 91.4245 210.915C91.7782 210.789 92.1617 210.775 92.5238 210.874C92.8858 210.973 93.209 211.18 93.4502 211.468Z" fill="#FF7751"/>
<path d="M99.2816 156.636C98.5114 157.385 97.7936 158.187 97.1332 159.036C96.5708 159.802 96.0582 160.603 95.5985 161.436C95.4868 161.629 95.426 161.847 95.4219 162.07C95.4177 162.293 95.4703 162.514 95.5747 162.711C95.6792 162.908 95.832 163.075 96.0187 163.197C96.2055 163.318 96.42 163.39 96.6421 163.405C97.6833 163.491 98.7289 163.512 99.7727 163.467C101.123 163.405 102.044 163.282 102.658 163.22C102.949 163.179 103.246 163.227 103.509 163.359C103.773 163.491 103.99 163.7 104.131 163.959C104.566 164.935 105.101 165.863 105.727 166.728C106.295 167.504 106.91 168.244 107.568 168.944C107.717 169.101 107.901 169.218 108.106 169.287C108.311 169.355 108.529 169.371 108.741 169.335C108.954 169.298 109.154 169.21 109.324 169.077C109.494 168.945 109.629 168.772 109.717 168.574C110.123 167.716 110.471 166.832 110.76 165.928C111.059 164.899 111.285 163.85 111.436 162.79C111.467 162.49 111.599 162.21 111.812 161.997C112.024 161.784 112.303 161.651 112.602 161.62C113.216 161.497 114.137 161.313 115.426 160.943C116.431 160.664 117.415 160.314 118.372 159.897C118.569 159.809 118.741 159.674 118.874 159.503C119.006 159.333 119.094 159.132 119.131 158.919C119.167 158.706 119.151 158.487 119.082 158.282C119.014 158.077 118.897 157.892 118.74 157.743C118.041 157.104 117.303 156.508 116.531 155.959C115.668 155.331 114.742 154.794 113.768 154.359C113.498 154.226 113.277 154.013 113.133 153.748C112.99 153.483 112.933 153.18 112.97 152.882C113.116 151.924 113.198 150.958 113.216 149.989C113.262 148.943 113.241 147.894 113.154 146.851C113.13 146.632 113.053 146.423 112.93 146.241C112.807 146.059 112.642 145.91 112.448 145.807C112.254 145.704 112.039 145.65 111.819 145.649C111.6 145.649 111.384 145.702 111.19 145.804C110.36 146.265 109.56 146.779 108.796 147.343C107.921 147.969 107.118 148.692 106.402 149.497C106.2 149.707 105.938 149.849 105.653 149.904C105.367 149.959 105.071 149.924 104.806 149.805C103.949 149.366 103.068 148.975 102.167 148.635C101.184 148.283 100.179 147.995 99.1588 147.774C98.9427 147.732 98.7196 147.745 98.5097 147.811C98.2998 147.878 98.1099 147.996 97.9574 148.155C97.8048 148.314 97.6944 148.509 97.6362 148.722C97.578 148.935 97.5739 149.159 97.6242 149.374C97.8599 150.42 98.1675 151.448 98.545 152.451C99.0361 153.682 99.4044 154.543 99.6499 155.097C99.7404 155.362 99.7538 155.647 99.6886 155.92C99.6234 156.192 99.4822 156.441 99.2816 156.636Z" fill="#FFAF51"/>
<path d="M186.386 164.328C185.945 164.683 185.534 165.074 185.158 165.497C184.827 165.889 184.519 166.3 184.237 166.728C184.168 166.828 184.125 166.945 184.113 167.066C184.102 167.187 184.122 167.31 184.171 167.421C184.22 167.533 184.298 167.629 184.395 167.702C184.493 167.775 184.608 167.821 184.729 167.836C185.158 167.898 185.772 167.959 186.447 168.021H187.982C188.139 168.021 188.293 168.067 188.425 168.155C188.556 168.243 188.658 168.367 188.718 168.513C188.898 169.055 189.146 169.572 189.455 170.051C189.762 170.544 190.069 170.975 190.314 171.344C190.383 171.442 190.477 171.521 190.586 171.57C190.694 171.62 190.815 171.64 190.934 171.627C191.053 171.615 191.167 171.57 191.263 171.499C191.359 171.427 191.434 171.331 191.481 171.221C191.766 170.78 191.993 170.304 192.156 169.805C192.379 169.271 192.544 168.714 192.647 168.144C192.682 167.983 192.766 167.838 192.887 167.728C193.008 167.617 193.16 167.548 193.322 167.528C193.839 167.479 194.351 167.396 194.857 167.282C195.417 167.169 195.97 167.025 196.514 166.851C196.624 166.808 196.722 166.74 196.8 166.652C196.878 166.564 196.935 166.459 196.965 166.345C196.995 166.231 196.997 166.111 196.972 165.996C196.947 165.881 196.896 165.773 196.821 165.682C196.483 165.303 196.113 164.953 195.716 164.636C195.275 164.268 194.802 163.938 194.304 163.651C194.165 163.575 194.055 163.456 193.988 163.312C193.922 163.168 193.904 163.006 193.936 162.851C194.053 162.345 194.135 161.83 194.182 161.313C194.261 160.742 194.281 160.164 194.243 159.589C194.243 159.474 194.213 159.36 194.157 159.258C194.1 159.157 194.019 159.072 193.921 159.01C193.823 158.949 193.711 158.913 193.596 158.907C193.48 158.9 193.365 158.924 193.261 158.974C192.786 159.172 192.334 159.42 191.91 159.713C191.43 160.02 190.978 160.37 190.56 160.759C190.448 160.871 190.3 160.939 190.142 160.95C189.984 160.962 189.827 160.915 189.701 160.82C189.245 160.546 188.774 160.299 188.289 160.082C187.777 159.827 187.243 159.621 186.693 159.466C186.577 159.434 186.454 159.431 186.336 159.458C186.219 159.484 186.109 159.54 186.018 159.619C185.927 159.698 185.857 159.799 185.814 159.912C185.771 160.025 185.757 160.146 185.772 160.266C185.855 160.828 185.978 161.384 186.14 161.928C186.275 162.429 186.439 162.923 186.631 163.405C186.706 163.563 186.723 163.743 186.678 163.912C186.633 164.081 186.529 164.228 186.386 164.328Z" fill="#FF7751"/>
<path d="M147.898 265.501C147.714 259.716 147.591 253.87 147.591 248.085C147.591 242.3 147.591 236.454 147.652 230.669C147.714 224.884 147.837 219.038 147.959 213.253C148.082 207.468 148.266 201.622 148.512 195.837C148.512 195.788 148.531 195.741 148.566 195.706C148.6 195.672 148.647 195.652 148.696 195.652C148.745 195.652 148.792 195.672 148.826 195.706C148.861 195.741 148.88 195.788 148.88 195.837C149.126 201.622 149.248 207.468 149.433 213.253C149.555 219.038 149.678 224.884 149.74 230.669C149.801 236.454 149.862 242.3 149.801 248.085C149.801 253.87 149.678 259.716 149.494 265.501C149.491 265.696 149.413 265.883 149.275 266.021C149.138 266.159 148.952 266.237 148.757 266.24C148.553 266.229 148.357 266.151 148.202 266.018C148.046 265.884 147.939 265.702 147.898 265.501Z" fill="#FF7751"/>
<path d="M135.989 269.378C134.516 266.978 133.166 264.578 131.815 262.116C130.465 259.655 129.237 257.131 128.009 254.67C126.782 252.147 125.554 249.623 124.388 247.1C123.221 244.577 122.055 241.992 120.95 239.408C120.889 239.346 120.95 239.223 121.012 239.161C121.027 239.15 121.045 239.142 121.064 239.139C121.082 239.136 121.102 239.138 121.12 239.144C121.138 239.15 121.154 239.16 121.168 239.174C121.181 239.188 121.19 239.205 121.196 239.223C122.669 241.623 124.142 244.023 125.554 246.423C126.966 248.823 128.316 251.285 129.667 253.747C131.017 256.208 132.368 258.67 133.657 261.132C134.946 263.655 136.174 266.116 137.278 268.701C137.319 268.79 137.342 268.886 137.346 268.984C137.35 269.081 137.334 269.179 137.3 269.271C137.265 269.362 137.213 269.446 137.146 269.517C137.08 269.589 136.999 269.646 136.91 269.686C136.745 269.75 136.563 269.754 136.394 269.698C136.226 269.642 136.083 269.529 135.989 269.378Z" fill="#FF7751"/>
<path d="M160.052 268.701C161.157 266.117 162.385 263.593 163.674 261.132C164.963 258.609 166.313 256.209 167.664 253.747C169.014 251.285 170.426 248.885 171.777 246.424C173.188 244.023 174.662 241.623 176.135 239.223C176.196 239.162 176.258 239.1 176.38 239.162C176.442 239.223 176.503 239.285 176.442 239.346C175.337 241.931 174.171 244.516 173.004 247.039C171.838 249.562 170.61 252.085 169.383 254.608C168.155 257.132 166.866 259.593 165.577 262.055C164.226 264.517 162.876 266.978 161.403 269.317C161.293 269.483 161.123 269.601 160.929 269.647C160.736 269.693 160.532 269.663 160.359 269.563C160.278 269.532 160.204 269.484 160.143 269.422C160.083 269.36 160.036 269.285 160.007 269.203C159.978 269.121 159.967 269.034 159.974 268.947C159.982 268.861 160.009 268.777 160.052 268.701Z" fill="#FF7751"/>
</svg>
