<svg width="375" height="552" viewBox="0 0 375 552" fill="none" xmlns="http://www.w3.org/2000/svg">
<g filter="url(#filter0_di)">
<path d="M64.4183 201V148.636H99.0888V157.764H75.4893V170.241H96.7876V179.369H75.4893V201H64.4183ZM106.331 201V161.727H117.223V201H106.331ZM111.828 156.665C110.209 156.665 108.82 156.128 107.661 155.054C106.501 153.963 105.922 152.659 105.922 151.142C105.922 149.642 106.501 148.355 107.661 147.281C108.82 146.19 110.2 145.645 111.803 145.645C113.439 145.645 114.828 146.19 115.97 147.281C117.129 148.355 117.709 149.642 117.709 151.142C117.709 152.659 117.129 153.963 115.97 155.054C114.828 156.128 113.447 156.665 111.828 156.665ZM135.817 189.699L135.843 176.634H137.428L150.008 161.727H162.511L145.61 181.466H143.028L135.817 189.699ZM125.948 201V148.636H136.84V201H125.948ZM150.494 201L138.937 183.895L146.198 176.199L163.252 201H150.494ZM167.854 201V161.727H178.746V201H167.854ZM173.352 156.665C171.732 156.665 170.343 156.128 169.184 155.054C168.025 153.963 167.445 152.659 167.445 151.142C167.445 149.642 168.025 148.355 169.184 147.281C170.343 146.19 171.724 145.645 173.326 145.645C174.962 145.645 176.352 146.19 177.494 147.281C178.653 148.355 179.232 149.642 179.232 151.142C179.232 152.659 178.653 153.963 177.494 155.054C176.352 156.128 174.971 156.665 173.352 156.665ZM187.472 201V161.727H198.031V168.58H198.44C199.156 166.142 200.358 164.301 202.045 163.057C203.733 161.795 205.676 161.165 207.875 161.165C208.42 161.165 209.009 161.199 209.639 161.267C210.27 161.335 210.824 161.429 211.301 161.548V171.213C210.79 171.06 210.082 170.923 209.179 170.804C208.276 170.685 207.449 170.625 206.699 170.625C205.097 170.625 203.665 170.974 202.403 171.673C201.159 172.355 200.17 173.31 199.438 174.537C198.722 175.764 198.364 177.179 198.364 178.781V201H187.472ZM270.21 161.727L256.48 201H244.207L230.477 161.727H241.983L250.139 189.827H250.548L258.679 161.727H270.21ZM292.346 201.767C288.306 201.767 284.829 200.949 281.914 199.312C279.016 197.659 276.783 195.324 275.215 192.307C273.647 189.273 272.863 185.685 272.863 181.543C272.863 177.503 273.647 173.957 275.215 170.906C276.783 167.855 278.991 165.477 281.837 163.773C284.701 162.068 288.059 161.216 291.911 161.216C294.502 161.216 296.914 161.634 299.147 162.469C301.397 163.287 303.357 164.523 305.028 166.176C306.715 167.83 308.028 169.909 308.965 172.415C309.903 174.903 310.371 177.818 310.371 181.159V184.151H277.21V177.401H300.119C300.119 175.832 299.778 174.443 299.096 173.233C298.414 172.023 297.468 171.077 296.258 170.395C295.065 169.696 293.675 169.347 292.09 169.347C290.437 169.347 288.971 169.73 287.692 170.497C286.431 171.247 285.442 172.261 284.727 173.54C284.011 174.801 283.644 176.207 283.627 177.759V184.176C283.627 186.119 283.985 187.798 284.701 189.213C285.434 190.628 286.465 191.719 287.795 192.486C289.124 193.253 290.701 193.636 292.525 193.636C293.735 193.636 294.843 193.466 295.849 193.125C296.854 192.784 297.715 192.273 298.431 191.591C299.147 190.909 299.692 190.074 300.067 189.085L310.141 189.75C309.63 192.17 308.582 194.284 306.996 196.091C305.428 197.881 303.4 199.278 300.911 200.284C298.44 201.273 295.585 201.767 292.346 201.767ZM13.7244 239.455H24.7472L35.3608 259.5H35.8153L46.429 239.455H57.4517L40.4744 269.545V286H30.7017V269.545L13.7244 239.455ZM65.8494 286.659C63.6222 286.659 61.6373 286.273 59.8949 285.5C58.1525 284.712 56.7737 283.553 55.7585 282.023C54.7585 280.477 54.2585 278.553 54.2585 276.25C54.2585 274.311 54.6146 272.682 55.3267 271.364C56.0388 270.045 57.0085 268.985 58.2358 268.182C59.4631 267.379 60.857 266.773 62.4176 266.364C63.9934 265.955 65.6449 265.667 67.3722 265.5C69.4025 265.288 71.0388 265.091 72.2812 264.909C73.5237 264.712 74.4252 264.424 74.9858 264.045C75.5464 263.667 75.8267 263.106 75.8267 262.364V262.227C75.8267 260.788 75.3722 259.674 74.4631 258.886C73.5691 258.098 72.2964 257.705 70.6449 257.705C68.9025 257.705 67.5161 258.091 66.4858 258.864C65.4555 259.621 64.7737 260.576 64.4403 261.727L55.4858 261C55.9403 258.879 56.8343 257.045 58.1676 255.5C59.5009 253.939 61.2206 252.742 63.3267 251.909C65.4479 251.061 67.9025 250.636 70.6903 250.636C72.6297 250.636 74.4858 250.864 76.2585 251.318C78.0464 251.773 79.6297 252.477 81.0085 253.432C82.4025 254.386 83.5009 255.614 84.304 257.114C85.107 258.598 85.5085 260.379 85.5085 262.455V286H76.3267V281.159H76.054C75.4934 282.25 74.7434 283.212 73.804 284.045C72.8646 284.864 71.7358 285.508 70.4176 285.977C69.0994 286.432 67.5767 286.659 65.8494 286.659ZM68.6222 279.977C70.0464 279.977 71.304 279.697 72.3949 279.136C73.4858 278.561 74.3419 277.788 74.9631 276.818C75.5843 275.848 75.8949 274.75 75.8949 273.523V269.818C75.5919 270.015 75.1752 270.197 74.6449 270.364C74.1297 270.515 73.5464 270.659 72.8949 270.795C72.2434 270.917 71.5919 271.03 70.9403 271.136C70.2888 271.227 69.6979 271.311 69.1676 271.386C68.0313 271.553 67.0388 271.818 66.1903 272.182C65.3419 272.545 64.6828 273.038 64.2131 273.659C63.7434 274.265 63.5085 275.023 63.5085 275.932C63.5085 277.25 63.9858 278.258 64.9403 278.955C65.91 279.636 67.1373 279.977 68.6222 279.977ZM111.588 251.091V258.364H90.5653V251.091H111.588ZM95.3381 242.727H105.02V275.273C105.02 276.167 105.156 276.864 105.429 277.364C105.702 277.848 106.08 278.189 106.565 278.386C107.065 278.583 107.641 278.682 108.293 278.682C108.747 278.682 109.202 278.644 109.656 278.568C110.111 278.477 110.459 278.409 110.702 278.364L112.224 285.568C111.74 285.72 111.058 285.894 110.179 286.091C109.3 286.303 108.232 286.432 106.974 286.477C104.641 286.568 102.596 286.258 100.838 285.545C99.0956 284.833 97.7396 283.727 96.7699 282.227C95.8002 280.727 95.3229 278.833 95.3381 276.545V242.727ZM117.895 286V251.091H127.577V286H117.895ZM135.332 286V251.091H144.719V257.182H145.082C145.719 255.015 146.787 253.379 148.287 252.273C149.787 251.152 151.514 250.591 153.469 250.591C153.954 250.591 154.476 250.621 155.037 250.682C155.598 250.742 156.09 250.826 156.514 250.932V259.523C156.06 259.386 155.431 259.265 154.628 259.159C153.825 259.053 153.09 259 152.423 259C150.999 259 149.726 259.311 148.605 259.932C147.499 260.538 146.62 261.386 145.969 262.477C145.332 263.568 145.014 264.826 145.014 266.25V286H135.332ZM161.52 286V251.091H171.202V286H161.52ZM178.957 286V251.091H188.185V257.25H188.594C189.321 255.205 190.533 253.591 192.23 252.409C193.927 251.227 195.957 250.636 198.321 250.636C200.715 250.636 202.753 251.235 204.435 252.432C206.116 253.614 207.238 255.22 207.798 257.25H208.162C208.874 255.25 210.162 253.652 212.026 252.455C213.904 251.242 216.124 250.636 218.685 250.636C221.942 250.636 224.586 251.674 226.616 253.75C228.662 255.811 229.685 258.735 229.685 262.523V286H220.026V264.432C220.026 262.492 219.51 261.038 218.48 260.068C217.45 259.098 216.162 258.614 214.616 258.614C212.859 258.614 211.488 259.174 210.503 260.295C209.518 261.402 209.026 262.864 209.026 264.682V286H199.639V264.227C199.639 262.515 199.147 261.152 198.162 260.136C197.192 259.121 195.912 258.614 194.321 258.614C193.245 258.614 192.276 258.886 191.412 259.432C190.563 259.962 189.889 260.712 189.389 261.682C188.889 262.636 188.639 263.758 188.639 265.045V286H178.957ZM253.105 286.682C249.529 286.682 246.454 285.924 243.878 284.409C241.317 282.879 239.348 280.758 237.969 278.045C236.605 275.333 235.923 272.212 235.923 268.682C235.923 265.106 236.613 261.97 237.991 259.273C239.385 256.561 241.363 254.447 243.923 252.932C246.484 251.402 249.529 250.636 253.06 250.636C256.105 250.636 258.772 251.189 261.06 252.295C263.348 253.402 265.158 254.955 266.491 256.955C267.825 258.955 268.56 261.303 268.696 264H259.56C259.302 262.258 258.62 260.856 257.514 259.795C256.423 258.72 254.991 258.182 253.219 258.182C251.719 258.182 250.408 258.591 249.287 259.409C248.181 260.212 247.317 261.386 246.696 262.932C246.075 264.477 245.764 266.348 245.764 268.545C245.764 270.773 246.067 272.667 246.673 274.227C247.295 275.788 248.166 276.977 249.287 277.795C250.408 278.614 251.719 279.023 253.219 279.023C254.325 279.023 255.317 278.795 256.196 278.341C257.09 277.886 257.825 277.227 258.401 276.364C258.991 275.485 259.378 274.432 259.56 273.205H268.696C268.545 275.871 267.817 278.22 266.514 280.25C265.226 282.265 263.446 283.841 261.173 284.977C258.901 286.114 256.211 286.682 253.105 286.682ZM274.895 286V251.091H284.577V286H274.895ZM302.014 239.455V286H292.332V239.455H302.014ZM309.77 286V251.091H319.452V286H309.77ZM335.98 275.955L336.003 264.341H337.412L348.594 251.091H359.707L344.685 268.636H342.389L335.98 275.955ZM327.207 286V239.455H336.889V286H327.207ZM349.026 286L338.753 270.795L345.207 263.955L360.366 286H349.026ZM108.803 413V343.182H123.564V400.83H153.496V413H108.803ZM162.999 413V360.636H177.521V413H162.999ZM170.328 353.886C168.169 353.886 166.317 353.17 164.771 351.739C163.226 350.284 162.453 348.545 162.453 346.523C162.453 344.523 163.226 342.807 164.771 341.375C166.317 339.92 168.158 339.193 170.294 339.193C172.476 339.193 174.328 339.92 175.851 341.375C177.396 342.807 178.169 344.523 178.169 346.523C178.169 348.545 177.396 350.284 175.851 351.739C174.328 353.17 172.487 353.886 170.328 353.886ZM212.746 433.386C208.041 433.386 204.007 432.75 200.643 431.477C197.303 430.205 194.643 428.489 192.666 426.33C190.689 424.17 189.405 421.773 188.814 419.136L202.246 417.33C202.655 418.284 203.303 419.182 204.189 420.023C205.075 420.886 206.246 421.591 207.7 422.136C209.178 422.682 210.973 422.955 213.087 422.955C216.246 422.955 218.848 422.205 220.893 420.705C222.962 419.205 223.996 416.739 223.996 413.307V403.727H223.382C222.746 405.182 221.791 406.557 220.518 407.852C219.246 409.148 217.609 410.205 215.609 411.023C213.609 411.841 211.223 412.25 208.45 412.25C204.518 412.25 200.939 411.341 197.712 409.523C194.507 407.682 191.95 404.875 190.041 401.102C188.155 397.307 187.212 392.511 187.212 386.716C187.212 380.784 188.178 375.83 190.109 371.852C192.041 367.875 194.609 364.898 197.814 362.92C201.041 360.943 204.575 359.955 208.416 359.955C211.348 359.955 213.803 360.455 215.78 361.455C217.757 362.432 219.348 363.659 220.553 365.136C221.78 366.591 222.723 368.023 223.382 369.432H223.928V360.636H238.348V413.511C238.348 417.875 237.257 421.523 235.075 424.455C232.893 427.409 229.871 429.636 226.007 431.136C222.166 432.636 217.746 433.386 212.746 433.386ZM213.053 401.341C215.393 401.341 217.371 400.761 218.984 399.602C220.621 398.42 221.871 396.739 222.734 394.557C223.621 392.352 224.064 389.716 224.064 386.648C224.064 383.58 223.632 380.92 222.768 378.67C221.905 376.398 220.655 374.636 219.018 373.386C217.382 372.136 215.393 371.511 213.053 371.511C210.666 371.511 208.655 372.159 207.018 373.455C205.382 374.727 204.143 376.5 203.303 378.773C202.462 381.045 202.041 383.67 202.041 386.648C202.041 389.67 202.462 392.284 203.303 394.489C204.166 396.67 205.405 398.364 207.018 399.568C208.655 400.75 210.666 401.341 213.053 401.341ZM249.905 413V360.636H264.428V413H249.905ZM257.234 353.886C255.075 353.886 253.223 353.17 251.678 351.739C250.132 350.284 249.359 348.545 249.359 346.523C249.359 344.523 250.132 342.807 251.678 341.375C253.223 339.92 255.064 339.193 257.2 339.193C259.382 339.193 261.234 339.92 262.757 341.375C264.303 342.807 265.075 344.523 265.075 346.523C265.075 348.545 264.303 350.284 262.757 351.739C261.234 353.17 259.393 353.886 257.234 353.886Z" fill="url(#paint0_linear)"/>
</g>
<path d="M137.2 0.372246L120.892 24.781C120.871 24.8134 120.842 24.8399 120.808 24.8582C120.775 24.8766 120.737 24.8861 120.698 24.886H112.779C112.74 24.8861 112.701 24.8765 112.666 24.8582C112.632 24.84 112.602 24.8135 112.58 24.781L101.212 7.77363L101.07 7.56366H92.4356C92.3956 7.56416 92.3561 7.55444 92.3208 7.53541C92.2855 7.51638 92.2556 7.48865 92.2339 7.45481C92.2121 7.42098 92.1992 7.38214 92.1964 7.34193C92.1936 7.30171 92.2009 7.26143 92.2177 7.22484L95.4006 0.138418C95.4198 0.0966297 95.4506 0.0613287 95.4893 0.0367733C95.5279 0.0122178 95.5728 -0.000543263 95.6185 2.95325e-05H106.953C106.99 0.000391182 107.026 0.00917414 107.059 0.0257114C107.091 0.0422486 107.12 0.0661053 107.142 0.0954696L116.364 12.727L116.748 13.2519L117.132 12.727L126.349 0.0954696C126.372 0.0662484 126.402 0.0425627 126.435 0.0260751C126.469 0.00958744 126.506 0.000697577 126.543 2.95325e-05H136.996C137.04 -0.00137105 137.083 0.00940153 137.121 0.0311578C137.159 0.0529141 137.19 0.0848077 137.211 0.123317C137.232 0.161827 137.242 0.205454 137.24 0.249382C137.238 0.29331 137.225 0.335829 137.2 0.372246V0.372246Z" fill="url(#paint1_linear)"/>
<path d="M136.551 3.39295L129.318 25.1247C129.313 25.1433 129.305 25.1611 129.295 25.1772L118.6 41.5833L118.169 41.402L121.532 25.5971C121.539 25.568 121.552 25.5405 121.569 25.516L136.385 3.30705C136.399 3.28932 136.418 3.27692 136.44 3.27203C136.461 3.26714 136.484 3.27006 136.504 3.28028C136.523 3.29051 136.539 3.30739 136.548 3.32798C136.556 3.34857 136.557 3.37156 136.551 3.39295V3.39295Z" fill="url(#paint2_linear)"/>
<path d="M115.564 41.254L115.133 41.4401L104.518 25.2153C104.5 25.1896 104.487 25.1603 104.481 25.1294L101.947 11.3574C101.936 11.3029 101.944 11.2464 101.97 11.1975C101.996 11.1486 102.038 11.1104 102.09 11.0894C102.141 11.0685 102.197 11.0662 102.25 11.0829C102.302 11.0996 102.348 11.1342 102.378 11.1808L111.945 25.4969C111.963 25.5205 111.974 25.5485 111.978 25.578L115.564 41.254Z" fill="url(#paint3_linear)"/>
<path d="M103.187 24.8861H96.1064C96.0537 24.8863 96.0024 24.8685 95.9611 24.8356C95.9198 24.8026 95.8908 24.7565 95.879 24.7047L91.9998 8.81396C91.9921 8.77871 91.9922 8.74217 92.0003 8.70699C92.0083 8.6718 92.024 8.63886 92.0462 8.61053C92.0684 8.58221 92.0966 8.55923 92.1287 8.54324C92.1608 8.52725 92.1961 8.51866 92.2319 8.5181H100.256C100.311 8.5183 100.364 8.53797 100.407 8.5737C100.449 8.60944 100.478 8.65898 100.488 8.71375L103.419 24.6045C103.426 24.6389 103.424 24.6741 103.416 24.7079C103.407 24.7417 103.391 24.7731 103.369 24.7999C103.347 24.8268 103.319 24.8484 103.288 24.8633C103.256 24.8782 103.222 24.8859 103.187 24.8861V24.8861Z" fill="url(#paint4_linear)"/>
<path d="M120.215 25.8404C120.25 25.8395 120.286 25.8468 120.318 25.8617C120.35 25.8765 120.378 25.8986 120.401 25.9263C120.423 25.9539 120.439 25.9863 120.447 26.0211C120.455 26.0558 120.455 26.092 120.447 26.1268L117.07 41.9937H116.71L113.063 26.1029C113.055 26.0679 113.055 26.0316 113.063 25.9966C113.071 25.9616 113.087 25.9289 113.109 25.901C113.132 25.873 113.16 25.8505 113.192 25.835C113.224 25.8196 113.259 25.8116 113.295 25.8118L120.215 25.8404Z" fill="url(#paint5_linear)"/>
<path d="M116.991 44.9977C117.718 44.9759 118.294 44.5035 118.278 43.9423C118.261 43.3812 117.659 42.944 116.932 42.9657C116.205 42.9874 115.629 43.4599 115.645 44.0211C115.662 44.5822 116.265 45.0194 116.991 44.9977Z" fill="#E62A3D"/>
<path d="M173.4 8.72332L160.575 34.8746C160.526 34.9722 160.458 35.0532 160.375 35.1098C160.293 35.1665 160.2 35.1968 160.105 35.1978H154.162C154.033 35.1983 153.908 35.1436 153.809 35.0436C153.711 34.9435 153.647 34.8048 153.627 34.6527L150.941 14.9356C150.92 14.7843 150.855 14.6467 150.757 14.547C150.66 14.4473 150.535 14.3919 150.407 14.3906H148.337C148.241 14.3917 148.147 14.363 148.064 14.3072C147.981 14.2514 147.912 14.1705 147.863 14.0727C147.815 13.9749 147.789 13.8636 147.788 13.7501C147.787 13.6365 147.812 13.5247 147.859 13.4259L150.269 8.10113C150.314 7.99719 150.383 7.91023 150.467 7.8498C150.552 7.78938 150.648 7.75785 150.747 7.75868H154.798C156.013 7.75868 156.674 8.47734 156.771 9.91947L158.156 24.0803C158.17 24.2176 158.22 24.3461 158.3 24.4468C158.379 24.5476 158.484 24.6154 158.598 24.6402C158.712 24.665 158.83 24.6456 158.934 24.5847C159.038 24.5239 159.124 24.4249 159.177 24.3022L166.246 8.10595C166.292 8.00143 166.362 7.91389 166.447 7.85271C166.532 7.79154 166.629 7.75903 166.728 7.75868H172.934C173.029 7.76004 173.121 7.79064 173.202 7.84747C173.284 7.9043 173.351 7.9854 173.398 8.08278C173.445 8.18015 173.47 8.29044 173.471 8.40276C173.471 8.51509 173.447 8.62557 173.4 8.72332V8.72332Z" fill="#353535"/>
<path d="M192.412 30.3166L190.33 34.8601C190.283 34.9624 190.214 35.0478 190.13 35.1072C190.046 35.1667 189.95 35.1979 189.852 35.1977H185.145C183.354 35.1977 182.426 34.7925 182.139 33.6784C182.109 33.5743 182.057 33.4809 181.988 33.4073C181.92 33.3336 181.837 33.282 181.746 33.2574C181.656 33.2327 181.563 33.2359 181.474 33.2665C181.385 33.2971 181.304 33.3542 181.239 33.4324C180.629 34.1385 179.905 34.6892 179.11 35.0508C178.315 35.4124 177.467 35.5772 176.617 35.5353C172.351 35.5353 169.297 30.9099 170.188 24.6397C171.363 15.9049 179.129 11.5496 189.317 13.5464L189.722 13.6284C189.81 13.6442 189.893 13.6855 189.963 13.7485C190.034 13.8115 190.091 13.8944 190.129 13.9897C190.166 14.0851 190.184 14.19 190.179 14.2952C190.175 14.4005 190.149 14.5027 190.103 14.593L188.009 18.8664C187.956 18.9756 187.878 19.0639 187.783 19.1205C187.689 19.1771 187.583 19.1994 187.478 19.1847L186.716 19.0786C180.786 18.4082 177.156 20.4532 176.362 24.6397C175.787 27.6349 176.767 29.6076 178.792 29.6076C180.923 29.6076 182.293 27.6783 182.961 23.8825L183.443 21.1767C183.469 21.0316 183.536 20.9013 183.632 20.8074C183.729 20.7136 183.849 20.6618 183.974 20.6606H189.038C189.118 20.6606 189.198 20.6822 189.271 20.7237C189.344 20.7652 189.409 20.8256 189.459 20.9005C189.51 20.9754 189.547 21.0629 189.565 21.1566C189.584 21.2503 189.585 21.3478 189.568 21.442L188.304 28.5803C188.288 28.6748 188.29 28.7724 188.309 28.866C188.328 28.9597 188.365 29.047 188.416 29.1218C188.467 29.1966 188.532 29.2569 188.605 29.2983C188.678 29.3398 188.758 29.3614 188.839 29.3616H191.95C192.043 29.3647 192.134 29.396 192.213 29.4527C192.293 29.5093 192.359 29.5894 192.406 29.6852C192.452 29.781 192.477 29.8894 192.478 29.9999C192.479 30.1105 192.456 30.2195 192.412 30.3166V30.3166Z" fill="#353535"/>
<path d="M227.494 30.3119L225.436 34.8553C225.389 34.9582 225.32 35.0443 225.236 35.1046C225.152 35.1648 225.056 35.197 224.958 35.1978H219.586C216.973 35.1978 216.212 34.3248 216.815 30.9534L218.12 23.7186C218.663 20.5739 218.217 19.2089 216.244 19.2089C214.271 19.2089 213.408 20.4581 212.772 24.061L210.86 34.672C210.834 34.8163 210.767 34.9454 210.67 35.0383C210.574 35.1312 210.454 35.1824 210.33 35.1833H205.262C205.181 35.1824 205.102 35.1602 205.029 35.1185C204.956 35.0767 204.892 35.0163 204.842 34.9416C204.791 34.8669 204.755 34.7798 204.736 34.6865C204.716 34.5932 204.715 34.496 204.731 34.4019L206.631 23.7379C207.202 20.5932 206.789 19.2282 204.849 19.2282C202.823 19.2282 201.952 20.5932 201.284 24.4565L199.432 34.672C199.406 34.8163 199.339 34.9454 199.242 35.0383C199.146 35.1312 199.026 35.1824 198.902 35.1833H193.838C193.757 35.1833 193.677 35.1617 193.604 35.1202C193.531 35.0787 193.467 35.0183 193.416 34.9434C193.365 34.8685 193.329 34.781 193.31 34.6873C193.291 34.5936 193.29 34.4961 193.307 34.4019L195.859 20.1205C195.877 20.026 195.876 19.9279 195.858 19.8336C195.839 19.7394 195.803 19.6512 195.752 19.5758C195.702 19.5003 195.637 19.4394 195.564 19.3976C195.49 19.3558 195.41 19.3342 195.329 19.3343H193.858C193.763 19.3355 193.669 19.3067 193.586 19.2509C193.503 19.1951 193.433 19.1143 193.385 19.0165C193.336 18.9187 193.311 18.8074 193.31 18.6939C193.309 18.5803 193.333 18.4685 193.38 18.3697L195.462 13.8263C195.509 13.7242 195.579 13.6391 195.663 13.5797C195.747 13.5204 195.843 13.4889 195.94 13.4886H199.692C201.336 13.4886 202.252 13.8311 202.552 14.897C202.579 15.0014 202.627 15.096 202.693 15.1722C202.759 15.2484 202.839 15.3037 202.928 15.333C203.016 15.3623 203.109 15.3646 203.198 15.3399C203.288 15.3151 203.37 15.264 203.439 15.1912C204.649 13.8633 206.225 13.1099 207.871 13.0738C210.5 13.0738 211.954 14.1494 212.594 16.0353C212.629 16.1366 212.684 16.2257 212.756 16.2942C212.827 16.3626 212.912 16.4082 213.003 16.4266C213.093 16.445 213.186 16.4355 213.273 16.3991C213.359 16.3627 213.437 16.3005 213.497 16.2185C214.204 15.2085 215.092 14.4005 216.096 13.8545C217.1 13.3085 218.195 13.0384 219.299 13.0642C224.103 13.0642 225.602 16.4742 224.326 23.6366L223.447 28.5804C223.431 28.6745 223.432 28.7716 223.451 28.8649C223.47 28.9582 223.507 29.0454 223.557 29.12C223.608 29.1947 223.672 29.2551 223.745 29.2969C223.817 29.3387 223.897 29.3608 223.977 29.3617H227.016C227.109 29.3619 227.201 29.391 227.283 29.446C227.364 29.5011 227.432 29.5803 227.48 29.6759C227.528 29.7715 227.555 29.8804 227.557 29.9918C227.56 30.1032 227.538 30.2135 227.494 30.3119V30.3119Z" fill="#353535"/>
<path d="M246.064 16.2476C247.814 18.2926 248.664 21.2637 247.976 25.1897C246.76 32.6174 241.992 35.6898 237.119 35.6898C231.853 35.6898 227.603 31.7493 228.972 23.5595C229.135 22.7288 229.37 21.9206 229.673 21.1479C229.717 21.0367 229.786 20.9426 229.873 20.8768C229.96 20.811 230.06 20.7762 230.163 20.7765H235.223C235.319 20.7749 235.414 20.8035 235.497 20.8596C235.581 20.9156 235.651 20.997 235.699 21.0956C235.748 21.1941 235.774 21.3062 235.774 21.4205C235.774 21.5347 235.749 21.6471 235.701 21.746C235.292 22.6501 235.008 23.6275 234.863 24.6399C234.457 27.6737 235.563 29.6078 237.698 29.6078C240.052 29.6078 241.551 27.7123 241.996 24.4132C242.219 22.783 242.057 21.2299 241.296 20.3617C240.656 19.5466 239.509 19.3344 237.727 19.3344H229.438C229.342 19.3371 229.248 19.3093 229.164 19.2539C229.08 19.1984 229.01 19.1174 228.962 19.0191C228.913 18.9208 228.887 18.8088 228.887 18.6946C228.887 18.5805 228.912 18.4683 228.96 18.3698L231.014 13.8263C231.06 13.7231 231.129 13.6367 231.213 13.5764C231.298 13.5161 231.394 13.4841 231.492 13.4839H238.379C242.021 13.5176 244.411 14.3906 246.064 16.2476Z" fill="#353535"/>
<path d="M250.046 29.6945C250.093 29.5934 250.163 29.5092 250.247 29.4507C250.331 29.3922 250.426 29.3615 250.524 29.3617H257.269C263.386 29.3617 264.285 23.5739 259.234 20.1977C259.109 20.1163 258.964 20.0954 258.827 20.1395C258.69 20.1836 258.573 20.2892 258.5 20.434L256.852 23.7572C256.803 23.8526 256.735 23.9315 256.653 23.9864C256.571 24.0413 256.479 24.0703 256.386 24.0707H251.342C251.247 24.0708 251.154 24.0411 251.072 23.9846C250.99 23.9281 250.922 23.8468 250.875 23.749C250.827 23.6511 250.803 23.5401 250.803 23.4272C250.803 23.3143 250.829 23.2036 250.876 23.106L256.888 10.9565C256.937 10.8622 257.006 10.7847 257.087 10.7314C257.169 10.6782 257.261 10.651 257.354 10.6526H262.568C262.662 10.6548 262.753 10.686 262.834 10.7431C262.915 10.8003 262.982 10.8815 263.029 10.9787C263.075 11.076 263.1 11.1859 263.1 11.2979C263.1 11.4098 263.076 11.5198 263.029 11.6172L262.033 13.5176C261.995 13.5912 261.971 13.673 261.96 13.7581C261.95 13.8432 261.953 13.93 261.971 14.0134C261.989 14.0968 262.02 14.1752 262.063 14.2441C262.107 14.313 262.161 14.371 262.223 14.4147C268.045 18.4613 269.851 24.5916 267.271 28.3392C267.206 28.4355 267.166 28.5515 267.155 28.6738C267.144 28.7961 267.162 28.9197 267.207 29.0302C267.253 29.1407 267.324 29.2337 267.411 29.2984C267.499 29.363 267.601 29.3967 267.704 29.3955H269.863C269.958 29.3957 270.052 29.4254 270.134 29.4816C270.216 29.5377 270.285 29.6184 270.333 29.7157C270.381 29.813 270.407 29.9236 270.409 30.0366C270.41 30.1496 270.387 30.2611 270.341 30.3601L268.263 34.865C268.217 34.9669 268.149 35.0521 268.065 35.1116C267.982 35.171 267.887 35.2025 267.789 35.2026H248.442C248.347 35.2029 248.253 35.1735 248.171 35.1174C248.088 35.0612 248.019 34.9803 247.972 34.8826C247.924 34.785 247.898 34.674 247.897 34.5609C247.897 34.4478 247.921 34.3364 247.968 34.2379L250.046 29.6945Z" fill="#353535"/>
<path d="M270.921 31.7106C271.301 29.3617 272.991 28.3729 274.773 28.3729C276.714 28.3729 278.148 29.627 277.734 32.2025C277.35 34.5514 275.632 35.5354 273.882 35.5354C271.909 35.5354 270.54 34.2862 270.921 31.7106ZM275.51 7.75867H281.478C281.562 7.75882 281.646 7.78258 281.721 7.82806C281.797 7.87353 281.863 7.93946 281.913 8.02056C281.964 8.10166 281.997 8.19568 282.012 8.2951C282.026 8.39451 282.021 8.49656 281.996 8.59308L277.625 25.643C277.595 25.7799 277.528 25.9013 277.434 25.9884C277.341 26.0755 277.225 26.1236 277.107 26.1253H273.866C273.789 26.1253 273.713 26.1059 273.643 26.0684C273.573 26.0309 273.511 25.9762 273.46 25.9078C273.409 25.8394 273.371 25.759 273.348 25.6718C273.325 25.5846 273.318 25.4926 273.327 25.4019L274.984 8.35674C274.994 8.1971 275.053 8.04755 275.15 7.93706C275.248 7.82657 275.376 7.763 275.51 7.75867V7.75867Z" fill="#353535"/>
<path fill-rule="evenodd" clip-rule="evenodd" d="M313.882 27.8756C317.199 27.8756 319.996 25.6518 320.865 22.6138H320.764V18.6138H320.865C319.996 15.5758 317.199 13.352 313.882 13.352C309.871 13.352 306.62 16.6032 306.62 20.6138C306.62 24.6244 309.871 27.8756 313.882 27.8756ZM313.882 31.8756C319.419 31.8756 324.023 27.8794 324.967 22.6138H446.029C449.342 22.6138 452.029 25.3001 452.029 28.6138V181.834C452.029 187.357 456.506 191.834 462.029 191.834H573.663C576.976 191.834 579.663 194.521 579.663 197.834V367.977C579.663 371.291 576.976 373.977 573.663 373.977H340.026C334.503 373.977 330.026 378.454 330.026 383.977V532.811C330.026 536.124 327.339 538.811 324.026 538.811H293.809C293.257 533.106 288.449 528.647 282.6 528.647C276.38 528.647 271.338 533.689 271.338 539.909C271.338 546.128 276.38 551.17 282.6 551.17C287.816 551.17 292.204 547.624 293.484 542.811H324.026C329.549 542.811 334.026 538.334 334.026 532.811V383.977C334.026 380.663 336.712 377.977 340.026 377.977H573.663C579.185 377.977 583.663 373.5 583.663 367.977V197.834C583.663 192.312 579.185 187.834 573.663 187.834H462.029C458.715 187.834 456.029 185.148 456.029 181.834V28.6138C456.029 23.0909 451.552 18.6138 446.029 18.6138H324.967C324.023 13.3481 319.419 9.35196 313.882 9.35196C307.662 9.35196 302.62 14.394 302.62 20.6138C302.62 26.8335 307.662 31.8756 313.882 31.8756ZM-77.0302 28.6138C-77.0302 25.3001 -74.3439 22.6138 -71.0302 22.6138H50.0315C50.9753 27.8794 55.5791 31.8756 61.1162 31.8756C67.336 31.8756 72.3781 26.8335 72.3781 20.6138C72.3781 14.394 67.336 9.35196 61.1162 9.35196C55.5791 9.35196 50.9753 13.3481 50.0315 18.6138H-71.0302C-76.553 18.6138 -81.0302 23.0909 -81.0302 28.6138V181.541C-81.0302 184.855 -83.7165 187.541 -87.0302 187.541H-198.664C-204.187 187.541 -208.664 192.018 -208.664 197.541V367.361C-208.664 372.884 -204.187 377.361 -198.664 377.361H34.9728C38.2865 377.361 40.9728 380.047 40.9728 383.361V531.909C40.9728 537.431 45.45 541.909 50.9728 541.909H81.3143C82.258 547.174 86.8618 551.17 92.399 551.17C98.6187 551.17 103.661 546.128 103.661 539.909C103.661 533.689 98.6187 528.647 92.399 528.647C86.8618 528.647 82.258 532.643 81.3143 537.909H50.9728C47.6591 537.909 44.9728 535.222 44.9728 531.909V383.361C44.9728 377.838 40.4957 373.361 34.9728 373.361H-198.664C-201.978 373.361 -204.664 370.675 -204.664 367.361V197.541C-204.664 194.227 -201.978 191.541 -198.664 191.541H-87.0302C-81.5073 191.541 -77.0302 187.064 -77.0302 181.541V28.6138ZM54.1333 22.6138H54.2346V18.6138H54.1333C55.0018 15.5758 57.7993 13.352 61.1162 13.352C65.1268 13.352 68.3781 16.6032 68.3781 20.6138C68.3781 24.6244 65.1268 27.8756 61.1162 27.8756C57.7993 27.8756 55.0018 25.6518 54.1333 22.6138ZM85.2046 540.902V538.915C85.6891 535.374 88.7255 532.647 92.399 532.647C96.4096 532.647 99.6608 535.898 99.6608 539.909C99.6608 543.919 96.4096 547.17 92.399 547.17C88.7255 547.17 85.6891 544.443 85.2046 540.902ZM282.6 547.17C286.273 547.17 289.31 544.443 289.794 540.902V538.915C289.31 535.374 286.273 532.647 282.6 532.647C278.589 532.647 275.338 535.898 275.338 539.909C275.338 543.919 278.589 547.17 282.6 547.17Z" fill="url(#paint6_linear)"/>
<defs>
<filter id="filter0_di" x="8.72437" y="142.645" width="356.642" height="297.741" filterUnits="userSpaceOnUse" color-interpolation-filters="sRGB">
<feFlood flood-opacity="0" result="BackgroundImageFix"/>
<feColorMatrix in="SourceAlpha" type="matrix" values="0 0 0 0 0 0 0 0 0 0 0 0 0 0 0 0 0 0 127 0"/>
<feOffset dy="2"/>
<feGaussianBlur stdDeviation="2.5"/>
<feColorMatrix type="matrix" values="0 0 0 0 0 0 0 0 0 0 0 0 0 0 0 0 0 0 0.25 0"/>
<feBlend mode="normal" in2="BackgroundImageFix" result="effect1_dropShadow"/>
<feBlend mode="normal" in="SourceGraphic" in2="effect1_dropShadow" result="shape"/>
<feColorMatrix in="SourceAlpha" type="matrix" values="0 0 0 0 0 0 0 0 0 0 0 0 0 0 0 0 0 0 127 0" result="hardAlpha"/>
<feOffset dy="2"/>
<feGaussianBlur stdDeviation="2"/>
<feComposite in2="hardAlpha" operator="arithmetic" k2="-1" k3="1"/>
<feColorMatrix type="matrix" values="0 0 0 0 0.325 0 0 0 0 0.325 0 0 0 0 0.325 0 0 0 0.25 0"/>
<feBlend mode="normal" in2="shape" result="effect2_innerShadow"/>
</filter>
<linearGradient id="paint0_linear" x1="186.5" y1="127" x2="186.5" y2="433.704" gradientUnits="userSpaceOnUse">
<stop offset="0.0713706" stop-color="#E72E3E"/>
<stop offset="0.269074" stop-color="#FE7350"/>
<stop offset="0.395913" stop-color="#2994C5"/>
<stop offset="0.542481" stop-color="#168BC7"/>
<stop offset="0.677081" stop-color="#F68038"/>
<stop offset="1" stop-color="#FDAE51"/>
</linearGradient>
<linearGradient id="paint1_linear" x1="114.727" y1="-9.1554e-05" x2="114.728" y2="24.9064" gradientUnits="userSpaceOnUse">
<stop stop-color="#D80032"/>
<stop offset="1" stop-color="#FF7751"/>
</linearGradient>
<linearGradient id="paint2_linear" x1="136.523" y1="3.34043" x2="117.827" y2="40.9284" gradientUnits="userSpaceOnUse">
<stop stop-color="#3A829C"/>
<stop offset="1" stop-color="#0E80BD"/>
</linearGradient>
<linearGradient id="paint3_linear" x1="101.916" y1="11.1031" x2="114.111" y2="41.9923" gradientUnits="userSpaceOnUse">
<stop stop-color="#4192B0"/>
<stop offset="1" stop-color="#0485CA"/>
</linearGradient>
<linearGradient id="paint4_linear" x1="97.6997" y1="8.49408" x2="97.2804" y2="24.9071" gradientUnits="userSpaceOnUse">
<stop stop-color="#439FC0"/>
<stop offset="1" stop-color="#0284CB"/>
</linearGradient>
<linearGradient id="paint5_linear" x1="116.749" y1="25.788" x2="116.117" y2="42.0004" gradientUnits="userSpaceOnUse">
<stop stop-color="#439FC0"/>
<stop offset="1" stop-color="#0284CB"/>
</linearGradient>
<linearGradient id="paint6_linear" x1="187.499" y1="9.35196" x2="187.499" y2="551.17" gradientUnits="userSpaceOnUse">
<stop offset="0.0917717" stop-color="#E72E3E"/>
<stop offset="0.327605" stop-color="#FE7350"/>
<stop offset="0.446712" stop-color="#2994C5"/>
<stop offset="0.59917" stop-color="#168BC7"/>
<stop offset="0.675399" stop-color="#F68038"/>
<stop offset="1" stop-color="#FDAE51"/>
</linearGradient>
</defs>
</svg>
