<svg width="367" height="271" viewBox="0 0 367 271" fill="none" xmlns="http://www.w3.org/2000/svg">
<path d="M299.416 105.332C299.917 105.564 300.511 105.347 300.744 104.846L304.534 96.6827C304.767 96.1818 304.549 95.5872 304.048 95.3546C303.547 95.122 302.953 95.3395 302.72 95.8405L299.351 103.096L292.095 99.7274C291.594 99.4948 291 99.7123 290.767 100.213C290.534 100.714 290.752 101.309 291.253 101.541L299.416 105.332ZM250.244 65.5276C251.179 65.5742 252.093 65.6294 252.987 65.6937L253.131 63.6989C252.221 63.6334 251.292 63.5773 250.344 63.5301L250.244 65.5276ZM261.152 66.6267C263.025 66.9349 264.795 67.3028 266.472 67.735L266.972 65.7983C265.231 65.3497 263.402 64.97 261.477 64.6532L261.152 66.6267ZM274.111 70.4461C275.767 71.228 277.316 72.1124 278.777 73.1078L279.903 71.455C278.353 70.3988 276.712 69.4629 274.966 68.6377L274.111 70.4461ZM284.84 78.4019C286.013 79.6901 287.132 81.095 288.209 82.6259L289.845 81.4754C288.724 79.8821 287.553 78.4107 286.318 77.0549L284.84 78.4019ZM292.414 89.6212C293.222 91.1729 294.013 92.8168 294.794 94.5579L296.619 93.7392C295.824 91.9673 295.016 90.2879 294.188 88.6973L292.414 89.6212ZM297.934 102.187C298.256 103.029 298.576 103.89 298.898 104.768L300.776 104.081C300.452 103.195 300.128 102.326 299.803 101.474L297.934 102.187ZM298.995 106.239C299.997 106.704 301.186 106.269 301.651 105.267L309.231 88.9409C309.697 87.939 309.262 86.7498 308.26 86.2846C307.258 85.8194 306.069 86.2545 305.603 87.2563L298.865 101.768L284.353 95.0302C283.351 94.565 282.162 95.0001 281.697 96.0019C281.232 97.0038 281.667 98.193 282.669 98.6582L298.995 106.239ZM250.194 66.5264C251.122 66.5726 252.029 66.6274 252.916 66.6911L253.202 62.7014C252.285 62.6355 251.349 62.5789 250.393 62.5313L250.194 66.5264ZM260.989 67.6134C262.837 67.9173 264.578 68.2793 266.223 68.7034L267.221 64.83C265.449 64.3731 263.591 63.9876 261.639 63.6665L260.989 67.6134ZM273.684 71.3503C275.294 72.1106 276.798 72.9692 278.214 73.9342L280.466 70.6286C278.872 69.542 277.185 68.5803 275.393 67.7335L273.684 71.3503ZM284.101 79.0754C285.243 80.3298 286.336 81.7015 287.391 83.2012L290.663 80.9001C289.52 79.2756 288.323 77.771 287.057 76.3814L284.101 79.0754ZM291.527 90.0831C292.325 91.6154 293.108 93.2416 293.882 94.9672L297.531 93.3299C296.73 91.5425 295.913 89.8453 295.075 88.2354L291.527 90.0831ZM297 102.543C297.319 103.381 297.639 104.237 297.959 105.112L301.715 103.737C301.39 102.847 301.064 101.974 300.738 101.118L297 102.543Z" fill="#353535"/>
<path d="M205.351 123.028C204.956 122.642 204.323 122.648 203.937 123.043L197.643 129.476C197.256 129.871 197.263 130.504 197.658 130.89C198.053 131.277 198.686 131.27 199.072 130.875L204.667 125.157L210.385 130.752C210.78 131.138 211.413 131.131 211.799 130.736C212.186 130.341 212.179 129.708 211.784 129.322L205.351 123.028ZM177.465 182.398C178.241 181.882 178.997 181.368 179.734 180.855L178.591 179.214C177.866 179.718 177.122 180.225 176.357 180.734L177.465 182.398ZM186.31 175.886C187.776 174.67 189.143 173.446 190.416 172.202L189.018 170.771C187.788 171.973 186.461 173.162 185.033 174.347L186.31 175.886ZM195.893 165.955C197.004 164.446 198.004 162.893 198.9 161.279L197.152 160.307C196.297 161.845 195.344 163.327 194.282 164.769L195.893 165.955ZM202.236 153.644C202.803 151.939 203.289 150.165 203.702 148.308L201.75 147.874C201.351 149.669 200.882 151.378 200.338 153.013L202.236 153.644ZM205.011 140.151C205.199 138.397 205.343 136.574 205.447 134.675L203.45 134.565C203.348 136.433 203.206 138.222 203.022 139.938L205.011 140.151ZM205.664 126.465C205.666 125.569 205.662 124.658 205.652 123.732L203.652 123.753C203.662 124.672 203.666 125.574 203.664 126.461L205.664 126.465ZM206.05 122.313C205.261 121.541 203.995 121.554 203.222 122.344L190.634 135.21C189.861 135.999 189.875 137.266 190.665 138.038C191.454 138.81 192.72 138.797 193.493 138.007L204.682 126.571L216.119 137.761C216.908 138.533 218.175 138.519 218.947 137.73C219.72 136.94 219.706 135.674 218.916 134.901L206.05 122.313ZM178.019 183.231C178.8 182.711 179.562 182.193 180.305 181.676L178.02 178.393C177.301 178.893 176.562 179.396 175.803 179.901L178.019 183.231ZM186.949 176.656C188.433 175.424 189.82 174.182 191.114 172.918L188.32 170.056C187.11 171.237 185.804 172.408 184.394 173.577L186.949 176.656ZM196.698 166.548C197.834 165.006 198.857 163.416 199.774 161.764L196.278 159.822C195.444 161.322 194.514 162.768 193.477 164.176L196.698 166.548ZM203.185 153.96C203.763 152.22 204.259 150.412 204.678 148.526L200.774 147.657C200.381 149.421 199.921 151.097 199.389 152.698L203.185 153.96ZM206.005 140.258C206.195 138.484 206.341 136.644 206.446 134.73L202.452 134.51C202.35 136.363 202.21 138.134 202.028 139.832L206.005 140.258ZM206.664 126.466C206.666 125.567 206.662 124.652 206.652 123.721L202.652 123.764C202.662 124.679 202.666 125.577 202.664 126.459L206.664 126.466Z" fill="#353535"/>
<path d="M111.597 120.812L111.026 121.633L111.026 121.633L111.597 120.812ZM130.783 152.908C131.257 153.192 131.871 153.039 132.155 152.566L136.791 144.852C137.075 144.378 136.922 143.764 136.449 143.479C135.976 143.195 135.361 143.348 135.077 143.821L130.956 150.679L124.099 146.558C123.626 146.274 123.011 146.427 122.727 146.9C122.442 147.374 122.595 147.988 123.069 148.272L130.783 152.908ZM76.1874 112.451C76.266 113.448 76.2659 113.448 76.2659 113.448C76.2659 113.448 76.2658 113.448 76.2658 113.448C76.2658 113.448 76.2657 113.448 76.2657 113.448C76.2657 113.448 76.2658 113.448 76.266 113.448C76.2663 113.448 76.2669 113.448 76.2679 113.447C76.2699 113.447 76.2732 113.447 76.2779 113.447C76.2871 113.446 76.3017 113.445 76.3214 113.444C76.3609 113.441 76.421 113.437 76.5009 113.432C76.6607 113.422 76.8995 113.409 77.2101 113.396C77.8312 113.37 78.7389 113.345 79.8747 113.349L79.8811 111.349C78.7125 111.345 77.7749 111.371 77.1269 111.398C76.8028 111.411 76.5511 111.425 76.379 111.436C76.2929 111.441 76.2268 111.445 76.1814 111.448C76.1587 111.45 76.1413 111.451 76.1291 111.452C76.123 111.453 76.1183 111.453 76.1149 111.453C76.1132 111.453 76.1118 111.454 76.1108 111.454C76.1103 111.454 76.1098 111.454 76.1095 111.454C76.1093 111.454 76.1092 111.454 76.109 111.454C76.109 111.454 76.1089 111.454 76.1089 111.454C76.1088 111.454 76.1087 111.454 76.1874 112.451ZM90.7852 114.197C93.0621 114.547 95.4699 115.035 97.9061 115.709L98.4392 113.781C95.9168 113.084 93.4316 112.581 91.0896 112.22L90.7852 114.197ZM107.97 119.734C109.016 120.314 110.038 120.946 111.026 121.633L112.167 119.99C111.12 119.263 110.041 118.596 108.94 117.985L107.97 119.734ZM111.026 121.633C111.693 122.096 112.341 122.585 112.969 123.096L114.231 121.545C113.565 121.003 112.877 120.484 112.167 119.99L111.026 121.633ZM118.168 128.256C119.234 129.523 120.221 130.839 121.134 132.175L122.785 131.047C121.839 129.662 120.811 128.292 119.699 126.968L118.168 128.256ZM124.915 138.536C125.716 140.084 126.42 141.589 127.033 143.002L128.868 142.207C128.239 140.757 127.516 139.21 126.691 137.617L124.915 138.536ZM129.645 149.957C129.88 150.698 130.052 151.286 130.164 151.687C130.221 151.887 130.262 152.041 130.289 152.144C130.303 152.195 130.313 152.233 130.319 152.258C130.322 152.271 130.325 152.28 130.326 152.286C130.327 152.289 130.327 152.291 130.328 152.292C130.328 152.292 130.328 152.293 130.328 152.293C130.328 152.293 130.328 152.293 130.328 152.293C130.328 152.293 130.328 152.293 130.328 152.293C130.328 152.293 130.328 152.293 130.328 152.293C130.328 152.293 130.328 152.293 131.298 152.051C132.269 151.809 132.268 151.809 132.268 151.809C132.268 151.809 132.268 151.809 132.268 151.809C132.268 151.809 132.268 151.809 132.268 151.808C132.268 151.808 132.268 151.808 132.268 151.807C132.268 151.807 132.268 151.806 132.267 151.805C132.267 151.802 132.266 151.799 132.265 151.795C132.263 151.787 132.26 151.776 132.256 151.761C132.249 151.731 132.238 151.688 132.223 151.633C132.193 151.521 132.149 151.357 132.09 151.147C131.972 150.726 131.794 150.116 131.551 149.352L129.645 149.957ZM111.597 120.812L110.455 122.454L110.455 122.454L111.597 120.812ZM130.268 153.765C131.215 154.334 132.444 154.028 133.012 153.081L142.284 137.652C142.853 136.706 142.546 135.477 141.6 134.908C140.653 134.339 139.424 134.645 138.855 135.592L130.614 149.306L116.9 141.065C115.953 140.496 114.724 140.803 114.155 141.749C113.586 142.696 113.893 143.925 114.839 144.494L130.268 153.765ZM76.1874 112.451C76.3447 114.445 76.3445 114.445 76.3444 114.445C76.3444 114.445 76.3443 114.445 76.3442 114.445C76.3441 114.445 76.3439 114.445 76.3439 114.445C76.3437 114.445 76.3436 114.445 76.3436 114.445C76.3435 114.445 76.3438 114.445 76.3445 114.445C76.3457 114.444 76.3483 114.444 76.3522 114.444C76.3601 114.443 76.3732 114.442 76.3914 114.441C76.4279 114.439 76.4851 114.435 76.5619 114.43C76.7155 114.421 76.9479 114.408 77.2517 114.395C77.8594 114.37 78.752 114.345 79.8715 114.349L79.8843 110.349C78.6994 110.345 77.7467 110.371 77.0853 110.399C76.7545 110.412 76.4963 110.427 76.318 110.437C76.2289 110.443 76.1597 110.448 76.1114 110.451C76.0873 110.453 76.0683 110.454 76.0547 110.455C76.0479 110.456 76.0425 110.456 76.0384 110.456C76.0363 110.456 76.0346 110.457 76.0332 110.457C76.0325 110.457 76.0319 110.457 76.0314 110.457C76.0311 110.457 76.0309 110.457 76.0306 110.457C76.0305 110.457 76.0304 110.457 76.0303 110.457C76.0302 110.457 76.0301 110.457 76.1874 112.451ZM90.633 115.185C92.8774 115.531 95.2464 116.011 97.6396 116.673L98.7057 112.817C96.1403 112.108 93.6163 111.597 91.2418 111.232L90.633 115.185ZM107.484 120.608C108.503 121.173 109.496 121.787 110.455 122.454L112.738 119.169C111.662 118.421 110.554 117.737 109.425 117.11L107.484 120.608ZM110.455 122.454C111.101 122.903 111.728 123.376 112.338 123.872L114.862 120.769C114.177 120.212 113.47 119.678 112.738 119.169L110.455 122.454ZM117.403 128.899C118.445 130.138 119.412 131.428 120.308 132.74L123.611 130.483C122.648 129.073 121.6 127.676 120.464 126.325L117.403 128.899ZM124.027 138.996C124.817 140.521 125.511 142.006 126.115 143.4L129.785 141.809C129.149 140.34 128.415 138.772 127.579 137.157L124.027 138.996ZM128.692 150.26C128.923 150.989 129.092 151.566 129.202 151.957C129.256 152.153 129.297 152.301 129.322 152.399C129.335 152.448 129.345 152.484 129.35 152.507C129.353 152.518 129.355 152.526 129.357 152.531C129.357 152.533 129.358 152.535 129.358 152.535C129.358 152.536 129.358 152.536 129.358 152.536C129.358 152.536 129.358 152.535 129.358 152.535C129.358 152.535 129.358 152.535 129.358 152.535C129.358 152.535 129.358 152.535 129.358 152.535C129.358 152.535 129.358 152.535 131.298 152.051C133.239 151.567 133.239 151.567 133.239 151.567C133.239 151.567 133.239 151.567 133.239 151.567C133.239 151.566 133.239 151.566 133.239 151.566C133.238 151.566 133.238 151.565 133.238 151.565C133.238 151.564 133.238 151.563 133.237 151.561C133.237 151.558 133.236 151.555 133.235 151.55C133.232 151.541 133.229 151.528 133.225 151.512C133.217 151.481 133.205 151.435 133.19 151.377C133.159 151.261 133.113 151.092 133.053 150.877C132.932 150.446 132.751 149.825 132.504 149.05L128.692 150.26Z" fill="#353535"/>
<g filter="url(#filter0_d)">
<rect x="259.438" y="108.282" width="101.251" height="101.251" rx="50.6253" fill="url(#paint0_linear)"/>
<rect x="259.438" y="108.282" width="101.251" height="101.251" rx="50.6253" fill="url(#paint1_linear)"/>
<path d="M274.201 165.907V152.816H282.869V155.098H276.969V158.217H282.293V160.499H276.969V165.907H274.201ZM284.679 165.907V156.089H287.402V165.907H284.679ZM286.053 154.823C285.649 154.823 285.301 154.689 285.012 154.421C284.722 154.148 284.577 153.822 284.577 153.443C284.577 153.068 284.722 152.746 285.012 152.477C285.301 152.205 285.647 152.068 286.047 152.068C286.456 152.068 286.803 152.205 287.089 152.477C287.379 152.746 287.524 153.068 287.524 153.443C287.524 153.822 287.379 154.148 287.089 154.421C286.803 154.689 286.458 154.823 286.053 154.823ZM292.306 160.231V165.907H289.583V156.089H292.179V157.821H292.294C292.511 157.25 292.875 156.798 293.387 156.466C293.898 156.129 294.518 155.961 295.247 155.961C295.929 155.961 296.523 156.11 297.03 156.409C297.537 156.707 297.931 157.133 298.213 157.687C298.494 158.237 298.635 158.893 298.635 159.656V165.907H295.912V160.141C295.916 159.541 295.762 159.072 295.451 158.735C295.14 158.394 294.712 158.224 294.167 158.224C293.8 158.224 293.476 158.303 293.195 158.46C292.918 158.618 292.701 158.848 292.543 159.151C292.39 159.449 292.311 159.809 292.306 160.231ZM303.58 166.092C302.954 166.092 302.396 165.984 301.906 165.766C301.416 165.545 301.028 165.219 300.742 164.788C300.461 164.354 300.321 163.813 300.321 163.165C300.321 162.619 300.421 162.161 300.621 161.791C300.821 161.42 301.094 161.122 301.439 160.896C301.784 160.67 302.176 160.499 302.615 160.384C303.058 160.269 303.523 160.188 304.009 160.141C304.58 160.082 305.04 160.026 305.389 159.975C305.739 159.92 305.992 159.839 306.15 159.732C306.308 159.626 306.387 159.468 306.387 159.259V159.221C306.387 158.816 306.259 158.503 306.003 158.281C305.752 158.06 305.394 157.949 304.929 157.949C304.439 157.949 304.049 158.058 303.759 158.275C303.47 158.488 303.278 158.757 303.184 159.08L300.666 158.876C300.794 158.279 301.045 157.764 301.42 157.329C301.795 156.89 302.279 156.553 302.871 156.319C303.468 156.08 304.158 155.961 304.942 155.961C305.487 155.961 306.009 156.025 306.508 156.153C307.011 156.281 307.456 156.479 307.844 156.747C308.236 157.016 308.545 157.361 308.771 157.783C308.997 158.2 309.11 158.701 309.11 159.285V165.907H306.527V164.546H306.45C306.293 164.852 306.082 165.123 305.818 165.357C305.553 165.588 305.236 165.769 304.865 165.901C304.495 166.029 304.066 166.092 303.58 166.092ZM304.36 164.213C304.761 164.213 305.115 164.134 305.421 163.977C305.728 163.815 305.969 163.597 306.144 163.325C306.318 163.052 306.406 162.743 306.406 162.398V161.356C306.321 161.411 306.203 161.463 306.054 161.509C305.909 161.552 305.745 161.592 305.562 161.631C305.379 161.665 305.196 161.697 305.012 161.727C304.829 161.752 304.663 161.776 304.514 161.797C304.194 161.844 303.915 161.918 303.676 162.021C303.438 162.123 303.252 162.262 303.12 162.436C302.988 162.607 302.922 162.82 302.922 163.075C302.922 163.446 303.056 163.73 303.325 163.926C303.598 164.117 303.943 164.213 304.36 164.213ZM313.945 152.816V165.907H311.222V152.816H313.945ZM322.6 165.907H319.634L324.153 152.816H327.72L332.233 165.907H329.267L325.988 155.808H325.885L322.6 165.907ZM322.415 160.762H329.42V162.922H322.415V160.762ZM334.208 169.57C333.863 169.57 333.539 169.542 333.236 169.487C332.938 169.436 332.691 169.372 332.495 169.295L333.109 167.256C333.59 167.405 333.995 167.443 334.323 167.371C334.655 167.303 334.917 167.047 335.109 166.604L335.269 166.188L331.747 156.089H334.611L336.643 163.299H336.746L338.797 156.089L341.68 156.102L337.864 166.968C337.681 167.492 337.432 167.948 337.116 168.336C336.805 168.728 336.411 169.031 335.934 169.244C335.457 169.461 334.881 169.57 334.208 169.57ZM343.074 165.907V156.089H345.797V165.907H343.074Z" fill="black"/>
</g>
<g filter="url(#filter1_d)">
<rect x="158.187" y="7.03125" width="101.251" height="101.251" rx="50.6253" fill="url(#paint2_linear)"/>
<path d="M192.712 64.8355C191.758 64.8355 190.908 64.6714 190.162 64.3433C189.42 64.0109 188.835 63.5549 188.404 62.9754C187.978 62.3916 187.759 61.7183 187.746 60.9555H190.533C190.55 61.2751 190.654 61.5564 190.846 61.7992C191.042 62.0379 191.302 62.2233 191.626 62.3554C191.95 62.4875 192.314 62.5535 192.719 62.5535C193.141 62.5535 193.513 62.4789 193.837 62.3298C194.161 62.1806 194.415 61.974 194.598 61.7098C194.781 61.4456 194.873 61.1409 194.873 60.7957C194.873 60.4463 194.775 60.1373 194.579 59.8689C194.387 59.5961 194.11 59.3831 193.748 59.2296C193.39 59.0762 192.964 58.9995 192.469 58.9995H191.249V56.9669H192.469C192.887 56.9669 193.256 56.8944 193.575 56.7495C193.899 56.6046 194.151 56.4044 194.33 56.1487C194.509 55.8887 194.598 55.5862 194.598 55.241C194.598 54.9129 194.519 54.6252 194.362 54.3781C194.208 54.1267 193.991 53.9306 193.71 53.79C193.433 53.6494 193.109 53.5791 192.738 53.5791C192.363 53.5791 192.02 53.6473 191.709 53.7836C191.398 53.9157 191.148 54.1054 190.961 54.3525C190.773 54.5997 190.673 54.8894 190.661 55.2218H188.008C188.021 54.4676 188.236 53.8028 188.653 53.2275C189.071 52.6522 189.634 52.2027 190.341 51.8788C191.053 51.5507 191.856 51.3866 192.751 51.3866C193.654 51.3866 194.445 51.5507 195.122 51.8788C195.8 52.2069 196.326 52.6501 196.701 53.2083C197.08 53.7623 197.268 54.3845 197.263 55.0748C197.268 55.8078 197.04 56.4193 196.58 56.9093C196.124 57.3994 195.529 57.7105 194.796 57.8426V57.9448C195.759 58.0684 196.492 58.4029 196.995 58.9484C197.502 59.4896 197.754 60.1671 197.749 60.9811C197.754 61.7268 197.538 62.3894 197.104 62.969C196.673 63.5485 196.079 64.0045 195.32 64.3369C194.562 64.6693 193.692 64.8355 192.712 64.8355ZM200.987 64.8227C200.565 64.8227 200.203 64.6735 199.9 64.3752C199.602 64.0727 199.453 63.7105 199.453 63.2886C199.453 62.871 199.602 62.513 199.9 62.2147C200.203 61.9164 200.565 61.7673 200.987 61.7673C201.396 61.7673 201.754 61.9164 202.061 62.2147C202.368 62.513 202.521 62.871 202.521 63.2886C202.521 63.5698 202.449 63.8277 202.304 64.062C202.163 64.2921 201.978 64.4775 201.748 64.6181C201.517 64.7545 201.264 64.8227 200.987 64.8227ZM210.615 64.6565H207.649L212.168 51.5656H215.735L220.248 64.6565H217.282L214.003 54.5571H213.9L210.615 64.6565ZM210.43 59.5109H217.435V61.6714H210.43V59.5109ZM222.223 68.3191C221.878 68.3191 221.554 68.2914 221.251 68.236C220.953 68.1849 220.706 68.121 220.51 68.0443L221.123 66.0052C221.605 66.1544 222.01 66.1927 222.338 66.1203C222.67 66.0521 222.932 65.7964 223.124 65.3532L223.284 64.9377L219.762 54.8383H222.626L224.658 62.0485H224.76L226.812 54.8383L229.695 54.8511L225.879 65.7176C225.696 66.2417 225.447 66.6977 225.131 67.0855C224.82 67.4775 224.426 67.7801 223.949 67.9931C223.471 68.2105 222.896 68.3191 222.223 68.3191Z" fill="white"/>
</g>
<g filter="url(#filter2_d)">
<rect x="107.562" y="158.907" width="101.251" height="101.251" rx="50.6253" fill="url(#paint3_linear)"/>
<rect x="107.562" y="158.907" width="101.251" height="101.251" rx="50.6253" fill="url(#paint4_linear)"/>
<path d="M137.248 216.532V214.538L141.908 210.223C142.304 209.84 142.637 209.495 142.905 209.188C143.178 208.881 143.385 208.581 143.525 208.287C143.666 207.988 143.736 207.667 143.736 207.321C143.736 206.938 143.649 206.608 143.474 206.331C143.299 206.049 143.061 205.834 142.758 205.685C142.456 205.532 142.113 205.455 141.729 205.455C141.329 205.455 140.979 205.536 140.681 205.698C140.383 205.86 140.152 206.092 139.991 206.395C139.829 206.697 139.748 207.057 139.748 207.475H137.12C137.12 206.618 137.314 205.875 137.702 205.244C138.09 204.613 138.633 204.125 139.332 203.78C140.031 203.435 140.836 203.262 141.748 203.262C142.686 203.262 143.502 203.429 144.196 203.761C144.895 204.089 145.439 204.545 145.826 205.129C146.214 205.713 146.408 206.382 146.408 207.136C146.408 207.63 146.31 208.118 146.114 208.6C145.922 209.081 145.579 209.616 145.085 210.204C144.591 210.788 143.894 211.489 142.995 212.307L141.084 214.18V214.27H146.581V216.532H137.248ZM150.203 216.699C149.782 216.699 149.419 216.549 149.117 216.251C148.818 215.949 148.669 215.586 148.669 215.164C148.669 214.747 148.818 214.389 149.117 214.091C149.419 213.792 149.782 213.643 150.203 213.643C150.613 213.643 150.97 213.792 151.277 214.091C151.584 214.389 151.738 214.747 151.738 215.164C151.738 215.446 151.665 215.704 151.52 215.938C151.38 216.168 151.194 216.353 150.964 216.494C150.734 216.63 150.48 216.699 150.203 216.699ZM159.831 216.532H156.866L161.385 203.441H164.951L169.464 216.532H166.498L163.219 206.433H163.117L159.831 216.532ZM159.646 211.387H166.652V213.547H159.646V211.387ZM171.439 220.195C171.094 220.195 170.77 220.167 170.468 220.112C170.17 220.061 169.922 219.997 169.726 219.92L170.34 217.881C170.821 218.03 171.226 218.069 171.554 217.996C171.887 217.928 172.149 217.672 172.341 217.229L172.5 216.814L168.978 206.714H171.842L173.875 213.924H173.977L176.029 206.714L178.912 206.727L175.096 217.593C174.912 218.118 174.663 218.574 174.348 218.961C174.037 219.353 173.643 219.656 173.165 219.869C172.688 220.086 172.113 220.195 171.439 220.195Z" fill="white"/>
</g>
<g filter="url(#filter3_d)">
<g clip-path="url(#clip0)">
<rect x="6.31152" y="57.6566" width="101.251" height="101.251" rx="50.6253" fill="url(#paint5_linear)"/>
<path d="M43.6932 102.191V115.282H40.9254V104.818H40.8487L37.8508 106.697V104.243L41.0916 102.191H43.6932ZM47.7361 115.448C47.3143 115.448 46.952 115.299 46.6495 115.001C46.3512 114.698 46.202 114.336 46.202 113.914C46.202 113.496 46.3512 113.138 46.6495 112.84C46.952 112.542 47.3143 112.393 47.7361 112.393C48.1452 112.393 48.5032 112.542 48.81 112.84C49.1168 113.138 49.2702 113.496 49.2702 113.914C49.2702 114.195 49.1978 114.453 49.0529 114.687C48.9123 114.918 48.7269 115.103 48.4968 115.244C48.2667 115.38 48.0131 115.448 47.7361 115.448ZM57.3641 115.282H54.3982L58.9174 102.191H62.4842L66.997 115.282H64.0311L60.7519 105.182H60.6497L57.3641 115.282ZM57.1788 110.136H64.1845V112.297H57.1788V110.136ZM68.9721 118.945C68.6269 118.945 68.3031 118.917 68.0005 118.861C67.7022 118.81 67.4551 118.746 67.259 118.67L67.8727 116.631C68.3542 116.78 68.759 116.818 69.0872 116.746C69.4195 116.677 69.6816 116.422 69.8734 115.979L70.0332 115.563L66.5112 105.464H69.3748L71.4075 112.674H71.5097L73.5616 105.464L76.4444 105.476L72.6284 116.343C72.4451 116.867 72.1958 117.323 71.8805 117.711C71.5694 118.103 71.1752 118.405 70.698 118.619C70.2207 118.836 69.6454 118.945 68.9721 118.945Z" fill="white"/>
</g>
</g>
<rect x="30.218" y="146.954" width="53.4378" height="14.0626" rx="7.03129" fill="#353535"/>
<rect x="30.218" y="54.8441" width="53.4378" height="14.0626" rx="7.03129" fill="#353535"/>
<rect x="131.469" y="158.204" width="53.4378" height="14.0626" rx="7.03129" fill="#353535"/>
<rect x="131.469" y="248.556" width="53.4378" height="14.0626" rx="7.03129" fill="#353535"/>
<rect x="182.094" width="53.4378" height="14.0626" rx="7.03129" fill="#353535"/>
<rect x="182.094" y="98.2622" width="53.4378" height="14.0626" rx="7.03129" fill="#353535"/>
<path d="M37.7042 150.494L39.1709 152.972H39.2277L40.7014 150.494H42.4379L40.2184 154.13L42.4876 157.766H40.7191L39.2277 155.284H39.1709L37.6794 157.766H35.918L38.1943 154.13L35.9606 150.494H37.7042ZM45.7254 157.766V150.494H48.5947C49.1463 150.494 49.6162 150.599 50.0045 150.81C50.3927 151.018 50.6887 151.308 50.8923 151.68C51.0982 152.049 51.2012 152.475 51.2012 152.958C51.2012 153.441 51.0971 153.867 50.8887 154.237C50.6804 154.606 50.3785 154.894 49.9832 155.1C49.5902 155.306 49.1143 155.409 48.5556 155.409H46.7268V154.176H48.307C48.603 154.176 48.8468 154.125 49.0386 154.024C49.2327 153.919 49.3771 153.776 49.4718 153.594C49.5689 153.409 49.6174 153.197 49.6174 152.958C49.6174 152.717 49.5689 152.506 49.4718 152.326C49.3771 152.144 49.2327 152.003 49.0386 151.904C48.8444 151.802 48.5982 151.751 48.2999 151.751H47.263V157.766H45.7254ZM52.1716 157.766V152.312H53.6382V153.264H53.695C53.7944 152.925 53.9613 152.669 54.1957 152.497C54.4301 152.321 54.7 152.234 55.0054 152.234C55.0811 152.234 55.1628 152.239 55.2504 152.248C55.338 152.257 55.4149 152.271 55.4812 152.287V153.629C55.4102 153.608 55.312 153.589 55.1865 153.573C55.061 153.556 54.9462 153.548 54.842 153.548C54.6195 153.548 54.4206 153.596 54.2454 153.693C54.0726 153.788 53.9353 153.921 53.8335 154.091C53.7341 154.262 53.6843 154.458 53.6843 154.681V157.766H52.1716ZM58.4739 157.873C57.9223 157.873 57.4453 157.756 57.0428 157.521C56.6427 157.285 56.3338 156.956 56.116 156.534C55.8982 156.11 55.7893 155.619 55.7893 155.061C55.7893 154.497 55.8982 154.005 56.116 153.583C56.3338 153.159 56.6427 152.83 57.0428 152.596C57.4453 152.359 57.9223 152.241 58.4739 152.241C59.0256 152.241 59.5014 152.359 59.9015 152.596C60.304 152.83 60.6141 153.159 60.8319 153.583C61.0497 154.005 61.1586 154.497 61.1586 155.061C61.1586 155.619 61.0497 156.11 60.8319 156.534C60.6141 156.956 60.304 157.285 59.9015 157.521C59.5014 157.756 59.0256 157.873 58.4739 157.873ZM58.481 156.701C58.732 156.701 58.9415 156.63 59.1096 156.488C59.2777 156.344 59.4043 156.147 59.4896 155.899C59.5772 155.65 59.621 155.367 59.621 155.05C59.621 154.733 59.5772 154.45 59.4896 154.201C59.4043 153.953 59.2777 153.756 59.1096 153.612C58.9415 153.467 58.732 153.395 58.481 153.395C58.2277 153.395 58.0147 153.467 57.8418 153.612C57.6714 153.756 57.5424 153.953 57.4548 154.201C57.3695 154.45 57.3269 154.733 57.3269 155.05C57.3269 155.367 57.3695 155.65 57.4548 155.899C57.5424 156.147 57.6714 156.344 57.8418 156.488C58.0147 156.63 58.2277 156.701 58.481 156.701ZM62.1423 152.312H63.6551V158.019C63.6551 158.44 63.571 158.783 63.4029 159.048C63.2372 159.314 62.9981 159.507 62.6856 159.627C62.3755 159.75 62.0014 159.806 61.5634 159.794C61.5232 159.794 61.4818 159.794 61.4391 159.794C61.3942 159.794 61.3421 159.792 61.2829 159.787V158.605C61.3231 158.607 61.3586 158.608 61.3894 158.608C61.4178 158.61 61.4486 158.612 61.4818 158.612C61.7256 158.612 61.8961 158.56 61.9931 158.455C62.0926 158.354 62.1423 158.2 62.1423 157.994V152.312ZM62.8987 151.609C62.6738 151.609 62.4808 151.534 62.3198 151.385C62.1588 151.234 62.0783 151.052 62.0783 150.842C62.0783 150.633 62.1588 150.455 62.3198 150.306C62.4808 150.154 62.6726 150.078 62.8951 150.078C63.1224 150.078 63.3153 150.154 63.4739 150.306C63.6349 150.455 63.7154 150.633 63.7154 150.842C63.7154 151.052 63.6349 151.234 63.4739 151.385C63.3153 151.534 63.1236 151.609 62.8987 151.609ZM67.3527 157.873C66.7916 157.873 66.3086 157.759 65.9038 157.532C65.5013 157.302 65.1912 156.978 64.9734 156.559C64.7556 156.138 64.6467 155.639 64.6467 155.064C64.6467 154.503 64.7556 154.011 64.9734 153.587C65.1912 153.163 65.4978 152.833 65.8932 152.596C66.2909 152.359 66.7573 152.241 67.2923 152.241C67.6522 152.241 67.9871 152.299 68.2973 152.415C68.6098 152.529 68.882 152.7 69.114 152.93C69.3484 153.159 69.5307 153.448 69.6609 153.796C69.7911 154.142 69.8562 154.547 69.8562 155.011V155.426H65.2504V154.489H68.4322C68.4322 154.271 68.3849 154.078 68.2902 153.91C68.1955 153.742 68.0641 153.61 67.896 153.516C67.7303 153.419 67.5373 153.37 67.3172 153.37C67.0875 153.37 66.8839 153.423 66.7064 153.53C66.5312 153.634 66.3939 153.775 66.2944 153.953C66.195 154.128 66.1441 154.323 66.1417 154.538V155.43C66.1417 155.7 66.1915 155.933 66.2909 156.129C66.3927 156.326 66.5359 156.477 66.7206 156.584C66.9052 156.69 67.1242 156.744 67.3775 156.744C67.5456 156.744 67.6995 156.72 67.8392 156.673C67.9789 156.625 68.0984 156.554 68.1978 156.46C68.2973 156.365 68.373 156.249 68.4251 156.112L69.8243 156.204C69.7532 156.54 69.6076 156.834 69.3875 157.085C69.1697 157.333 68.8879 157.527 68.5423 157.667C68.199 157.804 67.8025 157.873 67.3527 157.873ZM75.3818 153.867L73.9968 153.953C73.9732 153.834 73.9223 153.728 73.8441 153.633C73.766 153.536 73.663 153.459 73.5352 153.402C73.4097 153.343 73.2594 153.313 73.0842 153.313C72.8498 153.313 72.6522 153.363 72.4912 153.463C72.3302 153.56 72.2497 153.69 72.2497 153.853C72.2497 153.983 72.3018 154.093 72.4059 154.183C72.5101 154.273 72.6888 154.346 72.9422 154.4L73.9294 154.599C74.4597 154.708 74.855 154.883 75.1155 155.124C75.3759 155.366 75.5061 155.683 75.5061 156.076C75.5061 156.434 75.4007 156.747 75.19 157.017C74.9817 157.287 74.6952 157.498 74.3307 157.649C73.9684 157.798 73.5506 157.873 73.0771 157.873C72.355 157.873 71.7798 157.723 71.3513 157.422C70.9251 157.119 70.6754 156.707 70.602 156.186L72.0899 156.108C72.1349 156.328 72.2438 156.496 72.4166 156.612C72.5894 156.726 72.8108 156.783 73.0807 156.783C73.3458 156.783 73.5589 156.732 73.7199 156.63C73.8832 156.526 73.9661 156.392 73.9684 156.229C73.9661 156.092 73.9081 155.979 73.7944 155.891C73.6808 155.802 73.5056 155.733 73.2689 155.686L72.3243 155.497C71.7916 155.391 71.395 155.206 71.1346 154.943C70.8766 154.681 70.7476 154.346 70.7476 153.938C70.7476 153.588 70.8423 153.286 71.0316 153.033C71.2234 152.78 71.4921 152.584 71.8378 152.447C72.1858 152.31 72.593 152.241 73.0593 152.241C73.7483 152.241 74.2904 152.387 74.6858 152.678C75.0835 152.969 75.3155 153.365 75.3818 153.867ZM76.4587 157.766V152.312H77.9715V157.766H76.4587ZM77.2222 151.609C76.9973 151.609 76.8043 151.534 76.6433 151.385C76.4823 151.234 76.4019 151.052 76.4019 150.842C76.4019 150.633 76.4823 150.455 76.6433 150.306C76.8043 150.154 76.9961 150.078 77.2186 150.078C77.4459 150.078 77.6388 150.154 77.7975 150.306C77.9584 150.455 78.0389 150.633 78.0389 150.842C78.0389 151.052 77.9584 151.234 77.7975 151.385C77.6388 151.534 77.4471 151.609 77.2222 151.609Z" fill="white"/>
<path d="M35.9855 59.6516V58.3839H41.9585V59.6516H39.7319V65.6566H38.212V59.6516H35.9855ZM45.2566 65.6566V58.3839H48.1259C48.6775 58.3839 49.1475 58.4892 49.5357 58.6999C49.924 58.9083 50.2199 59.1983 50.4235 59.57C50.6295 59.9393 50.7325 60.3654 50.7325 60.8484C50.7325 61.3313 50.6283 61.7575 50.42 62.1268C50.2116 62.4961 49.9098 62.7837 49.5144 62.9897C49.1214 63.1957 48.6456 63.2987 48.0869 63.2987H46.258V62.0664H47.8383C48.1342 62.0664 48.3781 62.0155 48.5698 61.9137C48.764 61.8096 48.9084 61.6663 49.0031 61.484C49.1001 61.2994 49.1487 61.0875 49.1487 60.8484C49.1487 60.6069 49.1001 60.3962 49.0031 60.2163C48.9084 60.034 48.764 59.8931 48.5698 59.7937C48.3757 59.6919 48.1295 59.641 47.8312 59.641H46.7943V65.6566H45.2566ZM51.7028 65.6566V60.2021H53.1694V61.1538H53.2263C53.3257 60.8152 53.4926 60.5596 53.727 60.3867C53.9613 60.2115 54.2312 60.1239 54.5366 60.1239C54.6124 60.1239 54.6941 60.1287 54.7816 60.1381C54.8692 60.1476 54.9462 60.1606 55.0125 60.1772V61.5195C54.9415 61.4982 54.8432 61.4793 54.7177 61.4627C54.5923 61.4462 54.4774 61.4379 54.3733 61.4379C54.1507 61.4379 53.9519 61.4864 53.7767 61.5835C53.6039 61.6782 53.4665 61.8107 53.3647 61.9812C53.2653 62.1516 53.2156 62.3481 53.2156 62.5707V65.6566H51.7028ZM58.0052 65.7632C57.4536 65.7632 56.9765 65.646 56.5741 65.4116C56.174 65.1748 55.865 64.8458 55.6472 64.4244C55.4294 64.0006 55.3205 63.5094 55.3205 62.9507C55.3205 62.3872 55.4294 61.8948 55.6472 61.4734C55.865 61.0496 56.174 60.7205 56.5741 60.4862C56.9765 60.2494 57.4536 60.131 58.0052 60.131C58.5568 60.131 59.0327 60.2494 59.4328 60.4862C59.8352 60.7205 60.1453 61.0496 60.3631 61.4734C60.581 61.8948 60.6899 62.3872 60.6899 62.9507C60.6899 63.5094 60.581 64.0006 60.3631 64.4244C60.1453 64.8458 59.8352 65.1748 59.4328 65.4116C59.0327 65.646 58.5568 65.7632 58.0052 65.7632ZM58.0123 64.5913C58.2632 64.5913 58.4728 64.5203 58.6408 64.3782C58.8089 64.2338 58.9356 64.0373 59.0208 63.7887C59.1084 63.5401 59.1522 63.2572 59.1522 62.94C59.1522 62.6228 59.1084 62.3399 59.0208 62.0913C58.9356 61.8427 58.8089 61.6462 58.6408 61.5018C58.4728 61.3574 58.2632 61.2852 58.0123 61.2852C57.759 61.2852 57.5459 61.3574 57.3731 61.5018C57.2026 61.6462 57.0736 61.8427 56.986 62.0913C56.9008 62.3399 56.8582 62.6228 56.8582 62.94C56.8582 63.2572 56.9008 63.5401 56.986 63.7887C57.0736 64.0373 57.2026 64.2338 57.3731 64.3782C57.5459 64.5203 57.759 64.5913 58.0123 64.5913ZM61.6735 60.2021H63.1863V65.9087C63.1863 66.3301 63.1023 66.6734 62.9342 66.9386C62.7685 67.2037 62.5293 67.3967 62.2168 67.5174C61.9067 67.6405 61.5327 67.6962 61.0947 67.6843C61.0544 67.6843 61.013 67.6843 60.9704 67.6843C60.9254 67.6843 60.8733 67.6819 60.8141 67.6772V66.4947C60.8544 66.4971 60.8899 66.4982 60.9207 66.4982C60.9491 66.5006 60.9799 66.5018 61.013 66.5018C61.2569 66.5018 61.4273 66.4497 61.5244 66.3455C61.6238 66.2437 61.6735 66.0899 61.6735 65.8839V60.2021ZM62.4299 59.4989C62.205 59.4989 62.0121 59.4244 61.8511 59.2752C61.6901 59.1237 61.6096 58.9426 61.6096 58.7319C61.6096 58.5236 61.6901 58.3448 61.8511 58.1957C62.0121 58.0442 62.2038 57.9684 62.4264 57.9684C62.6536 57.9684 62.8466 58.0442 63.0052 58.1957C63.1662 58.3448 63.2467 58.5236 63.2467 58.7319C63.2467 58.9426 63.1662 59.1237 63.0052 59.2752C62.8466 59.4244 62.6548 59.4989 62.4299 59.4989ZM66.8839 65.7632C66.3228 65.7632 65.8399 65.6495 65.4351 65.4222C65.0326 65.1926 64.7225 64.8683 64.5047 64.4492C64.2869 64.0278 64.178 63.5295 64.178 62.9542C64.178 62.3931 64.2869 61.9007 64.5047 61.4769C64.7225 61.0532 65.029 60.7229 65.4244 60.4862C65.8221 60.2494 66.2885 60.131 66.8236 60.131C67.1834 60.131 67.5184 60.189 67.8285 60.3051C68.141 60.4187 68.4133 60.5903 68.6453 60.82C68.8797 61.0496 69.062 61.3384 69.1922 61.6864C69.3224 62.0321 69.3875 62.4369 69.3875 62.9009V63.3164H64.7816V62.3789H67.9635C67.9635 62.1611 67.9161 61.9682 67.8214 61.8001C67.7267 61.632 67.5953 61.5006 67.4272 61.4059C67.2615 61.3088 67.0686 61.2603 66.8484 61.2603C66.6188 61.2603 66.4152 61.3136 66.2376 61.4201C66.0624 61.5243 65.9251 61.6651 65.8257 61.8427C65.7263 62.0179 65.6754 62.2132 65.673 62.4286V63.32C65.673 63.5899 65.7227 63.823 65.8221 64.0195C65.9239 64.216 66.0672 64.3676 66.2518 64.4741C66.4365 64.5806 66.6555 64.6339 66.9088 64.6339C67.0769 64.6339 67.2308 64.6102 67.3704 64.5629C67.5101 64.5155 67.6297 64.4445 67.7291 64.3498C67.8285 64.2551 67.9043 64.1391 67.9564 64.0018L69.3555 64.0941C69.2845 64.4303 69.1389 64.7239 68.9187 64.9748C68.7009 65.2234 68.4192 65.4175 68.0736 65.5572C67.7303 65.6945 67.3337 65.7632 66.8839 65.7632ZM74.913 61.7575L73.5281 61.8427C73.5044 61.7243 73.4535 61.6178 73.3754 61.5231C73.2973 61.426 73.1943 61.3491 73.0665 61.2923C72.941 61.2331 72.7906 61.2035 72.6155 61.2035C72.3811 61.2035 72.1834 61.2532 72.0224 61.3526C71.8614 61.4497 71.7809 61.5799 71.7809 61.7433C71.7809 61.8735 71.833 61.9836 71.9372 62.0735C72.0414 62.1635 72.2201 62.2357 72.4734 62.2901L73.4606 62.489C73.9909 62.5979 74.3863 62.7731 74.6467 63.0146C74.9071 63.256 75.0373 63.5733 75.0373 63.9663C75.0373 64.3238 74.932 64.6374 74.7213 64.9073C74.5129 65.1772 74.2265 65.3879 73.8619 65.5394C73.4997 65.6886 73.0818 65.7632 72.6084 65.7632C71.8863 65.7632 71.311 65.6128 70.8825 65.3122C70.4564 65.0091 70.2066 64.5972 70.1332 64.0764L71.6211 63.9982C71.6661 64.2184 71.775 64.3865 71.9478 64.5025C72.1207 64.6161 72.342 64.673 72.6119 64.673C72.8771 64.673 73.0901 64.6221 73.2511 64.5203C73.4145 64.4161 73.4973 64.2823 73.4997 64.119C73.4973 63.9817 73.4393 63.8692 73.3257 63.7816C73.212 63.6917 73.0369 63.623 72.8001 63.5757L71.8555 63.3874C71.3228 63.2809 70.9263 63.0962 70.6659 62.8335C70.4078 62.5707 70.2788 62.2357 70.2788 61.8285C70.2788 61.4781 70.3735 61.1763 70.5629 60.923C70.7547 60.6696 71.0234 60.4743 71.369 60.337C71.717 60.1997 72.1242 60.131 72.5906 60.131C73.2795 60.131 73.8217 60.2766 74.217 60.5678C74.6147 60.859 74.8468 61.2556 74.913 61.7575ZM75.9899 65.6566V60.2021H77.5027V65.6566H75.9899ZM76.7534 59.4989C76.5285 59.4989 76.3356 59.4244 76.1746 59.2752C76.0136 59.1237 75.9331 58.9426 75.9331 58.7319C75.9331 58.5236 76.0136 58.3448 76.1746 58.1957C76.3356 58.0442 76.5273 57.9684 76.7499 57.9684C76.9771 57.9684 77.1701 58.0442 77.3287 58.1957C77.4897 58.3448 77.5702 58.5236 77.5702 58.7319C77.5702 58.9426 77.4897 59.1237 77.3287 59.2752C77.1701 59.4244 76.9783 59.4989 76.7534 59.4989Z" fill="white"/>
<path d="M137.532 168.016V160.744H139.069V163.95H139.165L141.782 160.744H143.625L140.927 164L143.657 168.016H141.818L139.826 165.026L139.069 165.95V168.016H137.532ZM146.741 168.016V160.744H149.61C150.162 160.744 150.632 160.849 151.02 161.06C151.408 161.268 151.704 161.558 151.908 161.93C152.114 162.299 152.216 162.725 152.216 163.208C152.216 163.691 152.112 164.117 151.904 164.487C151.696 164.856 151.394 165.144 150.998 165.35C150.605 165.556 150.13 165.659 149.571 165.659H147.742V164.426H149.322C149.618 164.426 149.862 164.375 150.054 164.274C150.248 164.169 150.392 164.026 150.487 163.844C150.584 163.659 150.633 163.447 150.633 163.208C150.633 162.967 150.584 162.756 150.487 162.576C150.392 162.394 150.248 162.253 150.054 162.154C149.86 162.052 149.614 162.001 149.315 162.001H148.278V168.016H146.741ZM153.187 168.016V162.562H154.653V163.514H154.71C154.81 163.175 154.977 162.919 155.211 162.747C155.445 162.571 155.715 162.484 156.021 162.484C156.096 162.484 156.178 162.489 156.266 162.498C156.353 162.507 156.43 162.521 156.497 162.537V163.879C156.425 163.858 156.327 163.839 156.202 163.823C156.076 163.806 155.961 163.798 155.857 163.798C155.635 163.798 155.436 163.846 155.261 163.943C155.088 164.038 154.951 164.171 154.849 164.341C154.749 164.512 154.7 164.708 154.7 164.931V168.016H153.187ZM159.489 168.123C158.938 168.123 158.461 168.006 158.058 167.771C157.658 167.535 157.349 167.206 157.131 166.784C156.913 166.36 156.805 165.869 156.805 165.311C156.805 164.747 156.913 164.255 157.131 163.833C157.349 163.409 157.658 163.08 158.058 162.846C158.461 162.609 158.938 162.491 159.489 162.491C160.041 162.491 160.517 162.609 160.917 162.846C161.319 163.08 161.629 163.409 161.847 163.833C162.065 164.255 162.174 164.747 162.174 165.311C162.174 165.869 162.065 166.36 161.847 166.784C161.629 167.206 161.319 167.535 160.917 167.771C160.517 168.006 160.041 168.123 159.489 168.123ZM159.496 166.951C159.747 166.951 159.957 166.88 160.125 166.738C160.293 166.594 160.42 166.397 160.505 166.149C160.592 165.9 160.636 165.617 160.636 165.3C160.636 164.983 160.592 164.7 160.505 164.451C160.42 164.203 160.293 164.006 160.125 163.862C159.957 163.717 159.747 163.645 159.496 163.645C159.243 163.645 159.03 163.717 158.857 163.862C158.687 164.006 158.558 164.203 158.47 164.451C158.385 164.7 158.342 164.983 158.342 165.3C158.342 165.617 158.385 165.9 158.47 166.149C158.558 166.397 158.687 166.594 158.857 166.738C159.03 166.88 159.243 166.951 159.496 166.951ZM163.158 162.562H164.67V168.269C164.67 168.69 164.586 169.033 164.418 169.298C164.252 169.564 164.013 169.757 163.701 169.877C163.391 170 163.017 170.056 162.579 170.044C162.538 170.044 162.497 170.044 162.454 170.044C162.409 170.044 162.357 170.042 162.298 170.037V168.855C162.338 168.857 162.374 168.858 162.405 168.858C162.433 168.86 162.464 168.862 162.497 168.862C162.741 168.862 162.911 168.81 163.008 168.705C163.108 168.604 163.158 168.45 163.158 168.244V162.562ZM163.914 161.859C163.689 161.859 163.496 161.784 163.335 161.635C163.174 161.484 163.094 161.302 163.094 161.092C163.094 160.883 163.174 160.705 163.335 160.556C163.496 160.404 163.688 160.328 163.91 160.328C164.138 160.328 164.331 160.404 164.489 160.556C164.65 160.705 164.731 160.883 164.731 161.092C164.731 161.302 164.65 161.484 164.489 161.635C164.331 161.784 164.139 161.859 163.914 161.859ZM168.368 168.123C167.807 168.123 167.324 168.009 166.919 167.782C166.517 167.552 166.206 167.228 165.989 166.809C165.771 166.388 165.662 165.889 165.662 165.314C165.662 164.753 165.771 164.261 165.989 163.837C166.206 163.413 166.513 163.083 166.908 162.846C167.306 162.609 167.773 162.491 168.308 162.491C168.667 162.491 169.002 162.549 169.313 162.665C169.625 162.779 169.897 162.95 170.129 163.18C170.364 163.409 170.546 163.698 170.676 164.046C170.806 164.392 170.872 164.797 170.872 165.261V165.676H166.266V164.739H169.447C169.447 164.521 169.4 164.328 169.305 164.16C169.211 163.992 169.079 163.86 168.911 163.766C168.746 163.669 168.553 163.62 168.332 163.62C168.103 163.62 167.899 163.673 167.722 163.78C167.546 163.884 167.409 164.025 167.31 164.203C167.21 164.378 167.159 164.573 167.157 164.788V165.68C167.157 165.95 167.207 166.183 167.306 166.379C167.408 166.576 167.551 166.727 167.736 166.834C167.921 166.94 168.139 166.994 168.393 166.994C168.561 166.994 168.715 166.97 168.854 166.923C168.994 166.875 169.114 166.804 169.213 166.71C169.313 166.615 169.388 166.499 169.44 166.362L170.84 166.454C170.769 166.79 170.623 167.084 170.403 167.335C170.185 167.583 169.903 167.777 169.558 167.917C169.214 168.054 168.818 168.123 168.368 168.123ZM176.397 164.117L175.012 164.203C174.988 164.084 174.938 163.978 174.859 163.883C174.781 163.786 174.678 163.709 174.55 163.652C174.425 163.593 174.275 163.563 174.099 163.563C173.865 163.563 173.667 163.613 173.506 163.713C173.345 163.81 173.265 163.94 173.265 164.103C173.265 164.233 173.317 164.343 173.421 164.433C173.525 164.523 173.704 164.596 173.957 164.65L174.945 164.849C175.475 164.958 175.87 165.133 176.131 165.374C176.391 165.616 176.521 165.933 176.521 166.326C176.521 166.684 176.416 166.997 176.205 167.267C175.997 167.537 175.711 167.748 175.346 167.899C174.984 168.048 174.566 168.123 174.092 168.123C173.37 168.123 172.795 167.973 172.367 167.672C171.94 167.369 171.691 166.957 171.617 166.436L173.105 166.358C173.15 166.578 173.259 166.746 173.432 166.862C173.605 166.976 173.826 167.033 174.096 167.033C174.361 167.033 174.574 166.982 174.735 166.88C174.898 166.776 174.981 166.642 174.984 166.479C174.981 166.342 174.923 166.229 174.81 166.141C174.696 166.052 174.521 165.983 174.284 165.936L173.34 165.747C172.807 165.641 172.41 165.456 172.15 165.193C171.892 164.931 171.763 164.596 171.763 164.188C171.763 163.838 171.858 163.536 172.047 163.283C172.239 163.03 172.507 162.834 172.853 162.697C173.201 162.56 173.608 162.491 174.075 162.491C174.764 162.491 175.306 162.637 175.701 162.928C176.099 163.219 176.331 163.615 176.397 164.117ZM177.474 168.016V162.562H178.987V168.016H177.474ZM178.237 161.859C178.013 161.859 177.82 161.784 177.659 161.635C177.498 161.484 177.417 161.302 177.417 161.092C177.417 160.883 177.498 160.705 177.659 160.556C177.82 160.404 178.011 160.328 178.234 160.328C178.461 160.328 178.654 160.404 178.813 160.556C178.974 160.705 179.054 160.883 179.054 161.092C179.054 161.302 178.974 161.484 178.813 161.635C178.654 161.784 178.462 161.859 178.237 161.859Z" fill="white"/>
<path d="M136.393 253.096H138.116L139.774 256.228H139.845L141.503 253.096H143.226L140.573 257.798V260.369H139.046V257.798L136.393 253.096ZM146.38 260.369V253.096H149.249C149.801 253.096 150.271 253.201 150.659 253.412C151.047 253.62 151.343 253.91 151.547 254.282C151.753 254.651 151.856 255.077 151.856 255.56C151.856 256.043 151.752 256.469 151.543 256.839C151.335 257.208 151.033 257.496 150.638 257.702C150.245 257.908 149.769 258.011 149.21 258.011H147.381V256.778H148.962C149.258 256.778 149.501 256.727 149.693 256.626C149.887 256.521 150.032 256.378 150.126 256.196C150.223 256.011 150.272 255.799 150.272 255.56C150.272 255.319 150.223 255.108 150.126 254.928C150.032 254.746 149.887 254.605 149.693 254.506C149.499 254.404 149.253 254.353 148.954 254.353H147.918V260.369H146.38ZM152.826 260.369V254.914H154.293V255.866H154.35C154.449 255.527 154.616 255.271 154.85 255.099C155.085 254.923 155.355 254.836 155.66 254.836C155.736 254.836 155.817 254.841 155.905 254.85C155.993 254.86 156.069 254.873 156.136 254.889V256.231C156.065 256.21 155.966 256.191 155.841 256.175C155.716 256.158 155.601 256.15 155.497 256.15C155.274 256.15 155.075 256.198 154.9 256.295C154.727 256.39 154.59 256.523 154.488 256.693C154.389 256.864 154.339 257.06 154.339 257.283V260.369H152.826ZM159.128 260.475C158.577 260.475 158.1 260.358 157.697 260.124C157.297 259.887 156.988 259.558 156.771 259.136C156.553 258.713 156.444 258.221 156.444 257.663C156.444 257.099 156.553 256.607 156.771 256.185C156.988 255.762 157.297 255.432 157.697 255.198C158.1 254.961 158.577 254.843 159.128 254.843C159.68 254.843 160.156 254.961 160.556 255.198C160.959 255.432 161.269 255.762 161.486 256.185C161.704 256.607 161.813 257.099 161.813 257.663C161.813 258.221 161.704 258.713 161.486 259.136C161.269 259.558 160.959 259.887 160.556 260.124C160.156 260.358 159.68 260.475 159.128 260.475ZM159.136 259.303C159.387 259.303 159.596 259.232 159.764 259.09C159.932 258.946 160.059 258.749 160.144 258.501C160.232 258.252 160.276 257.969 160.276 257.652C160.276 257.335 160.232 257.052 160.144 256.803C160.059 256.555 159.932 256.358 159.764 256.214C159.596 256.069 159.387 255.997 159.136 255.997C158.882 255.997 158.669 256.069 158.496 256.214C158.326 256.358 158.197 256.555 158.109 256.803C158.024 257.052 157.981 257.335 157.981 257.652C157.981 257.969 158.024 258.252 158.109 258.501C158.197 258.749 158.326 258.946 158.496 259.09C158.669 259.232 158.882 259.303 159.136 259.303ZM162.797 254.914H164.31V260.621C164.31 261.042 164.226 261.385 164.057 261.65C163.892 261.916 163.653 262.109 163.34 262.229C163.03 262.352 162.656 262.408 162.218 262.396C162.178 262.396 162.136 262.396 162.094 262.396C162.049 262.396 161.997 262.394 161.937 262.389V261.207C161.978 261.209 162.013 261.21 162.044 261.21C162.072 261.213 162.103 261.214 162.136 261.214C162.38 261.214 162.551 261.162 162.648 261.057C162.747 260.956 162.797 260.802 162.797 260.596V254.914ZM163.553 254.211C163.328 254.211 163.135 254.136 162.974 253.987C162.813 253.836 162.733 253.655 162.733 253.444C162.733 253.235 162.813 253.057 162.974 252.908C163.135 252.756 163.327 252.68 163.55 252.68C163.777 252.68 163.97 252.756 164.128 252.908C164.289 253.057 164.37 253.235 164.37 253.444C164.37 253.655 164.289 253.836 164.128 253.987C163.97 254.136 163.778 254.211 163.553 254.211ZM168.007 260.475C167.446 260.475 166.963 260.361 166.558 260.134C166.156 259.905 165.846 259.58 165.628 259.161C165.41 258.74 165.301 258.241 165.301 257.666C165.301 257.105 165.41 256.613 165.628 256.189C165.846 255.765 166.152 255.435 166.548 255.198C166.945 254.961 167.412 254.843 167.947 254.843C168.307 254.843 168.642 254.901 168.952 255.017C169.264 255.131 169.537 255.302 169.769 255.532C170.003 255.762 170.185 256.05 170.315 256.398C170.446 256.744 170.511 257.149 170.511 257.613V258.028H165.905V257.091H169.087C169.087 256.873 169.039 256.68 168.945 256.512C168.85 256.344 168.719 256.213 168.551 256.118C168.385 256.021 168.192 255.972 167.972 255.972C167.742 255.972 167.538 256.025 167.361 256.132C167.186 256.236 167.048 256.377 166.949 256.555C166.85 256.73 166.799 256.925 166.796 257.141V258.032C166.796 258.302 166.846 258.535 166.945 258.731C167.047 258.928 167.19 259.079 167.375 259.186C167.56 259.293 167.779 259.346 168.032 259.346C168.2 259.346 168.354 259.322 168.494 259.275C168.633 259.227 168.753 259.156 168.852 259.062C168.952 258.967 169.028 258.851 169.08 258.714L170.479 258.806C170.408 259.142 170.262 259.436 170.042 259.687C169.824 259.935 169.542 260.129 169.197 260.269C168.854 260.406 168.457 260.475 168.007 260.475ZM176.036 256.469L174.651 256.555C174.628 256.436 174.577 256.33 174.499 256.235C174.421 256.138 174.318 256.061 174.19 256.004C174.064 255.945 173.914 255.915 173.739 255.915C173.504 255.915 173.307 255.965 173.146 256.065C172.985 256.162 172.904 256.292 172.904 256.455C172.904 256.585 172.956 256.695 173.06 256.785C173.165 256.875 173.343 256.948 173.597 257.002L174.584 257.201C175.114 257.31 175.51 257.485 175.77 257.726C176.03 257.968 176.161 258.285 176.161 258.678C176.161 259.036 176.055 259.349 175.845 259.619C175.636 259.889 175.35 260.1 174.985 260.251C174.623 260.4 174.205 260.475 173.732 260.475C173.01 260.475 172.434 260.325 172.006 260.024C171.58 259.721 171.33 259.309 171.257 258.788L172.744 258.71C172.789 258.93 172.898 259.098 173.071 259.214C173.244 259.328 173.465 259.385 173.735 259.385C174 259.385 174.213 259.334 174.374 259.232C174.538 259.128 174.621 258.994 174.623 258.831C174.621 258.694 174.563 258.581 174.449 258.494C174.335 258.404 174.16 258.335 173.923 258.288L172.979 258.099C172.446 257.993 172.05 257.808 171.789 257.545C171.531 257.283 171.402 256.948 171.402 256.54C171.402 256.19 171.497 255.888 171.686 255.635C171.878 255.382 172.147 255.186 172.492 255.049C172.84 254.912 173.248 254.843 173.714 254.843C174.403 254.843 174.945 254.989 175.34 255.28C175.738 255.571 175.97 255.967 176.036 256.469ZM177.113 260.369V254.914H178.626V260.369H177.113ZM177.877 254.211C177.652 254.211 177.459 254.136 177.298 253.987C177.137 253.836 177.056 253.655 177.056 253.444C177.056 253.235 177.137 253.057 177.298 252.908C177.459 252.756 177.651 252.68 177.873 252.68C178.1 252.68 178.293 252.756 178.452 252.908C178.613 253.057 178.693 253.235 178.693 253.444C178.693 253.655 178.613 253.836 178.452 253.987C178.293 254.136 178.102 254.211 177.877 254.211Z" fill="white"/>
<path d="M189.817 10.8125V9.99112L193.083 5.40803H189.811V4.26705H194.822V5.08842L191.552 9.67152H194.828V10.8125H189.817ZM197.973 10.8125V4.26705H200.556C201.052 4.26705 201.475 4.36186 201.824 4.55149C202.174 4.73899 202.44 5 202.623 5.33452C202.809 5.6669 202.901 6.05043 202.901 6.48509C202.901 6.91974 202.808 7.30327 202.62 7.63565C202.433 7.96804 202.161 8.22692 201.805 8.41229C201.452 8.59766 201.023 8.69034 200.52 8.69034H198.874V7.58132H200.297C200.563 7.58132 200.782 7.53551 200.955 7.44389C201.13 7.35014 201.26 7.22124 201.345 7.05717C201.432 6.89098 201.476 6.70028 201.476 6.48509C201.476 6.26776 201.432 6.07812 201.345 5.91619C201.26 5.75213 201.13 5.62535 200.955 5.53587C200.78 5.44425 200.559 5.39844 200.29 5.39844H199.357V10.8125H197.973ZM203.775 10.8125V5.90341H205.095V6.75994H205.146C205.235 6.45526 205.386 6.22514 205.597 6.0696C205.807 5.91193 206.05 5.8331 206.325 5.8331C206.393 5.8331 206.467 5.83736 206.546 5.84588C206.625 5.8544 206.694 5.86612 206.753 5.88104V7.08913C206.69 7.06996 206.601 7.05291 206.488 7.038C206.375 7.02308 206.272 7.01562 206.178 7.01562C205.978 7.01562 205.799 7.0593 205.641 7.14666C205.486 7.23189 205.362 7.35121 205.271 7.50462C205.181 7.65803 205.136 7.83487 205.136 8.03516V10.8125H203.775ZM209.447 10.9084C208.95 10.9084 208.521 10.8029 208.159 10.592C207.799 10.3789 207.521 10.0827 207.325 9.70348C207.129 9.32209 207.031 8.87997 207.031 8.37713C207.031 7.87003 207.129 7.42685 207.325 7.04759C207.521 6.66619 207.799 6.37003 208.159 6.15909C208.521 5.94602 208.95 5.83949 209.447 5.83949C209.943 5.83949 210.372 5.94602 210.732 6.15909C211.094 6.37003 211.373 6.66619 211.569 7.04759C211.765 7.42685 211.863 7.87003 211.863 8.37713C211.863 8.87997 211.765 9.32209 211.569 9.70348C211.373 10.0827 211.094 10.3789 210.732 10.592C210.372 10.8029 209.943 10.9084 209.447 10.9084ZM209.453 9.85369C209.679 9.85369 209.868 9.78977 210.019 9.66193C210.17 9.53196 210.284 9.35511 210.361 9.13139C210.44 8.90767 210.479 8.65305 210.479 8.36754C210.479 8.08203 210.44 7.82741 210.361 7.60369C210.284 7.37997 210.17 7.20312 210.019 7.07315C209.868 6.94318 209.679 6.8782 209.453 6.8782C209.225 6.8782 209.034 6.94318 208.878 7.07315C208.725 7.20312 208.608 7.37997 208.53 7.60369C208.453 7.82741 208.415 8.08203 208.415 8.36754C208.415 8.65305 208.453 8.90767 208.53 9.13139C208.608 9.35511 208.725 9.53196 208.878 9.66193C209.034 9.78977 209.225 9.85369 209.453 9.85369ZM212.748 5.90341H214.11V11.0394C214.11 11.4187 214.034 11.7276 213.883 11.9663C213.734 12.2049 213.519 12.3786 213.237 12.4872C212.958 12.598 212.622 12.6481 212.227 12.6374C212.191 12.6374 212.154 12.6374 212.116 12.6374C212.075 12.6374 212.028 12.6353 211.975 12.631V11.5668C212.011 11.5689 212.043 11.57 212.071 11.57C212.096 11.5721 212.124 11.5732 212.154 11.5732C212.373 11.5732 212.527 11.5263 212.614 11.4325C212.704 11.3409 212.748 11.2024 212.748 11.017V5.90341ZM213.429 5.2706C213.227 5.2706 213.053 5.20348 212.908 5.06925C212.763 4.93288 212.691 4.76989 212.691 4.58026C212.691 4.39276 212.763 4.23189 212.908 4.09766C213.053 3.96129 213.226 3.89311 213.426 3.89311C213.631 3.89311 213.804 3.96129 213.947 4.09766C214.092 4.23189 214.164 4.39276 214.164 4.58026C214.164 4.76989 214.092 4.93288 213.947 5.06925C213.804 5.20348 213.632 5.2706 213.429 5.2706ZM217.438 10.9084C216.933 10.9084 216.498 10.8061 216.134 10.6016C215.772 10.3949 215.492 10.103 215.296 9.72585C215.1 9.34659 215.002 8.89808 215.002 8.38033C215.002 7.87536 215.1 7.43217 215.296 7.05078C215.492 6.66939 215.768 6.37216 216.124 6.15909C216.482 5.94602 216.902 5.83949 217.383 5.83949C217.707 5.83949 218.009 5.89169 218.288 5.99609C218.569 6.09837 218.814 6.25284 219.023 6.45952C219.234 6.66619 219.398 6.92614 219.515 7.23935C219.632 7.55043 219.691 7.91477 219.691 8.33239V8.70632H215.546V7.86257H218.409C218.409 7.66655 218.367 7.4929 218.282 7.34162C218.196 7.19034 218.078 7.07209 217.927 6.98686C217.778 6.8995 217.604 6.85582 217.406 6.85582C217.199 6.85582 217.016 6.90376 216.856 6.99964C216.698 7.09339 216.575 7.22017 216.485 7.37997C216.396 7.53764 216.35 7.71342 216.348 7.90732V8.70952C216.348 8.95241 216.393 9.16229 216.482 9.33913C216.574 9.51598 216.703 9.65234 216.869 9.74822C217.035 9.84411 217.232 9.89205 217.46 9.89205C217.611 9.89205 217.75 9.87074 217.876 9.82812C218.001 9.78551 218.109 9.72159 218.198 9.63636C218.288 9.55114 218.356 9.44673 218.403 9.32315L219.662 9.40625C219.598 9.70881 219.467 9.97301 219.269 10.1989C219.073 10.4226 218.82 10.5973 218.508 10.723C218.199 10.8466 217.843 10.9084 217.438 10.9084ZM224.664 7.30327L223.418 7.37997C223.396 7.27344 223.35 7.17756 223.28 7.09233C223.21 7.00497 223.117 6.93572 223.002 6.88459C222.889 6.83132 222.754 6.80469 222.596 6.80469C222.385 6.80469 222.207 6.84943 222.062 6.93892C221.918 7.02628 221.845 7.14347 221.845 7.29048C221.845 7.40767 221.892 7.50675 221.986 7.58771C222.079 7.66868 222.24 7.73366 222.468 7.78267L223.357 7.96165C223.834 8.05966 224.19 8.21733 224.424 8.43466C224.659 8.65199 224.776 8.9375 224.776 9.29119C224.776 9.61293 224.681 9.89524 224.491 10.1381C224.304 10.381 224.046 10.5707 223.718 10.707C223.392 10.8413 223.016 10.9084 222.59 10.9084C221.94 10.9084 221.422 10.7731 221.036 10.5025C220.653 10.2298 220.428 9.85902 220.362 9.39027L221.701 9.31996C221.742 9.51811 221.84 9.66939 221.995 9.77379C222.151 9.87607 222.35 9.9272 222.593 9.9272C222.832 9.9272 223.023 9.88139 223.168 9.78977C223.315 9.69602 223.39 9.57564 223.392 9.42862C223.39 9.30504 223.338 9.20384 223.235 9.125C223.133 9.04403 222.975 8.98224 222.762 8.93963L221.912 8.77024C221.433 8.67436 221.076 8.50817 220.842 8.27166C220.609 8.03516 220.493 7.73366 220.493 7.36719C220.493 7.05185 220.578 6.78018 220.749 6.5522C220.921 6.32422 221.163 6.14844 221.474 6.02486C221.788 5.90128 222.154 5.83949 222.574 5.83949C223.194 5.83949 223.682 5.97053 224.038 6.2326C224.396 6.49467 224.604 6.85156 224.664 7.30327ZM225.633 10.8125V5.90341H226.995V10.8125H225.633ZM226.32 5.2706C226.118 5.2706 225.944 5.20348 225.799 5.06925C225.654 4.93288 225.582 4.76989 225.582 4.58026C225.582 4.39276 225.654 4.23189 225.799 4.09766C225.944 3.96129 226.117 3.89311 226.317 3.89311C226.522 3.89311 226.695 3.96129 226.838 4.09766C226.983 4.23189 227.055 4.39276 227.055 4.58026C227.055 4.76989 226.983 4.93288 226.838 5.06925C226.695 5.20348 226.523 5.2706 226.32 5.2706Z" fill="white"/>
<path d="M188.97 108.657V101.384H190.508V107.389H193.626V108.657H188.97ZM196.958 108.657V101.384H199.828C200.379 101.384 200.849 101.489 201.237 101.7C201.626 101.908 201.922 102.198 202.125 102.57C202.331 102.939 202.434 103.366 202.434 103.848C202.434 104.331 202.33 104.758 202.122 105.127C201.913 105.496 201.611 105.784 201.216 105.99C200.823 106.196 200.347 106.299 199.789 106.299H197.96V105.067H199.54C199.836 105.067 200.08 105.016 200.271 104.914C200.466 104.81 200.61 104.666 200.705 104.484C200.802 104.299 200.85 104.088 200.85 103.848C200.85 103.607 200.802 103.396 200.705 103.216C200.61 103.034 200.466 102.893 200.271 102.794C200.077 102.692 199.831 102.641 199.533 102.641H198.496V108.657H196.958ZM203.404 108.657V103.202H204.871V104.154H204.928C205.027 103.815 205.194 103.56 205.429 103.387C205.663 103.212 205.933 103.124 206.238 103.124C206.314 103.124 206.396 103.129 206.483 103.138C206.571 103.148 206.648 103.161 206.714 103.177V104.52C206.643 104.498 206.545 104.479 206.419 104.463C206.294 104.446 206.179 104.438 206.075 104.438C205.852 104.438 205.654 104.487 205.478 104.584C205.305 104.678 205.168 104.811 205.066 104.981C204.967 105.152 204.917 105.348 204.917 105.571V108.657H203.404ZM209.707 108.763C209.155 108.763 208.678 108.646 208.276 108.412C207.876 108.175 207.567 107.846 207.349 107.424C207.131 107.001 207.022 106.509 207.022 105.951C207.022 105.387 207.131 104.895 207.349 104.473C207.567 104.05 207.876 103.721 208.276 103.486C208.678 103.25 209.155 103.131 209.707 103.131C210.258 103.131 210.734 103.25 211.134 103.486C211.537 103.721 211.847 104.05 212.065 104.473C212.283 104.895 212.391 105.387 212.391 105.951C212.391 106.509 212.283 107.001 212.065 107.424C211.847 107.846 211.537 108.175 211.134 108.412C210.734 108.646 210.258 108.763 209.707 108.763ZM209.714 107.591C209.965 107.591 210.174 107.52 210.342 107.378C210.511 107.234 210.637 107.037 210.722 106.789C210.81 106.54 210.854 106.257 210.854 105.94C210.854 105.623 210.81 105.34 210.722 105.091C210.637 104.843 210.511 104.646 210.342 104.502C210.174 104.357 209.965 104.285 209.714 104.285C209.461 104.285 209.248 104.357 209.075 104.502C208.904 104.646 208.775 104.843 208.688 105.091C208.602 105.34 208.56 105.623 208.56 105.94C208.56 106.257 208.602 106.54 208.688 106.789C208.775 107.037 208.904 107.234 209.075 107.378C209.248 107.52 209.461 107.591 209.714 107.591ZM213.375 103.202H214.888V108.909C214.888 109.33 214.804 109.674 214.636 109.939C214.47 110.204 214.231 110.397 213.918 110.518C213.608 110.641 213.234 110.696 212.796 110.684C212.756 110.684 212.715 110.684 212.672 110.684C212.627 110.684 212.575 110.682 212.516 110.677V109.495C212.556 109.497 212.592 109.498 212.622 109.498C212.651 109.501 212.682 109.502 212.715 109.502C212.958 109.502 213.129 109.45 213.226 109.346C213.325 109.244 213.375 109.09 213.375 108.884V103.202ZM214.132 102.499C213.907 102.499 213.714 102.424 213.553 102.275C213.392 102.124 213.311 101.943 213.311 101.732C213.311 101.524 213.392 101.345 213.553 101.196C213.714 101.044 213.905 100.969 214.128 100.969C214.355 100.969 214.548 101.044 214.707 101.196C214.868 101.345 214.948 101.524 214.948 101.732C214.948 101.943 214.868 102.124 214.707 102.275C214.548 102.424 214.356 102.499 214.132 102.499ZM218.586 108.763C218.024 108.763 217.542 108.65 217.137 108.422C216.734 108.193 216.424 107.868 216.206 107.449C215.989 107.028 215.88 106.53 215.88 105.954C215.88 105.393 215.989 104.901 216.206 104.477C216.424 104.053 216.731 103.723 217.126 103.486C217.524 103.25 217.99 103.131 218.525 103.131C218.885 103.131 219.22 103.189 219.53 103.305C219.843 103.419 220.115 103.59 220.347 103.82C220.581 104.05 220.764 104.339 220.894 104.687C221.024 105.032 221.089 105.437 221.089 105.901V106.317H216.483V105.379H219.665C219.665 105.161 219.618 104.968 219.523 104.8C219.428 104.632 219.297 104.501 219.129 104.406C218.963 104.309 218.77 104.26 218.55 104.26C218.32 104.26 218.117 104.314 217.939 104.42C217.764 104.524 217.627 104.665 217.527 104.843C217.428 105.018 217.377 105.213 217.375 105.429V106.32C217.375 106.59 217.424 106.823 217.524 107.02C217.626 107.216 217.769 107.368 217.953 107.474C218.138 107.581 218.357 107.634 218.61 107.634C218.779 107.634 218.932 107.61 219.072 107.563C219.212 107.516 219.331 107.445 219.431 107.35C219.53 107.255 219.606 107.139 219.658 107.002L221.057 107.094C220.986 107.43 220.841 107.724 220.62 107.975C220.403 108.223 220.121 108.418 219.775 108.557C219.432 108.695 219.035 108.763 218.586 108.763ZM226.615 104.758L225.23 104.843C225.206 104.724 225.155 104.618 225.077 104.523C224.999 104.426 224.896 104.349 224.768 104.292C224.643 104.233 224.492 104.204 224.317 104.204C224.083 104.204 223.885 104.253 223.724 104.353C223.563 104.45 223.483 104.58 223.483 104.743C223.483 104.874 223.535 104.984 223.639 105.074C223.743 105.164 223.922 105.236 224.175 105.29L225.162 105.489C225.693 105.598 226.088 105.773 226.348 106.015C226.609 106.256 226.739 106.573 226.739 106.966C226.739 107.324 226.634 107.638 226.423 107.907C226.215 108.177 225.928 108.388 225.564 108.54C225.201 108.689 224.783 108.763 224.31 108.763C223.588 108.763 223.013 108.613 222.584 108.312C222.158 108.009 221.908 107.597 221.835 107.076L223.323 106.998C223.368 107.219 223.477 107.387 223.649 107.503C223.822 107.616 224.044 107.673 224.314 107.673C224.579 107.673 224.792 107.622 224.953 107.52C225.116 107.416 225.199 107.282 225.201 107.119C225.199 106.982 225.141 106.869 225.027 106.782C224.914 106.692 224.739 106.623 224.502 106.576L223.557 106.388C223.024 106.281 222.628 106.096 222.368 105.834C222.109 105.571 221.98 105.236 221.98 104.829C221.98 104.478 222.075 104.176 222.265 103.923C222.456 103.67 222.725 103.474 223.071 103.337C223.419 103.2 223.826 103.131 224.292 103.131C224.981 103.131 225.523 103.277 225.919 103.568C226.316 103.859 226.548 104.256 226.615 104.758ZM227.692 108.657V103.202H229.204V108.657H227.692ZM228.455 102.499C228.23 102.499 228.037 102.424 227.876 102.275C227.715 102.124 227.635 101.943 227.635 101.732C227.635 101.524 227.715 101.345 227.876 101.196C228.037 101.044 228.229 100.969 228.452 100.969C228.679 100.969 228.872 101.044 229.03 101.196C229.191 101.345 229.272 101.524 229.272 101.732C229.272 101.943 229.191 102.124 229.03 102.275C228.872 102.424 228.68 102.499 228.455 102.499Z" fill="white"/>
<defs>
<filter id="filter0_d" x="253.438" y="106.282" width="113.251" height="113.251" filterUnits="userSpaceOnUse" color-interpolation-filters="sRGB">
<feFlood flood-opacity="0" result="BackgroundImageFix"/>
<feColorMatrix in="SourceAlpha" type="matrix" values="0 0 0 0 0 0 0 0 0 0 0 0 0 0 0 0 0 0 127 0"/>
<feMorphology radius="2" operator="erode" in="SourceAlpha" result="effect1_dropShadow"/>
<feOffset dy="4"/>
<feGaussianBlur stdDeviation="4"/>
<feColorMatrix type="matrix" values="0 0 0 0 0 0 0 0 0 0 0 0 0 0 0 0 0 0 0.25 0"/>
<feBlend mode="normal" in2="BackgroundImageFix" result="effect1_dropShadow"/>
<feBlend mode="normal" in="SourceGraphic" in2="effect1_dropShadow" result="shape"/>
</filter>
<filter id="filter1_d" x="152.187" y="5.03125" width="113.251" height="113.251" filterUnits="userSpaceOnUse" color-interpolation-filters="sRGB">
<feFlood flood-opacity="0" result="BackgroundImageFix"/>
<feColorMatrix in="SourceAlpha" type="matrix" values="0 0 0 0 0 0 0 0 0 0 0 0 0 0 0 0 0 0 127 0"/>
<feMorphology radius="2" operator="erode" in="SourceAlpha" result="effect1_dropShadow"/>
<feOffset dy="4"/>
<feGaussianBlur stdDeviation="4"/>
<feColorMatrix type="matrix" values="0 0 0 0 0 0 0 0 0 0 0 0 0 0 0 0 0 0 0.25 0"/>
<feBlend mode="normal" in2="BackgroundImageFix" result="effect1_dropShadow"/>
<feBlend mode="normal" in="SourceGraphic" in2="effect1_dropShadow" result="shape"/>
</filter>
<filter id="filter2_d" x="101.562" y="156.907" width="113.251" height="113.251" filterUnits="userSpaceOnUse" color-interpolation-filters="sRGB">
<feFlood flood-opacity="0" result="BackgroundImageFix"/>
<feColorMatrix in="SourceAlpha" type="matrix" values="0 0 0 0 0 0 0 0 0 0 0 0 0 0 0 0 0 0 127 0"/>
<feMorphology radius="2" operator="erode" in="SourceAlpha" result="effect1_dropShadow"/>
<feOffset dy="4"/>
<feGaussianBlur stdDeviation="4"/>
<feColorMatrix type="matrix" values="0 0 0 0 0 0 0 0 0 0 0 0 0 0 0 0 0 0 0.25 0"/>
<feBlend mode="normal" in2="BackgroundImageFix" result="effect1_dropShadow"/>
<feBlend mode="normal" in="SourceGraphic" in2="effect1_dropShadow" result="shape"/>
</filter>
<filter id="filter3_d" x="0.311523" y="55.6566" width="113.251" height="113.251" filterUnits="userSpaceOnUse" color-interpolation-filters="sRGB">
<feFlood flood-opacity="0" result="BackgroundImageFix"/>
<feColorMatrix in="SourceAlpha" type="matrix" values="0 0 0 0 0 0 0 0 0 0 0 0 0 0 0 0 0 0 127 0"/>
<feMorphology radius="2" operator="erode" in="SourceAlpha" result="effect1_dropShadow"/>
<feOffset dy="4"/>
<feGaussianBlur stdDeviation="4"/>
<feColorMatrix type="matrix" values="0 0 0 0 0 0 0 0 0 0 0 0 0 0 0 0 0 0 0.25 0"/>
<feBlend mode="normal" in2="BackgroundImageFix" result="effect1_dropShadow"/>
<feBlend mode="normal" in="SourceGraphic" in2="effect1_dropShadow" result="shape"/>
</filter>
<linearGradient id="paint0_linear" x1="310.063" y1="108.282" x2="310.063" y2="209.532" gradientUnits="userSpaceOnUse">
<stop stop-color="#F0F0F0"/>
<stop offset="1" stop-color="#F0F0F0" stop-opacity="0.46"/>
</linearGradient>
<linearGradient id="paint1_linear" x1="310.063" y1="108.282" x2="310.063" y2="209.532" gradientUnits="userSpaceOnUse">
<stop stop-color="white"/>
<stop offset="1" stop-color="white" stop-opacity="0"/>
</linearGradient>
<linearGradient id="paint2_linear" x1="239.469" y1="60.844" x2="225.969" y2="116.344" gradientUnits="userSpaceOnUse">
<stop stop-color="#FF564B"/>
<stop offset="1" stop-color="#F9C543"/>
</linearGradient>
<linearGradient id="paint3_linear" x1="158.187" y1="158.907" x2="158.187" y2="260.158" gradientUnits="userSpaceOnUse">
<stop stop-color="#0A79B4"/>
<stop offset="1" stop-color="#0A79B4" stop-opacity="0.5"/>
</linearGradient>
<linearGradient id="paint4_linear" x1="158.187" y1="158.907" x2="158.187" y2="260.158" gradientUnits="userSpaceOnUse">
<stop stop-color="#00A6FF"/>
<stop offset="1" stop-color="#00A6FF" stop-opacity="0"/>
</linearGradient>
<linearGradient id="paint5_linear" x1="56.9575" y1="57.6566" x2="56.9576" y2="158.99" gradientUnits="userSpaceOnUse">
<stop stop-color="#D80032"/>
<stop offset="1" stop-color="#FF7751"/>
</linearGradient>
<clipPath id="clip0">
<rect x="6.31152" y="57.6566" width="101.251" height="101.251" rx="50.6253" fill="white"/>
</clipPath>
</defs>
</svg>
