<svg width="516" height="381" viewBox="0 0 516 381" fill="none" xmlns="http://www.w3.org/2000/svg">
<path d="M423.035 149.671C423.536 149.904 424.131 149.686 424.363 149.185L428.153 141.022C428.386 140.521 428.169 139.927 427.668 139.694C427.167 139.462 426.572 139.679 426.339 140.18L422.97 147.436L415.714 144.067C415.213 143.834 414.619 144.052 414.386 144.553C414.154 145.054 414.371 145.648 414.872 145.881L423.035 149.671ZM352.946 93.0227C353.895 93.07 354.83 93.1236 355.751 93.1837L355.882 91.188C354.95 91.1272 354.005 91.073 353.045 91.0252L352.946 93.0227ZM364.084 93.9566C365.99 94.1923 367.826 94.465 369.598 94.7767L369.945 92.807C368.137 92.4889 366.266 92.2113 364.33 91.9718L364.084 93.9566ZM377.727 96.6114C379.556 97.1278 381.306 97.7017 382.985 98.3364L383.692 96.4656C381.956 95.8093 380.151 95.2177 378.271 94.6867L377.727 96.6114ZM390.473 101.837C392.081 102.753 393.618 103.749 395.091 104.83L396.274 103.217C394.738 102.09 393.137 101.053 391.463 100.099L390.473 101.837ZM401.306 110.264C402.562 111.56 403.772 112.942 404.945 114.416L406.51 113.171C405.299 111.649 404.046 110.217 402.742 108.872L401.306 110.264ZM409.71 121.228C410.659 122.759 411.586 124.365 412.496 126.05L414.256 125.099C413.328 123.382 412.381 121.742 411.41 120.175L409.71 121.228ZM416.206 133.534C416.959 135.182 417.706 136.892 418.448 138.666L420.293 137.894C419.543 136.102 418.788 134.372 418.024 132.702L416.206 133.534ZM421.537 146.466C421.864 147.333 422.19 148.214 422.517 149.108L424.395 148.421C424.066 147.521 423.738 146.635 423.409 145.761L421.537 146.466ZM422.614 150.578C423.616 151.043 424.805 150.608 425.27 149.606L432.851 133.28C433.316 132.279 432.881 131.089 431.879 130.624C430.877 130.159 429.688 130.594 429.223 131.596L422.485 146.108L407.973 139.37C406.971 138.905 405.781 139.34 405.316 140.342C404.851 141.343 405.286 142.533 406.288 142.998L422.614 150.578ZM352.896 94.0215C353.841 94.0685 354.771 94.1218 355.686 94.1816L355.947 90.1901C355.01 90.1289 354.059 90.0745 353.095 90.0264L352.896 94.0215ZM363.962 94.9491C365.851 95.1828 367.671 95.453 369.425 95.7616L370.118 91.8221C368.292 91.5008 366.405 91.2208 364.453 90.9793L363.962 94.9491ZM377.455 97.5737C379.258 98.0829 380.981 98.6479 382.631 99.2717L384.046 95.5302C382.281 94.8632 380.449 94.2626 378.542 93.7243L377.455 97.5737ZM389.978 102.706C391.553 103.603 393.057 104.578 394.5 105.636L396.866 102.411C395.299 101.261 393.665 100.202 391.958 99.23L389.978 102.706ZM400.588 110.96C401.82 112.231 403.009 113.589 404.163 115.039L407.293 112.549C406.063 111.002 404.788 109.546 403.46 108.176L400.588 110.96ZM408.86 121.755C409.797 123.267 410.714 124.856 411.616 126.525L415.136 124.624C414.199 122.891 413.243 121.233 412.26 119.648L408.86 121.755ZM415.296 133.95C416.045 135.588 416.787 137.287 417.525 139.052L421.215 137.508C420.462 135.707 419.702 133.967 418.934 132.286L415.296 133.95ZM420.601 146.818C420.926 147.683 421.252 148.56 421.578 149.451L425.335 148.077C425.004 147.175 424.675 146.286 424.344 145.409L420.601 146.818Z" fill="url(#paint0_linear)"/>
<path d="M288.781 175.524C288.387 175.137 287.754 175.144 287.367 175.539L281.073 181.972C280.687 182.367 280.694 183 281.089 183.386C281.483 183.772 282.116 183.766 282.503 183.371L288.098 177.653L293.816 183.247C294.21 183.634 294.844 183.627 295.23 183.232C295.616 182.837 295.609 182.204 295.214 181.818L288.781 175.524ZM249.183 259.308C250.097 258.7 250.992 258.093 251.869 257.488L250.732 255.842C249.866 256.441 248.98 257.041 248.075 257.643L249.183 259.308ZM259.704 251.713C261.455 250.325 263.112 248.933 264.679 247.53L263.345 246.04C261.81 247.415 260.184 248.78 258.462 250.146L259.704 251.713ZM271.589 240.601C273.056 238.935 274.415 237.237 275.67 235.495L274.047 234.325C272.832 236.012 271.514 237.66 270.088 239.28L271.589 240.601ZM280.756 227.1C281.724 225.165 282.594 223.169 283.372 221.098L281.501 220.394C280.745 222.401 279.903 224.334 278.967 226.206L280.756 227.1ZM286.175 211.722C286.65 209.665 287.059 207.536 287.409 205.327L285.434 205.014C285.091 207.181 284.69 209.265 284.227 211.273L286.175 211.722ZM288.533 195.65C288.698 193.563 288.825 191.409 288.916 189.182L286.918 189.1C286.827 191.304 286.702 193.433 286.539 195.492L288.533 195.65ZM289.101 179.471C289.1 178.406 289.094 177.324 289.082 176.228L287.082 176.249C287.094 177.34 287.1 178.414 287.101 179.472L289.101 179.471ZM289.481 174.809C288.691 174.036 287.425 174.05 286.653 174.84L274.064 187.706C273.292 188.495 273.305 189.761 274.095 190.534C274.884 191.306 276.151 191.293 276.923 190.503L288.113 179.067L299.549 190.256C300.339 191.029 301.605 191.015 302.378 190.226C303.15 189.436 303.136 188.17 302.347 187.397L289.481 174.809ZM249.737 260.141C250.656 259.529 251.556 258.92 252.437 258.311L250.164 255.02C249.303 255.614 248.422 256.211 247.521 256.811L249.737 260.141ZM260.325 252.496C262.09 251.097 263.762 249.693 265.346 248.275L262.677 245.295C261.159 246.655 259.548 248.008 257.84 249.362L260.325 252.496ZM272.34 241.262C273.827 239.573 275.206 237.849 276.481 236.079L273.236 233.741C272.04 235.4 270.743 237.022 269.338 238.619L272.34 241.262ZM281.65 227.548C282.634 225.581 283.518 223.552 284.308 221.45L280.565 220.042C279.821 222.018 278.993 223.919 278.073 225.758L281.65 227.548ZM287.15 211.947C287.63 209.866 288.044 207.714 288.397 205.484L284.446 204.858C284.106 207.004 283.71 209.064 283.252 211.048L287.15 211.947ZM289.53 195.729C289.696 193.628 289.823 191.462 289.915 189.223L285.918 189.059C285.829 191.252 285.704 193.368 285.542 195.414L289.53 195.729ZM290.101 179.471C290.1 178.402 290.094 177.317 290.082 176.217L286.082 176.26C286.094 177.347 286.1 178.418 286.101 179.472L290.101 179.471Z" fill="url(#paint1_linear)"/>
<path d="M155.738 172.07L156.309 171.249L156.309 171.249L155.738 172.07ZM183.243 217.356C183.716 217.641 184.33 217.487 184.615 217.014L189.251 209.3C189.535 208.826 189.382 208.212 188.908 207.927C188.435 207.643 187.821 207.796 187.536 208.27L183.416 215.127L176.558 211.006C176.085 210.722 175.471 210.875 175.186 211.348C174.902 211.822 175.055 212.436 175.528 212.72L183.243 217.356ZM105.378 160.179C105.457 161.176 105.457 161.176 105.457 161.176C105.457 161.176 105.457 161.176 105.457 161.176C105.457 161.176 105.457 161.176 105.457 161.176C105.457 161.176 105.457 161.176 105.457 161.176C105.457 161.176 105.458 161.176 105.458 161.176C105.46 161.176 105.462 161.176 105.465 161.175C105.471 161.175 105.481 161.174 105.495 161.173C105.522 161.171 105.563 161.168 105.619 161.164C105.729 161.157 105.895 161.147 106.113 161.135C106.549 161.112 107.193 161.083 108.017 161.062L107.967 159.062C107.122 159.084 106.459 159.113 106.006 159.138C105.779 159.15 105.604 159.161 105.485 159.169C105.426 159.173 105.381 159.176 105.349 159.178C105.334 159.179 105.322 159.18 105.314 159.181C105.309 159.181 105.306 159.182 105.304 159.182C105.303 159.182 105.302 159.182 105.301 159.182C105.301 159.182 105.3 159.182 105.3 159.182C105.3 159.182 105.3 159.182 105.3 159.182C105.3 159.182 105.3 159.182 105.3 159.182C105.3 159.182 105.3 159.182 105.378 160.179ZM115.843 161.183C117.448 161.268 119.191 161.397 121.038 161.585L121.241 159.596C119.359 159.403 117.583 159.272 115.949 159.186L115.843 161.183ZM128.774 162.676C130.439 162.979 132.141 163.335 133.862 163.753L134.334 161.809C132.572 161.381 130.832 161.018 129.132 160.708L128.774 162.676ZM141.335 165.958C142.952 166.529 144.563 167.163 146.152 167.867L146.963 166.039C145.322 165.312 143.663 164.658 142 164.072L141.335 165.958ZM153.011 171.475C153.741 171.928 154.46 172.399 155.167 172.891L156.309 171.249C155.572 170.737 154.824 170.246 154.066 169.776L153.011 171.475ZM155.167 172.891C155.885 173.39 156.587 173.909 157.273 174.447L158.506 172.872C157.791 172.312 157.059 171.77 156.309 171.249L155.167 172.891ZM163.074 179.764C164.284 181.047 165.432 182.379 166.519 183.745L168.084 182.499C166.964 181.093 165.78 179.718 164.528 178.392L163.074 179.764ZM171.105 190.2C172.069 191.717 172.968 193.24 173.802 194.746L175.551 193.777C174.699 192.238 173.781 190.681 172.793 189.127L171.105 190.2ZM177.363 201.847C178.142 203.566 178.83 205.207 179.432 206.73L181.292 205.996C180.679 204.445 179.978 202.773 179.185 201.022L177.363 201.847ZM182.072 214.235C182.317 215.036 182.497 215.666 182.615 216.094C182.674 216.308 182.718 216.472 182.746 216.581C182.76 216.635 182.771 216.676 182.778 216.703C182.781 216.717 182.784 216.726 182.785 216.733C182.786 216.736 182.787 216.738 182.787 216.739C182.787 216.74 182.787 216.741 182.787 216.741C182.787 216.741 182.787 216.741 182.787 216.741C182.787 216.741 182.787 216.741 182.787 216.741C182.787 216.741 182.787 216.741 182.787 216.741C182.787 216.741 182.787 216.741 183.758 216.499C184.728 216.257 184.728 216.257 184.728 216.257C184.728 216.257 184.728 216.257 184.728 216.257C184.728 216.257 184.728 216.257 184.728 216.257C184.728 216.256 184.728 216.256 184.728 216.256C184.728 216.255 184.727 216.254 184.727 216.253C184.726 216.251 184.726 216.247 184.725 216.243C184.723 216.235 184.72 216.223 184.716 216.208C184.708 216.177 184.696 216.132 184.681 216.074C184.65 215.957 184.604 215.785 184.543 215.562C184.42 215.117 184.235 214.469 183.984 213.649L182.072 214.235ZM155.738 172.07L156.879 170.428L156.879 170.428L155.738 172.07ZM182.728 218.213C183.674 218.782 184.903 218.476 185.472 217.529L194.743 202.1C195.312 201.154 195.006 199.925 194.059 199.356C193.112 198.787 191.884 199.093 191.315 200.04L183.074 213.754L169.359 205.513C168.412 204.944 167.184 205.251 166.615 206.198C166.046 207.144 166.352 208.373 167.299 208.942L182.728 218.213ZM105.378 160.179C105.536 162.173 105.536 162.173 105.535 162.173C105.535 162.173 105.535 162.173 105.535 162.173C105.535 162.173 105.535 162.173 105.535 162.173C105.535 162.173 105.535 162.173 105.535 162.173C105.535 162.173 105.535 162.173 105.535 162.173C105.536 162.173 105.538 162.173 105.541 162.172C105.546 162.172 105.555 162.171 105.568 162.17C105.593 162.169 105.632 162.166 105.685 162.162C105.792 162.155 105.953 162.145 106.167 162.134C106.594 162.111 107.228 162.082 108.043 162.061L107.941 158.063C107.087 158.084 106.414 158.114 105.952 158.139C105.721 158.152 105.542 158.163 105.419 158.171C105.357 158.175 105.31 158.179 105.277 158.181C105.26 158.182 105.247 158.183 105.238 158.184C105.233 158.184 105.23 158.185 105.227 158.185C105.225 158.185 105.224 158.185 105.223 158.185C105.223 158.185 105.222 158.185 105.222 158.185C105.222 158.185 105.222 158.185 105.221 158.185C105.221 158.185 105.221 158.185 105.221 158.185C105.221 158.185 105.221 158.185 105.378 160.179ZM115.79 162.181C117.38 162.266 119.107 162.393 120.936 162.58L121.343 158.601C119.443 158.407 117.651 158.275 116.002 158.187L115.79 162.181ZM128.595 163.66C130.242 163.96 131.925 164.312 133.626 164.724L134.57 160.837C132.788 160.405 131.028 160.037 129.311 159.725L128.595 163.66ZM141.003 166.902C142.597 167.464 144.183 168.088 145.747 168.782L147.368 165.125C145.702 164.386 144.018 163.723 142.332 163.129L141.003 166.902ZM152.484 172.325C153.199 172.768 153.904 173.231 154.596 173.712L156.879 170.428C156.128 169.906 155.365 169.405 154.593 168.926L152.484 172.325ZM154.596 173.712C155.298 174.2 155.985 174.708 156.657 175.234L159.123 172.085C158.393 171.513 157.646 170.96 156.879 170.428L154.596 173.712ZM162.347 180.451C163.536 181.711 164.666 183.022 165.737 184.367L168.866 181.876C167.73 180.45 166.528 179.053 165.256 177.705L162.347 180.451ZM170.261 190.737C171.214 192.235 172.102 193.74 172.927 195.23L176.426 193.293C175.565 191.737 174.636 190.163 173.637 188.591L170.261 190.737ZM176.452 202.26C177.224 203.963 177.906 205.589 178.501 207.098L182.222 205.628C181.604 204.063 180.897 202.377 180.095 200.609L176.452 202.26ZM181.116 214.528C181.358 215.319 181.535 215.94 181.651 216.36C181.709 216.57 181.751 216.729 181.779 216.834C181.793 216.887 181.803 216.926 181.809 216.951C181.812 216.963 181.814 216.972 181.816 216.977C181.817 216.98 181.817 216.982 181.817 216.983C181.817 216.983 181.817 216.983 181.817 216.983C181.817 216.983 181.817 216.983 181.817 216.983C181.817 216.983 181.817 216.983 181.817 216.983C181.817 216.983 181.817 216.983 181.817 216.983C181.817 216.983 181.817 216.983 183.758 216.499C185.698 216.015 185.698 216.015 185.698 216.015C185.698 216.015 185.698 216.015 185.698 216.015C185.698 216.015 185.698 216.014 185.698 216.014C185.698 216.014 185.698 216.014 185.698 216.013C185.698 216.012 185.697 216.011 185.697 216.01C185.696 216.007 185.695 216.003 185.694 215.999C185.692 215.989 185.689 215.977 185.684 215.96C185.676 215.928 185.664 215.881 185.648 215.82C185.616 215.699 185.57 215.523 185.507 215.297C185.382 214.843 185.194 214.186 184.94 213.356L181.116 214.528Z" fill="url(#paint2_linear)"/>
<g filter="url(#filter0_d)">
<rect x="366" y="154.25" width="144" height="144" rx="72" fill="url(#paint3_linear)"/>
<rect x="366" y="154.25" width="144" height="144" rx="72" fill="url(#paint4_linear)"/>
<path d="M390.017 235.25V217.795H401.574V220.838H393.707V224.997H400.807V228.04H393.707V235.25H390.017ZM403.988 235.25V222.159H407.619V235.25H403.988ZM405.82 220.472C405.281 220.472 404.817 220.293 404.431 219.935C404.045 219.571 403.852 219.136 403.852 218.631C403.852 218.131 404.045 217.702 404.431 217.344C404.817 216.98 405.278 216.798 405.812 216.798C406.357 216.798 406.82 216.98 407.201 217.344C407.587 217.702 407.781 218.131 407.781 218.631C407.781 219.136 407.587 219.571 407.201 219.935C406.82 220.293 406.36 220.472 405.82 220.472ZM414.158 227.682V235.25H410.527V222.159H413.987V224.469H414.141C414.43 223.707 414.916 223.105 415.598 222.662C416.28 222.213 417.107 221.989 418.078 221.989C418.987 221.989 419.78 222.188 420.456 222.585C421.132 222.983 421.658 223.551 422.033 224.29C422.408 225.023 422.595 225.898 422.595 226.915V235.25H418.964V227.562C418.97 226.761 418.766 226.136 418.351 225.688C417.936 225.233 417.365 225.006 416.638 225.006C416.149 225.006 415.717 225.111 415.342 225.321C414.973 225.531 414.683 225.838 414.473 226.241C414.268 226.639 414.163 227.119 414.158 227.682ZM429.19 235.497C428.354 235.497 427.61 235.352 426.957 235.062C426.303 234.767 425.786 234.332 425.406 233.759C425.031 233.179 424.843 232.457 424.843 231.594C424.843 230.866 424.977 230.256 425.244 229.761C425.511 229.267 425.874 228.869 426.335 228.568C426.795 228.267 427.317 228.04 427.903 227.886C428.494 227.733 429.113 227.625 429.761 227.562C430.522 227.483 431.136 227.409 431.602 227.341C432.067 227.267 432.406 227.159 432.616 227.017C432.826 226.875 432.931 226.665 432.931 226.386V226.335C432.931 225.795 432.761 225.378 432.42 225.082C432.085 224.787 431.607 224.639 430.988 224.639C430.335 224.639 429.815 224.784 429.428 225.074C429.042 225.358 428.786 225.716 428.661 226.148L425.303 225.875C425.474 225.08 425.809 224.392 426.309 223.812C426.809 223.227 427.454 222.778 428.244 222.466C429.039 222.148 429.96 221.989 431.005 221.989C431.732 221.989 432.428 222.074 433.093 222.244C433.763 222.415 434.357 222.679 434.874 223.037C435.397 223.395 435.809 223.855 436.11 224.418C436.411 224.974 436.562 225.642 436.562 226.42V235.25H433.119V233.435H433.016C432.806 233.844 432.525 234.205 432.173 234.517C431.82 234.824 431.397 235.065 430.903 235.241C430.408 235.412 429.837 235.497 429.19 235.497ZM430.229 232.991C430.763 232.991 431.235 232.886 431.644 232.676C432.053 232.46 432.374 232.17 432.607 231.807C432.84 231.443 432.957 231.031 432.957 230.571V229.182C432.843 229.256 432.687 229.324 432.488 229.386C432.295 229.443 432.076 229.497 431.832 229.548C431.587 229.594 431.343 229.636 431.099 229.676C430.854 229.71 430.633 229.741 430.434 229.77C430.008 229.832 429.636 229.932 429.317 230.068C428.999 230.205 428.752 230.389 428.576 230.622C428.4 230.849 428.312 231.134 428.312 231.474C428.312 231.969 428.491 232.347 428.849 232.608C429.212 232.864 429.673 232.991 430.229 232.991ZM443.009 217.795V235.25H439.379V217.795H443.009ZM454.549 235.25H450.594L456.62 217.795H461.376L467.393 235.25H463.438L459.066 221.784H458.93L454.549 235.25ZM454.302 228.389H463.643V231.27H454.302V228.389ZM470.026 240.134C469.566 240.134 469.134 240.097 468.731 240.023C468.333 239.955 468.004 239.869 467.742 239.767L468.56 237.048C469.202 237.247 469.742 237.298 470.18 237.202C470.623 237.111 470.972 236.77 471.228 236.179L471.441 235.625L466.745 222.159H470.563L473.273 231.773H473.41L476.146 222.159L479.989 222.176L474.901 236.665C474.657 237.364 474.325 237.972 473.904 238.489C473.489 239.011 472.964 239.415 472.327 239.699C471.691 239.989 470.924 240.134 470.026 240.134ZM481.847 235.25V222.159H485.478V235.25H481.847Z" fill="black"/>
</g>
<g filter="url(#filter1_d)">
<rect x="222" y="10.25" width="144" height="144" rx="72" fill="url(#paint5_linear)"/>
<path d="M272.866 91.4886C271.594 91.4886 270.46 91.2699 269.466 90.8324C268.477 90.3892 267.696 89.7812 267.122 89.0085C266.554 88.2301 266.261 87.3324 266.244 86.3153H269.96C269.983 86.7415 270.122 87.1165 270.378 87.4403C270.639 87.7585 270.986 88.0057 271.418 88.1818C271.849 88.358 272.335 88.446 272.875 88.446C273.438 88.446 273.935 88.3466 274.366 88.1477C274.798 87.9489 275.136 87.6733 275.381 87.321C275.625 86.9687 275.747 86.5625 275.747 86.1023C275.747 85.6364 275.616 85.2244 275.355 84.8665C275.099 84.5028 274.73 84.2187 274.247 84.0142C273.77 83.8097 273.202 83.7074 272.543 83.7074H270.915V80.9972H272.543C273.099 80.9972 273.591 80.9006 274.017 80.7074C274.449 80.5142 274.784 80.2472 275.023 79.9062C275.261 79.5597 275.381 79.1562 275.381 78.696C275.381 78.2585 275.276 77.875 275.065 77.5455C274.861 77.2102 274.571 76.9489 274.196 76.7614C273.827 76.5739 273.395 76.4801 272.901 76.4801C272.401 76.4801 271.943 76.571 271.528 76.7528C271.114 76.929 270.781 77.1818 270.531 77.5114C270.281 77.8409 270.148 78.2273 270.131 78.6705H266.594C266.611 77.6648 266.898 76.7784 267.455 76.0114C268.011 75.2443 268.761 74.6449 269.705 74.2131C270.653 73.7756 271.724 73.5568 272.918 73.5568C274.122 73.5568 275.176 73.7756 276.08 74.2131C276.983 74.6506 277.685 75.2415 278.185 75.9858C278.69 76.7244 278.94 77.554 278.935 78.4744C278.94 79.4517 278.636 80.267 278.023 80.9205C277.415 81.5739 276.622 81.9886 275.645 82.1648V82.3011C276.929 82.4659 277.906 82.9119 278.577 83.6392C279.253 84.3608 279.588 85.2642 279.582 86.3494C279.588 87.3438 279.301 88.2273 278.722 89C278.148 89.7727 277.355 90.3807 276.344 90.8239C275.332 91.267 274.173 91.4886 272.866 91.4886ZM283.899 91.4716C283.337 91.4716 282.854 91.2727 282.45 90.875C282.053 90.4716 281.854 89.9886 281.854 89.4261C281.854 88.8693 282.053 88.392 282.45 87.9943C282.854 87.5966 283.337 87.3977 283.899 87.3977C284.445 87.3977 284.922 87.5966 285.331 87.9943C285.74 88.392 285.945 88.8693 285.945 89.4261C285.945 89.8011 285.848 90.1449 285.655 90.4574C285.467 90.7642 285.22 91.0114 284.913 91.1989C284.607 91.3807 284.268 91.4716 283.899 91.4716ZM296.737 91.25H292.782L298.808 73.7955H303.563L309.58 91.25H305.626L301.254 77.7841H301.117L296.737 91.25ZM296.489 84.3892H305.83V87.2699H296.489V84.3892ZM312.214 96.1335C311.754 96.1335 311.322 96.0966 310.918 96.0227C310.521 95.9545 310.191 95.8693 309.93 95.767L310.748 93.0483C311.39 93.2472 311.93 93.2983 312.367 93.2017C312.81 93.1108 313.16 92.7699 313.415 92.179L313.629 91.625L308.933 78.1591H312.751L315.461 87.7727H315.597L318.333 78.1591L322.177 78.1761L317.089 92.6648C316.844 93.3636 316.512 93.9716 316.092 94.4886C315.677 95.0114 315.151 95.4148 314.515 95.6989C313.879 95.9886 313.112 96.1335 312.214 96.1335Z" fill="white"/>
</g>
<g filter="url(#filter2_d)">
<rect x="150" y="226.25" width="144" height="144" rx="72" fill="url(#paint6_linear)"/>
<rect x="150" y="226.25" width="144" height="144" rx="72" fill="url(#paint7_linear)"/>
<path d="M194.415 307.25V304.591L200.628 298.838C201.156 298.327 201.599 297.866 201.957 297.457C202.321 297.048 202.597 296.648 202.784 296.256C202.972 295.858 203.065 295.429 203.065 294.969C203.065 294.457 202.949 294.017 202.716 293.648C202.483 293.273 202.165 292.986 201.761 292.787C201.358 292.582 200.901 292.48 200.389 292.48C199.855 292.48 199.389 292.588 198.991 292.804C198.594 293.02 198.287 293.33 198.071 293.733C197.855 294.136 197.747 294.616 197.747 295.173H194.244C194.244 294.031 194.503 293.04 195.02 292.199C195.537 291.358 196.261 290.707 197.193 290.247C198.125 289.787 199.199 289.557 200.415 289.557C201.665 289.557 202.753 289.778 203.679 290.222C204.611 290.659 205.335 291.267 205.852 292.045C206.369 292.824 206.628 293.716 206.628 294.722C206.628 295.381 206.497 296.031 206.236 296.673C205.98 297.315 205.523 298.028 204.864 298.812C204.205 299.591 203.276 300.526 202.077 301.616L199.528 304.114V304.233H206.858V307.25H194.415ZM211.688 307.472C211.126 307.472 210.643 307.273 210.239 306.875C209.842 306.472 209.643 305.989 209.643 305.426C209.643 304.869 209.842 304.392 210.239 303.994C210.643 303.597 211.126 303.398 211.688 303.398C212.234 303.398 212.711 303.597 213.12 303.994C213.529 304.392 213.734 304.869 213.734 305.426C213.734 305.801 213.637 306.145 213.444 306.457C213.256 306.764 213.009 307.011 212.702 307.199C212.396 307.381 212.058 307.472 211.688 307.472ZM224.526 307.25H220.571L226.597 289.795H231.352L237.369 307.25H233.415L229.043 293.784H228.906L224.526 307.25ZM224.278 300.389H233.619V303.27H224.278V300.389ZM240.003 312.134C239.543 312.134 239.111 312.097 238.707 312.023C238.31 311.955 237.98 311.869 237.719 311.767L238.537 309.048C239.179 309.247 239.719 309.298 240.156 309.202C240.599 309.111 240.949 308.77 241.205 308.179L241.418 307.625L236.722 294.159H240.54L243.25 303.773H243.386L246.122 294.159L249.966 294.176L244.878 308.665C244.634 309.364 244.301 309.972 243.881 310.489C243.466 311.011 242.94 311.415 242.304 311.699C241.668 311.989 240.901 312.134 240.003 312.134Z" fill="white"/>
</g>
<g filter="url(#filter3_d)">
<g clip-path="url(#clip0)">
<rect x="6" y="82.25" width="144" height="144" rx="72" fill="url(#paint8_linear)"/>
<path d="M60.0085 145.795V163.25H56.3182V149.298H56.2159L52.2188 151.804V148.531L56.5398 145.795H60.0085ZM65.3991 163.472C64.8366 163.472 64.3537 163.273 63.9503 162.875C63.5526 162.472 63.3537 161.989 63.3537 161.426C63.3537 160.869 63.5526 160.392 63.9503 159.994C64.3537 159.597 64.8366 159.398 65.3991 159.398C65.9446 159.398 66.4219 159.597 66.831 159.994C67.2401 160.392 67.4446 160.869 67.4446 161.426C67.4446 161.801 67.348 162.145 67.1548 162.457C66.9673 162.764 66.7202 163.011 66.4134 163.199C66.1065 163.381 65.7685 163.472 65.3991 163.472ZM78.2365 163.25H74.282L80.3075 145.795H85.0632L91.0803 163.25H87.1257L82.7536 149.784H82.6172L78.2365 163.25ZM77.9893 156.389H87.3303V159.27H77.9893V156.389ZM93.7138 168.134C93.2536 168.134 92.8217 168.097 92.4183 168.023C92.0206 167.955 91.6911 167.869 91.4297 167.767L92.2479 165.048C92.8899 165.247 93.4297 165.298 93.8672 165.202C94.3104 165.111 94.6598 164.77 94.9155 164.179L95.1286 163.625L90.4325 150.159H94.2507L96.9609 159.773H97.0973L99.8331 150.159L103.677 150.176L98.5888 164.665C98.3445 165.364 98.0121 165.972 97.5916 166.489C97.1768 167.011 96.6513 167.415 96.0149 167.699C95.3786 167.989 94.6115 168.134 93.7138 168.134Z" fill="white"/>
<path d="M201.471 212.874C202.844 213.022 204.077 212.03 204.225 210.657L206.644 188.287C206.792 186.915 205.8 185.681 204.427 185.533C203.054 185.385 201.821 186.377 201.673 187.75L199.523 207.634L179.639 205.484C178.266 205.336 177.033 206.328 176.885 207.701C176.736 209.074 177.729 210.307 179.102 210.455L201.471 212.874ZM159.903 162.396L199.792 211.956L203.688 208.821L163.798 159.261L159.903 162.396Z" fill="black"/>
</g>
</g>
<rect x="40" y="209.25" width="76" height="20" rx="8" fill="#353535"/>
<rect x="40" y="78.25" width="76" height="20" rx="8" fill="#353535"/>
<rect x="184" y="225.25" width="76" height="20" rx="8" fill="#353535"/>
<rect x="184" y="353.75" width="76" height="20" rx="8" fill="#353535"/>
<rect x="256" y="0.25" width="76" height="20" rx="8" fill="#353535"/>
<rect x="256" y="140" width="76" height="20" rx="8" fill="#353535"/>
<path d="M54.4886 214.523L56.2486 217.497H56.3168L58.0852 214.523H60.169L57.5057 218.886L60.2287 223.25H58.1065L56.3168 220.271H56.2486L54.4588 223.25H52.3452L55.0767 218.886L52.3963 214.523H54.4886ZM64.114 223.25V214.523H67.5572C68.2191 214.523 68.783 214.649 69.2489 214.902C69.7148 215.152 70.07 215.5 70.3143 215.946C70.5614 216.389 70.685 216.901 70.685 217.48C70.685 218.06 70.56 218.571 70.31 219.014C70.06 219.457 69.6978 219.803 69.2234 220.05C68.7518 220.297 68.1808 220.42 67.5103 220.42H65.3157V218.942H67.212C67.5671 218.942 67.8597 218.881 68.0898 218.759C68.3228 218.634 68.4961 218.462 68.6097 218.243C68.7262 218.021 68.7844 217.767 68.7844 217.48C68.7844 217.19 68.7262 216.937 68.6097 216.722C68.4961 216.503 68.3228 216.334 68.0898 216.214C67.8569 216.092 67.5614 216.031 67.2035 216.031H65.9592V223.25H64.114ZM71.8494 223.25V216.705H73.6094V217.847H73.6776C73.7969 217.44 73.9972 217.134 74.2784 216.926C74.5597 216.716 74.8835 216.611 75.25 216.611C75.3409 216.611 75.4389 216.616 75.544 216.628C75.6491 216.639 75.7415 216.655 75.821 216.675V218.286C75.7358 218.26 75.6179 218.237 75.4673 218.217C75.3168 218.197 75.179 218.188 75.054 218.188C74.7869 218.188 74.5483 218.246 74.3381 218.362C74.1307 218.476 73.9659 218.635 73.8438 218.839C73.7244 219.044 73.6648 219.28 73.6648 219.547V223.25H71.8494ZM79.4123 223.378C78.7504 223.378 78.1779 223.237 77.695 222.956C77.2148 222.672 76.8441 222.277 76.5827 221.771C76.3214 221.263 76.1907 220.673 76.1907 220.003C76.1907 219.327 76.3214 218.736 76.5827 218.23C76.8441 217.722 77.2148 217.327 77.695 217.045C78.1779 216.761 78.7504 216.619 79.4123 216.619C80.0742 216.619 80.6452 216.761 81.1254 217.045C81.6083 217.327 81.9805 217.722 82.2418 218.23C82.5032 218.736 82.6339 219.327 82.6339 220.003C82.6339 220.673 82.5032 221.263 82.2418 221.771C81.9805 222.277 81.6083 222.672 81.1254 222.956C80.6452 223.237 80.0742 223.378 79.4123 223.378ZM79.4208 221.972C79.7219 221.972 79.9734 221.886 80.1751 221.716C80.3768 221.543 80.5288 221.307 80.631 221.009C80.7362 220.71 80.7887 220.371 80.7887 219.99C80.7887 219.609 80.7362 219.27 80.631 218.972C80.5288 218.673 80.3768 218.437 80.1751 218.264C79.9734 218.091 79.7219 218.004 79.4208 218.004C79.1168 218.004 78.8612 218.091 78.6538 218.264C78.4492 218.437 78.2944 218.673 78.1893 218.972C78.087 219.27 78.0359 219.609 78.0359 219.99C78.0359 220.371 78.087 220.71 78.1893 221.009C78.2944 221.307 78.4492 221.543 78.6538 221.716C78.8612 221.886 79.1168 221.972 79.4208 221.972ZM83.8143 216.705H85.6296V223.553C85.6296 224.058 85.5288 224.47 85.3271 224.788C85.1282 225.107 84.8413 225.338 84.4663 225.483C84.0941 225.631 83.6452 225.697 83.1197 225.683C83.0714 225.683 83.0217 225.683 82.9705 225.683C82.9165 225.683 82.854 225.68 82.783 225.675V224.256C82.8313 224.259 82.8739 224.26 82.9109 224.26C82.945 224.263 82.9819 224.264 83.0217 224.264C83.3143 224.264 83.5188 224.202 83.6353 224.077C83.7546 223.955 83.8143 223.77 83.8143 223.523V216.705ZM84.7219 215.861C84.4521 215.861 84.2205 215.771 84.0273 215.592C83.8342 215.411 83.7376 215.193 83.7376 214.94C83.7376 214.69 83.8342 214.476 84.0273 214.297C84.2205 214.115 84.4506 214.024 84.7177 214.024C84.9904 214.024 85.2219 214.115 85.4123 214.297C85.6055 214.476 85.7021 214.69 85.7021 214.94C85.7021 215.193 85.6055 215.411 85.4123 215.592C85.2219 215.771 84.9918 215.861 84.7219 215.861ZM90.0668 223.378C89.3935 223.378 88.8139 223.241 88.3281 222.969C87.8452 222.693 87.473 222.304 87.2116 221.801C86.9503 221.295 86.8196 220.697 86.8196 220.007C86.8196 219.334 86.9503 218.743 87.2116 218.234C87.473 217.726 87.8409 217.33 88.3153 217.045C88.7926 216.761 89.3523 216.619 89.9943 216.619C90.4261 216.619 90.8281 216.689 91.2003 216.828C91.5753 216.964 91.902 217.17 92.1804 217.446C92.4616 217.722 92.6804 218.068 92.8366 218.486C92.9929 218.901 93.071 219.386 93.071 219.943V220.442H87.544V219.317H91.3622C91.3622 219.055 91.3054 218.824 91.1918 218.622C91.0781 218.42 90.9205 218.263 90.7188 218.149C90.5199 218.033 90.2884 217.974 90.0241 217.974C89.7486 217.974 89.5043 218.038 89.2912 218.166C89.081 218.291 88.9162 218.46 88.7969 218.673C88.6776 218.884 88.6165 219.118 88.6136 219.376V220.446C88.6136 220.77 88.6733 221.05 88.7926 221.286C88.9148 221.521 89.0866 221.703 89.3082 221.831C89.5298 221.959 89.7926 222.023 90.0966 222.023C90.2983 222.023 90.483 221.994 90.6506 221.938C90.8182 221.881 90.9616 221.795 91.081 221.682C91.2003 221.568 91.2912 221.429 91.3537 221.264L93.0327 221.375C92.9474 221.778 92.7727 222.131 92.5085 222.432C92.2472 222.73 91.9091 222.963 91.4943 223.131C91.0824 223.295 90.6065 223.378 90.0668 223.378ZM99.7017 218.571L98.0398 218.673C98.0114 218.531 97.9503 218.403 97.8565 218.29C97.7628 218.173 97.6392 218.081 97.4858 218.013C97.3352 217.942 97.1548 217.906 96.9446 217.906C96.6634 217.906 96.4261 217.966 96.233 218.085C96.0398 218.202 95.9432 218.358 95.9432 218.554C95.9432 218.71 96.0057 218.842 96.1307 218.95C96.2557 219.058 96.4702 219.145 96.7741 219.21L97.9588 219.449C98.5952 219.58 99.0696 219.79 99.3821 220.08C99.6946 220.369 99.8509 220.75 99.8509 221.222C99.8509 221.651 99.7244 222.027 99.4716 222.351C99.2216 222.675 98.8778 222.928 98.4403 223.109C98.0057 223.288 97.5043 223.378 96.9361 223.378C96.0696 223.378 95.3793 223.197 94.8651 222.837C94.3537 222.473 94.054 221.979 93.9659 221.354L95.7514 221.26C95.8054 221.524 95.9361 221.726 96.1435 221.865C96.3509 222.001 96.6165 222.07 96.9403 222.07C97.2585 222.07 97.5142 222.009 97.7074 221.886C97.9034 221.761 98.0028 221.601 98.0057 221.405C98.0028 221.24 97.9332 221.105 97.7969 221C97.6605 220.892 97.4503 220.81 97.1662 220.753L96.0327 220.527C95.3935 220.399 94.9176 220.178 94.6051 219.862C94.2955 219.547 94.1406 219.145 94.1406 218.656C94.1406 218.236 94.2543 217.874 94.4815 217.57C94.7116 217.266 95.0341 217.031 95.4489 216.866C95.8665 216.702 96.3551 216.619 96.9148 216.619C97.7415 216.619 98.392 216.794 98.8665 217.143C99.3438 217.493 99.6222 217.969 99.7017 218.571ZM100.994 223.25V216.705H102.809V223.25H100.994ZM101.91 215.861C101.64 215.861 101.409 215.771 101.216 215.592C101.022 215.411 100.926 215.193 100.926 214.94C100.926 214.69 101.022 214.476 101.216 214.297C101.409 214.115 101.639 214.024 101.906 214.024C102.179 214.024 102.41 214.115 102.6 214.297C102.794 214.476 102.89 214.69 102.89 214.94C102.89 215.193 102.794 215.411 102.6 215.592C102.41 215.771 102.18 215.861 101.91 215.861Z" fill="white"/>
<path d="M52.4261 85.044V83.5227H59.5938V85.044H56.9219V92.25H55.098V85.044H52.4261ZM63.5515 92.25V83.5227H66.9947C67.6566 83.5227 68.2205 83.6491 68.6864 83.902C69.1523 84.152 69.5075 84.5 69.7518 84.946C69.9989 85.3892 70.1225 85.9006 70.1225 86.4801C70.1225 87.0597 69.9975 87.571 69.7475 88.0142C69.4975 88.4574 69.1353 88.8026 68.6609 89.0497C68.1893 89.2969 67.6183 89.4205 66.9478 89.4205H64.7532V87.9418H66.6495C67.0046 87.9418 67.2972 87.8807 67.5273 87.7585C67.7603 87.6335 67.9336 87.4616 68.0472 87.2429C68.1637 87.0213 68.2219 86.767 68.2219 86.4801C68.2219 86.1903 68.1637 85.9375 68.0472 85.7216C67.9336 85.5028 67.7603 85.3338 67.5273 85.2145C67.2944 85.0923 66.9989 85.0312 66.641 85.0312H65.3967V92.25H63.5515ZM71.2869 92.25V85.7045H73.0469V86.8466H73.1151C73.2344 86.4403 73.4347 86.1335 73.7159 85.9261C73.9972 85.7159 74.321 85.6108 74.6875 85.6108C74.7784 85.6108 74.8764 85.6165 74.9815 85.6278C75.0866 85.6392 75.179 85.6548 75.2585 85.6747V87.2855C75.1733 87.2599 75.0554 87.2372 74.9048 87.2173C74.7543 87.1974 74.6165 87.1875 74.4915 87.1875C74.2244 87.1875 73.9858 87.2457 73.7756 87.3622C73.5682 87.4759 73.4034 87.6349 73.2812 87.8395C73.1619 88.044 73.1023 88.2798 73.1023 88.5469V92.25H71.2869ZM78.8498 92.3778C78.1879 92.3778 77.6154 92.2372 77.1325 91.956C76.6523 91.6719 76.2816 91.277 76.0202 90.7713C75.7589 90.2628 75.6282 89.6733 75.6282 89.0028C75.6282 88.3267 75.7589 87.7358 76.0202 87.2301C76.2816 86.7216 76.6523 86.3267 77.1325 86.0455C77.6154 85.7614 78.1879 85.6193 78.8498 85.6193C79.5117 85.6193 80.0827 85.7614 80.5629 86.0455C81.0458 86.3267 81.418 86.7216 81.6793 87.2301C81.9407 87.7358 82.0714 88.3267 82.0714 89.0028C82.0714 89.6733 81.9407 90.2628 81.6793 90.7713C81.418 91.277 81.0458 91.6719 80.5629 91.956C80.0827 92.2372 79.5117 92.3778 78.8498 92.3778ZM78.8583 90.9716C79.1594 90.9716 79.4109 90.8864 79.6126 90.7159C79.8143 90.5426 79.9663 90.3068 80.0685 90.0085C80.1737 89.7102 80.2262 89.3707 80.2262 88.9901C80.2262 88.6094 80.1737 88.2699 80.0685 87.9716C79.9663 87.6733 79.8143 87.4375 79.6126 87.2642C79.4109 87.0909 79.1594 87.0043 78.8583 87.0043C78.5543 87.0043 78.2987 87.0909 78.0913 87.2642C77.8867 87.4375 77.7319 87.6733 77.6268 87.9716C77.5245 88.2699 77.4734 88.6094 77.4734 88.9901C77.4734 89.3707 77.5245 89.7102 77.6268 90.0085C77.7319 90.3068 77.8867 90.5426 78.0913 90.7159C78.2987 90.8864 78.5543 90.9716 78.8583 90.9716ZM83.2518 85.7045H85.0671V92.5526C85.0671 93.0582 84.9663 93.4702 84.7646 93.7884C84.5657 94.1065 84.2788 94.3381 83.9038 94.483C83.5316 94.6307 83.0827 94.6974 82.5572 94.6832C82.5089 94.6832 82.4592 94.6832 82.408 94.6832C82.354 94.6832 82.2915 94.6804 82.2205 94.6747V93.2557C82.2688 93.2585 82.3114 93.2599 82.3484 93.2599C82.3825 93.2628 82.4194 93.2642 82.4592 93.2642C82.7518 93.2642 82.9563 93.2017 83.0728 93.0767C83.1921 92.9545 83.2518 92.7699 83.2518 92.5227V85.7045ZM84.1594 84.8608C83.8896 84.8608 83.658 84.7713 83.4648 84.5923C83.2717 84.4105 83.1751 84.1932 83.1751 83.9403C83.1751 83.6903 83.2717 83.4759 83.4648 83.2969C83.658 83.1151 83.8881 83.0241 84.1552 83.0241C84.4279 83.0241 84.6594 83.1151 84.8498 83.2969C85.043 83.4759 85.1396 83.6903 85.1396 83.9403C85.1396 84.1932 85.043 84.4105 84.8498 84.5923C84.6594 84.7713 84.4293 84.8608 84.1594 84.8608ZM89.5043 92.3778C88.831 92.3778 88.2514 92.2415 87.7656 91.9688C87.2827 91.6932 86.9105 91.304 86.6491 90.8011C86.3878 90.2955 86.2571 89.6974 86.2571 89.0071C86.2571 88.3338 86.3878 87.7429 86.6491 87.2344C86.9105 86.7259 87.2784 86.3295 87.7528 86.0455C88.2301 85.7614 88.7898 85.6193 89.4318 85.6193C89.8636 85.6193 90.2656 85.6889 90.6378 85.8281C91.0128 85.9645 91.3395 86.1705 91.6179 86.446C91.8991 86.7216 92.1179 87.0682 92.2741 87.4858C92.4304 87.9006 92.5085 88.3864 92.5085 88.9432V89.4418H86.9815V88.3168H90.7997C90.7997 88.0554 90.7429 87.8239 90.6293 87.6222C90.5156 87.4205 90.358 87.2628 90.1562 87.1491C89.9574 87.0327 89.7259 86.9744 89.4616 86.9744C89.1861 86.9744 88.9418 87.0384 88.7287 87.1662C88.5185 87.2912 88.3537 87.4602 88.2344 87.6733C88.1151 87.8835 88.054 88.1179 88.0511 88.3764V89.446C88.0511 89.7699 88.1108 90.0497 88.2301 90.2855C88.3523 90.5213 88.5241 90.7031 88.7457 90.831C88.9673 90.9588 89.2301 91.0227 89.5341 91.0227C89.7358 91.0227 89.9205 90.9943 90.0881 90.9375C90.2557 90.8807 90.3991 90.7955 90.5185 90.6818C90.6378 90.5682 90.7287 90.429 90.7912 90.2642L92.4702 90.375C92.3849 90.7784 92.2102 91.1307 91.946 91.4318C91.6847 91.7301 91.3466 91.9631 90.9318 92.1307C90.5199 92.2955 90.044 92.3778 89.5043 92.3778ZM99.1392 87.571L97.4773 87.6733C97.4489 87.5312 97.3878 87.4034 97.294 87.2898C97.2003 87.1733 97.0767 87.081 96.9233 87.0128C96.7727 86.9418 96.5923 86.9062 96.3821 86.9062C96.1009 86.9062 95.8636 86.9659 95.6705 87.0852C95.4773 87.2017 95.3807 87.358 95.3807 87.554C95.3807 87.7102 95.4432 87.8423 95.5682 87.9503C95.6932 88.0582 95.9077 88.1449 96.2116 88.2102L97.3963 88.4489C98.0327 88.5795 98.5071 88.7898 98.8196 89.0795C99.1321 89.3693 99.2884 89.75 99.2884 90.2216C99.2884 90.6506 99.1619 91.027 98.9091 91.3509C98.6591 91.6747 98.3153 91.9276 97.8778 92.1094C97.4432 92.2884 96.9418 92.3778 96.3736 92.3778C95.5071 92.3778 94.8168 92.1974 94.3026 91.8366C93.7912 91.473 93.4915 90.9787 93.4034 90.3537L95.1889 90.2599C95.2429 90.5241 95.3736 90.7259 95.581 90.8651C95.7884 91.0014 96.054 91.0696 96.3778 91.0696C96.696 91.0696 96.9517 91.0085 97.1449 90.8864C97.3409 90.7614 97.4403 90.6009 97.4432 90.4048C97.4403 90.2401 97.3707 90.1051 97.2344 90C97.098 89.892 96.8878 89.8097 96.6037 89.7528L95.4702 89.527C94.831 89.3991 94.3551 89.1776 94.0426 88.8622C93.733 88.5469 93.5781 88.1449 93.5781 87.6562C93.5781 87.2358 93.6918 86.8736 93.919 86.5696C94.1491 86.2656 94.4716 86.0312 94.8864 85.8665C95.304 85.7017 95.7926 85.6193 96.3523 85.6193C97.179 85.6193 97.8295 85.794 98.304 86.1435C98.7813 86.4929 99.0597 86.9687 99.1392 87.571ZM100.431 92.25V85.7045H102.247V92.25H100.431ZM101.348 84.8608C101.078 84.8608 100.846 84.7713 100.653 84.5923C100.46 84.4105 100.363 84.1932 100.363 83.9403C100.363 83.6903 100.46 83.4759 100.653 83.2969C100.846 83.1151 101.076 83.0241 101.343 83.0241C101.616 83.0241 101.848 83.1151 102.038 83.2969C102.231 83.4759 102.328 83.6903 102.328 83.9403C102.328 84.1932 102.231 84.4105 102.038 84.5923C101.848 84.7713 101.618 84.8608 101.348 84.8608Z" fill="white"/>
<path d="M196.759 239.25V230.523H198.604V234.371H198.719L201.859 230.523H204.071L200.832 234.43L204.109 239.25H201.902L199.511 235.662L198.604 236.77V239.25H196.759ZM207.809 239.25V230.523H211.252C211.914 230.523 212.478 230.649 212.944 230.902C213.41 231.152 213.765 231.5 214.01 231.946C214.257 232.389 214.38 232.901 214.38 233.48C214.38 234.06 214.255 234.571 214.005 235.014C213.755 235.457 213.393 235.803 212.919 236.05C212.447 236.297 211.876 236.42 211.206 236.42H209.011V234.942H210.907C211.262 234.942 211.555 234.881 211.785 234.759C212.018 234.634 212.191 234.462 212.305 234.243C212.422 234.021 212.48 233.767 212.48 233.48C212.48 233.19 212.422 232.937 212.305 232.722C212.191 232.503 212.018 232.334 211.785 232.214C211.552 232.092 211.257 232.031 210.899 232.031H209.654V239.25H207.809ZM215.545 239.25V232.705H217.305V233.847H217.373C217.492 233.44 217.692 233.134 217.974 232.926C218.255 232.716 218.579 232.611 218.945 232.611C219.036 232.611 219.134 232.616 219.239 232.628C219.344 232.639 219.437 232.655 219.516 232.675V234.286C219.431 234.26 219.313 234.237 219.163 234.217C219.012 234.197 218.874 234.188 218.749 234.188C218.482 234.188 218.244 234.246 218.033 234.362C217.826 234.476 217.661 234.635 217.539 234.839C217.42 235.044 217.36 235.28 217.36 235.547V239.25H215.545ZM223.108 239.378C222.446 239.378 221.873 239.237 221.39 238.956C220.91 238.672 220.539 238.277 220.278 237.771C220.017 237.263 219.886 236.673 219.886 236.003C219.886 235.327 220.017 234.736 220.278 234.23C220.539 233.722 220.91 233.327 221.39 233.045C221.873 232.761 222.446 232.619 223.108 232.619C223.77 232.619 224.341 232.761 224.821 233.045C225.304 233.327 225.676 233.722 225.937 234.23C226.199 234.736 226.329 235.327 226.329 236.003C226.329 236.673 226.199 237.263 225.937 237.771C225.676 238.277 225.304 238.672 224.821 238.956C224.341 239.237 223.77 239.378 223.108 239.378ZM223.116 237.972C223.417 237.972 223.669 237.886 223.87 237.716C224.072 237.543 224.224 237.307 224.326 237.009C224.431 236.71 224.484 236.371 224.484 235.99C224.484 235.609 224.431 235.27 224.326 234.972C224.224 234.673 224.072 234.437 223.87 234.264C223.669 234.091 223.417 234.004 223.116 234.004C222.812 234.004 222.556 234.091 222.349 234.264C222.145 234.437 221.99 234.673 221.885 234.972C221.782 235.27 221.731 235.609 221.731 235.99C221.731 236.371 221.782 236.71 221.885 237.009C221.99 237.307 222.145 237.543 222.349 237.716C222.556 237.886 222.812 237.972 223.116 237.972ZM227.51 232.705H229.325V239.553C229.325 240.058 229.224 240.47 229.022 240.788C228.824 241.107 228.537 241.338 228.162 241.483C227.789 241.631 227.341 241.697 226.815 241.683C226.767 241.683 226.717 241.683 226.666 241.683C226.612 241.683 226.549 241.68 226.478 241.675V240.256C226.527 240.259 226.569 240.26 226.606 240.26C226.64 240.263 226.677 240.264 226.717 240.264C227.01 240.264 227.214 240.202 227.331 240.077C227.45 239.955 227.51 239.77 227.51 239.523V232.705ZM228.417 231.861C228.147 231.861 227.916 231.771 227.723 231.592C227.529 231.411 227.433 231.193 227.433 230.94C227.433 230.69 227.529 230.476 227.723 230.297C227.916 230.115 228.146 230.024 228.413 230.024C228.686 230.024 228.917 230.115 229.108 230.297C229.301 230.476 229.397 230.69 229.397 230.94C229.397 231.193 229.301 231.411 229.108 231.592C228.917 231.771 228.687 231.861 228.417 231.861ZM233.762 239.378C233.089 239.378 232.509 239.241 232.023 238.969C231.54 238.693 231.168 238.304 230.907 237.801C230.646 237.295 230.515 236.697 230.515 236.007C230.515 235.334 230.646 234.743 230.907 234.234C231.168 233.726 231.536 233.33 232.011 233.045C232.488 232.761 233.048 232.619 233.69 232.619C234.121 232.619 234.523 232.689 234.896 232.828C235.271 232.964 235.597 233.17 235.876 233.446C236.157 233.722 236.376 234.068 236.532 234.486C236.688 234.901 236.766 235.386 236.766 235.943V236.442H231.239V235.317H235.058C235.058 235.055 235.001 234.824 234.887 234.622C234.773 234.42 234.616 234.263 234.414 234.149C234.215 234.033 233.984 233.974 233.719 233.974C233.444 233.974 233.2 234.038 232.987 234.166C232.776 234.291 232.612 234.46 232.492 234.673C232.373 234.884 232.312 235.118 232.309 235.376V236.446C232.309 236.77 232.369 237.05 232.488 237.286C232.61 237.521 232.782 237.703 233.004 237.831C233.225 237.959 233.488 238.023 233.792 238.023C233.994 238.023 234.178 237.994 234.346 237.938C234.513 237.881 234.657 237.795 234.776 237.682C234.896 237.568 234.987 237.429 235.049 237.264L236.728 237.375C236.643 237.778 236.468 238.131 236.204 238.432C235.942 238.73 235.604 238.963 235.19 239.131C234.778 239.295 234.302 239.378 233.762 239.378ZM243.397 234.571L241.735 234.673C241.707 234.531 241.646 234.403 241.552 234.29C241.458 234.173 241.335 234.081 241.181 234.013C241.031 233.942 240.85 233.906 240.64 233.906C240.359 233.906 240.121 233.966 239.928 234.085C239.735 234.202 239.638 234.358 239.638 234.554C239.638 234.71 239.701 234.842 239.826 234.95C239.951 235.058 240.165 235.145 240.469 235.21L241.654 235.449C242.29 235.58 242.765 235.79 243.077 236.08C243.39 236.369 243.546 236.75 243.546 237.222C243.546 237.651 243.42 238.027 243.167 238.351C242.917 238.675 242.573 238.928 242.136 239.109C241.701 239.288 241.2 239.378 240.631 239.378C239.765 239.378 239.075 239.197 238.56 238.837C238.049 238.473 237.749 237.979 237.661 237.354L239.447 237.26C239.501 237.524 239.631 237.726 239.839 237.865C240.046 238.001 240.312 238.07 240.636 238.07C240.954 238.07 241.21 238.009 241.403 237.886C241.599 237.761 241.698 237.601 241.701 237.405C241.698 237.24 241.629 237.105 241.492 237C241.356 236.892 241.146 236.81 240.862 236.753L239.728 236.527C239.089 236.399 238.613 236.178 238.3 235.862C237.991 235.547 237.836 235.145 237.836 234.656C237.836 234.236 237.95 233.874 238.177 233.57C238.407 233.266 238.729 233.031 239.144 232.866C239.562 232.702 240.05 232.619 240.61 232.619C241.437 232.619 242.087 232.794 242.562 233.143C243.039 233.493 243.317 233.969 243.397 234.571ZM244.689 239.25V232.705H246.505V239.25H244.689ZM245.605 231.861C245.336 231.861 245.104 231.771 244.911 231.592C244.718 231.411 244.621 231.193 244.621 230.94C244.621 230.69 244.718 230.476 244.911 230.297C245.104 230.115 245.334 230.024 245.601 230.024C245.874 230.024 246.105 230.115 246.296 230.297C246.489 230.476 246.586 230.69 246.586 230.94C246.586 231.193 246.489 231.411 246.296 231.592C246.105 231.771 245.875 231.861 245.605 231.861Z" fill="white"/>
<path d="M196.247 359.023H198.314L200.304 362.781H200.389L202.379 359.023H204.446L201.263 364.665V367.75H199.43V364.665L196.247 359.023ZM208.231 367.75V359.023H211.674C212.336 359.023 212.9 359.149 213.366 359.402C213.832 359.652 214.187 360 214.431 360.446C214.679 360.889 214.802 361.401 214.802 361.98C214.802 362.56 214.677 363.071 214.427 363.514C214.177 363.957 213.815 364.303 213.341 364.55C212.869 364.797 212.298 364.92 211.627 364.92H209.433V363.442H211.329C211.684 363.442 211.977 363.381 212.207 363.259C212.44 363.134 212.613 362.962 212.727 362.743C212.843 362.521 212.902 362.267 212.902 361.98C212.902 361.69 212.843 361.437 212.727 361.222C212.613 361.003 212.44 360.834 212.207 360.714C211.974 360.592 211.679 360.531 211.321 360.531H210.076V367.75H208.231ZM215.967 367.75V361.205H217.727V362.347H217.795C217.914 361.94 218.114 361.634 218.396 361.426C218.677 361.216 219.001 361.111 219.367 361.111C219.458 361.111 219.556 361.116 219.661 361.128C219.766 361.139 219.859 361.155 219.938 361.175V362.786C219.853 362.76 219.735 362.737 219.585 362.717C219.434 362.697 219.296 362.688 219.171 362.688C218.904 362.688 218.665 362.746 218.455 362.862C218.248 362.976 218.083 363.135 217.961 363.339C217.842 363.544 217.782 363.78 217.782 364.047V367.75H215.967ZM223.529 367.878C222.868 367.878 222.295 367.737 221.812 367.456C221.332 367.172 220.961 366.777 220.7 366.271C220.439 365.763 220.308 365.173 220.308 364.503C220.308 363.827 220.439 363.236 220.7 362.73C220.961 362.222 221.332 361.827 221.812 361.545C222.295 361.261 222.868 361.119 223.529 361.119C224.191 361.119 224.762 361.261 225.243 361.545C225.725 361.827 226.098 362.222 226.359 362.73C226.62 363.236 226.751 363.827 226.751 364.503C226.751 365.173 226.62 365.763 226.359 366.271C226.098 366.777 225.725 367.172 225.243 367.456C224.762 367.737 224.191 367.878 223.529 367.878ZM223.538 366.472C223.839 366.472 224.091 366.386 224.292 366.216C224.494 366.043 224.646 365.807 224.748 365.509C224.853 365.21 224.906 364.871 224.906 364.49C224.906 364.109 224.853 363.77 224.748 363.472C224.646 363.173 224.494 362.937 224.292 362.764C224.091 362.591 223.839 362.504 223.538 362.504C223.234 362.504 222.978 362.591 222.771 362.764C222.566 362.937 222.412 363.173 222.306 363.472C222.204 363.77 222.153 364.109 222.153 364.49C222.153 364.871 222.204 365.21 222.306 365.509C222.412 365.807 222.566 366.043 222.771 366.216C222.978 366.386 223.234 366.472 223.538 366.472ZM227.931 361.205H229.747V368.053C229.747 368.558 229.646 368.97 229.444 369.288C229.245 369.607 228.958 369.838 228.583 369.983C228.211 370.131 227.762 370.197 227.237 370.183C227.189 370.183 227.139 370.183 227.088 370.183C227.034 370.183 226.971 370.18 226.9 370.175V368.756C226.949 368.759 226.991 368.76 227.028 368.76C227.062 368.763 227.099 368.764 227.139 368.764C227.431 368.764 227.636 368.702 227.752 368.577C227.872 368.455 227.931 368.27 227.931 368.023V361.205ZM228.839 360.361C228.569 360.361 228.338 360.271 228.145 360.092C227.951 359.911 227.855 359.693 227.855 359.44C227.855 359.19 227.951 358.976 228.145 358.797C228.338 358.615 228.568 358.524 228.835 358.524C229.108 358.524 229.339 358.615 229.529 358.797C229.723 358.976 229.819 359.19 229.819 359.44C229.819 359.693 229.723 359.911 229.529 360.092C229.339 360.271 229.109 360.361 228.839 360.361ZM234.184 367.878C233.511 367.878 232.931 367.741 232.445 367.469C231.962 367.193 231.59 366.804 231.329 366.301C231.067 365.795 230.937 365.197 230.937 364.507C230.937 363.834 231.067 363.243 231.329 362.734C231.59 362.226 231.958 361.83 232.433 361.545C232.91 361.261 233.469 361.119 234.112 361.119C234.543 361.119 234.945 361.189 235.317 361.328C235.692 361.464 236.019 361.67 236.298 361.946C236.579 362.222 236.798 362.568 236.954 362.986C237.11 363.401 237.188 363.886 237.188 364.443V364.942H231.661V363.817H235.479C235.479 363.555 235.423 363.324 235.309 363.122C235.195 362.92 235.038 362.763 234.836 362.649C234.637 362.533 234.406 362.474 234.141 362.474C233.866 362.474 233.621 362.538 233.408 362.666C233.198 362.791 233.033 362.96 232.914 363.173C232.795 363.384 232.734 363.618 232.731 363.876V364.946C232.731 365.27 232.79 365.55 232.91 365.786C233.032 366.021 233.204 366.203 233.425 366.331C233.647 366.459 233.91 366.523 234.214 366.523C234.415 366.523 234.6 366.494 234.768 366.438C234.935 366.381 235.079 366.295 235.198 366.182C235.317 366.068 235.408 365.929 235.471 365.764L237.15 365.875C237.065 366.278 236.89 366.631 236.626 366.932C236.364 367.23 236.026 367.463 235.612 367.631C235.2 367.795 234.724 367.878 234.184 367.878ZM243.819 363.071L242.157 363.173C242.129 363.031 242.067 362.903 241.974 362.79C241.88 362.673 241.756 362.581 241.603 362.513C241.452 362.442 241.272 362.406 241.062 362.406C240.781 362.406 240.543 362.466 240.35 362.585C240.157 362.702 240.06 362.858 240.06 363.054C240.06 363.21 240.123 363.342 240.248 363.45C240.373 363.558 240.587 363.645 240.891 363.71L242.076 363.949C242.712 364.08 243.187 364.29 243.499 364.58C243.812 364.869 243.968 365.25 243.968 365.722C243.968 366.151 243.842 366.527 243.589 366.851C243.339 367.175 242.995 367.428 242.558 367.609C242.123 367.788 241.621 367.878 241.053 367.878C240.187 367.878 239.496 367.697 238.982 367.337C238.471 366.973 238.171 366.479 238.083 365.854L239.869 365.76C239.923 366.024 240.053 366.226 240.261 366.365C240.468 366.501 240.734 366.57 241.058 366.57C241.376 366.57 241.631 366.509 241.825 366.386C242.021 366.261 242.12 366.101 242.123 365.905C242.12 365.74 242.05 365.605 241.914 365.5C241.778 365.392 241.567 365.31 241.283 365.253L240.15 365.027C239.511 364.899 239.035 364.678 238.722 364.362C238.413 364.047 238.258 363.645 238.258 363.156C238.258 362.736 238.371 362.374 238.599 362.07C238.829 361.766 239.151 361.531 239.566 361.366C239.984 361.202 240.472 361.119 241.032 361.119C241.859 361.119 242.509 361.294 242.984 361.643C243.461 361.993 243.739 362.469 243.819 363.071ZM245.111 367.75V361.205H246.926V367.75H245.111ZM246.027 360.361C245.757 360.361 245.526 360.271 245.333 360.092C245.14 359.911 245.043 359.693 245.043 359.44C245.043 359.19 245.14 358.976 245.333 358.797C245.526 358.615 245.756 358.524 246.023 358.524C246.296 358.524 246.527 358.615 246.718 358.797C246.911 358.976 247.007 359.19 247.007 359.44C247.007 359.693 246.911 359.911 246.718 360.092C246.527 360.271 246.297 360.361 246.027 360.361Z" fill="white"/>
<path d="M269.665 14.25V13.1548L274.02 7.04403H269.656V5.52273H276.338V6.6179L271.979 12.7287H276.347V14.25H269.665ZM280.54 14.25V5.52273H283.983C284.645 5.52273 285.209 5.64915 285.675 5.90199C286.141 6.15199 286.496 6.5 286.74 6.94602C286.987 7.3892 287.111 7.90057 287.111 8.48011C287.111 9.05966 286.986 9.57102 286.736 10.0142C286.486 10.4574 286.124 10.8026 285.649 11.0497C285.178 11.2969 284.607 11.4205 283.936 11.4205H281.741V9.94176H283.638C283.993 9.94176 284.286 9.88068 284.516 9.75852C284.749 9.63352 284.922 9.46165 285.036 9.2429C285.152 9.02131 285.21 8.76705 285.21 8.48011C285.21 8.19034 285.152 7.9375 285.036 7.72159C284.922 7.50284 284.749 7.33381 284.516 7.21449C284.283 7.09233 283.987 7.03125 283.629 7.03125H282.385V14.25H280.54ZM288.275 14.25V7.70455H290.035V8.84659H290.103C290.223 8.44034 290.423 8.13352 290.704 7.92614C290.985 7.71591 291.309 7.6108 291.676 7.6108C291.767 7.6108 291.865 7.61648 291.97 7.62784C292.075 7.6392 292.167 7.65483 292.247 7.67472V9.28551C292.162 9.25994 292.044 9.23722 291.893 9.21733C291.743 9.19744 291.605 9.1875 291.48 9.1875C291.213 9.1875 290.974 9.24574 290.764 9.36222C290.556 9.47585 290.392 9.63494 290.27 9.83949C290.15 10.044 290.091 10.2798 290.091 10.5469V14.25H288.275ZM295.838 14.3778C295.176 14.3778 294.604 14.2372 294.121 13.956C293.641 13.6719 293.27 13.277 293.009 12.7713C292.747 12.2628 292.616 11.6733 292.616 11.0028C292.616 10.3267 292.747 9.7358 293.009 9.23011C293.27 8.72159 293.641 8.3267 294.121 8.04545C294.604 7.76136 295.176 7.61932 295.838 7.61932C296.5 7.61932 297.071 7.76136 297.551 8.04545C298.034 8.3267 298.406 8.72159 298.668 9.23011C298.929 9.7358 299.06 10.3267 299.06 11.0028C299.06 11.6733 298.929 12.2628 298.668 12.7713C298.406 13.277 298.034 13.6719 297.551 13.956C297.071 14.2372 296.5 14.3778 295.838 14.3778ZM295.847 12.9716C296.148 12.9716 296.399 12.8864 296.601 12.7159C296.803 12.5426 296.955 12.3068 297.057 12.0085C297.162 11.7102 297.214 11.3707 297.214 10.9901C297.214 10.6094 297.162 10.2699 297.057 9.97159C296.955 9.6733 296.803 9.4375 296.601 9.2642C296.399 9.09091 296.148 9.00426 295.847 9.00426C295.543 9.00426 295.287 9.09091 295.08 9.2642C294.875 9.4375 294.72 9.6733 294.615 9.97159C294.513 10.2699 294.462 10.6094 294.462 10.9901C294.462 11.3707 294.513 11.7102 294.615 12.0085C294.72 12.3068 294.875 12.5426 295.08 12.7159C295.287 12.8864 295.543 12.9716 295.847 12.9716ZM300.24 7.70455H302.055V14.5526C302.055 15.0582 301.955 15.4702 301.753 15.7884C301.554 16.1065 301.267 16.3381 300.892 16.483C300.52 16.6307 300.071 16.6974 299.545 16.6832C299.497 16.6832 299.447 16.6832 299.396 16.6832C299.342 16.6832 299.28 16.6804 299.209 16.6747V15.2557C299.257 15.2585 299.3 15.2599 299.337 15.2599C299.371 15.2628 299.408 15.2642 299.447 15.2642C299.74 15.2642 299.945 15.2017 300.061 15.0767C300.18 14.9545 300.24 14.7699 300.24 14.5227V7.70455ZM301.148 6.8608C300.878 6.8608 300.646 6.77131 300.453 6.59233C300.26 6.41051 300.163 6.19318 300.163 5.94034C300.163 5.69034 300.26 5.47585 300.453 5.29688C300.646 5.11506 300.876 5.02415 301.143 5.02415C301.416 5.02415 301.648 5.11506 301.838 5.29688C302.031 5.47585 302.128 5.69034 302.128 5.94034C302.128 6.19318 302.031 6.41051 301.838 6.59233C301.648 6.77131 301.418 6.8608 301.148 6.8608ZM306.493 14.3778C305.819 14.3778 305.24 14.2415 304.754 13.9688C304.271 13.6932 303.899 13.304 303.637 12.8011C303.376 12.2955 303.245 11.6974 303.245 11.0071C303.245 10.3338 303.376 9.7429 303.637 9.23438C303.899 8.72585 304.267 8.32955 304.741 8.04545C305.218 7.76136 305.778 7.61932 306.42 7.61932C306.852 7.61932 307.254 7.68892 307.626 7.82812C308.001 7.96449 308.328 8.17045 308.606 8.44602C308.887 8.72159 309.106 9.06818 309.262 9.4858C309.419 9.90057 309.497 10.3864 309.497 10.9432V11.4418H303.97V10.3168H307.788C307.788 10.0554 307.731 9.82386 307.618 9.62216C307.504 9.42045 307.346 9.26278 307.145 9.14915C306.946 9.03267 306.714 8.97443 306.45 8.97443C306.174 8.97443 305.93 9.03835 305.717 9.16619C305.507 9.29119 305.342 9.46023 305.223 9.6733C305.103 9.88352 305.042 10.1179 305.039 10.3764V11.446C305.039 11.7699 305.099 12.0497 305.218 12.2855C305.341 12.5213 305.512 12.7031 305.734 12.831C305.956 12.9588 306.218 13.0227 306.522 13.0227C306.724 13.0227 306.909 12.9943 307.076 12.9375C307.244 12.8807 307.387 12.7955 307.507 12.6818C307.626 12.5682 307.717 12.429 307.779 12.2642L309.458 12.375C309.373 12.7784 309.199 13.1307 308.934 13.4318C308.673 13.7301 308.335 13.9631 307.92 14.1307C307.508 14.2955 307.032 14.3778 306.493 14.3778ZM316.127 9.57102L314.466 9.6733C314.437 9.53125 314.376 9.40341 314.282 9.28977C314.189 9.1733 314.065 9.08097 313.912 9.01278C313.761 8.94176 313.581 8.90625 313.37 8.90625C313.089 8.90625 312.852 8.96591 312.659 9.08523C312.466 9.2017 312.369 9.35795 312.369 9.55398C312.369 9.71023 312.431 9.84233 312.556 9.95028C312.681 10.0582 312.896 10.1449 313.2 10.2102L314.385 10.4489C315.021 10.5795 315.495 10.7898 315.808 11.0795C316.12 11.3693 316.277 11.75 316.277 12.2216C316.277 12.6506 316.15 13.027 315.897 13.3509C315.647 13.6747 315.304 13.9276 314.866 14.1094C314.431 14.2884 313.93 14.3778 313.362 14.3778C312.495 14.3778 311.805 14.1974 311.291 13.8366C310.779 13.473 310.48 12.9787 310.392 12.3537L312.177 12.2599C312.231 12.5241 312.362 12.7259 312.569 12.8651C312.777 13.0014 313.042 13.0696 313.366 13.0696C313.684 13.0696 313.94 13.0085 314.133 12.8864C314.329 12.7614 314.429 12.6009 314.431 12.4048C314.429 12.2401 314.359 12.1051 314.223 12C314.086 11.892 313.876 11.8097 313.592 11.7528L312.458 11.527C311.819 11.3991 311.343 11.1776 311.031 10.8622C310.721 10.5469 310.566 10.1449 310.566 9.65625C310.566 9.2358 310.68 8.87358 310.907 8.5696C311.137 8.26562 311.46 8.03125 311.875 7.86648C312.292 7.7017 312.781 7.61932 313.341 7.61932C314.167 7.61932 314.818 7.79403 315.292 8.14347C315.77 8.4929 316.048 8.96875 316.127 9.57102ZM317.42 14.25V7.70455H319.235V14.25H317.42ZM318.336 6.8608C318.066 6.8608 317.835 6.77131 317.641 6.59233C317.448 6.41051 317.352 6.19318 317.352 5.94034C317.352 5.69034 317.448 5.47585 317.641 5.29688C317.835 5.11506 318.065 5.02415 318.332 5.02415C318.604 5.02415 318.836 5.11506 319.026 5.29688C319.219 5.47585 319.316 5.69034 319.316 5.94034C319.316 6.19318 319.219 6.41051 319.026 6.59233C318.836 6.77131 318.606 6.8608 318.336 6.8608Z" fill="white"/>
<path d="M269.759 154V145.273H271.604V152.479H275.345V154H269.759ZM279.344 154V145.273H282.788C283.45 145.273 284.013 145.399 284.479 145.652C284.945 145.902 285.3 146.25 285.545 146.696C285.792 147.139 285.915 147.651 285.915 148.23C285.915 148.81 285.79 149.321 285.54 149.764C285.29 150.207 284.928 150.553 284.454 150.8C283.982 151.047 283.411 151.17 282.741 151.17H280.546V149.692H282.442C282.798 149.692 283.09 149.631 283.32 149.509C283.553 149.384 283.727 149.212 283.84 148.993C283.957 148.771 284.015 148.517 284.015 148.23C284.015 147.94 283.957 147.687 283.84 147.472C283.727 147.253 283.553 147.084 283.32 146.964C283.087 146.842 282.792 146.781 282.434 146.781H281.19V154H279.344ZM287.08 154V147.455H288.84V148.597H288.908C289.027 148.19 289.228 147.884 289.509 147.676C289.79 147.466 290.114 147.361 290.48 147.361C290.571 147.361 290.669 147.366 290.775 147.378C290.88 147.389 290.972 147.405 291.051 147.425V149.036C290.966 149.01 290.848 148.987 290.698 148.967C290.547 148.947 290.409 148.938 290.284 148.938C290.017 148.938 289.779 148.996 289.569 149.112C289.361 149.226 289.196 149.385 289.074 149.589C288.955 149.794 288.895 150.03 288.895 150.297V154H287.08ZM294.643 154.128C293.981 154.128 293.408 153.987 292.925 153.706C292.445 153.422 292.075 153.027 291.813 152.521C291.552 152.013 291.421 151.423 291.421 150.753C291.421 150.077 291.552 149.486 291.813 148.98C292.075 148.472 292.445 148.077 292.925 147.795C293.408 147.511 293.981 147.369 294.643 147.369C295.305 147.369 295.876 147.511 296.356 147.795C296.839 148.077 297.211 148.472 297.472 148.98C297.734 149.486 297.864 150.077 297.864 150.753C297.864 151.423 297.734 152.013 297.472 152.521C297.211 153.027 296.839 153.422 296.356 153.706C295.876 153.987 295.305 154.128 294.643 154.128ZM294.651 152.722C294.952 152.722 295.204 152.636 295.406 152.466C295.607 152.293 295.759 152.057 295.862 151.759C295.967 151.46 296.019 151.121 296.019 150.74C296.019 150.359 295.967 150.02 295.862 149.722C295.759 149.423 295.607 149.187 295.406 149.014C295.204 148.841 294.952 148.754 294.651 148.754C294.347 148.754 294.092 148.841 293.884 149.014C293.68 149.187 293.525 149.423 293.42 149.722C293.317 150.02 293.266 150.359 293.266 150.74C293.266 151.121 293.317 151.46 293.42 151.759C293.525 152.057 293.68 152.293 293.884 152.466C294.092 152.636 294.347 152.722 294.651 152.722ZM299.045 147.455H300.86V154.303C300.86 154.808 300.759 155.22 300.558 155.538C300.359 155.857 300.072 156.088 299.697 156.233C299.325 156.381 298.876 156.447 298.35 156.433C298.302 156.433 298.252 156.433 298.201 156.433C298.147 156.433 298.085 156.43 298.013 156.425V155.006C298.062 155.009 298.104 155.01 298.141 155.01C298.175 155.013 298.212 155.014 298.252 155.014C298.545 155.014 298.749 154.952 298.866 154.827C298.985 154.705 299.045 154.52 299.045 154.273V147.455ZM299.952 146.611C299.683 146.611 299.451 146.521 299.258 146.342C299.065 146.161 298.968 145.943 298.968 145.69C298.968 145.44 299.065 145.226 299.258 145.047C299.451 144.865 299.681 144.774 299.948 144.774C300.221 144.774 300.452 144.865 300.643 145.047C300.836 145.226 300.933 145.44 300.933 145.69C300.933 145.943 300.836 146.161 300.643 146.342C300.452 146.521 300.222 146.611 299.952 146.611ZM305.297 154.128C304.624 154.128 304.044 153.991 303.559 153.719C303.076 153.443 302.703 153.054 302.442 152.551C302.181 152.045 302.05 151.447 302.05 150.757C302.05 150.084 302.181 149.493 302.442 148.984C302.703 148.476 303.071 148.08 303.546 147.795C304.023 147.511 304.583 147.369 305.225 147.369C305.657 147.369 306.059 147.439 306.431 147.578C306.806 147.714 307.132 147.92 307.411 148.196C307.692 148.472 307.911 148.818 308.067 149.236C308.223 149.651 308.301 150.136 308.301 150.693V151.192H302.775V150.067H306.593C306.593 149.805 306.536 149.574 306.422 149.372C306.309 149.17 306.151 149.013 305.949 148.899C305.75 148.783 305.519 148.724 305.255 148.724C304.979 148.724 304.735 148.788 304.522 148.916C304.311 149.041 304.147 149.21 304.027 149.423C303.908 149.634 303.847 149.868 303.844 150.126V151.196C303.844 151.52 303.904 151.8 304.023 152.036C304.145 152.271 304.317 152.453 304.539 152.581C304.76 152.709 305.023 152.773 305.327 152.773C305.529 152.773 305.713 152.744 305.881 152.688C306.049 152.631 306.192 152.545 306.311 152.432C306.431 152.318 306.522 152.179 306.584 152.014L308.263 152.125C308.178 152.528 308.003 152.881 307.739 153.182C307.478 153.48 307.14 153.713 306.725 153.881C306.313 154.045 305.837 154.128 305.297 154.128ZM314.932 149.321L313.27 149.423C313.242 149.281 313.181 149.153 313.087 149.04C312.993 148.923 312.87 148.831 312.716 148.763C312.566 148.692 312.385 148.656 312.175 148.656C311.894 148.656 311.657 148.716 311.463 148.835C311.27 148.952 311.174 149.108 311.174 149.304C311.174 149.46 311.236 149.592 311.361 149.7C311.486 149.808 311.701 149.895 312.005 149.96L313.189 150.199C313.826 150.33 314.3 150.54 314.613 150.83C314.925 151.119 315.081 151.5 315.081 151.972C315.081 152.401 314.955 152.777 314.702 153.101C314.452 153.425 314.108 153.678 313.671 153.859C313.236 154.038 312.735 154.128 312.167 154.128C311.3 154.128 310.61 153.947 310.096 153.587C309.584 153.223 309.284 152.729 309.196 152.104L310.982 152.01C311.036 152.274 311.167 152.476 311.374 152.615C311.581 152.751 311.847 152.82 312.171 152.82C312.489 152.82 312.745 152.759 312.938 152.636C313.134 152.511 313.233 152.351 313.236 152.155C313.233 151.99 313.164 151.855 313.027 151.75C312.891 151.642 312.681 151.56 312.397 151.503L311.263 151.277C310.624 151.149 310.148 150.928 309.836 150.612C309.526 150.297 309.371 149.895 309.371 149.406C309.371 148.986 309.485 148.624 309.712 148.32C309.942 148.016 310.265 147.781 310.679 147.616C311.097 147.452 311.586 147.369 312.145 147.369C312.972 147.369 313.623 147.544 314.097 147.893C314.574 148.243 314.853 148.719 314.932 149.321ZM316.224 154V147.455H318.04V154H316.224ZM317.141 146.611C316.871 146.611 316.639 146.521 316.446 146.342C316.253 146.161 316.156 145.943 316.156 145.69C316.156 145.44 316.253 145.226 316.446 145.047C316.639 144.865 316.869 144.774 317.136 144.774C317.409 144.774 317.641 144.865 317.831 145.047C318.024 145.226 318.121 145.44 318.121 145.69C318.121 145.943 318.024 146.161 317.831 146.342C317.641 146.521 317.411 146.611 317.141 146.611Z" fill="white"/>
<defs>
<filter id="filter0_d" x="360" y="152.25" width="156" height="156" filterUnits="userSpaceOnUse" color-interpolation-filters="sRGB">
<feFlood flood-opacity="0" result="BackgroundImageFix"/>
<feColorMatrix in="SourceAlpha" type="matrix" values="0 0 0 0 0 0 0 0 0 0 0 0 0 0 0 0 0 0 127 0"/>
<feMorphology radius="2" operator="erode" in="SourceAlpha" result="effect1_dropShadow"/>
<feOffset dy="4"/>
<feGaussianBlur stdDeviation="4"/>
<feColorMatrix type="matrix" values="0 0 0 0 0 0 0 0 0 0 0 0 0 0 0 0 0 0 0.25 0"/>
<feBlend mode="normal" in2="BackgroundImageFix" result="effect1_dropShadow"/>
<feBlend mode="normal" in="SourceGraphic" in2="effect1_dropShadow" result="shape"/>
</filter>
<filter id="filter1_d" x="216" y="8.25" width="156" height="156" filterUnits="userSpaceOnUse" color-interpolation-filters="sRGB">
<feFlood flood-opacity="0" result="BackgroundImageFix"/>
<feColorMatrix in="SourceAlpha" type="matrix" values="0 0 0 0 0 0 0 0 0 0 0 0 0 0 0 0 0 0 127 0"/>
<feMorphology radius="2" operator="erode" in="SourceAlpha" result="effect1_dropShadow"/>
<feOffset dy="4"/>
<feGaussianBlur stdDeviation="4"/>
<feColorMatrix type="matrix" values="0 0 0 0 0 0 0 0 0 0 0 0 0 0 0 0 0 0 0.25 0"/>
<feBlend mode="normal" in2="BackgroundImageFix" result="effect1_dropShadow"/>
<feBlend mode="normal" in="SourceGraphic" in2="effect1_dropShadow" result="shape"/>
</filter>
<filter id="filter2_d" x="144" y="224.25" width="156" height="156" filterUnits="userSpaceOnUse" color-interpolation-filters="sRGB">
<feFlood flood-opacity="0" result="BackgroundImageFix"/>
<feColorMatrix in="SourceAlpha" type="matrix" values="0 0 0 0 0 0 0 0 0 0 0 0 0 0 0 0 0 0 127 0"/>
<feMorphology radius="2" operator="erode" in="SourceAlpha" result="effect1_dropShadow"/>
<feOffset dy="4"/>
<feGaussianBlur stdDeviation="4"/>
<feColorMatrix type="matrix" values="0 0 0 0 0 0 0 0 0 0 0 0 0 0 0 0 0 0 0.25 0"/>
<feBlend mode="normal" in2="BackgroundImageFix" result="effect1_dropShadow"/>
<feBlend mode="normal" in="SourceGraphic" in2="effect1_dropShadow" result="shape"/>
</filter>
<filter id="filter3_d" x="0" y="80.25" width="156" height="156" filterUnits="userSpaceOnUse" color-interpolation-filters="sRGB">
<feFlood flood-opacity="0" result="BackgroundImageFix"/>
<feColorMatrix in="SourceAlpha" type="matrix" values="0 0 0 0 0 0 0 0 0 0 0 0 0 0 0 0 0 0 127 0"/>
<feMorphology radius="2" operator="erode" in="SourceAlpha" result="effect1_dropShadow"/>
<feOffset dy="4"/>
<feGaussianBlur stdDeviation="4"/>
<feColorMatrix type="matrix" values="0 0 0 0 0 0 0 0 0 0 0 0 0 0 0 0 0 0 0.25 0"/>
<feBlend mode="normal" in2="BackgroundImageFix" result="effect1_dropShadow"/>
<feBlend mode="normal" in="SourceGraphic" in2="effect1_dropShadow" result="shape"/>
</filter>
<linearGradient id="paint0_linear" x1="401.776" y1="109.046" x2="381.484" y2="126.04" gradientUnits="userSpaceOnUse">
<stop stop-color="#F0F0F0"/>
<stop offset="1" stop-color="#F4F4F4"/>
</linearGradient>
<linearGradient id="paint1_linear" x1="261.191" y1="215.274" x2="282.438" y2="221.452" gradientUnits="userSpaceOnUse">
<stop stop-color="#F0F0F0"/>
<stop offset="1" stop-color="#F4F4F4"/>
</linearGradient>
<linearGradient id="paint2_linear" x1="148.963" y1="165.545" x2="140.738" y2="208.204" gradientUnits="userSpaceOnUse">
<stop stop-color="#F0F0F0"/>
<stop offset="1" stop-color="#F4F4F4"/>
</linearGradient>
<linearGradient id="paint3_linear" x1="438" y1="154.25" x2="438" y2="298.25" gradientUnits="userSpaceOnUse">
<stop stop-color="#F0F0F0"/>
<stop offset="1" stop-color="#F0F0F0" stop-opacity="0.46"/>
</linearGradient>
<linearGradient id="paint4_linear" x1="438" y1="154.25" x2="438" y2="298.25" gradientUnits="userSpaceOnUse">
<stop stop-color="white"/>
<stop offset="1" stop-color="white" stop-opacity="0"/>
</linearGradient>
<linearGradient id="paint5_linear" x1="337.6" y1="86.7833" x2="318.4" y2="165.717" gradientUnits="userSpaceOnUse">
<stop stop-color="#FF564B"/>
<stop offset="1" stop-color="#F9C543"/>
</linearGradient>
<linearGradient id="paint6_linear" x1="222" y1="226.25" x2="222" y2="370.25" gradientUnits="userSpaceOnUse">
<stop stop-color="#0A79B4"/>
<stop offset="1" stop-color="#0A79B4" stop-opacity="0.5"/>
</linearGradient>
<linearGradient id="paint7_linear" x1="222" y1="226.25" x2="222" y2="370.25" gradientUnits="userSpaceOnUse">
<stop stop-color="#00A6FF"/>
<stop offset="1" stop-color="#00A6FF" stop-opacity="0"/>
</linearGradient>
<linearGradient id="paint8_linear" x1="78.0295" y1="82.25" x2="78.0296" y2="226.368" gradientUnits="userSpaceOnUse">
<stop stop-color="#D80032"/>
<stop offset="1" stop-color="#FF7751"/>
</linearGradient>
<clipPath id="clip0">
<rect x="6" y="82.25" width="144" height="144" rx="72" fill="white"/>
</clipPath>
</defs>
</svg>
