<svg width="856" height="611" viewBox="0 0 856 611" fill="none" xmlns="http://www.w3.org/2000/svg">
<g filter="url(#filter0_di)">
<path d="M204.612 189.07V90.1605H270.101V107.402H225.524V130.97H265.754V148.212H225.524V189.07H204.612ZM283.78 189.07V114.888H304.354V189.07H283.78ZM294.164 105.325C291.105 105.325 288.481 104.311 286.292 102.283C284.102 100.222 283.008 97.759 283.008 94.8935C283.008 92.0602 284.102 89.6293 286.292 87.6009C288.481 85.5403 291.089 84.51 294.116 84.51C297.207 84.51 299.831 85.5403 301.988 87.6009C304.177 89.6293 305.272 92.0602 305.272 94.8935C305.272 97.759 304.177 100.222 301.988 102.283C299.831 104.311 297.223 105.325 294.164 105.325ZM339.477 167.723L339.525 143.044H342.52L366.281 114.888H389.898L357.974 152.172H353.097L339.477 167.723ZM320.835 189.07V90.1605H341.409V189.07H320.835ZM367.199 189.07L345.369 156.76L359.085 142.223L391.298 189.07H367.199ZM399.991 189.07V114.888H420.565V189.07H399.991ZM410.375 105.325C407.316 105.325 404.692 104.311 402.503 102.283C400.313 100.222 399.219 97.759 399.219 94.8935C399.219 92.0602 400.313 89.6293 402.503 87.6009C404.692 85.5403 407.3 84.51 410.327 84.51C413.418 84.51 416.042 85.5403 418.199 87.6009C420.388 89.6293 421.483 92.0602 421.483 94.8935C421.483 97.759 420.388 100.222 418.199 102.283C416.042 104.311 413.434 105.325 410.375 105.325ZM437.046 189.07V114.888H456.992V127.831H457.765C459.117 123.227 461.387 119.75 464.574 117.399C467.762 115.017 471.432 113.825 475.586 113.825C476.616 113.825 477.727 113.89 478.918 114.019C480.11 114.147 481.156 114.324 482.057 114.55V132.805C481.092 132.516 479.755 132.258 478.049 132.033C476.342 131.807 474.781 131.695 473.364 131.695C470.338 131.695 467.633 132.355 465.251 133.675C462.9 134.963 461.033 136.766 459.648 139.084C458.296 141.402 457.62 144.074 457.62 147.101V189.07H437.046ZM593.33 114.888L567.396 189.07H544.214L518.279 114.888H540.012L555.418 167.965H556.191L571.549 114.888H593.33ZM635.142 190.519C627.511 190.519 620.943 188.973 615.437 185.882C609.964 182.759 605.746 178.348 602.784 172.649C599.822 166.918 598.341 160.141 598.341 152.317C598.341 144.686 599.822 137.989 602.784 132.226C605.746 126.463 609.916 121.971 615.292 118.751C620.702 115.532 627.044 113.922 634.321 113.922C639.215 113.922 643.771 114.711 647.989 116.288C652.239 117.834 655.941 120.168 659.096 123.291C662.284 126.414 664.763 130.342 666.534 135.075C668.305 139.776 669.19 145.282 669.19 151.592V157.243H606.551V144.493H649.824C649.824 141.531 649.18 138.907 647.892 136.621C646.604 134.335 644.817 132.548 642.531 131.26C640.277 129.94 637.653 129.28 634.659 129.28C631.536 129.28 628.767 130.004 626.352 131.453C623.97 132.87 622.102 134.786 620.75 137.2C619.398 139.583 618.705 142.239 618.673 145.169V157.291C618.673 160.962 619.349 164.133 620.702 166.805C622.086 169.478 624.034 171.538 626.545 172.987C629.057 174.436 632.035 175.161 635.48 175.161C637.766 175.161 639.859 174.839 641.758 174.195C643.658 173.551 645.284 172.585 646.636 171.297C647.989 170.009 649.019 168.431 649.727 166.564L668.756 167.82C667.79 172.392 665.81 176.384 662.815 179.797C659.853 183.178 656.022 185.818 651.321 187.717C646.652 189.585 641.259 190.519 635.142 190.519ZM68.0628 270.161H91.4861L114.04 312.757H115.006L137.56 270.161H160.983L124.907 334.104V369.07H104.139V334.104L68.0628 270.161ZM178.828 370.47C174.095 370.47 169.878 369.649 166.175 368.007C162.472 366.333 159.542 363.87 157.385 360.618C155.26 357.334 154.198 353.245 154.198 348.351C154.198 344.23 154.954 340.769 156.468 337.967C157.981 335.166 160.041 332.912 162.649 331.206C165.257 329.5 168.219 328.212 171.536 327.342C174.884 326.473 178.394 325.861 182.064 325.507C186.379 325.056 189.856 324.638 192.496 324.251C195.136 323.833 197.052 323.221 198.243 322.416C199.434 321.611 200.03 320.42 200.03 318.842V318.553C200.03 315.494 199.064 313.127 197.132 311.453C195.233 309.779 192.528 308.942 189.019 308.942C185.316 308.942 182.37 309.763 180.181 311.405C177.991 313.015 176.542 315.043 175.834 317.49L156.806 315.945C157.772 311.437 159.671 307.541 162.505 304.257C165.338 300.941 168.992 298.397 173.468 296.626C177.975 294.823 183.191 293.922 189.115 293.922C193.237 293.922 197.181 294.405 200.948 295.371C204.747 296.337 208.112 297.834 211.041 299.862C214.004 301.891 216.338 304.499 218.044 307.686C219.751 310.841 220.604 314.625 220.604 319.036V369.07H201.093V358.783H200.513C199.322 361.101 197.728 363.145 195.732 364.916C193.736 366.655 191.337 368.023 188.536 369.021C185.735 369.987 182.499 370.47 178.828 370.47ZM184.72 356.271C187.747 356.271 190.419 355.676 192.737 354.484C195.056 353.261 196.875 351.619 198.195 349.558C199.515 347.498 200.175 345.163 200.175 342.555V334.683C199.531 335.102 198.646 335.488 197.519 335.842C196.424 336.164 195.184 336.47 193.8 336.76C192.416 337.018 191.031 337.259 189.647 337.484C188.262 337.678 187.006 337.855 185.88 338.016C183.465 338.37 181.356 338.933 179.553 339.706C177.75 340.479 176.349 341.525 175.351 342.845C174.353 344.133 173.854 345.743 173.854 347.675C173.854 350.476 174.868 352.617 176.897 354.098C178.957 355.547 181.565 356.271 184.72 356.271ZM276.023 294.888V310.342H231.35V294.888H276.023ZM241.492 277.115H262.066V346.274C262.066 348.174 262.355 349.655 262.935 350.717C263.514 351.748 264.319 352.472 265.35 352.891C266.412 353.309 267.636 353.519 269.02 353.519C269.986 353.519 270.952 353.438 271.918 353.277C272.884 353.084 273.624 352.939 274.139 352.842L277.375 368.152C276.345 368.474 274.896 368.844 273.029 369.263C271.161 369.714 268.891 369.987 266.219 370.084C261.261 370.277 256.914 369.617 253.179 368.104C249.477 366.59 246.595 364.24 244.534 361.053C242.474 357.865 241.46 353.84 241.492 348.979V277.115ZM289.425 369.07V294.888H309.999V369.07H289.425ZM326.48 369.07V294.888H346.426V307.831H347.198C348.551 303.227 350.821 299.75 354.008 297.399C357.196 295.017 360.866 293.825 365.019 293.825C366.05 293.825 367.161 293.89 368.352 294.019C369.543 294.147 370.59 294.324 371.491 294.55V312.805C370.525 312.516 369.189 312.258 367.483 312.033C365.776 311.807 364.215 311.695 362.798 311.695C359.771 311.695 357.067 312.355 354.684 313.675C352.334 314.963 350.466 316.766 349.082 319.084C347.73 321.402 347.054 324.074 347.054 327.101V369.07H326.48ZM382.128 369.07V294.888H402.702V369.07H382.128ZM419.183 369.07V294.888H438.791V307.976H439.66C441.206 303.629 443.781 300.2 447.387 297.689C450.993 295.178 455.308 293.922 460.331 293.922C465.418 293.922 469.748 295.194 473.322 297.737C476.896 300.249 479.278 303.661 480.47 307.976H481.242C482.756 303.726 485.492 300.329 489.453 297.786C493.445 295.21 498.162 293.922 503.603 293.922C510.526 293.922 516.144 296.127 520.458 300.538C524.805 304.917 526.978 311.131 526.978 319.18V369.07H506.453V323.237C506.453 319.116 505.358 316.025 503.169 313.965C500.979 311.904 498.242 310.874 494.958 310.874C491.224 310.874 488.31 312.065 486.217 314.447C484.124 316.798 483.078 319.905 483.078 323.769V369.07H463.132V322.803C463.132 319.164 462.085 316.267 459.992 314.109C457.932 311.952 455.211 310.874 451.831 310.874C449.545 310.874 447.484 311.453 445.649 312.612C443.846 313.739 442.413 315.333 441.35 317.394C440.288 319.422 439.757 321.804 439.757 324.541V369.07H419.183ZM576.747 370.519C569.148 370.519 562.612 368.909 557.139 365.689C551.697 362.437 547.512 357.929 544.582 352.166C541.684 346.403 540.235 339.77 540.235 332.269C540.235 324.67 541.7 318.005 544.63 312.274C547.592 306.511 551.794 302.019 557.235 298.8C562.677 295.548 569.148 293.922 576.65 293.922C583.122 293.922 588.788 295.097 593.65 297.447C598.512 299.798 602.359 303.098 605.193 307.348C608.026 311.598 609.588 316.589 609.877 322.32H590.463C589.915 318.617 588.466 315.639 586.116 313.385C583.798 311.099 580.755 309.956 576.988 309.956C573.801 309.956 571.016 310.825 568.633 312.564C566.283 314.27 564.447 316.766 563.127 320.05C561.807 323.334 561.147 327.31 561.147 331.979C561.147 336.712 561.791 340.736 563.079 344.053C564.399 347.369 566.251 349.896 568.633 351.635C571.016 353.374 573.801 354.243 576.988 354.243C579.339 354.243 581.447 353.76 583.315 352.794C585.215 351.828 586.776 350.428 588 348.592C589.255 346.725 590.076 344.487 590.463 341.879H609.877C609.555 347.546 608.01 352.536 605.241 356.851C602.504 361.133 598.721 364.482 593.892 366.896C589.062 369.311 583.347 370.519 576.747 370.519ZM623.05 369.07V294.888H643.624V369.07H623.05ZM680.679 270.161V369.07H660.105V270.161H680.679ZM697.159 369.07V294.888H717.733V369.07H697.159ZM752.856 347.723L752.904 323.044H755.899L779.66 294.888H803.277L771.353 332.172H766.475L752.856 347.723ZM734.214 369.07V270.161H754.788V369.07H734.214ZM780.578 369.07L758.748 336.76L772.464 322.223L804.677 369.07H780.578ZM325.139 549.07V450.161H346.051V531.828H388.455V549.07H325.139ZM401.917 549.07V474.888H422.491V549.07H401.917ZM412.301 465.325C409.242 465.325 406.618 464.311 404.429 462.283C402.239 460.222 401.144 457.759 401.144 454.894C401.144 452.06 402.239 449.629 404.429 447.601C406.618 445.54 409.226 444.51 412.252 444.51C415.343 444.51 417.967 445.54 420.125 447.601C422.314 449.629 423.409 452.06 423.409 454.894C423.409 457.759 422.314 460.222 420.125 462.283C417.967 464.311 415.359 465.325 412.301 465.325ZM472.392 577.95C465.728 577.95 460.013 577.049 455.247 575.246C450.514 573.443 446.747 571.012 443.946 567.953C441.145 564.894 439.326 561.498 438.489 557.763L457.517 555.203C458.097 556.555 459.014 557.827 460.27 559.019C461.526 560.242 463.184 561.24 465.245 562.013C467.337 562.786 469.881 563.172 472.875 563.172C477.351 563.172 481.037 562.109 483.935 559.984C486.865 557.859 488.33 554.366 488.33 549.504V535.933H487.46C486.559 537.994 485.207 539.942 483.404 541.777C481.601 543.612 479.282 545.109 476.449 546.269C473.616 547.428 470.235 548.007 466.307 548.007C460.737 548.007 455.666 546.719 451.094 544.144C446.554 541.536 442.932 537.559 440.228 532.215C437.555 526.838 436.219 520.044 436.219 511.834C436.219 503.43 437.587 496.411 440.324 490.777C443.061 485.143 446.699 480.925 451.239 478.124C455.811 475.322 460.817 473.922 466.259 473.922C470.412 473.922 473.889 474.63 476.691 476.047C479.492 477.431 481.746 479.17 483.452 481.263C485.191 483.323 486.527 485.352 487.46 487.348H488.233V474.888H508.662V549.794C508.662 555.976 507.117 561.144 504.026 565.297C500.935 569.483 496.653 572.638 491.179 574.763C485.738 576.888 479.476 577.95 472.392 577.95ZM472.827 532.553C476.143 532.553 478.944 531.732 481.23 530.09C483.549 528.415 485.319 526.033 486.543 522.942C487.799 519.819 488.426 516.084 488.426 511.737C488.426 507.391 487.815 503.624 486.591 500.436C485.368 497.216 483.597 494.721 481.279 492.95C478.96 491.179 476.143 490.294 472.827 490.294C469.446 490.294 466.597 491.212 464.279 493.047C461.96 494.85 460.206 497.361 459.014 500.581C457.823 503.801 457.228 507.519 457.228 511.737C457.228 516.019 457.823 519.722 459.014 522.845C460.238 525.936 461.993 528.335 464.279 530.041C466.597 531.715 469.446 532.553 472.827 532.553ZM525.034 549.07V474.888H545.608V549.07H525.034ZM535.418 465.325C532.359 465.325 529.735 464.311 527.546 462.283C525.356 460.222 524.262 457.759 524.262 454.894C524.262 452.06 525.356 449.629 527.546 447.601C529.735 445.54 532.343 444.51 535.37 444.51C538.46 444.51 541.085 445.54 543.242 447.601C545.431 449.629 546.526 452.06 546.526 454.894C546.526 457.759 545.431 460.222 543.242 462.283C541.085 464.311 538.477 465.325 535.418 465.325Z" fill="url(#paint0_linear)"/>
</g>
<path fill-rule="evenodd" clip-rule="evenodd" d="M564.455 46.1681C568.271 46.1681 571.475 43.5481 572.367 40.0087H571.886V36.0087H572.367C571.475 32.4693 568.271 29.8494 564.455 29.8494C559.949 29.8494 556.295 33.5024 556.295 38.0087C556.295 42.515 559.949 46.1681 564.455 46.1681ZM564.455 50.1681C570.489 50.1681 575.497 45.7726 576.451 40.0087H707.771C711.085 40.0087 713.771 42.695 713.771 46.0087V212.716C713.771 218.239 718.248 222.716 723.771 222.716H845.577C848.891 222.716 851.577 225.402 851.577 228.716V413.694C851.577 417.008 848.891 419.694 845.577 419.694H592.045C586.522 419.694 582.045 424.171 582.045 429.694V591.664C582.045 594.978 579.359 597.664 576.045 597.664H542.796C542.275 591.429 537.049 586.531 530.679 586.531C523.964 586.531 518.52 591.975 518.52 598.69C518.52 605.405 523.964 610.849 530.679 610.849C536.368 610.849 541.145 606.942 542.472 601.664H576.045C581.568 601.664 586.045 597.187 586.045 591.664V429.694C586.045 426.38 588.731 423.694 592.045 423.694H845.577C851.1 423.694 855.577 419.217 855.577 413.694V228.716C855.577 223.193 851.1 218.716 845.577 218.716H723.771C720.458 218.716 717.771 216.03 717.771 212.716V46.0087C717.771 40.4859 713.294 36.0087 707.771 36.0087H576.451C575.497 30.2449 570.489 25.8494 564.455 25.8494C557.739 25.8494 552.295 31.2933 552.295 38.0087C552.295 44.7241 557.739 50.1681 564.455 50.1681ZM142.229 46.0087C142.229 42.695 144.915 40.0087 148.229 40.0087H279.549C280.503 45.7726 285.511 50.1681 291.545 50.1681C298.26 50.1681 303.704 44.7241 303.704 38.0087C303.704 31.2933 298.26 25.8494 291.545 25.8494C285.511 25.8494 280.503 30.2449 279.549 36.0087H148.229C142.706 36.0087 138.229 40.4859 138.229 46.0087V212.399C138.229 215.713 135.542 218.399 132.229 218.399H10.4226C4.89975 218.399 0.422607 222.876 0.422607 228.399V413.028C0.422607 418.551 4.89976 423.028 10.4226 423.028H263.955C267.269 423.028 269.955 425.715 269.955 429.028V590.69C269.955 596.213 274.432 600.69 279.955 600.69H313.325C314.279 606.454 319.287 610.849 325.321 610.849C332.037 610.849 337.48 605.405 337.48 598.69C337.48 591.975 332.037 586.531 325.321 586.531C319.287 586.531 314.279 590.926 313.325 596.69H279.955C276.641 596.69 273.955 594.004 273.955 590.69V429.028C273.955 423.505 269.478 419.028 263.955 419.028H10.4226C7.1089 419.028 4.42261 416.342 4.42261 413.028V228.399C4.42261 225.085 7.10889 222.399 10.4226 222.399H132.229C137.751 222.399 142.229 217.922 142.229 212.399V46.0087ZM283.633 40.0087H284.114V36.0087H283.633C284.524 32.4693 287.729 29.8494 291.545 29.8494C296.051 29.8494 299.704 33.5024 299.704 38.0087C299.704 42.515 296.051 46.1681 291.545 46.1681C287.729 46.1681 284.524 43.5481 283.633 40.0087ZM317.409 600.69H317.553V596.69H317.409C318.301 593.151 321.505 590.531 325.321 590.531C329.827 590.531 333.48 594.184 333.48 598.69C333.48 603.196 329.827 606.849 325.321 606.849C321.505 606.849 318.3 604.229 317.409 600.69ZM538.447 597.664H538.774C538.27 593.642 534.838 590.531 530.679 590.531C526.173 590.531 522.52 594.184 522.52 598.69C522.52 603.196 526.173 606.849 530.679 606.849C534.312 606.849 537.391 604.475 538.447 601.193V597.664Z" fill="url(#paint1_linear)"/>
<path d="M372.916 1.26298L354.806 28.3839C354.783 28.4198 354.751 28.4493 354.713 28.4697C354.675 28.49 354.633 28.5006 354.591 28.5005H345.796C345.752 28.5006 345.71 28.49 345.671 28.4697C345.633 28.4493 345.6 28.4199 345.575 28.3839L332.951 9.48674L332.793 9.25344H323.204C323.16 9.254 323.116 9.2432 323.077 9.22205C323.038 9.2009 323.004 9.17009 322.98 9.1325C322.956 9.09491 322.942 9.05175 322.939 9.00707C322.936 8.96239 322.944 8.91763 322.962 8.87698L326.497 1.00317C326.518 0.956742 326.553 0.917518 326.595 0.890235C326.638 0.862951 326.688 0.848772 326.739 0.849408H339.326C339.367 0.84981 339.407 0.859569 339.443 0.877944C339.48 0.896318 339.512 0.922826 339.537 0.955453L349.778 14.9904L350.204 15.5737L350.63 14.9904L360.866 0.955453C360.892 0.922985 360.925 0.896667 360.962 0.878348C360.999 0.860028 361.04 0.85015 361.081 0.849408H372.69C372.739 0.847852 372.787 0.859822 372.829 0.883995C372.871 0.908169 372.905 0.943606 372.929 0.986394C372.952 1.02918 372.964 1.07766 372.961 1.12647C372.959 1.17527 372.944 1.22252 372.916 1.26298V1.26298Z" fill="url(#paint2_linear)"/>
<path d="M372.195 4.61932L364.163 28.7657C364.158 28.7864 364.149 28.8061 364.137 28.824L352.26 47.053L351.781 46.8516L355.516 29.2906C355.525 29.2583 355.539 29.2277 355.558 29.2004L372.011 4.52388C372.026 4.50417 372.048 4.4904 372.072 4.48496C372.096 4.47953 372.121 4.48277 372.143 4.49413C372.165 4.50549 372.182 4.52425 372.192 4.54713C372.201 4.57001 372.203 4.59556 372.195 4.61932V4.61932Z" fill="url(#paint3_linear)"/>
<path d="M348.889 46.6871L348.41 46.8939L336.622 28.8664C336.602 28.8377 336.588 28.8053 336.58 28.7709L333.766 13.4687C333.754 13.4082 333.763 13.3453 333.792 13.291C333.821 13.2366 333.868 13.1942 333.925 13.171C333.982 13.1477 334.045 13.1451 334.103 13.1637C334.161 13.1822 334.212 13.2207 334.245 13.2725L344.87 29.1792C344.89 29.2055 344.902 29.2366 344.907 29.2693L348.889 46.6871Z" fill="url(#paint4_linear)"/>
<path d="M335.144 28.5006H327.281C327.222 28.5009 327.165 28.4811 327.119 28.4445C327.073 28.4079 327.041 28.3566 327.028 28.2991L322.72 10.6427C322.712 10.6035 322.712 10.5629 322.721 10.5238C322.73 10.4847 322.747 10.4481 322.772 10.4166C322.796 10.3852 322.828 10.3596 322.863 10.3419C322.899 10.3241 322.938 10.3146 322.978 10.3139H331.888C331.95 10.3142 332.009 10.336 332.056 10.3757C332.103 10.4154 332.135 10.4705 332.146 10.5313L335.402 28.1877C335.409 28.2259 335.407 28.2651 335.398 28.3026C335.388 28.3401 335.37 28.375 335.346 28.4048C335.321 28.4347 335.29 28.4587 335.255 28.4752C335.221 28.4918 335.183 28.5004 335.144 28.5006V28.5006Z" fill="url(#paint5_linear)"/>
<path d="M354.054 29.561C354.093 29.56 354.132 29.568 354.168 29.5846C354.204 29.6011 354.235 29.6257 354.26 29.6564C354.285 29.6871 354.303 29.7231 354.312 29.7617C354.321 29.8003 354.321 29.8405 354.312 29.8791L350.561 47.509H350.162L346.111 29.8526C346.103 29.8137 346.103 29.7733 346.112 29.7345C346.121 29.6957 346.138 29.6593 346.163 29.6283C346.188 29.5972 346.219 29.5721 346.255 29.555C346.291 29.5378 346.33 29.529 346.369 29.5292L354.054 29.561Z" fill="url(#paint6_linear)"/>
<path d="M350.474 50.8468C351.281 50.8227 351.921 50.2977 351.902 49.6742C351.884 49.0507 351.215 48.5649 350.407 48.5891C349.6 48.6132 348.961 49.1382 348.979 49.7617C348.997 50.3851 349.667 50.871 350.474 50.8468Z" fill="#E62A3D"/>
<path d="M413.117 10.5419L398.874 39.5989C398.82 39.7073 398.744 39.7974 398.653 39.8603C398.561 39.9232 398.458 39.9569 398.352 39.958H391.752C391.609 39.9586 391.47 39.8978 391.361 39.7867C391.252 39.6755 391.18 39.5214 391.159 39.3524L388.176 17.4444C388.153 17.2764 388.08 17.1235 387.972 17.0127C387.863 16.9019 387.725 16.8404 387.582 16.8389H385.283C385.177 16.8402 385.073 16.8082 384.981 16.7462C384.888 16.6842 384.812 16.5944 384.758 16.4857C384.704 16.377 384.675 16.2534 384.674 16.1272C384.673 16.0011 384.7 15.8768 384.752 15.767L387.429 9.85061C387.48 9.73512 387.556 9.63849 387.65 9.57136C387.743 9.50422 387.851 9.46918 387.96 9.47011H392.459C393.808 9.47011 394.542 10.2686 394.65 11.871L396.188 27.6053C396.203 27.7578 396.259 27.9005 396.347 28.0125C396.436 28.1245 396.552 28.1998 396.679 28.2273C396.805 28.2549 396.936 28.2333 397.052 28.1657C397.168 28.0981 397.262 27.9881 397.322 27.8518L405.172 9.85597C405.224 9.73983 405.301 9.64256 405.395 9.57459C405.489 9.50662 405.597 9.4705 405.708 9.47011H412.6C412.704 9.47161 412.807 9.50561 412.897 9.56876C412.988 9.63191 413.063 9.72202 413.115 9.83022C413.167 9.93841 413.195 10.0609 413.195 10.1858C413.196 10.3106 413.169 10.4333 413.117 10.5419V10.5419Z" fill="#353535"/>
<path d="M434.23 34.5345L431.918 39.5827C431.866 39.6964 431.789 39.7913 431.696 39.8574C431.602 39.9234 431.495 39.9581 431.387 39.9579H426.159C424.171 39.9579 423.141 39.5077 422.821 38.2697C422.788 38.1541 422.731 38.0504 422.654 37.9685C422.578 37.8867 422.486 37.8293 422.386 37.802C422.286 37.7746 422.181 37.7781 422.083 37.8121C421.984 37.8462 421.895 37.9096 421.822 37.9964C421.145 38.781 420.34 39.3929 419.458 39.7947C418.575 40.1964 417.633 40.3796 416.689 40.333C411.952 40.333 408.56 35.1936 409.55 28.2268C410.854 18.5215 419.479 13.6822 430.793 15.9009L431.243 15.992C431.34 16.0096 431.432 16.0554 431.511 16.1255C431.59 16.1955 431.653 16.2875 431.694 16.3935C431.736 16.4994 431.755 16.616 431.75 16.7329C431.745 16.8498 431.716 16.9635 431.666 17.0638L429.34 21.812C429.282 21.9333 429.195 22.0315 429.09 22.0944C428.985 22.1573 428.867 22.1821 428.751 22.1657L427.905 22.0478C421.319 21.3029 417.288 23.5751 416.406 28.2268C415.767 31.5548 416.856 33.7467 419.105 33.7467C421.471 33.7467 422.992 31.603 423.734 27.3854L424.27 24.379C424.298 24.2177 424.372 24.073 424.48 23.9687C424.587 23.8644 424.721 23.8069 424.859 23.8056H430.483C430.572 23.8056 430.661 23.8296 430.742 23.8757C430.823 23.9218 430.895 23.9889 430.951 24.0721C431.008 24.1554 431.048 24.2526 431.069 24.3567C431.09 24.4607 431.091 24.5691 431.072 24.6737L429.668 32.6052C429.65 32.7102 429.652 32.8186 429.674 32.9227C429.695 33.0267 429.736 33.1238 429.792 33.2069C429.849 33.29 429.921 33.357 430.002 33.403C430.083 33.4491 430.172 33.4731 430.262 33.4734H433.717C433.82 33.4768 433.921 33.5116 434.009 33.5745C434.098 33.6375 434.171 33.7264 434.223 33.8329C434.274 33.9393 434.302 34.0597 434.303 34.1826C434.305 34.3054 434.279 34.4266 434.23 34.5345V34.5345Z" fill="#353535"/>
<path d="M473.189 34.5292L470.904 39.5775C470.852 39.6918 470.776 39.7875 470.682 39.8544C470.589 39.9213 470.482 39.9571 470.373 39.9579H464.408C461.506 39.9579 460.66 38.988 461.331 35.242L462.779 27.2033C463.382 23.7092 462.887 22.1926 460.696 22.1926C458.505 22.1926 457.547 23.5806 456.841 27.5838L454.717 39.3738C454.688 39.5341 454.613 39.6776 454.506 39.7808C454.399 39.8841 454.266 39.9408 454.128 39.9419H448.5C448.411 39.9409 448.322 39.9163 448.242 39.8698C448.161 39.8234 448.09 39.7563 448.034 39.6733C447.977 39.5904 447.937 39.4936 447.916 39.3899C447.895 39.2862 447.893 39.1783 447.911 39.0737L450.021 27.2248C450.655 23.7306 450.196 22.214 448.041 22.214C445.792 22.214 444.825 23.7306 444.082 28.0233L442.026 39.3738C441.997 39.5341 441.922 39.6776 441.815 39.7808C441.708 39.8841 441.575 39.9408 441.437 39.9419H435.814C435.724 39.9418 435.635 39.9179 435.554 39.8718C435.473 39.8256 435.402 39.7585 435.345 39.6753C435.289 39.5921 435.248 39.4949 435.227 39.3908C435.207 39.2867 435.205 39.1784 435.224 39.0737L438.058 23.2054C438.078 23.1004 438.077 22.9915 438.057 22.8867C438.036 22.782 437.996 22.684 437.94 22.6002C437.883 22.5163 437.812 22.4487 437.73 22.4022C437.649 22.3558 437.559 22.3318 437.469 22.3319H435.836C435.73 22.3332 435.626 22.3013 435.534 22.2393C435.441 22.1773 435.364 22.0874 435.311 21.9787C435.257 21.8701 435.228 21.7464 435.227 21.6203C435.226 21.4941 435.253 21.3699 435.305 21.2601L437.618 16.2118C437.67 16.0985 437.747 16.0039 437.84 15.9379C437.933 15.872 438.04 15.837 438.148 15.8367H442.314C444.141 15.8367 445.158 16.2172 445.49 17.4016C445.52 17.5175 445.574 17.6227 445.647 17.7073C445.72 17.792 445.81 17.8534 445.908 17.8859C446.006 17.9185 446.11 17.9211 446.209 17.8936C446.308 17.8661 446.4 17.8093 446.476 17.7285C447.819 16.253 449.57 15.4159 451.397 15.3758C454.317 15.3758 455.932 16.5709 456.643 18.6663C456.681 18.7788 456.743 18.8779 456.822 18.954C456.902 19.0301 456.996 19.0807 457.097 19.1011C457.197 19.1215 457.301 19.111 457.397 19.0705C457.493 19.0301 457.579 18.961 457.646 18.8699C458.431 17.7477 459.417 16.8499 460.532 16.2432C461.647 15.6365 462.863 15.3364 464.088 15.3651C469.424 15.3651 471.088 19.154 469.671 27.1122L468.695 32.6053C468.677 32.7098 468.679 32.8178 468.7 32.9215C468.721 33.0252 468.762 33.1219 468.818 33.2049C468.874 33.2879 468.945 33.355 469.026 33.4014C469.107 33.4479 469.195 33.4724 469.284 33.4735H472.658C472.762 33.4737 472.865 33.506 472.955 33.5671C473.045 33.6283 473.121 33.7163 473.174 33.8226C473.228 33.9288 473.257 34.0497 473.26 34.1735C473.263 34.2974 473.238 34.4199 473.189 34.5292V34.5292Z" fill="#353535"/>
<path d="M493.812 18.9022C495.755 21.1745 496.7 24.4757 495.935 28.838C494.585 37.091 489.29 40.5047 483.878 40.5047C478.03 40.5047 473.311 36.1263 474.831 27.0266C475.012 26.1036 475.273 25.2055 475.61 24.347C475.658 24.2235 475.735 24.119 475.831 24.0458C475.928 23.9727 476.04 23.934 476.154 23.9344H481.773C481.88 23.9325 481.985 23.9644 482.077 24.0266C482.17 24.0889 482.248 24.1794 482.302 24.2889C482.356 24.3984 482.384 24.5229 482.385 24.6499C482.385 24.7768 482.357 24.9016 482.304 25.0116C481.849 26.0162 481.535 27.1022 481.373 28.227C480.923 31.5979 482.151 33.7469 484.522 33.7469C487.136 33.7469 488.8 31.6408 489.295 27.9751C489.542 26.1638 489.362 24.4381 488.517 23.4735C487.806 22.5678 486.533 22.332 484.553 22.332H475.349C475.242 22.335 475.137 22.3041 475.044 22.2425C474.951 22.1809 474.873 22.0909 474.819 21.9817C474.765 21.8724 474.737 21.748 474.736 21.6212C474.736 21.4943 474.764 21.3697 474.818 21.2602L477.099 16.2119C477.15 16.0972 477.227 16.0013 477.32 15.9342C477.414 15.8672 477.521 15.8317 477.63 15.8315H485.278C489.322 15.869 491.976 16.839 493.812 18.9022Z" fill="#353535"/>
<path d="M498.234 33.8432C498.287 33.7309 498.364 33.6374 498.457 33.5724C498.551 33.5074 498.657 33.4732 498.765 33.4735H506.255C513.048 33.4735 514.047 27.0426 508.437 23.2912C508.299 23.2008 508.137 23.1776 507.986 23.2266C507.834 23.2756 507.704 23.3929 507.623 23.5538L505.792 27.2462C505.738 27.3522 505.662 27.4399 505.571 27.5009C505.481 27.5619 505.379 27.5941 505.275 27.5945H499.674C499.568 27.5946 499.465 27.5616 499.374 27.4989C499.283 27.4361 499.207 27.3458 499.154 27.2371C499.102 27.1283 499.074 27.005 499.075 26.8796C499.075 26.7542 499.103 26.6311 499.156 26.5227L505.832 13.0232C505.887 12.9185 505.963 12.8323 506.054 12.7731C506.144 12.714 506.246 12.6838 506.35 12.6856H512.14C512.244 12.688 512.346 12.7226 512.436 12.7862C512.526 12.8497 512.6 12.9399 512.652 13.0479C512.703 13.156 512.731 13.2782 512.731 13.4025C512.731 13.5269 512.704 13.6492 512.653 13.7574L511.546 15.8689C511.504 15.9507 511.477 16.0416 511.465 16.1361C511.453 16.2307 511.457 16.3271 511.477 16.4198C511.497 16.5125 511.532 16.5996 511.58 16.6761C511.628 16.7527 511.688 16.8171 511.757 16.8656C518.222 21.3619 520.228 28.1733 517.363 32.3373C517.291 32.4443 517.247 32.5732 517.234 32.7091C517.222 32.845 517.242 32.9823 517.292 33.1051C517.343 33.2279 517.421 33.3312 517.519 33.4031C517.617 33.4749 517.729 33.5123 517.844 33.511H520.242C520.347 33.5113 520.451 33.5442 520.542 33.6066C520.634 33.669 520.71 33.7587 520.764 33.8668C520.817 33.9749 520.846 34.0978 520.848 34.2233C520.849 34.3489 520.824 34.4728 520.773 34.5828L518.465 39.5882C518.414 39.7015 518.338 39.7962 518.245 39.8622C518.153 39.9282 518.047 39.9632 517.939 39.9633H496.452C496.347 39.9637 496.243 39.931 496.152 39.8686C496.06 39.8063 495.984 39.7163 495.93 39.6078C495.877 39.4993 495.849 39.376 495.848 39.2503C495.847 39.1246 495.874 39.0009 495.926 38.8915L498.234 33.8432Z" fill="#353535"/>
<path d="M521.416 36.0833C521.839 33.4735 523.715 32.3748 525.695 32.3748C527.849 32.3748 529.442 33.7682 528.983 36.63C528.556 39.2398 526.648 40.3331 524.705 40.3331C522.514 40.3331 520.993 38.9451 521.416 36.0833ZM526.513 9.47009H533.14C533.234 9.47026 533.327 9.49666 533.411 9.54719C533.495 9.59772 533.568 9.67098 533.624 9.76109C533.68 9.8512 533.717 9.95566 533.733 10.0661C533.749 10.1766 533.743 10.29 533.716 10.3972L528.862 29.3416C528.828 29.4937 528.754 29.6285 528.65 29.7253C528.546 29.8221 528.418 29.8756 528.286 29.8775H524.687C524.602 29.8775 524.517 29.8559 524.44 29.8143C524.362 29.7726 524.292 29.7118 524.236 29.6358C524.179 29.5598 524.137 29.4705 524.112 29.3736C524.086 29.2767 524.078 29.1744 524.088 29.0736L525.928 10.1346C525.94 9.95724 526.005 9.79108 526.114 9.66831C526.222 9.54554 526.364 9.47491 526.513 9.47009V9.47009Z" fill="#353535"/>
<defs>
<filter id="filter0_di" x="63.0627" y="81.51" width="746.614" height="503.44" filterUnits="userSpaceOnUse" color-interpolation-filters="sRGB">
<feFlood flood-opacity="0" result="BackgroundImageFix"/>
<feColorMatrix in="SourceAlpha" type="matrix" values="0 0 0 0 0 0 0 0 0 0 0 0 0 0 0 0 0 0 127 0"/>
<feOffset dy="2"/>
<feGaussianBlur stdDeviation="2.5"/>
<feColorMatrix type="matrix" values="0 0 0 0 0 0 0 0 0 0 0 0 0 0 0 0 0 0 0.25 0"/>
<feBlend mode="normal" in2="BackgroundImageFix" result="effect1_dropShadow"/>
<feBlend mode="normal" in="SourceGraphic" in2="effect1_dropShadow" result="shape"/>
<feColorMatrix in="SourceAlpha" type="matrix" values="0 0 0 0 0 0 0 0 0 0 0 0 0 0 0 0 0 0 127 0" result="hardAlpha"/>
<feOffset dy="2"/>
<feGaussianBlur stdDeviation="2"/>
<feComposite in2="hardAlpha" operator="arithmetic" k2="-1" k3="1"/>
<feColorMatrix type="matrix" values="0 0 0 0 0.325 0 0 0 0 0.325 0 0 0 0 0.325 0 0 0 0.25 0"/>
<feBlend mode="normal" in2="shape" result="effect2_innerShadow"/>
</filter>
<linearGradient id="paint0_linear" x1="435.211" y1="50.0696" x2="435.211" y2="580.629" gradientUnits="userSpaceOnUse">
<stop offset="0.0713706" stop-color="#E72E3E"/>
<stop offset="0.30604" stop-color="#FE7350"/>
<stop offset="0.395913" stop-color="#2994C5"/>
<stop offset="0.635575" stop-color="#168BC7"/>
<stop offset="0.725448" stop-color="#F68038"/>
<stop offset="1" stop-color="#FDAE51"/>
</linearGradient>
<linearGradient id="paint1_linear" x1="428" y1="25.8494" x2="428" y2="610.849" gradientUnits="userSpaceOnUse">
<stop offset="0.0917717" stop-color="#E72E3E"/>
<stop offset="0.327605" stop-color="#FE7350"/>
<stop offset="0.446712" stop-color="#2994C5"/>
<stop offset="0.59917" stop-color="#168BC7"/>
<stop offset="0.675399" stop-color="#F68038"/>
<stop offset="1" stop-color="#FDAE51"/>
</linearGradient>
<linearGradient id="paint2_linear" x1="347.96" y1="0.849274" x2="347.96" y2="28.5232" gradientUnits="userSpaceOnUse">
<stop stop-color="#D80032"/>
<stop offset="1" stop-color="#FF7751"/>
</linearGradient>
<linearGradient id="paint3_linear" x1="372.164" y1="4.56097" x2="351.385" y2="46.3166" gradientUnits="userSpaceOnUse">
<stop stop-color="#3A829C"/>
<stop offset="1" stop-color="#0E80BD"/>
</linearGradient>
<linearGradient id="paint4_linear" x1="333.732" y1="13.1861" x2="347.287" y2="47.5026" gradientUnits="userSpaceOnUse">
<stop stop-color="#4192B0"/>
<stop offset="1" stop-color="#0485CA"/>
</linearGradient>
<linearGradient id="paint5_linear" x1="329.05" y1="10.2872" x2="328.584" y2="28.5239" gradientUnits="userSpaceOnUse">
<stop stop-color="#439FC0"/>
<stop offset="1" stop-color="#0284CB"/>
</linearGradient>
<linearGradient id="paint6_linear" x1="350.205" y1="29.5028" x2="349.502" y2="47.5164" gradientUnits="userSpaceOnUse">
<stop stop-color="#439FC0"/>
<stop offset="1" stop-color="#0284CB"/>
</linearGradient>
</defs>
</svg>
