<svg width="747" height="504" viewBox="0 0 747 504" fill="none" xmlns="http://www.w3.org/2000/svg">
<g filter="url(#filter0_di)">
<path d="M141.612 108.07V9.16055H207.101V26.402H162.524V49.9702H202.754V67.2117H162.524V108.07H141.612ZM220.78 108.07V33.8878H241.354V108.07H220.78ZM231.164 24.3253C228.105 24.3253 225.481 23.3111 223.292 21.2827C221.102 19.2221 220.008 16.759 220.008 13.8935C220.008 11.0602 221.102 8.6293 223.292 6.60089C225.481 4.54028 228.089 3.50998 231.116 3.50998C234.207 3.50998 236.831 4.54028 238.988 6.60089C241.177 8.6293 242.272 11.0602 242.272 13.8935C242.272 16.759 241.177 19.2221 238.988 21.2827C236.831 23.3111 234.223 24.3253 231.164 24.3253ZM276.477 86.723L276.525 62.0441H279.52L303.281 33.8878H326.898L294.974 71.1719H290.097L276.477 86.723ZM257.835 108.07V9.16055H278.409V108.07H257.835ZM304.199 108.07L282.369 75.76L296.085 61.223L328.298 108.07H304.199ZM336.991 108.07V33.8878H357.565V108.07H336.991ZM347.375 24.3253C344.316 24.3253 341.692 23.3111 339.503 21.2827C337.313 19.2221 336.219 16.759 336.219 13.8935C336.219 11.0602 337.313 8.6293 339.503 6.60089C341.692 4.54028 344.3 3.50998 347.327 3.50998C350.418 3.50998 353.042 4.54028 355.199 6.60089C357.388 8.6293 358.483 11.0602 358.483 13.8935C358.483 16.759 357.388 19.2221 355.199 21.2827C353.042 23.3111 350.434 24.3253 347.375 24.3253ZM374.046 108.07V33.8878H393.992V46.831H394.765C396.117 42.2268 398.387 38.7496 401.574 36.3992C404.762 34.0166 408.432 32.8253 412.586 32.8253C413.616 32.8253 414.727 32.8897 415.918 33.0185C417.11 33.1473 418.156 33.3244 419.057 33.5498V51.8054C418.092 51.5157 416.755 51.2581 415.049 51.0327C413.342 50.8073 411.781 50.6946 410.364 50.6946C407.338 50.6946 404.633 51.3547 402.251 52.6748C399.9 53.9626 398.033 55.7657 396.648 58.0838C395.296 60.402 394.62 63.0744 394.62 66.1009V108.07H374.046ZM530.33 33.8878L504.396 108.07H481.214L455.279 33.8878H477.012L492.418 86.9645H493.191L508.549 33.8878H530.33ZM572.142 109.519C564.511 109.519 557.943 107.973 552.437 104.882C546.964 101.759 542.746 97.348 539.784 91.6492C536.822 85.9181 535.341 79.1407 535.341 71.3168C535.341 63.6861 536.822 56.9891 539.784 51.2259C542.746 45.4626 546.916 40.9712 552.292 37.7515C557.702 34.5318 564.044 32.9219 571.321 32.9219C576.215 32.9219 580.771 33.7107 584.989 35.2884C589.239 36.8338 592.941 39.1681 596.096 42.2912C599.284 45.4143 601.763 49.3424 603.534 54.0753C605.305 58.7761 606.19 64.2818 606.19 70.5924V76.2429H543.551V63.4929H586.824C586.824 60.5308 586.18 57.9068 584.892 55.6208C583.604 53.3348 581.817 51.5479 579.531 50.26C577.277 48.9399 574.653 48.2799 571.659 48.2799C568.536 48.2799 565.767 49.0043 563.352 50.4532C560.97 51.8698 559.102 53.7855 557.75 56.2003C556.398 58.5829 555.705 61.2391 555.673 64.1691V76.2912C555.673 79.9617 556.349 83.1331 557.702 85.8054C559.086 88.4778 561.034 90.5384 563.545 91.9873C566.057 93.4361 569.035 94.1605 572.48 94.1605C574.766 94.1605 576.859 93.8386 578.758 93.1946C580.658 92.5507 582.284 91.5848 583.636 90.2969C584.989 89.009 586.019 87.4314 586.727 85.564L605.756 86.8196C604.79 91.3916 602.81 95.384 599.815 98.7969C596.853 102.178 593.022 104.818 588.321 106.717C583.652 108.585 578.259 109.519 572.142 109.519ZM5.06276 189.161H28.4861L51.04 231.757H52.0059L74.5599 189.161H97.9832L61.9065 253.104V288.07H41.1395V253.104L5.06276 189.161ZM115.828 289.47C111.095 289.47 106.878 288.649 103.175 287.007C99.4723 285.333 96.5424 282.87 94.3852 279.618C92.2602 276.334 91.1977 272.245 91.1977 267.351C91.1977 263.23 91.9543 259.769 93.4676 256.967C94.9809 254.166 97.0415 251.912 99.6494 250.206C102.257 248.5 105.219 247.212 108.536 246.342C111.884 245.473 115.394 244.861 119.064 244.507C123.379 244.056 126.856 243.638 129.496 243.251C132.136 242.833 134.052 242.221 135.243 241.416C136.434 240.611 137.03 239.42 137.03 237.842V237.553C137.03 234.494 136.064 232.127 134.132 230.453C132.233 228.779 129.528 227.942 126.019 227.942C122.316 227.942 119.37 228.763 117.181 230.405C114.991 232.015 113.542 234.043 112.834 236.49L93.8057 234.945C94.7716 230.437 96.6712 226.541 99.5045 223.257C102.338 219.941 105.992 217.397 110.468 215.626C114.975 213.823 120.191 212.922 126.115 212.922C130.237 212.922 134.181 213.405 137.948 214.371C141.747 215.337 145.112 216.834 148.041 218.862C151.004 220.891 153.338 223.499 155.044 226.686C156.751 229.841 157.604 233.625 157.604 238.036V288.07H138.093V277.783H137.513C136.322 280.101 134.728 282.145 132.732 283.916C130.736 285.655 128.337 287.023 125.536 288.021C122.735 288.987 119.499 289.47 115.828 289.47ZM121.72 275.271C124.747 275.271 127.419 274.676 129.737 273.484C132.056 272.261 133.875 270.619 135.195 268.558C136.515 266.498 137.175 264.163 137.175 261.555V253.683C136.531 254.102 135.646 254.488 134.519 254.842C133.424 255.164 132.184 255.47 130.8 255.76C129.416 256.018 128.031 256.259 126.647 256.484C125.262 256.678 124.006 256.855 122.88 257.016C120.465 257.37 118.356 257.933 116.553 258.706C114.75 259.479 113.349 260.525 112.351 261.845C111.353 263.133 110.854 264.743 110.854 266.675C110.854 269.476 111.868 271.617 113.897 273.098C115.957 274.547 118.565 275.271 121.72 275.271ZM213.023 213.888V229.342H168.35V213.888H213.023ZM178.492 196.115H199.066V265.274C199.066 267.174 199.355 268.655 199.935 269.717C200.514 270.748 201.319 271.472 202.35 271.891C203.412 272.309 204.636 272.519 206.02 272.519C206.986 272.519 207.952 272.438 208.918 272.277C209.884 272.084 210.624 271.939 211.139 271.842L214.375 287.152C213.345 287.474 211.896 287.844 210.029 288.263C208.161 288.714 205.891 288.987 203.219 289.084C198.261 289.277 193.914 288.617 190.179 287.104C186.477 285.59 183.595 283.24 181.534 280.053C179.474 276.865 178.46 272.84 178.492 267.979V196.115ZM226.425 288.07V213.888H246.999V288.07H226.425ZM263.48 288.07V213.888H283.426V226.831H284.198C285.551 222.227 287.821 218.75 291.008 216.399C294.196 214.017 297.866 212.825 302.019 212.825C303.05 212.825 304.161 212.89 305.352 213.019C306.543 213.147 307.59 213.324 308.491 213.55V231.805C307.525 231.516 306.189 231.258 304.483 231.033C302.776 230.807 301.215 230.695 299.798 230.695C296.771 230.695 294.067 231.355 291.684 232.675C289.334 233.963 287.466 235.766 286.082 238.084C284.73 240.402 284.054 243.074 284.054 246.101V288.07H263.48ZM319.128 288.07V213.888H339.702V288.07H319.128ZM356.183 288.07V213.888H375.791V226.976H376.66C378.206 222.629 380.781 219.2 384.387 216.689C387.993 214.178 392.308 212.922 397.331 212.922C402.418 212.922 406.748 214.194 410.322 216.737C413.896 219.249 416.278 222.661 417.47 226.976H418.242C419.756 222.726 422.492 219.329 426.453 216.786C430.445 214.21 435.162 212.922 440.603 212.922C447.526 212.922 453.144 215.127 457.458 219.538C461.805 223.917 463.978 230.131 463.978 238.18V288.07H443.453V242.237C443.453 238.116 442.358 235.025 440.169 232.965C437.979 230.904 435.242 229.874 431.958 229.874C428.224 229.874 425.31 231.065 423.217 233.447C421.124 235.798 420.078 238.905 420.078 242.769V288.07H400.132V241.803C400.132 238.164 399.085 235.267 396.992 233.109C394.932 230.952 392.211 229.874 388.831 229.874C386.545 229.874 384.484 230.453 382.649 231.612C380.846 232.739 379.413 234.333 378.35 236.394C377.288 238.422 376.757 240.804 376.757 243.541V288.07H356.183ZM513.747 289.519C506.148 289.519 499.612 287.909 494.139 284.689C488.697 281.437 484.512 276.929 481.582 271.166C478.684 265.403 477.235 258.77 477.235 251.269C477.235 243.67 478.7 237.005 481.63 231.274C484.592 225.511 488.794 221.019 494.235 217.8C499.677 214.548 506.148 212.922 513.65 212.922C520.122 212.922 525.788 214.097 530.65 216.447C535.512 218.798 539.359 222.098 542.193 226.348C545.026 230.598 546.588 235.589 546.877 241.32H527.463C526.915 237.617 525.466 234.639 523.116 232.385C520.798 230.099 517.755 228.956 513.988 228.956C510.801 228.956 508.016 229.825 505.633 231.564C503.283 233.27 501.447 235.766 500.127 239.05C498.807 242.334 498.147 246.31 498.147 250.979C498.147 255.712 498.791 259.736 500.079 263.053C501.399 266.369 503.251 268.896 505.633 270.635C508.016 272.374 510.801 273.243 513.988 273.243C516.339 273.243 518.447 272.76 520.315 271.794C522.215 270.828 523.776 269.428 525 267.592C526.255 265.725 527.076 263.487 527.463 260.879H546.877C546.555 266.546 545.01 271.536 542.241 275.851C539.504 280.133 535.721 283.482 530.892 285.896C526.062 288.311 520.347 289.519 513.747 289.519ZM560.05 288.07V213.888H580.624V288.07H560.05ZM617.679 189.161V288.07H597.105V189.161H617.679ZM634.159 288.07V213.888H654.733V288.07H634.159ZM689.856 266.723L689.904 242.044H692.899L716.66 213.888H740.277L708.353 251.172H703.475L689.856 266.723ZM671.214 288.07V189.161H691.788V288.07H671.214ZM717.578 288.07L695.748 255.76L709.464 241.223L741.677 288.07H717.578ZM262.139 468.07V369.161H283.051V450.828H325.455V468.07H262.139ZM338.917 468.07V393.888H359.491V468.07H338.917ZM349.301 384.325C346.242 384.325 343.618 383.311 341.429 381.283C339.239 379.222 338.144 376.759 338.144 373.894C338.144 371.06 339.239 368.629 341.429 366.601C343.618 364.54 346.226 363.51 349.252 363.51C352.343 363.51 354.967 364.54 357.125 366.601C359.314 368.629 360.409 371.06 360.409 373.894C360.409 376.759 359.314 379.222 357.125 381.283C354.967 383.311 352.359 384.325 349.301 384.325ZM409.392 496.95C402.728 496.95 397.013 496.049 392.247 494.246C387.514 492.443 383.747 490.012 380.946 486.953C378.145 483.894 376.326 480.498 375.489 476.763L394.517 474.203C395.097 475.555 396.014 476.827 397.27 478.019C398.526 479.242 400.184 480.24 402.245 481.013C404.337 481.786 406.881 482.172 409.875 482.172C414.351 482.172 418.037 481.109 420.935 478.984C423.865 476.859 425.33 473.366 425.33 468.504V454.933H424.46C423.559 456.994 422.207 458.942 420.404 460.777C418.601 462.612 416.282 464.109 413.449 465.269C410.616 466.428 407.235 467.007 403.307 467.007C397.737 467.007 392.666 465.719 388.094 463.144C383.554 460.536 379.932 456.559 377.228 451.215C374.555 445.838 373.219 439.044 373.219 430.834C373.219 422.43 374.587 415.411 377.324 409.777C380.061 404.143 383.699 399.925 388.239 397.124C392.811 394.322 397.817 392.922 403.259 392.922C407.412 392.922 410.889 393.63 413.691 395.047C416.492 396.431 418.746 398.17 420.452 400.263C422.191 402.323 423.527 404.352 424.46 406.348H425.233V393.888H445.662V468.794C445.662 474.976 444.117 480.144 441.026 484.297C437.935 488.483 433.653 491.638 428.179 493.763C422.738 495.888 416.476 496.95 409.392 496.95ZM409.827 451.553C413.143 451.553 415.944 450.732 418.23 449.09C420.549 447.415 422.319 445.033 423.543 441.942C424.799 438.819 425.426 435.084 425.426 430.737C425.426 426.391 424.815 422.624 423.591 419.436C422.368 416.216 420.597 413.721 418.279 411.95C415.96 410.179 413.143 409.294 409.827 409.294C406.446 409.294 403.597 410.212 401.279 412.047C398.96 413.85 397.206 416.361 396.014 419.581C394.823 422.801 394.228 426.519 394.228 430.737C394.228 435.019 394.823 438.722 396.014 441.845C397.238 444.936 398.993 447.335 401.279 449.041C403.597 450.715 406.446 451.553 409.827 451.553ZM462.034 468.07V393.888H482.608V468.07H462.034ZM472.418 384.325C469.359 384.325 466.735 383.311 464.546 381.283C462.356 379.222 461.262 376.759 461.262 373.894C461.262 371.06 462.356 368.629 464.546 366.601C466.735 364.54 469.343 363.51 472.37 363.51C475.46 363.51 478.085 364.54 480.242 366.601C482.431 368.629 483.526 371.06 483.526 373.894C483.526 376.759 482.431 379.222 480.242 381.283C478.085 383.311 475.477 384.325 472.418 384.325Z" fill="url(#paint0_linear)"/>
</g>
<defs>
<filter id="filter0_di" x="0.0627441" y="0.509979" width="746.614" height="503.44" filterUnits="userSpaceOnUse" color-interpolation-filters="sRGB">
<feFlood flood-opacity="0" result="BackgroundImageFix"/>
<feColorMatrix in="SourceAlpha" type="matrix" values="0 0 0 0 0 0 0 0 0 0 0 0 0 0 0 0 0 0 127 0"/>
<feOffset dy="2"/>
<feGaussianBlur stdDeviation="2.5"/>
<feColorMatrix type="matrix" values="0 0 0 0 0 0 0 0 0 0 0 0 0 0 0 0 0 0 0.25 0"/>
<feBlend mode="normal" in2="BackgroundImageFix" result="effect1_dropShadow"/>
<feBlend mode="normal" in="SourceGraphic" in2="effect1_dropShadow" result="shape"/>
<feColorMatrix in="SourceAlpha" type="matrix" values="0 0 0 0 0 0 0 0 0 0 0 0 0 0 0 0 0 0 127 0" result="hardAlpha"/>
<feOffset dy="2"/>
<feGaussianBlur stdDeviation="2"/>
<feComposite in2="hardAlpha" operator="arithmetic" k2="-1" k3="1"/>
<feColorMatrix type="matrix" values="0 0 0 0 0.325 0 0 0 0 0.325 0 0 0 0 0.325 0 0 0 0.25 0"/>
<feBlend mode="normal" in2="shape" result="effect2_innerShadow"/>
</filter>
<linearGradient id="paint0_linear" x1="372.211" y1="-30.9304" x2="372.211" y2="499.629" gradientUnits="userSpaceOnUse">
<stop offset="0.0713706" stop-color="#E72E3E"/>
<stop offset="0.30604" stop-color="#FE7350"/>
<stop offset="0.395913" stop-color="#2994C5"/>
<stop offset="0.635575" stop-color="#168BC7"/>
<stop offset="0.725448" stop-color="#F68038"/>
<stop offset="1" stop-color="#FDAE51"/>
</linearGradient>
</defs>
</svg>
