<svg width="434" height="433" viewBox="0 0 434 433" fill="none" xmlns="http://www.w3.org/2000/svg">
<path d="M389.923 193.387C385.074 220.99 366.704 246.546 340.828 257.249C318.994 266.28 293.625 263.091 273.937 250.346C262.433 242.899 252.566 235.08 241.286 229.002C234.76 225.487 227.76 222.553 219.698 220.613C215.852 219.688 211.973 218.966 208.069 218.384C194.853 216.41 181.371 216.021 168.048 214.643C150.79 212.858 133.114 209.142 119.034 198.994C105.38 189.153 95.8998 172.015 98.9213 155.559C99.0157 155.046 99.1211 154.534 99.2401 154.023C102.607 139.515 115.024 128.617 128.546 122.403C134.215 119.798 140.12 117.853 146.125 116.178C154.446 113.857 162.956 112.056 171.285 109.746C191.638 104.099 210.977 95.3764 230.7 87.7927C238.664 84.7287 246.691 81.8526 254.871 79.4393C283.31 71.0503 315.598 68.8505 341.243 83.7442C353.557 90.8946 363.555 101.58 371.449 113.44C376.409 120.892 380.581 128.925 383.801 137.308C390.667 155.162 393.223 174.603 389.923 193.387Z" fill="#FFAF51"/>
<path d="M182.883 90.3583C172.386 97.7935 161.005 103.243 149.251 106.513C147.352 107.041 145.31 107.616 143.173 108.196C133.967 110.697 123.046 113.274 114.691 112.42C110.369 111.978 105.928 109.143 104.204 104.128C102.523 99.2396 103.808 93.3498 106.433 89.1762C109.058 85.0026 112.821 82.2382 116.588 79.8273C129.372 71.6445 143.339 66.4361 157.587 64.4364C164.599 63.4507 171.681 63.2433 178.723 63.8411C184.143 64.3002 190.646 66.3403 192.186 72.9089C193.895 80.1943 188.136 86.6389 182.883 90.3583Z" fill="#FFAF51"/>
<path d="M342.45 260.906C342.45 260.906 334.693 263.411 334.528 263.544C334.453 263.604 333.988 264.629 333.499 265.74C294.761 252.415 257.472 241.259 226.18 236.593C224.063 236.279 221.916 236.859 220.217 238.161C207.76 247.698 189.908 257.095 169.384 266.193L163.933 262.287C163.933 262.287 163.353 266.312 163.6 270.074C163.771 272.683 164.342 275.165 165.781 276.093C166.092 276.296 166.44 276.424 166.834 276.466C205.165 285.381 242.721 299.243 276.388 313.948C280.675 315.822 285.642 315.185 289.326 312.3L340.914 271.907C341.358 271.558 341.618 271.095 341.715 270.609C342.724 267.758 342.346 261.88 342.45 260.906Z" fill="#00AEE0"/>
<path d="M340.975 258.787C299.817 244.434 259.988 232.229 226.873 227.292C224.756 226.977 222.61 227.556 220.91 228.858C207.775 238.912 188.649 248.81 166.716 258.368C162.607 260.158 163.162 266.15 167.527 267.165C205.858 276.08 243.413 289.942 277.081 304.647C281.369 306.52 286.334 305.884 290.019 302.999L341.608 262.604C342.981 261.53 342.62 259.361 340.975 258.787Z" fill="#10294C"/>
<path d="M231.252 140.378C231.87 139.113 233.242 138.414 234.638 138.624C247.868 140.737 295.573 149.175 349.718 169.069C351.025 169.541 351.855 170.809 351.831 172.167C351.566 181.997 350.034 221.504 342.83 257.894C342.554 259.346 341.293 260.421 339.809 260.473C339.54 260.445 339.299 260.449 339.03 260.42C338.881 260.404 338.735 260.358 338.589 260.313C290.757 243.455 237.732 231.725 224.518 228.888C222.807 228.523 221.691 226.831 222.055 225.116C229.01 190.211 230.605 153.22 230.959 141.707C230.948 141.252 231.055 140.81 231.252 140.378ZM338.239 249.178C343.339 220.061 345.014 190.517 345.542 176.815C345.595 175.188 344.605 173.721 343.095 173.166C298.866 157.33 259.544 149.215 241.101 145.908C239.088 145.541 237.163 146.907 236.796 148.924C236.78 149.074 236.761 149.253 236.745 149.403C236.076 164.147 234.222 192.251 229.213 219.956C228.853 221.914 230.127 223.834 232.073 224.254C251.084 228.469 293.109 238.385 333.41 252.017C335.361 252.679 337.464 251.635 338.125 249.68C338.171 249.533 338.22 249.357 338.239 249.178Z" fill="#00AEE0"/>
<path d="M276.541 237.801C277.296 237.791 278.071 237.874 278.811 238.013C279.55 238.153 280.289 238.293 281.022 238.492C281.755 238.692 282.455 238.918 283.181 239.177C283.908 239.436 284.598 239.752 285.252 240.124C285.621 240.345 285.725 240.779 285.535 241.152C285.39 241.378 285.162 241.535 284.89 241.536C284.138 241.516 283.359 241.463 282.62 241.323C281.881 241.184 281.145 241.014 280.409 240.844C279.673 240.675 278.976 240.419 278.249 240.16C277.523 239.901 276.833 239.585 276.182 239.183C275.84 238.995 275.735 238.56 275.926 238.188C276.074 237.932 276.299 237.805 276.541 237.801Z" fill="white"/>
<path d="M362.504 167.716C362.21 177.542 360.573 217.461 353.399 253.854C352.477 258.533 346.463 260.882 339.806 260.501C341.29 260.449 342.521 259.371 342.827 257.922C350.001 221.529 351.534 182.022 351.828 172.196C351.856 170.808 351.023 169.57 349.715 169.097C295.57 149.204 247.866 140.766 234.635 138.652C233.24 138.443 231.898 139.145 231.253 140.376C233.727 134.443 240.657 133.401 245.341 134.176C258.572 136.289 306.276 144.727 360.391 164.617C361.699 165.09 362.562 166.331 362.504 167.716Z" fill="#10294C"/>
<path d="M345.542 176.815C345.018 190.487 343.342 220.031 338.239 249.177C337.873 251.194 335.947 252.56 333.935 252.193C333.756 252.174 333.58 252.125 333.407 252.046C293.106 238.414 251.111 228.501 232.071 224.284C230.124 223.863 228.848 221.973 229.211 219.986C234.22 192.281 236.074 164.177 236.743 149.433C236.84 147.387 238.58 145.789 240.621 145.887C240.77 145.903 240.949 145.922 241.098 145.938C259.512 149.242 298.833 157.356 343.092 173.196C344.602 173.751 345.592 175.218 345.542 176.815Z" fill="#10294C"/>
<path d="M353.897 168.585C354.243 168.169 354.642 167.819 355.092 167.564C355.541 167.31 355.987 167.086 356.487 166.928C356.987 166.77 357.48 166.671 357.996 166.636C358.513 166.601 359.05 166.658 359.547 166.802C359.955 166.937 360.182 167.354 360.078 167.766C360.029 167.942 359.891 168.109 359.729 168.212L359.666 168.236C359.279 168.467 358.869 168.634 358.429 168.799C358.019 168.967 357.612 169.104 357.208 169.212C356.805 169.32 356.368 169.455 355.934 169.559C355.501 169.664 355.041 169.736 354.584 169.777L354.491 169.798C354.097 169.816 353.738 169.505 353.72 169.11C353.742 168.901 353.791 168.725 353.897 168.585Z" fill="#00AEE0"/>
<path d="M227.115 235.186C226.495 235.006 225.842 234.865 225.298 234.905C224.491 234.964 224.067 235.409 223.682 235.654C222.91 236.147 222.112 236.635 221.326 237.125C220.863 237.415 220.383 237.74 220.544 238.1C220.718 238.493 221.59 238.783 222.429 239.026C222.478 239.04 222.528 239.055 222.577 239.069C224.047 239.488 225.52 239.907 226.994 240.326C227.602 240.499 228.273 240.681 228.979 240.669C229.957 240.651 230.553 240.279 231.004 239.943C231.873 239.302 232.739 238.66 233.606 238.018C233.857 237.832 234.116 237.623 233.984 237.404C233.847 237.178 233.339 237.014 232.855 236.874C232.833 236.867 232.812 236.861 232.791 236.855C231.422 236.464 230.054 236.074 228.69 235.683C228.678 235.679 228.666 235.676 228.653 235.672C228.451 235.614 228.212 235.535 227.957 235.45C227.693 235.363 227.408 235.27 227.115 235.186Z" fill="#00AEE0"/>
<path d="M241.6 239.375C240.98 239.196 240.327 239.055 239.784 239.095C238.976 239.154 238.55 239.598 238.167 239.843C237.393 240.337 236.597 240.825 235.811 241.315C235.349 241.604 234.866 241.929 235.027 242.289C235.203 242.682 236.073 242.973 236.912 243.215C236.961 243.23 237.01 243.244 237.06 243.258C238.532 243.677 240.005 244.097 241.479 244.516C242.087 244.689 242.758 244.87 243.462 244.858C244.442 244.841 245.036 244.468 245.489 244.133C246.356 243.491 247.222 242.849 248.089 242.207C248.34 242.021 248.599 241.813 248.467 241.593C248.33 241.367 247.822 241.203 247.338 241.063C247.316 241.056 247.295 241.05 247.274 241.044C245.906 240.653 244.54 240.264 243.173 239.872C243.161 239.869 243.149 239.865 243.137 239.862C242.935 239.803 242.698 239.725 242.44 239.639C242.177 239.553 241.892 239.46 241.6 239.375Z" fill="#00AEE0"/>
<path d="M256.083 243.564C255.463 243.385 254.81 243.244 254.267 243.284C253.46 243.343 253.035 243.788 252.651 244.032C251.879 244.526 251.08 245.013 250.294 245.504C249.832 245.793 249.351 246.118 249.513 246.478C249.686 246.871 250.558 247.162 251.397 247.404C251.447 247.419 251.496 247.433 251.545 247.447C253.016 247.866 254.489 248.286 255.963 248.704C256.57 248.878 257.242 249.059 257.947 249.047C258.926 249.03 259.521 248.657 259.973 248.321C260.841 247.68 261.708 247.038 262.574 246.396C262.823 246.21 263.085 246.002 262.953 245.782C262.814 245.556 262.308 245.392 261.823 245.252C261.802 245.246 261.781 245.24 261.759 245.233C260.391 244.843 259.023 244.452 257.656 244.06C257.644 244.057 257.632 244.054 257.62 244.05C257.418 243.992 257.181 243.913 256.923 243.828C256.66 243.741 256.375 243.648 256.083 243.564Z" fill="#00AEE0"/>
<path d="M270.568 247.753C269.949 247.574 269.296 247.433 268.752 247.473C267.945 247.532 267.518 247.977 267.136 248.222C266.362 248.715 265.565 249.203 264.78 249.693C264.317 249.983 263.834 250.307 263.996 250.667C264.171 251.061 265.042 251.351 265.88 251.594C265.93 251.608 265.979 251.622 266.028 251.636C267.501 252.056 268.974 252.475 270.446 252.894C271.053 253.067 271.727 253.249 272.43 253.236C273.411 253.22 274.004 252.846 274.458 252.511C275.325 251.869 276.191 251.227 277.057 250.586C277.309 250.4 277.568 250.191 277.436 249.971C277.299 249.746 276.791 249.581 276.306 249.441C276.285 249.435 276.264 249.429 276.243 249.423C274.874 249.032 273.508 248.642 272.141 248.25C272.129 248.247 272.117 248.244 272.105 248.24C271.903 248.182 271.666 248.103 271.409 248.018C271.146 247.931 270.861 247.838 270.568 247.753Z" fill="#00AEE0"/>
<path d="M285.051 251.942C284.432 251.763 283.779 251.622 283.235 251.662C282.428 251.721 282.004 252.166 281.619 252.41C280.847 252.904 280.049 253.392 279.263 253.882C278.8 254.171 278.32 254.496 278.481 254.856C278.655 255.25 279.527 255.54 280.366 255.783C280.415 255.797 280.465 255.811 280.514 255.825C281.984 256.244 283.457 256.664 284.931 257.083C285.539 257.256 286.21 257.438 286.916 257.426C287.894 257.408 288.49 257.036 288.941 256.7C289.808 256.058 290.676 255.417 291.543 254.775C291.792 254.589 292.053 254.38 291.921 254.161C291.782 253.934 291.276 253.771 290.79 253.63C290.768 253.624 290.747 253.617 290.726 253.611C289.36 253.221 287.991 252.831 286.625 252.439C286.613 252.436 286.6 252.432 286.588 252.429C286.386 252.37 286.149 252.292 285.892 252.207C285.629 252.12 285.344 252.027 285.051 251.942Z" fill="#00AEE0"/>
<path d="M299.537 256.132C298.917 255.953 298.264 255.812 297.721 255.852C296.913 255.911 296.487 256.355 296.104 256.6C295.33 257.093 294.532 257.581 293.748 258.072C293.286 258.361 292.803 258.685 292.964 259.046C293.14 259.439 294.01 259.729 294.849 259.972C294.898 259.986 294.947 260.001 294.997 260.015C296.469 260.434 297.942 260.854 299.414 261.272C300.022 261.445 300.695 261.627 301.399 261.615C302.377 261.597 302.973 261.225 303.427 260.889C304.293 260.248 305.159 259.606 306.026 258.964C306.277 258.778 306.536 258.569 306.404 258.35C306.267 258.124 305.759 257.96 305.275 257.819C305.253 257.813 305.232 257.807 305.211 257.801C303.843 257.41 302.477 257.02 301.11 256.629C301.098 256.625 301.086 256.622 301.073 256.618C300.871 256.56 300.635 256.482 300.377 256.396C300.114 256.31 299.829 256.216 299.537 256.132Z" fill="#00AEE0"/>
<path d="M314.02 260.321C313.4 260.141 312.747 260 312.204 260.04C311.396 260.1 310.972 260.545 310.587 260.789C309.815 261.283 309.017 261.77 308.231 262.26C307.769 262.55 307.288 262.875 307.449 263.235C307.623 263.628 308.493 263.918 309.334 264.161C309.383 264.175 309.433 264.19 309.482 264.204C310.953 264.623 312.425 265.042 313.899 265.461C314.507 265.634 315.178 265.816 315.884 265.804C316.862 265.786 317.458 265.414 317.91 265.078C318.776 264.436 319.645 263.795 320.511 263.153C320.76 262.967 321.022 262.759 320.889 262.539C320.75 262.312 320.244 262.149 319.758 262.008C319.737 262.002 319.715 261.996 319.694 261.99C318.328 261.6 316.96 261.209 315.593 260.817C315.581 260.814 315.569 260.811 315.557 260.807C315.354 260.749 315.118 260.67 314.86 260.585C314.597 260.498 314.312 260.405 314.02 260.321Z" fill="#00AEE0"/>
<path d="M210.133 245.811C209.514 245.631 208.861 245.49 208.317 245.53C207.51 245.59 207.083 246.034 206.701 246.279C205.927 246.772 205.13 247.26 204.345 247.75C203.882 248.04 203.4 248.366 203.559 248.725C203.736 249.118 204.607 249.408 205.445 249.651C205.495 249.665 205.544 249.679 205.593 249.693C207.066 250.113 208.539 250.532 210.012 250.952C210.619 251.125 211.292 251.306 211.998 251.294C212.976 251.276 213.57 250.903 214.023 250.568C214.89 249.926 215.756 249.284 216.623 248.644C216.874 248.457 217.135 248.248 217.002 248.029C216.864 247.802 216.358 247.639 215.872 247.498C215.85 247.492 215.829 247.486 215.808 247.479C214.442 247.089 213.073 246.699 211.707 246.307C211.695 246.304 211.683 246.3 211.67 246.297C211.468 246.238 211.232 246.16 210.974 246.075C210.711 245.988 210.426 245.895 210.133 245.811Z" fill="#00AEE0"/>
<path d="M224.617 250C223.997 249.82 223.345 249.679 222.803 249.72C221.995 249.779 221.569 250.223 221.186 250.468C220.412 250.961 219.614 251.449 218.83 251.94C218.365 252.228 217.883 252.554 218.045 252.914C218.222 253.307 219.092 253.597 219.93 253.84C219.98 253.854 220.029 253.868 220.079 253.882C221.551 254.302 223.024 254.722 224.495 255.141C225.102 255.314 225.775 255.495 226.481 255.483C227.459 255.465 228.055 255.093 228.509 254.757C229.375 254.115 230.241 253.474 231.106 252.833C231.359 252.646 231.618 252.437 231.485 252.218C231.349 251.992 230.841 251.828 230.357 251.687C230.335 251.681 230.314 251.675 230.293 251.669C228.925 251.278 227.556 250.888 226.192 250.497C226.18 250.493 226.168 250.49 226.155 250.486C225.953 250.428 225.714 250.349 225.459 250.264C225.196 250.177 224.91 250.084 224.617 250Z" fill="#00AEE0"/>
<path d="M239.1 254.189C238.481 254.01 237.828 253.869 237.284 253.909C236.477 253.968 236.05 254.412 235.668 254.657C234.894 255.15 234.098 255.638 233.312 256.128C232.849 256.418 232.367 256.744 232.526 257.103C232.703 257.496 233.574 257.786 234.412 258.028C234.462 258.042 234.511 258.057 234.56 258.071C235.88 258.446 269.113 268.053 277.125 270.364C277.369 270.449 277.632 270.529 277.891 270.604C277.933 270.616 277.975 270.628 278.017 270.64C279.49 271.059 280.96 271.478 282.433 271.898C283.04 272.071 283.713 272.252 284.419 272.24C285.397 272.222 285.993 271.85 286.447 271.515C287.313 270.873 288.179 270.231 289.044 269.59C289.297 269.404 289.556 269.195 289.423 268.976C289.287 268.75 288.779 268.586 288.295 268.445C288.273 268.439 288.252 268.433 288.231 268.427C287.201 268.133 286.173 267.839 285.145 267.546C284.973 267.486 284.789 267.431 284.608 267.379C284.502 267.35 284.153 267.249 283.604 267.09C283.288 266.987 282.931 266.867 282.563 266.76C282.311 266.687 282.054 266.621 281.8 266.57C272.251 263.812 241.846 255.021 240.673 254.686C240.661 254.683 240.649 254.679 240.637 254.676C240.435 254.617 240.198 254.539 239.941 254.453C239.678 254.367 239.393 254.273 239.1 254.189Z" fill="#00AEE0"/>
<path d="M222.599 261.64C222.12 261.501 221.508 261.458 220.646 261.758C219.37 262.2 217.77 263.317 216.676 263.99C214.475 265.346 212.253 266.699 210.042 268.054C208.737 268.853 207.326 269.736 206.749 270.44C206.121 271.207 206.702 271.485 207.348 271.672C207.388 271.683 207.429 271.695 207.469 271.706C208.502 271.988 234.19 279.403 240.394 281.181C240.548 281.265 240.739 281.33 240.935 281.387C240.971 281.398 241.007 281.408 241.043 281.417C242.194 281.733 243.347 282.048 244.5 282.363C244.976 282.493 245.524 282.615 246.551 282.311C247.981 281.89 249.658 280.86 251.054 279.966C253.72 278.257 256.382 276.548 259.048 274.839C259.823 274.344 260.658 273.797 260.96 273.381C261.267 272.958 260.928 272.806 260.558 272.699C260.536 272.693 260.515 272.687 260.493 272.681C259.691 272.458 258.889 272.236 258.086 272.014C257.998 271.965 257.887 271.926 257.772 271.893C257.746 271.886 257.72 271.879 257.695 271.872C257.612 271.848 257.343 271.771 256.916 271.649C256.7 271.552 256.462 271.436 256.178 271.354C255.983 271.297 255.767 271.257 255.52 271.248C248.134 269.122 224.632 262.336 223.717 262.083C223.711 262.081 223.704 262.079 223.698 262.077C223.541 262.032 223.38 261.956 223.203 261.875C223.024 261.793 222.826 261.706 222.599 261.64Z" fill="white"/>
<path d="M297.039 270.946C296.419 270.767 295.766 270.626 295.223 270.666C294.415 270.725 293.989 271.169 293.606 271.414C292.832 271.907 292.036 272.395 291.25 272.886C290.788 273.175 290.305 273.501 290.465 273.86C290.642 274.253 291.512 274.543 292.35 274.786C292.4 274.8 292.449 274.814 292.499 274.828C293.971 275.248 295.444 275.668 296.917 276.087C297.524 276.26 298.197 276.441 298.901 276.428C299.881 276.412 300.475 276.038 300.928 275.703C301.795 275.061 302.661 274.419 303.526 273.778C303.779 273.592 304.038 273.383 303.904 273.164C303.769 272.937 303.261 272.773 302.776 272.633C302.755 272.627 302.734 272.621 302.713 272.615C301.344 272.224 299.978 271.834 298.612 271.442C298.6 271.439 298.588 271.436 298.575 271.432C298.373 271.374 298.137 271.296 297.879 271.21C297.616 271.124 297.331 271.031 297.039 270.946Z" fill="#00AEE0"/>
<path d="M226.721 242.61C226.101 242.431 225.45 242.291 224.908 242.331C224.104 242.391 223.677 242.835 223.295 243.08C222.519 243.574 221.722 244.061 220.938 244.552C220.473 244.84 219.991 245.166 220.154 245.525C220.33 245.919 221.2 246.209 222.039 246.452C222.088 246.466 222.138 246.481 222.187 246.495C223.659 246.914 225.13 247.333 226.603 247.753C227.21 247.926 227.883 248.107 228.589 248.095C229.567 248.077 230.163 247.705 230.616 247.369C231.483 246.727 232.349 246.086 233.216 245.444C233.467 245.258 233.726 245.049 233.593 244.83C233.457 244.604 232.949 244.44 232.465 244.3C232.443 244.293 232.422 244.287 232.401 244.281C231.033 243.89 229.664 243.5 228.298 243.11C228.288 243.107 228.277 243.103 228.266 243.1C228.063 243.042 227.828 242.963 227.57 242.878C227.305 242.79 227.016 242.696 226.721 242.61Z" fill="#00AEE0"/>
<path d="M241.204 246.799C240.586 246.621 239.935 246.481 239.394 246.52C238.587 246.58 238.16 247.024 237.778 247.269C237.002 247.763 236.207 248.25 235.421 248.74C234.959 249.03 234.477 249.356 234.637 249.714C234.813 250.108 235.683 250.398 236.522 250.641C236.571 250.655 236.621 250.669 236.67 250.683C238.143 251.103 239.616 251.523 241.088 251.942C241.696 252.115 242.369 252.296 243.074 252.284C244.053 252.267 244.646 251.894 245.1 251.558C245.966 250.916 246.832 250.274 247.699 249.633C247.95 249.447 248.209 249.238 248.078 249.02C247.94 248.793 247.434 248.629 246.948 248.488C246.927 248.482 246.905 248.476 246.884 248.47C245.518 248.08 244.15 247.689 242.782 247.298C242.771 247.295 242.76 247.292 242.749 247.289C242.546 247.231 242.312 247.152 242.053 247.067C241.788 246.979 241.5 246.885 241.204 246.799Z" fill="#00AEE0"/>
<path d="M255.689 250.989C255.07 250.81 254.418 250.67 253.877 250.71C253.072 250.77 252.646 251.214 252.261 251.458C251.488 251.953 250.69 252.44 249.907 252.93C249.442 253.219 248.96 253.545 249.123 253.904C249.299 254.298 250.169 254.588 251.007 254.831C251.057 254.845 251.106 254.859 251.156 254.873C252.628 255.293 254.099 255.712 255.571 256.132C256.179 256.305 256.852 256.485 257.558 256.473C258.536 256.456 259.132 256.084 259.585 255.748C260.452 255.106 261.318 254.464 262.185 253.823C262.436 253.637 262.695 253.428 262.562 253.209C262.426 252.983 261.918 252.818 261.434 252.678C261.412 252.672 261.391 252.666 261.37 252.66C260.001 252.269 258.633 251.879 257.267 251.488C257.256 251.485 257.246 251.482 257.234 251.479C257.032 251.42 256.797 251.342 256.539 251.257C256.273 251.169 255.985 251.075 255.689 250.989Z" fill="#00AEE0"/>
<path d="M270.173 255.178C269.554 254.999 268.903 254.86 268.362 254.899C267.555 254.959 267.128 255.403 266.746 255.648C265.97 256.142 265.175 256.629 264.39 257.119C263.927 257.409 263.445 257.735 263.606 258.093C263.781 258.487 264.652 258.777 265.49 259.02C265.54 259.034 265.589 259.048 265.638 259.062C267.111 259.482 268.584 259.902 270.057 260.321C270.664 260.494 271.337 260.675 272.04 260.662C273.021 260.646 273.614 260.272 274.068 259.937C274.934 259.295 275.801 258.653 276.667 258.012C276.918 257.826 277.178 257.617 277.044 257.398C276.909 257.171 276.403 257.008 275.916 256.867C275.895 256.861 275.874 256.855 275.852 256.849C274.484 256.458 273.118 256.068 271.75 255.677C271.739 255.674 271.728 255.671 271.717 255.668C271.515 255.609 271.28 255.531 271.022 255.446C270.756 255.358 270.468 255.264 270.173 255.178Z" fill="#00AEE0"/>
<path d="M284.658 259.368C284.038 259.188 283.387 259.048 282.845 259.088C282.041 259.148 281.614 259.592 281.229 259.837C280.456 260.331 279.659 260.818 278.875 261.309C278.41 261.598 277.928 261.923 278.091 262.283C278.265 262.676 279.137 262.967 279.976 263.209C280.025 263.224 280.075 263.238 280.124 263.252C281.597 263.671 283.067 264.09 284.54 264.51C285.147 264.683 285.82 264.864 286.526 264.852C287.504 264.834 288.1 264.462 288.553 264.127C289.42 263.485 290.286 262.843 291.153 262.201C291.404 262.015 291.663 261.807 291.53 261.588C291.394 261.361 290.886 261.197 290.402 261.057C290.38 261.051 290.359 261.044 290.338 261.038C288.97 260.648 287.601 260.257 286.235 259.867C286.225 259.864 286.214 259.861 286.203 259.858C286 259.799 285.766 259.72 285.507 259.636C285.242 259.548 284.954 259.453 284.658 259.368Z" fill="#00AEE0"/>
<path d="M299.141 263.556C298.523 263.377 297.872 263.238 297.331 263.277C296.524 263.337 296.097 263.781 295.715 264.026C294.939 264.52 294.144 265.007 293.358 265.497C292.896 265.787 292.411 266.112 292.574 266.471C292.75 266.865 293.62 267.155 294.459 267.398C294.508 267.412 294.558 267.426 294.607 267.44C296.08 267.86 297.552 268.28 299.025 268.699C299.633 268.872 300.305 269.053 301.009 269.04C301.99 269.024 302.583 268.65 303.037 268.315C303.903 267.673 304.769 267.031 305.636 266.39C305.887 266.204 306.146 265.995 306.013 265.776C305.877 265.55 305.369 265.385 304.885 265.245C304.864 265.239 304.842 265.233 304.821 265.227C303.453 264.836 302.087 264.446 300.719 264.055C300.708 264.052 300.697 264.049 300.686 264.046C300.483 263.987 300.249 263.909 299.99 263.824C299.725 263.736 299.437 263.642 299.141 263.556Z" fill="#00AEE0"/>
<path d="M313.626 267.746C313.007 267.567 312.355 267.427 311.814 267.467C311.009 267.527 310.582 267.971 310.198 268.215C309.424 268.71 308.627 269.197 307.841 269.687C307.379 269.976 306.897 270.302 307.06 270.661C307.233 271.054 308.105 271.345 308.944 271.588C308.994 271.602 309.043 271.616 309.092 271.63C310.563 272.049 312.036 272.469 313.508 272.888C314.116 273.062 314.788 273.242 315.494 273.23C316.473 273.213 317.068 272.84 317.52 272.504C318.388 271.863 319.255 271.221 320.121 270.579C320.373 270.394 320.632 270.185 320.498 269.966C320.363 269.739 319.855 269.575 319.37 269.435C319.349 269.429 319.328 269.423 319.307 269.417C317.938 269.026 316.57 268.635 315.204 268.245C315.193 268.242 315.182 268.239 315.171 268.236C314.969 268.177 314.734 268.099 314.476 268.014C314.21 267.926 313.922 267.832 313.626 267.746Z" fill="#00AEE0"/>
<path d="M157.008 311.434C156.745 308.882 156.761 305.714 158.866 304.472C160.656 303.415 162.854 304.456 164.656 305.489C171.963 309.679 179.271 313.869 186.578 318.06C188.266 319.027 189.979 320.015 191.345 321.448C192.711 322.88 193.709 324.846 193.6 326.887C193.492 328.902 192.321 330.715 190.843 331.974C189.365 333.233 187.593 334.023 185.846 334.798C179.913 337.428 173.98 340.057 168.047 342.687C165.285 343.912 161.797 344.718 159.78 341.627C158.562 339.761 159.216 337.587 159.282 335.483C159.529 327.611 157.814 319.262 157.008 311.434Z" fill="#FFAF51"/>
<path d="M63.6189 353.927C68.4879 353.927 73.4377 351.217 88.9891 324.483C106.415 294.526 108.722 269.947 108.722 269.947C108.722 269.947 102.985 264.5 95.0205 271.823C76.1759 289.15 61.3125 347.014 50.0369 351.879C54.6496 353.671 63.6189 353.927 63.6189 353.927Z" fill="#FFAF51"/>
<path d="M113.352 267.999C104.49 268.373 94.8231 271.722 90.8978 279.542C88.7297 283.862 88.6504 288.936 89.4684 293.685C90.2864 298.435 91.9415 303.001 93.1154 307.678C95.4064 316.804 95.8458 326.376 94.4003 335.668C93.7532 339.828 92.7296 343.999 93.0999 348.191C93.6753 354.703 97.8603 360.797 103.789 363.755C109.718 366.713 117.191 366.436 122.877 363.048C129.697 368.587 139.36 370.545 147.853 368.11C156.345 365.674 163.422 358.915 166.144 350.639C169.154 341.489 166.981 331.564 164.792 322.191C163.257 315.622 161.722 309.052 160.187 302.482C158.985 297.336 158.501 291 155.921 286.3C154.121 283.021 150.346 280.665 147.391 278.488C142.756 275.072 137.554 272.41 132.057 270.616C125.924 268.615 119.774 267.999 113.352 267.999Z" fill="#00AEE0"/>
<path d="M225.88 300.372C225.631 299.79 225.398 299.159 224.883 298.791C224.368 298.423 223.529 298.44 223.204 298.983C223.467 297.71 222.872 296.303 221.775 295.604C220.677 294.904 219.15 294.957 218.104 295.732C217.89 294.128 216.692 292.698 215.15 292.204C213.609 291.71 211.802 292.178 210.694 293.358C210.778 291.937 208.814 291.077 207.573 291.776C206.332 292.475 205.88 294.085 206.029 295.501C206.179 296.916 206.796 298.233 207.201 299.598C208.225 303.055 207.439 305.734 206.521 308.734C206.246 309.635 205.632 310.391 204.814 310.857C204.809 310.859 204.805 310.862 204.801 310.864C200.231 313.466 195.661 316.068 191.092 318.67C183.229 323.148 175.466 328.243 167.325 332.188C165.107 333.263 162.43 333.063 160.318 334.227C157.47 335.797 156.252 339.851 156.089 342.866C155.872 346.873 157.113 350.799 158.34 354.619C159.057 356.853 160.285 359.504 162.63 359.627C163.629 359.679 164.576 359.221 165.471 358.773C180.941 351.025 216.304 331.233 217.798 330.297C221.429 328.024 225.326 325.418 226.599 321.329C227.019 319.979 228.489 306.466 225.88 300.372Z" fill="#FFAF51"/>
<path d="M36.958 342.849C36.2523 341.954 35.5621 340.886 35.748 339.762C36.0364 338.018 38.1363 337.31 39.8888 337.064C46.922 336.078 54.2055 336.933 60.8187 339.521C63.8063 340.69 66.8203 342.36 68.3561 345.175C69.7701 347.766 69.3225 352.063 66.6438 353.798C64.1001 355.446 59.173 354.611 56.3623 354.139C48.8238 352.876 41.7056 348.869 36.958 342.849Z" fill="#FFAF51"/>
<path d="M137.331 305.9C135.615 301.265 135.044 296.064 136.598 291.371C138.153 286.679 142.074 282.632 146.937 281.724C151.946 280.789 154.819 284.612 158.249 288.376C161.68 292.141 166.108 298.16 168.326 302.599C174.572 315.1 172.273 328.032 173.924 341.906C175.576 355.781 178.113 369.878 184.976 382.052C186.294 384.39 187.822 386.959 187.225 389.575C186.729 391.745 184.773 393.388 182.616 393.943C180.459 394.499 178.151 394.104 176.073 393.303C171.575 391.571 167.959 388.018 165.355 383.965C162.752 379.911 161.064 375.349 159.489 370.796C155.448 359.115 152.018 347.222 149.214 335.184C148.061 330.234 147.961 323.164 145.342 318.825C142.667 314.394 139.21 310.974 137.331 305.9Z" fill="#FFAF51"/>
<path d="M193.418 376.27C196.106 377.285 197.781 379.908 199.264 382.366C199.702 383.092 200.157 383.926 199.931 384.743C199.631 385.83 198.328 386.252 197.209 386.406C192.725 387.022 188.04 386.077 184.146 383.771C176.101 379.009 189.139 374.655 193.418 376.27Z" fill="#FFAF51"/>
<path d="M205.326 402.972C204.657 403.016 203.97 402.827 203.395 402.39C197.692 398.054 190.312 395.088 182.613 394.039C181.035 393.824 179.931 392.372 180.146 390.796C180.361 389.22 181.815 388.117 183.392 388.331C192.061 389.512 200.405 392.877 206.887 397.806C208.154 398.769 208.4 400.577 207.435 401.843C206.909 402.534 206.13 402.921 205.326 402.972Z" fill="#FFAF51"/>
<path d="M212.032 397.111C211.508 397.192 210.955 397.13 210.433 396.901C204.252 394.188 197.203 392.865 190.049 393.077C188.458 393.124 187.129 391.873 187.082 390.283C187.035 388.692 188.292 387.366 189.879 387.318C197.883 387.082 205.793 388.572 212.752 391.627C214.21 392.267 214.873 393.966 214.232 395.422C213.821 396.358 212.973 396.965 212.032 397.111Z" fill="#FFAF51"/>
<path d="M215.385 391.325C214.979 391.371 214.557 391.332 214.144 391.194C206.258 388.562 197.32 388.291 188.98 390.43C187.439 390.825 185.866 389.897 185.471 388.356C185.075 386.815 186.004 385.245 187.547 384.85C196.949 382.44 207.044 382.752 215.97 385.73C217.481 386.234 218.296 387.866 217.791 389.375C217.425 390.471 216.463 391.201 215.385 391.325Z" fill="#FFAF51"/>
<path d="M186.881 388.83C185.729 388.983 184.551 388.426 183.965 387.344C183.207 385.945 183.728 384.198 185.128 383.441C194.181 378.545 205.601 376.942 215.675 379.149C217.23 379.49 218.214 381.026 217.873 382.58C217.532 384.134 215.994 385.117 214.439 384.776C205.677 382.856 195.746 384.25 187.872 388.507C187.555 388.679 187.219 388.785 186.881 388.83Z" fill="#FFAF51"/>
<path d="M196.195 380.764C197.319 380.881 198.507 381.047 199.373 381.711C200.471 382.553 200.771 384.03 200.461 385.307C200.151 386.583 199.332 387.703 198.488 388.761C196.769 390.916 194.766 393.033 192.063 394.049C189.309 395.084 186.205 394.842 183.239 394.583C180.644 394.356 177.859 394.056 175.913 392.475C173.925 390.86 173.282 388.129 173.992 385.79C174.513 384.074 175.705 382.486 177.209 381.355C178.522 380.369 179.656 380.65 181.243 380.581C186.265 380.363 191.183 380.242 196.195 380.764Z" fill="#FFAF51"/>
<path d="M110.09 243.086C109.351 237.772 107.746 232.598 107.177 227.264C106.607 221.929 107.204 216.181 110.422 211.887C113.801 207.378 119.688 205.171 125.322 205.373C130.957 205.575 136.338 207.936 140.984 211.126C147.638 215.697 153.179 222.299 155.103 230.134C157.027 237.97 154.802 247.03 148.523 252.103C146.645 253.621 144.483 254.749 142.541 256.183C140.598 257.617 138.815 259.463 138.174 261.79C137.652 263.685 137.936 265.694 138.002 267.659C138.067 269.624 137.845 271.752 136.542 273.225C134.879 275.102 132.068 275.302 129.56 275.367C125.487 275.473 121.394 275.578 117.358 275.023C114.825 274.675 110.435 274.313 108.595 272.282C106.895 270.404 108.051 267.67 108.58 265.555C110.411 258.235 111.134 250.585 110.09 243.086Z" fill="#FFAF51"/>
<path d="M150.296 225.699C151.047 225.017 150.549 223.248 149.184 221.748C147.819 220.247 146.104 219.584 145.353 220.265C144.603 220.947 145.1 222.716 146.465 224.217C147.83 225.717 149.545 226.38 150.296 225.699Z" fill="#04294F"/>
<path d="M146.364 238.886C146.083 238.671 146.149 238.008 146.676 237.172C146.935 236.753 147.32 236.313 147.805 235.884C148.296 235.465 148.892 235.066 149.568 234.749C150.246 234.435 150.936 234.238 151.571 234.132C152.21 234.033 152.794 234.025 153.281 234.092C154.258 234.223 154.811 234.593 154.798 234.947C154.787 235.32 154.256 235.618 153.499 235.945C152.736 236.272 151.743 236.65 150.683 237.141C150.154 237.39 149.659 237.642 149.2 237.876C148.734 238.12 148.315 238.34 147.962 238.525C147.227 238.895 146.66 239.114 146.364 238.886Z" fill="#04294F"/>
<path d="M150.052 197.326C149.316 191.601 145.626 186.532 140.914 183.193C138.134 181.223 134.849 179.749 131.442 179.844C128.992 179.912 126.499 180.939 124.851 182.698C124.182 183.412 124.471 184.62 125.406 184.91C126.76 185.329 127.948 186.68 128.104 188.157C128.338 190.372 126.96 192.449 125.342 193.982C120.486 198.579 113.309 200.018 108.333 204.486C103.197 209.099 101.146 216.403 101.431 223.298C101.717 230.192 104.054 236.821 106.495 243.276C108.236 247.881 111.413 252.576 117.003 252.42C121.723 252.287 126.568 248.879 128.221 244.495C129.097 242.171 129.212 239.716 129.036 237.227C128.411 237.271 127.757 237.151 127.159 236.898C125.589 236.232 124.25 234.688 123.82 232.843C123.39 230.999 123.961 228.923 125.296 227.915C128.112 225.789 130.476 229.557 131.727 232.402C131.822 232.616 131.817 232.863 131.843 233.098C133.089 232.474 134.336 231.85 135.583 231.226C134.082 228.3 132.554 225.282 132.249 222.008C132.092 220.323 132.322 218.571 132.986 217.008C133.161 216.596 133.884 215.763 134.508 214.963C137.239 213.831 140.379 213.398 143.026 212.004C148.138 209.315 150.788 203.051 150.052 197.326Z" fill="#10294C"/>
<path d="M128.61 233.801C129.135 233.427 129.075 232.445 128.477 231.606C127.879 230.767 126.969 230.39 126.444 230.763C125.92 231.137 125.979 232.119 126.577 232.958C127.175 233.797 128.085 234.174 128.61 233.801Z" fill="#04294F"/>
<path d="M140.143 209.711C140.081 209.587 140.231 209.359 140.512 209.054C140.78 208.727 141.174 208.306 141.562 207.727C141.95 207.151 142.327 206.415 142.577 205.558C142.717 205.134 142.785 204.671 142.847 204.199C142.853 203.961 142.89 203.719 142.873 203.476C142.87 203.354 142.867 203.231 142.863 203.108C142.841 202.926 142.851 203.008 142.851 203.003C142.849 203.008 142.861 202.99 142.858 202.971C142.857 202.965 142.851 202.959 142.839 202.956C142.833 202.954 142.825 202.954 142.816 202.954L142.813 202.954L142.775 202.981L142.696 203.037L142.539 203.149C141.709 203.737 140.945 204.246 140.285 204.65C138.965 205.459 138.064 205.853 137.895 205.638C137.726 205.423 138.321 204.641 139.419 203.55C139.968 203.005 140.643 202.383 141.411 201.715C141.52 201.622 141.63 201.528 141.741 201.433C141.938 201.272 142.138 201.109 142.339 200.944C142.54 200.785 142.755 200.594 142.954 200.455C143.153 200.319 143.354 200.182 143.557 200.043L143.864 199.835C143.915 199.802 143.969 199.761 144.018 199.734L144.078 199.919C144.159 200.168 144.24 200.419 144.322 200.671C144.406 200.926 144.472 201.176 144.548 201.432C144.621 201.688 144.701 201.94 144.75 202.224C144.794 202.503 144.826 202.88 144.838 202.984C144.84 203.15 144.841 203.315 144.843 203.479C144.853 203.807 144.801 204.125 144.773 204.437C144.666 205.056 144.525 205.646 144.296 206.17C143.867 207.23 143.245 208.068 142.619 208.645C141.991 209.226 141.371 209.544 140.931 209.701C140.474 209.836 140.203 209.831 140.143 209.711Z" fill="#04294F"/>
<path d="M134.549 191.69C134.294 191.757 133.965 191.194 133.304 190.517C133.138 190.348 132.953 190.171 132.741 190C132.637 189.912 132.526 189.826 132.409 189.744C132.352 189.7 132.291 189.66 132.229 189.62C132.173 189.585 132.085 189.52 132.093 189.538C131.991 189.534 131.983 189.589 132.013 189.626C132.022 189.64 132.026 189.642 132.026 189.642L132.025 189.642L132.024 189.643C132.024 189.646 132.023 189.631 132.026 189.678L132.037 189.872C132.037 190.13 132.043 190.385 132.023 190.634C131.995 191.133 131.918 191.608 131.815 192.053C131.611 192.942 131.27 193.696 130.915 194.276C130.186 195.442 129.441 195.896 129.243 195.732C129.017 195.556 129.325 194.831 129.635 193.707C129.787 193.143 129.941 192.477 130.019 191.732C130.057 191.361 130.086 190.971 130.083 190.568C130.088 190.367 130.073 190.163 130.068 189.956C130.055 189.8 130.042 189.642 130.029 189.484C130.007 189.251 129.945 188.993 129.893 188.739C129.761 188.03 129.517 187.166 129.365 186.5C129.688 186.601 130.006 186.7 130.319 186.797C130.648 186.902 130.963 187.003 131.267 187.108C131.878 187.331 132.506 187.653 133.027 188.079C133.184 188.19 133.224 188.249 133.303 188.318C133.376 188.386 133.446 188.454 133.51 188.527C133.643 188.667 133.762 188.81 133.869 188.954C134.086 189.238 134.254 189.525 134.383 189.794C134.637 190.336 134.74 190.806 134.74 191.138C134.744 191.471 134.666 191.66 134.549 191.69Z" fill="#04294F"/>
<path d="M117.254 247.63C117.202 247.874 116.241 247.959 114.79 247.483C114.611 247.418 114.423 247.351 114.228 247.28C114.034 247.205 113.844 247.103 113.641 247.007C113.23 246.822 112.828 246.562 112.401 246.291C111.571 245.717 110.725 244.98 109.974 244.083C109.235 243.177 108.67 242.208 108.263 241.285C108.078 240.814 107.898 240.37 107.794 239.932C107.738 239.715 107.674 239.51 107.637 239.305C107.605 239.1 107.573 238.903 107.544 238.715C107.351 237.201 107.616 236.274 107.866 236.27C108.16 236.257 108.401 237.116 108.9 238.368C108.963 238.524 109.029 238.687 109.098 238.857C109.167 239.026 109.259 239.195 109.338 239.373C109.49 239.734 109.702 240.096 109.903 240.484C110.341 241.242 110.867 242.042 111.502 242.823C112.148 243.593 112.836 244.261 113.498 244.834C113.841 245.104 114.156 245.381 114.482 245.598C114.643 245.71 114.791 245.832 114.944 245.931C115.098 246.031 115.246 246.126 115.387 246.218C116.523 246.945 117.322 247.344 117.254 247.63Z" fill="#04294F"/>
<path d="M122.717 243.805C122.88 244.01 122.688 244.506 122.07 245.014C121.765 245.268 121.352 245.503 120.86 245.69C120.368 245.867 119.796 245.989 119.189 246.01C118.582 246.025 118.004 245.937 117.502 245.789C117.001 245.632 116.574 245.422 116.254 245.186C115.608 244.716 115.387 244.232 115.537 244.018C115.697 243.785 116.166 243.825 116.794 243.894C117.425 243.969 118.234 244.055 119.131 244.032C120.027 244.002 120.83 243.868 121.455 243.756C122.078 243.65 122.543 243.583 122.717 243.805Z" fill="#04294F"/>
<path d="M131.899 213.598C132.061 213.832 131.801 214.287 131.466 214.925C131.293 215.242 131.114 215.62 130.932 216.035C130.761 216.457 130.593 216.921 130.458 217.422C130.332 217.926 130.254 218.413 130.197 218.865C130.155 219.316 130.128 219.733 130.125 220.094C130.107 220.814 130.113 221.338 129.858 221.464C129.628 221.582 129.14 221.236 128.759 220.405C128.566 219.993 128.43 219.466 128.372 218.866C128.328 218.268 128.37 217.6 128.541 216.926C128.72 216.254 129.007 215.649 129.337 215.147C129.679 214.652 130.055 214.257 130.424 213.991C131.161 213.449 131.756 213.383 131.899 213.598Z" fill="#04294F"/>
<path d="M113.596 208.709C113.363 208.565 113.626 207.673 114.238 206.347C114.391 206.016 114.566 205.658 114.76 205.277L114.779 205.241C114.781 205.236 114.78 205.235 114.78 205.232L114.781 205.218L114.782 205.193C114.782 205.177 114.781 205.163 114.78 205.152C114.776 205.128 114.769 205.113 114.76 205.105C114.741 205.088 114.712 205.098 114.686 205.114C114.65 205.138 114.637 205.153 114.639 205.152C114.639 205.152 114.641 205.149 114.64 205.146C114.64 205.146 114.639 205.142 114.637 205.14L114.634 205.137C114.634 205.137 114.641 205.13 114.564 205.166C114.109 205.368 113.674 205.574 113.262 205.778C112.438 206.183 111.71 206.587 111.092 206.93C109.862 207.621 109.062 208.067 108.87 207.862C108.687 207.671 109.162 206.845 110.261 205.805C110.81 205.289 111.516 204.725 112.363 204.191C112.786 203.923 113.243 203.662 113.73 203.416C113.769 203.394 113.895 203.331 114.015 203.28L114.371 203.121C114.609 203.018 114.856 202.898 115.094 202.808C115.571 202.629 116.067 202.434 116.525 202.295C116.99 202.148 117.449 202.002 117.902 201.858C118.134 201.786 118.363 201.714 118.592 201.643L118.931 201.539L119.016 201.513C119.024 201.513 119.056 201.495 119.045 201.51L119.024 201.548L118.939 201.698C118.713 202.096 118.49 202.486 118.271 202.869C118.162 203.058 118.053 203.246 117.945 203.431L117.784 203.705C117.729 203.798 117.655 203.905 117.592 204.003C117.332 204.394 117.079 204.775 116.833 205.146C116.6 205.488 116.374 205.821 116.156 206.142C115.901 206.485 115.657 206.801 115.428 207.085C114.511 208.222 113.828 208.853 113.596 208.709Z" fill="#04294F"/>
<path d="M122.181 265.833C110.49 263.203 96.3551 261.202 81.1346 286.959C80.0258 288.835 80.099 291.184 81.2935 293.007C85.1387 298.875 88.5622 303.434 93.1153 306.06C94.3257 313.505 93.6984 321.839 93.1173 326.726C92.7426 329.878 93.9425 333.015 96.3497 335.086C103.007 340.811 119.105 349.513 150.579 340.831C148.566 331.638 147.369 324.401 147.369 324.401C147.369 324.401 159.325 326.471 170.374 318.818C172.441 317.386 173.369 314.803 172.637 312.398C168.805 299.805 158.104 273.914 122.181 265.833Z" fill="#04294F"/>
<path d="M97.2687 330.871C96.99 331.106 96.4954 330.938 96.1652 330.494C95.8351 330.051 95.8162 329.529 96.1218 329.331C96.4274 329.132 96.922 329.3 97.2253 329.708C97.5286 330.115 97.5475 330.636 97.2687 330.871Z" fill="white"/>
<path d="M101.772 334.913C101.574 335.216 100.628 334.95 99.7302 334.219C98.8303 333.491 98.3785 332.613 98.6377 332.36C98.8994 332.103 99.7242 332.517 100.563 333.196C101.4 333.878 101.974 334.606 101.772 334.913Z" fill="white"/>
<path d="M107.153 337.698C107.087 337.868 106.817 337.935 106.427 337.905C106.038 337.877 105.528 337.749 105.011 337.502C103.969 337.016 103.31 336.292 103.493 335.978C103.678 335.663 104.588 335.849 105.572 336.308C106.064 336.542 106.492 336.796 106.781 337.042C107.069 337.289 107.218 337.528 107.153 337.698Z" fill="white"/>
<path d="M112.979 339.381C112.908 339.737 111.946 339.848 110.843 339.563C109.738 339.28 108.948 338.712 109.062 338.367C109.176 338.02 110.111 338.014 111.172 338.286C112.233 338.559 113.051 339.022 112.979 339.381Z" fill="white"/>
<path d="M118.983 340.269C118.965 340.449 118.723 340.595 118.344 340.669C117.965 340.739 117.449 340.745 116.89 340.671C115.768 340.521 114.908 340.108 114.969 339.749C115.031 339.39 115.967 339.216 117.061 339.362C117.609 339.435 118.096 339.575 118.444 339.742C118.792 339.904 119.001 340.087 118.983 340.269Z" fill="white"/>
<path d="M125.043 340.63C125.037 340.994 124.119 341.248 122.991 341.195C121.863 341.143 120.971 340.806 121 340.443C121.028 340.08 121.947 339.827 123.052 339.878C124.157 339.929 125.048 340.266 125.043 340.63Z" fill="white"/>
<path d="M131.113 340.512C131.136 340.875 130.24 341.2 129.111 341.237C127.983 341.274 127.068 341.008 127.067 340.644C127.066 340.279 127.962 339.954 129.068 339.918C130.174 339.882 131.089 340.148 131.113 340.512Z" fill="white"/>
<path d="M137.154 339.917C137.205 340.277 136.338 340.672 135.216 340.797C134.094 340.922 133.16 340.729 133.131 340.366C133.102 340.003 133.969 339.609 135.069 339.486C136.168 339.363 137.102 339.556 137.154 339.917Z" fill="white"/>
<path d="M143.129 338.847C143.209 339.203 142.376 339.664 141.267 339.878C140.158 340.091 139.213 339.972 139.155 339.612C139.097 339.253 139.931 338.791 141.017 338.582C142.103 338.373 143.049 338.492 143.129 338.847Z" fill="white"/>
<path d="M146.959 337.9C147.056 338.251 146.715 338.646 146.196 338.781C145.677 338.917 145.186 338.74 145.099 338.386C145.012 338.033 145.353 337.638 145.862 337.505C146.37 337.372 146.861 337.549 146.959 337.9Z" fill="white"/>
<path d="M145.672 320.41C146.211 320.314 146.153 317.447 145.543 314.005C144.932 310.562 144.001 307.849 143.463 307.945C142.924 308.04 142.982 310.908 143.592 314.35C144.202 317.792 145.134 320.505 145.672 320.41Z" fill="white"/>
<path d="M93.5392 304.433C94.0817 304.363 94.1431 301.382 93.6764 297.775C93.2096 294.167 92.3916 291.3 91.8491 291.37C91.3067 291.44 91.2453 294.421 91.712 298.028C92.1787 301.635 92.9968 304.503 93.5392 304.433Z" fill="white"/>
<path d="M150.744 320.906C150.734 321.27 150.285 321.537 149.741 321.501C149.198 321.464 148.788 321.141 148.826 320.778C148.865 320.416 149.314 320.15 149.829 320.184C150.345 320.219 150.754 320.542 150.744 320.906Z" fill="white"/>
<path d="M156.524 320.538C156.586 320.895 155.761 321.337 154.67 321.441C153.579 321.546 152.685 321.27 152.678 320.907C152.67 320.541 153.508 320.228 154.544 320.127C155.58 320.029 156.462 320.177 156.524 320.538Z" fill="white"/>
<path d="M162.133 319.086C162.261 319.426 161.532 320.014 160.481 320.32C159.429 320.629 158.499 320.527 158.423 320.172C158.346 319.814 159.11 319.348 160.109 319.054C161.109 318.763 162.004 318.744 162.133 319.086Z" fill="white"/>
<path d="M167.368 316.608C167.558 316.918 166.954 317.633 165.979 318.132C165.004 318.632 164.071 318.706 163.93 318.371C163.787 318.034 164.45 317.433 165.376 316.958C166.302 316.484 167.177 316.296 167.368 316.608Z" fill="white"/>
<path d="M170.539 314.425C170.767 314.709 170.597 315.202 170.158 315.526C169.72 315.849 169.198 315.867 168.993 315.566C168.788 315.265 168.958 314.771 169.374 314.465C169.789 314.158 170.311 314.14 170.539 314.425Z" fill="white"/>
<path d="M83.0082 291.076C82.6953 291.263 82.2329 291.021 81.9765 290.534C81.7202 290.047 81.7821 289.529 82.1137 289.377C82.4452 289.226 82.9076 289.468 83.1454 289.92C83.383 290.371 83.3212 290.889 83.0082 291.076Z" fill="white"/>
<path d="M86.9196 295.928C86.6792 296.198 85.7591 295.772 84.9658 294.879C84.1704 293.988 83.854 293.026 84.1507 292.819C84.451 292.608 85.2124 293.175 85.9522 294.002C86.6891 294.833 87.1644 295.654 86.9196 295.928Z" fill="white"/>
<path d="M90.1046 298.349C89.9154 298.66 89.3932 298.661 88.9389 298.35C88.4846 298.039 88.297 297.552 88.5193 297.264C88.7414 296.975 89.2637 296.974 89.685 297.262C90.1063 297.55 90.2939 298.037 90.1046 298.349Z" fill="white"/>
<path d="M127.389 365.503C127.322 365.622 127.03 365.593 126.546 365.43C126.426 365.389 126.293 365.339 126.148 365.282C126.007 365.22 125.863 365.139 125.704 365.055C125.391 364.88 125.022 364.69 124.664 364.413C124.482 364.278 124.29 364.137 124.091 363.989C123.894 363.838 123.71 363.657 123.51 363.479C123.101 363.13 122.726 362.699 122.323 362.249C121.556 361.319 120.819 360.201 120.234 358.934C119.664 357.659 119.307 356.37 119.111 355.181C119.036 354.582 118.959 354.016 118.964 353.478C118.962 353.21 118.947 352.954 118.963 352.706C118.983 352.458 119.002 352.221 119.02 351.995C119.047 351.544 119.147 351.141 119.221 350.791C119.262 350.616 119.296 350.454 119.342 350.307C119.394 350.161 119.444 350.028 119.493 349.91C119.688 349.439 119.858 349.201 119.992 349.228C120.284 349.289 120.256 350.362 120.421 352.001C120.443 352.205 120.466 352.419 120.49 352.642C120.514 352.864 120.565 353.093 120.6 353.33C120.66 353.806 120.79 354.303 120.901 354.827C121.17 355.867 121.534 356.987 122.037 358.116C122.557 359.237 123.161 360.247 123.767 361.134C124.09 361.562 124.379 361.988 124.698 362.346C124.854 362.528 124.992 362.718 125.144 362.882C125.296 363.047 125.442 363.205 125.582 363.356C126.708 364.558 127.535 365.244 127.389 365.503Z" fill="#04294F"/>
<path d="M193.608 391.352C193.635 390.996 195.211 390.842 197.031 391.416C198.852 391.982 200.059 393.007 199.878 393.315C199.695 393.638 198.308 393.192 196.636 392.675C194.967 392.146 193.573 391.722 193.608 391.352Z" fill="#10294C"/>
<path d="M203.431 388.167C203.483 387.806 201.911 387.282 199.92 386.995C197.929 386.709 196.273 386.77 196.221 387.13C196.169 387.491 197.741 388.015 199.732 388.301C201.723 388.588 203.379 388.527 203.431 388.167Z" fill="#10294C"/>
<path d="M198.988 383.042C198.954 382.686 200.567 382.252 202.578 382.435C204.59 382.611 206.1 383.323 206.004 383.668C205.908 384.026 204.345 383.912 202.461 383.749C200.578 383.576 199.019 383.412 198.988 383.042Z" fill="#10294C"/>
<path d="M203.221 389.906C203.254 390.087 203.164 390.269 203.058 390.441C202.947 390.613 202.813 390.778 202.651 390.94C202.491 391.104 202.327 391.239 202.156 391.352C201.985 391.461 201.804 391.552 201.623 391.521C201.447 391.492 201.3 391.313 201.285 391.015C201.267 390.721 201.404 390.323 201.711 390.012C202.019 389.701 202.416 389.56 202.71 389.575C203.009 389.586 203.189 389.73 203.221 389.906Z" fill="#10294C"/>
<path d="M204.235 392.233C204.606 391.915 204.715 391.433 204.478 391.156C204.241 390.879 203.747 390.913 203.375 391.231C203.004 391.549 202.895 392.031 203.132 392.308C203.37 392.585 203.863 392.551 204.235 392.233Z" fill="#10294C"/>
<path d="M206.303 384.35C206.381 384.517 206.293 384.735 206.149 384.973C206.002 385.212 205.8 385.477 205.573 385.764C205.348 386.052 205.138 386.311 204.941 386.51C204.744 386.706 204.553 386.843 204.371 386.807C204.196 386.773 204.063 386.551 204.062 386.195C204.059 385.842 204.207 385.366 204.534 384.949C204.862 384.532 205.291 384.275 205.634 384.195C205.98 384.111 206.228 384.187 206.303 384.35Z" fill="#10294C"/>
<path d="M207.959 386.582C208.391 385.898 208.491 385.185 208.183 384.991C207.874 384.796 207.274 385.194 206.842 385.878C206.41 386.563 206.31 387.276 206.618 387.47C206.927 387.664 207.527 387.267 207.959 386.582Z" fill="#10294C"/>
<path d="M197.84 395.292C197.873 395.473 197.81 395.65 197.748 395.805C197.682 395.961 197.608 396.094 197.499 396.208C197.393 396.325 197.265 396.407 197.114 396.484C196.963 396.557 196.79 396.631 196.607 396.611C196.429 396.592 196.27 396.449 196.228 396.19C196.183 395.937 196.277 395.582 196.534 395.308C196.79 395.033 197.138 394.914 197.394 394.942C197.656 394.966 197.81 395.116 197.84 395.292Z" fill="#10294C"/>
<path d="M206.406 379.263C206.519 379.408 206.502 379.626 206.435 379.863C206.365 380.102 206.246 380.364 206.095 380.637C205.946 380.911 205.789 381.152 205.625 381.339C205.462 381.524 205.287 381.656 205.104 381.639C204.925 381.623 204.769 381.442 204.714 381.135C204.658 380.831 204.718 380.404 204.937 380.003C205.157 379.602 205.485 379.322 205.772 379.206C206.061 379.087 206.297 379.12 206.406 379.263Z" fill="#10294C"/>
<path d="M207.913 381.402C208.099 380.925 207.974 380.431 207.634 380.299C207.294 380.167 206.868 380.446 206.682 380.924C206.496 381.401 206.621 381.895 206.961 382.027C207.301 382.159 207.727 381.879 207.913 381.402Z" fill="#10294C"/>
<path d="M206.086 400.359C206.298 399.787 205.747 399.056 204.856 398.725C203.964 398.395 203.07 398.591 202.857 399.163C202.645 399.734 203.196 400.466 204.087 400.796C204.979 401.126 205.874 400.93 206.086 400.359Z" fill="#10294C"/>
<path d="M212.81 394.141C213.022 393.57 212.471 392.838 211.58 392.508C210.688 392.178 209.794 392.373 209.582 392.945C209.369 393.517 209.92 394.248 210.811 394.579C211.703 394.909 212.598 394.713 212.81 394.141Z" fill="#10294C"/>
<path d="M216.654 388.25C216.867 387.678 216.316 386.947 215.424 386.616C214.533 386.286 213.638 386.482 213.426 387.054C213.214 387.625 213.764 388.357 214.656 388.687C215.547 389.017 216.442 388.822 216.654 388.25Z" fill="#10294C"/>
<path d="M216.655 381.768C216.867 381.197 216.316 380.465 215.425 380.135C214.533 379.805 213.638 380 213.426 380.572C213.214 381.144 213.765 381.875 214.656 382.205C215.548 382.536 216.442 382.34 216.655 381.768Z" fill="#10294C"/>
<path d="M192.218 380.653C194.685 380.223 196.634 379.584 196.572 379.225C196.509 378.866 194.458 378.923 191.991 379.353C189.524 379.783 187.575 380.422 187.638 380.781C187.701 381.14 189.751 381.083 192.218 380.653Z" fill="#10294C"/>
<path d="M211.493 298.117C211.847 298.029 211.963 297.27 211.752 296.421C211.541 295.572 211.083 294.955 210.729 295.043C210.375 295.131 210.259 295.89 210.47 296.739C210.681 297.588 211.139 298.205 211.493 298.117Z" fill="#10294C"/>
<path d="M218.089 299.637C218.446 299.56 218.605 298.896 218.444 298.154C218.284 297.412 217.865 296.873 217.508 296.95C217.152 297.027 216.993 297.69 217.153 298.433C217.314 299.175 217.733 299.714 218.089 299.637Z" fill="#10294C"/>
<path d="M223.04 302.153C223.4 302.093 223.606 301.529 223.5 300.892C223.394 300.256 223.016 299.789 222.657 299.848C222.297 299.908 222.091 300.472 222.197 301.109C222.303 301.745 222.68 302.213 223.04 302.153Z" fill="#10294C"/>
<path d="M208.144 295.468C208.688 295.468 209.129 294.889 209.129 294.174C209.129 293.46 208.688 292.881 208.144 292.881C207.6 292.881 207.159 293.46 207.159 294.174C207.159 294.889 207.6 295.468 208.144 295.468Z" fill="#10294C"/>
<path d="M214.151 296.328C214.695 296.328 215.136 295.748 215.136 295.034C215.136 294.32 214.695 293.741 214.151 293.741C213.607 293.741 213.166 294.32 213.166 295.034C213.166 295.748 213.607 296.328 214.151 296.328Z" fill="#10294C"/>
<path d="M220.493 299.158C221.037 299.158 221.478 298.579 221.478 297.864C221.478 297.15 221.037 296.571 220.493 296.571C219.949 296.571 219.508 297.15 219.508 297.864C219.508 298.579 219.949 299.158 220.493 299.158Z" fill="#10294C"/>
<path d="M47.8334 341.982C47.5529 342.243 45.8851 340.794 43.4681 339.72C41.0675 338.61 38.878 338.311 38.8892 337.928C38.896 337.755 39.4765 337.598 40.4273 337.63C41.3739 337.661 42.6854 337.919 44.0136 338.518C45.3403 339.122 46.3983 339.938 47.0446 340.629C47.6955 341.323 47.9598 341.862 47.8334 341.982Z" fill="#10294C"/>
<path d="M54.5633 339.802C54.2883 340.057 53.255 339.369 51.9037 338.822C50.5628 338.251 49.3451 338.005 49.332 337.63C49.3315 337.453 49.6666 337.278 50.2376 337.226C50.8047 337.174 51.6044 337.27 52.4105 337.604C53.216 337.939 53.8486 338.438 54.2113 338.876C54.5775 339.317 54.6894 339.678 54.5633 339.802Z" fill="#10294C"/>
<path d="M43.3776 341.784C43.409 341.967 43.2735 342.153 43.1059 342.351C42.9339 342.548 42.7243 342.765 42.5 343.01C42.2788 343.257 42.0835 343.487 41.9037 343.678C41.7235 343.864 41.5519 344.017 41.3666 344.004C41.1901 343.993 41.0261 343.782 41.0088 343.411C40.9884 343.046 41.1472 342.537 41.5209 342.124C41.8947 341.712 42.3857 341.504 42.7516 341.488C43.1231 341.468 43.3492 341.61 43.3776 341.784Z" fill="#10294C"/>
<path d="M39.8726 341.398C40.2087 340.817 39.8602 339.987 39.0941 339.545C38.3281 339.103 37.4347 339.216 37.0986 339.798C36.7625 340.38 37.111 341.209 37.877 341.651C38.643 342.093 39.5365 341.98 39.8726 341.398Z" fill="#10294C"/>
<path d="M48.7683 339.351C49.0349 338.89 48.7585 338.232 48.151 337.882C47.5434 337.531 46.8349 337.621 46.5683 338.082C46.3018 338.544 46.5782 339.202 47.1857 339.552C47.7932 339.902 48.5018 339.813 48.7683 339.351Z" fill="#10294C"/>
<path d="M175.322 351.986C174.806 352.099 172.857 344.921 171.95 335.821C171.019 326.723 171.493 319.302 172.021 319.309C172.587 319.308 173 326.64 173.92 335.622C174.815 344.607 175.877 351.874 175.322 351.986Z" fill="#10294C"/>
<path d="M179.853 325.595C184.058 323.258 187.252 320.976 186.986 320.499C186.72 320.021 183.095 321.529 178.89 323.866C174.685 326.203 171.491 328.485 171.757 328.962C172.023 329.44 175.647 327.933 179.853 325.595Z" fill="#10294C"/>
<path d="M267.846 181.682L258.012 190.34C257.999 190.352 257.983 190.36 257.966 190.364C257.949 190.368 257.931 190.368 257.915 190.364L254.426 189.481C254.409 189.477 254.393 189.468 254.38 189.457C254.366 189.445 254.356 189.43 254.35 189.414L251.19 180.847L251.15 180.741L247.346 179.779C247.329 179.775 247.312 179.766 247.299 179.754C247.285 179.742 247.275 179.727 247.269 179.71C247.263 179.693 247.262 179.675 247.265 179.657C247.268 179.64 247.276 179.623 247.287 179.609L249.459 176.923C249.472 176.907 249.489 176.895 249.509 176.889C249.529 176.883 249.55 176.882 249.57 176.887L254.563 178.151C254.579 178.155 254.594 178.163 254.606 178.174C254.619 178.184 254.629 178.198 254.636 178.213L257.326 184.662L257.438 184.93L257.664 184.748L263.096 180.354C263.109 180.344 263.125 180.337 263.142 180.333C263.158 180.33 263.175 180.33 263.192 180.334L267.796 181.499C267.816 181.504 267.834 181.513 267.848 181.527C267.862 181.54 267.873 181.557 267.878 181.576C267.883 181.595 267.883 181.615 267.877 181.634C267.871 181.652 267.86 181.669 267.846 181.682Z" fill="url(#paint0_linear)"/>
<path d="M267.232 182.906L261.686 191.427C261.682 191.434 261.676 191.441 261.67 191.447L255.177 197.296L255.007 197.17L258.204 190.762C258.211 190.75 258.22 190.74 258.23 190.731L267.168 182.851C267.176 182.845 267.186 182.841 267.196 182.842C267.206 182.842 267.216 182.846 267.223 182.852C267.231 182.859 267.236 182.868 267.237 182.878C267.239 182.888 267.237 182.898 267.232 182.906Z" fill="url(#paint1_linear)"/>
<path d="M253.875 196.817L253.665 196.848L250.752 188.702C250.746 188.689 250.744 188.675 250.744 188.661L251.124 182.467C251.125 182.443 251.135 182.419 251.152 182.401C251.168 182.383 251.191 182.372 251.216 182.368C251.241 182.365 251.266 182.37 251.287 182.383C251.309 182.396 251.325 182.416 251.333 182.44L253.993 189.65C253.998 189.663 254 189.676 253.998 189.689L253.875 196.817Z" fill="url(#paint2_linear)"/>
<path d="M250.201 188.412L247.082 187.623C247.059 187.617 247.038 187.603 247.024 187.585C247.009 187.566 247.001 187.543 247.002 187.519L247.019 180.267C247.019 180.251 247.023 180.235 247.031 180.221C247.038 180.207 247.048 180.194 247.061 180.185C247.074 180.175 247.089 180.168 247.105 180.165C247.121 180.162 247.137 180.162 247.153 180.166L250.687 181.06C250.712 181.066 250.733 181.081 250.748 181.101C250.763 181.121 250.77 181.145 250.768 181.17L250.334 188.317C250.333 188.332 250.329 188.347 250.321 188.361C250.314 188.374 250.303 188.386 250.29 188.395C250.278 188.404 250.263 188.41 250.248 188.413C250.232 188.416 250.217 188.416 250.201 188.412Z" fill="url(#paint3_linear)"/>
<path d="M257.598 190.72C257.614 190.723 257.628 190.73 257.641 190.74C257.654 190.75 257.664 190.763 257.671 190.777C257.677 190.792 257.681 190.807 257.681 190.823C257.68 190.839 257.677 190.855 257.669 190.869L254.458 197.302L254.3 197.262L254.419 190.035C254.42 190.019 254.424 190.004 254.431 189.99C254.438 189.976 254.449 189.963 254.462 189.954C254.474 189.944 254.489 189.938 254.505 189.935C254.521 189.932 254.537 189.932 254.553 189.936L257.598 190.72Z" fill="url(#paint4_linear)"/>
<path d="M254.097 198.582C254.42 198.654 254.725 198.515 254.779 198.273C254.832 198.03 254.614 197.775 254.292 197.704C253.969 197.632 253.664 197.77 253.611 198.013C253.557 198.256 253.775 198.511 254.097 198.582Z" fill="#E62A3D"/>
<path d="M282.885 189.301L274.395 199.095C274.363 199.132 274.324 199.159 274.282 199.174C274.239 199.189 274.195 199.192 274.153 199.182L271.535 198.519C271.478 198.505 271.429 198.468 271.397 198.414C271.364 198.36 271.351 198.293 271.359 198.226L272.317 189.464C272.324 189.397 272.311 189.33 272.278 189.277C272.246 189.223 272.197 189.185 272.141 189.17L271.229 188.94C271.187 188.93 271.148 188.907 271.118 188.874C271.087 188.84 271.066 188.798 271.055 188.751C271.044 188.703 271.045 188.653 271.057 188.604C271.069 188.555 271.092 188.51 271.123 188.472L272.763 186.456C272.794 186.416 272.834 186.387 272.878 186.37C272.922 186.353 272.968 186.351 273.011 186.362L274.795 186.814C275.331 186.949 275.543 187.331 275.43 187.961L274.502 194.193C274.493 194.254 274.501 194.314 274.525 194.366C274.549 194.418 274.588 194.459 274.636 194.483C274.683 194.506 274.737 194.511 274.79 194.496C274.842 194.482 274.891 194.449 274.928 194.402L279.8 188.239C279.832 188.199 279.872 188.169 279.916 188.152C279.96 188.136 280.007 188.132 280.05 188.143L282.784 188.835C282.826 188.846 282.863 188.87 282.893 188.903C282.922 188.937 282.943 188.979 282.953 189.026C282.964 189.073 282.963 189.123 282.95 189.171C282.938 189.22 282.916 189.264 282.885 189.301Z" fill="#F0F0F0"/>
<path d="M288.914 200.688L287.504 202.406C287.472 202.444 287.432 202.473 287.389 202.489C287.345 202.505 287.299 202.508 287.256 202.497L285.183 201.972C284.394 201.773 284.029 201.496 284.024 200.985C284.022 200.937 284.009 200.892 283.987 200.852C283.965 200.813 283.934 200.782 283.897 200.761C283.86 200.74 283.818 200.731 283.776 200.735C283.733 200.738 283.691 200.753 283.654 200.78C283.309 201.015 282.93 201.17 282.541 201.237C282.151 201.303 281.76 201.28 281.39 201.167C279.511 200.691 278.668 198.366 279.741 195.774C281.207 192.156 285.101 191.152 289.372 193.145L289.542 193.225C289.579 193.242 289.611 193.269 289.635 193.304C289.659 193.339 289.675 193.381 289.682 193.426C289.688 193.471 289.684 193.518 289.671 193.562C289.657 193.607 289.635 193.648 289.605 193.682L288.218 195.282C288.183 195.323 288.139 195.353 288.091 195.366C288.044 195.38 287.994 195.378 287.95 195.36L287.626 195.229C285.086 194.281 283.265 194.754 282.461 196.462C281.882 197.684 282.1 198.639 282.992 198.865C283.931 199.103 284.743 198.427 285.45 196.873L285.956 195.765C285.983 195.706 286.027 195.657 286.079 195.628C286.132 195.598 286.191 195.589 286.246 195.603L288.476 196.167C288.512 196.176 288.545 196.194 288.573 196.22C288.6 196.246 288.622 196.279 288.636 196.317C288.65 196.355 288.657 196.397 288.655 196.439C288.653 196.481 288.643 196.523 288.625 196.562L287.293 199.485C287.276 199.523 287.266 199.565 287.264 199.608C287.263 199.65 287.269 199.692 287.284 199.729C287.298 199.767 287.32 199.8 287.348 199.826C287.375 199.852 287.408 199.87 287.444 199.879L288.814 200.226C288.855 200.238 288.892 200.261 288.92 200.295C288.949 200.328 288.97 200.37 288.98 200.416C288.99 200.462 288.989 200.511 288.978 200.559C288.966 200.607 288.944 200.651 288.914 200.688Z" fill="#F0F0F0"/>
<path d="M304.368 204.596L302.968 206.317C302.936 206.356 302.897 206.385 302.853 206.401C302.809 206.418 302.763 206.421 302.72 206.41L300.354 205.812C299.203 205.52 298.962 205.061 299.594 203.681L300.955 200.721C301.535 199.432 301.487 198.797 300.618 198.577C299.749 198.357 299.233 198.797 298.562 200.272L296.567 204.613C296.54 204.672 296.496 204.72 296.444 204.749C296.391 204.779 296.333 204.787 296.278 204.774L294.046 204.209C294.01 204.199 293.978 204.181 293.95 204.155C293.923 204.129 293.901 204.096 293.887 204.058C293.873 204.021 293.866 203.979 293.868 203.937C293.87 203.895 293.88 203.853 293.897 203.814L295.892 199.449C296.485 198.163 296.451 197.531 295.597 197.315C294.704 197.089 294.172 197.578 293.458 199.162L291.533 203.34C291.506 203.399 291.463 203.447 291.41 203.476C291.357 203.505 291.299 203.513 291.244 203.5L289.014 202.936C288.978 202.926 288.945 202.908 288.918 202.882C288.89 202.856 288.868 202.823 288.854 202.785C288.84 202.748 288.833 202.706 288.835 202.664C288.837 202.621 288.847 202.58 288.865 202.541L291.54 196.696C291.558 196.657 291.568 196.615 291.571 196.573C291.573 196.53 291.566 196.488 291.552 196.45C291.538 196.412 291.516 196.379 291.488 196.353C291.46 196.327 291.427 196.308 291.392 196.299L290.744 196.135C290.702 196.125 290.663 196.103 290.633 196.069C290.602 196.036 290.581 195.994 290.57 195.946C290.559 195.899 290.56 195.848 290.572 195.799C290.584 195.751 290.607 195.705 290.638 195.668L292.049 193.95C292.08 193.912 292.12 193.883 292.164 193.867C292.207 193.851 292.253 193.848 292.296 193.859L293.948 194.277C294.673 194.46 295.039 194.709 295.055 195.2C295.056 195.248 295.067 195.294 295.087 195.334C295.108 195.374 295.138 195.407 295.173 195.429C295.209 195.451 295.25 195.463 295.292 195.462C295.334 195.461 295.376 195.449 295.414 195.425C296.091 194.99 296.868 194.842 297.596 195.01C298.754 195.303 299.278 195.927 299.355 196.808C299.359 196.855 299.374 196.9 299.398 196.937C299.422 196.974 299.455 197.003 299.493 197.021C299.531 197.039 299.573 197.046 299.615 197.04C299.657 197.034 299.698 197.016 299.733 196.987C300.154 196.632 300.633 196.385 301.135 196.262C301.636 196.14 302.148 196.146 302.631 196.28C304.747 196.815 305.037 198.446 303.697 201.378L302.773 203.402C302.756 203.44 302.746 203.482 302.744 203.524C302.743 203.567 302.749 203.608 302.763 203.646C302.778 203.683 302.799 203.717 302.827 203.743C302.854 203.769 302.887 203.787 302.922 203.796L304.26 204.135C304.302 204.145 304.339 204.168 304.369 204.201C304.399 204.234 304.42 204.275 304.431 204.322C304.442 204.368 304.442 204.418 304.431 204.466C304.42 204.514 304.398 204.559 304.368 204.596Z" fill="#F0F0F0"/>
<path d="M314.075 200.629C314.624 201.702 314.676 203.072 313.946 204.68C312.604 207.733 310.17 208.52 308.023 207.977C305.704 207.39 304.26 205.225 305.752 201.863C305.914 201.524 306.105 201.203 306.323 200.906C306.354 200.863 306.395 200.83 306.44 200.812C306.486 200.793 306.534 200.789 306.579 200.801L308.808 201.365C308.85 201.375 308.889 201.398 308.92 201.431C308.951 201.464 308.972 201.507 308.983 201.555C308.994 201.603 308.993 201.654 308.981 201.703C308.968 201.752 308.945 201.797 308.913 201.834C308.635 202.177 308.404 202.565 308.23 202.983C307.722 204.24 307.999 205.193 308.939 205.431C309.976 205.693 310.842 205.047 311.397 203.681C311.672 203.006 311.769 202.321 311.528 201.864C311.335 201.442 310.853 201.224 310.067 201.025L306.416 200.101C306.374 200.092 306.335 200.069 306.304 200.036C306.273 200.003 306.251 199.96 306.241 199.913C306.23 199.865 306.231 199.814 306.243 199.765C306.255 199.716 306.279 199.671 306.311 199.634L307.709 197.913C307.74 197.874 307.78 197.844 307.824 197.828C307.867 197.811 307.913 197.808 307.957 197.819L310.99 198.587C312.591 199.007 313.549 199.648 314.075 200.629Z" fill="#F0F0F0"/>
<path d="M314.369 206.845C314.401 206.807 314.44 206.778 314.484 206.763C314.527 206.747 314.572 206.744 314.615 206.755L317.586 207.507C320.281 208.189 321.306 205.805 319.447 203.793C319.401 203.744 319.339 203.719 319.274 203.723C319.209 203.726 319.146 203.759 319.098 203.813L318.011 205.055C317.98 205.091 317.941 205.117 317.899 205.131C317.857 205.146 317.813 205.148 317.772 205.138L315.55 204.576C315.509 204.565 315.471 204.542 315.441 204.509C315.411 204.475 315.39 204.433 315.379 204.385C315.369 204.338 315.37 204.288 315.383 204.239C315.395 204.191 315.418 204.146 315.45 204.11L319.418 199.565C319.449 199.53 319.488 199.505 319.53 199.491C319.572 199.477 319.615 199.476 319.656 199.487L321.952 200.068C321.994 200.079 322.031 200.103 322.06 200.136C322.089 200.17 322.11 200.212 322.12 200.259C322.13 200.306 322.129 200.356 322.117 200.404C322.105 200.452 322.082 200.497 322.051 200.533L321.406 201.238C321.381 201.265 321.361 201.298 321.348 201.333C321.334 201.368 321.326 201.406 321.325 201.444C321.323 201.482 321.329 201.519 321.34 201.553C321.352 201.587 321.369 201.618 321.392 201.644C323.517 204.03 323.647 206.862 322.103 208.183C322.064 208.217 322.034 208.263 322.016 208.314C321.998 208.365 321.992 208.42 322 208.473C322.008 208.525 322.029 208.573 322.061 208.61C322.093 208.648 322.134 208.674 322.179 208.685L323.131 208.925C323.172 208.936 323.21 208.959 323.24 208.992C323.271 209.026 323.292 209.068 323.303 209.115C323.313 209.162 323.313 209.213 323.301 209.261C323.29 209.31 323.267 209.355 323.236 209.393L321.832 211.095C321.8 211.133 321.761 211.162 321.718 211.178C321.675 211.195 321.629 211.197 321.586 211.187L313.064 209.03C313.022 209.02 312.984 208.997 312.954 208.963C312.923 208.93 312.902 208.888 312.891 208.84C312.881 208.793 312.882 208.743 312.894 208.694C312.906 208.645 312.928 208.6 312.96 208.563L314.369 206.845Z" fill="#F0F0F0"/>
<path d="M323.345 210.037C323.768 209.071 324.619 208.835 325.404 209.034C326.259 209.25 326.755 209.948 326.293 211.007C325.868 211.973 325.005 212.203 324.234 212.008C323.365 211.788 322.898 211.1 323.345 210.037ZM327.968 200.268L330.596 200.933C330.634 200.943 330.668 200.962 330.696 200.99C330.725 201.018 330.747 201.054 330.76 201.094C330.773 201.135 330.778 201.179 330.774 201.223C330.769 201.267 330.756 201.311 330.734 201.349L326.957 208.18C326.929 208.235 326.886 208.28 326.836 208.307C326.785 208.334 326.729 208.342 326.676 208.329L325.249 207.968C325.215 207.959 325.184 207.942 325.157 207.919C325.13 207.895 325.109 207.864 325.094 207.829C325.079 207.794 325.071 207.755 325.07 207.715C325.069 207.675 325.076 207.635 325.09 207.597L327.671 200.466C327.693 200.399 327.735 200.341 327.79 200.305C327.845 200.268 327.908 200.255 327.968 200.268V200.268Z" fill="#F0F0F0"/>
<defs>
<linearGradient id="paint0_linear" x1="257.987" y1="179.017" x2="255.282" y2="189.707" gradientUnits="userSpaceOnUse">
<stop stop-color="#D80032"/>
<stop offset="1" stop-color="#FF7751"/>
</linearGradient>
<linearGradient id="paint1_linear" x1="267.225" y1="182.88" x2="255.204" y2="197.178" gradientUnits="userSpaceOnUse">
<stop stop-color="#3A829C"/>
<stop offset="1" stop-color="#0E80BD"/>
</linearGradient>
<linearGradient id="paint2_linear" x1="251.138" y1="182.355" x2="252.895" y2="197.003" gradientUnits="userSpaceOnUse">
<stop stop-color="#4192B0"/>
<stop offset="1" stop-color="#0485CA"/>
</linearGradient>
<linearGradient id="paint3_linear" x1="249.564" y1="180.765" x2="247.606" y2="187.765" gradientUnits="userSpaceOnUse">
<stop stop-color="#439FC0"/>
<stop offset="1" stop-color="#0284CB"/>
</linearGradient>
<linearGradient id="paint4_linear" x1="256.077" y1="190.311" x2="254.052" y2="197.203" gradientUnits="userSpaceOnUse">
<stop stop-color="#439FC0"/>
<stop offset="1" stop-color="#0284CB"/>
</linearGradient>
</defs>
</svg>
