<svg width="310" height="310" viewBox="0 0 310 310" fill="none" xmlns="http://www.w3.org/2000/svg">
<path d="M148.868 155.226V0.571289C101.178 0.571289 0.345653 43.4929 0.345459 155.226C0.345265 266.959 99.815 309.199 139.33 309.199L148.868 155.226Z" fill="#FF7751"/>
<path d="M157.725 157.27V1.25244C216.317 1.25244 309.655 46.6269 309.655 157.27C309.655 258.102 214.273 316.012 147.506 309.199L157.725 157.27Z" fill="url(#paint0_linear)"/>
<path d="M59.9787 144.613V143.692C59.9844 143.033 60.1236 142.431 60.3964 141.885C60.6748 141.334 61.0782 140.894 61.6066 140.564C62.135 140.229 62.777 140.061 63.5327 140.061C64.3054 140.061 64.9532 140.226 65.4759 140.556C65.9986 140.885 66.3935 141.326 66.6606 141.877C66.9333 142.428 67.0696 143.033 67.0696 143.692V144.613C67.0696 145.272 66.9333 145.877 66.6606 146.428C66.3878 146.973 65.9873 147.414 65.4589 147.749C64.9361 148.078 64.2941 148.243 63.5327 148.243C62.7657 148.243 62.1179 148.078 61.5895 147.749C61.0611 147.414 60.6606 146.973 60.3878 146.428C60.1208 145.877 59.9844 145.272 59.9787 144.613ZM61.9645 143.692V144.613C61.9702 145.101 62.0867 145.544 62.314 145.942C62.5469 146.34 62.9532 146.539 63.5327 146.539C64.1066 146.539 64.5071 146.34 64.7344 145.942C64.9617 145.544 65.0753 145.101 65.0753 144.613V143.692C65.0753 143.203 64.9645 142.76 64.7429 142.363C64.527 141.965 64.1236 141.766 63.5327 141.766C62.9645 141.766 62.5611 141.965 62.3225 142.363C62.0895 142.76 61.9702 143.203 61.9645 143.692ZM51.2003 134.624V133.703C51.2003 133.044 51.3367 132.439 51.6094 131.888C51.8878 131.337 52.2912 130.897 52.8196 130.567C53.3537 130.238 53.9986 130.073 54.7543 130.073C55.527 130.073 56.1748 130.238 56.6975 130.567C57.2202 130.897 57.6151 131.337 57.8821 131.888C58.1492 132.439 58.2827 133.044 58.2827 133.703V134.624C58.2827 135.283 58.1464 135.888 57.8736 136.439C57.6066 136.985 57.2089 137.425 56.6804 137.76C56.1577 138.09 55.5157 138.255 54.7543 138.255C53.9816 138.255 53.331 138.09 52.8026 137.76C52.2799 137.425 51.8821 136.985 51.6094 136.439C51.3367 135.888 51.2003 135.283 51.2003 134.624ZM53.1946 133.703V134.624C53.1946 135.113 53.3083 135.556 53.5356 135.953C53.7685 136.351 54.1748 136.55 54.7543 136.55C55.3225 136.55 55.7202 136.351 55.9475 135.953C56.1804 135.556 56.2969 135.113 56.2969 134.624V133.703C56.2969 133.215 56.1861 132.772 55.9645 132.374C55.7429 131.976 55.3395 131.777 54.7543 131.777C54.1861 131.777 53.7827 131.976 53.5441 132.374C53.3111 132.772 53.1946 133.215 53.1946 133.703ZM51.9077 147.885L63.9077 130.431H65.9446L53.9446 147.885H51.9077ZM70.3765 144.476V142.345L77.9191 130.431H79.5981V133.567H78.5327L73.1378 142.107V142.243H83.4759V144.476H70.3765ZM78.652 147.885V143.828L78.6691 142.857V130.431H81.1662V147.885H78.652ZM92.25 130.149C93.0285 130.155 93.7955 130.297 94.5512 130.576C95.3069 130.854 95.9887 131.311 96.5966 131.948C97.2103 132.578 97.6989 133.431 98.0625 134.505C98.4319 135.578 98.6194 136.919 98.625 138.527C98.6194 140.056 98.4631 141.417 98.1563 142.61C97.8552 143.797 97.4177 144.8 96.8438 145.618C96.2699 146.436 95.5767 147.059 94.7642 147.485C93.9574 147.911 93.0455 148.124 92.0285 148.124C90.9887 148.124 90.0654 147.919 89.2586 147.51C88.4517 147.101 87.7955 146.536 87.2898 145.814C86.7841 145.087 86.4688 144.252 86.3438 143.309H88.9432C89.1137 144.059 89.4603 144.667 89.983 145.132C90.5114 145.593 91.1932 145.823 92.0285 145.823C93.3069 145.823 94.304 145.266 95.0199 144.152C95.7358 143.033 96.0966 141.47 96.1023 139.465H95.966C95.6705 139.953 95.3012 140.374 94.858 140.726C94.4205 141.078 93.929 141.351 93.3836 141.544C92.8381 141.738 92.2557 141.834 91.6364 141.834C90.6307 141.834 89.7131 141.587 88.8836 141.093C88.0597 140.598 87.4035 139.919 86.9148 139.056C86.4319 138.192 86.1904 137.203 86.1904 136.09C86.1904 134.976 86.4404 133.97 86.9404 133.073C87.4461 132.169 88.1506 131.456 89.054 130.934C89.9631 130.405 91.0285 130.144 92.25 130.149ZM92.2586 132.365C91.5938 132.365 90.9944 132.53 90.4603 132.86C89.9319 133.189 89.5142 133.632 89.2074 134.189C88.9006 134.746 88.7472 135.368 88.7472 136.056C88.7472 136.732 88.8949 137.345 89.1904 137.897C89.4915 138.448 89.9006 138.885 90.4177 139.209C90.9404 139.527 91.537 139.686 92.2074 139.686C92.7074 139.686 93.1733 139.59 93.6052 139.397C94.037 139.203 94.412 138.936 94.7302 138.595C95.054 138.249 95.3069 137.857 95.4887 137.419C95.6762 136.976 95.7699 136.513 95.7699 136.03C95.7699 135.377 95.6165 134.772 95.3097 134.215C95.0086 133.658 94.5938 133.212 94.0654 132.877C93.537 132.536 92.9347 132.365 92.2586 132.365ZM11.2405 162.431H14.2319L18.7916 170.365H18.9791L23.5388 162.431H26.5302L20.1978 173.033V179.885H17.5728V173.033L11.2405 162.431ZM30.6531 180.175C29.8236 180.175 29.0736 180.022 28.4031 179.715C27.7326 179.402 27.2014 178.951 26.8093 178.36C26.423 177.769 26.2298 177.044 26.2298 176.186C26.2298 175.448 26.3718 174.84 26.6559 174.363C26.94 173.885 27.3236 173.507 27.8065 173.229C28.2895 172.951 28.8292 172.74 29.4258 172.598C30.0224 172.456 30.6304 172.348 31.2497 172.274C32.0338 172.184 32.6701 172.11 33.1588 172.053C33.6474 171.99 34.0025 171.891 34.2241 171.755C34.4457 171.618 34.5565 171.397 34.5565 171.09V171.03C34.5565 170.286 34.3463 169.709 33.9258 169.3C33.5111 168.891 32.8917 168.686 32.0679 168.686C31.2099 168.686 30.5338 168.877 30.0395 169.257C29.5508 169.632 29.2128 170.05 29.0253 170.51L26.6304 169.965C26.9145 169.169 27.3292 168.527 27.8747 168.039C28.4258 167.544 29.0593 167.186 29.7753 166.965C30.4912 166.738 31.244 166.624 32.0338 166.624C32.5565 166.624 33.1105 166.686 33.6957 166.811C34.2866 166.931 34.8378 167.152 35.3491 167.476C35.8662 167.8 36.2895 168.263 36.619 168.865C36.9486 169.462 37.1133 170.238 37.1133 171.192V179.885H34.6247V178.095H34.5224C34.3576 178.425 34.1105 178.749 33.7809 179.067C33.4514 179.385 33.0281 179.649 32.5111 179.86C31.994 180.07 31.3747 180.175 30.6531 180.175ZM31.2071 178.13C31.9116 178.13 32.5139 177.99 33.0139 177.712C33.5196 177.434 33.9031 177.07 34.1645 176.621C34.4315 176.167 34.565 175.681 34.565 175.164V173.476C34.4741 173.567 34.298 173.652 34.0366 173.732C33.7809 173.806 33.4883 173.871 33.1588 173.928C32.8292 173.979 32.5082 174.027 32.1957 174.073C31.8832 174.113 31.6218 174.147 31.4116 174.175C30.9173 174.238 30.4656 174.343 30.0565 174.49C29.6531 174.638 29.3292 174.851 29.0849 175.13C28.8463 175.402 28.727 175.766 28.727 176.22C28.727 176.851 28.9599 177.328 29.4258 177.652C29.8917 177.97 30.4855 178.13 31.2071 178.13ZM46.6183 166.794V168.84H39.4677V166.794H46.6183ZM41.3853 163.658H43.9336V176.042C43.9336 176.536 44.0075 176.908 44.1552 177.158C44.303 177.402 44.4933 177.57 44.7263 177.661C44.9649 177.746 45.2234 177.789 45.5018 177.789C45.7064 177.789 45.8853 177.774 46.0388 177.746C46.1922 177.718 46.3115 177.695 46.3967 177.678L46.8569 179.783C46.7092 179.84 46.499 179.897 46.2263 179.953C45.9535 180.016 45.6126 180.05 45.2035 180.056C44.5331 180.067 43.9081 179.948 43.3285 179.698C42.749 179.448 42.2802 179.061 41.9223 178.539C41.5643 178.016 41.3853 177.36 41.3853 176.57V163.658ZM49.4372 179.885V166.794H51.9855V179.885H49.4372ZM55.4138 179.885V166.794H57.8768V168.874H58.0132C58.2518 168.169 58.6723 167.615 59.2745 167.212C59.8825 166.803 60.57 166.598 61.337 166.598C61.4961 166.598 61.6836 166.604 61.8995 166.615C62.1211 166.627 62.2944 166.641 62.4194 166.658V169.095C62.3172 169.067 62.1353 169.036 61.874 169.002C61.6126 168.962 61.3513 168.942 61.0899 168.942C60.4876 168.942 59.9507 169.07 59.4791 169.326C59.0132 169.576 58.6439 169.925 58.3711 170.374C58.0984 170.817 57.962 171.323 57.962 171.891V179.885H55.4138ZM64.6247 179.885V166.794H67.173V179.885H64.6247ZM70.6013 179.885V166.794H73.0473V168.925H73.2092C73.4819 168.203 73.928 167.641 74.5473 167.238C75.1666 166.828 75.9081 166.624 76.7717 166.624C77.6467 166.624 78.3797 166.828 78.9706 167.238C79.5672 167.647 80.0075 168.209 80.2916 168.925H80.428C80.7405 168.226 81.2376 167.669 81.9194 167.255C82.6013 166.834 83.4138 166.624 84.3569 166.624C85.5444 166.624 86.5132 166.996 87.2632 167.74C88.0189 168.485 88.3967 169.607 88.3967 171.107V179.885H85.8484V171.345C85.8484 170.459 85.6069 169.817 85.124 169.419C84.641 169.022 84.0643 168.823 83.3939 168.823C82.5643 168.823 81.9194 169.078 81.4592 169.59C80.999 170.095 80.7689 170.746 80.7689 171.542V179.885H78.2291V171.184C78.2291 170.473 78.0075 169.902 77.5643 169.47C77.1211 169.039 76.5444 168.823 75.8342 168.823C75.3513 168.823 74.9052 168.951 74.4961 169.206C74.0927 169.456 73.766 169.806 73.516 170.255C73.2717 170.703 73.1495 171.223 73.1495 171.814V179.885H70.6013ZM97.3264 180.149C96.0593 180.149 94.9684 179.863 94.0537 179.289C93.1446 178.709 92.4457 177.911 91.9571 176.894C91.4684 175.877 91.2241 174.712 91.2241 173.399C91.2241 172.07 91.4741 170.897 91.9741 169.88C92.4741 168.857 93.1787 168.059 94.0878 167.485C94.9968 166.911 96.0679 166.624 97.3008 166.624C98.2951 166.624 99.1815 166.809 99.9599 167.178C100.738 167.542 101.366 168.053 101.843 168.712C102.326 169.371 102.613 170.141 102.704 171.022H100.224C100.088 170.408 99.7753 169.88 99.2866 169.436C98.8037 168.993 98.1559 168.772 97.3434 168.772C96.6332 168.772 96.0111 168.959 95.477 169.334C94.9486 169.703 94.5366 170.232 94.2412 170.919C93.9457 171.601 93.798 172.408 93.798 173.34C93.798 174.294 93.9429 175.118 94.2326 175.811C94.5224 176.505 94.9315 177.042 95.4599 177.422C95.994 177.803 96.6218 177.993 97.3434 177.993C97.8264 177.993 98.2639 177.905 98.6559 177.729C99.0537 177.547 99.3861 177.289 99.6531 176.953C99.9258 176.618 100.116 176.215 100.224 175.743H102.704C102.613 176.59 102.338 177.345 101.878 178.01C101.417 178.675 100.801 179.198 100.028 179.578C99.2611 179.959 98.3605 180.149 97.3264 180.149ZM105.429 179.885V166.794H107.978V179.885H105.429ZM113.954 162.431V179.885H111.406V162.431H113.954ZM121.192 180.175C120.363 180.175 119.613 180.022 118.942 179.715C118.272 179.402 117.74 178.951 117.348 178.36C116.962 177.769 116.769 177.044 116.769 176.186C116.769 175.448 116.911 174.84 117.195 174.363C117.479 173.885 117.863 173.507 118.346 173.229C118.829 172.951 119.368 172.74 119.965 172.598C120.561 172.456 121.169 172.348 121.789 172.274C122.573 172.184 123.209 172.11 123.698 172.053C124.186 171.99 124.542 171.891 124.763 171.755C124.985 171.618 125.096 171.397 125.096 171.09V171.03C125.096 170.286 124.885 169.709 124.465 169.3C124.05 168.891 123.431 168.686 122.607 168.686C121.749 168.686 121.073 168.877 120.579 169.257C120.09 169.632 119.752 170.05 119.564 170.51L117.169 169.965C117.454 169.169 117.868 168.527 118.414 168.039C118.965 167.544 119.598 167.186 120.314 166.965C121.03 166.738 121.783 166.624 122.573 166.624C123.096 166.624 123.65 166.686 124.235 166.811C124.826 166.931 125.377 167.152 125.888 167.476C126.405 167.8 126.829 168.263 127.158 168.865C127.488 169.462 127.652 170.238 127.652 171.192V179.885H125.164V178.095H125.061C124.897 178.425 124.65 178.749 124.32 179.067C123.99 179.385 123.567 179.649 123.05 179.86C122.533 180.07 121.914 180.175 121.192 180.175ZM121.746 178.13C122.451 178.13 123.053 177.99 123.553 177.712C124.059 177.434 124.442 177.07 124.704 176.621C124.971 176.167 125.104 175.681 125.104 175.164V173.476C125.013 173.567 124.837 173.652 124.576 173.732C124.32 173.806 124.027 173.871 123.698 173.928C123.368 173.979 123.047 174.027 122.735 174.073C122.422 174.113 122.161 174.147 121.951 174.175C121.456 174.238 121.005 174.343 120.596 174.49C120.192 174.638 119.868 174.851 119.624 175.13C119.385 175.402 119.266 175.766 119.266 176.22C119.266 176.851 119.499 177.328 119.965 177.652C120.431 177.97 121.025 178.13 121.746 178.13ZM131.047 179.885V166.794H133.51V168.874H133.646C133.885 168.169 134.305 167.615 134.907 167.212C135.515 166.803 136.203 166.598 136.97 166.598C137.129 166.598 137.316 166.604 137.532 166.615C137.754 166.627 137.927 166.641 138.052 166.658V169.095C137.95 169.067 137.768 169.036 137.507 169.002C137.245 168.962 136.984 168.942 136.723 168.942C136.12 168.942 135.583 169.07 135.112 169.326C134.646 169.576 134.277 169.925 134.004 170.374C133.731 170.817 133.595 171.323 133.595 171.891V179.885H131.047Z" fill="white"/>
<path d="M216.319 144.613V143.692C216.325 143.033 216.464 142.431 216.737 141.885C217.015 141.334 217.419 140.894 217.947 140.564C218.476 140.229 219.118 140.061 219.873 140.061C220.646 140.061 221.294 140.226 221.816 140.556C222.339 140.885 222.734 141.326 223.001 141.877C223.274 142.428 223.41 143.033 223.41 143.692V144.613C223.41 145.272 223.274 145.877 223.001 146.428C222.728 146.973 222.328 147.414 221.799 147.749C221.277 148.078 220.635 148.243 219.873 148.243C219.106 148.243 218.459 148.078 217.93 147.749C217.402 147.414 217.001 146.973 216.728 146.428C216.461 145.877 216.325 145.272 216.319 144.613ZM218.305 143.692V144.613C218.311 145.101 218.427 145.544 218.655 145.942C218.887 146.34 219.294 146.539 219.873 146.539C220.447 146.539 220.848 146.34 221.075 145.942C221.302 145.544 221.416 145.101 221.416 144.613V143.692C221.416 143.203 221.305 142.76 221.084 142.363C220.868 141.965 220.464 141.766 219.873 141.766C219.305 141.766 218.902 141.965 218.663 142.363C218.43 142.76 218.311 143.203 218.305 143.692ZM207.541 134.624V133.703C207.541 133.044 207.677 132.439 207.95 131.888C208.228 131.337 208.632 130.897 209.16 130.567C209.694 130.238 210.339 130.073 211.095 130.073C211.868 130.073 212.515 130.238 213.038 130.567C213.561 130.897 213.956 131.337 214.223 131.888C214.49 132.439 214.623 133.044 214.623 133.703V134.624C214.623 135.283 214.487 135.888 214.214 136.439C213.947 136.985 213.549 137.425 213.021 137.76C212.498 138.09 211.856 138.255 211.095 138.255C210.322 138.255 209.672 138.09 209.143 137.76C208.62 137.425 208.223 136.985 207.95 136.439C207.677 135.888 207.541 135.283 207.541 134.624ZM209.535 133.703V134.624C209.535 135.113 209.649 135.556 209.876 135.953C210.109 136.351 210.515 136.55 211.095 136.55C211.663 136.55 212.061 136.351 212.288 135.953C212.521 135.556 212.637 135.113 212.637 134.624V133.703C212.637 133.215 212.527 132.772 212.305 132.374C212.084 131.976 211.68 131.777 211.095 131.777C210.527 131.777 210.123 131.976 209.885 132.374C209.652 132.772 209.535 133.215 209.535 133.703ZM208.248 147.885L220.248 130.431H222.285L210.285 147.885H208.248ZM232.845 148.124C231.777 148.124 230.816 147.919 229.964 147.51C229.118 147.095 228.441 146.527 227.936 145.806C227.43 145.084 227.16 144.26 227.126 143.334H229.683C229.745 144.084 230.078 144.701 230.68 145.184C231.282 145.667 232.004 145.908 232.845 145.908C233.515 145.908 234.109 145.755 234.626 145.448C235.149 145.135 235.558 144.706 235.853 144.161C236.155 143.615 236.305 142.993 236.305 142.294C236.305 141.584 236.152 140.951 235.845 140.394C235.538 139.837 235.115 139.399 234.575 139.081C234.041 138.763 233.427 138.601 232.734 138.595C232.206 138.595 231.674 138.686 231.14 138.868C230.606 139.05 230.174 139.289 229.845 139.584L227.433 139.226L228.413 130.431H238.01V132.689H230.603L230.049 137.573H230.152C230.493 137.243 230.944 136.968 231.507 136.746C232.075 136.524 232.683 136.414 233.331 136.414C234.393 136.414 235.339 136.667 236.169 137.172C237.004 137.678 237.66 138.368 238.137 139.243C238.62 140.113 238.859 141.113 238.853 142.243C238.859 143.374 238.603 144.382 238.086 145.269C237.575 146.155 236.865 146.854 235.956 147.365C235.052 147.871 234.015 148.124 232.845 148.124ZM248.588 130.431V147.885H245.946V133.073H245.844L241.668 135.8V133.277L246.023 130.431H248.588ZM170.615 179.885V162.431H176.837C178.195 162.431 179.32 162.678 180.212 163.172C181.104 163.667 181.771 164.343 182.215 165.201C182.658 166.053 182.879 167.013 182.879 168.081C182.879 169.155 182.655 170.121 182.206 170.979C181.763 171.831 181.092 172.507 180.195 173.007C179.303 173.502 178.18 173.749 176.828 173.749H172.55V171.516H176.59C177.448 171.516 178.144 171.368 178.678 171.073C179.212 170.772 179.604 170.363 179.854 169.845C180.104 169.328 180.229 168.74 180.229 168.081C180.229 167.422 180.104 166.837 179.854 166.326C179.604 165.814 179.209 165.414 178.669 165.124C178.135 164.834 177.43 164.689 176.555 164.689H173.249V179.885H170.615ZM185.762 179.885V166.794H188.225V168.874H188.362C188.6 168.169 189.021 167.615 189.623 167.212C190.231 166.803 190.918 166.598 191.685 166.598C191.845 166.598 192.032 166.604 192.248 166.615C192.47 166.627 192.643 166.641 192.768 166.658V169.095C192.666 169.067 192.484 169.036 192.222 169.002C191.961 168.962 191.7 168.942 191.438 168.942C190.836 168.942 190.299 169.07 189.827 169.326C189.362 169.576 188.992 169.925 188.72 170.374C188.447 170.817 188.31 171.323 188.31 171.891V179.885H185.762ZM200.019 180.149C198.791 180.149 197.72 179.868 196.805 179.306C195.891 178.743 195.18 177.956 194.675 176.945C194.169 175.934 193.916 174.752 193.916 173.399C193.916 172.042 194.169 170.854 194.675 169.837C195.18 168.82 195.891 168.03 196.805 167.468C197.72 166.905 198.791 166.624 200.019 166.624C201.246 166.624 202.317 166.905 203.232 167.468C204.146 168.03 204.857 168.82 205.362 169.837C205.868 170.854 206.121 172.042 206.121 173.399C206.121 174.752 205.868 175.934 205.362 176.945C204.857 177.956 204.146 178.743 203.232 179.306C202.317 179.868 201.246 180.149 200.019 180.149ZM200.027 178.01C200.823 178.01 201.482 177.8 202.004 177.38C202.527 176.959 202.913 176.399 203.163 175.701C203.419 175.002 203.547 174.232 203.547 173.391C203.547 172.556 203.419 171.789 203.163 171.09C202.913 170.385 202.527 169.82 202.004 169.394C201.482 168.968 200.823 168.755 200.027 168.755C199.226 168.755 198.561 168.968 198.033 169.394C197.51 169.82 197.121 170.385 196.865 171.09C196.615 171.789 196.49 172.556 196.49 173.391C196.49 174.232 196.615 175.002 196.865 175.701C197.121 176.399 197.51 176.959 198.033 177.38C198.561 177.8 199.226 178.01 200.027 178.01ZM208.965 166.794H211.514V180.72C211.514 181.595 211.354 182.337 211.036 182.945C210.718 183.553 210.249 184.013 209.63 184.326C209.016 184.638 208.252 184.789 207.337 184.777C207.264 184.777 207.187 184.777 207.107 184.777C207.022 184.777 206.934 184.777 206.843 184.777V182.578C206.923 182.578 206.994 182.578 207.056 182.578C207.113 182.584 207.178 182.587 207.252 182.587C207.854 182.587 208.289 182.425 208.556 182.101C208.829 181.777 208.965 181.311 208.965 180.703V166.794ZM210.227 164.774C209.783 164.774 209.403 164.627 209.085 164.331C208.772 164.03 208.616 163.672 208.616 163.257C208.616 162.837 208.772 162.479 209.085 162.184C209.403 161.882 209.783 161.732 210.227 161.732C210.67 161.732 211.048 161.882 211.36 162.184C211.678 162.479 211.837 162.837 211.837 163.257C211.837 163.672 211.678 164.03 211.36 164.331C211.048 164.627 210.67 164.774 210.227 164.774ZM220.584 180.149C219.294 180.149 218.183 179.874 217.251 179.323C216.325 178.766 215.609 177.985 215.104 176.979C214.604 175.968 214.354 174.783 214.354 173.425C214.354 172.084 214.604 170.902 215.104 169.88C215.609 168.857 216.314 168.059 217.217 167.485C218.126 166.911 219.189 166.624 220.405 166.624C221.144 166.624 221.859 166.746 222.553 166.99C223.246 167.235 223.868 167.618 224.419 168.141C224.97 168.664 225.405 169.343 225.723 170.178C226.041 171.007 226.2 172.016 226.2 173.203V174.107H215.794V172.198H223.703C223.703 171.527 223.567 170.934 223.294 170.417C223.021 169.894 222.638 169.482 222.144 169.181C221.655 168.88 221.081 168.729 220.422 168.729C219.706 168.729 219.081 168.905 218.547 169.257C218.019 169.604 217.609 170.059 217.32 170.621C217.036 171.178 216.894 171.783 216.894 172.436V173.928C216.894 174.803 217.047 175.547 217.354 176.161C217.666 176.774 218.101 177.243 218.658 177.567C219.215 177.885 219.865 178.044 220.609 178.044C221.092 178.044 221.533 177.976 221.93 177.84C222.328 177.698 222.672 177.488 222.962 177.209C223.251 176.931 223.473 176.587 223.626 176.178L226.038 176.613C225.845 177.323 225.499 177.945 224.999 178.479C224.504 179.007 223.882 179.419 223.132 179.715C222.388 180.005 221.538 180.149 220.584 180.149ZM235.584 179.885V162.431H246.527V164.698H238.217V170.016H245.956V172.274H238.217V177.618H246.629V179.885H235.584ZM252.184 175.445L252.167 172.334H252.61L257.826 166.794H260.877L254.928 173.101H254.528L252.184 175.445ZM249.84 179.885V162.431H252.389V179.885H249.84ZM258.107 179.885L253.42 173.664L255.175 171.882L261.235 179.885H258.107ZM263.2 179.885V166.794H265.748V179.885H263.2ZM264.487 164.774C264.043 164.774 263.663 164.627 263.345 164.331C263.032 164.03 262.876 163.672 262.876 163.257C262.876 162.837 263.032 162.479 263.345 162.184C263.663 161.882 264.043 161.732 264.487 161.732C264.93 161.732 265.308 161.882 265.62 162.184C265.938 162.479 266.097 162.837 266.097 163.257C266.097 163.672 265.938 164.03 265.62 164.331C265.308 164.627 264.93 164.774 264.487 164.774ZM269.381 179.885V162.431H271.929V168.917H272.082C272.23 168.644 272.443 168.328 272.722 167.97C273 167.613 273.386 167.3 273.881 167.033C274.375 166.76 275.028 166.624 275.841 166.624C276.898 166.624 277.841 166.891 278.671 167.425C279.5 167.959 280.151 168.729 280.622 169.735C281.099 170.74 281.338 171.951 281.338 173.365C281.338 174.78 281.102 175.993 280.631 177.005C280.159 178.01 279.511 178.786 278.688 179.331C277.864 179.871 276.923 180.141 275.867 180.141C275.071 180.141 274.421 180.007 273.915 179.74C273.415 179.473 273.023 179.161 272.739 178.803C272.455 178.445 272.236 178.127 272.082 177.848H271.869V179.885H269.381ZM271.878 173.34C271.878 174.26 272.011 175.067 272.278 175.76C272.546 176.453 272.932 176.996 273.438 177.388C273.943 177.774 274.563 177.968 275.296 177.968C276.057 177.968 276.693 177.766 277.205 177.363C277.716 176.953 278.102 176.399 278.364 175.701C278.631 175.002 278.764 174.215 278.764 173.34C278.764 172.476 278.634 171.701 278.372 171.013C278.117 170.326 277.73 169.783 277.213 169.385C276.702 168.988 276.063 168.789 275.296 168.789C274.557 168.789 273.932 168.979 273.421 169.36C272.915 169.74 272.531 170.272 272.27 170.953C272.009 171.635 271.878 172.431 271.878 173.34ZM284.2 179.885V166.794H286.748V179.885H284.2ZM285.487 164.774C285.043 164.774 284.663 164.627 284.345 164.331C284.032 164.03 283.876 163.672 283.876 163.257C283.876 162.837 284.032 162.479 284.345 162.184C284.663 161.882 285.043 161.732 285.487 161.732C285.93 161.732 286.308 161.882 286.62 162.184C286.938 162.479 287.097 162.837 287.097 163.257C287.097 163.672 286.938 164.03 286.62 164.331C286.308 164.627 285.93 164.774 285.487 164.774Z" fill="white"/>
<defs>
<linearGradient id="paint0_linear" x1="228.451" y1="0.7997" x2="217.96" y2="309.982" gradientUnits="userSpaceOnUse">
<stop stop-color="#439FC0"/>
<stop offset="1" stop-color="#0284CB"/>
</linearGradient>
</defs>
</svg>
