<svg width="358" height="299" viewBox="0 0 358 299" fill="none" xmlns="http://www.w3.org/2000/svg">
<g filter="url(#filter0_di)">
<path d="M56.4183 59V6.63636H91.0888V15.7642H67.4893V28.2415H88.7876V37.3693H67.4893V59H56.4183ZM98.331 59V19.7273H109.223V59H98.331ZM103.828 14.6648C102.209 14.6648 100.82 14.1278 99.6605 13.054C98.5014 11.9631 97.9219 10.6591 97.9219 9.14204C97.9219 7.64204 98.5014 6.35511 99.6605 5.28125C100.82 4.19034 102.2 3.64488 103.803 3.64488C105.439 3.64488 106.828 4.19034 107.97 5.28125C109.129 6.35511 109.709 7.64204 109.709 9.14204C109.709 10.6591 109.129 11.9631 107.97 13.054C106.828 14.1278 105.447 14.6648 103.828 14.6648ZM127.817 47.6989L127.843 34.6335H129.428L142.008 19.7273H154.511L137.61 39.4659H135.028L127.817 47.6989ZM117.948 59V6.63636H128.84V59H117.948ZM142.494 59L130.937 41.8949L138.198 34.1989L155.252 59H142.494ZM159.854 59V19.7273H170.746V59H159.854ZM165.352 14.6648C163.732 14.6648 162.343 14.1278 161.184 13.054C160.025 11.9631 159.445 10.6591 159.445 9.14204C159.445 7.64204 160.025 6.35511 161.184 5.28125C162.343 4.19034 163.724 3.64488 165.326 3.64488C166.962 3.64488 168.352 4.19034 169.494 5.28125C170.653 6.35511 171.232 7.64204 171.232 9.14204C171.232 10.6591 170.653 11.9631 169.494 13.054C168.352 14.1278 166.971 14.6648 165.352 14.6648ZM179.472 59V19.7273H190.031V26.5795H190.44C191.156 24.142 192.358 22.3011 194.045 21.0568C195.733 19.7955 197.676 19.1648 199.875 19.1648C200.42 19.1648 201.009 19.1989 201.639 19.267C202.27 19.3352 202.824 19.429 203.301 19.5483V29.2131C202.79 29.0597 202.082 28.9233 201.179 28.804C200.276 28.6847 199.449 28.625 198.699 28.625C197.097 28.625 195.665 28.9744 194.403 29.6733C193.159 30.3551 192.17 31.3097 191.438 32.5369C190.722 33.7642 190.364 35.179 190.364 36.7812V59H179.472ZM262.21 19.7273L248.48 59H236.207L222.477 19.7273H233.983L242.139 47.8267H242.548L250.679 19.7273H262.21ZM284.346 59.767C280.306 59.767 276.829 58.9489 273.914 57.3125C271.016 55.6591 268.783 53.3239 267.215 50.3068C265.647 47.2727 264.863 43.6847 264.863 39.5426C264.863 35.5028 265.647 31.9574 267.215 28.9062C268.783 25.8551 270.991 23.4773 273.837 21.7727C276.701 20.0682 280.059 19.2159 283.911 19.2159C286.502 19.2159 288.914 19.6335 291.147 20.4688C293.397 21.2869 295.357 22.5227 297.028 24.1761C298.715 25.8295 300.028 27.9091 300.965 30.4148C301.903 32.9034 302.371 35.8182 302.371 39.1591V42.1506H269.21V35.4006H292.119C292.119 33.8324 291.778 32.4432 291.096 31.233C290.414 30.0227 289.468 29.0767 288.258 28.3949C287.065 27.696 285.675 27.3466 284.09 27.3466C282.437 27.3466 280.971 27.7301 279.692 28.4972C278.431 29.2472 277.442 30.2614 276.727 31.5398C276.011 32.8011 275.644 34.2074 275.627 35.7585V42.1761C275.627 44.1193 275.985 45.7983 276.701 47.2131C277.434 48.6278 278.465 49.7188 279.795 50.4858C281.124 51.2528 282.701 51.6364 284.525 51.6364C285.735 51.6364 286.843 51.4659 287.849 51.125C288.854 50.7841 289.715 50.2727 290.431 49.5909C291.147 48.9091 291.692 48.0739 292.067 47.0852L302.141 47.75C301.63 50.1705 300.582 52.2841 298.996 54.0909C297.428 55.8807 295.4 57.2784 292.911 58.2841C290.44 59.2727 287.585 59.767 284.346 59.767ZM5.72443 97.4545H16.7472L27.3608 117.5H27.8153L38.429 97.4545H49.4517L32.4744 127.545V144H22.7017V127.545L5.72443 97.4545ZM57.8494 144.659C55.6222 144.659 53.6373 144.273 51.8949 143.5C50.1525 142.712 48.7737 141.553 47.7585 140.023C46.7585 138.477 46.2585 136.553 46.2585 134.25C46.2585 132.311 46.6146 130.682 47.3267 129.364C48.0388 128.045 49.0085 126.985 50.2358 126.182C51.4631 125.379 52.857 124.773 54.4176 124.364C55.9934 123.955 57.6449 123.667 59.3722 123.5C61.4025 123.288 63.0388 123.091 64.2812 122.909C65.5237 122.712 66.4252 122.424 66.9858 122.045C67.5464 121.667 67.8267 121.106 67.8267 120.364V120.227C67.8267 118.788 67.3722 117.674 66.4631 116.886C65.5691 116.098 64.2964 115.705 62.6449 115.705C60.9025 115.705 59.5161 116.091 58.4858 116.864C57.4555 117.621 56.7737 118.576 56.4403 119.727L47.4858 119C47.9403 116.879 48.8343 115.045 50.1676 113.5C51.5009 111.939 53.2206 110.742 55.3267 109.909C57.4479 109.061 59.9025 108.636 62.6903 108.636C64.6297 108.636 66.4858 108.864 68.2585 109.318C70.0464 109.773 71.6297 110.477 73.0085 111.432C74.4025 112.386 75.5009 113.614 76.304 115.114C77.107 116.598 77.5085 118.379 77.5085 120.455V144H68.3267V139.159H68.054C67.4934 140.25 66.7434 141.212 65.804 142.045C64.8646 142.864 63.7358 143.508 62.4176 143.977C61.0994 144.432 59.5767 144.659 57.8494 144.659ZM60.6222 137.977C62.0464 137.977 63.304 137.697 64.3949 137.136C65.4858 136.561 66.3419 135.788 66.9631 134.818C67.5843 133.848 67.8949 132.75 67.8949 131.523V127.818C67.5919 128.015 67.1752 128.197 66.6449 128.364C66.1297 128.515 65.5464 128.659 64.8949 128.795C64.2434 128.917 63.5919 129.03 62.9403 129.136C62.2888 129.227 61.6979 129.311 61.1676 129.386C60.0313 129.553 59.0388 129.818 58.1903 130.182C57.3419 130.545 56.6828 131.038 56.2131 131.659C55.7434 132.265 55.5085 133.023 55.5085 133.932C55.5085 135.25 55.9858 136.258 56.9403 136.955C57.91 137.636 59.1373 137.977 60.6222 137.977ZM103.588 109.091V116.364H82.5653V109.091H103.588ZM87.3381 100.727H97.0199V133.273C97.0199 134.167 97.1563 134.864 97.429 135.364C97.7017 135.848 98.0805 136.189 98.5653 136.386C99.0653 136.583 99.6411 136.682 100.293 136.682C100.747 136.682 101.202 136.644 101.656 136.568C102.111 136.477 102.459 136.409 102.702 136.364L104.224 143.568C103.74 143.72 103.058 143.894 102.179 144.091C101.3 144.303 100.232 144.432 98.9744 144.477C96.6411 144.568 94.5956 144.258 92.8381 143.545C91.0956 142.833 89.7396 141.727 88.7699 140.227C87.8002 138.727 87.3229 136.833 87.3381 134.545V100.727ZM109.895 144V109.091H119.577V144H109.895ZM127.332 144V109.091H136.719V115.182H137.082C137.719 113.015 138.787 111.379 140.287 110.273C141.787 109.152 143.514 108.591 145.469 108.591C145.954 108.591 146.476 108.621 147.037 108.682C147.598 108.742 148.09 108.826 148.514 108.932V117.523C148.06 117.386 147.431 117.265 146.628 117.159C145.825 117.053 145.09 117 144.423 117C142.999 117 141.726 117.311 140.605 117.932C139.499 118.538 138.62 119.386 137.969 120.477C137.332 121.568 137.014 122.826 137.014 124.25V144H127.332ZM153.52 144V109.091H163.202V144H153.52ZM170.957 144V109.091H180.185V115.25H180.594C181.321 113.205 182.533 111.591 184.23 110.409C185.927 109.227 187.957 108.636 190.321 108.636C192.715 108.636 194.753 109.235 196.435 110.432C198.116 111.614 199.238 113.22 199.798 115.25H200.162C200.874 113.25 202.162 111.652 204.026 110.455C205.904 109.242 208.124 108.636 210.685 108.636C213.942 108.636 216.586 109.674 218.616 111.75C220.662 113.811 221.685 116.735 221.685 120.523V144H212.026V122.432C212.026 120.492 211.51 119.038 210.48 118.068C209.45 117.098 208.162 116.614 206.616 116.614C204.859 116.614 203.488 117.174 202.503 118.295C201.518 119.402 201.026 120.864 201.026 122.682V144H191.639V122.227C191.639 120.515 191.147 119.152 190.162 118.136C189.192 117.121 187.912 116.614 186.321 116.614C185.245 116.614 184.276 116.886 183.412 117.432C182.563 117.962 181.889 118.712 181.389 119.682C180.889 120.636 180.639 121.758 180.639 123.045V144H170.957ZM245.105 144.682C241.529 144.682 238.454 143.924 235.878 142.409C233.317 140.879 231.348 138.758 229.969 136.045C228.605 133.333 227.923 130.212 227.923 126.682C227.923 123.106 228.613 119.97 229.991 117.273C231.385 114.561 233.363 112.447 235.923 110.932C238.484 109.402 241.529 108.636 245.06 108.636C248.105 108.636 250.772 109.189 253.06 110.295C255.348 111.402 257.158 112.955 258.491 114.955C259.825 116.955 260.56 119.303 260.696 122H251.56C251.302 120.258 250.62 118.856 249.514 117.795C248.423 116.72 246.991 116.182 245.219 116.182C243.719 116.182 242.408 116.591 241.287 117.409C240.181 118.212 239.317 119.386 238.696 120.932C238.075 122.477 237.764 124.348 237.764 126.545C237.764 128.773 238.067 130.667 238.673 132.227C239.295 133.788 240.166 134.977 241.287 135.795C242.408 136.614 243.719 137.023 245.219 137.023C246.325 137.023 247.317 136.795 248.196 136.341C249.09 135.886 249.825 135.227 250.401 134.364C250.991 133.485 251.378 132.432 251.56 131.205H260.696C260.545 133.871 259.817 136.22 258.514 138.25C257.226 140.265 255.446 141.841 253.173 142.977C250.901 144.114 248.211 144.682 245.105 144.682ZM266.895 144V109.091H276.577V144H266.895ZM294.014 97.4545V144H284.332V97.4545H294.014ZM301.77 144V109.091H311.452V144H301.77ZM327.98 133.955L328.003 122.341H329.412L340.594 109.091H351.707L336.685 126.636H334.389L327.98 133.955ZM319.207 144V97.4545H328.889V144H319.207ZM341.026 144L330.753 128.795L337.207 121.955L352.366 144H341.026ZM100.803 271V201.182H115.564V258.83H145.496V271H100.803ZM154.999 271V218.636H169.521V271H154.999ZM162.328 211.886C160.169 211.886 158.317 211.17 156.771 209.739C155.226 208.284 154.453 206.545 154.453 204.523C154.453 202.523 155.226 200.807 156.771 199.375C158.317 197.92 160.158 197.193 162.294 197.193C164.476 197.193 166.328 197.92 167.851 199.375C169.396 200.807 170.169 202.523 170.169 204.523C170.169 206.545 169.396 208.284 167.851 209.739C166.328 211.17 164.487 211.886 162.328 211.886ZM204.746 291.386C200.041 291.386 196.007 290.75 192.643 289.477C189.303 288.205 186.643 286.489 184.666 284.33C182.689 282.17 181.405 279.773 180.814 277.136L194.246 275.33C194.655 276.284 195.303 277.182 196.189 278.023C197.075 278.886 198.246 279.591 199.7 280.136C201.178 280.682 202.973 280.955 205.087 280.955C208.246 280.955 210.848 280.205 212.893 278.705C214.962 277.205 215.996 274.739 215.996 271.307V261.727H215.382C214.746 263.182 213.791 264.557 212.518 265.852C211.246 267.148 209.609 268.205 207.609 269.023C205.609 269.841 203.223 270.25 200.45 270.25C196.518 270.25 192.939 269.341 189.712 267.523C186.507 265.682 183.95 262.875 182.041 259.102C180.155 255.307 179.212 250.511 179.212 244.716C179.212 238.784 180.178 233.83 182.109 229.852C184.041 225.875 186.609 222.898 189.814 220.92C193.041 218.943 196.575 217.955 200.416 217.955C203.348 217.955 205.803 218.455 207.78 219.455C209.757 220.432 211.348 221.659 212.553 223.136C213.78 224.591 214.723 226.023 215.382 227.432H215.928V218.636H230.348V271.511C230.348 275.875 229.257 279.523 227.075 282.455C224.893 285.409 221.871 287.636 218.007 289.136C214.166 290.636 209.746 291.386 204.746 291.386ZM205.053 259.341C207.393 259.341 209.371 258.761 210.984 257.602C212.621 256.42 213.871 254.739 214.734 252.557C215.621 250.352 216.064 247.716 216.064 244.648C216.064 241.58 215.632 238.92 214.768 236.67C213.905 234.398 212.655 232.636 211.018 231.386C209.382 230.136 207.393 229.511 205.053 229.511C202.666 229.511 200.655 230.159 199.018 231.455C197.382 232.727 196.143 234.5 195.303 236.773C194.462 239.045 194.041 241.67 194.041 244.648C194.041 247.67 194.462 250.284 195.303 252.489C196.166 254.67 197.405 256.364 199.018 257.568C200.655 258.75 202.666 259.341 205.053 259.341ZM241.905 271V218.636H256.428V271H241.905ZM249.234 211.886C247.075 211.886 245.223 211.17 243.678 209.739C242.132 208.284 241.359 206.545 241.359 204.523C241.359 202.523 242.132 200.807 243.678 199.375C245.223 197.92 247.064 197.193 249.2 197.193C251.382 197.193 253.234 197.92 254.757 199.375C256.303 200.807 257.075 202.523 257.075 204.523C257.075 206.545 256.303 208.284 254.757 209.739C253.234 211.17 251.393 211.886 249.234 211.886Z" fill="url(#paint0_linear)"/>
</g>
<defs>
<filter id="filter0_di" x="0.724365" y="0.644882" width="356.642" height="297.741" filterUnits="userSpaceOnUse" color-interpolation-filters="sRGB">
<feFlood flood-opacity="0" result="BackgroundImageFix"/>
<feColorMatrix in="SourceAlpha" type="matrix" values="0 0 0 0 0 0 0 0 0 0 0 0 0 0 0 0 0 0 127 0"/>
<feOffset dy="2"/>
<feGaussianBlur stdDeviation="2.5"/>
<feColorMatrix type="matrix" values="0 0 0 0 0 0 0 0 0 0 0 0 0 0 0 0 0 0 0.25 0"/>
<feBlend mode="normal" in2="BackgroundImageFix" result="effect1_dropShadow"/>
<feBlend mode="normal" in="SourceGraphic" in2="effect1_dropShadow" result="shape"/>
<feColorMatrix in="SourceAlpha" type="matrix" values="0 0 0 0 0 0 0 0 0 0 0 0 0 0 0 0 0 0 127 0" result="hardAlpha"/>
<feOffset dy="2"/>
<feGaussianBlur stdDeviation="2"/>
<feComposite in2="hardAlpha" operator="arithmetic" k2="-1" k3="1"/>
<feColorMatrix type="matrix" values="0 0 0 0 0.325 0 0 0 0 0.325 0 0 0 0 0.325 0 0 0 0.25 0"/>
<feBlend mode="normal" in2="shape" result="effect2_innerShadow"/>
</filter>
<linearGradient id="paint0_linear" x1="178.5" y1="-15" x2="178.5" y2="291.704" gradientUnits="userSpaceOnUse">
<stop offset="0.0713706" stop-color="#E72E3E"/>
<stop offset="0.269074" stop-color="#FE7350"/>
<stop offset="0.395913" stop-color="#2994C5"/>
<stop offset="0.542481" stop-color="#168BC7"/>
<stop offset="0.677081" stop-color="#F68038"/>
<stop offset="1" stop-color="#FDAE51"/>
</linearGradient>
</defs>
</svg>
